<svg width="384" height="96" viewBox="0 0 384 96" fill="none" xmlns="http://www.w3.org/2000/svg">
<path d="M6.06063 70.4916C2.95015 74.8035 1.39491 78.8459 1.39491 82.3983C1.39491 89.0049 7.23908 93.5945 15.7608 93.5945C22.7835 93.5945 30.5516 91.2997 36.5081 87.535C42.24 83.9336 45.7273 79.2869 46.3686 74.3217C47.2825 67.2251 40.5244 61.9822 34.7925 56.3556C30.9845 52.5908 27.5534 48.5975 27.7137 43.9018C27.9302 36.5275 38.7046 29.6514 49.7436 29.6514C58.0008 29.6514 64.7509 33.7427 64.7509 38.8794C64.7509 40.8965 63.6286 43.028 61.5362 45.1022L60.5742 44.0651C62.4501 42.2603 63.364 40.5127 63.364 38.8794C63.364 34.6166 57.143 31.0723 49.7516 31.0723C39.4582 31.0723 29.277 37.4095 29.1167 43.9589C28.9563 48.1075 32.0107 51.6027 35.7625 55.3184C41.4463 60.8879 48.7896 66.6208 47.7715 74.5422C47.0741 79.8912 43.3223 84.9136 37.2135 88.7354C31.1048 92.6635 23.0641 95.0154 15.7689 95.0154C6.48551 95.0072 0 89.8706 0 82.3901C0 78.5682 1.65946 74.1992 4.93027 69.6668L6.05261 70.4835L6.06063 70.4916Z" fill="black"/>
<path d="M68.727 78.8459C71.1961 76.6083 71.0358 75.3506 68.5105 75.3506C64.2777 75.3506 59.9887 80.6507 62.1853 83.3211C64.6545 86.3263 80.736 84.3011 90.9733 79.6054L91.5104 80.9202C80.4153 85.9997 64.1173 87.8534 61.1191 84.1949C58.1209 80.5935 63.0511 73.9297 68.5185 73.9297C72.4307 73.9297 73.0239 76.8778 69.6409 79.883L68.727 78.8459Z" fill="black"/>
<path d="M127.802 80.9202C127.802 80.9202 111.721 88.0168 105.291 88.0168C100.946 88.0168 100.361 85.5588 103.68 80.6426C106.63 76.543 107.055 75.6202 105.989 75.6202C102.557 75.6202 96.5529 80.3731 92.2159 86.5959L91.8952 87.0859L91.8391 87.143L90.6606 86.3754L90.9813 85.8854L109.853 57.1069L111.031 57.8746L97.4187 78.6255C100.529 75.8979 103.688 74.1993 105.997 74.1993C109.211 74.1993 108.137 76.8207 104.874 81.5164C102.141 85.4444 102.301 86.5959 105.307 86.5959C111.416 86.5959 127.281 79.6054 127.281 79.6054L127.818 80.9202H127.802Z" fill="black"/>
<path d="M157.817 80.9202C151.708 83.5416 143.186 86.8163 139.539 86.8163C137.182 86.8163 135.787 85.722 135.787 83.8111C135.787 82.774 136.163 81.5163 136.644 80.373C134.127 82.774 130.696 85.5587 128.548 85.5587C127.473 85.5587 126.832 84.3582 126.832 82.9945C126.832 79.7197 130.424 75.8978 133.638 75.8978C135.193 75.8978 136.532 76.7145 137.069 78.0293L138.785 76.2817L139.426 76.935L139.859 77.2045C139.266 78.1354 137.182 81.7368 137.182 83.8111C137.182 84.9054 137.879 85.3954 139.539 85.3954C142.216 85.3954 148.758 83.2639 157.279 79.6054L157.817 80.9202ZM128.556 84.1459C130.327 84.1459 133.542 81.4183 135.955 79.1236C135.795 78.0864 134.833 77.3188 133.646 77.3188C131.233 77.3188 128.235 80.5364 128.235 82.9945C128.235 83.5906 128.451 84.1377 128.556 84.1377V84.1459Z" fill="black"/>
<path d="M192.769 80.9201C183.927 85.2892 173.04 83.6477 173.04 77.9149C173.04 77.0982 173.201 76.3878 173.465 75.7835C171.108 76.8778 168.639 79.8748 166.875 82.2268C166.122 83.4844 165.376 84.5215 164.943 85.0687L164.679 85.5587H164.623L163.444 84.791C163.5 84.7339 163.709 84.35 164.086 83.86C164.406 83.3701 164.783 82.7657 165.264 82.1124C166.819 79.8177 168.751 76.6491 168.751 75.2363V75.1791C168.27 75.2363 167.196 75.7263 164.302 77.4167C162.482 78.511 160.23 79.8177 157.817 80.912L157.279 79.5972C159.588 78.56 161.785 77.2452 163.605 76.1591C166.819 74.3053 167.95 73.7582 168.807 73.7582C169.665 73.7582 170.146 74.3625 170.146 75.2363C170.146 75.6691 170.042 76.1673 169.826 76.7634C171.597 75.122 173.521 73.8725 175.293 73.8725C177.065 73.8725 178.347 74.6892 178.347 76.2734H176.952C176.952 75.6691 176.528 75.3425 175.67 75.2935C174.868 75.7835 174.435 76.6573 174.435 77.9149C174.435 82.3411 184.408 83.4272 192.128 79.6053L192.769 80.9201Z" fill="black"/>
<path d="M222.736 80.9202C216.627 83.5416 208.105 86.8163 204.458 86.8163C202.101 86.8163 200.706 85.722 200.706 83.8111C200.706 82.774 201.083 81.5163 201.564 80.373C199.046 82.774 195.615 85.5587 193.467 85.5587C192.393 85.5587 191.751 84.3582 191.751 82.9945C191.751 79.7197 195.343 75.8978 198.557 75.8978C200.113 75.8978 201.451 76.7145 201.989 78.0293L203.704 76.2817L204.345 76.935L204.778 77.2045C204.185 78.1354 202.101 81.7368 202.101 83.8111C202.101 84.9054 202.798 85.3954 204.458 85.3954C207.135 85.3954 213.677 83.2639 222.199 79.6054L222.736 80.9202ZM193.475 84.1459C195.246 84.1459 198.461 81.4183 200.874 79.1236C200.714 78.0864 199.752 77.3188 198.565 77.3188C196.152 77.3188 193.154 80.5364 193.154 82.9945C193.154 83.5906 193.371 84.1377 193.475 84.1377V84.1459Z" fill="black"/>
<path d="M251.043 80.9201C244.934 83.5415 236.412 86.8163 232.765 86.8163C230.408 86.8163 229.013 85.722 229.013 83.811C229.013 83.321 229.069 82.8311 229.229 82.3411C228.267 83.3782 227.458 84.0887 226.712 84.5787C225.694 85.2891 224.78 85.6158 223.922 85.6158C222.584 85.6158 221.782 84.6358 221.782 82.9944C221.782 79.7196 225.373 75.8978 228.588 75.8978C229.71 75.8978 230.68 76.4449 231.426 77.3759C233.406 74.6483 235.875 70.9897 238.93 66.2369C240.645 63.6155 242.521 60.6102 244.662 57.115L245.84 57.8826C243.691 61.3207 241.816 64.3831 240.1 67.0535C237.31 71.4226 235.009 74.8116 233.077 77.482C232.484 78.413 230.4 81.7449 230.4 83.8192C230.4 84.9135 231.097 85.4035 232.757 85.4035C235.434 85.4035 241.976 83.272 250.498 79.6135L251.035 80.9283L251.043 80.9201ZM230.512 78.5192C229.975 77.7025 229.39 77.3187 228.58 77.3187C226.167 77.3187 223.169 80.5363 223.169 82.9944C223.169 83.8682 223.433 84.1948 223.922 84.1948C224.459 84.1948 225.157 83.9254 225.959 83.4272C227.081 82.6596 228.588 81.0753 230.512 78.511V78.5192Z" fill="black"/>
<path d="M276.512 77.5311C274.909 84.0642 261.817 88.2944 255.652 86.9878C251.684 86.1711 249.969 83.2231 250.129 80.3811V80.275C250.393 77.3841 252.702 74.6483 256.831 74.6483C258.442 74.6483 259.669 75.7426 259.669 77.2126C259.669 81.1978 254.739 83.5987 252.005 82.7821C252.646 84.0887 253.937 85.183 255.917 85.5668C261.649 86.7673 271.197 82.8882 274.492 78.2497L276.504 77.5311H276.512ZM251.532 80.373C251.692 82.8882 258.29 81.0835 258.29 77.2044C258.29 76.5511 257.697 76.0611 256.839 76.0611C253.568 76.0611 251.748 78.1354 251.532 80.373Z" fill="black"/>
<path d="M382.733 30.9825H276.913V74.2646H382.733V30.9825Z" fill="#E6E6E6"/>
<path d="M330.264 74.0931C341.771 74.0931 351.099 64.5906 351.099 52.8686C351.099 41.1466 341.771 31.644 330.264 31.644C318.757 31.644 309.428 41.1466 309.428 52.8686C309.428 64.5906 318.757 74.0931 330.264 74.0931Z" fill="#F2F2F2"/>
<path d="M330.264 74.9097C318.335 74.9097 308.627 65.0202 308.627 52.8686C308.627 40.7169 318.335 30.8274 330.264 30.8274C342.193 30.8274 351.901 40.7169 351.901 52.8686C351.901 65.0202 342.193 74.9097 330.264 74.9097ZM330.264 32.4607C319.217 32.4607 310.23 41.6152 310.23 52.8686C310.23 64.1219 319.217 73.2765 330.264 73.2765C341.311 73.2765 350.298 64.1219 350.298 52.8686C350.298 41.6152 341.311 32.4607 330.264 32.4607Z" fill="black"/>
<path d="M354.803 82.1288C349.969 82.1288 345.127 82.1288 340.678 82.1288H330.272V80.4955H340.686C353.232 80.5119 368.848 80.52 378.845 80.4629C380.497 80.4465 381.338 80.2587 381.755 79.8177C382.172 79.3767 382.34 78.4539 382.324 76.739C382.34 65.551 382.372 33.4243 382.316 19.182C382.252 17.6222 382.172 16.6504 381.346 16.1278C380.392 15.4581 376.584 15.4255 375.326 15.4173C373.482 15.401 371.277 15.401 369.049 15.401C367.558 15.401 366.058 15.401 364.648 15.401C361.465 15.3928 358.884 15.3193 357.056 14.5027C354.025 13.2614 353.536 10.15 353.104 7.39787C352.574 4.01698 352.093 1.9427 348.983 1.82021C337.703 1.53438 320.387 1.69771 312.058 1.77121C309.148 1.83654 307.961 3.0615 307.521 6.45057C307.023 10.8033 306.11 14.764 300.53 15.205C297.532 15.4581 294.213 15.4255 291.014 15.401C289.242 15.3846 287.567 15.3765 285.964 15.401C285.475 15.4173 284.962 15.4173 284.448 15.4255C282.677 15.4418 280.841 15.45 279.31 15.9971C278.252 16.4299 278.163 17.5242 278.107 19.28L278.091 19.6475C278.091 23.2326 278.211 27.9936 278.348 33.0241C278.821 51.0474 279.406 73.4806 275.606 79.6054L274.251 78.7316C277.795 73.0233 277.185 49.9286 276.744 33.0649C276.608 28.0181 276.488 23.2489 276.488 19.6067L276.504 19.2147C276.56 17.4752 276.632 15.3193 278.749 14.4537C280.56 13.8004 282.532 13.7922 284.44 13.7759C284.946 13.7759 285.443 13.7759 285.932 13.7514C287.567 13.7187 289.25 13.735 291.03 13.7514C294.197 13.7759 297.476 13.8004 300.402 13.5554C304.426 13.2369 305.396 10.9421 305.933 6.23008C306.294 3.43716 307.312 0.219589 312.034 0.113425C320.379 0.0399275 337.719 -0.123401 349.031 0.162424C353.617 0.342085 354.186 3.93531 354.683 7.11205C355.084 9.65997 355.46 12.0609 357.673 12.9674C359.236 13.6615 361.649 13.7269 364.648 13.7432C366.05 13.7432 367.55 13.7432 369.041 13.7432C371.269 13.7432 373.482 13.7432 375.334 13.7595C378.669 13.784 381.114 13.9637 382.212 14.7395C383.775 15.7195 383.848 17.5079 383.912 19.084C383.976 33.3998 383.944 65.5346 383.928 76.7145C383.952 78.5764 383.783 80.0137 382.91 80.9365C382.036 81.8593 380.657 82.0635 378.861 82.088C372.408 82.1207 363.613 82.137 354.819 82.137L354.803 82.1288Z" fill="black"/>
<path d="M330.015 82.1287C315.233 82.1287 302.638 69.9935 301.877 54.9346C301.107 44.7429 305.773 35.0983 314.359 29.1613C322.953 23.2162 333.479 22.3505 342.505 26.8421C352.558 31.7093 358.819 41.7703 358.819 53.0971H357.216C357.216 42.4154 351.308 32.9179 341.808 28.3202C333.294 24.0818 323.369 24.9066 315.257 30.517C307.16 36.1191 302.751 45.2084 303.472 54.8284C304.186 68.8175 316.315 80.4955 330.031 80.4955C330.128 80.4955 330.216 80.4955 330.312 80.4955L330.328 82.1287C330.224 82.1287 330.12 82.1287 330.015 82.1287Z" fill="black"/>
<path d="M295.479 12.8122H287.214C285.948 12.8122 284.921 11.7669 284.921 10.4766V8.81069C284.921 7.5204 285.948 6.4751 287.214 6.4751H295.479C296.746 6.4751 297.772 7.5204 297.772 8.81069V10.4766C297.772 11.7669 296.746 12.8122 295.479 12.8122ZM287.206 8.11655C286.829 8.11655 286.517 8.42687 286.517 8.81886V10.4848C286.517 10.8686 286.821 11.1871 287.206 11.1871H295.471C295.848 11.1871 296.161 10.8768 296.161 10.4848V8.81886C296.161 8.43504 295.856 8.11655 295.471 8.11655H287.206Z" fill="black"/>
<path d="M283.727 24.4493H282.124V74.2645H283.727V24.4493Z" fill="black"/>
<path d="M90.9332 25.6825V26.295C90.9332 26.54 90.9412 26.981 90.9733 27.814C90.9813 27.9038 90.9813 28.0589 90.9813 28.1733C90.9813 28.3039 90.813 28.3856 90.6927 28.4019C90.4923 28.4019 90.4683 28.3938 90.4602 28.3938C90.4121 28.3856 90.3721 28.3284 90.3721 28.2468V28.2141C90.3721 28.2141 90.3881 27.961 90.4041 27.7323C90.4202 27.3648 90.4202 27.0953 90.4202 26.295V25.6825H89.0733C88.6725 25.6825 86.8607 25.7234 86.4118 25.7887C86.3236 25.6989 86.2034 25.3804 86.2034 25.2415C86.6844 25.2824 88.6244 25.3559 89.3299 25.3559H90.4282V23.6491H88.1675V23.9594C88.1755 24.0329 88.1755 24.1146 88.1755 24.1717C88.1755 24.2861 87.967 24.3841 87.7907 24.3841C87.6784 24.3841 87.5822 24.3351 87.5822 24.2126C87.5822 24.0901 87.6143 23.8941 87.6223 23.7226C87.6464 23.3469 87.6464 22.6854 87.6464 22.4486C87.6464 22.4486 87.6544 20.8235 87.6544 20.5867C87.6544 20.2927 87.6143 19.7782 87.5662 19.5332C87.7506 19.5822 88.0552 19.7374 88.2637 19.8599H93.21C93.2901 19.7455 93.3943 19.6312 93.4424 19.6067C93.4745 19.5985 93.4825 19.5985 93.4905 19.5985C93.5787 19.5985 94.0918 19.9252 94.0918 20.0967C94.0918 20.2437 93.8914 20.309 93.7471 20.3498V22.3996C93.7471 22.4649 93.7631 23.4858 93.8192 24.0247C93.8192 24.1799 93.6108 24.2779 93.4344 24.2779C93.3142 24.2779 93.2019 24.2289 93.2019 24.1146C93.2019 24.0737 93.21 23.9104 93.21 23.7144V23.6409H90.9412V25.3477H93.9154C94.1239 25.0129 94.3644 24.7434 94.4285 24.7434C94.5327 24.7434 95.3264 25.2742 95.3264 25.4702C95.3264 25.56 95.2622 25.6744 95.1179 25.6744H90.9412L90.9332 25.6825ZM93.218 20.1784H88.1675V21.5503H93.218V20.1784ZM93.218 21.8688H88.1594V23.3224H93.21C93.218 23.1673 93.218 23.0121 93.218 22.8896V21.8688Z" fill="black"/>
<path d="M102.357 22.2118V23.1836C102.437 23.2326 103.632 24.0329 103.632 24.6454C103.632 24.8495 103.551 25.0782 103.383 25.0782C103.303 25.0782 103.215 25.0129 103.175 24.8495C103.03 24.3269 102.694 23.8451 102.357 23.4694V25.4865C102.349 26.1398 102.365 27.3648 102.365 27.667C102.365 28.0181 102.389 28.2794 102.389 28.2794C102.389 28.4346 102.229 28.5163 102.1 28.5163C101.972 28.5163 101.796 28.5163 101.796 28.3448V28.3039C101.82 28.0099 101.876 26.8176 101.884 25.4865C101.892 24.776 101.932 23.8777 101.956 23.2163C101.828 23.6899 101.644 24.2126 101.491 24.5147C100.978 25.5192 100.16 26.4583 100.08 26.4583C100.032 26.4583 99.9199 26.393 99.9199 26.3358C99.9199 26.3113 99.9199 26.3032 99.9279 26.295C100.706 25.3395 101.563 23.5919 101.836 22.2118H101.403C101.13 22.2118 100.497 22.2526 100.321 22.2771C100.241 22.1873 100.16 21.9831 100.16 21.8443C100.401 21.8851 101.411 21.926 101.66 21.926H101.924V20.2845C101.026 20.5622 100.265 20.7173 100.249 20.7173C100.176 20.7173 100.136 20.6275 100.136 20.554C100.136 20.5213 100.144 20.4887 100.168 20.4805C101.347 20.1865 102.854 19.5577 103.127 19.1249C103.295 19.2147 103.744 19.5577 103.744 19.6884C103.744 19.7292 103.712 19.7619 103.68 19.7782C103.64 19.8109 103.576 19.8272 103.495 19.8272C103.423 19.8272 103.343 19.819 103.255 19.7864C102.95 19.917 102.654 20.0314 102.373 20.1375V21.9178H102.91C103.038 21.7626 103.143 21.583 103.295 21.4441C103.303 21.436 103.311 21.4278 103.335 21.4278C103.359 21.4278 104.032 21.9015 104.032 22.073C104.032 22.1465 103.984 22.2036 103.848 22.2036H102.373L102.357 22.2118ZM103.848 20.6765C103.784 20.6765 103.76 20.5867 103.76 20.5132C103.76 20.4723 103.768 20.4315 103.8 20.4315C107.408 19.8599 107.824 19.4189 107.953 19.2229C108.506 19.5414 108.618 19.7864 108.618 19.8599C108.618 19.9415 108.53 19.9824 108.45 19.9824C108.362 19.9824 108.241 19.9415 108.129 19.8925C106.045 20.5213 103.952 20.6847 103.856 20.6847L103.848 20.6765ZM104.129 24.2452C104.129 23.8777 104.121 23.6001 104.049 23.1183C104.842 23.1183 104.922 23.2244 104.922 23.3551C104.922 23.4449 104.818 23.5266 104.61 23.6001V27.7895C104.61 28.0426 104.618 28.0998 104.618 28.1814C104.618 28.2958 104.522 28.4264 104.289 28.4264C104.185 28.4264 104.081 28.3938 104.081 28.2549V28.2304C104.081 28.1243 104.105 27.9773 104.113 27.716C104.113 27.4628 104.137 25.3477 104.137 25.1272V24.2452H104.129ZM104.81 22.4976C104.682 21.9831 104.505 21.5013 104.129 21.093C104.121 21.0848 104.105 21.0685 104.105 21.0522C104.105 21.0032 104.193 20.946 104.273 20.946C104.425 20.946 105.315 21.926 105.315 22.3506C105.315 22.5629 105.211 22.7671 105.051 22.7671C104.946 22.7671 104.858 22.6936 104.802 22.4894L104.81 22.4976ZM106.237 27.5935V27.7486C106.237 27.8385 106.245 28.0426 106.245 28.1079V28.1488C106.245 28.3938 105.956 28.3938 105.9 28.3938C105.74 28.3938 105.692 28.3203 105.692 28.2223V28.1733C105.708 28.0263 105.724 27.7405 105.724 27.6833C105.732 27.5526 105.756 27.3321 105.764 26.5808V24.4984C105.764 24.0166 105.74 23.4776 105.676 23.1264C105.908 23.2081 106.125 23.3306 106.325 23.4531H108.169C108.209 23.4041 108.362 23.1754 108.442 23.1754C108.53 23.1754 109.035 23.5511 109.035 23.7062C109.035 23.7797 108.963 23.8614 108.722 23.9104V26.4502C108.722 26.5727 108.73 27.3076 108.738 27.6588C108.746 27.7731 108.778 28.0671 108.778 28.0998C108.778 28.2549 108.666 28.3693 108.394 28.3693C108.265 28.3693 108.201 28.2958 108.201 28.1406C108.209 27.9773 108.217 27.7731 108.217 27.6915C108.225 27.6833 108.225 27.6425 108.225 27.6016H106.221L106.237 27.5935ZM106.317 22.2771C106.245 21.7218 106.157 21.3788 105.836 20.9133C105.828 20.9052 105.828 20.897 105.828 20.8807C105.828 20.8153 105.908 20.7663 105.981 20.7663C106.165 20.7663 106.846 21.7381 106.846 22.122C106.846 22.1873 106.798 22.5793 106.542 22.5793C106.437 22.5793 106.349 22.4976 106.317 22.269V22.2771ZM108.241 26.6217V25.5437H106.229V27.3076H108.241V26.6217ZM108.249 23.7307H106.237V25.2579H108.249V23.7307ZM107.367 22.9549C107.295 22.9549 107.215 22.8896 107.215 22.8324C107.215 22.8161 107.223 22.7998 107.231 22.7834C108.049 21.5258 108.185 20.7827 108.209 20.4968C108.538 20.5867 109.083 20.8153 109.083 21.0113C109.083 21.044 109.059 21.0767 109.035 21.1012C108.955 21.1502 108.883 21.1747 108.626 21.1828C108.073 22.1628 107.488 22.9549 107.367 22.9549Z" fill="black"/>
<path d="M121.942 27.1525H115.761V27.7894C115.761 27.8384 115.769 28.0181 115.769 28.0671C115.745 28.3448 115.464 28.3529 115.384 28.3529C115.24 28.3529 115.144 28.3039 115.144 28.1243V28.0834C115.144 28.0834 115.16 27.9119 115.176 27.7241C115.184 27.3484 115.216 26.491 115.216 26.2052V21.289C115.216 20.8806 115.208 20.4315 115.112 19.9252C115.304 19.9905 115.641 20.1375 115.889 20.2763H121.854C121.918 20.2028 122.126 19.9497 122.182 19.9497C122.27 19.9497 122.824 20.3008 122.824 20.4723C122.824 20.554 122.751 20.6601 122.495 20.7418V26.0582C122.495 26.1807 122.511 27.5199 122.527 27.6261C122.527 27.7404 122.543 27.9364 122.543 27.9609C122.543 27.9854 122.535 28.2059 122.182 28.2059C121.99 28.2059 121.918 28.1324 121.918 28.0099C121.918 27.9691 121.926 27.6343 121.926 27.5281V27.1525H121.942ZM118.511 20.5948H115.753V23.4286H118.511V20.5948ZM118.511 23.7471H115.753V26.8176H118.511V23.7471ZM121.942 20.5948H119.056V23.4286H121.942V20.5948ZM121.942 26.2052V23.7471H119.056V26.8176H121.942V26.2052Z" fill="black"/>
<path d="M136.949 28.0181C136.949 28.0181 136.909 28.0589 136.877 28.0589C136.869 28.0589 136.861 28.0589 136.845 28.0507C134.905 27.0953 133.293 24.7352 132.957 22.8079C132.588 25.4375 131.137 27.2749 128.435 28.4101C128.427 28.4101 128.419 28.4182 128.403 28.4182C128.323 28.4182 128.235 28.2712 128.235 28.2141C128.235 28.1896 128.243 28.1814 128.251 28.1732C131.105 26.8094 132.195 24.629 132.436 22.3669H131.562C131.137 22.3669 129.221 22.3996 128.748 22.4567C128.644 22.3342 128.524 22.0566 128.524 21.9259C129.029 21.9912 131.097 22.0402 131.81 22.0402H132.468C132.5 21.7299 132.5 21.4114 132.5 21.1093V20.8643C132.5 19.77 132.484 19.5005 132.428 19.3372C133.446 19.3372 133.542 19.4842 133.542 19.5822C133.542 19.7128 133.334 19.8353 133.093 19.8761V20.0803C133.093 20.4886 133.069 20.9378 133.069 21.3053C133.069 21.5503 133.061 21.7953 133.037 22.0321H136.212C136.364 21.7953 136.652 21.4523 136.701 21.4523C136.789 21.4523 137.542 21.9831 137.542 22.1627C137.542 22.2526 137.478 22.3669 137.318 22.3669H133.125C133.454 24.2207 134.953 26.6461 137.566 27.4709C137.606 27.4791 137.63 27.5199 137.63 27.5771C137.63 27.6506 137.59 27.7322 137.558 27.7404C137.406 27.7649 137.15 27.8302 136.957 28.0181H136.941H136.949Z" fill="black"/>
<path d="M143.94 21.7626C143.731 23.0366 143.018 23.2897 142.841 23.2897C142.657 23.2897 142.577 23.1754 142.577 23.0202C142.577 22.8651 142.649 22.6936 142.769 22.6201C143.386 22.2689 143.675 21.6074 143.715 20.9133C143.715 20.8643 143.779 20.8398 143.843 20.8398C143.908 20.8398 143.972 20.8725 143.988 20.9296C143.988 21.093 143.988 21.2644 143.98 21.4441H148.205C148.718 20.6928 149.279 19.6067 149.327 19.182C149.375 19.1902 150.241 19.4597 150.241 19.6965C150.241 19.7128 150.233 19.7373 150.209 19.7618C150.161 19.8353 150.024 19.868 149.848 19.868H149.768C149.383 20.4396 149.006 20.9541 148.541 21.4523H150.505C150.505 21.4523 150.577 21.4033 150.618 21.3461C150.682 21.2971 150.738 21.2399 150.77 21.2154C150.802 21.1991 150.81 21.1991 150.818 21.1991C150.842 21.1991 150.85 21.1991 150.866 21.2154C151.379 21.5339 151.539 21.7054 151.539 21.8524C151.539 21.9341 151.475 22.0484 151.251 22.0484C151.179 22.0484 151.099 22.0403 151.01 22.0158C150.481 22.6527 149.904 23.1591 149.848 23.1591C149.808 23.1591 149.688 23.0856 149.688 23.0284C149.688 23.0202 149.688 23.0121 149.696 22.9957C150.016 22.5956 150.297 22.1383 150.489 21.7708H143.94V21.7626ZM147.395 25.4538V26.1806C147.395 26.3358 147.427 27.3239 147.427 27.4791V27.4954C147.427 28.3039 146.529 28.6142 146.281 28.6142C146.216 28.6142 146.2 28.5734 146.176 28.5244C146.088 28.2467 146.072 28.2467 144.91 28.0671C144.87 28.0589 144.846 28.0017 144.846 27.9446C144.846 27.8629 144.886 27.7568 144.934 27.7568H144.942C145.864 27.8466 146.281 27.8629 146.353 27.8629C146.713 27.8629 146.866 27.6588 146.866 27.3648V25.462H145.407C145.126 25.462 143.403 25.4783 142.873 25.5355C142.785 25.4538 142.681 25.1762 142.681 25.0455C143.066 25.0945 145.014 25.1353 145.671 25.1353H146.866C146.866 24.7433 146.85 24.3759 146.794 24.1309C146.954 24.1472 147.098 24.1717 147.218 24.1962C147.491 24.0329 147.996 23.698 148.549 23.2326H146.689C146.096 23.2407 144.942 23.2734 144.581 23.3142C144.501 23.2326 144.389 22.9631 144.389 22.8406C144.813 22.8896 146.313 22.9222 146.697 22.9222H148.686C148.774 22.8324 148.878 22.7507 148.99 22.6772C148.998 22.6691 149.014 22.6691 149.022 22.6691C149.03 22.6691 149.054 22.6772 149.062 22.6936C149.615 23.0611 149.664 23.1836 149.664 23.2897C149.664 23.3306 149.648 23.3795 149.599 23.4122C149.551 23.4775 149.455 23.502 149.335 23.502C149.271 23.502 149.207 23.4939 149.126 23.4694C148.453 23.8614 147.932 24.1227 147.595 24.286C147.627 24.3187 147.635 24.3514 147.635 24.3922C147.627 24.4657 147.555 24.5392 147.387 24.58V25.1435H150.209C150.241 25.1027 150.634 24.58 150.722 24.58C150.738 24.58 150.77 24.6045 150.802 24.6208C150.986 24.7107 151.427 25.0782 151.515 25.1843C151.547 25.2252 151.555 25.266 151.555 25.3068C151.555 25.3967 151.491 25.4702 151.363 25.4702H147.379L147.395 25.4538ZM145.086 20.995C144.862 20.3498 144.477 19.9007 144.14 19.5822C144.132 19.574 144.116 19.5495 144.116 19.5332C144.116 19.4842 144.18 19.4188 144.244 19.4188C144.356 19.4188 145.591 20.211 145.591 20.8725C145.591 21.0603 145.519 21.3053 145.351 21.3053C145.246 21.3053 145.158 21.2154 145.078 20.995H145.086ZM146.986 20.9133C146.866 20.2191 146.553 19.7455 146.264 19.3862C146.24 19.3698 146.24 19.3453 146.24 19.3208C146.24 19.2473 146.321 19.1983 146.369 19.1983C146.457 19.1983 147.547 20.1538 147.547 20.7255C147.547 21.0358 147.363 21.2644 147.226 21.2644C147.122 21.2644 147.034 21.1664 146.986 20.9051V20.9133Z" fill="black"/>
<path d="M92.7049 43.4364C92.6568 43.763 92.6167 44.008 92.5847 44.1223C92.1598 45.8699 90.8611 46.3109 90.5164 46.3109C90.3961 46.3109 90.356 46.2619 90.332 46.1884C90.2518 45.8699 89.9071 45.7311 88.8729 45.4535C88.8248 45.4453 88.8008 45.38 88.8008 45.3228C88.8008 45.2411 88.8409 45.1513 88.921 45.1513H88.9371C89.1776 45.2003 89.6345 45.3391 89.9632 45.3881C90.6687 45.4943 90.7569 45.4943 90.7889 45.4943C91.0214 45.4943 91.8551 45.38 92.1838 43.4445H89.2257C88.8008 43.4445 86.8607 43.4527 86.3877 43.518C86.2996 43.4527 86.2194 43.1587 86.2034 43.028C86.6122 43.0689 88.6084 43.1179 89.4982 43.1179H92.2319C92.2961 42.7095 92.3442 42.1951 92.3842 41.6397H88.8649C88.8489 41.7296 88.8168 41.8276 88.7928 41.8929C88.7607 41.9909 88.7447 42.0644 88.7126 42.1869C88.6805 42.3502 88.5683 42.3992 88.44 42.3992C88.2797 42.3992 88.1274 42.3257 88.1274 42.1951C88.1274 42.1869 88.1274 42.1624 88.1354 42.1461C88.1354 42.1461 88.2476 41.8766 88.3198 41.6397C88.9371 39.5491 88.9371 38.61 88.9371 38.4957C89.6345 38.6018 89.7788 38.6998 89.7788 38.8142C89.7788 38.9285 89.6746 39.002 89.4181 39.0265C89.378 39.198 89.3299 39.443 89.2657 39.737H92.3442C92.3923 39.6635 92.6087 39.3776 92.7851 39.2225C92.8011 39.2061 92.8252 39.1898 92.8492 39.1898C92.8733 39.1898 92.8893 39.198 92.8973 39.2061C92.9614 39.2388 93.6749 39.639 93.6749 39.8758C93.6749 39.9575 93.6028 40.0391 93.4505 40.0391H89.2096C89.1214 40.4719 89.0252 40.9538 88.9371 41.3294H92.3842C92.6167 41.0354 92.6568 41.0354 92.6648 41.0354C92.6728 41.0354 93.2821 41.3621 93.2821 41.5581C93.2821 41.6806 93.1378 41.7949 92.8893 41.8357C92.8492 42.2931 92.7851 42.734 92.737 43.1097H93.8754C93.9235 43.0444 94.1479 42.734 94.3564 42.5054C94.3644 42.489 94.3884 42.489 94.3964 42.489C94.4606 42.489 95.2542 43.0444 95.2542 43.2404C95.2542 43.3302 95.1901 43.4445 95.0618 43.4445H92.6889L92.7049 43.4364ZM93.4665 39.4021C93.4184 39.4021 93.2981 39.3286 93.2981 39.2715C93.2981 39.2633 93.2982 39.247 93.3062 39.2388C93.4986 39.002 93.7872 38.5447 93.9395 38.2262H87.6784C87.5261 39.1245 86.9409 39.7941 86.5641 39.7941C86.3397 39.7941 86.3236 39.59 86.3236 39.5246C86.3236 39.3695 86.3958 39.198 86.516 39.1245C87.1333 38.7897 87.4139 38.0873 87.454 37.3932C87.454 37.3524 87.5261 37.3197 87.5822 37.3197C87.6624 37.3197 87.7346 37.3524 87.7346 37.4095C87.7346 37.826 87.7265 37.8995 87.7265 37.924H93.9796C94.2201 37.6464 94.2682 37.6382 94.2922 37.6382C94.3002 37.6382 94.3163 37.6382 94.3243 37.6464L94.3483 37.6709C94.7732 37.8995 95.0137 38.1608 95.0137 38.3242C95.0137 38.3977 94.9656 38.4957 94.7492 38.4957C94.669 38.4957 94.5808 38.4875 94.4766 38.4793C94.1479 38.8468 93.7711 39.2061 93.4905 39.4021H93.4825H93.4665Z" fill="black"/>
<path d="M101.323 45.6495C101.323 45.821 101.331 46.0496 101.331 46.0905V46.1231C101.331 46.4416 100.962 46.4416 100.938 46.4416C100.77 46.4416 100.698 46.3518 100.698 46.213C100.698 46.0496 100.738 45.6005 100.746 45.2493C100.754 45.1105 100.786 43.7059 100.786 42.8811V39.198C100.778 38.6509 100.754 37.8587 100.665 37.2544C100.874 37.3197 101.227 37.4912 101.443 37.6137H108.153C108.153 37.6137 108.201 37.5402 108.225 37.4994C108.273 37.4177 108.337 37.3442 108.386 37.2952C108.402 37.2707 108.426 37.2707 108.434 37.2707C108.442 37.2707 108.466 37.2707 108.474 37.2789C108.738 37.4096 109.091 37.7607 109.091 37.8832C109.091 37.9975 108.923 38.0384 108.77 38.071V42.3829C108.77 42.5136 108.786 44.8818 108.802 45.2738C108.802 45.3963 108.834 46.0741 108.834 46.1068C108.834 46.3845 108.554 46.4171 108.442 46.4171C108.273 46.4171 108.201 46.3518 108.201 46.1803C108.201 46.0496 108.209 45.8128 108.209 45.6576H101.331L101.323 45.6495ZM108.233 37.9159H101.315V42.8566C101.315 43.665 101.323 44.9145 101.323 45.3473H108.209C108.217 44.7267 108.217 42.7341 108.217 42.5789V37.9159H108.233ZM105.604 40.1535H104.377C103.888 40.1535 102.557 40.1616 102.02 40.227C101.916 40.1371 101.86 39.9085 101.852 39.7697C102.285 39.8105 103.696 39.8431 104.634 39.8431H105.596C105.596 39.492 105.588 38.8713 105.508 38.4467C105.556 38.4467 106.494 38.4794 106.494 38.7244C106.494 38.7733 106.421 38.9203 106.109 38.9938V39.8431H106.51C106.51 39.8431 106.87 39.2878 106.975 39.2878C107.055 39.2878 107.792 39.8187 107.792 40.0065C107.792 40.08 107.752 40.1616 107.624 40.1616H106.117V42.3339C106.117 42.4891 106.149 43.5589 106.149 43.714C106.149 44.4327 105.347 44.7757 105.067 44.7757C105.019 44.7757 104.978 44.7348 104.946 44.6858C104.914 44.6205 104.882 44.5633 104.834 44.5225C104.794 44.4817 104.73 44.4408 104.634 44.4163C104.441 44.3755 103.928 44.2938 103.688 44.2449C103.624 44.2367 103.608 44.1632 103.608 44.0897C103.608 44.0162 103.64 43.9345 103.688 43.9345H103.696C104.161 43.9999 104.722 44.0652 104.962 44.0652H104.994C105.467 44.0652 105.612 43.8365 105.612 43.4119V40.1535H105.604ZM103.976 42.4319C103.664 41.8194 103.159 41.3539 102.726 41.0599C102.718 41.0518 102.71 41.0436 102.71 41.0191C102.71 40.9701 102.79 40.8558 102.862 40.8558C102.878 40.8558 104.513 41.5499 104.513 42.2767C104.513 42.3094 104.513 42.6932 104.273 42.6932C104.185 42.6932 104.081 42.6197 103.984 42.4237L103.976 42.4319Z" fill="black"/>
<path d="M117.252 42.1868C116.667 41.607 115.721 41.2885 115.384 41.2068C115.312 41.1823 115.256 41.1334 115.256 41.0599C115.256 40.9782 115.328 40.9129 115.416 40.9129H115.432C115.897 40.9129 117.324 41.2477 117.621 41.6478C117.725 41.7948 117.773 41.9582 117.773 42.0888C117.773 42.3011 117.645 42.3665 117.581 42.3665C117.493 42.3665 117.38 42.3011 117.252 42.1787V42.1868ZM117.749 45.0777C117.701 45.1267 117.645 45.1839 117.605 45.2329C117.533 45.3146 117.444 45.3962 117.3 45.3962C117.052 45.3962 115.985 44.8981 115.985 44.3019C115.985 44.1958 116.05 44.1141 116.13 44.1141C116.178 44.1141 116.234 44.1468 116.29 44.2284C116.394 44.3591 116.723 44.6041 117.052 44.6041C117.116 44.6041 117.172 44.5959 117.236 44.5714C119.176 43.7793 121.83 40.9945 122.679 39.6634C122.719 39.5981 122.768 39.5736 122.832 39.5736C122.912 39.5736 122.984 39.6389 122.984 39.7369C122.984 40.0554 120.691 43.2811 117.909 44.9471C117.845 44.9797 117.797 45.0206 117.757 45.0696L117.749 45.0777ZM118.118 40.284C117.581 39.5981 116.763 39.2387 116.378 39.0836C116.298 39.0509 116.258 39.0019 116.258 38.9529C116.258 38.8794 116.338 38.8141 116.458 38.8141C116.619 38.8141 118.246 39.2877 118.527 39.8104C118.599 39.9329 118.631 40.0799 118.631 40.2024C118.631 40.333 118.583 40.5127 118.431 40.5127C118.35 40.5127 118.238 40.4474 118.118 40.3004V40.284Z" fill="black"/>
<path d="M135.666 41.8602C135.602 41.8929 135.554 41.9419 135.514 41.9909C134.4 43.2649 133.799 43.6895 133.678 43.6895C133.63 43.6895 133.55 43.6569 133.55 43.567C133.55 43.518 133.582 43.469 133.63 43.4119C134.488 42.5789 135.177 41.6398 135.177 41.5009C135.177 41.4764 135.169 41.4764 135.137 41.4764H135.089C134.52 41.5989 133.638 41.8031 132.676 42.1134C132.885 43.3629 133.245 44.9308 133.334 45.184C133.366 45.2983 133.43 45.5841 133.43 45.821C133.43 45.9353 133.422 46.1966 133.221 46.1966C133.037 46.1966 132.812 45.8046 132.812 45.478C132.812 45.4045 132.82 45.331 132.82 45.2656C132.82 45.184 132.82 45.1023 132.275 42.2441C132.051 42.3176 131.842 42.3911 131.626 42.4727C131.161 42.7096 131.073 42.7177 130.985 42.7177C130.584 42.7177 129.838 42.2686 129.838 41.9582C129.838 41.9174 129.862 41.8766 129.886 41.8439C129.902 41.8112 129.934 41.8031 129.967 41.8031C130.015 41.8031 130.071 41.8439 130.095 41.8766C130.167 41.9582 130.375 42.1461 130.76 42.1461C130.888 42.1461 131.033 42.1216 131.161 42.0807C131.514 41.9909 131.858 41.8929 132.187 41.8031C132.115 41.4274 132.059 41.0763 132.003 40.7823C131.931 40.3821 131.61 40.3086 131.41 40.2923C131.337 40.2923 131.257 40.2515 131.257 40.178C131.257 40.1698 131.265 40.1453 131.265 40.1371C131.329 40.0146 131.498 40.0065 131.69 40.0065C131.883 40.0065 132.588 40.031 132.588 40.3658V40.3985C132.588 40.3985 132.524 40.6435 132.524 40.7496V40.8231C132.524 41.0354 132.564 41.3458 132.612 41.7133C133.534 41.4764 134.328 41.2968 134.865 41.1743C134.953 41.1498 135.049 41.0599 135.129 41.0109C135.161 41.0028 135.193 40.9783 135.209 40.9783H135.25C135.482 40.9783 135.971 41.3131 135.971 41.5826C135.971 41.6561 135.939 41.7296 135.859 41.7786L135.666 41.8684V41.8602Z" fill="black"/>
<path d="M145.791 44.7592C145.703 44.7919 145.583 44.9144 145.583 44.9225C145.535 44.9879 145.455 45.0287 145.375 45.0287C145.182 45.0287 144.717 44.6286 144.717 44.4162C144.717 44.3509 144.749 44.3019 144.781 44.2202C144.805 44.1794 144.821 44.1386 144.821 44.0732C144.886 43.6813 144.942 42.2848 144.942 40.9782C144.942 40.725 144.934 40.4718 144.934 40.2432C144.934 39.7124 144.934 39.4837 144.252 39.3122C144.18 39.2877 144.148 39.2469 144.148 39.2142C144.148 39.1897 144.148 39.1734 144.156 39.1652C144.156 39.1571 144.196 39.0427 144.445 39.0427C144.91 39.0427 145.703 39.3775 145.703 39.6552C145.703 39.7287 145.671 39.7859 145.639 39.8512L145.607 39.9165C145.607 39.9165 145.591 39.9492 145.591 39.9574C145.519 40.1452 145.503 40.2105 145.503 40.4065C145.471 41.7866 145.375 43.9752 145.375 44.0242C145.375 44.0896 145.375 44.1794 145.423 44.1794H145.431C147.611 43.4281 149.792 41.2477 150.642 39.9165C150.674 39.8675 150.722 39.843 150.762 39.843C150.834 39.843 150.89 39.892 150.89 39.9982C150.89 40.431 148.686 43.3791 145.976 44.6776C145.912 44.7102 145.872 44.7184 145.856 44.7429L145.791 44.7756V44.7592Z" fill="black"/>
<path d="M163.733 42.0153C163.284 42.0235 162.065 42.0317 160.951 42.0562C159.829 42.0807 158.803 42.097 158.722 42.1052C158.562 42.146 158.474 42.195 158.37 42.195C158.017 42.195 157.328 41.4355 157.328 41.0435C157.328 40.9619 157.368 40.921 157.408 40.921C157.44 40.921 157.472 40.9455 157.488 40.97C157.929 41.5008 158.233 41.5335 158.883 41.5335C160.029 41.5335 162.987 41.4437 163.893 41.411H164.054C164.126 41.411 165.04 41.411 165.04 41.6805C165.04 41.8112 164.799 41.95 164.406 41.9663C164.358 41.9745 163.997 42.0072 163.741 42.0072L163.733 42.0153Z" fill="black"/>
<path d="M174.708 41.7376C174.708 42.9463 174.732 44.2692 174.756 45.1104V45.2247C174.756 45.339 174.748 45.9924 174.443 45.9924C174.195 45.9924 174.018 45.388 174.018 45.0532C174.018 44.9307 174.018 44.8981 174.099 44.6612C174.115 44.6204 174.131 44.5632 174.147 44.4571C174.187 44.1222 174.227 42.2848 174.227 40.7087C174.227 38.8304 174.195 38.6181 174.058 38.5037C173.954 38.4057 173.81 38.3404 173.593 38.2669C173.505 38.2343 173.465 38.1853 173.465 38.1444C173.465 38.0138 173.609 37.9893 173.73 37.9893C174.018 37.9893 174.483 38.1526 174.828 38.3649C174.916 38.4139 174.956 38.4874 174.956 38.5691C174.956 38.6181 174.94 38.6834 174.916 38.7406C174.796 38.9774 174.724 39.5409 174.708 40.8475C175.734 41.0435 176.952 41.5253 177.562 42.0153C177.722 42.1378 177.826 42.4155 177.826 42.6115C177.826 42.8401 177.658 42.8564 177.658 42.8564C177.578 42.8564 177.466 42.8074 177.329 42.685C176.704 42.1541 175.742 41.5417 174.716 41.1905V41.7376H174.708ZM177.417 39.9982C177.017 39.451 176.479 39.1652 176.047 38.9774C175.982 38.9447 175.958 38.9039 175.958 38.8794C175.958 38.8141 176.047 38.7651 176.143 38.7651C176.223 38.7651 177.818 39.0182 177.818 39.9165C177.818 40.0635 177.754 40.1697 177.65 40.1697C177.578 40.1697 177.506 40.1207 177.417 40.0064V39.9982ZM178.355 39.3204C177.922 38.8059 177.369 38.5527 176.928 38.3812C176.864 38.3486 176.84 38.3159 176.84 38.2914C176.84 38.2261 176.92 38.1689 177.025 38.1689C177.642 38.1771 178.756 38.5446 178.756 39.2306C178.756 39.3612 178.692 39.4674 178.588 39.4674C178.524 39.4674 178.46 39.4347 178.363 39.3204H178.355Z" fill="black"/>
</svg>
