<svg width="980" height="553" viewBox="0 0 980 553" fill="none" xmlns="http://www.w3.org/2000/svg">
<path d="M490.1 414.8H516.8V366.5H431.3C438.7 350.5 445.7 335.8 452.3 322.4C459.1 309 465.2 297.3 470.6 287.3C476.2 277.1 480.9 268.7 484.7 262.1C488.7 255.5 491.5 251 493.1 248.6C500.3 237.2 506.1 228.4 510.5 222.2C515.1 215.8 519 211 522.2 207.8C525.4 204.6 528.1 202.7 530.3 202.1C532.7 201.3 535.4 200.9 538.4 200.9C543.6 200.9 546.9 201.7 548.3 203.3C549.9 204.7 550.7 206.3 550.7 208.1C550.7 209.1 550.1 210.3 548.9 211.7C547.9 213.1 545.2 215.9 540.8 220.1C536.2 224.5 531.9 228.7 527.9 232.7C524.1 236.7 520.5 240.7 517.1 244.7C513.7 248.5 510.3 252.4 506.9 256.4C503.7 260.2 500.4 264.1 497 268.1C485 282.3 474.2 297.7 464.6 314.3C455.2 330.7 446.3 346.4 437.9 361.4H516.8V281.3H542.6V361.4H569.3V366.5H542.6V414.8H569.3V419H490.1V414.8ZM660.659 311.9C660.659 330.5 661.159 346.6 662.159 360.2C663.359 373.6 665.359 384.7 668.159 393.5C671.159 402.1 675.259 408.5 680.459 412.7C685.659 416.9 692.459 419 700.859 419C709.259 419 716.059 416.9 721.259 412.7C726.459 408.5 730.459 402.1 733.259 393.5C736.259 384.7 738.259 373.6 739.259 360.2C740.459 346.6 741.059 330.5 741.059 311.9C741.059 293.3 740.459 277.3 739.259 263.9C738.259 250.5 736.259 239.5 733.259 230.9C730.459 222.1 726.459 215.6 721.259 211.4C716.059 207.2 709.259 205.1 700.859 205.1C692.459 205.1 685.659 207.2 680.459 211.4C675.259 215.6 671.159 222.1 668.159 230.9C665.359 239.5 663.359 250.5 662.159 263.9C661.159 277.3 660.659 293.3 660.659 311.9ZM630.659 311.9C630.659 299.9 631.559 287.4 633.359 274.4C635.359 261.2 638.959 249.2 644.159 238.4C649.359 227.4 656.459 218.4 665.459 211.4C674.659 204.4 686.459 200.9 700.859 200.9C715.259 200.9 726.959 204.4 735.959 211.4C745.159 218.4 752.359 227.4 757.559 238.4C762.759 249.2 766.259 261.2 768.059 274.4C770.059 287.4 771.059 299.9 771.059 311.9C771.059 324.1 770.059 336.8 768.059 350C766.259 363 762.759 375 757.559 386C752.359 396.8 745.159 405.7 735.959 412.7C726.959 419.7 715.259 423.2 700.859 423.2C686.459 423.2 674.659 419.7 665.459 412.7C656.459 405.7 649.359 396.8 644.159 386C638.959 375 635.359 363 633.359 350C631.559 336.8 630.659 324.1 630.659 311.9ZM891.819 414.8H918.519V366.5H833.019C840.419 350.5 847.419 335.8 854.019 322.4C860.819 309 866.919 297.3 872.319 287.3C877.919 277.1 882.619 268.7 886.419 262.1C890.419 255.5 893.219 251 894.819 248.6C902.019 237.2 907.819 228.4 912.219 222.2C916.819 215.8 920.719 211 923.919 207.8C927.119 204.6 929.819 202.7 932.019 202.1C934.419 201.3 937.119 200.9 940.119 200.9C945.319 200.9 948.619 201.7 950.019 203.3C951.619 204.7 952.419 206.3 952.419 208.1C952.419 209.1 951.819 210.3 950.619 211.7C949.619 213.1 946.919 215.9 942.519 220.1C937.919 224.5 933.619 228.7 929.619 232.7C925.819 236.7 922.219 240.7 918.819 244.7C915.419 248.5 912.019 252.4 908.619 256.4C905.419 260.2 902.119 264.1 898.719 268.1C886.719 282.3 875.919 297.7 866.319 314.3C856.919 330.7 848.019 346.4 839.619 361.4H918.519V281.3H944.319V361.4H971.019V366.5H944.319V414.8H971.019V419H891.819V414.8Z" fill="black"/>
<path d="M275.68 541V540.32H277.16C277.587 540.32 277.88 540.24 278.04 540.08C278.2 539.893 278.28 539.6 278.28 539.2V532.4H264.8V531.72H267.32L277.6 513.52L278.24 513.84L268.12 531.72H278.28V520.76H279V531.72H282.52C282.867 531.72 283.093 531.64 283.2 531.48C283.307 531.293 283.413 531.12 283.52 530.96C283.627 530.773 283.84 530.68 284.16 530.68C284.373 530.68 284.56 530.76 284.72 530.92C284.907 531.08 285 531.28 285 531.52C285 531.76 284.907 531.973 284.72 532.16C284.56 532.32 284.373 532.4 284.16 532.4H279V540.32H281.16V541H275.68ZM304.002 541.6C302.082 541.6 300.428 541 299.042 539.8C297.655 538.573 296.588 536.893 295.842 534.76C295.095 532.6 294.708 530.133 294.682 527.36C294.682 524.507 295.042 521.987 295.762 519.8C296.508 517.613 297.575 515.907 298.962 514.68C300.375 513.427 302.055 512.8 304.002 512.8C305.948 512.8 307.615 513.427 309.002 514.68C310.388 515.907 311.455 517.613 312.202 519.8C312.948 521.987 313.322 524.507 313.322 527.36C313.322 530.133 312.948 532.6 312.202 534.76C311.455 536.893 310.388 538.573 309.002 539.8C307.615 541 305.948 541.6 304.002 541.6ZM304.002 540.88C305.788 540.88 307.322 540.307 308.602 539.16C309.882 538.013 310.855 536.427 311.522 534.4C312.215 532.347 312.562 530 312.562 527.36C312.562 524.667 312.215 522.293 311.522 520.24C310.855 518.16 309.882 516.52 308.602 515.32C307.322 514.12 305.788 513.52 304.002 513.52C302.215 513.493 300.682 514.08 299.402 515.28C298.122 516.48 297.135 518.12 296.442 520.2C295.748 522.28 295.402 524.667 295.402 527.36C295.402 529.973 295.748 532.293 296.442 534.32C297.135 536.347 298.122 537.947 299.402 539.12C300.682 540.267 302.215 540.853 304.002 540.88ZM333.266 541V540.32H334.746C335.173 540.32 335.466 540.24 335.626 540.08C335.786 539.893 335.866 539.6 335.866 539.2V532.4H322.386V531.72H324.906L335.186 513.52L335.826 513.84L325.706 531.72H335.866V520.76H336.586V531.72H340.106C340.453 531.72 340.679 531.64 340.786 531.48C340.893 531.293 340.999 531.12 341.106 530.96C341.213 530.773 341.426 530.68 341.746 530.68C341.959 530.68 342.146 530.76 342.306 530.92C342.493 531.08 342.586 531.28 342.586 531.52C342.586 531.76 342.493 531.973 342.306 532.16C342.146 532.32 341.959 532.4 341.746 532.4H336.586V540.32H338.746V541H333.266ZM369.84 550.68V550H372V526.56C372 526.16 371.92 525.88 371.76 525.72C371.6 525.533 371.307 525.44 370.88 525.44H369.4V524.76H372.72V529.32C373.333 527.747 374.32 526.48 375.68 525.52C377.04 524.533 378.64 524.04 380.48 524.04C382.133 524.04 383.587 524.427 384.84 525.2C386.093 525.973 387.067 527.027 387.76 528.36C388.48 529.667 388.84 531.173 388.84 532.88C388.84 534.56 388.48 536.067 387.76 537.4C387.067 538.733 386.093 539.787 384.84 540.56C383.587 541.333 382.133 541.72 380.48 541.72C378.64 541.72 377.04 541.24 375.68 540.28C374.32 539.293 373.333 538.013 372.72 536.44V548.88C372.72 549.28 372.8 549.56 372.96 549.72C373.12 549.907 373.413 550 373.84 550H375.32V550.68H369.84ZM380.48 541C381.973 540.973 383.293 540.613 384.44 539.92C385.587 539.227 386.48 538.28 387.12 537.08C387.787 535.853 388.12 534.453 388.12 532.88C388.12 531.307 387.787 529.92 387.12 528.72C386.48 527.493 385.587 526.533 384.44 525.84C383.293 525.12 381.973 524.76 380.48 524.76C378.96 524.76 377.627 525.12 376.48 525.84C375.333 526.533 374.427 527.493 373.76 528.72C373.12 529.92 372.8 531.307 372.8 532.88C372.8 534.453 373.12 535.853 373.76 537.08C374.427 538.28 375.333 539.227 376.48 539.92C377.627 540.613 378.96 540.973 380.48 541ZM404.471 541.68C403.325 541.68 402.285 541.453 401.351 541C400.445 540.547 399.711 539.92 399.151 539.12C398.618 538.293 398.351 537.347 398.351 536.28C398.351 534.76 398.938 533.507 400.111 532.52C401.311 531.507 402.898 530.96 404.871 530.88C406.205 530.827 407.365 530.92 408.351 531.16C409.365 531.373 410.285 531.627 411.111 531.92V530C411.111 528.453 410.578 527.16 409.511 526.12C408.471 525.08 406.925 524.613 404.871 524.72C403.991 524.747 403.151 524.96 402.351 525.36C401.578 525.76 401.005 526.267 400.631 526.88C400.498 527.12 400.458 527.333 400.511 527.52C400.591 527.68 400.658 527.853 400.711 528.04C400.791 528.2 400.765 528.413 400.631 528.68C400.525 528.867 400.351 528.987 400.111 529.04C399.871 529.067 399.658 529.013 399.471 528.88C399.098 528.587 399.018 528.187 399.231 527.68C399.631 526.613 400.365 525.747 401.431 525.08C402.498 524.413 403.645 524.053 404.871 524C407.111 523.893 408.831 524.427 410.031 525.6C411.231 526.773 411.831 528.227 411.831 529.96V536.4C411.831 537.547 412.178 538.493 412.871 539.24C413.565 539.96 414.445 540.32 415.511 540.32V541C414.391 541 413.458 540.693 412.711 540.08C411.991 539.44 411.538 538.707 411.351 537.88C411.005 538.707 410.458 539.4 409.711 539.96C408.991 540.52 408.165 540.947 407.231 541.24C406.298 541.533 405.378 541.68 404.471 541.68ZM404.471 541C405.431 541 406.418 540.813 407.431 540.44C408.471 540.04 409.338 539.453 410.031 538.68C410.751 537.88 411.111 536.88 411.111 535.68V532.76C410.445 532.413 409.591 532.12 408.551 531.88C407.511 531.64 406.285 531.547 404.871 531.6C403.111 531.627 401.698 532.08 400.631 532.96C399.591 533.84 399.071 534.947 399.071 536.28C399.071 537.667 399.578 538.8 400.591 539.68C401.631 540.533 402.925 540.973 404.471 541ZM432.345 551.52C430.851 551.52 429.491 551.213 428.265 550.6C427.065 550.013 426.198 549.187 425.665 548.12C425.291 547.373 425.105 546.8 425.105 546.4C425.105 546.027 425.198 545.76 425.385 545.6C425.625 545.387 425.891 545.333 426.185 545.44C426.478 545.547 426.651 545.773 426.705 546.12C426.758 546.44 426.718 546.667 426.585 546.8C426.451 546.933 426.345 547.067 426.265 547.2C426.185 547.333 426.238 547.587 426.425 547.96C426.798 548.707 427.491 549.373 428.505 549.96C429.545 550.547 430.825 550.827 432.345 550.8C434.638 550.773 436.411 550.027 437.665 548.56C438.945 547.12 439.585 545.16 439.585 542.68V536.64C438.971 538.187 437.985 539.427 436.625 540.36C435.291 541.267 433.718 541.72 431.905 541.72C430.251 541.72 428.785 541.347 427.505 540.6C426.251 539.853 425.265 538.813 424.545 537.48C423.851 536.147 423.505 534.613 423.505 532.88C423.505 531.147 423.851 529.613 424.545 528.28C425.265 526.947 426.251 525.907 427.505 525.16C428.785 524.413 430.251 524.04 431.905 524.04C433.718 524.04 435.291 524.493 436.625 525.4C437.985 526.307 438.971 527.547 439.585 529.12V524.76H442.945V525.44H441.465C440.691 525.44 440.305 525.813 440.305 526.56V542.68C440.305 545.4 439.585 547.547 438.145 549.12C436.731 550.72 434.798 551.52 432.345 551.52ZM431.905 541C433.398 540.973 434.718 540.613 435.865 539.92C437.011 539.227 437.905 538.28 438.545 537.08C439.211 535.853 439.545 534.453 439.545 532.88C439.545 531.307 439.211 529.92 438.545 528.72C437.905 527.493 437.011 526.533 435.865 525.84C434.718 525.12 433.398 524.76 431.905 524.76C430.411 524.76 429.078 525.12 427.905 525.84C426.758 526.533 425.851 527.493 425.185 528.72C424.545 529.92 424.225 531.307 424.225 532.88C424.225 534.453 424.545 535.853 425.185 537.08C425.851 538.28 426.758 539.227 427.905 539.92C429.078 540.613 430.411 540.973 431.905 541ZM465.79 531.36C465.817 530.08 465.537 528.947 464.95 527.96C464.363 526.947 463.55 526.16 462.51 525.6C461.497 525.013 460.31 524.72 458.95 524.72C457.057 524.747 455.457 525.373 454.15 526.6C452.87 527.8 452.083 529.373 451.79 531.32L465.79 531.36ZM458.95 541.68C457.43 541.68 456.057 541.307 454.83 540.56C453.63 539.813 452.683 538.787 451.99 537.48C451.297 536.147 450.95 534.613 450.95 532.88C450.977 531.147 451.323 529.613 451.99 528.28C452.683 526.947 453.63 525.907 454.83 525.16C456.03 524.387 457.403 524 458.95 524C460.443 524 461.75 524.32 462.87 524.96C464.017 525.573 464.91 526.44 465.55 527.56C466.217 528.653 466.55 529.92 466.55 531.36V532.04L451.71 532L451.67 532.88C451.617 534.347 451.897 535.693 452.51 536.92C453.123 538.147 453.99 539.133 455.11 539.88C456.257 540.6 457.537 540.973 458.95 541C460.443 540.973 461.697 540.733 462.71 540.28C463.723 539.8 464.47 539.187 464.95 538.44L465.51 538.88C464.95 539.707 464.11 540.387 462.99 540.92C461.87 541.427 460.523 541.68 458.95 541.68ZM495.181 541V540.32H496.661C497.088 540.32 497.381 540.24 497.541 540.08C497.701 539.893 497.781 539.6 497.781 539.2V526.52C497.781 526.12 497.701 525.84 497.541 525.68C497.381 525.493 497.088 525.4 496.661 525.4H495.181V524.72H498.501V527.72C499.008 526.707 499.808 525.84 500.901 525.12C501.995 524.4 503.315 524.04 504.861 524.04C506.915 524.04 508.581 524.64 509.861 525.84C511.141 527.013 511.781 528.72 511.781 530.96V540.32H513.941V541H508.461V540.32H509.941C510.368 540.32 510.661 540.24 510.821 540.08C510.981 539.893 511.061 539.6 511.061 539.2V530.96C511.061 528.933 510.475 527.4 509.301 526.36C508.155 525.293 506.675 524.76 504.861 524.76C503.688 524.76 502.608 525.013 501.621 525.52C500.661 526 499.901 526.693 499.341 527.6C498.781 528.48 498.501 529.52 498.501 530.72V540.32H500.661V541H495.181ZM530.358 541.72C528.731 541.72 527.291 541.347 526.038 540.6C524.784 539.853 523.798 538.813 523.078 537.48C522.358 536.147 521.984 534.613 521.958 532.88C521.958 531.147 522.304 529.613 522.998 528.28C523.718 526.947 524.704 525.907 525.958 525.16C527.238 524.413 528.704 524.04 530.358 524.04C532.011 524.04 533.464 524.413 534.718 525.16C535.971 525.907 536.944 526.947 537.638 528.28C538.358 529.613 538.718 531.147 538.718 532.88C538.718 534.613 538.358 536.147 537.638 537.48C536.944 538.813 535.971 539.853 534.718 540.6C533.464 541.347 532.011 541.72 530.358 541.72ZM530.358 541C531.851 541 533.171 540.667 534.318 540C535.464 539.307 536.358 538.347 536.998 537.12C537.664 535.893 537.998 534.48 537.998 532.88C537.998 531.28 537.664 529.867 536.998 528.64C536.358 527.413 535.464 526.453 534.318 525.76C533.171 525.067 531.851 524.733 530.358 524.76C528.864 524.76 527.531 525.12 526.358 525.84C525.211 526.533 524.304 527.493 523.638 528.72C522.998 529.92 522.678 531.307 522.678 532.88C522.678 534.453 522.998 535.853 523.638 537.08C524.304 538.28 525.211 539.227 526.358 539.92C527.531 540.613 528.864 540.973 530.358 541ZM556.877 541.68C555.064 541.68 553.677 541.453 552.717 541C551.757 540.52 551.104 539.853 550.757 539C550.437 538.12 550.277 537.08 550.277 535.88V526.56C550.277 526.107 550.197 525.8 550.037 525.64C549.877 525.48 549.597 525.4 549.197 525.4H545.917V524.72H550.277V519.84C550.277 519.44 550.197 519.16 550.037 519C549.877 518.813 549.584 518.72 549.157 518.72H547.677V518.04H550.997V524.72H555.757V525.4H550.997V535.88C550.997 536.973 551.117 537.907 551.357 538.68C551.624 539.427 552.171 540 552.997 540.4C553.851 540.773 555.144 540.973 556.877 541V541.68ZM583.073 541V540.32H585.953C586.38 540.32 586.673 540.24 586.833 540.08C586.993 539.893 587.073 539.6 587.073 539.2L587.113 526.28C587.033 525.693 586.673 525.4 586.033 525.4H583.073V524.72H587.113V522.32C587.113 519.067 587.727 516.667 588.953 515.12C590.207 513.573 591.807 512.8 593.753 512.8C594.207 512.8 594.673 512.867 595.153 513C595.66 513.133 596.087 513.333 596.433 513.6C596.78 513.84 596.94 514.147 596.913 514.52C596.913 514.787 596.807 515 596.593 515.16C596.38 515.293 596.127 515.307 595.833 515.2C595.54 515.013 595.407 514.827 595.433 514.64C595.46 514.453 595.473 514.28 595.473 514.12C595.5 513.96 595.353 513.827 595.033 513.72C594.873 513.667 594.66 513.627 594.393 513.6C594.153 513.547 593.94 513.52 593.753 513.52C592.02 513.52 590.593 514.227 589.473 515.64C588.38 517.053 587.833 519.28 587.833 522.32V524.72H592.553C592.9 524.72 593.127 524.64 593.233 524.48C593.34 524.32 593.447 524.16 593.553 524C593.687 523.813 593.913 523.72 594.233 523.72C594.447 523.72 594.633 523.8 594.793 523.96C594.98 524.12 595.073 524.307 595.073 524.52C595.073 524.787 594.98 525 594.793 525.16C594.633 525.32 594.447 525.4 594.233 525.4H587.833L587.793 540.32H591.553V541H583.073ZM610.92 541.72C609.294 541.72 607.854 541.347 606.6 540.6C605.347 539.853 604.36 538.813 603.64 537.48C602.92 536.147 602.547 534.613 602.52 532.88C602.52 531.147 602.867 529.613 603.56 528.28C604.28 526.947 605.267 525.907 606.52 525.16C607.8 524.413 609.267 524.04 610.92 524.04C612.574 524.04 614.027 524.413 615.28 525.16C616.534 525.907 617.507 526.947 618.2 528.28C618.92 529.613 619.28 531.147 619.28 532.88C619.28 534.613 618.92 536.147 618.2 537.48C617.507 538.813 616.534 539.853 615.28 540.6C614.027 541.347 612.574 541.72 610.92 541.72ZM610.92 541C612.414 541 613.734 540.667 614.88 540C616.027 539.307 616.92 538.347 617.56 537.12C618.227 535.893 618.56 534.48 618.56 532.88C618.56 531.28 618.227 529.867 617.56 528.64C616.92 527.413 616.027 526.453 614.88 525.76C613.734 525.067 612.414 524.733 610.92 524.76C609.427 524.76 608.094 525.12 606.92 525.84C605.774 526.533 604.867 527.493 604.2 528.72C603.56 529.92 603.24 531.307 603.24 532.88C603.24 534.453 603.56 535.853 604.2 537.08C604.867 538.28 605.774 539.227 606.92 539.92C608.094 540.613 609.427 540.973 610.92 541ZM636.821 541.68C634.794 541.68 633.194 541.08 632.021 539.88C630.848 538.653 630.261 536.92 630.261 534.68V526.52C630.261 526.12 630.181 525.84 630.021 525.68C629.861 525.493 629.568 525.4 629.141 525.4H627.661V524.72H630.981V534.68C630.981 536.707 631.488 538.267 632.501 539.36C633.541 540.453 634.981 541 636.821 541C638.581 541 639.994 540.44 641.061 539.32C642.128 538.173 642.661 536.627 642.661 534.68V526.52C642.661 526.12 642.581 525.84 642.421 525.68C642.261 525.493 641.968 525.4 641.541 525.4H640.061V524.72H643.381V536.28C643.381 537.587 643.728 538.587 644.421 539.28C645.114 539.973 645.994 540.32 647.061 540.32V541C646.021 541 645.114 540.693 644.341 540.08C643.568 539.467 643.061 538.667 642.821 537.68C642.421 538.853 641.674 539.813 640.581 540.56C639.514 541.307 638.261 541.68 636.821 541.68ZM654.877 541V540.32H656.357C656.783 540.32 657.077 540.24 657.237 540.08C657.397 539.893 657.477 539.6 657.477 539.2V526.52C657.477 526.12 657.397 525.84 657.237 525.68C657.077 525.493 656.783 525.4 656.357 525.4H654.877V524.72H658.197V527.72C658.703 526.707 659.503 525.84 660.597 525.12C661.69 524.4 663.01 524.04 664.557 524.04C666.61 524.04 668.277 524.64 669.557 525.84C670.837 527.013 671.477 528.72 671.477 530.96V540.32H673.637V541H668.157V540.32H669.637C670.063 540.32 670.357 540.24 670.517 540.08C670.677 539.893 670.757 539.6 670.757 539.2V530.96C670.757 528.933 670.17 527.4 668.997 526.36C667.85 525.293 666.37 524.76 664.557 524.76C663.383 524.76 662.303 525.013 661.317 525.52C660.357 526 659.597 526.693 659.037 527.6C658.477 528.48 658.197 529.52 658.197 530.72V540.32H660.357V541H654.877ZM690.794 541.72C689.168 541.72 687.714 541.347 686.434 540.6C685.181 539.853 684.194 538.813 683.474 537.48C682.781 536.147 682.434 534.613 682.434 532.88C682.434 531.147 682.781 529.613 683.474 528.28C684.194 526.947 685.181 525.907 686.434 525.16C687.714 524.413 689.168 524.04 690.794 524.04C692.608 524.04 694.181 524.493 695.514 525.4C696.848 526.28 697.834 527.48 698.474 529V515.32C698.474 514.92 698.394 514.64 698.234 514.48C698.074 514.293 697.781 514.2 697.354 514.2H695.874V513.52H699.194V539.2C699.194 539.6 699.274 539.893 699.434 540.08C699.594 540.24 699.888 540.32 700.314 540.32H701.794V541H698.474V536.76C697.834 538.28 696.848 539.493 695.514 540.4C694.181 541.28 692.608 541.72 690.794 541.72ZM690.794 541C692.314 540.973 693.648 540.613 694.794 539.92C695.941 539.227 696.834 538.28 697.474 537.08C698.141 535.853 698.474 534.453 698.474 532.88C698.474 531.307 698.141 529.92 697.474 528.72C696.834 527.493 695.941 526.533 694.794 525.84C693.648 525.12 692.314 524.76 690.794 524.76C689.301 524.76 687.981 525.12 686.834 525.84C685.688 526.533 684.781 527.493 684.114 528.72C683.474 529.92 683.154 531.307 683.154 532.88C683.154 534.453 683.474 535.853 684.114 537.08C684.781 538.28 685.688 539.227 686.834 539.92C687.981 540.613 689.301 540.973 690.794 541ZM712.602 540.92C712.202 540.92 711.855 540.787 711.562 540.52C711.295 540.227 711.162 539.88 711.162 539.48C711.162 539.08 711.295 538.747 711.562 538.48C711.855 538.187 712.202 538.04 712.602 538.04C713.002 538.04 713.335 538.187 713.602 538.48C713.895 538.747 714.042 539.08 714.042 539.48C714.042 539.88 713.895 540.227 713.602 540.52C713.335 540.787 713.002 540.92 712.602 540.92Z" fill="black"/>
<path d="M48.512 150.176C39.8933 150.176 32.256 148.213 25.6 144.288C19.0293 140.363 13.8667 134.901 10.112 127.904C6.35733 120.907 4.48 112.8 4.48 103.584C4.48 94.624 6.35733 86.7307 10.112 79.904C13.8667 72.992 19.0293 67.616 25.6 63.776C32.256 59.8507 39.8933 57.888 48.512 57.888C57.0453 57.888 64.5973 59.8507 71.168 63.776C77.7387 67.616 82.8587 72.992 86.528 79.904C90.2827 86.7307 92.16 94.624 92.16 103.584C92.16 112.8 90.2827 120.907 86.528 127.904C82.8587 134.901 77.7387 140.363 71.168 144.288C64.5973 148.213 57.0453 150.176 48.512 150.176ZM48.512 148C56.6187 147.915 63.7867 145.995 70.016 142.24C76.2453 138.485 81.1093 133.28 84.608 126.624C88.1067 119.968 89.856 112.288 89.856 103.584C89.856 95.0507 88.1067 87.5413 84.608 81.056C81.1093 74.4853 76.2453 69.3653 70.016 65.696C63.7867 61.9413 56.6187 60.064 48.512 60.064C40.4053 60.064 33.1947 61.9413 26.88 65.696C20.5653 69.3653 15.616 74.4853 12.032 81.056C8.53333 87.5413 6.784 95.0507 6.784 103.584C6.784 112.288 8.53333 119.968 12.032 126.624C15.616 133.28 20.5653 138.485 26.88 142.24C33.1947 145.995 40.4053 147.915 48.512 148ZM120.305 148V145.824H125.041C126.406 145.824 127.345 145.568 127.857 145.056C128.369 144.459 128.625 143.52 128.625 142.24V65.824C128.625 64.544 128.369 63.648 127.857 63.136C127.345 62.5387 126.406 62.24 125.041 62.24H120.305V60.064H130.929V104.992C132.55 101.664 135.238 98.976 138.993 96.928C142.833 94.7947 146.929 93.728 151.281 93.728C157.852 93.728 163.185 95.648 167.281 99.488C171.377 103.243 173.425 108.704 173.425 115.872V145.824H180.337V148H162.801V145.824H167.537C168.902 145.824 169.841 145.568 170.353 145.056C170.865 144.459 171.121 143.52 171.121 142.24V115.872C171.121 109.387 169.244 104.48 165.489 101.152C161.82 97.7387 157.084 96.032 151.281 96.032C147.441 96.032 143.985 96.8427 140.913 98.464C137.841 100 135.409 102.219 133.617 105.12C131.825 107.936 130.929 111.307 130.929 115.232V145.824H137.841V148H120.305ZM213.798 126.368V52.512H216.102V126.368H213.798ZM214.95 147.744C213.67 147.744 212.561 147.317 211.622 146.464C210.769 145.525 210.342 144.416 210.342 143.136C210.342 141.856 210.769 140.789 211.622 139.936C212.561 138.997 213.67 138.528 214.95 138.528C216.23 138.528 217.297 138.997 218.15 139.936C219.089 140.789 219.558 141.856 219.558 143.136C219.558 144.416 219.089 145.525 218.15 146.464C217.297 147.317 216.23 147.744 214.95 147.744Z" fill="black"/>
<path d="M65.376 419V417.368H69.6C71.392 417.368 72.288 416.44 72.288 414.584V357.464C72.288 355.608 71.424 354.68 69.696 354.68H64.8V353.048H109.824V361.016H108.096V354.68H74.016V382.328H99.936V377.144H101.664V389.144H99.936V383.96H74.016V417.368H108.096V411.896H109.824V419H65.376ZM132.416 419V417.368H135.968C136.992 417.368 137.696 417.176 138.08 416.792C138.464 416.344 138.656 415.64 138.656 414.68V384.248C138.656 383.288 138.464 382.616 138.08 382.232C137.696 381.784 136.992 381.56 135.968 381.56H132.416V379.928H140.384V386.84C141.344 384.28 143.008 382.232 145.376 380.696C147.808 379.096 150.496 378.296 153.44 378.296C156.256 378.296 158.56 378.904 160.352 380.12C162.144 381.272 163.36 382.616 164 384.152C164.64 385.688 164.64 386.936 164 387.896C163.552 388.536 162.976 388.728 162.272 388.472C161.632 388.216 161.248 387.8 161.12 387.224C161.056 386.52 161.152 386.04 161.408 385.784C161.728 385.528 161.952 385.272 162.08 385.016C162.272 384.696 162.144 384.184 161.696 383.48C161.056 382.392 159.936 381.528 158.336 380.888C156.736 380.248 155.104 379.928 153.44 379.928C150.304 379.928 147.776 380.696 145.856 382.232C143.936 383.768 142.528 385.624 141.632 387.8C140.8 389.912 140.384 391.864 140.384 393.656V417.368H145.568V419H132.416ZM187.129 419V417.368H190.681C191.705 417.368 192.409 417.176 192.793 416.792C193.177 416.344 193.369 415.64 193.369 414.68V384.248C193.369 383.288 193.177 382.616 192.793 382.232C192.409 381.784 191.705 381.56 190.681 381.56H187.129V379.928H195.097V386.84C196.057 384.28 197.721 382.232 200.089 380.696C202.521 379.096 205.209 378.296 208.153 378.296C210.969 378.296 213.273 378.904 215.065 380.12C216.857 381.272 218.073 382.616 218.713 384.152C219.353 385.688 219.353 386.936 218.713 387.896C218.265 388.536 217.689 388.728 216.985 388.472C216.345 388.216 215.961 387.8 215.833 387.224C215.769 386.52 215.865 386.04 216.121 385.784C216.441 385.528 216.665 385.272 216.793 385.016C216.985 384.696 216.857 384.184 216.409 383.48C215.769 382.392 214.649 381.528 213.049 380.888C211.449 380.248 209.817 379.928 208.153 379.928C205.017 379.928 202.489 380.696 200.569 382.232C198.649 383.768 197.241 385.624 196.345 387.8C195.513 389.912 195.097 391.864 195.097 393.656V417.368H200.281V419H187.129ZM259.646 420.728C255.742 420.728 252.286 419.832 249.278 418.04C246.27 416.248 243.902 413.752 242.174 410.552C240.446 407.352 239.55 403.672 239.486 399.512C239.486 395.352 240.318 391.672 241.982 388.472C243.71 385.272 246.078 382.776 249.086 380.984C252.158 379.192 255.678 378.296 259.646 378.296C263.614 378.296 267.102 379.192 270.11 380.984C273.118 382.776 275.454 385.272 277.118 388.472C278.846 391.672 279.71 395.352 279.71 399.512C279.71 403.672 278.846 407.352 277.118 410.552C275.454 413.752 273.118 416.248 270.11 418.04C267.102 419.832 263.614 420.728 259.646 420.728ZM259.646 419C263.23 419 266.398 418.2 269.15 416.6C271.902 414.936 274.046 412.632 275.582 409.688C277.182 406.744 277.982 403.352 277.982 399.512C277.982 395.672 277.182 392.28 275.582 389.336C274.046 386.392 271.902 384.088 269.15 382.424C266.398 380.76 263.23 379.96 259.646 380.024C256.062 380.024 252.862 380.888 250.046 382.616C247.294 384.28 245.118 386.584 243.518 389.528C241.982 392.408 241.214 395.736 241.214 399.512C241.214 403.288 241.982 406.648 243.518 409.592C245.118 412.472 247.294 414.744 250.046 416.408C252.862 418.072 256.062 418.936 259.646 419ZM298.429 419V417.368H301.981C303.005 417.368 303.709 417.176 304.093 416.792C304.477 416.344 304.669 415.64 304.669 414.68V384.248C304.669 383.288 304.477 382.616 304.093 382.232C303.709 381.784 303.005 381.56 301.981 381.56H298.429V379.928H306.397V386.84C307.357 384.28 309.021 382.232 311.389 380.696C313.821 379.096 316.509 378.296 319.453 378.296C322.269 378.296 324.573 378.904 326.365 380.12C328.157 381.272 329.373 382.616 330.013 384.152C330.653 385.688 330.653 386.936 330.013 387.896C329.565 388.536 328.989 388.728 328.285 388.472C327.645 388.216 327.261 387.8 327.133 387.224C327.069 386.52 327.165 386.04 327.421 385.784C327.741 385.528 327.965 385.272 328.093 385.016C328.285 384.696 328.157 384.184 327.709 383.48C327.069 382.392 325.949 381.528 324.349 380.888C322.749 380.248 321.117 379.928 319.453 379.928C316.317 379.928 313.789 380.696 311.869 382.232C309.949 383.768 308.541 385.624 307.645 387.8C306.813 389.912 306.397 391.864 306.397 393.656V417.368H311.581V419H298.429Z" fill="black"/>
</svg>
