<svg width="78" height="59" viewBox="0 0 78 59" fill="none" xmlns="http://www.w3.org/2000/svg">
<path d="M39.0477 52.7459C47.2699 52.7459 53.9353 46.0576 53.9353 37.8071C53.9353 29.5566 47.2699 22.8683 39.0477 22.8683C30.8255 22.8683 24.1602 29.5566 24.1602 37.8071C24.1602 46.0576 30.8255 52.7459 39.0477 52.7459Z" stroke="black"/>
<path d="M39.0476 57.8162C48.3521 57.8162 64.4355 57.8427 73.7506 57.7897C76.2832 57.7614 76.8363 57.203 76.8063 54.5856C76.8204 45.1501 76.8398 23.6088 76.7975 14.0814C76.7553 13.0122 76.72 11.9978 75.8306 11.4464C75.0557 10.9091 72.6375 10.872 71.2356 10.8614C69.0358 10.842 66.114 10.8579 63.6043 10.8508C61.4344 10.8437 59.6204 10.7978 58.4104 10.2658C54.3385 8.6205 57.6408 1.49307 52.4346 1.29337C44.7575 1.10427 33.3342 1.19263 26.0252 1.25802C23.3658 1.31811 22.5204 2.75667 22.2227 5.05413C21.8687 8.09562 21.2541 10.4426 17.7475 10.7165C14.4716 10.9869 10.6427 10.7942 7.37391 10.8561C5.74126 10.9074 3.94658 10.7766 2.43898 11.3085C1.19028 11.8104 1.23431 13.1624 1.18499 14.3977C1.17619 25.6129 1.16914 47.0747 1.17443 57.8162" stroke="black"/>
<path d="M39.0847 57.7437C28.7921 57.8604 19.8645 49.4146 19.3344 39.1502C18.1967 24.2556 34.2237 13.4045 47.5385 19.9275C54.3932 23.1988 58.8702 30.0982 58.8737 37.8866" stroke="black"/>
<path d="M14.9295 5.73277H7.55C7.36908 5.73277 7.22241 5.87994 7.22241 6.06148V8.71063C7.22241 8.89218 7.36908 9.03935 7.55 9.03935H14.9295C15.1104 9.03935 15.2571 8.89218 15.2571 8.71063V6.06148C15.2571 5.87994 15.1104 5.73277 14.9295 5.73277Z" stroke="black"/>
<path d="M5.22705 17.8015V52.8608" stroke="black"/>
</svg>
