<?xml version="1.0" encoding="UTF-8"?>
<svg id="_レイヤー_2" data-name="レイヤー 2" xmlns="http://www.w3.org/2000/svg" viewBox="0 0 1080 1080">
  <defs>
    <style>
      .cls-1 {
        fill: #fff;
      }

      .cls-2 {
        fill: none;
        stroke: #000;
        stroke-width: 16px;
      }
    </style>
  </defs>
  <g id="_レイヤー_6" data-name="レイヤー 6">
    <rect class="cls-1" width="1080" height="1080"/>
    <g>
      <g>
        <path d="M676.47,806.57c-3.36,4.57-5.03,8.85-5.03,12.61,0,7,6.31,11.86,15.51,11.86,7.58,0,15.97-2.43,22.39-6.42,6.19-3.82,9.95-8.74,10.65-14,.98-7.52-6.31-13.08-12.5-19.04-4.11-3.99-7.81-8.22-7.64-13.19.23-7.81,11.86-15.1,23.78-15.1,8.91,0,16.2,4.34,16.2,9.78,0,2.14-1.22,4.4-3.47,6.6l-1.04-1.1c2.03-1.91,3.01-3.76,3.01-5.5,0-4.51-6.71-8.28-14.7-8.28-11.11,0-22.1,6.71-22.28,13.66-.17,4.4,3.12,8.1,7.17,12.04,6.13,5.9,14.06,11.98,12.96,20.37-.75,5.67-4.8,10.99-11.4,15.04-6.6,4.17-15.28,6.66-23.15,6.66-10.01,0-17.01-5.44-17.01-13.37,0-4.05,1.8-8.68,5.32-13.48l1.21.87Z"/>
        <path d="M744.1,815.42c2.66-2.37,2.49-3.7-.23-3.7-4.57,0-9.2,5.61-6.83,8.45,2.66,3.18,20.02,1.04,31.07-3.93l.58,1.39c-11.98,5.38-29.57,7.35-32.81,3.47-3.24-3.82,2.08-10.88,7.99-10.88,4.23,0,4.86,3.12,1.22,6.31l-.98-1.1Z"/>
        <path d="M807.86,817.62s-17.36,7.52-24.3,7.52c-4.69,0-5.32-2.6-1.74-7.81,3.18-4.34,3.65-5.32,2.49-5.32-3.7,0-10.18,5.03-14.87,11.63l-.35.52-.06.06-1.27-.81.35-.52,20.37-30.49,1.27.81-14.7,21.99c3.36-2.89,6.77-4.69,9.26-4.69,3.47,0,2.32,2.78-1.21,7.75-2.95,4.16-2.78,5.38.46,5.38,6.6,0,23.72-7.41,23.72-7.41l.58,1.39Z"/>
        <path d="M840.26,817.62c-6.6,2.78-15.79,6.25-19.73,6.25-2.55,0-4.05-1.16-4.05-3.18,0-1.1.41-2.43.93-3.65-2.72,2.55-6.42,5.5-8.74,5.5-1.16,0-1.85-1.27-1.85-2.72,0-3.47,3.88-7.52,7.35-7.52,1.68,0,3.12.87,3.7,2.26l1.85-1.85.7.69.46.29c-.64.98-2.89,4.8-2.89,7,0,1.16.75,1.68,2.55,1.68,2.89,0,9.95-2.26,19.15-6.13l.58,1.39ZM808.66,821.03c1.91,0,5.38-2.89,7.99-5.32-.17-1.1-1.22-1.91-2.49-1.91-2.6,0-5.84,3.41-5.84,6.02,0,.64.23,1.22.35,1.22Z"/>
        <path d="M877.98,817.62c-9.55,4.63-21.29,2.89-21.29-3.18,0-.87.17-1.62.46-2.25-2.55,1.16-5.21,4.34-7.12,6.83-.81,1.33-1.62,2.43-2.08,3.01l-.29.52h-.06l-1.27-.81c.06-.06.29-.46.69-.98.35-.52.75-1.16,1.27-1.85,1.68-2.43,3.76-5.78,3.76-7.29v-.06c-.52.06-1.68.58-4.8,2.37-1.97,1.16-4.4,2.55-7,3.7l-.58-1.39c2.49-1.1,4.86-2.49,6.83-3.65,3.47-1.97,4.69-2.55,5.61-2.55s1.45.64,1.45,1.56c0,.46-.12.98-.35,1.62,1.91-1.74,3.99-3.07,5.9-3.07s3.3.87,3.3,2.55h-1.5c0-.64-.46-.98-1.39-1.04-.87.52-1.33,1.45-1.33,2.78,0,4.69,10.76,5.85,19.09,1.8l.7,1.39Z"/>
        <path d="M910.32,817.62c-6.6,2.78-15.79,6.25-19.73,6.25-2.55,0-4.05-1.16-4.05-3.18,0-1.1.41-2.43.93-3.65-2.72,2.55-6.42,5.5-8.74,5.5-1.16,0-1.85-1.27-1.85-2.72,0-3.47,3.88-7.52,7.35-7.52,1.68,0,3.13.87,3.7,2.26l1.85-1.85.7.69.46.29c-.64.98-2.89,4.8-2.89,7,0,1.16.75,1.68,2.55,1.68,2.89,0,9.95-2.26,19.15-6.13l.58,1.39ZM878.72,821.03c1.91,0,5.38-2.89,7.99-5.32-.17-1.1-1.21-1.91-2.49-1.91-2.6,0-5.84,3.41-5.84,6.02,0,.64.23,1.22.35,1.22Z"/>
        <path d="M940.86,817.62c-6.6,2.78-15.79,6.25-19.73,6.25-2.55,0-4.05-1.16-4.05-3.18,0-.52.06-1.04.23-1.56-1.04,1.1-1.91,1.85-2.72,2.37-1.1.75-2.08,1.1-3.01,1.1-1.45,0-2.32-1.04-2.32-2.78,0-3.47,3.88-7.52,7.35-7.52,1.22,0,2.26.58,3.07,1.56,2.14-2.89,4.8-6.77,8.1-11.81,1.85-2.78,3.88-5.96,6.19-9.66l1.27.81c-2.32,3.64-4.34,6.89-6.19,9.72-3.01,4.63-5.5,8.22-7.58,11.05-.64.98-2.89,4.51-2.89,6.71,0,1.16.75,1.68,2.55,1.68,2.89,0,9.95-2.26,19.15-6.13l.58,1.39ZM918.7,815.07c-.58-.87-1.21-1.27-2.08-1.27-2.6,0-5.84,3.41-5.84,6.02,0,.93.29,1.27.81,1.27.58,0,1.33-.29,2.2-.81,1.21-.81,2.83-2.49,4.92-5.21Z"/>
        <path d="M970.14,817.62c-6.88,3.47-17.65,7.81-24.3,6.42-4.28-.87-6.13-3.99-5.96-7v-.11c.29-3.07,2.78-5.96,7.23-5.96,1.73,0,3.07,1.16,3.07,2.72,0,4.23-5.32,6.77-8.27,5.9.69,1.39,2.08,2.55,4.22,2.95,6.19,1.27,16.49-2.84,23.38-6.31l.64,1.39ZM941.38,817.04c.17,2.66,7.29.75,7.29-3.36,0-.69-.64-1.21-1.56-1.21-3.53,0-5.5,2.2-5.73,4.57Z"/>
      </g>
      <g>
        <circle class="cls-2" cx="540.59" cy="609.59" r="180.89"/>
        <path class="cls-2" d="M540.59,851.87c113.05,0,308.48.33,421.66-.31,30.78-.35,37.49-7.1,37.13-38.81.18-114.24.41-375.09-.1-490.45-.52-12.94-.94-25.24-11.75-31.92-9.41-6.5-38.8-6.95-55.83-7.09-26.72-.23-62.23-.05-92.73-.14-26.35-.1-48.41-.63-63.1-7.08-49.47-19.93-9.35-106.23-72.6-108.65-93.28-2.3-232.08-1.22-320.88-.42-32.31.73-42.57,18.15-46.21,45.96-4.3,36.82-11.78,65.25-54.37,68.56-39.81,3.27-86.33.94-126.04,1.7-19.85.62-41.64-.97-59.96,5.47-15.18,6.07-14.64,22.44-15.23,37.41-.11,135.81-.19,395.68-.13,525.76"/>
        <path class="cls-2" d="M541.03,851c-125.05,1.41-233.54-100.86-239.97-225.15-13.81-180.36,180.92-311.76,342.7-232.77,83.29,39.6,137.69,123.15,137.73,217.46"/>
        <rect class="cls-2" x="153.89" y="221.2" width="97.63" height="40.04" rx="1.86" ry="1.86"/>
        <line class="cls-2" x1="129.64" y1="367.35" x2="129.64" y2="791.88"/>
      </g>
    </g>
  </g>
</svg>