<svg width="26" height="20" viewBox="0 0 26 20" fill="none" xmlns="http://www.w3.org/2000/svg">
<path d="M16.6718 8.54416C16.7428 8.63727 16.445 8.4312 16.6189 8.60936C16.5734 8.58832 16.5275 8.56724 16.4819 8.54619C16.4834 8.51825 16.4846 8.49021 16.4861 8.46227C16.5479 8.48947 16.6097 8.51668 16.6718 8.54405C16.6718 8.54409 16.6718 8.54412 16.6718 8.54416ZM16.9073 8.31947C16.8185 8.35032 16.6397 8.26903 16.7897 8.43144C16.8165 8.41869 16.8436 8.40614 16.8703 8.39339C16.9243 8.44644 16.9787 8.49971 17.0328 8.55267C17.0603 8.55779 17.0877 8.56288 17.1152 8.56809C17.123 8.62161 17.1306 8.67509 17.1384 8.72871C17.1157 8.70843 17.0927 8.68785 17.07 8.66757C16.9507 8.63849 16.8552 8.59423 16.7134 8.5198C16.7206 8.53552 16.7278 8.55118 16.7349 8.56689C16.6732 8.51151 16.6115 8.45612 16.55 8.40091C16.6192 8.4215 16.6965 8.44461 16.7606 8.46361C16.7037 8.35394 16.5262 8.29418 16.4364 8.2584C16.3142 8.20971 16.3555 8.19703 16.2653 8.1602C16.2509 8.15429 16.237 8.17488 16.2104 8.16C16.0762 8.0848 15.824 7.92404 16.0042 7.9613C16.2198 8.09433 16.43 8.16206 16.6366 8.30094C16.6131 8.21016 16.7378 8.25587 16.9073 8.31947ZM12.7731 6.17852C12.8558 6.18874 12.9845 6.27822 13.0649 6.35068C13.065 6.35074 13.0651 6.3508 13.0652 6.35086C13.0829 6.36682 13.107 6.43058 13.042 6.39103C12.9362 6.32643 12.9182 6.2376 12.8388 6.24502C12.8179 6.22302 12.7952 6.20111 12.7731 6.17852ZM12.5377 6.04728C12.4802 5.99483 12.5357 5.96772 12.6112 6.02734C12.6112 6.02731 12.6112 6.02727 12.6113 6.02724C12.6428 6.05212 12.555 6.04817 12.6989 6.08385C12.7082 6.12608 12.7184 6.1656 12.7279 6.20677C12.6974 6.18977 12.6694 6.17458 12.6375 6.15664C12.6851 6.12345 12.5953 6.09961 12.5377 6.04728ZM15.8785 7.92209C15.8445 7.95704 15.888 7.98183 15.9455 8.05288C15.8765 8.01129 15.8076 7.9696 15.739 7.92818C15.7856 7.92619 15.8318 7.92408 15.8785 7.92209ZM17.5126 8.87399C17.5127 8.87405 17.5128 8.87411 17.5129 8.87417C17.5394 8.88091 17.5661 8.88766 17.5923 8.89431C17.5975 8.9168 17.6026 8.93913 17.6078 8.96162C17.6964 8.9945 17.7855 9.02763 17.8742 9.06042C17.8386 9.09938 17.6979 9.00849 17.6001 8.9936C17.4892 8.91165 17.447 8.85273 17.4611 8.81046C17.4782 8.83156 17.4952 8.85272 17.5126 8.87399ZM5.06313 10.5144C5.07741 10.5456 5.0917 10.5764 5.10598 10.6075C5.11249 10.5661 5.11747 10.525 5.12502 10.4832C5.06293 10.374 5.11785 10.3637 5.11403 10.2205C5.10224 9.78169 5.0058 9.89812 5.14705 9.5018C5.14033 9.82 5.2067 9.69771 5.25783 9.88955C5.21891 9.92929 5.13115 9.7392 5.11293 9.86801C5.15412 10.09 5.19247 10.3034 5.21907 10.5497C5.2258 10.5425 5.23255 10.5353 5.23927 10.5281C5.23503 10.4891 5.23076 10.4504 5.22652 10.4113C5.24452 10.4534 5.26238 10.4946 5.28059 10.5374C5.23972 10.4833 5.26255 10.6213 5.21559 10.6028C5.19469 10.5946 5.16568 10.5336 5.14571 10.4976C5.13484 10.5905 5.12489 10.6857 5.11434 10.7795C5.09768 10.7309 5.08101 10.6823 5.06435 10.634C5.06384 10.5943 5.06347 10.5549 5.06295 10.5152C5.06301 10.5149 5.06307 10.5147 5.06313 10.5144ZM16.2921 11.8169C16.2143 11.918 16.0329 12.032 15.9082 12.0415C16.0363 11.9666 16.164 11.8918 16.2921 11.8169ZM17.4714 8.77481C17.4788 8.78864 17.4859 8.80219 17.4933 8.81602C17.4346 8.79982 17.3757 8.78337 17.3171 8.76717C17.3192 8.74083 17.3212 8.71435 17.323 8.68792C17.3723 8.71679 17.422 8.74594 17.4714 8.77481ZM14.194 6.91331C14.232 6.93361 14.2349 6.9362 14.2797 6.96599C14.2797 6.96594 14.2796 6.96589 14.2796 6.96584C14.2974 6.97758 14.4446 7.07868 14.4182 7.08469C14.3415 7.04077 14.26 6.99336 14.1817 6.94814C14.1853 6.93629 14.1908 6.9256 14.194 6.91331ZM15.0896 7.44281C15.0897 7.44291 15.0898 7.44301 15.0899 7.4431C15.1163 7.46161 15.1399 7.48177 15.1681 7.49927C15.0501 7.46458 15.0597 7.41015 14.9583 7.36858C14.8569 7.32711 14.7845 7.31838 14.7403 7.21068C14.7753 7.21858 14.8148 7.22381 14.8516 7.2307C14.9709 7.33242 15.0202 7.32998 15.1413 7.36751C15.124 7.39266 15.1069 7.41767 15.0896 7.44281ZM5.20711 8.56072C5.17192 8.53126 5.20645 8.49841 5.20686 8.495C5.2069 8.49506 5.20694 8.49512 5.20698 8.49518C5.1744 8.23424 5.22646 8.52914 5.23195 8.28287C5.24074 8.31951 5.25003 8.35555 5.25892 8.39185C5.24196 8.44801 5.22273 8.50592 5.20711 8.56072ZM7.16893 2.83493C7.16588 2.845 7.16323 2.85533 7.16019 2.8654C7.03321 2.78934 6.98036 2.80541 6.89223 2.71211C6.98452 2.75296 7.07675 2.79387 7.16899 2.83482C7.16897 2.83486 7.16895 2.83489 7.16893 2.83493ZM13.5852 6.47581C13.7371 6.54092 13.8466 6.59415 13.9675 6.69983C13.9676 6.69993 13.9677 6.70002 13.9678 6.70012C13.9747 6.70632 13.9259 6.70291 13.9335 6.71351C13.9632 6.727 13.9948 6.73951 14.0251 6.75263C14.0204 6.76972 14.0155 6.7867 14.0108 6.8037C13.9332 6.75325 13.8554 6.70277 13.7775 6.65215C13.7843 6.66769 13.7915 6.68333 13.7984 6.69887C13.7276 6.66396 13.657 6.62918 13.5862 6.59427C13.624 6.5836 13.6617 6.57289 13.6993 6.56196C13.6613 6.53323 13.6232 6.50464 13.5852 6.47581ZM5.21856 2.6189C5.23988 2.60472 5.2346 2.65045 5.26075 2.62532C5.28606 2.60048 5.30754 2.53706 5.32391 2.56803C5.29972 2.6072 5.27853 2.65009 5.26158 2.6929C5.3749 2.591 5.44349 2.46523 5.49279 2.51503C5.38469 2.58913 5.32681 2.69128 5.30241 2.8119C5.24804 2.79078 5.2646 2.64166 5.17886 2.70115C5.19054 2.67337 5.20413 2.64472 5.2185 2.61924C5.21852 2.61913 5.21854 2.61901 5.21856 2.6189ZM19.4395 10.4104C19.4048 10.5559 19.2578 10.8878 19.0939 11.002C19.0553 11.0354 18.8745 11.058 18.8674 11.0441C18.8432 11.0055 18.9616 10.8926 18.8091 10.9854C18.8544 10.9481 18.8952 10.9076 18.9345 10.8641C18.9047 10.8507 18.8754 10.8367 18.8468 10.8219C18.8042 10.8721 18.7565 10.9194 18.7059 10.9621C18.6972 10.9558 18.6886 10.9493 18.6801 10.9428C18.8619 10.7985 18.7309 10.853 18.7882 10.7483C18.7026 10.8109 18.6093 10.859 18.5149 10.8919C18.5658 10.8655 18.6214 10.8285 18.6621 10.7983C18.6343 10.755 18.5498 10.8337 18.527 10.8344C18.4651 10.8386 18.5617 10.7807 18.6479 10.6866C18.7365 10.5945 18.8002 10.4626 18.775 10.4269C18.729 10.4933 18.6722 10.5552 18.6097 10.6054C18.6192 10.5827 18.6278 10.5594 18.6349 10.5366C18.7899 10.4378 18.9008 10.2372 18.934 10.0077C18.932 9.98682 18.9292 9.96609 18.926 9.94589C18.9027 9.95327 18.8794 9.9599 18.8559 9.9664C18.852 9.93766 18.8467 9.90892 18.84 9.88101C18.9246 9.95774 18.925 9.83956 18.9167 9.67179C18.9729 9.74416 18.9736 9.85588 19.0225 9.84068C18.9518 9.5619 18.7811 9.23839 18.5069 9.12202C18.4893 9.11426 18.4717 9.1069 18.4542 9.10001C18.3855 9.07303 18.3528 9.13022 18.2072 9.03919C18.2159 9.03583 18.2233 9.025 18.2313 9.01864C17.9586 8.89764 17.7933 8.82398 17.5424 8.64195C17.546 8.67136 17.5492 8.70072 17.5528 8.73014C17.6154 8.75264 17.6781 8.77503 17.7404 8.79736C17.7594 8.85349 17.6938 8.83554 17.8631 8.93281C18.0018 9.01254 17.928 8.94996 17.9714 8.96168C18.0304 8.97743 18.0596 9.03024 18.1233 9.0466C18.1725 9.05936 18.1427 9.00491 18.2493 9.07588C18.1839 9.08639 18.1169 9.09757 18.051 9.10837C18.0287 9.08462 18.0066 9.06087 17.9844 9.03704C18.0173 9.04312 18.0496 9.04906 18.0825 9.05513C17.9764 9.01703 17.8761 8.98099 17.7663 8.94163C17.8289 8.90796 17.7148 8.86827 17.6555 8.84225C17.563 8.80176 17.6582 8.80871 17.5978 8.78183C17.5373 8.75505 17.4527 8.75982 17.3547 8.69178C17.4233 8.70034 17.3603 8.63611 17.3872 8.62298C17.4142 8.60987 17.5258 8.66797 17.4348 8.58411C17.2233 8.48581 17.3943 8.69373 17.2508 8.62856C17.0784 8.55031 17.1167 8.39439 17.1819 8.39377C17.2332 8.39328 17.3622 8.47385 17.4138 8.47363C17.2014 8.29685 17.1531 8.37582 17.1037 8.36821C16.9242 8.34069 17.1106 8.24515 16.9052 8.20007C16.9249 8.17346 16.9424 8.14936 16.9614 8.12391C16.9285 8.11182 16.9046 8.10725 16.866 8.09048C16.9407 8.2076 16.8547 8.1548 16.8098 8.12901C16.7391 8.08842 16.8326 8.17847 16.8098 8.17467C16.7486 8.16426 16.6737 8.10971 16.7085 8.16243C16.6932 8.13837 16.676 8.11321 16.6599 8.0889C16.5692 8.05546 16.3067 8.06245 16.5051 8.14496C16.4624 8.17922 16.4149 8.12352 16.3722 8.0899C16.3296 8.0563 16.3142 8.08494 16.2762 8.05611C16.1254 7.94129 16.2597 7.95466 16.3073 7.93183C16.0772 7.83364 16.2779 7.97241 15.9579 7.81085C15.9102 7.82429 16.0344 7.93978 15.9049 7.88867C15.9138 7.82258 15.8481 7.73352 15.6872 7.61695C15.6635 7.61964 15.6398 7.62246 15.6161 7.62515C15.5511 7.5219 15.6285 7.49821 15.4202 7.45948C15.578 7.40061 15.4726 7.43571 15.3442 7.30051C15.3181 7.27312 15.4042 7.29174 15.3671 7.25456C15.3503 7.23773 15.2918 7.22745 15.2511 7.18578C15.2312 7.16536 15.1453 7.05792 15.0566 7.03416C15.0815 7.1212 14.9087 7.08326 15.0079 7.20063C14.7829 7.05591 14.6058 6.98857 14.908 7.06397C14.8588 7.01357 14.8095 6.9632 14.7602 6.91288C14.7118 6.90224 14.663 6.89129 14.6143 6.88039C14.634 6.83201 14.6475 6.82306 14.4816 6.73782C14.5577 6.76765 14.6336 6.79714 14.71 6.82706C14.7176 6.81938 14.7328 6.81563 14.7356 6.80549C14.6396 6.773 14.3929 6.64047 14.3273 6.61848C14.2617 6.59648 14.3732 6.66524 14.3496 6.66704C14.1537 6.68103 14.2055 6.61716 14.0949 6.57516C14.03 6.55058 14.1656 6.64288 14.1315 6.62868C14.005 6.57583 13.9797 6.49364 13.8757 6.43274C13.8962 6.4829 13.9161 6.53334 13.9355 6.58326C13.8269 6.51854 13.705 6.44782 13.5979 6.3983C13.5559 6.37884 13.5737 6.41766 13.5664 6.41533C13.5298 6.40399 13.3914 6.33959 13.3774 6.33163C13.2723 6.2712 13.2864 6.23984 13.1853 6.17933C13.2268 6.19994 13.2658 6.21942 13.3063 6.2396C13.3519 6.20184 13.3978 6.16429 13.4433 6.12644C13.3454 6.06524 13.2474 6.00407 13.1491 5.94269C13.2131 6.00104 13.2774 6.05946 13.3415 6.1178C13.2045 6.09049 13.0676 6.06327 12.9306 6.03605C12.8847 5.97778 12.8391 5.91966 12.7932 5.86139C12.6277 5.77419 12.6044 5.88979 12.5765 5.76065C12.5246 5.74026 12.4727 5.71985 12.4209 5.69936C12.4347 5.6912 12.4485 5.68298 12.4623 5.67482C12.4004 5.64903 12.3386 5.62321 12.2767 5.59751C12.3125 5.67528 12.3458 5.75461 12.3817 5.83079C12.2631 5.7747 12.2819 5.73711 12.2702 5.71829C12.2393 5.6684 12.1317 5.64946 12.1089 5.60668C12.1013 5.5921 12.2261 5.63226 12.2037 5.58258C12.1994 5.57292 12.1093 5.3857 12.001 5.35437C11.9921 5.37377 11.9865 5.40053 11.9788 5.42275C11.8448 5.36028 11.8352 5.22683 11.8676 5.20971C11.7888 5.1893 11.6886 5.13354 11.6577 5.15489C11.6225 5.13557 11.5877 5.11636 11.5526 5.09703C11.6301 5.04632 11.4777 4.97583 11.4327 5.03192C11.4914 5.06787 11.5502 5.10394 11.609 5.13989C11.5203 5.18932 11.6752 5.3395 11.3385 5.0519C11.2891 4.97102 11.4636 5.13123 11.4218 5.06792C11.3296 4.99189 11.2256 4.9509 11.1444 4.86756C11.0434 4.76372 11.2108 4.81662 10.9045 4.69772C11.462 5.16477 10.7769 4.72216 10.4661 4.58773C10.4481 4.43393 10.2217 4.25781 9.86442 4.09419C9.88244 4.14451 9.99794 4.19063 10.0537 4.23594C10.1094 4.28125 10.0327 4.26065 10.1011 4.3188C10.1696 4.37695 10.3211 4.48979 10.3864 4.55566C10.311 4.53472 9.96401 4.3878 10.2059 4.46331C10.0632 4.34136 10.0057 4.26754 9.81081 4.1476C9.72452 4.16004 9.71212 4.19165 9.51823 4.0815C9.66991 4.08256 9.4765 3.91077 9.56351 3.87163C9.69145 3.96631 9.57729 3.98727 9.63848 4.06418C9.64481 4.07198 9.78183 4.12932 9.81081 4.1476C9.71584 4.01474 9.6839 3.96725 9.80332 3.94334C9.70872 3.89685 9.65711 3.8554 9.62961 3.88385C9.61895 3.85847 9.6082 3.83301 9.59784 3.80779C9.56799 3.79104 9.54054 3.77697 9.50927 3.75856C9.52359 3.83371 9.45753 3.7544 9.38478 3.74271C9.312 3.73105 9.36915 3.81683 9.20507 3.72282C9.25288 3.76608 9.29697 3.80497 9.34336 3.84657C9.23031 3.7985 9.11687 3.75033 9.00382 3.70226C9.06029 3.77573 9.19474 3.91405 9.16707 3.95184C9.12722 3.90853 8.94514 3.83908 8.92626 3.82965C8.85327 3.79301 8.90644 3.7898 8.90146 3.78609C8.79766 3.70968 8.70129 3.66559 8.68142 3.60274C8.58802 3.572 8.53088 3.52579 8.44192 3.47574C8.39296 3.44819 8.38607 3.48195 8.3607 3.46014C8.19213 3.31501 8.39357 3.38255 7.98826 3.24137C8.02108 3.28661 8.05304 3.33195 8.08576 3.37737C8.04022 3.361 7.99491 3.34481 7.94937 3.32844C7.92385 3.30892 7.89859 3.28952 7.87307 3.27001C7.89835 3.2276 7.92379 3.18518 7.94906 3.14277C7.92015 3.12297 7.89107 3.10316 7.86215 3.08336C7.9165 3.10913 7.97098 3.13497 8.02533 3.16073C8.03442 3.15595 8.04319 3.15098 8.05227 3.14619C7.98186 3.09001 7.91179 3.03387 7.84143 2.9776C7.83136 2.99161 7.82125 3.00574 7.81118 3.01975C7.64928 2.89868 7.65241 2.8837 7.46353 2.82925C7.33651 2.75532 7.19697 2.75766 7.10828 2.74135C7.08669 2.71778 7.06513 2.69408 7.04325 2.67033C7.0192 2.67294 6.995 2.67539 6.97095 2.67799C6.94736 2.64143 6.92332 2.6046 6.89968 2.56813C6.85845 2.5964 6.84173 2.60301 6.96462 2.69224C6.89177 2.71495 6.67385 2.56056 6.58952 2.49012C6.52555 2.43668 6.62785 2.44172 6.6218 2.43166C6.60177 2.39777 6.47621 2.34454 6.45319 2.32755C6.4476 2.32343 6.44209 2.31943 6.43664 2.31551C6.35761 2.25814 6.28984 2.23306 6.20408 2.20173C6.18679 2.19494 6.13935 2.15631 6.13439 2.15499C6.10015 2.14338 6.01025 2.12466 5.99965 2.12526C5.47453 2.18263 6.03091 2.18012 5.60117 2.31879C5.62102 2.32747 5.63933 2.33714 5.65781 2.34714C5.62937 2.36178 5.6015 2.3782 5.57505 2.39602C5.5336 2.40644 5.55923 2.35645 5.50445 2.4215C5.49609 2.40161 5.48809 2.3815 5.48075 2.36112C5.45636 2.39283 5.43551 2.42468 5.41578 2.45879C5.31726 2.43943 5.16709 2.62959 5.10488 2.5786C5.07787 2.55926 5.1642 2.38079 5.07965 2.44865C5.02729 2.51766 5.08837 2.48719 5.07164 2.51746C4.96645 2.73937 4.9421 2.71896 4.92519 2.82117C4.94181 2.84176 4.95928 2.86219 4.97716 2.88129C4.96461 2.91643 4.95388 2.95215 4.94497 2.98951C4.95824 2.99938 4.97167 3.00885 4.9852 3.01789C4.98775 2.98442 4.9926 2.94653 4.99817 2.91616C5.01615 2.9361 5.02363 3.00456 5.03372 3.0718C5.04904 3.18153 5.04724 3.29307 5.01894 3.20176C5.00021 3.14113 5.00817 3.03008 4.94424 3.10026C4.95345 3.20474 4.96286 3.32328 4.97207 3.43324C4.95831 3.43667 4.94452 3.43986 4.93075 3.44328C4.93966 3.59148 4.9947 3.4567 5.02419 3.45697C5.02502 3.49087 5.02575 3.52512 5.02657 3.55902C5.01324 3.57339 4.99928 3.58705 4.98635 3.60211C5.00758 3.60349 5.05691 3.62247 5.0386 3.72351C5.02668 3.78847 4.97313 3.68617 4.98056 3.81004C5.01367 3.80078 5.05399 3.75603 5.06466 3.89402C5.0301 3.90772 4.99844 3.92667 4.96212 3.93728C4.99532 4.10888 4.94196 4.18696 4.98056 4.38838C5.00498 4.51616 5.09168 4.69119 4.9581 4.77376C4.95458 4.86722 4.98785 4.83756 4.99533 4.86522C5.03072 4.99574 4.96738 5.09282 4.96365 5.11715C4.93977 5.27227 4.96169 5.34182 4.93179 5.4682C4.95653 5.46135 4.97994 5.45762 5.00405 5.45214C4.967 5.33635 4.96874 5.27771 4.97671 5.11532C4.98168 5.16978 4.98676 5.22425 4.99172 5.27871C5.0118 5.2698 5.03187 5.26098 5.05184 5.25242C4.97277 4.7502 5.0977 4.86736 5.12502 5.28838C5.08787 5.32469 5.05082 5.36232 5.01357 5.39828C5.06987 5.64151 5.021 5.75596 5.0093 6.03103C5.00796 6.06373 5.02936 6.18284 5.03042 6.23403C5.03056 6.23318 5.0307 6.23233 5.03085 6.23147C5.06592 6.26332 5.08207 6.22019 5.11342 6.21504C5.11735 6.24279 5.12127 6.27055 5.1252 6.29829C5.1013 6.36025 5.08167 6.33847 5.08736 6.4604C5.11116 6.44396 5.13497 6.42773 5.15877 6.41129C5.1596 6.5449 5.13374 6.63233 5.14491 6.75669C5.13591 6.73579 5.12688 6.71515 5.11788 6.69426C5.0949 6.96489 4.95497 6.74952 5.02462 6.95403C5.01241 6.96705 5.00009 6.97972 4.98788 6.99274C4.98488 6.90848 4.98197 6.82418 4.97897 6.74026C4.96169 6.73855 4.94449 6.7367 4.92721 6.73533C4.93239 6.82543 4.93772 6.91597 4.9429 7.00606C4.93131 6.94029 4.9197 6.87413 4.90811 6.80835C4.89983 6.91283 4.89155 7.01733 4.88327 7.1218C4.9468 7.01086 4.95457 7.15469 5.01748 7.12765C4.96511 7.31264 4.89608 7.45795 4.94027 7.74469C4.94908 7.80153 4.99304 7.77065 4.93954 7.93199C5.00949 7.89294 5.04232 8.09506 5.10885 8.06909C5.10564 8.01293 5.10362 7.95468 5.09969 7.90023C5.07661 7.96223 5.01313 7.97251 4.99429 7.87832C4.97028 7.75808 5.01428 7.5827 4.94381 7.58988C4.94712 7.54194 4.94908 7.49734 4.95187 7.45077C4.96935 7.46994 4.98694 7.48872 5.00442 7.50755C4.97701 7.37503 4.98593 7.29176 5.02999 7.22805C5.04013 7.38595 5.05017 7.54352 5.0602 7.70142C5.0632 7.67816 5.06622 7.65458 5.06911 7.63132C5.11413 7.75088 5.15677 7.62755 5.1664 7.85057C5.14581 7.8492 5.12521 7.84811 5.10451 7.84674C5.15957 7.92793 5.15927 8.15023 5.22261 8.07931C5.20315 8.14645 5.19085 8.16014 5.22499 8.19816C5.17687 8.37527 5.11601 8.48902 5.04336 8.42599C5.05505 8.49175 5.06676 8.55755 5.07845 8.62297C5.09832 8.58495 5.11809 8.54689 5.13796 8.50887C5.13672 8.62329 5.1355 8.73855 5.13436 8.85263C5.07558 8.86359 5.11653 8.63239 5.06399 8.6991C5.05344 8.71244 5.07603 8.77402 5.07009 8.79019C5.00583 8.96078 5.05226 8.69298 5.00302 8.74327C4.9878 8.99747 4.9053 8.79405 4.97464 9.14417C4.95767 9.15342 4.94036 9.16336 4.92349 9.17192C4.92247 9.29346 4.9608 9.2836 4.96804 9.38807C4.97255 9.45349 4.90525 9.5356 4.95108 9.60787C4.95953 9.62075 5.04179 9.4992 5.03817 9.75464C5.03536 9.95289 4.97723 9.87038 4.95663 9.97754C4.93604 10.0848 5.01664 10.3301 4.92526 10.4024C4.93737 10.3462 4.94389 10.2746 4.95382 10.2123C4.93603 10.187 4.91842 10.1623 4.90073 10.1373C4.9237 10.2798 4.89662 10.4271 4.93905 10.523C4.87417 10.7132 4.93438 10.9258 5.00765 10.8682C4.99709 10.8057 4.96514 10.8737 4.9855 10.7868C5.00258 10.7779 5.01957 10.7685 5.03664 10.7596C5.03457 10.9076 5.03505 11.0104 4.983 10.9429C4.98176 10.9659 4.98052 10.9886 4.97927 11.0115C5.01695 11.0157 5.05476 11.0193 5.09243 11.0234C5.09667 11.0508 5.10088 11.0783 5.10512 11.1057C5.09685 11.1362 5.08848 11.1668 5.0801 11.1976C5.02049 11.1561 5.01852 11.0855 4.98519 11.3192C5.00579 11.3198 5.0263 11.3208 5.0469 11.3215C5.02072 11.5171 4.97083 11.5223 4.97268 11.7679C4.90118 11.5795 5.02793 11.4764 4.88449 11.4771C4.89391 11.4298 4.90345 11.3821 4.91287 11.3349C4.89207 11.3277 4.87124 11.3205 4.85044 11.3137C4.86141 11.5675 4.99821 11.9892 4.9075 12.1591C4.91857 12.1796 4.92819 12.2003 4.94009 12.2212C4.88534 12.3877 5.00826 12.4596 4.93747 12.6285C4.93004 12.6459 4.81456 12.6094 4.8187 12.8293C4.83371 12.8238 4.85897 12.8209 4.8779 12.8165C4.86869 12.8641 4.85906 12.9114 4.84964 12.9587C4.8635 12.9673 4.87736 12.9762 4.89133 12.9848C4.89671 12.9036 4.90218 12.8226 4.90756 12.7415C4.91232 12.8089 4.91708 12.8768 4.92184 12.9443C4.9445 12.8563 4.94474 12.8166 4.98104 12.8696C4.98322 12.946 4.98552 13.0225 4.9877 13.0989C4.997 13.1068 5.00641 13.1146 5.01571 13.1225C5.04344 13.0855 5.07057 13.0481 5.09871 13.0111C5.07605 13.2101 5.07482 13.3832 5.02029 13.5359C5.01108 13.562 4.97495 13.4699 5.00753 13.6473C4.9884 13.65 4.97286 13.6548 4.95517 13.6579C5.00878 13.8751 4.99277 13.9464 4.95407 14.1729C4.99019 14.0263 4.9667 14.1571 4.98605 14.1944C4.99938 14.22 4.99741 14.1201 5.01138 14.1314C5.02524 14.1427 5.08124 14.2725 5.08797 14.1616C4.9732 13.8896 5.11042 13.8155 5.05526 13.466C5.07006 13.5198 5.08489 13.574 5.09969 13.6278C5.10972 13.6024 5.11882 13.5798 5.12947 13.5524C5.10702 13.7473 5.12161 13.6525 5.1393 13.7326C5.157 13.8127 5.17203 13.9584 5.1769 14.056C5.17842 14.0868 5.15268 14.0544 5.15029 14.1238C5.14863 14.171 5.18679 14.3002 5.1418 14.3301C5.11252 14.3496 5.03188 14.142 5.03207 14.429C5.00336 14.483 5.01227 14.3454 5.00881 14.3425C4.97466 14.3175 4.94898 14.4939 4.97506 14.5754C4.97731 14.582 5.00393 14.5176 5.01437 14.5877C5.03931 14.7538 5.00879 14.8498 4.9675 14.9573C5.01593 14.969 5.07377 15.1088 5.05587 15.2828C5.06973 15.2917 5.08371 15.3002 5.09768 15.3091C5.09034 15.2821 5.0831 15.2551 5.07577 15.2281C5.08446 15.1986 5.09079 15.1674 5.10103 15.1386C5.11294 15.3136 5.17969 15.3384 5.20412 15.4223C5.28754 15.7095 5.11107 15.5354 5.08065 15.4836C5.09296 15.4463 5.10671 15.4102 5.11965 15.3732C5.10278 15.3773 5.08578 15.3815 5.06881 15.3852C5.06932 15.8152 4.9593 15.4507 4.92795 15.6689C5.01094 15.7251 5.01894 15.8854 4.96627 16.0895C4.96669 16.1122 4.96679 16.1348 4.96731 16.1575C4.97941 16.1612 4.99791 16.1612 5.00588 16.1673C5.01996 16.4133 4.89214 16.4571 4.88004 16.4804C4.82633 16.5838 4.90064 16.6644 4.90128 16.6949C4.90343 16.802 4.88086 16.8458 4.8815 16.9282C4.88163 16.9467 4.8831 16.9668 4.88662 16.9891C4.91388 17.133 4.93072 17.031 4.95766 17.071C4.97856 17.1027 5.00413 17.2067 5.03677 17.2421C5.01698 17.2305 4.99702 17.2156 4.9777 17.2023C4.99571 17.3462 5.0298 17.4707 5.13046 17.6094C5.32734 17.682 5.34384 17.9069 5.38335 17.7502C5.26996 17.6504 5.23052 17.5703 5.21717 17.4872C5.27516 17.5593 5.3433 17.6225 5.41838 17.6744C5.42924 17.7039 5.43531 17.7286 5.45352 17.761C5.53061 17.7732 5.67048 17.8526 5.73639 17.8574C6.0385 17.8663 5.92872 17.798 6.2039 17.8652C6.01744 17.9065 6.01221 17.9569 5.81249 17.9219C5.8483 17.9664 5.95794 17.9686 5.88364 18.004C6.09315 18.0074 6.02501 17.9603 6.0984 17.9238C6.16056 17.891 6.28138 17.8569 6.26304 17.8218C6.28091 17.8381 6.29675 17.8541 6.31577 17.8694C6.37839 17.8479 6.43834 17.8204 6.49591 17.7871C6.54676 17.7577 6.59761 17.7283 6.64844 17.6988C6.61298 17.7443 6.57755 17.7898 6.54204 17.8351C6.5811 17.822 6.62019 17.8088 6.65925 17.7957C6.89263 17.5833 7.41471 17.4242 7.25666 17.3203C7.38272 17.2414 7.40943 17.2504 7.49541 17.2377C7.49671 17.2221 7.49888 17.2085 7.49945 17.1917C7.58921 17.1554 7.62889 17.0769 7.70841 17.0454C7.78789 17.0139 7.82883 17.0428 7.80127 16.9704C7.8597 16.962 7.916 16.9505 7.97336 16.941C7.99313 16.9095 8.01298 16.8782 8.03251 16.847C8.08156 16.8292 8.13069 16.8113 8.17974 16.7935C8.18527 16.7481 8.36811 16.6607 8.43298 16.595C8.52587 16.5868 8.58581 16.6952 8.74697 16.5765C8.72716 16.5525 8.70746 16.5285 8.68764 16.5045C8.73031 16.4872 8.77303 16.4699 8.81599 16.4526C8.82338 16.4599 8.83045 16.4674 8.83783 16.4747C8.81611 16.4836 8.79467 16.4925 8.7729 16.5013C8.79889 16.5059 8.82448 16.5106 8.85017 16.5154C8.89782 16.4589 8.94554 16.4023 8.99348 16.3456C8.90239 16.3762 8.81127 16.4068 8.72018 16.4374C8.81125 16.3588 8.89375 16.3371 8.97018 16.264C9.06881 16.256 9.05245 16.2937 9.04402 16.3517C9.07083 16.3317 9.09803 16.3116 9.12483 16.2916C9.12888 16.3424 9.19126 16.3381 9.02122 16.432C9.03935 16.4367 9.0574 16.4407 9.07549 16.446C9.10205 16.4283 9.12549 16.4276 9.15321 16.4057C9.22875 16.3461 9.25155 16.2395 9.23173 16.2182C9.22126 16.2071 9.15414 16.2787 9.1469 16.2586C9.12935 16.2096 9.32739 16.1218 9.03262 16.2326C9.10562 16.1528 9.13786 16.1626 9.24106 16.1139C9.22482 16.1036 9.20886 16.0932 9.19291 16.0827C9.24251 16.0632 9.29216 16.0435 9.34176 16.024C9.3221 16.1365 9.6753 15.9706 9.41051 16.2121C9.50205 16.1637 9.5933 16.1156 9.68466 16.0677C9.67077 16.0861 9.65683 16.1044 9.64294 16.1228C9.60021 16.142 9.55777 16.1611 9.5151 16.1804C9.57078 16.1672 9.6265 16.1539 9.68217 16.1408C9.78412 16.0584 9.8124 16.0058 9.84438 15.9427C9.69975 15.9936 9.76167 16.0024 9.66382 16.0677C9.65511 16.0444 9.63915 16.0276 9.63516 16.0002C9.71309 16.0138 9.86604 15.8829 9.90454 15.8578C10.0217 15.7814 9.95182 15.8794 10.0333 15.8335C10.1148 15.7877 10.1955 15.7068 10.2864 15.7115C10.2713 15.6881 10.2517 15.6663 10.2343 15.6472C10.3558 15.5665 10.3471 15.6094 10.3622 15.6056C10.6054 15.5457 10.689 15.4295 10.9236 15.2858C10.8891 15.2958 10.8546 15.3067 10.82 15.3174C10.9703 15.1626 10.8583 15.2481 10.6925 15.3214C10.8417 15.242 10.9004 15.1503 10.9962 15.0777C11.092 15.0053 11.2819 14.9253 11.3566 14.9054C11.2247 15.0188 11.0544 15.0926 10.8945 15.1952C10.9273 15.2088 10.9574 15.2191 10.9922 15.2348C11.0625 15.1257 11.1403 15.1266 11.1772 15.1144C11.2854 15.0786 11.2569 15.0363 11.3427 15.0499C11.3309 15.035 11.3213 15.0223 11.3101 15.0084C11.5137 14.9 11.7457 14.8044 11.8409 14.6692C11.8754 14.7015 11.9061 14.7341 11.9428 14.7662C12.0103 14.6879 12.1002 14.6763 12.1674 14.6283C12.2343 14.5804 12.189 14.5644 12.2654 14.5041C12.2795 14.4929 12.3231 14.4942 12.3526 14.4576C12.3825 14.4208 12.4608 14.23 12.5328 14.3156C12.6046 14.2748 12.6742 14.2392 12.7452 14.2004C12.6801 14.2451 12.6148 14.2898 12.55 14.3344C12.6215 14.3239 12.6926 14.3136 12.7641 14.3032C12.7596 14.2783 12.7549 14.253 12.7503 14.2285C12.8924 14.113 13.0256 14.0811 13.1791 13.9818C13.2047 13.9652 13.1189 13.9604 13.242 13.9032C13.3652 13.8459 13.4961 13.8718 13.6788 13.7271C13.688 13.7198 13.7135 13.6274 13.8083 13.6264C13.8298 13.6262 13.7691 13.6792 13.8134 13.6697C13.8577 13.6601 14.0302 13.5737 14.0598 13.5947C14.0522 13.5857 14.0357 13.5812 14.0247 13.5738C14.0504 13.5525 14.0763 13.5311 14.1024 13.5097C14.1153 13.526 14.1285 13.5422 14.1414 13.5584C14.2812 13.4223 14.3268 13.3058 14.5824 13.1881C14.4992 13.2016 14.4159 13.215 14.3331 13.2283C14.3249 13.2573 14.3167 13.2864 14.3088 13.3152C14.1928 13.3725 14.0765 13.4301 13.9605 13.4874C13.954 13.5187 13.9479 13.5498 13.9414 13.5811C13.9102 13.5955 13.8794 13.6099 13.8481 13.6243C13.8469 13.6051 13.8458 13.5859 13.8449 13.5665C13.7883 13.604 13.7316 13.6417 13.6753 13.6792C13.7433 13.5221 14.0119 13.4949 13.9538 13.4298C13.9868 13.4261 14.0199 13.4224 14.053 13.4187C14.0439 13.3762 14.1035 13.3555 14.2014 13.3065C14.1695 13.3014 14.1355 13.2978 14.1054 13.2914C14.2117 13.2632 14.3735 13.1666 14.4742 13.1212C14.5185 13.1013 14.4917 13.1514 14.5059 13.1473C14.5789 13.1264 14.6747 13.0107 14.7022 12.9995C14.867 12.9328 15.0158 12.9615 15.1495 12.8088C14.9696 12.894 15.0665 12.846 14.9872 12.8498C14.9624 12.851 14.7286 12.9585 15.0118 12.8072C15.045 12.7895 15.5835 12.5578 15.444 12.699C15.5172 12.6374 15.5714 12.5837 15.6373 12.5251C15.8893 12.5395 15.761 12.4634 15.6721 12.432C15.7019 12.4145 15.73 12.3974 15.7609 12.3796C15.7329 12.4826 16.0693 12.2938 16.1636 12.1954C16.1953 12.1626 16.0771 12.203 16.1592 12.1425C16.2037 12.1229 16.2545 12.1014 16.3016 12.081C16.2138 12.0768 16.3304 11.9883 16.3044 11.9474C16.4063 11.9383 16.5136 11.982 16.4942 12.0505C16.5506 11.9947 16.6074 11.9388 16.6637 11.883C16.6271 11.8908 16.5902 11.899 16.5536 11.9069C16.786 11.8079 17.0306 11.5867 17.1268 11.6486C17.1552 11.6313 17.184 11.614 17.2124 11.5968C17.2127 11.5767 17.2127 11.5569 17.2131 11.5369C17.3507 11.4746 17.4881 11.4126 17.6258 11.3503C17.5152 11.4265 17.4998 11.4636 17.3683 11.5166C17.425 11.5066 17.4827 11.4963 17.5385 11.4869C17.695 11.3351 17.7025 11.2904 17.986 11.145C17.9988 11.1384 18.2294 11.0568 18.2387 11.0565C18.2812 11.0549 18.2461 11.1084 18.2657 11.1088C18.3201 11.1098 18.6006 11.0295 18.6012 11.0415C18.6067 11.1894 17.7826 11.6671 17.5629 11.8018C15.2837 13.1982 12.9738 14.424 10.6822 15.7655C10.6587 15.7794 10.6787 15.7901 10.669 15.7967C10.6089 15.837 10.5324 15.8464 10.5086 15.8587C10.4579 15.885 10.499 15.8934 10.4629 15.9143C10.0895 16.1295 9.72914 16.3187 9.358 16.5384C9.33383 16.5528 9.34754 16.5191 9.30678 16.5472C9.28581 16.5618 9.23384 16.6312 9.18432 16.6604C9.01135 16.7623 8.85984 16.8371 8.67676 16.9434C8.57663 17.0016 8.42474 17.086 8.31288 17.1511C8.26348 17.1799 8.21969 17.2232 8.17103 17.2519C8.10196 17.2926 8.10031 17.257 8.08865 17.2615C8.03748 17.2811 8.04837 17.315 8.00345 17.3399C7.91985 17.3863 7.9038 17.3688 7.79976 17.4311C7.72542 17.4757 7.56279 17.5907 7.47084 17.65C7.23606 17.7545 6.96251 17.9248 6.76047 18.0517C6.72473 18.0742 6.69721 18.088 6.67486 18.0971C6.60551 18.1275 6.57689 18.1229 6.52828 18.1449C6.2848 18.2493 6.07142 18.318 5.81017 18.2857C5.4645 18.2349 5.19771 18.0519 4.98379 17.806C4.94957 17.7653 4.93417 17.7935 4.90085 17.7515C4.77563 17.5971 4.66998 17.3559 4.64646 17.1801C4.62995 17.0714 4.64144 17.0006 4.65179 16.9282C4.66048 16.8848 4.66686 16.8397 4.66295 16.7774C4.66033 16.7363 4.62246 16.7243 4.6176 16.6555C4.60995 16.5455 4.64335 16.425 4.64708 16.3482C4.65204 16.2431 4.61346 16.3345 4.61864 16.1927C4.61886 16.1869 4.64644 16.1656 4.64512 16.1352C4.6414 16.0465 4.61968 16.0553 4.62175 15.9254C4.62203 15.913 4.64831 15.7408 4.64842 15.7237C4.64883 15.623 4.65803 15.4202 4.65245 15.3606C4.63258 15.1475 4.59109 15.3153 4.68113 15.134C4.65909 15.0542 4.63676 14.9751 4.61534 14.8905C4.63531 14.947 4.66414 14.7178 4.66227 14.7018C4.64726 14.5686 4.61223 14.6479 4.61803 14.479C4.69896 14.7021 4.62846 14.2612 4.62639 14.1628C4.61635 13.6894 4.63655 13.2591 4.63603 12.7833C4.63582 12.624 4.61871 12.4105 4.61912 12.242C4.61915 12.2027 4.6383 12.2324 4.63872 12.1978C4.639 12.1633 4.6175 12.2016 4.61864 12.1622C4.62609 11.9173 4.66666 11.7254 4.61595 11.501C4.62328 11.4901 4.62908 11.4904 4.63713 11.4723C4.5917 11.2887 4.65279 10.9351 4.66118 10.8022C4.67421 10.5943 4.6435 10.5412 4.6497 10.3901C4.65798 10.1904 4.71797 9.89054 4.61894 10.0245C4.61584 9.88745 4.61498 9.75555 4.62419 9.61718C4.62523 9.60177 4.6504 9.61239 4.65092 9.60622C4.65453 9.56718 4.632 9.55446 4.63096 9.52809C4.62818 9.45658 4.65516 9.57328 4.64763 9.47131C4.64359 9.41753 4.62393 9.38699 4.62352 9.23764C4.62134 8.33734 4.62838 7.35994 4.6317 6.43703C4.6319 6.37365 4.60756 6.41537 4.60911 6.3359C4.6145 6.05978 4.65547 5.56554 4.64988 5.32745C4.6443 5.08938 4.6087 5.14309 4.5938 4.9941C4.5909 4.96533 4.61118 4.98892 4.61149 4.96289C4.61336 4.78783 4.645 4.57913 4.64976 4.4373C4.65295 4.34352 4.62104 4.35103 4.61876 4.28596C4.61545 4.18902 4.64769 4.08923 4.64872 4.0375C4.65327 3.79432 4.6273 3.62712 4.64055 3.40002C4.63352 3.4089 4.62702 3.41477 4.6201 3.42229C4.6206 3.30541 4.62109 3.1886 4.62159 3.0718C4.62184 2.86539 4.66877 2.6546 4.76254 2.46546C4.74906 2.47839 4.73596 2.49117 4.72276 2.50487C4.93244 2.1123 4.99632 2.2262 4.84781 2.15771C4.86486 2.128 4.88373 2.09681 4.90227 2.06961C4.9519 2.13045 5.16539 1.95447 5.47012 1.84594C5.4893 1.83617 5.62122 1.71353 5.62977 1.8037C5.66333 1.77171 5.68417 1.75144 5.71563 1.72541C5.79016 1.73639 5.86309 1.75312 5.93122 1.77571C5.9671 1.76979 6.00381 1.76553 6.04044 1.76271C6.04644 1.74582 6.04268 1.72792 6.05551 1.71163C6.2292 1.70494 6.55258 1.82802 6.67163 1.9085C6.67521 1.91055 6.67864 1.91247 6.68189 1.91426C6.90359 2.03592 7.14958 2.12464 7.29494 2.26616C7.38043 2.30965 7.31481 2.23306 7.43607 2.30796C7.44152 2.33071 7.4465 2.35236 7.45229 2.37589C7.59103 2.36845 7.58903 2.42055 7.71929 2.51405C7.80736 2.57732 7.87781 2.5966 7.965 2.65111C7.98708 2.66494 7.97276 2.68237 7.98855 2.69065C8.04136 2.71849 8.2041 2.77708 8.24099 2.79742C8.5755 2.98123 8.8577 3.14812 9.16837 3.33693C9.20177 3.35717 9.16891 3.31284 9.20345 3.33386C9.25904 3.36764 9.20903 3.37773 9.24082 3.398C9.32962 3.45438 9.34811 3.42397 9.47599 3.49565C9.89705 3.7317 10.3643 4.03232 10.7998 4.28651C10.8134 4.29439 10.823 4.27586 10.838 4.28425C10.9352 4.33919 11.019 4.42011 11.1069 4.47053C11.2528 4.55427 11.3769 4.59211 11.5208 4.67528C11.802 4.83775 12.0457 4.99582 12.3346 5.16354C12.571 5.30086 12.778 5.41716 13.0375 5.56713C14.1712 6.22216 15.3614 6.83288 16.4855 7.52248C16.514 7.54006 16.493 7.54919 16.5023 7.55361C16.5905 7.59536 16.6105 7.57817 16.6144 7.64055C16.7269 7.69363 16.7803 7.67932 16.9085 7.75658C16.9769 7.79773 16.895 7.82044 17.0275 7.86086C17.1471 7.89732 17.0473 7.80132 17.3442 8.01191C17.352 8.01751 17.3744 8.07312 17.4445 8.10247C17.5148 8.13208 17.4521 8.06535 17.614 8.14957C17.9416 8.32017 18.3236 8.56563 18.702 8.78402C18.7857 8.83226 18.8647 8.8883 18.9375 8.95114C18.9813 8.96722 19.2641 9.29226 19.2945 9.37662C19.3761 9.5209 19.3958 9.47858 19.4554 9.69134C19.4938 9.85875 19.4725 10.0014 19.4546 10.1967C19.4511 10.2191 19.483 10.2639 19.4395 10.4104ZM5.12514 11.0112C5.15653 11.0393 5.27205 11.09 5.23689 11.2598C5.23358 11.2759 5.15414 11.189 5.1415 11.2828C5.13312 11.191 5.1304 11.1016 5.12502 11.0112C5.12506 11.0112 5.1251 11.0112 5.12514 11.0112ZM18.4015 10.6448C18.4878 10.5983 18.565 10.5359 18.6277 10.4604C18.5988 10.5232 18.5602 10.5836 18.5128 10.6391C18.4751 10.6438 18.4378 10.6456 18.4015 10.6448ZM6.49219 2.41553C6.4923 2.41559 6.4924 2.41565 6.49251 2.41572C6.46225 2.40247 6.43199 2.38923 6.40172 2.37599C6.32484 2.34455 6.24596 2.32568 6.16826 2.31945C6.1812 2.31116 6.19466 2.30318 6.20832 2.29556C6.27904 2.30021 6.35131 2.31496 6.42264 2.33976C6.44034 2.34643 6.45802 2.35311 6.47569 2.35977C6.48118 2.37836 6.4867 2.39695 6.49219 2.41553ZM7.46439 2.84272C7.53175 2.89667 7.50267 2.90527 7.53261 2.94729C7.53263 2.94726 7.53265 2.94722 7.53267 2.94719C7.54061 2.95821 7.58813 2.99128 7.60702 3.00315C7.60678 2.98712 7.60438 2.97004 7.6035 2.95376C7.79253 3.02442 8.07041 3.32159 7.61013 3.11094C7.62535 3.09966 7.64023 3.08828 7.65545 3.07699C7.43615 2.95599 7.21323 2.78375 7.46439 2.84272ZM5.17519 13.0248C5.23211 13.2386 5.24411 13.3071 5.20509 13.5664C5.18896 13.5298 5.17283 13.4932 5.1567 13.4565C5.17315 13.4137 5.18949 13.3712 5.20595 13.3284C5.20595 13.3283 5.20595 13.3281 5.20595 13.328C5.18867 13.3194 5.17135 13.3109 5.15407 13.3026C5.16111 13.2101 5.16815 13.1173 5.17519 13.0248ZM14.5305 6.96981C14.5252 7.09805 14.5434 7.03223 14.3832 6.96934C14.3277 6.94759 14.3675 6.99353 14.3341 6.97807C14.1536 6.89476 14.178 6.82088 14.2361 6.80865C14.3344 6.86233 14.4337 6.9168 14.5301 6.96963C14.5302 6.96969 14.5303 6.96975 14.5305 6.96981ZM18.8304 9.61725C18.8304 9.61735 18.8305 9.61745 18.8305 9.61755C18.8069 9.63241 18.7713 9.57396 18.7799 9.65497C18.7567 9.60164 18.728 9.55062 18.6941 9.5032C18.7062 9.51566 18.718 9.52876 18.7294 9.5421C18.7293 9.52404 18.7288 9.50586 18.7274 9.48744C18.6887 9.48852 18.6941 9.46196 18.6597 9.40716C18.6462 9.44299 18.6309 9.47764 18.614 9.51102C18.5813 9.45391 18.5401 9.39978 18.4915 9.35075C18.496 9.34338 18.5004 9.33597 18.5048 9.32857C18.477 9.32155 18.4493 9.3163 18.4217 9.31226C18.421 9.29986 18.4202 9.2876 18.419 9.27506C18.4189 9.27502 18.4187 9.27498 18.4186 9.27494C18.382 9.26271 18.3453 9.25044 18.3086 9.23829C18.311 9.21101 18.3889 9.24362 18.2571 9.17482C18.3093 9.17555 18.3614 9.1763 18.4138 9.17721C18.4291 9.18618 18.4443 9.19516 18.4595 9.20414C18.6234 9.30026 18.7548 9.44562 18.8304 9.61725ZM13.1721 6.22596C13.3872 6.34465 13.3183 6.32564 13.2409 6.34595C13.2181 6.30602 13.1949 6.2659 13.1721 6.22596ZM5.09542 5.84226C5.13381 5.91352 5.17183 5.98508 5.20888 6.05804C5.2303 6.2033 5.16032 6.3486 5.13289 6.23932C5.09999 6.10777 5.13681 5.97039 5.09542 5.84226ZM5.11251 9.15056C5.13031 8.97285 5.17594 9.14006 5.20253 9.18013C5.15979 9.2293 5.16356 9.29785 5.15859 9.40797C5.15582 9.30457 5.10948 9.17995 5.11239 9.15056C5.11243 9.15056 5.11247 9.15056 5.11251 9.15056ZM5.14187 2.99413C5.14579 2.93331 5.14763 2.86942 5.17596 2.82063C5.20498 2.84654 5.1506 2.94101 5.21974 2.88003C5.21212 2.91582 5.20699 2.95217 5.20444 2.98826C5.18446 2.96268 5.16436 2.9922 5.14201 2.99399C5.14196 2.99404 5.14192 2.99408 5.14187 2.99413ZM11.0895 5.07353C10.9902 4.966 10.958 4.96887 10.821 4.92455C10.8215 4.88398 10.9965 4.91658 11.0941 4.95786C11.0925 4.99634 11.0909 5.03488 11.0895 5.07353ZM14.7322 12.8443C14.7256 12.9002 14.5142 13.0291 14.401 13.079C14.4103 13.0659 14.4196 13.0527 14.4289 13.0395C14.5299 12.9745 14.6312 12.9093 14.7322 12.8443ZM5.15554 9.46036C5.15686 9.44193 5.15784 9.42446 5.15859 9.40797C5.15908 9.4263 5.15831 9.444 5.15554 9.46036ZM4.95974 16.9021C4.91721 16.8436 4.90293 17.0176 4.91959 16.8063C4.91954 16.8063 4.9195 16.8063 4.91946 16.8063C4.93043 16.6665 4.93336 16.6356 4.93667 16.5061C4.99131 16.5528 5.01084 16.8155 5.02212 16.4534C5.02217 16.4486 4.98966 16.4581 4.99411 16.4003C4.99549 16.3824 5.02217 16.3253 5.02993 16.2383C5.03242 16.2102 5.04064 15.9991 5.04116 16.2869C5.07925 16.2783 5.11779 16.2938 5.15474 16.2931C5.16548 16.4054 5.0909 16.4917 5.09273 16.6106C5.09563 16.787 5.17104 16.8768 5.0721 16.9107C5.0478 16.7623 5.04721 16.5076 5.10671 16.4744C5.10743 16.3309 5.05869 16.2896 5.03457 16.4054C5.06401 16.8817 4.97005 16.5682 4.9972 16.9282C4.9983 16.943 4.99991 16.9588 5.00219 16.9756C5.01612 16.9802 5.03195 16.9965 5.0447 16.993C5.01494 17.1018 4.98162 16.9894 4.96848 16.9282C4.96534 16.9156 4.96248 16.9059 4.95974 16.9021ZM5.06496 15.8656C5.09405 15.9512 5.12336 16.0366 5.15254 16.1219C5.10515 16.1219 5.06261 16.0748 5.03591 15.9399C5.04563 15.9152 5.05535 15.8902 5.06496 15.8656ZM9.96531 15.7041C9.9631 15.6757 9.97977 15.6388 9.98827 15.6055C10.0217 15.6113 10.5662 15.3211 10.3051 15.4964C10.2672 15.5219 10.0037 15.6214 9.96531 15.7041ZM11.9494 5.52515C11.8951 5.47387 11.8411 5.42272 11.7872 5.37161C11.889 5.41774 11.9911 5.46368 12.093 5.50964C12.0451 5.51475 11.9974 5.52004 11.9494 5.52515ZM5.05019 7.0245C5.05116 6.99383 5.0866 7.09571 5.08101 6.97484C5.10368 7.06494 5.12286 7.14932 5.14418 7.23736C5.12742 7.26374 5.11072 7.2904 5.09395 7.31677C5.10472 7.33733 5.11541 7.35829 5.12618 7.37884C5.10175 7.36651 5.0779 7.35553 5.05306 7.34252C5.10543 7.19418 5.04605 7.16016 5.05019 7.0245ZM5.06094 2.6091C5.11766 2.61066 5.06212 2.81023 5.15445 2.63062C5.16843 2.68081 5.15684 2.73926 5.13177 2.84672C5.1145 2.86056 5.09756 2.87575 5.08102 2.89127C5.1159 2.90034 5.12196 2.93198 5.14187 2.99413C5.14183 2.99418 5.14178 2.99423 5.14174 2.99428C5.13954 3.02619 5.13893 3.05107 5.13806 3.0718C5.13459 3.16828 5.11767 3.16812 5.07046 3.2045C5.0801 3.14655 5.08239 3.10498 5.08001 3.0718C5.07557 2.99693 5.0432 2.9662 5.03849 2.86883C5.034 2.77299 5.08968 2.66406 5.06094 2.6091ZM9.39661 16.0332C9.4961 15.924 9.36582 15.951 9.60588 15.8673C9.59763 15.8852 9.58927 15.9031 9.58102 15.921C9.5196 15.9585 9.45813 15.9959 9.39661 16.0332ZM5.64914 2.2828C5.60569 2.20957 5.45355 2.21989 5.51255 2.34409C5.62174 2.30844 5.53957 2.26865 5.64914 2.2828ZM4.98385 9.08995C4.98769 8.8416 5.08043 8.88856 5.12679 8.99064C5.10992 9.0064 5.09302 9.02214 5.07625 9.03756C5.08391 9.08106 5.09159 9.12458 5.09914 9.16809C5.06075 9.14205 5.02225 9.11599 4.98385 9.08995ZM9.45185 3.96354C9.25814 3.91946 9.61295 4.09424 9.47982 4.05968C9.3735 4.03211 9.28226 3.91116 9.34647 3.90545C9.37873 3.92288 9.41443 3.94266 9.45153 3.96336C9.45164 3.96342 9.45174 3.96348 9.45185 3.96354ZM8.49233 3.42894C8.48797 3.49882 8.45821 3.46054 8.59371 3.52574C8.63239 3.54437 8.91531 3.7349 8.81757 3.61848C8.71227 3.55769 8.60147 3.49267 8.49233 3.42894ZM5.07558 11.9607C5.04828 11.9629 4.98833 11.7009 5.00332 11.6673C5.00328 11.6673 5.00324 11.6673 5.0032 11.6673C5.04408 11.5765 5.04989 11.8529 5.10598 11.733C5.05662 11.9985 5.17601 12.0779 5.0187 12.0594C5.0118 11.903 5.04423 11.9771 5.07558 11.9607ZM17.6118 11.3301C17.612 11.3301 17.6121 11.33 17.6122 11.33C17.5963 11.3376 17.4507 11.3754 17.459 11.3546C17.616 11.2777 17.6022 11.3161 17.7211 11.1974C17.7358 11.2051 17.7492 11.213 17.7645 11.2204C17.7129 11.2597 17.6904 11.2921 17.6118 11.3301ZM10.5702 15.4185C10.5183 15.4567 10.4023 15.4895 10.3399 15.5275C10.4843 15.313 10.7776 15.266 10.5702 15.4185ZM16.9078 8.31963C16.9077 8.31958 16.9075 8.31952 16.9073 8.31947C16.9074 8.31944 16.9075 8.31942 16.9076 8.3194C16.9076 8.31948 16.9077 8.31955 16.9078 8.31963ZM6.24423 17.8053C6.25346 17.8103 6.25944 17.8152 6.26255 17.8202C6.2627 17.8207 6.26285 17.8212 6.26301 17.8217C6.25704 17.8163 6.25087 17.8108 6.24423 17.8053ZM5.08382 12.5052C5.04575 12.6144 4.98521 12.2508 4.99966 12.1332C5.01704 12.1414 5.03279 12.1427 5.05276 12.1618C5.00775 12.2567 5.09024 12.4871 5.08382 12.5052ZM5.06985 4.21532C5.06881 4.50274 4.91847 4.12868 5.03841 4.11327C5.04074 4.11385 5.06964 4.20789 5.06985 4.21532ZM5.06808 10.2386C5.02256 10.1654 5.01047 10.3125 5.01833 10.0772C5.03013 10.0635 5.04194 10.0498 5.05373 10.0361C5.05849 10.1036 5.06332 10.1711 5.06808 10.2386ZM4.87247 6.09821C4.89782 6.45995 4.94255 6.80593 5.06808 6.5703C5.06404 6.54292 5.06015 6.51516 5.05611 6.48778C4.99487 6.48367 5.0283 6.38264 5.0303 6.23476C5.00598 6.21368 5.00036 6.13167 4.9797 6.11628C4.93976 6.08652 4.91169 6.18076 4.87247 6.09821ZM15.3045 7.25685C15.2942 7.26299 15.284 7.26925 15.2738 7.2753C15.2183 7.25691 15.1628 7.2384 15.1074 7.22001C15.1254 7.20726 15.1434 7.19452 15.1615 7.18177C15.2091 7.20676 15.2565 7.23162 15.3042 7.25662C15.3043 7.2567 15.3044 7.25678 15.3045 7.25685ZM4.93576 15.513C5.05081 15.5459 5.02962 15.4311 4.97146 15.1981C4.95956 15.3029 4.94766 15.4082 4.93576 15.513ZM7.13877 2.48115C7.12895 2.51322 7.11908 2.54515 7.10956 2.57739C7.23368 2.60974 7.23251 2.56584 7.20282 2.49874C7.18135 2.4928 7.16024 2.48709 7.13877 2.48115ZM8.68846 3.35979C8.64744 3.32824 8.65692 3.36418 8.65254 3.36104C8.54703 3.28411 8.53724 3.26448 8.38935 3.20204C8.36898 3.19828 8.34871 3.195 8.32824 3.19142C8.35777 3.28756 8.42274 3.28197 8.53759 3.39474C8.525 3.36035 8.51254 3.32599 8.50001 3.29151C8.57257 3.33914 8.64485 3.38653 8.71741 3.43415C8.72993 3.43302 8.74244 3.43195 8.75496 3.43082C8.73293 3.40734 8.71061 3.38238 8.68846 3.35979ZM15.8626 7.61339C15.9342 7.65785 16.0061 7.70261 16.0777 7.74707C16.0889 7.73401 16.0999 7.72078 16.111 7.70771C16.0283 7.67632 15.9453 7.64478 15.8626 7.61339ZM5.03677 17.2421C5.04454 17.2467 5.05232 17.251 5.05997 17.2544C5.05274 17.2563 5.04483 17.2513 5.03677 17.2421ZM17.8507 11.2991C17.9393 11.2615 18.0547 11.186 18.1467 11.1357C18.1184 11.1032 17.8936 11.2465 17.7997 11.2711C17.7905 11.2852 17.8132 11.315 17.8507 11.2991ZM4.98757 8.74638C4.96646 8.7224 4.94545 8.69845 4.92435 8.67481C4.92662 8.61692 4.92903 8.55889 4.9313 8.50066C4.91402 8.49894 4.89659 8.49726 4.8793 8.49555C4.90176 8.75209 4.85192 8.69294 4.80277 8.81995C4.86434 8.79528 4.9259 8.77104 4.98757 8.74638ZM18.2395 8.85916C18.0732 8.77662 18.0053 8.76267 18.0699 8.85981C18.1325 8.88221 18.1954 8.90479 18.258 8.92719C18.2517 8.90446 18.2455 8.88171 18.2395 8.85916ZM7.9065 17.0409C8.03112 16.9466 8.06815 17.0056 8.18 16.8961C8.10328 16.9256 8.02651 16.955 7.95009 16.9843C7.93571 17.003 7.92088 17.0222 7.9065 17.0409ZM4.75803 13.0122C4.73383 13.0776 4.84889 13.1999 4.76395 13.3839C4.7893 13.4277 4.81352 13.4552 4.83835 13.4929C4.81134 13.5148 4.78398 13.5397 4.75718 13.5606C4.75718 13.5607 4.75718 13.5608 4.75718 13.561C4.76629 13.7278 4.80016 13.6196 4.82883 13.6234C4.84071 13.6252 4.82085 13.749 4.84671 13.7103C4.89111 13.6435 4.86558 13.3939 4.91971 13.3932C4.90202 13.4809 4.9168 13.6521 4.95291 13.6015C4.99254 13.546 4.92612 13.3846 4.95901 13.2818C4.8725 13.4291 4.89922 13.1249 4.96566 13.0903C4.91464 12.9118 4.89383 13.0759 4.89621 13.2588C4.84529 13.1471 4.8728 13.3115 4.83048 13.3386C4.80493 13.2234 4.82623 12.8282 4.75803 13.0122ZM4.85184 4.59156C4.85512 4.71493 4.82602 4.90764 4.86899 4.99209C4.89402 5.04129 4.91341 4.84811 4.95272 4.98132C4.94889 4.86113 4.93353 4.83372 4.89908 4.85426C4.89494 4.82687 4.89091 4.79914 4.88687 4.77175C4.89359 4.75908 4.90023 4.74608 4.90695 4.73341C4.89277 4.71902 4.87871 4.70456 4.86453 4.69051C4.86733 4.66142 4.87012 4.63198 4.87302 4.60288C4.86589 4.59946 4.85969 4.59363 4.85184 4.59156ZM11.7619 14.8125C11.7325 14.83 11.7033 14.8473 11.6739 14.8649C11.6814 14.8703 11.6896 14.8756 11.6977 14.8809C11.7038 14.8853 11.7099 14.8896 11.716 14.894C11.6866 14.8828 11.5251 14.9293 11.4786 14.9862C11.4552 15.0148 11.5464 15.0156 11.4236 15.0958C11.5143 15.0407 11.5964 14.986 11.6837 14.9311C11.6825 14.9476 11.6818 14.9641 11.6807 14.9807C11.6807 14.9806 11.6808 14.9806 11.6809 14.9806C11.7121 14.9662 11.7437 14.9517 11.7749 14.9372C11.7707 14.8956 11.7662 14.8542 11.7619 14.8125ZM7.08414 2.37497C6.96946 2.33995 6.92858 2.33255 6.95451 2.39795C6.9546 2.39803 6.9547 2.39811 6.95479 2.39818C7.00214 2.40318 7.04951 2.40819 7.09686 2.41318C7.0927 2.40051 7.08859 2.38782 7.08414 2.37497ZM5.7131 18.0487C6.01152 17.9583 5.41526 17.8839 5.49564 17.9598C5.49834 17.9685 5.69034 18.0288 5.7131 18.0487ZM4.93283 9.13559C4.93148 9.06742 4.93027 8.99909 4.92892 8.93058C4.90853 8.94634 4.88822 8.96247 4.86783 8.97823C4.88946 9.03064 4.9112 9.08318 4.93283 9.13559ZM17.5784 8.39048C17.539 8.31517 17.3877 8.20879 17.285 8.20668C17.3231 8.23533 17.3611 8.264 17.3992 8.29266C17.3189 8.2529 17.2393 8.21414 17.1586 8.17377C17.1227 8.22631 17.231 8.24634 17.3575 8.33959C17.3771 8.35413 17.4716 8.49964 17.5475 8.47494C17.5629 8.46974 17.4246 8.38031 17.5414 8.40675C17.4995 8.37934 17.4618 8.3583 17.4217 8.33333C17.4262 8.31854 17.4309 8.30374 17.4352 8.28877C17.483 8.32272 17.5305 8.35653 17.5784 8.39048ZM4.85678 5.30974C4.85328 5.47919 4.87863 5.50011 4.92343 5.53538C4.91836 5.45659 4.91336 5.37777 4.90829 5.29897C4.89116 5.30273 4.87402 5.30599 4.85678 5.30974ZM16.2741 7.62066C16.1974 7.56793 16.2136 7.61938 16.1778 7.60671C16.0425 7.55873 15.9722 7.48803 15.8433 7.43248C15.8548 7.43101 15.8654 7.42956 15.8766 7.4281C15.8765 7.42804 15.8764 7.42798 15.8763 7.42792C15.3199 7.07124 15.5789 7.31623 15.9277 7.50207C15.9289 7.51844 15.9298 7.53463 15.9311 7.55091C16.096 7.61877 16.2486 7.68052 16.2741 7.62066ZM4.83835 16.043C4.82987 16.0505 4.77594 15.9865 4.80118 16.1067C4.87992 16.2019 4.84084 16.0458 4.87113 16.0067C4.87868 16.0392 4.88603 16.0725 4.89359 16.1047C4.91584 15.9101 4.89711 15.8817 4.83957 15.9526C4.8357 15.9577 4.84681 16.0354 4.83835 16.043ZM4.88976 17.3887C5.00172 17.3735 4.87346 17.1311 4.8463 17.1417C4.85205 17.181 4.87808 17.2069 4.88084 17.2491C4.8847 17.2921 4.86065 17.3114 4.88976 17.3887ZM4.82791 10.2862C4.8274 10.2934 4.77864 10.3657 4.81681 10.3585C4.90716 10.2691 4.849 10.089 4.81754 10.1205C4.8191 10.1801 4.83265 10.2198 4.82779 10.2862C4.82783 10.2862 4.82787 10.2862 4.82791 10.2862ZM18.5599 8.92561C18.5586 8.9211 18.4122 8.81396 18.383 8.81808C18.3561 8.82624 18.3369 8.84049 18.3138 8.85167C18.4097 8.88432 18.5764 8.99783 18.5596 8.92543C18.5597 8.92549 18.5598 8.92555 18.5599 8.92561Z" fill="black"/>
<path d="M22.6718 8.54416C22.7428 8.63727 22.445 8.4312 22.6189 8.60936C22.5734 8.58832 22.5275 8.56724 22.4819 8.54619C22.4834 8.51825 22.4846 8.49021 22.4861 8.46227C22.5479 8.48947 22.6097 8.51668 22.6718 8.54405C22.6718 8.54409 22.6718 8.54412 22.6718 8.54416ZM22.9073 8.31947C22.8185 8.35032 22.6397 8.26903 22.7897 8.43144C22.8165 8.41869 22.8436 8.40614 22.8703 8.39339C22.9243 8.44644 22.9787 8.49971 23.0328 8.55267C23.0603 8.55779 23.0877 8.56288 23.1152 8.56809C23.123 8.62161 23.1306 8.67509 23.1384 8.72871C23.1157 8.70843 23.0927 8.68785 23.07 8.66757C22.9507 8.63849 22.8552 8.59423 22.7134 8.5198C22.7206 8.53552 22.7278 8.55118 22.7349 8.56689C22.6732 8.51151 22.6115 8.45612 22.55 8.40091C22.6192 8.4215 22.6965 8.44461 22.7606 8.46361C22.7037 8.35394 22.5262 8.29418 22.4364 8.2584C22.3142 8.20971 22.3555 8.19703 22.2653 8.1602C22.2509 8.15429 22.237 8.17488 22.2104 8.16C22.0762 8.0848 21.824 7.92404 22.0042 7.9613C22.2198 8.09433 22.43 8.16206 22.6366 8.30094C22.6131 8.21016 22.7378 8.25587 22.9073 8.31947ZM18.7731 6.17852C18.8558 6.18874 18.9845 6.27822 19.0649 6.35068C19.065 6.35074 19.0651 6.3508 19.0652 6.35086C19.0829 6.36682 19.107 6.43058 19.042 6.39103C18.9362 6.32643 18.9182 6.2376 18.8388 6.24502C18.8179 6.22302 18.7952 6.20111 18.7731 6.17852ZM18.5377 6.04728C18.4802 5.99483 18.5357 5.96772 18.6112 6.02734C18.6112 6.02731 18.6112 6.02727 18.6113 6.02724C18.6428 6.05212 18.555 6.04817 18.6989 6.08385C18.7082 6.12608 18.7184 6.1656 18.7279 6.20677C18.6974 6.18977 18.6694 6.17458 18.6375 6.15664C18.6851 6.12345 18.5953 6.09961 18.5377 6.04728ZM21.8785 7.92209C21.8445 7.95704 21.888 7.98183 21.9455 8.05288C21.8765 8.01129 21.8076 7.9696 21.739 7.92818C21.7856 7.92619 21.8318 7.92408 21.8785 7.92209ZM23.5126 8.87399C23.5127 8.87405 23.5128 8.87411 23.5129 8.87417C23.5394 8.88091 23.5661 8.88766 23.5923 8.89431C23.5975 8.9168 23.6026 8.93913 23.6078 8.96162C23.6964 8.9945 23.7855 9.02763 23.8742 9.06042C23.8386 9.09938 23.6979 9.00849 23.6001 8.9936C23.4892 8.91165 23.447 8.85273 23.4611 8.81046C23.4782 8.83156 23.4952 8.85272 23.5126 8.87399ZM11.0631 10.5144C11.0774 10.5456 11.0917 10.5764 11.106 10.6075C11.1125 10.5661 11.1175 10.525 11.125 10.4832C11.0629 10.374 11.1179 10.3637 11.114 10.2205C11.1022 9.78169 11.0058 9.89812 11.1471 9.5018C11.1403 9.82 11.2067 9.69771 11.2578 9.88955C11.2189 9.92929 11.1311 9.7392 11.1129 9.86801C11.1541 10.09 11.1925 10.3034 11.2191 10.5497C11.2258 10.5425 11.2325 10.5353 11.2393 10.5281C11.235 10.4891 11.2308 10.4504 11.2265 10.4113C11.2445 10.4534 11.2624 10.4946 11.2806 10.5374C11.2397 10.4833 11.2626 10.6213 11.2156 10.6028C11.1947 10.5946 11.1657 10.5336 11.1457 10.4976C11.1348 10.5905 11.1249 10.6857 11.1143 10.7795C11.0977 10.7309 11.081 10.6823 11.0644 10.634C11.0638 10.5943 11.0635 10.5549 11.0629 10.5152C11.063 10.5149 11.0631 10.5147 11.0631 10.5144ZM22.2921 11.8169C22.2143 11.918 22.0329 12.032 21.9082 12.0415C22.0363 11.9666 22.164 11.8918 22.2921 11.8169ZM23.4714 8.77481C23.4788 8.78864 23.4859 8.80219 23.4933 8.81602C23.4346 8.79982 23.3757 8.78337 23.3171 8.76717C23.3192 8.74083 23.3212 8.71435 23.323 8.68792C23.3723 8.71679 23.422 8.74594 23.4714 8.77481ZM20.194 6.91331C20.232 6.93361 20.2349 6.9362 20.2797 6.96599C20.2797 6.96594 20.2796 6.96589 20.2796 6.96584C20.2974 6.97758 20.4446 7.07868 20.4182 7.08469C20.3415 7.04077 20.26 6.99336 20.1817 6.94814C20.1853 6.93629 20.1908 6.9256 20.194 6.91331ZM21.0896 7.44281C21.0897 7.44291 21.0898 7.44301 21.0899 7.4431C21.1163 7.46161 21.1399 7.48177 21.1681 7.49927C21.0501 7.46458 21.0597 7.41015 20.9583 7.36858C20.8569 7.32711 20.7845 7.31838 20.7403 7.21068C20.7753 7.21858 20.8148 7.22381 20.8516 7.2307C20.9709 7.33242 21.0202 7.32998 21.1413 7.36751C21.124 7.39266 21.1069 7.41767 21.0896 7.44281ZM11.2071 8.56072C11.1719 8.53126 11.2064 8.49841 11.2069 8.495C11.2069 8.49506 11.2069 8.49512 11.207 8.49518C11.1744 8.23424 11.2265 8.52914 11.2319 8.28287C11.2407 8.31951 11.25 8.35555 11.2589 8.39185C11.242 8.44801 11.2227 8.50592 11.2071 8.56072ZM13.1689 2.83493C13.1659 2.845 13.1632 2.85533 13.1602 2.8654C13.0332 2.78934 12.9804 2.80541 12.8922 2.71211C12.9845 2.75296 13.0767 2.79387 13.169 2.83482C13.169 2.83486 13.1689 2.83489 13.1689 2.83493ZM19.5852 6.47581C19.7371 6.54092 19.8466 6.59415 19.9675 6.69983C19.9676 6.69993 19.9677 6.70002 19.9678 6.70012C19.9747 6.70632 19.9259 6.70291 19.9335 6.71351C19.9632 6.727 19.9948 6.73951 20.0251 6.75263C20.0204 6.76972 20.0155 6.7867 20.0108 6.8037C19.9332 6.75325 19.8554 6.70277 19.7775 6.65215C19.7843 6.66769 19.7915 6.68333 19.7984 6.69887C19.7276 6.66396 19.657 6.62918 19.5862 6.59427C19.624 6.5836 19.6617 6.57289 19.6993 6.56196C19.6613 6.53323 19.6232 6.50464 19.5852 6.47581ZM11.2186 2.6189C11.2399 2.60472 11.2346 2.65045 11.2607 2.62532C11.2861 2.60048 11.3075 2.53706 11.3239 2.56803C11.2997 2.6072 11.2785 2.65009 11.2616 2.6929C11.3749 2.591 11.4435 2.46523 11.4928 2.51503C11.3847 2.58913 11.3268 2.69128 11.3024 2.8119C11.248 2.79078 11.2646 2.64166 11.1789 2.70115C11.1905 2.67337 11.2041 2.64472 11.2185 2.61924C11.2185 2.61913 11.2185 2.61901 11.2186 2.6189ZM25.4395 10.4104C25.4048 10.5559 25.2578 10.8878 25.0939 11.002C25.0553 11.0354 24.8745 11.058 24.8674 11.0441C24.8432 11.0055 24.9616 10.8926 24.8091 10.9854C24.8544 10.9481 24.8952 10.9076 24.9345 10.8641C24.9047 10.8507 24.8754 10.8367 24.8468 10.8219C24.8042 10.8721 24.7565 10.9194 24.7059 10.9621C24.6972 10.9558 24.6886 10.9493 24.6801 10.9428C24.8619 10.7985 24.7309 10.853 24.7882 10.7483C24.7026 10.8109 24.6093 10.859 24.5149 10.8919C24.5658 10.8655 24.6214 10.8285 24.6621 10.7983C24.6343 10.755 24.5498 10.8337 24.527 10.8344C24.4651 10.8386 24.5617 10.7807 24.6479 10.6866C24.7365 10.5945 24.8002 10.4626 24.775 10.4269C24.729 10.4933 24.6722 10.5552 24.6097 10.6054C24.6192 10.5827 24.6278 10.5594 24.6349 10.5366C24.7899 10.4378 24.9008 10.2372 24.934 10.0077C24.932 9.98682 24.9292 9.96609 24.926 9.94589C24.9027 9.95327 24.8794 9.9599 24.8559 9.9664C24.852 9.93766 24.8467 9.90892 24.84 9.88101C24.9246 9.95774 24.925 9.83956 24.9167 9.67179C24.9729 9.74416 24.9736 9.85588 25.0225 9.84068C24.9518 9.5619 24.7811 9.23839 24.5069 9.12202C24.4893 9.11426 24.4717 9.1069 24.4542 9.10001C24.3855 9.07303 24.3528 9.13022 24.2072 9.03919C24.2159 9.03583 24.2233 9.025 24.2313 9.01864C23.9586 8.89764 23.7933 8.82398 23.5424 8.64195C23.546 8.67136 23.5492 8.70072 23.5528 8.73014C23.6154 8.75264 23.6781 8.77503 23.7404 8.79736C23.7594 8.85349 23.6938 8.83554 23.8631 8.93281C24.0018 9.01254 23.928 8.94996 23.9714 8.96168C24.0304 8.97743 24.0596 9.03024 24.1233 9.0466C24.1725 9.05936 24.1427 9.00491 24.2493 9.07588C24.1839 9.08639 24.1169 9.09757 24.051 9.10837C24.0287 9.08462 24.0066 9.06087 23.9844 9.03704C24.0173 9.04312 24.0496 9.04906 24.0825 9.05513C23.9764 9.01703 23.8761 8.98099 23.7663 8.94163C23.8289 8.90796 23.7148 8.86827 23.6555 8.84225C23.563 8.80176 23.6582 8.80871 23.5978 8.78183C23.5373 8.75505 23.4527 8.75982 23.3547 8.69178C23.4233 8.70034 23.3603 8.63611 23.3872 8.62298C23.4142 8.60987 23.5258 8.66797 23.4348 8.58411C23.2233 8.48581 23.3943 8.69373 23.2508 8.62856C23.0784 8.55031 23.1167 8.39439 23.1819 8.39377C23.2332 8.39328 23.3622 8.47385 23.4138 8.47363C23.2014 8.29685 23.1531 8.37582 23.1037 8.36821C22.9242 8.34069 23.1106 8.24515 22.9052 8.20007C22.9249 8.17346 22.9424 8.14936 22.9614 8.12391C22.9285 8.11182 22.9046 8.10725 22.866 8.09048C22.9407 8.2076 22.8547 8.1548 22.8098 8.12901C22.7391 8.08842 22.8326 8.17847 22.8098 8.17467C22.7486 8.16426 22.6737 8.10971 22.7085 8.16243C22.6932 8.13837 22.676 8.11321 22.6599 8.0889C22.5692 8.05546 22.3067 8.06245 22.5051 8.14496C22.4624 8.17922 22.4149 8.12352 22.3722 8.0899C22.3296 8.0563 22.3142 8.08494 22.2762 8.05611C22.1254 7.94129 22.2597 7.95466 22.3073 7.93183C22.0772 7.83364 22.2779 7.97241 21.9579 7.81085C21.9102 7.82429 22.0344 7.93978 21.9049 7.88867C21.9138 7.82258 21.8481 7.73352 21.6872 7.61695C21.6635 7.61964 21.6398 7.62246 21.6161 7.62515C21.5511 7.5219 21.6285 7.49821 21.4202 7.45948C21.578 7.40061 21.4726 7.43571 21.3442 7.30051C21.3181 7.27312 21.4042 7.29174 21.3671 7.25456C21.3503 7.23773 21.2918 7.22745 21.2511 7.18578C21.2312 7.16536 21.1453 7.05792 21.0566 7.03416C21.0815 7.1212 20.9087 7.08326 21.0079 7.20063C20.7829 7.05591 20.6058 6.98857 20.908 7.06397C20.8588 7.01357 20.8095 6.9632 20.7602 6.91288C20.7118 6.90224 20.663 6.89129 20.6143 6.88039C20.634 6.83201 20.6475 6.82306 20.4816 6.73782C20.5577 6.76765 20.6336 6.79714 20.71 6.82706C20.7176 6.81938 20.7328 6.81563 20.7356 6.80549C20.6396 6.773 20.3929 6.64047 20.3273 6.61848C20.2617 6.59648 20.3732 6.66524 20.3496 6.66704C20.1537 6.68103 20.2055 6.61716 20.0949 6.57516C20.03 6.55058 20.1656 6.64288 20.1315 6.62868C20.005 6.57583 19.9797 6.49364 19.8757 6.43274C19.8962 6.4829 19.9161 6.53334 19.9355 6.58326C19.8269 6.51854 19.705 6.44782 19.5979 6.3983C19.5559 6.37884 19.5737 6.41766 19.5664 6.41533C19.5298 6.40399 19.3914 6.33959 19.3774 6.33163C19.2723 6.2712 19.2864 6.23984 19.1853 6.17933C19.2268 6.19994 19.2658 6.21942 19.3063 6.2396C19.3519 6.20184 19.3978 6.16429 19.4433 6.12644C19.3454 6.06524 19.2474 6.00407 19.1491 5.94269C19.2131 6.00104 19.2774 6.05946 19.3415 6.1178C19.2045 6.09049 19.0676 6.06327 18.9306 6.03605C18.8847 5.97778 18.8391 5.91966 18.7932 5.86139C18.6277 5.77419 18.6044 5.88979 18.5765 5.76065C18.5246 5.74026 18.4727 5.71985 18.4209 5.69936C18.4347 5.6912 18.4485 5.68298 18.4623 5.67482C18.4004 5.64903 18.3386 5.62321 18.2767 5.59751C18.3125 5.67528 18.3458 5.75461 18.3817 5.83079C18.2631 5.7747 18.2819 5.73711 18.2702 5.71829C18.2393 5.6684 18.1317 5.64946 18.1089 5.60668C18.1013 5.5921 18.2261 5.63226 18.2037 5.58258C18.1994 5.57292 18.1093 5.3857 18.001 5.35437C17.9921 5.37377 17.9865 5.40053 17.9788 5.42275C17.8448 5.36028 17.8352 5.22683 17.8676 5.20971C17.7888 5.1893 17.6886 5.13354 17.6577 5.15489C17.6225 5.13557 17.5877 5.11636 17.5526 5.09703C17.6301 5.04632 17.4777 4.97583 17.4327 5.03192C17.4914 5.06787 17.5502 5.10394 17.609 5.13989C17.5203 5.18932 17.6752 5.3395 17.3385 5.0519C17.2891 4.97102 17.4636 5.13123 17.4218 5.06792C17.3296 4.99189 17.2256 4.9509 17.1444 4.86756C17.0434 4.76372 17.2108 4.81662 16.9045 4.69772C17.462 5.16477 16.7769 4.72216 16.4661 4.58773C16.4481 4.43393 16.2217 4.25781 15.8644 4.09419C15.8824 4.14451 15.9979 4.19063 16.0537 4.23594C16.1094 4.28125 16.0327 4.26065 16.1011 4.3188C16.1696 4.37695 16.3211 4.48979 16.3864 4.55566C16.311 4.53472 15.964 4.3878 16.2059 4.46331C16.0632 4.34136 16.0057 4.26754 15.8108 4.1476C15.7245 4.16004 15.7121 4.19165 15.5182 4.0815C15.6699 4.08256 15.4765 3.91077 15.5635 3.87163C15.6914 3.96631 15.5773 3.98727 15.6385 4.06418C15.6448 4.07198 15.7818 4.12932 15.8108 4.1476C15.7158 4.01474 15.6839 3.96725 15.8033 3.94334C15.7087 3.89685 15.6571 3.8554 15.6296 3.88385C15.619 3.85847 15.6082 3.83301 15.5978 3.80779C15.568 3.79104 15.5405 3.77697 15.5093 3.75856C15.5236 3.83371 15.4575 3.7544 15.3848 3.74271C15.312 3.73105 15.3691 3.81683 15.2051 3.72282C15.2529 3.76608 15.297 3.80497 15.3434 3.84657C15.2303 3.7985 15.1169 3.75033 15.0038 3.70226C15.0603 3.77573 15.1947 3.91405 15.1671 3.95184C15.1272 3.90853 14.9451 3.83908 14.9263 3.82965C14.8533 3.79301 14.9064 3.7898 14.9015 3.78609C14.7977 3.70968 14.7013 3.66559 14.6814 3.60274C14.588 3.572 14.5309 3.52579 14.4419 3.47574C14.393 3.44819 14.3861 3.48195 14.3607 3.46014C14.1921 3.31501 14.3936 3.38255 13.9883 3.24137C14.0211 3.28661 14.053 3.33195 14.0858 3.37737C14.0402 3.361 13.9949 3.34481 13.9494 3.32844C13.9239 3.30892 13.8986 3.28952 13.8731 3.27001C13.8983 3.2276 13.9238 3.18518 13.9491 3.14277C13.9201 3.12297 13.8911 3.10316 13.8622 3.08336C13.9165 3.10913 13.971 3.13497 14.0253 3.16073C14.0344 3.15595 14.0432 3.15098 14.0523 3.14619C13.9819 3.09001 13.9118 3.03387 13.8414 2.9776C13.8314 2.99161 13.8213 3.00574 13.8112 3.01975C13.6493 2.89868 13.6524 2.8837 13.4635 2.82925C13.3365 2.75532 13.197 2.75766 13.1083 2.74135C13.0867 2.71778 13.0651 2.69408 13.0433 2.67033C13.0192 2.67294 12.995 2.67539 12.971 2.67799C12.9474 2.64143 12.9233 2.6046 12.8997 2.56813C12.8584 2.5964 12.8417 2.60301 12.9646 2.69224C12.8918 2.71495 12.6739 2.56056 12.5895 2.49012C12.5255 2.43668 12.6279 2.44172 12.6218 2.43166C12.6018 2.39777 12.4762 2.34454 12.4532 2.32755C12.4476 2.32343 12.4421 2.31943 12.4366 2.31551C12.3576 2.25814 12.2898 2.23306 12.2041 2.20173C12.1868 2.19494 12.1393 2.15631 12.1344 2.15499C12.1001 2.14338 12.0103 2.12466 11.9997 2.12526C11.4745 2.18263 12.0309 2.18012 11.6012 2.31879C11.621 2.32747 11.6393 2.33714 11.6578 2.34714C11.6294 2.36178 11.6015 2.3782 11.5751 2.39602C11.5336 2.40644 11.5592 2.35645 11.5045 2.4215C11.4961 2.40161 11.4881 2.3815 11.4807 2.36112C11.4564 2.39283 11.4355 2.42468 11.4158 2.45879C11.3173 2.43943 11.1671 2.62959 11.1049 2.5786C11.0779 2.55926 11.1642 2.38079 11.0796 2.44865C11.0273 2.51766 11.0884 2.48719 11.0716 2.51746C10.9665 2.73937 10.9421 2.71896 10.9252 2.82117C10.9418 2.84176 10.9593 2.86219 10.9772 2.88129C10.9646 2.91643 10.9539 2.95215 10.945 2.98951C10.9582 2.99938 10.9717 3.00885 10.9852 3.01789C10.9878 2.98442 10.9926 2.94653 10.9982 2.91616C11.0162 2.9361 11.0236 3.00456 11.0337 3.0718C11.049 3.18153 11.0472 3.29307 11.0189 3.20176C11.0002 3.14113 11.0082 3.03008 10.9442 3.10026C10.9535 3.20474 10.9629 3.32328 10.9721 3.43324C10.9583 3.43667 10.9445 3.43986 10.9308 3.44328C10.9397 3.59148 10.9947 3.4567 11.0242 3.45697C11.025 3.49087 11.0257 3.52512 11.0266 3.55902C11.0132 3.57339 10.9993 3.58705 10.9864 3.60211C11.0076 3.60349 11.0569 3.62247 11.0386 3.72351C11.0267 3.78847 10.9731 3.68617 10.9806 3.81004C11.0137 3.80078 11.054 3.75603 11.0647 3.89402C11.0301 3.90772 10.9984 3.92667 10.9621 3.93728C10.9953 4.10888 10.942 4.18696 10.9806 4.38838C11.005 4.51616 11.0917 4.69119 10.9581 4.77376C10.9546 4.86722 10.9878 4.83756 10.9953 4.86522C11.0307 4.99574 10.9674 5.09282 10.9636 5.11715C10.9398 5.27227 10.9617 5.34182 10.9318 5.4682C10.9565 5.46135 10.9799 5.45762 11.0041 5.45214C10.967 5.33635 10.9687 5.27771 10.9767 5.11532C10.9817 5.16978 10.9868 5.22425 10.9917 5.27871C11.0118 5.2698 11.0319 5.26098 11.0518 5.25242C10.9728 4.7502 11.0977 4.86736 11.125 5.28838C11.0879 5.32469 11.0508 5.36232 11.0136 5.39828C11.0699 5.64151 11.021 5.75596 11.0093 6.03103C11.008 6.06373 11.0294 6.18284 11.0304 6.23403C11.0306 6.23318 11.0307 6.23233 11.0308 6.23147C11.0659 6.26332 11.0821 6.22019 11.1134 6.21504C11.1174 6.24279 11.1213 6.27055 11.1252 6.29829C11.1013 6.36025 11.0817 6.33847 11.0874 6.4604C11.1112 6.44396 11.135 6.42773 11.1588 6.41129C11.1596 6.5449 11.1337 6.63233 11.1449 6.75669C11.1359 6.73579 11.1269 6.71515 11.1179 6.69426C11.0949 6.96489 10.955 6.74952 11.0246 6.95403C11.0124 6.96705 11.0001 6.97972 10.9879 6.99274C10.9849 6.90848 10.982 6.82418 10.979 6.74026C10.9617 6.73855 10.9445 6.7367 10.9272 6.73533C10.9324 6.82543 10.9377 6.91597 10.9429 7.00606C10.9313 6.94029 10.9197 6.87413 10.9081 6.80835C10.8998 6.91283 10.8915 7.01733 10.8833 7.1218C10.9468 7.01086 10.9546 7.15469 11.0175 7.12765C10.9651 7.31264 10.8961 7.45795 10.9403 7.74469C10.9491 7.80153 10.993 7.77065 10.9395 7.93199C11.0095 7.89294 11.0423 8.09506 11.1088 8.06909C11.1056 8.01293 11.1036 7.95468 11.0997 7.90023C11.0766 7.96223 11.0131 7.97251 10.9943 7.87832C10.9703 7.75808 11.0143 7.5827 10.9438 7.58988C10.9471 7.54194 10.9491 7.49734 10.9519 7.45077C10.9694 7.46994 10.9869 7.48872 11.0044 7.50755C10.977 7.37503 10.9859 7.29176 11.03 7.22805C11.0401 7.38595 11.0502 7.54352 11.0602 7.70142C11.0632 7.67816 11.0662 7.65458 11.0691 7.63132C11.1141 7.75088 11.1568 7.62755 11.1664 7.85057C11.1458 7.8492 11.1252 7.84811 11.1045 7.84674C11.1596 7.92793 11.1593 8.15023 11.2226 8.07931C11.2032 8.14645 11.1908 8.16014 11.225 8.19816C11.1769 8.37527 11.116 8.48902 11.0434 8.42599C11.0551 8.49175 11.0668 8.55755 11.0785 8.62297C11.0983 8.58495 11.1181 8.54689 11.138 8.50887C11.1367 8.62329 11.1355 8.73855 11.1344 8.85263C11.0756 8.86359 11.1165 8.63239 11.064 8.6991C11.0534 8.71244 11.076 8.77402 11.0701 8.79019C11.0058 8.96078 11.0523 8.69298 11.003 8.74327C10.9878 8.99747 10.9053 8.79405 10.9746 9.14417C10.9577 9.15342 10.9404 9.16336 10.9235 9.17192C10.9225 9.29346 10.9608 9.2836 10.968 9.38807C10.9725 9.45349 10.9052 9.5356 10.9511 9.60787C10.9595 9.62075 11.0418 9.4992 11.0382 9.75464C11.0354 9.95289 10.9772 9.87038 10.9566 9.97754C10.936 10.0848 11.0166 10.3301 10.9253 10.4024C10.9374 10.3462 10.9439 10.2746 10.9538 10.2123C10.936 10.187 10.9184 10.1623 10.9007 10.1373C10.9237 10.2798 10.8966 10.4271 10.9391 10.523C10.8742 10.7132 10.9344 10.9258 11.0077 10.8682C10.9971 10.8057 10.9651 10.8737 10.9855 10.7868C11.0026 10.7779 11.0196 10.7685 11.0366 10.7596C11.0346 10.9076 11.0351 11.0104 10.983 10.9429C10.9818 10.9659 10.9805 10.9886 10.9793 11.0115C11.0169 11.0157 11.0548 11.0193 11.0924 11.0234C11.0967 11.0508 11.1009 11.0783 11.1051 11.1057C11.0968 11.1362 11.0885 11.1668 11.0801 11.1976C11.0205 11.1561 11.0185 11.0855 10.9852 11.3192C11.0058 11.3198 11.0263 11.3208 11.0469 11.3215C11.0207 11.5171 10.9708 11.5223 10.9727 11.7679C10.9012 11.5795 11.0279 11.4764 10.8845 11.4771C10.8939 11.4298 10.9035 11.3821 10.9129 11.3349C10.8921 11.3277 10.8712 11.3205 10.8504 11.3137C10.8614 11.5675 10.9982 11.9892 10.9075 12.1591C10.9186 12.1796 10.9282 12.2003 10.9401 12.2212C10.8853 12.3877 11.0083 12.4596 10.9375 12.6285C10.93 12.6459 10.8146 12.6094 10.8187 12.8293C10.8337 12.8238 10.859 12.8209 10.8779 12.8165C10.8687 12.8641 10.8591 12.9114 10.8496 12.9587C10.8635 12.9673 10.8774 12.9762 10.8913 12.9848C10.8967 12.9036 10.9022 12.8226 10.9076 12.7415C10.9123 12.8089 10.9171 12.8768 10.9218 12.9443C10.9445 12.8563 10.9447 12.8166 10.981 12.8696C10.9832 12.946 10.9855 13.0225 10.9877 13.0989C10.997 13.1068 11.0064 13.1146 11.0157 13.1225C11.0434 13.0855 11.0706 13.0481 11.0987 13.0111C11.0761 13.2101 11.0748 13.3832 11.0203 13.5359C11.0111 13.562 10.9749 13.4699 11.0075 13.6473C10.9884 13.65 10.9729 13.6548 10.9552 13.6579C11.0088 13.8751 10.9928 13.9464 10.9541 14.1729C10.9902 14.0263 10.9667 14.1571 10.986 14.1944C10.9994 14.22 10.9974 14.1201 11.0114 14.1314C11.0252 14.1427 11.0812 14.2725 11.088 14.1616C10.9732 13.8896 11.1104 13.8155 11.0553 13.466C11.0701 13.5198 11.0849 13.574 11.0997 13.6278C11.1097 13.6024 11.1188 13.5798 11.1295 13.5524C11.107 13.7473 11.1216 13.6525 11.1393 13.7326C11.157 13.8127 11.172 13.9584 11.1769 14.056C11.1784 14.0868 11.1527 14.0544 11.1503 14.1238C11.1486 14.171 11.1868 14.3002 11.1418 14.3301C11.1125 14.3496 11.0319 14.142 11.0321 14.429C11.0034 14.483 11.0123 14.3454 11.0088 14.3425C10.9747 14.3175 10.949 14.4939 10.9751 14.5754C10.9773 14.582 11.0039 14.5176 11.0144 14.5877C11.0393 14.7538 11.0088 14.8498 10.9675 14.9573C11.0159 14.969 11.0738 15.1088 11.0559 15.2828C11.0697 15.2917 11.0837 15.3002 11.0977 15.3091C11.0903 15.2821 11.0831 15.2551 11.0758 15.2281C11.0845 15.1986 11.0908 15.1674 11.101 15.1386C11.1129 15.3136 11.1797 15.3384 11.2041 15.4223C11.2875 15.7095 11.1111 15.5354 11.0806 15.4836C11.093 15.4463 11.1067 15.4102 11.1196 15.3732C11.1028 15.3773 11.0858 15.3815 11.0688 15.3852C11.0693 15.8152 10.9593 15.4507 10.9279 15.6689C11.0109 15.7251 11.0189 15.8854 10.9663 16.0895C10.9667 16.1122 10.9668 16.1348 10.9673 16.1575C10.9794 16.1612 10.9979 16.1612 11.0059 16.1673C11.02 16.4133 10.8921 16.4571 10.88 16.4804C10.8263 16.5838 10.9006 16.6644 10.9013 16.6949C10.9034 16.802 10.8809 16.8458 10.8815 16.9282C10.8816 16.9467 10.8831 16.9668 10.8866 16.9891C10.9139 17.133 10.9307 17.031 10.9577 17.071C10.9786 17.1027 11.0041 17.2067 11.0368 17.2421C11.017 17.2305 10.997 17.2156 10.9777 17.2023C10.9957 17.3462 11.0298 17.4707 11.1305 17.6094C11.3273 17.682 11.3438 17.9069 11.3833 17.7502C11.27 17.6504 11.2305 17.5703 11.2172 17.4872C11.2752 17.5593 11.3433 17.6225 11.4184 17.6744C11.4292 17.7039 11.4353 17.7286 11.4535 17.761C11.5306 17.7732 11.6705 17.8526 11.7364 17.8574C12.0385 17.8663 11.9287 17.798 12.2039 17.8652C12.0174 17.9065 12.0122 17.9569 11.8125 17.9219C11.8483 17.9664 11.9579 17.9686 11.8836 18.004C12.0931 18.0074 12.025 17.9603 12.0984 17.9238C12.1606 17.891 12.2814 17.8569 12.263 17.8218C12.2809 17.8381 12.2968 17.8541 12.3158 17.8694C12.3784 17.8479 12.4383 17.8204 12.4959 17.7871C12.5468 17.7577 12.5976 17.7283 12.6484 17.6988C12.613 17.7443 12.5776 17.7898 12.542 17.8351C12.5811 17.822 12.6202 17.8088 12.6593 17.7957C12.8926 17.5833 13.4147 17.4242 13.2567 17.3203C13.3827 17.2414 13.4094 17.2504 13.4954 17.2377C13.4967 17.2221 13.4989 17.2085 13.4994 17.1917C13.5892 17.1554 13.6289 17.0769 13.7084 17.0454C13.7879 17.0139 13.8288 17.0428 13.8013 16.9704C13.8597 16.962 13.916 16.9505 13.9734 16.941C13.9931 16.9095 14.013 16.8782 14.0325 16.847C14.0816 16.8292 14.1307 16.8113 14.1797 16.7935C14.1853 16.7481 14.3681 16.6607 14.433 16.595C14.5259 16.5868 14.5858 16.6952 14.747 16.5765C14.7272 16.5525 14.7075 16.5285 14.6876 16.5045C14.7303 16.4872 14.773 16.4699 14.816 16.4526C14.8234 16.4599 14.8304 16.4674 14.8378 16.4747C14.8161 16.4836 14.7947 16.4925 14.7729 16.5013C14.7989 16.5059 14.8245 16.5106 14.8502 16.5154C14.8978 16.4589 14.9455 16.4023 14.9935 16.3456C14.9024 16.3762 14.8113 16.4068 14.7202 16.4374C14.8113 16.3588 14.8937 16.3371 14.9702 16.264C15.0688 16.256 15.0524 16.2937 15.044 16.3517C15.0708 16.3317 15.098 16.3116 15.1248 16.2916C15.1289 16.3424 15.1913 16.3381 15.0212 16.432C15.0393 16.4367 15.0574 16.4407 15.0755 16.446C15.102 16.4283 15.1255 16.4276 15.1532 16.4057C15.2288 16.3461 15.2515 16.2395 15.2317 16.2182C15.2213 16.2071 15.1541 16.2787 15.1469 16.2586C15.1293 16.2096 15.3274 16.1218 15.0326 16.2326C15.1056 16.1528 15.1379 16.1626 15.2411 16.1139C15.2248 16.1036 15.2089 16.0932 15.1929 16.0827C15.2425 16.0632 15.2922 16.0435 15.3418 16.024C15.3221 16.1365 15.6753 15.9706 15.4105 16.2121C15.5021 16.1637 15.5933 16.1156 15.6847 16.0677C15.6708 16.0861 15.6568 16.1044 15.6429 16.1228C15.6002 16.142 15.5578 16.1611 15.5151 16.1804C15.5708 16.1672 15.6265 16.1539 15.6822 16.1408C15.7841 16.0584 15.8124 16.0058 15.8444 15.9427C15.6997 15.9936 15.7617 16.0024 15.6638 16.0677C15.6551 16.0444 15.6391 16.0276 15.6352 16.0002C15.7131 16.0138 15.866 15.8829 15.9045 15.8578C16.0217 15.7814 15.9518 15.8794 16.0333 15.8335C16.1148 15.7877 16.1955 15.7068 16.2864 15.7115C16.2713 15.6881 16.2517 15.6663 16.2343 15.6472C16.3558 15.5665 16.3471 15.6094 16.3622 15.6056C16.6054 15.5457 16.689 15.4295 16.9236 15.2858C16.8891 15.2958 16.8546 15.3067 16.82 15.3174C16.9703 15.1626 16.8583 15.2481 16.6925 15.3214C16.8417 15.242 16.9004 15.1503 16.9962 15.0777C17.092 15.0053 17.2819 14.9253 17.3566 14.9054C17.2247 15.0188 17.0544 15.0926 16.8945 15.1952C16.9273 15.2088 16.9574 15.2191 16.9922 15.2348C17.0625 15.1257 17.1403 15.1266 17.1772 15.1144C17.2854 15.0786 17.2569 15.0363 17.3427 15.0499C17.3309 15.035 17.3213 15.0223 17.3101 15.0084C17.5137 14.9 17.7457 14.8044 17.8409 14.6692C17.8754 14.7015 17.9061 14.7341 17.9428 14.7662C18.0103 14.6879 18.1002 14.6763 18.1674 14.6283C18.2343 14.5804 18.189 14.5644 18.2654 14.5041C18.2795 14.4929 18.3231 14.4942 18.3526 14.4576C18.3825 14.4208 18.4608 14.23 18.5328 14.3156C18.6046 14.2748 18.6742 14.2392 18.7452 14.2004C18.6801 14.2451 18.6148 14.2898 18.55 14.3344C18.6215 14.3239 18.6926 14.3136 18.7641 14.3032C18.7596 14.2783 18.7549 14.253 18.7503 14.2285C18.8924 14.113 19.0256 14.0811 19.1791 13.9818C19.2047 13.9652 19.1189 13.9604 19.242 13.9032C19.3652 13.8459 19.4961 13.8718 19.6788 13.7271C19.688 13.7198 19.7135 13.6274 19.8083 13.6264C19.8298 13.6262 19.7691 13.6792 19.8134 13.6697C19.8577 13.6601 20.0302 13.5737 20.0598 13.5947C20.0522 13.5857 20.0357 13.5812 20.0247 13.5738C20.0504 13.5525 20.0763 13.5311 20.1024 13.5097C20.1153 13.526 20.1285 13.5422 20.1414 13.5584C20.2812 13.4223 20.3268 13.3058 20.5824 13.1881C20.4992 13.2016 20.4159 13.215 20.3331 13.2283C20.3249 13.2573 20.3167 13.2864 20.3088 13.3152C20.1928 13.3725 20.0765 13.4301 19.9605 13.4874C19.954 13.5187 19.9479 13.5498 19.9414 13.5811C19.9102 13.5955 19.8794 13.6099 19.8481 13.6243C19.8469 13.6051 19.8458 13.5859 19.8449 13.5665C19.7883 13.604 19.7316 13.6417 19.6753 13.6792C19.7433 13.5221 20.0119 13.4949 19.9538 13.4298C19.9868 13.4261 20.0199 13.4224 20.053 13.4187C20.0439 13.3762 20.1035 13.3555 20.2014 13.3065C20.1695 13.3014 20.1355 13.2978 20.1054 13.2914C20.2117 13.2632 20.3735 13.1666 20.4742 13.1212C20.5185 13.1013 20.4917 13.1514 20.5059 13.1473C20.5789 13.1264 20.6747 13.0107 20.7022 12.9995C20.867 12.9328 21.0158 12.9615 21.1495 12.8088C20.9696 12.894 21.0665 12.846 20.9872 12.8498C20.9624 12.851 20.7286 12.9585 21.0118 12.8072C21.045 12.7895 21.5835 12.5578 21.444 12.699C21.5172 12.6374 21.5714 12.5837 21.6373 12.5251C21.8893 12.5395 21.761 12.4634 21.6721 12.432C21.7019 12.4145 21.73 12.3974 21.7609 12.3796C21.7329 12.4826 22.0693 12.2938 22.1636 12.1954C22.1953 12.1626 22.0771 12.203 22.1592 12.1425C22.2037 12.1229 22.2545 12.1014 22.3016 12.081C22.2138 12.0768 22.3304 11.9883 22.3044 11.9474C22.4063 11.9383 22.5136 11.982 22.4942 12.0505C22.5506 11.9947 22.6074 11.9388 22.6637 11.883C22.6271 11.8908 22.5902 11.899 22.5536 11.9069C22.786 11.8079 23.0306 11.5867 23.1268 11.6486C23.1552 11.6313 23.184 11.614 23.2124 11.5968C23.2127 11.5767 23.2127 11.5569 23.2131 11.5369C23.3507 11.4746 23.4881 11.4126 23.6258 11.3503C23.5152 11.4265 23.4998 11.4636 23.3683 11.5166C23.425 11.5066 23.4827 11.4963 23.5385 11.4869C23.695 11.3351 23.7025 11.2904 23.986 11.145C23.9988 11.1384 24.2294 11.0568 24.2387 11.0565C24.2812 11.0549 24.2461 11.1084 24.2657 11.1088C24.3201 11.1098 24.6006 11.0295 24.6012 11.0415C24.6067 11.1894 23.7826 11.6671 23.5629 11.8018C21.2837 13.1982 18.9738 14.424 16.6822 15.7655C16.6587 15.7794 16.6787 15.7901 16.669 15.7967C16.6089 15.837 16.5324 15.8464 16.5086 15.8587C16.4579 15.885 16.499 15.8934 16.4629 15.9143C16.0895 16.1295 15.7291 16.3187 15.358 16.5384C15.3338 16.5528 15.3475 16.5191 15.3068 16.5472C15.2858 16.5618 15.2338 16.6312 15.1843 16.6604C15.0113 16.7623 14.8598 16.8371 14.6768 16.9434C14.5766 17.0016 14.4247 17.086 14.3129 17.1511C14.2635 17.1799 14.2197 17.2232 14.171 17.2519C14.102 17.2926 14.1003 17.257 14.0887 17.2615C14.0375 17.2811 14.0484 17.315 14.0035 17.3399C13.9198 17.3863 13.9038 17.3688 13.7998 17.4311C13.7254 17.4757 13.5628 17.5907 13.4708 17.65C13.2361 17.7545 12.9625 17.9248 12.7605 18.0517C12.7247 18.0742 12.6972 18.088 12.6749 18.0971C12.6055 18.1275 12.5769 18.1229 12.5283 18.1449C12.2848 18.2493 12.0714 18.318 11.8102 18.2857C11.4645 18.2349 11.1977 18.0519 10.9838 17.806C10.9496 17.7653 10.9342 17.7935 10.9008 17.7515C10.7756 17.5971 10.67 17.3559 10.6465 17.1801C10.6299 17.0714 10.6414 17.0006 10.6518 16.9282C10.6605 16.8848 10.6669 16.8397 10.6629 16.7774C10.6603 16.7363 10.6225 16.7243 10.6176 16.6555C10.61 16.5455 10.6433 16.425 10.6471 16.3482C10.652 16.2431 10.6135 16.3345 10.6186 16.1927C10.6189 16.1869 10.6464 16.1656 10.6451 16.1352C10.6414 16.0465 10.6197 16.0553 10.6217 15.9254C10.622 15.913 10.6483 15.7408 10.6484 15.7237C10.6488 15.623 10.658 15.4202 10.6524 15.3606C10.6326 15.1475 10.5911 15.3153 10.6811 15.134C10.6591 15.0542 10.6368 14.9751 10.6153 14.8905C10.6353 14.947 10.6641 14.7178 10.6623 14.7018C10.6473 14.5686 10.6122 14.6479 10.618 14.479C10.699 14.7021 10.6285 14.2612 10.6264 14.1628C10.6164 13.6894 10.6365 13.2591 10.636 12.7833C10.6358 12.624 10.6187 12.4105 10.6191 12.242C10.6191 12.2027 10.6383 12.2324 10.6387 12.1978C10.639 12.1633 10.6175 12.2016 10.6186 12.1622C10.6261 11.9173 10.6667 11.7254 10.616 11.501C10.6233 11.4901 10.6291 11.4904 10.6371 11.4723C10.5917 11.2887 10.6528 10.9351 10.6612 10.8022C10.6742 10.5943 10.6435 10.5412 10.6497 10.3901C10.658 10.1904 10.718 9.89054 10.6189 10.0245C10.6158 9.88745 10.615 9.75555 10.6242 9.61718C10.6252 9.60177 10.6504 9.61239 10.6509 9.60622C10.6545 9.56718 10.632 9.55446 10.631 9.52809C10.6282 9.45658 10.6552 9.57328 10.6476 9.47131C10.6436 9.41753 10.6239 9.38699 10.6235 9.23764C10.6213 8.33734 10.6284 7.35994 10.6317 6.43703C10.6319 6.37365 10.6076 6.41537 10.6091 6.3359C10.6145 6.05978 10.6555 5.56554 10.6499 5.32745C10.6443 5.08938 10.6087 5.14309 10.5938 4.9941C10.5909 4.96533 10.6112 4.98892 10.6115 4.96289C10.6134 4.78783 10.645 4.57913 10.6498 4.4373C10.653 4.34352 10.621 4.35103 10.6188 4.28596C10.6154 4.18902 10.6477 4.08923 10.6487 4.0375C10.6533 3.79432 10.6273 3.62712 10.6405 3.40002C10.6335 3.4089 10.627 3.41477 10.6201 3.42229C10.6206 3.30541 10.6211 3.1886 10.6216 3.0718C10.6218 2.86539 10.6688 2.6546 10.7625 2.46546C10.7491 2.47839 10.736 2.49117 10.7228 2.50487C10.9324 2.1123 10.9963 2.2262 10.8478 2.15771C10.8649 2.128 10.8837 2.09681 10.9023 2.06961C10.9519 2.13045 11.1654 1.95447 11.4701 1.84594C11.4893 1.83617 11.6212 1.71353 11.6298 1.8037C11.6633 1.77171 11.6842 1.75144 11.7156 1.72541C11.7902 1.73639 11.8631 1.75312 11.9312 1.77571C11.9671 1.76979 12.0038 1.76553 12.0404 1.76271C12.0464 1.74582 12.0427 1.72792 12.0555 1.71163C12.2292 1.70494 12.5526 1.82802 12.6716 1.9085C12.6752 1.91055 12.6786 1.91247 12.6819 1.91426C12.9036 2.03592 13.1496 2.12464 13.2949 2.26616C13.3804 2.30965 13.3148 2.23306 13.4361 2.30796C13.4415 2.33071 13.4465 2.35236 13.4523 2.37589C13.591 2.36845 13.589 2.42055 13.7193 2.51405C13.8074 2.57732 13.8778 2.5966 13.965 2.65111C13.9871 2.66494 13.9728 2.68237 13.9885 2.69065C14.0414 2.71849 14.2041 2.77708 14.241 2.79742C14.5755 2.98123 14.8577 3.14812 15.1684 3.33693C15.2018 3.35717 15.1689 3.31284 15.2034 3.33386C15.259 3.36764 15.209 3.37773 15.2408 3.398C15.3296 3.45438 15.3481 3.42397 15.476 3.49565C15.897 3.7317 16.3643 4.03232 16.7998 4.28651C16.8134 4.29439 16.823 4.27586 16.838 4.28425C16.9352 4.33919 17.019 4.42011 17.1069 4.47053C17.2528 4.55427 17.3769 4.59211 17.5208 4.67528C17.802 4.83775 18.0457 4.99582 18.3346 5.16354C18.571 5.30086 18.778 5.41716 19.0375 5.56713C20.1712 6.22216 21.3614 6.83288 22.4855 7.52248C22.514 7.54006 22.493 7.54919 22.5023 7.55361C22.5905 7.59536 22.6105 7.57817 22.6144 7.64055C22.7269 7.69363 22.7803 7.67932 22.9085 7.75658C22.9769 7.79773 22.895 7.82044 23.0275 7.86086C23.1471 7.89732 23.0473 7.80132 23.3442 8.01191C23.352 8.01751 23.3744 8.07312 23.4445 8.10247C23.5148 8.13208 23.4521 8.06535 23.614 8.14957C23.9416 8.32017 24.3236 8.56563 24.702 8.78402C24.7857 8.83226 24.8647 8.8883 24.9375 8.95114C24.9813 8.96722 25.2641 9.29226 25.2945 9.37662C25.3761 9.5209 25.3958 9.47858 25.4554 9.69134C25.4938 9.85875 25.4725 10.0014 25.4546 10.1967C25.4511 10.2191 25.483 10.2639 25.4395 10.4104ZM11.1251 11.0112C11.1565 11.0393 11.272 11.09 11.2369 11.2598C11.2336 11.2759 11.1541 11.189 11.1415 11.2828C11.1331 11.191 11.1304 11.1016 11.125 11.0112C11.1251 11.0112 11.1251 11.0112 11.1251 11.0112ZM24.4015 10.6448C24.4878 10.5983 24.565 10.5359 24.6277 10.4604C24.5988 10.5232 24.5602 10.5836 24.5128 10.6391C24.4751 10.6438 24.4378 10.6456 24.4015 10.6448ZM12.4922 2.41553C12.4923 2.41559 12.4924 2.41565 12.4925 2.41572C12.4623 2.40247 12.432 2.38923 12.4017 2.37599C12.3248 2.34455 12.246 2.32568 12.1683 2.31945C12.1812 2.31116 12.1947 2.30318 12.2083 2.29556C12.279 2.30021 12.3513 2.31496 12.4226 2.33976C12.4403 2.34643 12.458 2.35311 12.4757 2.35977C12.4812 2.37836 12.4867 2.39695 12.4922 2.41553ZM13.4644 2.84272C13.5317 2.89667 13.5027 2.90527 13.5326 2.94729C13.5326 2.94726 13.5326 2.94722 13.5327 2.94719C13.5406 2.95821 13.5881 2.99128 13.607 3.00315C13.6068 2.98712 13.6044 2.97004 13.6035 2.95376C13.7925 3.02442 14.0704 3.32159 13.6101 3.11094C13.6254 3.09966 13.6402 3.08828 13.6555 3.07699C13.4361 2.95599 13.2132 2.78375 13.4644 2.84272ZM11.1752 13.0248C11.2321 13.2386 11.2441 13.3071 11.2051 13.5664C11.189 13.5298 11.1728 13.4932 11.1567 13.4565C11.1731 13.4137 11.1895 13.3712 11.2059 13.3284C11.2059 13.3283 11.2059 13.3281 11.2059 13.328C11.1887 13.3194 11.1714 13.3109 11.1541 13.3026C11.1611 13.2101 11.1682 13.1173 11.1752 13.0248ZM20.5305 6.96981C20.5252 7.09805 20.5434 7.03223 20.3832 6.96934C20.3277 6.94759 20.3675 6.99353 20.3341 6.97807C20.1536 6.89476 20.178 6.82088 20.2361 6.80865C20.3344 6.86233 20.4337 6.9168 20.5301 6.96963C20.5302 6.96969 20.5303 6.96975 20.5305 6.96981ZM24.8304 9.61725C24.8304 9.61735 24.8305 9.61745 24.8305 9.61755C24.8069 9.63241 24.7713 9.57396 24.7799 9.65497C24.7567 9.60164 24.728 9.55062 24.6941 9.5032C24.7062 9.51566 24.718 9.52876 24.7294 9.5421C24.7293 9.52404 24.7288 9.50586 24.7274 9.48744C24.6887 9.48852 24.6941 9.46196 24.6597 9.40716C24.6462 9.44299 24.6309 9.47764 24.614 9.51102C24.5813 9.45391 24.5401 9.39978 24.4915 9.35075C24.496 9.34338 24.5004 9.33597 24.5048 9.32857C24.477 9.32155 24.4493 9.3163 24.4217 9.31226C24.421 9.29986 24.4202 9.2876 24.419 9.27506C24.4189 9.27502 24.4187 9.27498 24.4186 9.27494C24.382 9.26271 24.3453 9.25044 24.3086 9.23829C24.311 9.21101 24.3889 9.24362 24.2571 9.17482C24.3093 9.17555 24.3614 9.1763 24.4138 9.17721C24.4291 9.18618 24.4443 9.19516 24.4595 9.20414C24.6234 9.30026 24.7548 9.44562 24.8304 9.61725ZM19.1721 6.22596C19.3872 6.34465 19.3183 6.32564 19.2409 6.34595C19.2181 6.30602 19.1949 6.2659 19.1721 6.22596ZM11.0954 5.84226C11.1338 5.91352 11.1718 5.98508 11.2089 6.05804C11.2303 6.2033 11.1603 6.3486 11.1329 6.23932C11.1 6.10777 11.1368 5.97039 11.0954 5.84226ZM11.1125 9.15056C11.1303 8.97285 11.1759 9.14006 11.2025 9.18013C11.1598 9.2293 11.1636 9.29785 11.1586 9.40797C11.1558 9.30457 11.1095 9.17995 11.1124 9.15056C11.1124 9.15056 11.1125 9.15056 11.1125 9.15056ZM11.1419 2.99413C11.1458 2.93331 11.1476 2.86942 11.176 2.82063C11.205 2.84654 11.1506 2.94101 11.2197 2.88003C11.2121 2.91582 11.207 2.95217 11.2044 2.98826C11.1845 2.96268 11.1644 2.9922 11.142 2.99399C11.142 2.99404 11.1419 2.99408 11.1419 2.99413ZM17.0895 5.07353C16.9902 4.966 16.958 4.96887 16.821 4.92455C16.8215 4.88398 16.9965 4.91658 17.0941 4.95786C17.0925 4.99634 17.0909 5.03488 17.0895 5.07353ZM20.7322 12.8443C20.7256 12.9002 20.5142 13.0291 20.401 13.079C20.4103 13.0659 20.4196 13.0527 20.4289 13.0395C20.5299 12.9745 20.6312 12.9093 20.7322 12.8443ZM11.1555 9.46036C11.1569 9.44193 11.1578 9.42446 11.1586 9.40797C11.1591 9.4263 11.1583 9.444 11.1555 9.46036ZM10.9597 16.9021C10.9172 16.8436 10.9029 17.0176 10.9196 16.8063C10.9195 16.8063 10.9195 16.8063 10.9195 16.8063C10.9304 16.6665 10.9334 16.6356 10.9367 16.5061C10.9913 16.5528 11.0108 16.8155 11.0221 16.4534C11.0222 16.4486 10.9897 16.4581 10.9941 16.4003C10.9955 16.3824 11.0222 16.3253 11.0299 16.2383C11.0324 16.2102 11.0406 15.9991 11.0412 16.2869C11.0792 16.2783 11.1178 16.2938 11.1547 16.2931C11.1655 16.4054 11.0909 16.4917 11.0927 16.6106C11.0956 16.787 11.171 16.8768 11.0721 16.9107C11.0478 16.7623 11.0472 16.5076 11.1067 16.4744C11.1074 16.3309 11.0587 16.2896 11.0346 16.4054C11.064 16.8817 10.97 16.5682 10.9972 16.9282C10.9983 16.943 10.9999 16.9588 11.0022 16.9756C11.0161 16.9802 11.0319 16.9965 11.0447 16.993C11.0149 17.1018 10.9816 16.9894 10.9685 16.9282C10.9653 16.9156 10.9625 16.9059 10.9597 16.9021ZM11.065 15.8656C11.094 15.9512 11.1234 16.0366 11.1525 16.1219C11.1051 16.1219 11.0626 16.0748 11.0359 15.9399C11.0456 15.9152 11.0553 15.8902 11.065 15.8656ZM15.9653 15.7041C15.9631 15.6757 15.9798 15.6388 15.9883 15.6055C16.0217 15.6113 16.5662 15.3211 16.3051 15.4964C16.2672 15.5219 16.0037 15.6214 15.9653 15.7041ZM17.9494 5.52515C17.8951 5.47387 17.8411 5.42272 17.7872 5.37161C17.889 5.41774 17.9911 5.46368 18.093 5.50964C18.0451 5.51475 17.9974 5.52004 17.9494 5.52515ZM11.0502 7.0245C11.0512 6.99383 11.0866 7.09571 11.081 6.97484C11.1037 7.06494 11.1229 7.14932 11.1442 7.23736C11.1274 7.26374 11.1107 7.2904 11.094 7.31677C11.1047 7.33733 11.1154 7.35829 11.1262 7.37884C11.1018 7.36651 11.0779 7.35553 11.0531 7.34252C11.1054 7.19418 11.0461 7.16016 11.0502 7.0245ZM11.0609 2.6091C11.1177 2.61066 11.0621 2.81023 11.1545 2.63062C11.1684 2.68081 11.1568 2.73926 11.1318 2.84672C11.1145 2.86056 11.0976 2.87575 11.081 2.89127C11.1159 2.90034 11.122 2.93198 11.1419 2.99413C11.1418 2.99418 11.1418 2.99423 11.1417 2.99428C11.1395 3.02619 11.1389 3.05107 11.1381 3.0718C11.1346 3.16828 11.1177 3.16812 11.0705 3.2045C11.0801 3.14655 11.0824 3.10498 11.08 3.0718C11.0756 2.99693 11.0432 2.9662 11.0385 2.86883C11.034 2.77299 11.0897 2.66406 11.0609 2.6091ZM15.3966 16.0332C15.4961 15.924 15.3658 15.951 15.6059 15.8673C15.5976 15.8852 15.5893 15.9031 15.581 15.921C15.5196 15.9585 15.4581 15.9959 15.3966 16.0332ZM11.6491 2.2828C11.6057 2.20957 11.4536 2.21989 11.5126 2.34409C11.6217 2.30844 11.5396 2.26865 11.6491 2.2828ZM10.9839 9.08995C10.9877 8.8416 11.0804 8.88856 11.1268 8.99064C11.1099 9.0064 11.093 9.02214 11.0763 9.03756C11.0839 9.08106 11.0916 9.12458 11.0991 9.16809C11.0607 9.14205 11.0222 9.11599 10.9839 9.08995ZM15.4518 3.96354C15.2581 3.91946 15.613 4.09424 15.4798 4.05968C15.3735 4.03211 15.2823 3.91116 15.3465 3.90545C15.3787 3.92288 15.4144 3.94266 15.4515 3.96336C15.4516 3.96342 15.4517 3.96348 15.4518 3.96354ZM14.4923 3.42894C14.488 3.49882 14.4582 3.46054 14.5937 3.52574C14.6324 3.54437 14.9153 3.7349 14.8176 3.61848C14.7123 3.55769 14.6015 3.49267 14.4923 3.42894ZM11.0756 11.9607C11.0483 11.9629 10.9883 11.7009 11.0033 11.6673C11.0033 11.6673 11.0032 11.6673 11.0032 11.6673C11.0441 11.5765 11.0499 11.8529 11.106 11.733C11.0566 11.9985 11.176 12.0779 11.0187 12.0594C11.0118 11.903 11.0442 11.9771 11.0756 11.9607ZM23.6118 11.3301C23.612 11.3301 23.6121 11.33 23.6122 11.33C23.5963 11.3376 23.4507 11.3754 23.459 11.3546C23.616 11.2777 23.6022 11.3161 23.7211 11.1974C23.7358 11.2051 23.7492 11.213 23.7645 11.2204C23.7129 11.2597 23.6904 11.2921 23.6118 11.3301ZM16.5702 15.4185C16.5183 15.4567 16.4023 15.4895 16.3399 15.5275C16.4843 15.313 16.7776 15.266 16.5702 15.4185ZM22.9078 8.31963C22.9077 8.31958 22.9075 8.31952 22.9073 8.31947C22.9074 8.31944 22.9075 8.31942 22.9076 8.3194C22.9076 8.31948 22.9077 8.31955 22.9078 8.31963ZM12.2442 17.8053C12.2535 17.8103 12.2594 17.8152 12.2625 17.8202C12.2627 17.8207 12.2629 17.8212 12.263 17.8217C12.257 17.8163 12.2509 17.8108 12.2442 17.8053ZM11.0838 12.5052C11.0457 12.6144 10.9852 12.2508 10.9997 12.1332C11.017 12.1414 11.0328 12.1427 11.0528 12.1618C11.0078 12.2567 11.0902 12.4871 11.0838 12.5052ZM11.0698 4.21532C11.0688 4.50274 10.9185 4.12868 11.0384 4.11327C11.0407 4.11385 11.0696 4.20789 11.0698 4.21532ZM11.0681 10.2386C11.0226 10.1654 11.0105 10.3125 11.0183 10.0772C11.0301 10.0635 11.0419 10.0498 11.0537 10.0361C11.0585 10.1036 11.0633 10.1711 11.0681 10.2386ZM10.8725 6.09821C10.8978 6.45995 10.9426 6.80593 11.0681 6.5703C11.064 6.54292 11.0601 6.51516 11.0561 6.48778C10.9949 6.48367 11.0283 6.38264 11.0303 6.23476C11.006 6.21368 11.0004 6.13167 10.9797 6.11628C10.9398 6.08652 10.9117 6.18076 10.8725 6.09821ZM21.3045 7.25685C21.2942 7.26299 21.284 7.26925 21.2738 7.2753C21.2183 7.25691 21.1628 7.2384 21.1074 7.22001C21.1254 7.20726 21.1434 7.19452 21.1615 7.18177C21.2091 7.20676 21.2565 7.23162 21.3042 7.25662C21.3043 7.2567 21.3044 7.25678 21.3045 7.25685ZM10.9358 15.513C11.0508 15.5459 11.0296 15.4311 10.9715 15.1981C10.9596 15.3029 10.9477 15.4082 10.9358 15.513ZM13.1388 2.48115C13.129 2.51322 13.1191 2.54515 13.1096 2.57739C13.2337 2.60974 13.2325 2.56584 13.2028 2.49874C13.1814 2.4928 13.1602 2.48709 13.1388 2.48115ZM14.6885 3.35979C14.6474 3.32824 14.6569 3.36418 14.6525 3.36104C14.547 3.28411 14.5372 3.26448 14.3894 3.20204C14.369 3.19828 14.3487 3.195 14.3282 3.19142C14.3578 3.28756 14.4227 3.28197 14.5376 3.39474C14.525 3.36035 14.5125 3.32599 14.5 3.29151C14.5726 3.33914 14.6448 3.38653 14.7174 3.43415C14.7299 3.43302 14.7424 3.43195 14.755 3.43082C14.7329 3.40734 14.7106 3.38238 14.6885 3.35979ZM21.8626 7.61339C21.9342 7.65785 22.0061 7.70261 22.0777 7.74707C22.0889 7.73401 22.0999 7.72078 22.111 7.70771C22.0283 7.67632 21.9453 7.64478 21.8626 7.61339ZM11.0368 17.2421C11.0445 17.2467 11.0523 17.251 11.06 17.2544C11.0527 17.2563 11.0448 17.2513 11.0368 17.2421ZM23.8507 11.2991C23.9393 11.2615 24.0547 11.186 24.1467 11.1357C24.1184 11.1032 23.8936 11.2465 23.7997 11.2711C23.7905 11.2852 23.8132 11.315 23.8507 11.2991ZM10.9876 8.74638C10.9665 8.7224 10.9455 8.69845 10.9243 8.67481C10.9266 8.61692 10.929 8.55889 10.9313 8.50066C10.914 8.49894 10.8966 8.49726 10.8793 8.49555C10.9018 8.75209 10.8519 8.69294 10.8028 8.81995C10.8643 8.79528 10.9259 8.77104 10.9876 8.74638ZM24.2395 8.85916C24.0732 8.77662 24.0053 8.76267 24.0699 8.85981C24.1325 8.88221 24.1954 8.90479 24.258 8.92719C24.2517 8.90446 24.2455 8.88171 24.2395 8.85916ZM13.9065 17.0409C14.0311 16.9466 14.0681 17.0056 14.18 16.8961C14.1033 16.9256 14.0265 16.955 13.9501 16.9843C13.9357 17.003 13.9209 17.0222 13.9065 17.0409ZM10.758 13.0122C10.7338 13.0776 10.8489 13.1999 10.764 13.3839C10.7893 13.4277 10.8135 13.4552 10.8384 13.4929C10.8113 13.5148 10.784 13.5397 10.7572 13.5606C10.7572 13.5607 10.7572 13.5608 10.7572 13.561C10.7663 13.7278 10.8002 13.6196 10.8288 13.6234C10.8407 13.6252 10.8208 13.749 10.8467 13.7103C10.8911 13.6435 10.8656 13.3939 10.9197 13.3932C10.902 13.4809 10.9168 13.6521 10.9529 13.6015C10.9925 13.546 10.9261 13.3846 10.959 13.2818C10.8725 13.4291 10.8992 13.1249 10.9657 13.0903C10.9146 12.9118 10.8938 13.0759 10.8962 13.2588C10.8453 13.1471 10.8728 13.3115 10.8305 13.3386C10.8049 13.2234 10.8262 12.8282 10.758 13.0122ZM10.8518 4.59156C10.8551 4.71493 10.826 4.90764 10.869 4.99209C10.894 5.04129 10.9134 4.84811 10.9527 4.98132C10.9489 4.86113 10.9335 4.83372 10.8991 4.85426C10.8949 4.82687 10.8909 4.79914 10.8869 4.77175C10.8936 4.75908 10.9002 4.74608 10.907 4.73341C10.8928 4.71902 10.8787 4.70456 10.8645 4.69051C10.8673 4.66142 10.8701 4.63198 10.873 4.60288C10.8659 4.59946 10.8597 4.59363 10.8518 4.59156ZM17.7619 14.8125C17.7325 14.83 17.7033 14.8473 17.6739 14.8649C17.6814 14.8703 17.6896 14.8756 17.6977 14.8809C17.7038 14.8853 17.7099 14.8896 17.716 14.894C17.6866 14.8828 17.5251 14.9293 17.4786 14.9862C17.4552 15.0148 17.5464 15.0156 17.4236 15.0958C17.5143 15.0407 17.5964 14.986 17.6837 14.9311C17.6825 14.9476 17.6818 14.9641 17.6807 14.9807C17.6807 14.9806 17.6808 14.9806 17.6809 14.9806C17.7121 14.9662 17.7437 14.9517 17.7749 14.9372C17.7707 14.8956 17.7662 14.8542 17.7619 14.8125ZM13.0841 2.37497C12.9695 2.33995 12.9286 2.33255 12.9545 2.39795C12.9546 2.39803 12.9547 2.39811 12.9548 2.39818C13.0021 2.40318 13.0495 2.40819 13.0969 2.41318C13.0927 2.40051 13.0886 2.38782 13.0841 2.37497ZM11.7131 18.0487C12.0115 17.9583 11.4153 17.8839 11.4956 17.9598C11.4983 17.9685 11.6903 18.0288 11.7131 18.0487ZM10.9328 9.13559C10.9315 9.06742 10.9303 8.99909 10.9289 8.93058C10.9085 8.94634 10.8882 8.96247 10.8678 8.97823C10.8895 9.03064 10.9112 9.08318 10.9328 9.13559ZM23.5784 8.39048C23.539 8.31517 23.3877 8.20879 23.285 8.20668C23.3231 8.23533 23.3611 8.264 23.3992 8.29266C23.3189 8.2529 23.2393 8.21414 23.1586 8.17377C23.1227 8.22631 23.231 8.24634 23.3575 8.33959C23.3771 8.35413 23.4716 8.49964 23.5475 8.47494C23.5629 8.46974 23.4246 8.38031 23.5414 8.40675C23.4995 8.37934 23.4618 8.3583 23.4217 8.33333C23.4262 8.31854 23.4309 8.30374 23.4352 8.28877C23.483 8.32272 23.5305 8.35653 23.5784 8.39048ZM10.8568 5.30974C10.8533 5.47919 10.8786 5.50011 10.9234 5.53538C10.9184 5.45659 10.9134 5.37777 10.9083 5.29897C10.8912 5.30273 10.874 5.30599 10.8568 5.30974ZM22.2741 7.62066C22.1974 7.56793 22.2136 7.61938 22.1778 7.60671C22.0425 7.55873 21.9722 7.48803 21.8433 7.43248C21.8548 7.43101 21.8654 7.42956 21.8766 7.4281C21.8765 7.42804 21.8764 7.42798 21.8763 7.42792C21.3199 7.07124 21.5789 7.31623 21.9277 7.50207C21.9289 7.51844 21.9298 7.53463 21.9311 7.55091C22.096 7.61877 22.2486 7.68052 22.2741 7.62066ZM10.8384 16.043C10.8299 16.0505 10.7759 15.9865 10.8012 16.1067C10.8799 16.2019 10.8408 16.0458 10.8711 16.0067C10.8787 16.0392 10.886 16.0725 10.8936 16.1047C10.9158 15.9101 10.8971 15.8817 10.8396 15.9526C10.8357 15.9577 10.8468 16.0354 10.8384 16.043ZM10.8898 17.3887C11.0017 17.3735 10.8735 17.1311 10.8463 17.1417C10.852 17.181 10.8781 17.2069 10.8808 17.2491C10.8847 17.2921 10.8606 17.3114 10.8898 17.3887ZM10.8279 10.2862C10.8274 10.2934 10.7786 10.3657 10.8168 10.3585C10.9072 10.2691 10.849 10.089 10.8175 10.1205C10.8191 10.1801 10.8327 10.2198 10.8278 10.2862C10.8278 10.2862 10.8279 10.2862 10.8279 10.2862ZM24.5599 8.92561C24.5586 8.9211 24.4122 8.81396 24.383 8.81808C24.3561 8.82624 24.3369 8.84049 24.3138 8.85167C24.4097 8.88432 24.5764 8.99783 24.5596 8.92543C24.5597 8.92549 24.5598 8.92555 24.5599 8.92561Z" fill="black"/>
</svg>
