<svg width="26" height="20" viewBox="0 0 26 20" fill="none" xmlns="http://www.w3.org/2000/svg">
<path d="M9.32824 11.4558C9.25716 11.3627 9.55496 11.5688 9.38107 11.3906C9.42662 11.4117 9.47252 11.4328 9.51808 11.4538C9.51659 11.4818 9.51539 11.5098 9.5139 11.5377C9.4521 11.5105 9.39027 11.4833 9.32818 11.4559C9.3282 11.4559 9.32822 11.4559 9.32824 11.4558ZM9.0927 11.6805C9.18154 11.6497 9.36026 11.731 9.21026 11.5686C9.18352 11.5813 9.15643 11.5939 9.12969 11.6066C9.07567 11.5536 9.02127 11.5003 8.96721 11.4473C8.93973 11.4422 8.91227 11.4371 8.88484 11.4319C8.87698 11.3784 8.86944 11.3249 8.86163 11.2713C8.88434 11.2916 8.90734 11.3121 8.93005 11.3324C9.04932 11.3615 9.14482 11.4058 9.28657 11.4802C9.27942 11.4645 9.2722 11.4488 9.26506 11.4331C9.32683 11.4885 9.38854 11.5439 9.45001 11.5991C9.38083 11.5785 9.30353 11.5554 9.23937 11.5364C9.29628 11.6461 9.47384 11.7058 9.56357 11.7416C9.68577 11.7903 9.64448 11.803 9.73474 11.8398C9.74913 11.8457 9.76304 11.8251 9.78965 11.84C9.92384 11.9152 10.176 12.076 9.99576 12.0387C9.78024 11.9057 9.57003 11.8379 9.36342 11.6991C9.38687 11.7898 9.26217 11.7441 9.0927 11.6805ZM13.2269 13.8215C13.1442 13.8113 13.0155 13.7218 12.9351 13.6493C12.935 13.6493 12.9349 13.6492 12.9348 13.6491C12.9171 13.6332 12.893 13.5694 12.958 13.609C13.0638 13.6736 13.0818 13.7624 13.1612 13.755C13.1821 13.777 13.2048 13.7989 13.2269 13.8215ZM13.4623 13.9527C13.5198 14.0052 13.4643 14.0323 13.3888 13.9727C13.3888 13.9727 13.3888 13.9727 13.3887 13.9728C13.3572 13.9479 13.445 13.9518 13.3011 13.9162C13.2918 13.8739 13.2816 13.8344 13.2721 13.7932C13.3026 13.8102 13.3306 13.8254 13.3625 13.8434C13.3149 13.8765 13.4047 13.9004 13.4623 13.9527ZM10.1215 12.0779C10.1555 12.043 10.112 12.0182 10.0545 11.9471C10.1235 11.9887 10.1924 12.0304 10.261 12.0718C10.2144 12.0738 10.1682 12.0759 10.1215 12.0779ZM8.48744 11.126C8.48734 11.126 8.48723 11.1259 8.48713 11.1258C8.46056 11.1191 8.43391 11.1123 8.40769 11.1057C8.40247 11.0832 8.39738 11.0609 8.39217 11.0384C8.30355 11.0055 8.21451 10.9724 8.12584 10.9396C8.16141 10.9006 8.30207 10.9915 8.39988 11.0064C8.51078 11.0883 8.55301 11.1473 8.53888 11.1895C8.5218 11.1684 8.50482 11.1473 8.48744 11.126ZM20.9369 9.48556C20.9226 9.45439 20.9083 9.42362 20.894 9.39245C20.8875 9.43389 20.8825 9.475 20.875 9.51677C20.9371 9.62605 20.8821 9.63631 20.886 9.77947C20.8978 10.2183 20.9942 10.1019 20.8529 10.4982C20.8597 10.18 20.7933 10.3023 20.7422 10.1104C20.7811 10.0707 20.8689 10.2608 20.8871 10.132C20.8459 9.91003 20.8075 9.6966 20.7809 9.45032C20.7742 9.45752 20.7675 9.46467 20.7607 9.47187C20.765 9.51092 20.7692 9.54965 20.7735 9.5887C20.7555 9.54656 20.7376 9.50538 20.7194 9.46256C20.7603 9.51668 20.7374 9.37874 20.7844 9.3972C20.8053 9.40542 20.8343 9.46638 20.8543 9.50235C20.8652 9.40953 20.8751 9.31433 20.8857 9.22049C20.9023 9.26911 20.919 9.3177 20.9356 9.36598C20.9362 9.4057 20.9365 9.44511 20.9371 9.48483C20.937 9.48507 20.9369 9.48531 20.9369 9.48556ZM9.70792 8.18309C9.78566 8.08204 9.96709 7.96799 10.0918 7.95851C9.96372 8.0334 9.83597 8.1082 9.70792 8.18309ZM8.52862 11.2252C8.5212 11.2114 8.5141 11.1978 8.50667 11.184C8.56535 11.2002 8.62427 11.2166 8.68295 11.2328C8.68079 11.2592 8.67885 11.2857 8.67703 11.3121C8.62766 11.2832 8.578 11.2541 8.52862 11.2252ZM11.806 13.0867C11.768 13.0664 11.7651 13.0638 11.7203 13.034C11.7203 13.0341 11.7204 13.0341 11.7204 13.0342C11.7026 13.0224 11.5554 12.9213 11.5818 12.9153C11.6585 12.9592 11.74 13.0066 11.8183 13.0519C11.8147 13.0637 11.8092 13.0744 11.806 13.0867ZM10.9104 12.5572C10.9103 12.5571 10.9102 12.557 10.9101 12.5569C10.8837 12.5384 10.8601 12.5182 10.8319 12.5007C10.9499 12.5354 10.9403 12.5899 11.0417 12.6314C11.1431 12.6729 11.2155 12.6816 11.2597 12.7893C11.2247 12.7814 11.1852 12.7762 11.1484 12.7693C11.0291 12.6676 10.9798 12.67 10.8587 12.6325C10.876 12.6073 10.8931 12.5823 10.9104 12.5572ZM20.7929 11.4393C20.8281 11.4687 20.7936 11.5016 20.7931 11.505C20.7931 11.5049 20.7931 11.5049 20.793 11.5048C20.8256 11.7658 20.7735 11.4709 20.7681 11.7171C20.7593 11.6805 20.75 11.6444 20.7411 11.6081C20.758 11.552 20.7773 11.4941 20.7929 11.4393ZM18.8311 17.1651C18.8341 17.155 18.8368 17.1447 18.8398 17.1346C18.9668 17.2107 19.0196 17.1946 19.1078 17.2879C19.0155 17.247 18.9233 17.2061 18.831 17.1652C18.831 17.1651 18.8311 17.1651 18.8311 17.1651ZM12.4148 13.5242C12.2629 13.4591 12.1534 13.4058 12.0325 13.3002C12.0324 13.3001 12.0323 13.3 12.0322 13.2999C12.0253 13.2937 12.0741 13.2971 12.0665 13.2865C12.0368 13.273 12.0052 13.2605 11.9749 13.2474C11.9796 13.2303 11.9845 13.2133 11.9892 13.1963C12.0668 13.2468 12.1446 13.2972 12.2225 13.3479C12.2157 13.3323 12.2085 13.3167 12.2016 13.3011C12.2724 13.336 12.343 13.3708 12.4138 13.4057C12.376 13.4164 12.3383 13.4271 12.3007 13.438C12.3387 13.4668 12.3768 13.4954 12.4148 13.5242ZM20.7814 17.3811C20.7601 17.3953 20.7654 17.3495 20.7393 17.3747C20.7139 17.3995 20.6925 17.4629 20.6761 17.432C20.7003 17.3928 20.7215 17.3499 20.7384 17.3071C20.6251 17.409 20.5565 17.5348 20.5072 17.485C20.6153 17.4109 20.6732 17.3087 20.6976 17.1881C20.752 17.2092 20.7354 17.3583 20.8211 17.2988C20.8095 17.3266 20.7959 17.3553 20.7815 17.3808C20.7815 17.3809 20.7815 17.381 20.7814 17.3811ZM6.56051 9.58963C6.59516 9.44414 6.74215 9.11221 6.9061 8.99803C6.94469 8.96462 7.12552 8.94201 7.13261 8.95595C7.15682 8.99445 7.03843 9.1074 7.19092 9.01461C7.1456 9.05194 7.10484 9.09242 7.06548 9.1359C7.0953 9.14928 7.1246 9.16329 7.15321 9.17815C7.19576 9.12794 7.24347 9.08058 7.29413 9.03785C7.30279 9.04422 7.3114 9.05067 7.31995 9.05715C7.13806 9.20149 7.26906 9.14697 7.21184 9.25167C7.29739 9.1891 7.39067 9.14101 7.48506 9.1081C7.43425 9.1345 7.3786 9.17147 7.33791 9.20173C7.36574 9.24502 7.45025 9.16628 7.47305 9.16556C7.53492 9.16144 7.43825 9.21934 7.35214 9.3134C7.26354 9.40552 7.19976 9.53737 7.22505 9.57314C7.27099 9.50669 7.32784 9.44483 7.39033 9.39458C7.38084 9.41732 7.37216 9.44062 7.36514 9.46341C7.21012 9.56218 7.09923 9.76275 7.06603 9.99235C7.06803 10.0132 7.07079 10.0339 7.07401 10.0541C7.09732 10.0467 7.12064 10.0401 7.14409 10.0336C7.14799 10.0623 7.15331 10.0911 7.16 10.119C7.07537 10.0423 7.07503 10.1604 7.08329 10.3282C7.02706 10.2558 7.02643 10.1441 6.97746 10.1593C7.04819 10.4381 7.21891 10.7616 7.4931 10.878C7.51068 10.8857 7.52825 10.8931 7.54582 10.9C7.61448 10.927 7.64724 10.8698 7.79275 10.9608C7.78408 10.9642 7.77668 10.975 7.76866 10.9814C8.04137 11.1024 8.20669 11.176 8.45761 11.3581C8.45403 11.3286 8.45076 11.2993 8.44718 11.2699C8.38462 11.2474 8.32186 11.225 8.25959 11.2026C8.2406 11.1465 8.30622 11.1645 8.13691 11.0672C7.9982 10.9875 8.07204 11.05 8.02857 11.0383C7.96964 11.0226 7.94043 10.9698 7.87671 10.9534C7.82751 10.9406 7.85727 10.9951 7.75069 10.9241C7.8161 10.9136 7.88309 10.9024 7.94905 10.8916C7.97134 10.9154 7.99335 10.9391 8.01559 10.963C7.9827 10.9569 7.95036 10.9509 7.91747 10.9449C8.02363 10.983 8.12392 11.019 8.2337 11.0584C8.17114 11.092 8.28519 11.1317 8.34454 11.1577C8.43701 11.1982 8.34177 11.1913 8.4022 11.2182C8.46268 11.245 8.54735 11.2402 8.64532 11.3082C8.5767 11.2997 8.63969 11.3639 8.61277 11.377C8.58582 11.3901 8.47418 11.332 8.56524 11.4159C8.77668 11.5142 8.6057 11.3063 8.74921 11.3714C8.92159 11.4497 8.88333 11.6056 8.81813 11.6062C8.76682 11.6067 8.63775 11.5261 8.58619 11.5264C8.79861 11.7031 8.84693 11.6242 8.89634 11.6318C9.07585 11.6593 8.88944 11.7549 9.0948 11.7999C9.07508 11.8265 9.05765 11.8506 9.03861 11.8761C9.07155 11.8882 9.09542 11.8928 9.13398 11.9095C9.05934 11.7924 9.1453 11.8452 9.19016 11.871C9.26088 11.9116 9.16745 11.8215 9.19017 11.8253C9.25141 11.8357 9.32627 11.8903 9.29146 11.8376C9.30684 11.8616 9.32404 11.8868 9.34007 11.9111C9.43075 11.9445 9.69329 11.9375 9.49491 11.855C9.53763 11.8208 9.58506 11.8765 9.62776 11.9101C9.67045 11.9437 9.68583 11.9151 9.72376 11.9439C9.87461 12.0587 9.74029 12.0453 9.69269 12.0682C9.92278 12.1664 9.72214 12.0276 10.0421 12.1892C10.0898 12.1757 9.96556 12.0602 10.0951 12.1113C10.0862 12.1774 10.1519 12.2665 10.3128 12.383C10.3365 12.3804 10.3602 12.3775 10.3839 12.3749C10.4489 12.4781 10.3715 12.5018 10.5798 12.5405C10.422 12.5994 10.5274 12.5643 10.6558 12.6995C10.6819 12.7269 10.5958 12.7083 10.6329 12.7454C10.6497 12.7623 10.7082 12.7726 10.7489 12.8142C10.7688 12.8346 10.8547 12.9421 10.9434 12.9658C10.9185 12.8788 11.0913 12.9167 10.9921 12.7994C11.2171 12.9441 11.3942 13.0114 11.092 12.936C11.1412 12.9864 11.1905 13.0368 11.2398 13.0871C11.2882 13.0978 11.337 13.1087 11.3857 13.1196C11.366 13.168 11.3525 13.1769 11.5184 13.2622C11.4423 13.2324 11.3664 13.2029 11.29 13.1729C11.2824 13.1806 11.2672 13.1844 11.2644 13.1945C11.3604 13.227 11.6071 13.3595 11.6727 13.3815C11.7383 13.4035 11.6268 13.3348 11.6504 13.333C11.8463 13.319 11.7945 13.3828 11.9051 13.4248C11.97 13.4494 11.8344 13.3571 11.8685 13.3713C11.995 13.4242 12.0203 13.5064 12.1243 13.5673C12.1038 13.5171 12.0839 13.4667 12.0645 13.4167C12.1731 13.4815 12.295 13.5522 12.4021 13.6017C12.4441 13.6212 12.4263 13.5823 12.4336 13.5847C12.4702 13.596 12.6086 13.6604 12.6226 13.6684C12.7277 13.7288 12.7136 13.7602 12.8147 13.8207C12.7732 13.8001 12.7342 13.7806 12.6937 13.7604C12.6481 13.7982 12.6022 13.8357 12.5567 13.8736C12.6546 13.9348 12.7526 13.9959 12.8509 14.0573C12.7869 13.999 12.7226 13.9405 12.6585 13.8822C12.7955 13.9095 12.9324 13.9367 13.0694 13.9639C13.1153 14.0222 13.1609 14.0803 13.2068 14.1386C13.3723 14.2258 13.3956 14.1102 13.4235 14.2393C13.4754 14.2597 13.5273 14.2802 13.5791 14.3006C13.5653 14.3088 13.5515 14.317 13.5377 14.3252C13.5996 14.351 13.6614 14.3768 13.7233 14.4025C13.6875 14.3247 13.6542 14.2454 13.6183 14.1692C13.7369 14.2253 13.7181 14.2629 13.7298 14.2817C13.7607 14.3316 13.8683 14.3505 13.8911 14.3933C13.8987 14.4079 13.7739 14.3677 13.7963 14.4174C13.8006 14.4271 13.8907 14.6143 13.999 14.6456C14.0079 14.6262 14.0135 14.5995 14.0212 14.5773C14.1552 14.6397 14.1648 14.7732 14.1324 14.7903C14.2112 14.8107 14.3114 14.8665 14.3423 14.8451C14.3775 14.8644 14.4123 14.8836 14.4474 14.903C14.3699 14.9537 14.5223 15.0242 14.5673 14.9681C14.5086 14.9321 14.4498 14.8961 14.391 14.8601C14.4797 14.8107 14.3248 14.6605 14.6615 14.9481C14.7109 15.029 14.5364 14.8688 14.5782 14.9321C14.6704 15.0081 14.7744 15.0491 14.8556 15.1324C14.9566 15.2363 14.7892 15.1834 15.0955 15.3023C14.538 14.8352 15.2231 15.2778 15.5339 15.4123C15.5519 15.5661 15.7783 15.7422 16.1356 15.9058C16.1176 15.8555 16.0021 15.8094 15.9463 15.7641C15.8906 15.7187 15.9673 15.7393 15.8989 15.6812C15.8304 15.623 15.6789 15.5102 15.6136 15.4443C15.689 15.4653 16.036 15.6122 15.7941 15.5367C15.9368 15.6586 15.9943 15.7325 16.1892 15.8524C16.2755 15.84 16.2879 15.8084 16.4818 15.9185C16.3301 15.9174 16.5235 16.0892 16.4365 16.1284C16.3086 16.0337 16.4227 16.0127 16.3615 15.9358C16.3552 15.928 16.2182 15.8707 16.1892 15.8524C16.2842 15.9853 16.3161 16.0328 16.1967 16.0567C16.2913 16.1032 16.3429 16.1446 16.3704 16.1161C16.381 16.1415 16.3918 16.167 16.4022 16.1922C16.432 16.209 16.4595 16.223 16.4907 16.2414C16.4764 16.1663 16.5425 16.2456 16.6152 16.2573C16.688 16.269 16.6309 16.1832 16.7949 16.2772C16.7471 16.2339 16.703 16.195 16.6566 16.1534C16.7697 16.2015 16.8831 16.2497 16.9962 16.2977C16.9397 16.2243 16.8053 16.0859 16.8329 16.0482C16.8728 16.0915 17.0549 16.1609 17.0737 16.1703C17.1467 16.207 17.0936 16.2102 17.0985 16.2139C17.2023 16.2903 17.2987 16.3344 17.3186 16.3973C17.412 16.428 17.4691 16.4742 17.5581 16.5243C17.607 16.5518 17.6139 16.5181 17.6393 16.5399C17.8079 16.685 17.6064 16.6175 18.0117 16.7586C17.9789 16.7134 17.947 16.668 17.9142 16.6226C17.9598 16.639 18.0051 16.6552 18.0506 16.6716C18.0761 16.6911 18.1014 16.7105 18.1269 16.73C18.1017 16.7724 18.0762 16.8148 18.0509 16.8572C18.0799 16.877 18.1089 16.8968 18.1378 16.9166C18.0835 16.8909 18.029 16.865 17.9747 16.8393C17.9656 16.8441 17.9568 16.849 17.9477 16.8538C18.0181 16.91 18.0882 16.9661 18.1586 17.0224C18.1686 17.0084 18.1787 16.9943 18.1888 16.9802C18.3507 17.1013 18.3476 17.1163 18.5365 17.1707C18.6635 17.2447 18.803 17.2423 18.8917 17.2587C18.9133 17.2822 18.9349 17.3059 18.9567 17.3297C18.9808 17.3271 19.005 17.3246 19.029 17.322C19.0526 17.3586 19.0767 17.3954 19.1003 17.4319C19.1416 17.4036 19.1583 17.397 19.0354 17.3078C19.1082 17.2851 19.3261 17.4394 19.4105 17.5099C19.4745 17.5633 19.3721 17.5583 19.3782 17.5683C19.3982 17.6022 19.5238 17.6555 19.5468 17.6725C19.5524 17.6766 19.5579 17.6806 19.5634 17.6845C19.6424 17.7419 19.7102 17.7669 19.7959 17.7983C19.8132 17.8051 19.8607 17.8437 19.8656 17.845C19.8999 17.8566 19.9897 17.8753 20.0003 17.8747C20.5255 17.8174 19.9691 17.8199 20.3988 17.6812C20.379 17.6725 20.3607 17.6629 20.3422 17.6529C20.3706 17.6382 20.3985 17.6218 20.4249 17.604C20.4664 17.5936 20.4408 17.6436 20.4955 17.5785C20.5039 17.5984 20.5119 17.6185 20.5193 17.6389C20.5436 17.6072 20.5645 17.5753 20.5842 17.5412C20.6827 17.5606 20.8329 17.3704 20.8951 17.4214C20.9221 17.4407 20.8358 17.6192 20.9204 17.5513C20.9727 17.4823 20.9116 17.5128 20.9284 17.4825C21.0335 17.2606 21.0579 17.281 21.0748 17.1788C21.0582 17.1582 21.0407 17.1378 21.0228 17.1187C21.0354 17.0836 21.0461 17.0478 21.055 17.0105C21.0418 17.0006 21.0283 16.9911 21.0148 16.9821C21.0122 17.0156 21.0074 17.0535 21.0018 17.0838C20.9838 17.0639 20.9764 16.9954 20.9663 16.9282C20.951 16.8185 20.9528 16.7069 20.9811 16.7982C20.9998 16.8589 20.9918 16.9699 21.0558 16.8997C21.0465 16.7953 21.0371 16.6767 21.0279 16.5668C21.0417 16.5633 21.0555 16.5601 21.0692 16.5567C21.0603 16.4085 21.0053 16.5433 20.9758 16.543C20.975 16.5091 20.9743 16.4749 20.9734 16.441C20.9868 16.4266 21.0007 16.4129 21.0136 16.3979C20.9924 16.3965 20.9431 16.3775 20.9614 16.2765C20.9733 16.2115 21.0269 16.3138 21.0194 16.19C20.9863 16.1992 20.946 16.244 20.9353 16.106C20.9699 16.0923 21.0016 16.0733 21.0379 16.0627C21.0047 15.8911 21.058 15.813 21.0194 15.6116C20.995 15.4838 20.9083 15.3088 21.0419 15.2262C21.0454 15.1328 21.0122 15.1624 21.0047 15.1348C20.9693 15.0043 21.0326 14.9072 21.0364 14.8829C21.0602 14.7277 21.0383 14.6582 21.0682 14.5318C21.0435 14.5386 21.0201 14.5424 20.9959 14.5479C21.033 14.6637 21.0313 14.7223 21.0233 14.8847C21.0183 14.8302 21.0132 14.7757 21.0083 14.7213C20.9882 14.7302 20.9681 14.739 20.9482 14.7476C21.0272 15.2498 20.9023 15.1326 20.875 14.7116C20.9121 14.6753 20.9492 14.6377 20.9864 14.6017C20.9301 14.3585 20.979 14.244 20.9907 13.969C20.992 13.9363 20.9706 13.8172 20.9696 13.766C20.9694 13.7668 20.9693 13.7677 20.9692 13.7685C20.9341 13.7367 20.9179 13.7798 20.8866 13.785C20.8826 13.7572 20.8787 13.7295 20.8748 13.7017C20.8987 13.6398 20.9183 13.6615 20.9126 13.5396C20.8888 13.556 20.865 13.5723 20.8412 13.5887C20.8404 13.4551 20.8663 13.3677 20.8551 13.2433C20.8641 13.2642 20.8731 13.2848 20.8821 13.3057C20.9051 13.0351 21.045 13.2505 20.9754 13.046C20.9876 13.033 20.9999 13.0203 21.0121 13.0073C21.0151 13.0915 21.018 13.1758 21.021 13.2597C21.0383 13.2615 21.0555 13.2633 21.0728 13.2647C21.0676 13.1746 21.0623 13.084 21.0571 12.9939C21.0687 13.0597 21.0803 13.1259 21.0919 13.1916C21.1002 13.0872 21.1085 12.9827 21.1167 12.8782C21.0532 12.9891 21.0454 12.8453 20.9825 12.8724C21.0349 12.6874 21.1039 12.5421 21.0597 12.2553C21.0509 12.1985 21.007 12.2293 21.0605 12.068C20.9905 12.1071 20.9577 11.9049 20.8912 11.9309C20.8944 11.9871 20.8964 12.0453 20.9003 12.0998C20.9234 12.0378 20.9869 12.0275 21.0057 12.1217C21.0297 12.2419 20.9857 12.4173 21.0562 12.4101C21.0529 12.4581 21.0509 12.5027 21.0481 12.5492C21.0306 12.5301 21.0131 12.5113 20.9956 12.4925C21.023 12.625 21.0141 12.7082 20.97 12.7719C20.9599 12.614 20.9498 12.4565 20.9398 12.2986C20.9368 12.3218 20.9338 12.3454 20.9309 12.3687C20.8859 12.2491 20.8432 12.3724 20.8336 12.1494C20.8542 12.1508 20.8748 12.1519 20.8955 12.1533C20.8404 12.0721 20.8407 11.8498 20.7774 11.9207C20.7968 11.8535 20.8092 11.8399 20.775 11.8018C20.8231 11.6247 20.884 11.511 20.9566 11.574C20.9449 11.5082 20.9332 11.4424 20.9215 11.377C20.9017 11.415 20.8819 11.4531 20.862 11.4911C20.8633 11.3767 20.8645 11.2615 20.8656 11.1474C20.9244 11.1364 20.8835 11.3676 20.936 11.3009C20.9466 11.2876 20.924 11.226 20.9299 11.2098C20.9942 11.0392 20.9477 11.307 20.997 11.2567C21.0122 11.0025 21.0947 11.2059 21.0254 10.8558C21.0423 10.8466 21.0596 10.8366 21.0765 10.8281C21.0775 10.7065 21.0392 10.7164 21.032 10.6119C21.0275 10.5465 21.0948 10.4644 21.0489 10.3921C21.0405 10.3793 20.9582 10.5008 20.9618 10.2454C20.9646 10.0471 21.0228 10.1296 21.0434 10.0225C21.064 9.91523 20.9834 9.66993 21.0747 9.59765C21.0626 9.65381 21.0561 9.72536 21.0462 9.78769C21.064 9.81304 21.0816 9.83771 21.0993 9.86272C21.0763 9.72021 21.1034 9.5729 21.0609 9.47698C21.1258 9.28684 21.0656 9.07421 20.9923 9.13176C21.0029 9.19434 21.0349 9.12626 21.0145 9.21318C20.9974 9.22209 20.9804 9.23148 20.9634 9.24038C20.9654 9.09239 20.9649 8.98961 21.017 9.0571C21.0182 9.03414 21.0195 9.01141 21.0207 8.98846C20.9831 8.98434 20.9452 8.9807 20.9076 8.97659C20.9033 8.94918 20.8991 8.92166 20.8949 8.89426C20.9032 8.86378 20.9115 8.83324 20.9199 8.80243C20.9795 8.84388 20.9815 8.91449 21.0148 8.68085C20.9942 8.68016 20.9737 8.67916 20.9531 8.67847C20.9793 8.48287 21.0292 8.47771 21.0273 8.23212C21.0988 8.42053 20.9721 8.52362 21.1155 8.52294C21.1061 8.57021 21.0965 8.61787 21.0871 8.66515C21.1079 8.67234 21.1288 8.67947 21.1496 8.68632C21.1386 8.43249 21.0018 8.01085 21.0925 7.8409C21.0814 7.82035 21.0718 7.79972 21.0599 7.77883C21.1147 7.61234 20.9917 7.54044 21.0625 7.37155C21.07 7.35413 21.1854 7.39059 21.1813 7.17074C21.1663 7.17621 21.141 7.17906 21.1221 7.18351C21.1313 7.13591 21.1409 7.08856 21.1504 7.0413C21.1365 7.03274 21.1226 7.02376 21.1087 7.0152C21.1033 7.09639 21.0978 7.17735 21.0924 7.25855C21.0877 7.19108 21.0829 7.12319 21.0782 7.05572C21.0555 7.14374 21.0553 7.18344 21.019 7.13039C21.0168 7.054 21.0145 6.97749 21.0123 6.9011C21.003 6.89323 20.9936 6.88542 20.9843 6.87755C20.9566 6.91454 20.9294 6.95191 20.9013 6.98891C20.9239 6.78988 20.9252 6.61684 20.9797 6.46406C20.9889 6.43802 21.0251 6.5301 20.9925 6.3527C21.0116 6.34996 21.0271 6.34519 21.0448 6.34211C20.9912 6.12491 21.0072 6.05356 21.0459 5.82712C21.0098 5.97374 21.0333 5.84292 21.014 5.80557C21.0006 5.77999 21.0026 5.87985 20.9886 5.86856C20.9748 5.85725 20.9188 5.72749 20.912 5.83844C21.0268 6.11044 20.8896 6.18454 20.9447 6.53398C20.9299 6.48019 20.9151 6.42602 20.9003 6.37223C20.8903 6.39756 20.8812 6.42024 20.8705 6.44763C20.893 6.25274 20.8784 6.34752 20.8607 6.26744C20.843 6.18728 20.828 6.04159 20.8231 5.94395C20.8216 5.9132 20.8473 5.94564 20.8497 5.87622C20.8514 5.82896 20.8132 5.69976 20.8582 5.66994C20.8875 5.65041 20.9681 5.85796 20.9679 5.57099C20.9966 5.51698 20.9877 5.65456 20.9912 5.65752C21.0253 5.68253 21.051 5.50611 21.0249 5.42458C21.0227 5.41798 20.9961 5.48236 20.9856 5.41235C20.9607 5.2462 20.9912 5.15024 21.0325 5.04267C20.9841 5.03102 20.9262 4.8912 20.9441 4.71717C20.9303 4.70827 20.9163 4.69979 20.9023 4.69088C20.9097 4.7179 20.9169 4.74492 20.9242 4.77194C20.9155 4.8014 20.9092 4.83261 20.899 4.86139C20.8871 4.68638 20.8203 4.66162 20.7959 4.5777C20.7125 4.2905 20.8889 4.46456 20.9194 4.51636C20.907 4.5537 20.8933 4.58981 20.8804 4.62681C20.8972 4.6227 20.9142 4.61852 20.9312 4.61476C20.9307 4.18483 21.0407 4.54929 21.0721 4.33106C20.9891 4.27488 20.9811 4.11461 21.0337 3.91045C21.0333 3.88784 21.0332 3.86515 21.0327 3.84254C21.0206 3.83878 21.0021 3.83883 20.9941 3.83268C20.98 3.58671 21.1079 3.54289 21.12 3.5196C21.1737 3.41615 21.0994 3.33559 21.0987 3.30509C21.0966 3.198 21.1191 3.15424 21.1185 3.07179C21.1184 3.05331 21.1169 3.03321 21.1134 3.01091C21.0861 2.86698 21.0693 2.96899 21.0423 2.92896C21.0214 2.89731 20.9959 2.79334 20.9632 2.75788C20.983 2.76954 21.003 2.78443 21.0223 2.79773C21.0043 2.65384 20.9702 2.52933 20.8695 2.39063C20.6727 2.31799 20.6562 2.09311 20.6167 2.24981C20.73 2.34958 20.7695 2.42973 20.7828 2.51281C20.7248 2.44066 20.6567 2.37749 20.5816 2.32561C20.5708 2.29611 20.5647 2.27144 20.5465 2.23898C20.4694 2.22684 20.3295 2.14735 20.2636 2.1426C19.9615 2.13365 20.0713 2.20201 19.7961 2.13479C19.9826 2.09346 19.9878 2.04312 20.1875 2.07807C20.1517 2.03364 20.0421 2.03145 20.1164 1.99601C19.9069 1.99259 19.975 2.0397 19.9016 2.07624C19.8394 2.109 19.7186 2.14314 19.737 2.17819C19.7191 2.16194 19.7032 2.14595 19.6842 2.13057C19.6216 2.15207 19.5617 2.17956 19.5041 2.21286C19.4532 2.24227 19.4024 2.2717 19.3516 2.30115C19.387 2.25571 19.4224 2.21024 19.458 2.16488C19.4189 2.178 19.3798 2.19117 19.3407 2.20429C19.1074 2.41671 18.5853 2.57577 18.7433 2.67966C18.6173 2.75865 18.5906 2.74959 18.5046 2.76232C18.5033 2.77788 18.5011 2.79145 18.5006 2.80827C18.4108 2.84459 18.3711 2.92311 18.2916 2.95457C18.2121 2.98611 18.1712 2.95721 18.1987 3.0296C18.1403 3.03801 18.084 3.04947 18.0266 3.05905C18.0069 3.09053 17.987 3.12181 17.9675 3.15303C17.9184 3.17083 17.8693 3.18873 17.8203 3.20653C17.8147 3.25188 17.6319 3.33927 17.567 3.40503C17.4741 3.41323 17.4142 3.30477 17.253 3.42345C17.2728 3.4475 17.2925 3.4715 17.3124 3.49555C17.2697 3.51277 17.227 3.53005 17.184 3.54745C17.1766 3.54013 17.1696 3.53263 17.1622 3.52531C17.1839 3.51636 17.2053 3.50754 17.2271 3.49868C17.2011 3.49408 17.1755 3.48935 17.1498 3.48459C17.1022 3.54113 17.0545 3.59772 17.0065 3.65443C17.0976 3.62382 17.1887 3.59321 17.2798 3.5626C17.1887 3.64124 17.1063 3.66288 17.0298 3.73605C16.9312 3.744 16.9476 3.70633 16.956 3.6483C16.9292 3.66832 16.902 3.68841 16.8752 3.70842C16.8711 3.65759 16.8087 3.66192 16.9788 3.56805C16.9607 3.56335 16.9426 3.55931 16.9245 3.554C16.898 3.57172 16.8745 3.57243 16.8468 3.59429C16.7712 3.65391 16.7485 3.76046 16.7683 3.78177C16.7787 3.79287 16.8459 3.72132 16.8531 3.74139C16.8707 3.79038 16.6726 3.87818 16.9674 3.76737C16.8944 3.84716 16.8621 3.83739 16.7589 3.8861C16.7752 3.89643 16.7911 3.90679 16.8071 3.91728C16.7575 3.93684 16.7078 3.95646 16.6582 3.97602C16.6779 3.86346 16.3247 4.02936 16.5895 3.78794C16.4979 3.83625 16.4067 3.88437 16.3153 3.93234C16.3292 3.91392 16.3432 3.89559 16.3571 3.87717C16.3998 3.858 16.4422 3.8389 16.4849 3.81964C16.4292 3.8328 16.3735 3.84608 16.3178 3.85923C16.2159 3.94163 16.1876 3.99417 16.1556 4.05732C16.3003 4.00643 16.2383 3.99764 16.3362 3.93228C16.3449 3.95556 16.3609 3.97238 16.3648 3.99981C16.2869 3.98618 16.134 4.11714 16.0955 4.14224C15.9783 4.21861 16.0482 4.12064 15.9667 4.16645C15.8852 4.21232 15.8045 4.29318 15.7136 4.28854C15.7287 4.31187 15.7483 4.33365 15.7657 4.35278C15.6442 4.43346 15.6529 4.39057 15.6378 4.39444C15.3946 4.45427 15.311 4.57052 15.0764 4.71425C15.1109 4.70422 15.1454 4.69328 15.18 4.68263C15.0297 4.83738 15.1417 4.75187 15.3075 4.67862C15.1583 4.75796 15.0996 4.84974 15.0038 4.92226C14.908 4.99474 14.7181 5.07465 14.6434 5.09463C14.7753 4.98119 14.9456 4.90744 15.1055 4.80484C15.0727 4.79117 15.0426 4.78095 15.0078 4.7652C14.9375 4.87426 14.8597 4.87338 14.8228 4.88557C14.7146 4.92143 14.7431 4.96374 14.6573 4.95008C14.6691 4.96501 14.6787 4.97772 14.6899 4.99158C14.4863 5.10004 14.2543 5.19555 14.1591 5.33079C14.1246 5.29848 14.0939 5.26592 14.0572 5.23383C13.9897 5.31212 13.8998 5.32373 13.8326 5.37173C13.7657 5.41956 13.811 5.43563 13.7346 5.49595C13.7205 5.50709 13.6769 5.50583 13.6474 5.54237C13.6175 5.57919 13.5392 5.77004 13.4672 5.68441C13.3954 5.72524 13.3258 5.76081 13.2548 5.79962C13.3199 5.75485 13.3852 5.71023 13.45 5.66563C13.3785 5.67608 13.3074 5.68639 13.2359 5.69684C13.2404 5.72174 13.2451 5.74702 13.2497 5.77147C13.1076 5.88701 12.9744 5.91893 12.8209 6.0182C12.7953 6.03479 12.8811 6.03958 12.758 6.09683C12.6348 6.15409 12.5039 6.12823 12.3212 6.27288C12.312 6.28022 12.2865 6.37262 12.1917 6.37356C12.1702 6.37382 12.2309 6.32075 12.1866 6.33031C12.1423 6.33988 11.9698 6.4263 11.9402 6.40525C11.9478 6.41435 11.9643 6.41883 11.9753 6.42622C11.9496 6.4475 11.9237 6.46895 11.8976 6.49031C11.8847 6.47401 11.8715 6.45782 11.8586 6.44162C11.7188 6.57766 11.6732 6.69421 11.4176 6.81192C11.5008 6.79842 11.5841 6.78502 11.6669 6.77169C11.6751 6.74271 11.6833 6.71358 11.6912 6.68477C11.8072 6.62746 11.9235 6.56992 12.0395 6.51262C12.046 6.48129 12.0521 6.45022 12.0586 6.41889C12.0898 6.40445 12.1206 6.3901 12.1519 6.37566C12.1531 6.39491 12.1542 6.41412 12.1551 6.43354C12.2117 6.39596 12.2684 6.35826 12.3247 6.32085C12.2567 6.47787 11.9881 6.50514 12.0462 6.57015C12.0132 6.57392 11.9801 6.57764 11.947 6.58132C11.9561 6.62383 11.8965 6.6445 11.7986 6.69347C11.8305 6.69863 11.8645 6.70223 11.8946 6.70859C11.7883 6.73678 11.6265 6.83339 11.5258 6.87878C11.4815 6.89872 11.5083 6.84862 11.4941 6.85275C11.4211 6.87362 11.3253 6.98934 11.2978 7.00049C11.133 7.06719 10.9842 7.03846 10.8505 7.19119C11.0304 7.106 10.9335 7.15405 11.0128 7.15022C11.0376 7.14904 11.2714 7.04149 10.9882 7.19279C10.955 7.21046 10.4165 7.44219 10.556 7.30099C10.4828 7.36262 10.4286 7.41629 10.3627 7.47487C10.1107 7.46046 10.239 7.5366 10.3279 7.56796C10.2981 7.58553 10.27 7.60262 10.2391 7.62043C10.2671 7.51742 9.93069 7.70623 9.83635 7.80456C9.80469 7.83742 9.92291 7.79697 9.84079 7.85753C9.79634 7.8771 9.74549 7.89857 9.69836 7.91898C9.78624 7.92321 9.66965 8.0117 9.69562 8.05262C9.59365 8.06167 9.48643 8.01796 9.50582 7.94951C9.44941 8.00526 9.39265 8.06118 9.33629 8.11702C9.37289 8.10915 9.40984 8.10097 9.44643 8.09311C9.21405 8.19214 8.96943 8.41332 8.87317 8.35142C8.84475 8.36866 8.81598 8.386 8.78757 8.40324C8.78726 8.42326 8.78726 8.44313 8.78695 8.46315C8.64929 8.52542 8.51187 8.58744 8.3742 8.64972C8.48482 8.57355 8.50019 8.53643 8.63171 8.48343C8.57497 8.49337 8.51731 8.50372 8.46147 8.51315C8.30501 8.6649 8.29752 8.70959 8.014 8.855C8.00118 8.86157 7.77064 8.94316 7.76134 8.94351C7.71879 8.94514 7.75387 8.89155 7.73433 8.89124C7.6799 8.89016 7.39938 8.9705 7.3988 8.95853C7.39332 8.81064 8.21737 8.33287 8.43712 8.19823C10.7163 6.80178 13.0262 5.57596 15.3178 4.2345C15.3413 4.22064 15.3213 4.20987 15.331 4.20334C15.3911 4.163 15.4676 4.15358 15.4914 4.1413C15.5421 4.11497 15.501 4.10661 15.5371 4.08573C15.9105 3.87052 16.2709 3.68134 16.642 3.46156C16.6662 3.44725 16.6525 3.48086 16.6932 3.45279C16.7142 3.43819 16.7662 3.36877 16.8157 3.33958C16.9887 3.23769 17.1402 3.16285 17.3232 3.05655C17.4234 2.99839 17.5753 2.91404 17.6871 2.84886C17.7365 2.82008 17.7803 2.77677 17.829 2.74807C17.898 2.70737 17.8997 2.74296 17.9113 2.7385C17.9625 2.71888 17.9516 2.68504 17.9965 2.66006C18.0802 2.61371 18.0962 2.63123 18.2002 2.56889C18.2746 2.5243 18.4372 2.40925 18.5292 2.34995C18.7639 2.24547 19.0375 2.0752 19.2395 1.94828C19.2753 1.92582 19.3028 1.91201 19.3251 1.9029C19.3945 1.87252 19.4231 1.87706 19.4717 1.85509C19.7152 1.75073 19.9286 1.68197 20.1898 1.71432C20.5355 1.76511 20.8023 1.94807 21.0162 2.19399C21.0504 2.23474 21.0658 2.20648 21.0992 2.24846C21.2244 2.40286 21.33 2.64415 21.3535 2.8199C21.3701 2.92858 21.3586 2.99943 21.3482 3.07179C21.3395 3.11521 21.3331 3.16026 21.3371 3.22258C21.3397 3.26365 21.3775 3.27569 21.3824 3.34453C21.39 3.45448 21.3567 3.57504 21.3529 3.65177C21.348 3.75694 21.3865 3.66548 21.3814 3.80731C21.3811 3.81314 21.3536 3.83436 21.3549 3.86481C21.3586 3.95354 21.3803 3.94473 21.3783 4.07457C21.378 4.08703 21.3517 4.25918 21.3516 4.2763C21.3512 4.37701 21.342 4.57978 21.3476 4.6394C21.3674 4.85249 21.4089 4.68473 21.3189 4.86595C21.3409 4.94575 21.3632 5.02489 21.3847 5.10949C21.3647 5.05303 21.3359 5.28215 21.3377 5.29825C21.3527 5.43143 21.3878 5.3521 21.382 5.52097C21.301 5.29795 21.3715 5.73884 21.3736 5.83716C21.3836 6.31058 21.3635 6.74092 21.364 7.21674C21.3642 7.37603 21.3813 7.5895 21.3809 7.75802C21.3809 7.7973 21.3617 7.76762 21.3613 7.8022C21.361 7.83669 21.3825 7.79843 21.3814 7.8378C21.3739 8.08273 21.3333 8.27464 21.384 8.49902C21.3767 8.50994 21.3709 8.50959 21.3629 8.52768C21.4083 8.7113 21.3472 9.06493 21.3388 9.19785C21.3258 9.40574 21.3565 9.45885 21.3503 9.60988C21.342 9.8096 21.282 10.1095 21.3811 9.97554C21.3842 10.1125 21.385 10.2444 21.3758 10.3828C21.3748 10.3982 21.3496 10.3876 21.3491 10.3938C21.3455 10.4328 21.368 10.4455 21.369 10.4719C21.3718 10.5434 21.3448 10.4267 21.3524 10.5287C21.3564 10.5825 21.3761 10.613 21.3765 10.7624C21.3787 11.6627 21.3716 12.6401 21.3683 13.563C21.3681 13.6263 21.3924 13.5846 21.3909 13.6641C21.3855 13.9402 21.3445 14.4345 21.3501 14.6725C21.3557 14.9106 21.3913 14.8569 21.4062 15.0059C21.4091 15.0347 21.3888 15.0111 21.3885 15.0371C21.3866 15.2122 21.355 15.4209 21.3502 15.5627C21.347 15.6565 21.379 15.649 21.3812 15.714C21.3846 15.811 21.3523 15.9108 21.3513 15.9625C21.3467 16.2057 21.3727 16.3729 21.3595 16.6C21.3665 16.5911 21.373 16.5852 21.3799 16.5777C21.3794 16.6946 21.3789 16.8114 21.3784 16.9282C21.3782 17.1346 21.3312 17.3454 21.2375 17.5345C21.2509 17.5216 21.264 17.5088 21.2772 17.4951C21.0676 17.8877 21.0037 17.7738 21.1522 17.8423C21.1351 17.872 21.1163 17.9032 21.0977 17.9304C21.0481 17.8695 20.8346 18.0455 20.5299 18.1541C20.5107 18.1638 20.3788 18.2865 20.3702 18.1963C20.3367 18.2283 20.3158 18.2486 20.2844 18.2746C20.2098 18.2636 20.1369 18.2469 20.0688 18.2243C20.0329 18.2302 19.9962 18.2345 19.9596 18.2373C19.9536 18.2542 19.9573 18.2721 19.9445 18.2884C19.7708 18.2951 19.4474 18.172 19.3284 18.0915C19.3248 18.0894 19.3214 18.0875 19.3181 18.0857C19.0964 17.9641 18.8504 17.8754 18.7051 17.7338C18.6196 17.6904 18.6852 17.7669 18.5639 17.692C18.5585 17.6693 18.5535 17.6476 18.5477 17.6241C18.409 17.6316 18.411 17.5794 18.2807 17.486C18.1926 17.4227 18.1222 17.4034 18.035 17.3489C18.0129 17.3351 18.0272 17.3176 18.0115 17.3094C17.9586 17.2815 17.7959 17.2229 17.759 17.2026C17.4245 17.0188 17.1423 16.8519 16.8316 16.6631C16.7982 16.6428 16.8311 16.6872 16.7966 16.6661C16.741 16.6324 16.791 16.6223 16.7592 16.602C16.6704 16.5456 16.6519 16.576 16.524 16.5044C16.103 16.2683 15.6357 15.9677 15.2002 15.7135C15.1866 15.7056 15.177 15.7241 15.162 15.7158C15.0648 15.6608 14.981 15.5799 14.8931 15.5295C14.7472 15.4457 14.6231 15.4079 14.4792 15.3247C14.198 15.1622 13.9543 15.0042 13.6654 14.8365C13.429 14.6991 13.222 14.5828 12.9625 14.4329C11.8288 13.7778 10.6386 13.1671 9.51454 12.4775C9.48595 12.4599 9.50699 12.4508 9.49773 12.4464C9.40949 12.4046 9.38954 12.4218 9.38561 12.3595C9.27314 12.3064 9.21972 12.3207 9.0915 12.2434C9.02315 12.2023 9.10503 12.1796 8.97253 12.1391C8.85286 12.1027 8.95272 12.1987 8.65585 11.9881C8.648 11.9825 8.62558 11.9269 8.55551 11.8975C8.48518 11.8679 8.54785 11.9347 8.38603 11.8504C8.05842 11.6798 7.67636 11.4344 7.29795 11.216C7.21434 11.1677 7.13531 11.1117 7.06246 11.0489C7.01874 11.0328 6.73587 10.7077 6.70545 10.6234C6.62391 10.4791 6.60416 10.5214 6.54458 10.3087C6.50618 10.1412 6.52748 9.99859 6.5454 9.80327C6.54889 9.78089 6.51697 9.73609 6.56051 9.58963ZM20.8749 8.98882C20.8435 8.96073 20.728 8.91003 20.7631 8.74018C20.7664 8.72408 20.8459 8.81099 20.8585 8.71718C20.8669 8.80898 20.8696 8.89838 20.875 8.98882C20.8749 8.98882 20.8749 8.98882 20.8749 8.98882ZM7.59852 9.35517C7.51223 9.4017 7.435 9.4641 7.37233 9.5396C7.40115 9.47682 7.43978 9.4164 7.48724 9.36089C7.52495 9.35622 7.56224 9.35438 7.59852 9.35517ZM19.5078 17.5845C19.5077 17.5844 19.5076 17.5843 19.5075 17.5843C19.5377 17.5975 19.568 17.6108 19.5983 17.624C19.6752 17.6554 19.754 17.6743 19.8317 17.6805C19.8188 17.6888 19.8053 17.6968 19.7917 17.7044C19.721 17.6998 19.6487 17.685 19.5774 17.6602C19.5597 17.6536 19.542 17.6469 19.5243 17.6402C19.5188 17.6216 19.5133 17.603 19.5078 17.5845ZM18.5356 17.1573C18.4683 17.1033 18.4973 17.0947 18.4674 17.0527C18.4674 17.0527 18.4674 17.0528 18.4673 17.0528C18.4594 17.0418 18.4119 17.0087 18.393 16.9968C18.3932 17.0129 18.3956 17.03 18.3965 17.0462C18.2075 16.9756 17.9296 16.6784 18.3899 16.8891C18.3746 16.9003 18.3598 16.9117 18.3445 16.923C18.5639 17.044 18.7868 17.2162 18.5356 17.1573ZM20.8248 6.97522C20.7679 6.76145 20.7559 6.6929 20.7949 6.43357C20.811 6.4702 20.8272 6.50684 20.8433 6.54347C20.8269 6.58629 20.8105 6.6288 20.7941 6.67163C20.7941 6.67175 20.7941 6.67187 20.7941 6.67199C20.8113 6.68055 20.8286 6.68915 20.8459 6.69737C20.8389 6.78985 20.8318 6.88273 20.8248 6.97522ZM11.4695 13.0302C11.4748 12.9019 11.4566 12.9678 11.6168 13.0307C11.6723 13.0524 11.6325 13.0065 11.6659 13.0219C11.8464 13.1052 11.822 13.1791 11.7639 13.1914C11.6656 13.1377 11.5663 13.0832 11.4699 13.0304C11.4698 13.0303 11.4697 13.0302 11.4695 13.0302ZM7.16964 10.3828C7.16959 10.3826 7.16955 10.3825 7.1695 10.3824C7.19307 10.3676 7.22867 10.426 7.22009 10.345C7.24331 10.3984 7.27202 10.4494 7.30591 10.4968C7.29379 10.4843 7.28204 10.4712 7.27063 10.4579C7.27071 10.476 7.27121 10.4941 7.27256 10.5126C7.3113 10.5115 7.3059 10.538 7.34031 10.5928C7.35379 10.557 7.36909 10.5224 7.38597 10.489C7.4187 10.5461 7.45985 10.6002 7.50851 10.6492C7.50404 10.6566 7.49959 10.664 7.49517 10.6714C7.523 10.6784 7.55069 10.6837 7.57835 10.6877C7.579 10.7001 7.57975 10.7124 7.58098 10.7249C7.58112 10.725 7.58125 10.725 7.58139 10.7251C7.61803 10.7373 7.65473 10.7496 7.69142 10.7617C7.68904 10.789 7.61112 10.7564 7.74289 10.8252C7.69071 10.8244 7.63865 10.8237 7.58617 10.8228C7.57095 10.8138 7.55573 10.8048 7.54051 10.7959C7.37663 10.6997 7.24525 10.5544 7.16964 10.3828ZM12.8279 13.774C12.6128 13.6553 12.6817 13.6744 12.7591 13.654C12.7819 13.694 12.8051 13.7341 12.8279 13.774ZM20.9046 14.1577C20.8662 14.0865 20.8282 14.0149 20.7911 13.942C20.7697 13.7967 20.8397 13.6514 20.8671 13.7607C20.9 13.8922 20.8632 14.0296 20.9046 14.1577ZM20.8875 10.8494C20.8697 11.0272 20.8241 10.8599 20.7975 10.8199C20.8402 10.7707 20.8364 10.7021 20.8414 10.592C20.8442 10.6954 20.8905 10.8201 20.8876 10.8494C20.8876 10.8494 20.8875 10.8494 20.8875 10.8494ZM20.8581 17.0059C20.8542 17.0667 20.8524 17.1306 20.824 17.1794C20.795 17.1535 20.8494 17.059 20.7803 17.12C20.7879 17.0842 20.793 17.0478 20.7956 17.0117C20.8155 17.0373 20.8356 17.0078 20.858 17.006C20.858 17.006 20.8581 17.0059 20.8581 17.0059ZM14.9105 14.9265C15.0098 15.034 15.042 15.0311 15.179 15.0755C15.1785 15.116 15.0035 15.0834 14.9059 15.0421C14.9075 15.0037 14.9091 14.9651 14.9105 14.9265ZM11.2678 7.15568C11.2744 7.09983 11.4858 6.97094 11.599 6.92098C11.5897 6.9341 11.5804 6.94732 11.5711 6.96053C11.4701 7.0255 11.3688 7.09071 11.2678 7.15568ZM20.8445 10.5396C20.8431 10.5581 20.8422 10.5755 20.8414 10.592C20.8409 10.5737 20.8417 10.556 20.8445 10.5396ZM21.0403 3.09789C21.0828 3.15645 21.0971 2.98238 21.0804 3.19373C21.0805 3.19373 21.0805 3.19373 21.0805 3.19373C21.0696 3.33351 21.0666 3.36436 21.0633 3.49386C21.0087 3.44724 20.9892 3.18453 20.9779 3.54662C20.9778 3.55139 21.0103 3.54189 21.0059 3.59974C21.0045 3.6176 20.9778 3.67475 20.9701 3.76167C20.9676 3.78976 20.9594 4.00086 20.9588 3.71311C20.9208 3.72167 20.8822 3.70622 20.8453 3.7069C20.8345 3.59458 20.9091 3.50825 20.9073 3.38943C20.9044 3.21301 20.829 3.12323 20.9279 3.08931C20.9522 3.23766 20.9528 3.4924 20.8933 3.52562C20.8926 3.66914 20.9413 3.71036 20.9654 3.59463C20.936 3.11826 21.03 3.43178 21.0028 3.07179C21.0017 3.05697 21.0001 3.04116 20.9978 3.02438C20.9839 3.01979 20.9681 3.00347 20.9553 3.00697C20.9851 2.89816 21.0184 3.0106 21.0315 3.07179C21.0347 3.08443 21.0375 3.09414 21.0403 3.09789ZM20.935 4.13445C20.906 4.0488 20.8766 3.96344 20.8475 3.87814C20.8949 3.87814 20.9374 3.92517 20.9641 4.06015C20.9544 4.08479 20.9447 4.1098 20.935 4.13445ZM16.0347 4.29586C16.0369 4.32434 16.0202 4.36123 16.0117 4.39446C15.9783 4.38865 15.4338 4.67893 15.6949 4.5036C15.7328 4.47813 15.9963 4.37864 16.0347 4.29586ZM14.0506 14.4748C14.1049 14.5261 14.1589 14.5773 14.2128 14.6284C14.111 14.5823 14.0089 14.5363 13.907 14.4904C13.9549 14.4852 14.0026 14.48 14.0506 14.4748ZM20.9498 12.9755C20.9488 13.0062 20.9134 12.9043 20.919 13.0252C20.8963 12.9351 20.8771 12.8507 20.8558 12.7626C20.8726 12.7363 20.8893 12.7096 20.906 12.6832C20.8953 12.6627 20.8846 12.6417 20.8738 12.6212C20.8982 12.6335 20.9221 12.6445 20.9469 12.6575C20.8946 12.8058 20.9539 12.8398 20.9498 12.9755ZM20.9391 17.3909C20.8823 17.3893 20.9379 17.1898 20.8455 17.3694C20.8316 17.3192 20.8432 17.2607 20.8682 17.1533C20.8855 17.1394 20.9024 17.1242 20.919 17.1087C20.8841 17.0997 20.878 17.068 20.8581 17.0059C20.8582 17.0058 20.8582 17.0058 20.8583 17.0057C20.8605 16.9738 20.8611 16.9489 20.8619 16.9282C20.8654 16.8317 20.8823 16.8319 20.9295 16.7955C20.9199 16.8534 20.9176 16.895 20.92 16.9282C20.9244 17.0031 20.9568 17.0338 20.9615 17.1312C20.966 17.227 20.9103 17.3359 20.9391 17.3909ZM16.6034 3.96682C16.5039 4.07599 16.6342 4.04903 16.3941 4.13267C16.4024 4.11476 16.4107 4.0969 16.419 4.07899C16.4804 4.0415 16.5419 4.00412 16.6034 3.96682ZM20.3509 17.7172C20.3943 17.7904 20.5464 17.7801 20.4874 17.6559C20.3783 17.6916 20.4604 17.7313 20.3509 17.7172ZM21.0161 10.91C21.0123 11.1584 20.9196 11.1114 20.8732 11.0094C20.8901 10.9936 20.907 10.9779 20.9237 10.9624C20.9161 10.9189 20.9084 10.8754 20.9009 10.8319C20.9393 10.858 20.9778 10.884 21.0161 10.91ZM16.5482 16.0365C16.7419 16.0805 16.387 15.9058 16.5202 15.9403C16.6265 15.9679 16.7177 16.0888 16.6535 16.0946C16.6213 16.0771 16.5856 16.0573 16.5485 16.0366C16.5484 16.0366 16.5483 16.0365 16.5482 16.0365ZM17.5077 16.5711C17.512 16.5012 17.5418 16.5395 17.4063 16.4743C17.3676 16.4556 17.0847 16.2651 17.1824 16.3815C17.2877 16.4423 17.3985 16.5073 17.5077 16.5711ZM20.9244 8.03934C20.9517 8.03706 21.0117 8.29908 20.9967 8.33271C20.9967 8.33271 20.9968 8.33271 20.9968 8.33271C20.9559 8.42349 20.9501 8.1471 20.894 8.26699C20.9434 8.0015 20.824 7.92208 20.9813 7.94058C20.9882 8.09697 20.9558 8.02293 20.9244 8.03934ZM8.38815 8.66986C8.38804 8.66992 8.38794 8.66998 8.38783 8.67004C8.40371 8.66235 8.54931 8.62456 8.54098 8.6454C8.38404 8.72227 8.39776 8.68389 8.27886 8.80258C8.26417 8.79494 8.2508 8.78703 8.23547 8.77964C8.2871 8.74027 8.30964 8.7079 8.38815 8.66986ZM15.4298 4.58153C15.4817 4.54331 15.5977 4.51049 15.6601 4.47248C15.5157 4.68702 15.2224 4.73403 15.4298 4.58153ZM9.09216 11.6804C9.09234 11.6804 9.09252 11.6805 9.0927 11.6805C9.09262 11.6806 9.09252 11.6806 9.09245 11.6806C9.09235 11.6805 9.09226 11.6804 9.09216 11.6804ZM19.7558 2.1947C19.7465 2.18965 19.7406 2.18477 19.7375 2.17983C19.7373 2.17932 19.7371 2.17881 19.737 2.17831C19.743 2.18373 19.7491 2.1892 19.7558 2.1947ZM20.9162 7.49477C20.9543 7.38564 21.0148 7.74925 21.0003 7.86683C20.983 7.85861 20.9672 7.85732 20.9472 7.83816C20.9922 7.74326 20.9098 7.51293 20.9162 7.49477ZM20.9302 15.7847C20.9312 15.4973 21.0815 15.8713 20.9616 15.8867C20.9593 15.8862 20.9304 15.7921 20.9302 15.7847ZM20.9319 9.7614C20.9774 9.83463 20.9895 9.68747 20.9817 9.92278C20.9699 9.93648 20.9581 9.95016 20.9463 9.96386C20.9415 9.89639 20.9367 9.82887 20.9319 9.7614ZM21.1275 13.9018C21.1022 13.54 21.0574 13.1941 20.9319 13.4297C20.936 13.4571 20.9399 13.4848 20.9439 13.5122C21.0051 13.5163 20.9717 13.6174 20.9697 13.7652C20.994 13.7863 20.9996 13.8683 21.0203 13.8837C21.0602 13.9135 21.0883 13.8192 21.1275 13.9018ZM10.6955 12.7431C10.7058 12.737 10.716 12.7308 10.7262 12.7247C10.7817 12.7431 10.8372 12.7616 10.8926 12.78C10.8746 12.7927 10.8566 12.8055 10.8385 12.8182C10.7909 12.7932 10.7435 12.7684 10.6958 12.7434C10.6957 12.7433 10.6956 12.7432 10.6955 12.7431ZM21.0642 4.48697C20.9492 4.45411 20.9704 4.56894 21.0285 4.80188C21.0404 4.69705 21.0523 4.59179 21.0642 4.48697ZM18.8612 17.5189C18.871 17.4868 18.8809 17.4549 18.8904 17.4226C18.7663 17.3903 18.7675 17.4342 18.7972 17.5013C18.8186 17.5072 18.8398 17.5129 18.8612 17.5189ZM17.3115 16.6402C17.3526 16.6718 17.3431 16.6358 17.3475 16.639C17.453 16.7159 17.4628 16.7355 17.6106 16.798C17.631 16.8017 17.6513 16.805 17.6718 16.8086C17.6422 16.7124 17.5773 16.718 17.4624 16.6053C17.475 16.6396 17.4875 16.674 17.5 16.7085C17.4274 16.6609 17.3552 16.6135 17.2826 16.5658C17.2701 16.567 17.2576 16.568 17.245 16.5692C17.2671 16.5927 17.2894 16.6176 17.3115 16.6402ZM10.1374 12.3866C10.0658 12.3421 9.99389 12.2974 9.92225 12.2529C9.91115 12.266 9.90009 12.2792 9.88899 12.2923C9.97171 12.3237 10.0547 12.3552 10.1374 12.3866ZM20.9632 2.75788C20.9555 2.75328 20.9477 2.74901 20.94 2.74558C20.9473 2.74368 20.9552 2.74865 20.9632 2.75788ZM8.14932 8.7009C8.06067 8.73847 7.94528 8.81403 7.85326 8.8643C7.88155 8.89682 8.10643 8.75348 8.20028 8.72892C8.2095 8.71483 8.18679 8.68501 8.14932 8.7009ZM21.0124 11.2536C21.0335 11.2776 21.0545 11.3015 21.0757 11.3252C21.0734 11.3831 21.071 11.4411 21.0687 11.4993C21.086 11.5011 21.1034 11.5027 21.1207 11.5045C21.0982 11.2479 21.1481 11.3071 21.1972 11.1801C21.1357 11.2047 21.0741 11.229 21.0124 11.2536ZM7.76048 11.1408C7.92683 11.2234 7.99468 11.2373 7.93013 11.1402C7.86753 11.1178 7.8046 11.0952 7.742 11.0728C7.74826 11.0955 7.75452 11.1183 7.76048 11.1408ZM18.0935 2.95907C17.9689 3.05339 17.9319 2.99442 17.82 3.10386C17.8967 3.07438 17.9735 3.04504 18.0499 3.01574C18.0643 2.99696 18.0791 2.97785 18.0935 2.95907ZM21.242 6.98781C21.2662 6.92238 21.1511 6.80007 21.236 6.61613C21.2107 6.57229 21.1865 6.54482 21.1616 6.50714C21.1887 6.48522 21.216 6.46031 21.2428 6.43941C21.2428 6.43929 21.2428 6.43917 21.2428 6.43905C21.2337 6.27221 21.1998 6.38038 21.1712 6.37661C21.1593 6.37484 21.1792 6.25102 21.1533 6.28972C21.1089 6.35652 21.1344 6.60613 21.0803 6.60682C21.098 6.51912 21.0832 6.34787 21.0471 6.39852C21.0075 6.45401 21.0739 6.6154 21.041 6.71818C21.1275 6.5709 21.1008 6.87508 21.0343 6.90968C21.0854 7.08816 21.1062 6.92411 21.1038 6.74118C21.1547 6.85286 21.1272 6.68847 21.1695 6.6614C21.1951 6.77656 21.1738 7.17176 21.242 6.98781ZM21.1482 15.4084C21.1449 15.2851 21.174 15.0924 21.131 15.0079C21.106 14.9587 21.0866 15.1519 21.0473 15.0187C21.0511 15.1389 21.0665 15.1663 21.1009 15.1457C21.1051 15.1731 21.1091 15.2009 21.1131 15.2283C21.1064 15.2409 21.0998 15.2539 21.093 15.2666C21.1072 15.281 21.1213 15.2954 21.1355 15.3095C21.1327 15.3386 21.1299 15.368 21.127 15.3971C21.1341 15.4005 21.1403 15.4064 21.1482 15.4084ZM14.2381 5.18747C14.2675 5.16999 14.2967 5.15267 14.3261 5.1351C14.3186 5.12972 14.3104 5.1244 14.3023 5.11909C14.2962 5.11474 14.2901 5.11039 14.284 5.10604C14.3134 5.11721 14.4749 5.07067 14.5214 5.01379C14.5448 4.98521 14.4536 4.98442 14.5764 4.90417C14.4857 4.95932 14.4036 5.01397 14.3163 5.06892C14.3175 5.05237 14.3182 5.03588 14.3193 5.01934C14.3193 5.01935 14.3192 5.01936 14.3191 5.01938C14.2879 5.03381 14.2563 5.04832 14.2251 5.06276C14.2293 5.10439 14.2338 5.14583 14.2381 5.18747ZM18.9159 17.625C19.0305 17.66 19.0714 17.6675 19.0455 17.6021C19.0454 17.602 19.0453 17.6019 19.0452 17.6018C18.9979 17.5968 18.9505 17.5918 18.9031 17.5868C18.9073 17.5995 18.9114 17.6122 18.9159 17.625ZM20.2869 1.95132C19.9885 2.04166 20.5847 2.11612 20.5044 2.04015C20.5017 2.03146 20.3097 1.97125 20.2869 1.95132ZM21.0672 10.8644C21.0685 10.9326 21.0697 11.0009 21.0711 11.0694C21.0915 11.0537 21.1118 11.0375 21.1322 11.0218C21.1105 10.9694 21.0888 10.9168 21.0672 10.8644ZM8.42162 11.6095C8.46099 11.6848 8.61225 11.7912 8.71496 11.7933C8.67692 11.7647 8.63886 11.736 8.60082 11.7073C8.68106 11.7471 8.76073 11.7859 8.84141 11.8262C8.87729 11.7737 8.769 11.7537 8.64246 11.6604C8.62292 11.6459 8.52838 11.5004 8.45246 11.5251C8.43706 11.5303 8.57537 11.6197 8.45863 11.5932C8.50052 11.6207 8.5382 11.6417 8.57834 11.6667C8.57375 11.6815 8.56913 11.6963 8.56484 11.7112C8.51697 11.6773 8.46948 11.6435 8.42162 11.6095ZM21.1432 14.6903C21.1467 14.5208 21.1214 14.4999 21.0766 14.4646C21.0816 14.5434 21.0866 14.6222 21.0917 14.701C21.1088 14.6973 21.126 14.694 21.1432 14.6903ZM9.72595 12.3793C9.80262 12.4321 9.78644 12.3806 9.82224 12.3933C9.9575 12.4413 10.0278 12.512 10.1567 12.5675C10.1452 12.569 10.1346 12.5704 10.1234 12.5719C10.1235 12.572 10.1236 12.572 10.1237 12.5721C10.6801 12.9288 10.4211 12.6838 10.0723 12.4979C10.0711 12.4816 10.0702 12.4654 10.0689 12.4491C9.90398 12.3812 9.75141 12.3195 9.72595 12.3793ZM21.1616 3.957C21.1701 3.94947 21.2241 4.01352 21.1988 3.89329C21.1201 3.79808 21.1592 3.95423 21.1289 3.99333C21.1213 3.96079 21.114 3.9275 21.1064 3.8953C21.0842 4.08989 21.1029 4.11828 21.1604 4.04737C21.1643 4.04231 21.1532 3.96456 21.1616 3.957ZM21.1102 2.61131C20.9983 2.62651 21.1265 2.86891 21.1537 2.85826C21.148 2.81902 21.1219 2.79306 21.1192 2.75095C21.1153 2.70788 21.1394 2.68859 21.1102 2.61131ZM21.1721 9.71375C21.1726 9.70656 21.2214 9.63428 21.1832 9.64146C21.0928 9.73087 21.151 9.91103 21.1825 9.87951C21.1809 9.81993 21.1673 9.78019 21.1722 9.71375C21.1722 9.71375 21.1721 9.71375 21.1721 9.71375ZM7.44007 11.0744C7.44141 11.0789 7.58778 11.186 7.61703 11.1819C7.64388 11.1738 7.66311 11.1595 7.68617 11.1483C7.5903 11.1157 7.42364 11.0022 7.44038 11.0746C7.44028 11.0745 7.44017 11.0744 7.44007 11.0744Z" fill="black"/>
<path d="M3.32824 11.4558C3.25716 11.3627 3.55496 11.5688 3.38107 11.3906C3.42662 11.4117 3.47252 11.4328 3.51808 11.4538C3.51659 11.4818 3.51539 11.5098 3.5139 11.5377C3.4521 11.5105 3.39027 11.4833 3.32818 11.4559C3.3282 11.4559 3.32822 11.4559 3.32824 11.4558ZM3.0927 11.6805C3.18154 11.6497 3.36026 11.731 3.21026 11.5686C3.18352 11.5813 3.15643 11.5939 3.12969 11.6066C3.07567 11.5536 3.02127 11.5003 2.96721 11.4473C2.93973 11.4422 2.91227 11.4371 2.88484 11.4319C2.87698 11.3784 2.86944 11.3249 2.86163 11.2713C2.88434 11.2916 2.90734 11.3121 2.93005 11.3324C3.04932 11.3615 3.14482 11.4058 3.28657 11.4802C3.27942 11.4645 3.2722 11.4488 3.26506 11.4331C3.32683 11.4885 3.38854 11.5439 3.45001 11.5991C3.38083 11.5785 3.30353 11.5554 3.23937 11.5364C3.29628 11.6461 3.47384 11.7058 3.56357 11.7416C3.68577 11.7903 3.64448 11.803 3.73474 11.8398C3.74913 11.8457 3.76304 11.8251 3.78965 11.84C3.92384 11.9152 4.17599 12.076 3.99576 12.0387C3.78024 11.9057 3.57003 11.8379 3.36342 11.6991C3.38687 11.7898 3.26217 11.7441 3.0927 11.6805ZM7.22693 13.8215C7.14424 13.8113 7.01548 13.7218 6.93508 13.6493C6.93498 13.6493 6.93487 13.6492 6.93476 13.6491C6.91707 13.6332 6.89297 13.5694 6.95796 13.609C7.06382 13.6736 7.08175 13.7624 7.16118 13.755C7.18211 13.777 7.20477 13.7989 7.22693 13.8215ZM7.46229 13.9527C7.51982 14.0052 7.46434 14.0323 7.38881 13.9727C7.38879 13.9727 7.38876 13.9727 7.38874 13.9728C7.35723 13.9479 7.44503 13.9518 7.30106 13.9162C7.29184 13.8739 7.28156 13.8344 7.27211 13.7932C7.30259 13.8102 7.33057 13.8254 7.36248 13.8434C7.31488 13.8765 7.40471 13.9004 7.46229 13.9527ZM4.12153 12.0779C4.15552 12.043 4.112 12.0182 4.05454 11.9471C4.12347 11.9887 4.19237 12.0304 4.26101 12.0718C4.21439 12.0738 4.16815 12.0759 4.12153 12.0779ZM2.48744 11.126C2.48734 11.126 2.48723 11.1259 2.48713 11.1258C2.46056 11.1191 2.43391 11.1123 2.40769 11.1057C2.40247 11.0832 2.39738 11.0609 2.39217 11.0384C2.30355 11.0055 2.21451 10.9724 2.12584 10.9396C2.16141 10.9006 2.30207 10.9915 2.39988 11.0064C2.51078 11.0883 2.55301 11.1473 2.53888 11.1895C2.5218 11.1684 2.50482 11.1473 2.48744 11.126ZM14.9369 9.48556C14.9226 9.45439 14.9083 9.42362 14.894 9.39245C14.8875 9.43389 14.8825 9.475 14.875 9.51677C14.9371 9.62605 14.8821 9.63631 14.886 9.77947C14.8978 10.2183 14.9942 10.1019 14.8529 10.4982C14.8597 10.18 14.7933 10.3023 14.7422 10.1104C14.7811 10.0707 14.8689 10.2608 14.8871 10.132C14.8459 9.91003 14.8075 9.6966 14.7809 9.45032C14.7742 9.45752 14.7675 9.46467 14.7607 9.47187C14.765 9.51092 14.7692 9.54965 14.7735 9.5887C14.7555 9.54656 14.7376 9.50538 14.7194 9.46256C14.7603 9.51668 14.7374 9.37874 14.7844 9.3972C14.8053 9.40542 14.8343 9.46638 14.8543 9.50235C14.8652 9.40953 14.8751 9.31433 14.8857 9.22049C14.9023 9.26911 14.919 9.3177 14.9356 9.36598C14.9362 9.4057 14.9365 9.44511 14.9371 9.48483C14.937 9.48507 14.9369 9.48531 14.9369 9.48556ZM3.70792 8.18309C3.78566 8.08204 3.96709 7.96799 4.09177 7.95851C3.96372 8.0334 3.83597 8.1082 3.70792 8.18309ZM2.52862 11.2252C2.5212 11.2114 2.5141 11.1978 2.50667 11.184C2.56535 11.2002 2.62427 11.2166 2.68295 11.2328C2.68079 11.2592 2.67885 11.2857 2.67703 11.3121C2.62766 11.2832 2.578 11.2541 2.52862 11.2252ZM5.80604 13.0867C5.76799 13.0664 5.76508 13.0638 5.7203 13.034C5.72034 13.0341 5.72038 13.0341 5.72043 13.0342C5.70264 13.0224 5.55544 12.9213 5.58183 12.9153C5.65853 12.9592 5.74002 13.0066 5.81835 13.0519C5.81467 13.0637 5.80918 13.0744 5.80604 13.0867ZM4.9104 12.5572C4.91032 12.5571 4.91023 12.557 4.91015 12.5569C4.88369 12.5384 4.86014 12.5182 4.83191 12.5007C4.9499 12.5354 4.94028 12.5899 5.04166 12.6314C5.14309 12.6729 5.21554 12.6816 5.25974 12.7893C5.22474 12.7814 5.18517 12.7762 5.14841 12.7693C5.02914 12.6676 4.9798 12.67 4.85871 12.6325C4.876 12.6073 4.89312 12.5823 4.9104 12.5572ZM14.7929 11.4393C14.8281 11.4687 14.7936 11.5016 14.7931 11.505C14.7931 11.5049 14.7931 11.5049 14.793 11.5048C14.8256 11.7658 14.7735 11.4709 14.7681 11.7171C14.7593 11.6805 14.75 11.6444 14.7411 11.6081C14.758 11.552 14.7773 11.4941 14.7929 11.4393ZM12.8311 17.1651C12.8341 17.155 12.8368 17.1447 12.8398 17.1346C12.9668 17.2107 13.0196 17.1946 13.1078 17.2879C13.0155 17.247 12.9233 17.2061 12.831 17.1652C12.831 17.1651 12.8311 17.1651 12.8311 17.1651ZM6.41477 13.5242C6.26288 13.4591 6.15345 13.4058 6.0325 13.3002C6.03241 13.3001 6.03233 13.3 6.03224 13.2999C6.02533 13.2937 6.07411 13.2971 6.06654 13.2865C6.03677 13.273 6.00524 13.2605 5.97487 13.2474C5.9796 13.2303 5.9845 13.2133 5.98918 13.1963C6.06684 13.2468 6.14455 13.2972 6.22251 13.3479C6.21566 13.3323 6.20848 13.3167 6.20164 13.3011C6.27245 13.336 6.343 13.3708 6.41381 13.4057C6.37601 13.4164 6.33827 13.4271 6.30072 13.438C6.33869 13.4668 6.37684 13.4954 6.41477 13.5242ZM14.7814 17.3811C14.7601 17.3953 14.7654 17.3495 14.7393 17.3747C14.7139 17.3995 14.6925 17.4629 14.6761 17.432C14.7003 17.3928 14.7215 17.3499 14.7384 17.3071C14.6251 17.409 14.5565 17.5348 14.5072 17.485C14.6153 17.4109 14.6732 17.3087 14.6976 17.1881C14.752 17.2092 14.7354 17.3583 14.8211 17.2988C14.8095 17.3266 14.7959 17.3553 14.7815 17.3808C14.7815 17.3809 14.7815 17.381 14.7814 17.3811ZM0.560512 9.58963C0.595161 9.44414 0.742152 9.11221 0.906096 8.99803C0.944689 8.96462 1.12552 8.94201 1.13261 8.95595C1.15682 8.99445 1.03843 9.1074 1.19092 9.01461C1.1456 9.05194 1.10484 9.09242 1.06548 9.1359C1.0953 9.14928 1.1246 9.16329 1.15321 9.17815C1.19576 9.12794 1.24347 9.08058 1.29413 9.03785C1.30279 9.04422 1.3114 9.05067 1.31995 9.05715C1.13806 9.20149 1.26906 9.14697 1.21184 9.25167C1.29739 9.1891 1.39067 9.14101 1.48506 9.1081C1.43425 9.1345 1.3786 9.17147 1.33791 9.20173C1.36574 9.24502 1.45025 9.16628 1.47305 9.16556C1.53492 9.16144 1.43825 9.21934 1.35214 9.3134C1.26354 9.40552 1.19976 9.53737 1.22505 9.57314C1.27099 9.50669 1.32784 9.44483 1.39033 9.39458C1.38084 9.41732 1.37216 9.44062 1.36514 9.46341C1.21012 9.56218 1.09923 9.76275 1.06603 9.99235C1.06803 10.0132 1.07079 10.0339 1.07401 10.0541C1.09732 10.0467 1.12064 10.0401 1.14409 10.0336C1.14799 10.0623 1.15331 10.0911 1.16 10.119C1.07537 10.0423 1.07503 10.1604 1.08329 10.3282C1.02706 10.2558 1.02643 10.1441 0.977463 10.1593C1.04819 10.4381 1.21891 10.7616 1.4931 10.878C1.51068 10.8857 1.52825 10.8931 1.54582 10.9C1.61448 10.927 1.64724 10.8698 1.79275 10.9608C1.78408 10.9642 1.77668 10.975 1.76866 10.9814C2.04137 11.1024 2.20669 11.176 2.45761 11.3581C2.45403 11.3286 2.45076 11.2993 2.44718 11.2699C2.38462 11.2474 2.32186 11.225 2.25959 11.2026C2.2406 11.1465 2.30622 11.1645 2.13691 11.0672C1.9982 10.9875 2.07204 11.05 2.02857 11.0383C1.96964 11.0226 1.94043 10.9698 1.87671 10.9534C1.82751 10.9406 1.85727 10.9951 1.75069 10.9241C1.8161 10.9136 1.88309 10.9024 1.94905 10.8916C1.97134 10.9154 1.99335 10.9391 2.01559 10.963C1.9827 10.9569 1.95036 10.9509 1.91747 10.9449C2.02363 10.983 2.12392 11.019 2.2337 11.0584C2.17114 11.092 2.28519 11.1317 2.34454 11.1577C2.43701 11.1982 2.34177 11.1913 2.4022 11.2182C2.46268 11.245 2.54735 11.2402 2.64532 11.3082C2.5767 11.2997 2.63969 11.3639 2.61277 11.377C2.58582 11.3901 2.47418 11.332 2.56524 11.4159C2.77668 11.5142 2.6057 11.3063 2.74921 11.3714C2.92159 11.4497 2.88333 11.6056 2.81813 11.6062C2.76682 11.6067 2.63775 11.5261 2.58619 11.5264C2.79861 11.7031 2.84693 11.6242 2.89634 11.6318C3.07585 11.6593 2.88944 11.7549 3.0948 11.7999C3.07508 11.8265 3.05765 11.8506 3.03861 11.8761C3.07155 11.8882 3.09542 11.8928 3.13398 11.9095C3.05934 11.7924 3.1453 11.8452 3.19016 11.871C3.26088 11.9116 3.16745 11.8215 3.19017 11.8253C3.25141 11.8357 3.32627 11.8903 3.29146 11.8376C3.30684 11.8616 3.32404 11.8868 3.34007 11.9111C3.43075 11.9445 3.69329 11.9375 3.49491 11.855C3.53763 11.8208 3.58506 11.8765 3.62776 11.9101C3.67045 11.9437 3.68583 11.9151 3.72376 11.9439C3.87461 12.0587 3.74029 12.0453 3.69269 12.0682C3.92278 12.1664 3.72214 12.0276 4.04212 12.1892C4.08984 12.1757 3.96556 12.0602 4.09507 12.1113C4.0862 12.1774 4.15186 12.2665 4.31278 12.383C4.33648 12.3804 4.36021 12.3775 4.38391 12.3749C4.4489 12.4781 4.37154 12.5018 4.5798 12.5405C4.422 12.5994 4.52739 12.5643 4.65581 12.6995C4.68193 12.7269 4.59579 12.7083 4.63287 12.7454C4.64969 12.7623 4.70818 12.7726 4.74894 12.8142C4.76879 12.8346 4.85471 12.9421 4.94345 12.9658C4.91854 12.8788 5.0913 12.9167 4.99213 12.7994C5.21713 12.9441 5.39419 13.0114 5.09199 12.936C5.14121 12.9864 5.19052 13.0368 5.2398 13.0871C5.28824 13.0978 5.33698 13.1087 5.38567 13.1196C5.36603 13.168 5.35253 13.1769 5.51837 13.2622C5.44228 13.2324 5.36639 13.2029 5.28995 13.1729C5.28236 13.1806 5.26715 13.1844 5.26443 13.1945C5.36044 13.227 5.60709 13.3595 5.6727 13.3815C5.73833 13.4035 5.62677 13.3348 5.65036 13.333C5.8463 13.319 5.79453 13.3828 5.90508 13.4248C5.97 13.4494 5.8344 13.3571 5.86852 13.3713C5.99495 13.4242 6.0203 13.5064 6.12429 13.5673C6.10382 13.5171 6.08391 13.4667 6.06449 13.4167C6.17308 13.4815 6.29497 13.5522 6.40206 13.6017C6.44409 13.6212 6.42625 13.5823 6.4336 13.5847C6.47021 13.596 6.60865 13.6604 6.62264 13.6684C6.7277 13.7288 6.71359 13.7602 6.81465 13.8207C6.77317 13.8001 6.73421 13.7806 6.69367 13.7604C6.64813 13.7982 6.60225 13.8357 6.55666 13.8736C6.65461 13.9348 6.75264 13.9959 6.85088 14.0573C6.78687 13.999 6.72256 13.9405 6.65855 13.8822C6.79547 13.9095 6.93244 13.9367 7.06942 13.9639C7.11528 14.0222 7.16091 14.0803 7.20678 14.1386C7.37235 14.2258 7.39561 14.1102 7.4235 14.2393C7.47538 14.2597 7.52727 14.2802 7.57909 14.3006C7.56529 14.3088 7.55154 14.317 7.53774 14.3252C7.59959 14.351 7.66139 14.3768 7.72329 14.4025C7.6875 14.3247 7.65421 14.2454 7.61829 14.1692C7.73693 14.2253 7.71812 14.2629 7.72978 14.2817C7.76071 14.3316 7.86834 14.3505 7.89111 14.3933C7.89874 14.4079 7.77393 14.3677 7.79625 14.4174C7.80064 14.4271 7.89069 14.6143 7.99903 14.6456C8.00786 14.6262 8.01354 14.5995 8.02122 14.5773C8.15519 14.6397 8.16485 14.7732 8.13242 14.7903C8.21123 14.8107 8.31143 14.8665 8.34235 14.8451C8.37747 14.8644 8.41231 14.8836 8.44744 14.903C8.36993 14.9537 8.52227 15.0242 8.56731 14.9681C8.50856 14.9321 8.44978 14.8961 8.39103 14.8601C8.47969 14.8107 8.32478 14.6605 8.66148 14.9481C8.7109 15.029 8.53642 14.8688 8.57819 14.9321C8.67036 15.0081 8.77442 15.0491 8.85565 15.1324C8.95664 15.2363 8.78917 15.1834 9.0955 15.3023C8.53802 14.8352 9.22305 15.2778 9.53391 15.4123C9.55192 15.5661 9.7783 15.7422 10.1356 15.9058C10.1176 15.8555 10.0021 15.8094 9.94634 15.7641C9.89062 15.7187 9.96731 15.7393 9.89889 15.6812C9.83044 15.623 9.67888 15.5102 9.61363 15.4443C9.68902 15.4653 10.036 15.6122 9.79409 15.5367C9.93681 15.6586 9.99428 15.7325 10.1892 15.8524C10.2755 15.84 10.2879 15.8084 10.4818 15.9185C10.3301 15.9174 10.5235 16.0892 10.4365 16.1284C10.3086 16.0337 10.4227 16.0127 10.3615 15.9358C10.3552 15.928 10.2182 15.8707 10.1892 15.8524C10.2842 15.9853 10.3161 16.0328 10.1967 16.0567C10.2913 16.1032 10.3429 16.1446 10.3704 16.1161C10.381 16.1415 10.3918 16.167 10.4022 16.1922C10.432 16.209 10.4595 16.223 10.4907 16.2414C10.4764 16.1663 10.5425 16.2456 10.6152 16.2573C10.688 16.269 10.6309 16.1832 10.7949 16.2772C10.7471 16.2339 10.703 16.195 10.6566 16.1534C10.7697 16.2015 10.8831 16.2497 10.9962 16.2977C10.9397 16.2243 10.8053 16.0859 10.8329 16.0482C10.8728 16.0915 11.0549 16.1609 11.0737 16.1703C11.1467 16.207 11.0936 16.2102 11.0985 16.2139C11.2023 16.2903 11.2987 16.3344 11.3186 16.3973C11.412 16.428 11.4691 16.4742 11.5581 16.5243C11.607 16.5518 11.6139 16.5181 11.6393 16.5399C11.8079 16.685 11.6064 16.6175 12.0117 16.7586C11.9789 16.7134 11.947 16.668 11.9142 16.6226C11.9598 16.639 12.0051 16.6552 12.0506 16.6716C12.0761 16.6911 12.1014 16.7105 12.1269 16.73C12.1017 16.7724 12.0762 16.8148 12.0509 16.8572C12.0799 16.877 12.1089 16.8968 12.1378 16.9166C12.0835 16.8909 12.029 16.865 11.9747 16.8393C11.9656 16.8441 11.9568 16.849 11.9477 16.8538C12.0181 16.91 12.0882 16.9661 12.1586 17.0224C12.1686 17.0084 12.1787 16.9943 12.1888 16.9802C12.3507 17.1013 12.3476 17.1163 12.5365 17.1707C12.6635 17.2447 12.803 17.2423 12.8917 17.2587C12.9133 17.2822 12.9349 17.3059 12.9567 17.3297C12.9808 17.3271 13.005 17.3246 13.029 17.322C13.0526 17.3586 13.0767 17.3954 13.1003 17.4319C13.1416 17.4036 13.1583 17.397 13.0354 17.3078C13.1082 17.2851 13.3261 17.4394 13.4105 17.5099C13.4745 17.5633 13.3721 17.5583 13.3782 17.5683C13.3982 17.6022 13.5238 17.6555 13.5468 17.6725C13.5524 17.6766 13.5579 17.6806 13.5634 17.6845C13.6424 17.7419 13.7102 17.7669 13.7959 17.7983C13.8132 17.8051 13.8607 17.8437 13.8656 17.845C13.8999 17.8566 13.9897 17.8753 14.0003 17.8747C14.5255 17.8174 13.9691 17.8199 14.3988 17.6812C14.379 17.6725 14.3607 17.6629 14.3422 17.6529C14.3706 17.6382 14.3985 17.6218 14.4249 17.604C14.4664 17.5936 14.4408 17.6436 14.4955 17.5785C14.5039 17.5984 14.5119 17.6185 14.5193 17.6389C14.5436 17.6072 14.5645 17.5753 14.5842 17.5412C14.6827 17.5606 14.8329 17.3704 14.8951 17.4214C14.9221 17.4407 14.8358 17.6192 14.9204 17.5513C14.9727 17.4823 14.9116 17.5128 14.9284 17.4825C15.0335 17.2606 15.0579 17.281 15.0748 17.1788C15.0582 17.1582 15.0407 17.1378 15.0228 17.1187C15.0354 17.0836 15.0461 17.0478 15.055 17.0105C15.0418 17.0006 15.0283 16.9911 15.0148 16.9821C15.0122 17.0156 15.0074 17.0535 15.0018 17.0838C14.9838 17.0639 14.9764 16.9954 14.9663 16.9282C14.951 16.8185 14.9528 16.7069 14.9811 16.7982C14.9998 16.8589 14.9918 16.9699 15.0558 16.8997C15.0465 16.7953 15.0371 16.6767 15.0279 16.5668C15.0417 16.5633 15.0555 16.5601 15.0692 16.5567C15.0603 16.4085 15.0053 16.5433 14.9758 16.543C14.975 16.5091 14.9743 16.4749 14.9734 16.441C14.9868 16.4266 15.0007 16.4129 15.0136 16.3979C14.9924 16.3965 14.9431 16.3775 14.9614 16.2765C14.9733 16.2115 15.0269 16.3138 15.0194 16.19C14.9863 16.1992 14.946 16.244 14.9353 16.106C14.9699 16.0923 15.0016 16.0733 15.0379 16.0627C15.0047 15.8911 15.058 15.813 15.0194 15.6116C14.995 15.4838 14.9083 15.3088 15.0419 15.2262C15.0454 15.1328 15.0122 15.1624 15.0047 15.1348C14.9693 15.0043 15.0326 14.9072 15.0364 14.8829C15.0602 14.7277 15.0383 14.6582 15.0682 14.5318C15.0435 14.5386 15.0201 14.5424 14.9959 14.5479C15.033 14.6637 15.0313 14.7223 15.0233 14.8847C15.0183 14.8302 15.0132 14.7757 15.0083 14.7213C14.9882 14.7302 14.9681 14.739 14.9482 14.7476C15.0272 15.2498 14.9023 15.1326 14.875 14.7116C14.9121 14.6753 14.9492 14.6377 14.9864 14.6017C14.9301 14.3585 14.979 14.244 14.9907 13.969C14.992 13.9363 14.9706 13.8172 14.9696 13.766C14.9694 13.7668 14.9693 13.7677 14.9692 13.7685C14.9341 13.7367 14.9179 13.7798 14.8866 13.785C14.8826 13.7572 14.8787 13.7295 14.8748 13.7017C14.8987 13.6398 14.9183 13.6615 14.9126 13.5396C14.8888 13.556 14.865 13.5723 14.8412 13.5887C14.8404 13.4551 14.8663 13.3677 14.8551 13.2433C14.8641 13.2642 14.8731 13.2848 14.8821 13.3057C14.9051 13.0351 15.045 13.2505 14.9754 13.046C14.9876 13.033 14.9999 13.0203 15.0121 13.0073C15.0151 13.0915 15.018 13.1758 15.021 13.2597C15.0383 13.2615 15.0555 13.2633 15.0728 13.2647C15.0676 13.1746 15.0623 13.084 15.0571 12.9939C15.0687 13.0597 15.0803 13.1259 15.0919 13.1916C15.1002 13.0872 15.1085 12.9827 15.1167 12.8782C15.0532 12.9891 15.0454 12.8453 14.9825 12.8724C15.0349 12.6874 15.1039 12.5421 15.0597 12.2553C15.0509 12.1985 15.007 12.2293 15.0605 12.068C14.9905 12.1071 14.9577 11.9049 14.8912 11.9309C14.8944 11.9871 14.8964 12.0453 14.9003 12.0998C14.9234 12.0378 14.9869 12.0275 15.0057 12.1217C15.0297 12.2419 14.9857 12.4173 15.0562 12.4101C15.0529 12.4581 15.0509 12.5027 15.0481 12.5492C15.0306 12.5301 15.0131 12.5113 14.9956 12.4925C15.023 12.625 15.0141 12.7082 14.97 12.7719C14.9599 12.614 14.9498 12.4565 14.9398 12.2986C14.9368 12.3218 14.9338 12.3454 14.9309 12.3687C14.8859 12.2491 14.8432 12.3724 14.8336 12.1494C14.8542 12.1508 14.8748 12.1519 14.8955 12.1533C14.8404 12.0721 14.8407 11.8498 14.7774 11.9207C14.7968 11.8535 14.8092 11.8399 14.775 11.8018C14.8231 11.6247 14.884 11.511 14.9566 11.574C14.9449 11.5082 14.9332 11.4424 14.9215 11.377C14.9017 11.415 14.8819 11.4531 14.862 11.4911C14.8633 11.3767 14.8645 11.2615 14.8656 11.1474C14.9244 11.1364 14.8835 11.3676 14.936 11.3009C14.9466 11.2876 14.924 11.226 14.9299 11.2098C14.9942 11.0392 14.9477 11.307 14.997 11.2567C15.0122 11.0025 15.0947 11.2059 15.0254 10.8558C15.0423 10.8466 15.0596 10.8366 15.0765 10.8281C15.0775 10.7065 15.0392 10.7164 15.032 10.6119C15.0275 10.5465 15.0948 10.4644 15.0489 10.3921C15.0405 10.3793 14.9582 10.5008 14.9618 10.2454C14.9646 10.0471 15.0228 10.1296 15.0434 10.0225C15.064 9.91523 14.9834 9.66993 15.0747 9.59765C15.0626 9.65381 15.0561 9.72536 15.0462 9.78769C15.064 9.81304 15.0816 9.83771 15.0993 9.86272C15.0763 9.72021 15.1034 9.5729 15.0609 9.47698C15.1258 9.28684 15.0656 9.07421 14.9923 9.13176C15.0029 9.19434 15.0349 9.12626 15.0145 9.21318C14.9974 9.22209 14.9804 9.23148 14.9634 9.24038C14.9654 9.09239 14.9649 8.98961 15.017 9.0571C15.0182 9.03414 15.0195 9.01141 15.0207 8.98846C14.9831 8.98434 14.9452 8.9807 14.9076 8.97659C14.9033 8.94918 14.8991 8.92166 14.8949 8.89426C14.9032 8.86378 14.9115 8.83324 14.9199 8.80243C14.9795 8.84388 14.9815 8.91449 15.0148 8.68085C14.9942 8.68016 14.9737 8.67916 14.9531 8.67847C14.9793 8.48287 15.0292 8.47771 15.0273 8.23212C15.0988 8.42053 14.9721 8.52362 15.1155 8.52294C15.1061 8.57021 15.0965 8.61787 15.0871 8.66515C15.1079 8.67234 15.1288 8.67947 15.1496 8.68632C15.1386 8.43249 15.0018 8.01085 15.0925 7.8409C15.0814 7.82035 15.0718 7.79972 15.0599 7.77883C15.1147 7.61234 14.9917 7.54044 15.0625 7.37155C15.07 7.35413 15.1854 7.39059 15.1813 7.17074C15.1663 7.17621 15.141 7.17906 15.1221 7.18351C15.1313 7.13591 15.1409 7.08856 15.1504 7.0413C15.1365 7.03274 15.1226 7.02376 15.1087 7.0152C15.1033 7.09639 15.0978 7.17735 15.0924 7.25855C15.0877 7.19108 15.0829 7.12319 15.0782 7.05572C15.0555 7.14374 15.0553 7.18344 15.019 7.13039C15.0168 7.054 15.0145 6.97749 15.0123 6.9011C15.003 6.89323 14.9936 6.88542 14.9843 6.87755C14.9566 6.91454 14.9294 6.95191 14.9013 6.98891C14.9239 6.78988 14.9252 6.61684 14.9797 6.46406C14.9889 6.43802 15.0251 6.5301 14.9925 6.3527C15.0116 6.34996 15.0271 6.34519 15.0448 6.34211C14.9912 6.12491 15.0072 6.05356 15.0459 5.82712C15.0098 5.97374 15.0333 5.84292 15.014 5.80557C15.0006 5.77999 15.0026 5.87985 14.9886 5.86856C14.9748 5.85725 14.9188 5.72749 14.912 5.83844C15.0268 6.11044 14.8896 6.18454 14.9447 6.53398C14.9299 6.48019 14.9151 6.42602 14.9003 6.37223C14.8903 6.39756 14.8812 6.42024 14.8705 6.44763C14.893 6.25274 14.8784 6.34752 14.8607 6.26744C14.843 6.18728 14.828 6.04159 14.8231 5.94395C14.8216 5.9132 14.8473 5.94564 14.8497 5.87622C14.8514 5.82896 14.8132 5.69976 14.8582 5.66994C14.8875 5.65041 14.9681 5.85796 14.9679 5.57099C14.9966 5.51698 14.9877 5.65456 14.9912 5.65752C15.0253 5.68253 15.051 5.50611 15.0249 5.42458C15.0227 5.41798 14.9961 5.48236 14.9856 5.41235C14.9607 5.2462 14.9912 5.15024 15.0325 5.04267C14.9841 5.03102 14.9262 4.8912 14.9441 4.71717C14.9303 4.70827 14.9163 4.69979 14.9023 4.69088C14.9097 4.7179 14.9169 4.74492 14.9242 4.77194C14.9155 4.8014 14.9092 4.83261 14.899 4.86139C14.8871 4.68638 14.8203 4.66162 14.7959 4.5777C14.7125 4.2905 14.8889 4.46456 14.9194 4.51636C14.907 4.5537 14.8933 4.58981 14.8804 4.62681C14.8972 4.6227 14.9142 4.61852 14.9312 4.61476C14.9307 4.18483 15.0407 4.54929 15.0721 4.33106C14.9891 4.27488 14.9811 4.11461 15.0337 3.91045C15.0333 3.88784 15.0332 3.86515 15.0327 3.84254C15.0206 3.83878 15.0021 3.83883 14.9941 3.83268C14.98 3.58671 15.1079 3.54289 15.12 3.5196C15.1737 3.41615 15.0994 3.33559 15.0987 3.30509C15.0966 3.198 15.1191 3.15424 15.1185 3.07179C15.1184 3.05331 15.1169 3.03321 15.1134 3.01091C15.0861 2.86698 15.0693 2.96899 15.0423 2.92896C15.0214 2.89731 14.9959 2.79334 14.9632 2.75788C14.983 2.76954 15.003 2.78443 15.0223 2.79773C15.0043 2.65384 14.9702 2.52933 14.8695 2.39063C14.6727 2.31799 14.6562 2.09311 14.6167 2.24981C14.73 2.34958 14.7695 2.42973 14.7828 2.51281C14.7248 2.44066 14.6567 2.37749 14.5816 2.32561C14.5708 2.29611 14.5647 2.27144 14.5465 2.23898C14.4694 2.22684 14.3295 2.14735 14.2636 2.1426C13.9615 2.13365 14.0713 2.20201 13.7961 2.13479C13.9826 2.09346 13.9878 2.04312 14.1875 2.07807C14.1517 2.03364 14.0421 2.03145 14.1164 1.99601C13.9069 1.99259 13.975 2.0397 13.9016 2.07624C13.8394 2.109 13.7186 2.14314 13.737 2.17819C13.7191 2.16194 13.7032 2.14595 13.6842 2.13057C13.6216 2.15207 13.5617 2.17956 13.5041 2.21286C13.4532 2.24227 13.4024 2.2717 13.3516 2.30115C13.387 2.25571 13.4224 2.21024 13.458 2.16488C13.4189 2.178 13.3798 2.19117 13.3407 2.20429C13.1074 2.41671 12.5853 2.57577 12.7433 2.67966C12.6173 2.75865 12.5906 2.74959 12.5046 2.76232C12.5033 2.77788 12.5011 2.79145 12.5006 2.80827C12.4108 2.84459 12.3711 2.92311 12.2916 2.95457C12.2121 2.98611 12.1712 2.95721 12.1987 3.0296C12.1403 3.03801 12.084 3.04947 12.0266 3.05905C12.0069 3.09053 11.987 3.12181 11.9675 3.15303C11.9184 3.17083 11.8693 3.18873 11.8203 3.20653C11.8147 3.25188 11.6319 3.33927 11.567 3.40503C11.4741 3.41323 11.4142 3.30477 11.253 3.42345C11.2728 3.4475 11.2925 3.4715 11.3124 3.49555C11.2697 3.51277 11.227 3.53005 11.184 3.54745C11.1766 3.54013 11.1696 3.53263 11.1622 3.52531C11.1839 3.51636 11.2053 3.50754 11.2271 3.49868C11.2011 3.49408 11.1755 3.48935 11.1498 3.48459C11.1022 3.54113 11.0545 3.59772 11.0065 3.65443C11.0976 3.62382 11.1887 3.59321 11.2798 3.5626C11.1887 3.64124 11.1063 3.66288 11.0298 3.73605C10.9312 3.744 10.9476 3.70633 10.956 3.6483C10.9292 3.66832 10.902 3.68841 10.8752 3.70842C10.8711 3.65759 10.8087 3.66192 10.9788 3.56805C10.9607 3.56335 10.9426 3.55931 10.9245 3.554C10.898 3.57172 10.8745 3.57243 10.8468 3.59429C10.7712 3.65391 10.7485 3.76046 10.7683 3.78177C10.7787 3.79287 10.8459 3.72132 10.8531 3.74139C10.8707 3.79038 10.6726 3.87818 10.9674 3.76737C10.8944 3.84716 10.8621 3.83739 10.7589 3.8861C10.7752 3.89643 10.7911 3.90679 10.8071 3.91728C10.7575 3.93684 10.7078 3.95646 10.6582 3.97602C10.6779 3.86346 10.3247 4.02936 10.5895 3.78794C10.4979 3.83625 10.4067 3.88437 10.3153 3.93234C10.3292 3.91392 10.3432 3.89559 10.3571 3.87717C10.3998 3.858 10.4422 3.8389 10.4849 3.81964C10.4292 3.8328 10.3735 3.84608 10.3178 3.85923C10.2159 3.94163 10.1876 3.99417 10.1556 4.05732C10.3003 4.00643 10.2383 3.99764 10.3362 3.93228C10.3449 3.95556 10.3609 3.97238 10.3648 3.99981C10.2869 3.98618 10.134 4.11714 10.0955 4.14224C9.97825 4.21861 10.0482 4.12064 9.96673 4.16645C9.88522 4.21232 9.80454 4.29318 9.71364 4.28854C9.72869 4.31187 9.74833 4.33365 9.76569 4.35278C9.64416 4.43346 9.65294 4.39057 9.63776 4.39444C9.39462 4.45427 9.31105 4.57052 9.07639 4.71425C9.11094 4.70422 9.14538 4.69328 9.17997 4.68263C9.02968 4.83738 9.14174 4.75187 9.30751 4.67862C9.1583 4.75796 9.0996 4.84974 9.00381 4.92226C8.90802 4.99474 8.7181 5.07465 8.64337 5.09463C8.77527 4.98119 8.94559 4.90744 9.1055 4.80484C9.07269 4.79117 9.04258 4.78095 9.00778 4.7652C8.93746 4.87426 8.85971 4.87338 8.82285 4.88557C8.71462 4.92143 8.7431 4.96374 8.6573 4.95008C8.66908 4.96501 8.67874 4.97772 8.6899 4.99158C8.48632 5.10004 8.25431 5.19555 8.15913 5.33079C8.12465 5.29848 8.09391 5.26592 8.05719 5.23383C7.98967 5.31212 7.89984 5.32373 7.83262 5.37173C7.7657 5.41956 7.81097 5.43563 7.73465 5.49595C7.72051 5.50709 7.67695 5.50583 7.64741 5.54237C7.61754 5.57919 7.53917 5.77004 7.46718 5.68441C7.39543 5.72524 7.32576 5.76081 7.25481 5.79962C7.31994 5.75485 7.38519 5.71023 7.45002 5.66563C7.37853 5.67608 7.30744 5.68639 7.23595 5.69684C7.24043 5.72174 7.24511 5.74702 7.24973 5.77147C7.10758 5.88701 6.97444 5.91893 6.82092 6.0182C6.79529 6.03479 6.88111 6.03958 6.75797 6.09683C6.63478 6.15409 6.5039 6.12823 6.32122 6.27288C6.31202 6.28022 6.28653 6.37262 6.19175 6.37356C6.1702 6.37382 6.23087 6.32075 6.18659 6.33031C6.14227 6.33988 5.96978 6.4263 5.94022 6.40525C5.94784 6.41435 5.96431 6.41883 5.9753 6.42622C5.94962 6.4475 5.92366 6.46895 5.89763 6.49031C5.88466 6.47401 5.87147 6.45782 5.85856 6.44162C5.71875 6.57766 5.6732 6.69421 5.41761 6.81192C5.50079 6.79842 5.58406 6.78502 5.66695 6.77169C5.67514 6.74271 5.68328 6.71358 5.69117 6.68477C5.8072 6.62746 5.9235 6.56992 6.03952 6.51262C6.04596 6.48129 6.05211 6.45022 6.05855 6.41889C6.08977 6.40445 6.12064 6.3901 6.15185 6.37566C6.15308 6.39491 6.1542 6.41412 6.15512 6.43354C6.21173 6.39596 6.26837 6.35826 6.32468 6.32085C6.25672 6.47787 5.98813 6.50514 6.04618 6.57015C6.01317 6.57392 5.98007 6.57764 5.94701 6.58132C5.95613 6.62383 5.89651 6.6445 5.79865 6.69347C5.8305 6.69863 5.86447 6.70223 5.89465 6.70859C5.78829 6.73678 5.62655 6.83339 5.52578 6.87878C5.48152 6.89872 5.5083 6.84862 5.49409 6.85275C5.42109 6.87362 5.32535 6.98934 5.29776 7.00049C5.13296 7.06719 4.98425 7.03846 4.85052 7.19119C5.03037 7.106 4.93351 7.15405 5.01279 7.15022C5.03761 7.14904 5.27141 7.04149 4.98825 7.19279C4.95501 7.21046 4.4165 7.44219 4.55597 7.30099C4.48277 7.36262 4.42858 7.41629 4.36272 7.47487C4.11072 7.46046 4.23902 7.5366 4.32793 7.56796C4.29812 7.58553 4.26998 7.60262 4.23912 7.62043C4.26707 7.51742 3.93069 7.70623 3.83635 7.80456C3.80469 7.83742 3.92291 7.79697 3.84079 7.85753C3.79634 7.8771 3.74549 7.89857 3.69836 7.91898C3.78624 7.92321 3.66965 8.0117 3.69562 8.05262C3.59365 8.06167 3.48643 8.01796 3.50582 7.94951C3.44941 8.00526 3.39265 8.06118 3.33629 8.11702C3.37289 8.10915 3.40984 8.10097 3.44643 8.09311C3.21405 8.19214 2.96943 8.41332 2.87317 8.35142C2.84475 8.36866 2.81598 8.386 2.78757 8.40324C2.78726 8.42326 2.78726 8.44313 2.78695 8.46315C2.64929 8.52542 2.51187 8.58744 2.3742 8.64972C2.48482 8.57355 2.50019 8.53643 2.63171 8.48343C2.57497 8.49337 2.51731 8.50372 2.46147 8.51315C2.30501 8.6649 2.29752 8.70959 2.014 8.855C2.00118 8.86157 1.77064 8.94316 1.76134 8.94351C1.71879 8.94514 1.75387 8.89155 1.73433 8.89124C1.6799 8.89016 1.39938 8.9705 1.3988 8.95853C1.39332 8.81064 2.21737 8.33287 2.43712 8.19823C4.71635 6.80178 7.02616 5.57596 9.31776 4.2345C9.34127 4.22064 9.3213 4.20987 9.33097 4.20334C9.39113 4.163 9.46764 4.15358 9.4914 4.1413C9.54212 4.11497 9.50099 4.10661 9.5371 4.08573C9.91049 3.87052 10.2709 3.68134 10.642 3.46156C10.6662 3.44725 10.6525 3.48086 10.6932 3.45279C10.7142 3.43819 10.7662 3.36877 10.8157 3.33958C10.9887 3.23769 11.1402 3.16285 11.3232 3.05655C11.4234 2.99839 11.5753 2.91404 11.6871 2.84886C11.7365 2.82008 11.7803 2.77677 11.829 2.74807C11.898 2.70737 11.8997 2.74296 11.9113 2.7385C11.9625 2.71888 11.9516 2.68504 11.9965 2.66006C12.0802 2.61371 12.0962 2.63123 12.2002 2.56889C12.2746 2.5243 12.4372 2.40925 12.5292 2.34995C12.7639 2.24547 13.0375 2.0752 13.2395 1.94828C13.2753 1.92582 13.3028 1.91201 13.3251 1.9029C13.3945 1.87252 13.4231 1.87706 13.4717 1.85509C13.7152 1.75073 13.9286 1.68197 14.1898 1.71432C14.5355 1.76511 14.8023 1.94807 15.0162 2.19399C15.0504 2.23474 15.0658 2.20648 15.0992 2.24846C15.2244 2.40286 15.33 2.64415 15.3535 2.8199C15.3701 2.92858 15.3586 2.99943 15.3482 3.07179C15.3395 3.11521 15.3331 3.16026 15.3371 3.22258C15.3397 3.26365 15.3775 3.27569 15.3824 3.34453C15.39 3.45448 15.3567 3.57504 15.3529 3.65177C15.348 3.75694 15.3865 3.66548 15.3814 3.80731C15.3811 3.81314 15.3536 3.83436 15.3549 3.86481C15.3586 3.95354 15.3803 3.94473 15.3783 4.07457C15.378 4.08703 15.3517 4.25918 15.3516 4.2763C15.3512 4.37701 15.342 4.57978 15.3476 4.6394C15.3674 4.85249 15.4089 4.68473 15.3189 4.86595C15.3409 4.94575 15.3632 5.02489 15.3847 5.10949C15.3647 5.05303 15.3359 5.28215 15.3377 5.29825C15.3527 5.43143 15.3878 5.3521 15.382 5.52097C15.301 5.29795 15.3715 5.73884 15.3736 5.83716C15.3836 6.31058 15.3635 6.74092 15.364 7.21674C15.3642 7.37603 15.3813 7.5895 15.3809 7.75802C15.3809 7.7973 15.3617 7.76762 15.3613 7.8022C15.361 7.83669 15.3825 7.79843 15.3814 7.8378C15.3739 8.08273 15.3333 8.27464 15.384 8.49902C15.3767 8.50994 15.3709 8.50959 15.3629 8.52768C15.4083 8.7113 15.3472 9.06493 15.3388 9.19785C15.3258 9.40574 15.3565 9.45885 15.3503 9.60988C15.342 9.8096 15.282 10.1095 15.3811 9.97554C15.3842 10.1125 15.385 10.2444 15.3758 10.3828C15.3748 10.3982 15.3496 10.3876 15.3491 10.3938C15.3455 10.4328 15.368 10.4455 15.369 10.4719C15.3718 10.5434 15.3448 10.4267 15.3524 10.5287C15.3564 10.5825 15.3761 10.613 15.3765 10.7624C15.3787 11.6627 15.3716 12.6401 15.3683 13.563C15.3681 13.6263 15.3924 13.5846 15.3909 13.6641C15.3855 13.9402 15.3445 14.4345 15.3501 14.6725C15.3557 14.9106 15.3913 14.8569 15.4062 15.0059C15.4091 15.0347 15.3888 15.0111 15.3885 15.0371C15.3866 15.2122 15.355 15.4209 15.3502 15.5627C15.347 15.6565 15.379 15.649 15.3812 15.714C15.3846 15.811 15.3523 15.9108 15.3513 15.9625C15.3467 16.2057 15.3727 16.3729 15.3595 16.6C15.3665 16.5911 15.373 16.5852 15.3799 16.5777C15.3794 16.6946 15.3789 16.8114 15.3784 16.9282C15.3782 17.1346 15.3312 17.3454 15.2375 17.5345C15.2509 17.5216 15.264 17.5088 15.2772 17.4951C15.0676 17.8877 15.0037 17.7738 15.1522 17.8423C15.1351 17.872 15.1163 17.9032 15.0977 17.9304C15.0481 17.8695 14.8346 18.0455 14.5299 18.1541C14.5107 18.1638 14.3788 18.2865 14.3702 18.1963C14.3367 18.2283 14.3158 18.2486 14.2844 18.2746C14.2098 18.2636 14.1369 18.2469 14.0688 18.2243C14.0329 18.2302 13.9962 18.2345 13.9596 18.2373C13.9536 18.2542 13.9573 18.2721 13.9445 18.2884C13.7708 18.2951 13.4474 18.172 13.3284 18.0915C13.3248 18.0894 13.3214 18.0875 13.3181 18.0857C13.0964 17.9641 12.8504 17.8754 12.7051 17.7338C12.6196 17.6904 12.6852 17.7669 12.5639 17.692C12.5585 17.6693 12.5535 17.6476 12.5477 17.6241C12.409 17.6316 12.411 17.5794 12.2807 17.486C12.1926 17.4227 12.1222 17.4034 12.035 17.3489C12.0129 17.3351 12.0272 17.3176 12.0115 17.3094C11.9586 17.2815 11.7959 17.2229 11.759 17.2026C11.4245 17.0188 11.1423 16.8519 10.8316 16.6631C10.7982 16.6428 10.8311 16.6872 10.7966 16.6661C10.741 16.6324 10.791 16.6223 10.7592 16.602C10.6704 16.5456 10.6519 16.576 10.524 16.5044C10.103 16.2683 9.63572 15.9677 9.20022 15.7135C9.18657 15.7056 9.17696 15.7241 9.16202 15.7158C9.06482 15.6608 8.98103 15.5799 8.89308 15.5295C8.7472 15.4457 8.62308 15.4079 8.47924 15.3247C8.19804 15.1622 7.95425 15.0042 7.66541 14.8365C7.42902 14.6991 7.22201 14.5828 6.96247 14.4329C5.82875 13.7778 4.63858 13.1671 3.51454 12.4775C3.48595 12.4599 3.50699 12.4508 3.49773 12.4464C3.40949 12.4046 3.38954 12.4218 3.38561 12.3595C3.27314 12.3064 3.21972 12.3207 3.0915 12.2434C3.02315 12.2023 3.10503 12.1796 2.97253 12.1391C2.85286 12.1027 2.95272 12.1987 2.65585 11.9881C2.648 11.9825 2.62558 11.9269 2.55551 11.8975C2.48518 11.8679 2.54785 11.9347 2.38603 11.8504C2.05842 11.6798 1.67636 11.4344 1.29795 11.216C1.21434 11.1677 1.13531 11.1117 1.06246 11.0489C1.01874 11.0328 0.735874 10.7077 0.705454 10.6234C0.623912 10.4791 0.604158 10.5214 0.544583 10.3087C0.506183 10.1412 0.52748 9.99859 0.5454 9.80327C0.54889 9.78089 0.516969 9.73609 0.560512 9.58963ZM14.8749 8.98882C14.8435 8.96073 14.728 8.91003 14.7631 8.74018C14.7664 8.72408 14.8459 8.81099 14.8585 8.71718C14.8669 8.80898 14.8696 8.89838 14.875 8.98882C14.8749 8.98882 14.8749 8.98882 14.8749 8.98882ZM1.59852 9.35517C1.51223 9.4017 1.435 9.4641 1.37233 9.5396C1.40115 9.47682 1.43978 9.4164 1.48724 9.36089C1.52495 9.35622 1.56224 9.35438 1.59852 9.35517ZM13.5078 17.5845C13.5077 17.5844 13.5076 17.5843 13.5075 17.5843C13.5377 17.5975 13.568 17.6108 13.5983 17.624C13.6752 17.6554 13.754 17.6743 13.8317 17.6805C13.8188 17.6888 13.8053 17.6968 13.7917 17.7044C13.721 17.6998 13.6487 17.685 13.5774 17.6602C13.5597 17.6536 13.542 17.6469 13.5243 17.6402C13.5188 17.6216 13.5133 17.603 13.5078 17.5845ZM12.5356 17.1573C12.4683 17.1033 12.4973 17.0947 12.4674 17.0527C12.4674 17.0527 12.4674 17.0528 12.4673 17.0528C12.4594 17.0418 12.4119 17.0087 12.393 16.9968C12.3932 17.0129 12.3956 17.03 12.3965 17.0462C12.2075 16.9756 11.9296 16.6784 12.3899 16.8891C12.3746 16.9003 12.3598 16.9117 12.3445 16.923C12.5639 17.044 12.7868 17.2162 12.5356 17.1573ZM14.8248 6.97522C14.7679 6.76145 14.7559 6.6929 14.7949 6.43357C14.811 6.4702 14.8272 6.50684 14.8433 6.54347C14.8269 6.58629 14.8105 6.6288 14.7941 6.67163C14.7941 6.67175 14.7941 6.67187 14.7941 6.67199C14.8113 6.68055 14.8286 6.68915 14.8459 6.69737C14.8389 6.78985 14.8318 6.88273 14.8248 6.97522ZM5.46955 13.0302C5.47479 12.9019 5.45664 12.9678 5.61684 13.0307C5.67232 13.0524 5.63253 13.0065 5.66593 13.0219C5.8464 13.1052 5.82203 13.1791 5.76395 13.1914C5.66559 13.1377 5.56634 13.0832 5.46987 13.0304C5.46976 13.0303 5.46965 13.0302 5.46955 13.0302ZM1.16964 10.3828C1.16959 10.3826 1.16955 10.3825 1.1695 10.3824C1.19307 10.3676 1.22867 10.426 1.22009 10.345C1.24331 10.3984 1.27202 10.4494 1.30591 10.4968C1.29379 10.4843 1.28204 10.4712 1.27063 10.4579C1.27071 10.476 1.27121 10.4941 1.27256 10.5126C1.3113 10.5115 1.3059 10.538 1.34031 10.5928C1.35379 10.557 1.36909 10.5224 1.38597 10.489C1.4187 10.5461 1.45985 10.6002 1.50851 10.6492C1.50404 10.6566 1.49959 10.664 1.49517 10.6714C1.523 10.6784 1.55069 10.6837 1.57835 10.6877C1.579 10.7001 1.57975 10.7124 1.58098 10.7249C1.58112 10.725 1.58125 10.725 1.58139 10.7251C1.61803 10.7373 1.65473 10.7496 1.69142 10.7617C1.68904 10.789 1.61112 10.7564 1.74289 10.8252C1.69071 10.8244 1.63865 10.8237 1.58617 10.8228C1.57095 10.8138 1.55573 10.8048 1.54051 10.7959C1.37663 10.6997 1.24525 10.5544 1.16964 10.3828ZM6.82787 13.774C6.61278 13.6553 6.68168 13.6744 6.75907 13.654C6.78189 13.694 6.80506 13.7341 6.82787 13.774ZM14.9046 14.1577C14.8662 14.0865 14.8282 14.0149 14.7911 13.942C14.7697 13.7967 14.8397 13.6514 14.8671 13.7607C14.9 13.8922 14.8632 14.0296 14.9046 14.1577ZM14.8875 10.8494C14.8697 11.0272 14.8241 10.8599 14.7975 10.8199C14.8402 10.7707 14.8364 10.7021 14.8414 10.592C14.8442 10.6954 14.8905 10.8201 14.8876 10.8494C14.8876 10.8494 14.8875 10.8494 14.8875 10.8494ZM14.8581 17.0059C14.8542 17.0667 14.8524 17.1306 14.824 17.1794C14.795 17.1535 14.8494 17.059 14.7803 17.12C14.7879 17.0842 14.793 17.0478 14.7956 17.0117C14.8155 17.0373 14.8356 17.0078 14.858 17.006C14.858 17.006 14.8581 17.0059 14.8581 17.0059ZM8.91049 14.9265C9.0098 15.034 9.04204 15.0311 9.17903 15.0755C9.17852 15.116 9.00349 15.0834 8.90589 15.0421C8.90754 15.0037 8.90913 14.9651 8.91049 14.9265ZM5.26784 7.15568C5.27435 7.09983 5.48584 6.97094 5.59905 6.92098C5.5897 6.9341 5.58036 6.94732 5.57107 6.96053C5.47013 7.0255 5.36878 7.09071 5.26784 7.15568ZM14.8445 10.5396C14.8431 10.5581 14.8422 10.5755 14.8414 10.592C14.8409 10.5737 14.8417 10.556 14.8445 10.5396ZM15.0403 3.09789C15.0828 3.15645 15.0971 2.98238 15.0804 3.19373C15.0805 3.19373 15.0805 3.19373 15.0805 3.19373C15.0696 3.33351 15.0666 3.36436 15.0633 3.49386C15.0087 3.44724 14.9892 3.18453 14.9779 3.54662C14.9778 3.55139 15.0103 3.54189 15.0059 3.59974C15.0045 3.6176 14.9778 3.67475 14.9701 3.76167C14.9676 3.78976 14.9594 4.00086 14.9588 3.71311C14.9208 3.72167 14.8822 3.70622 14.8453 3.7069C14.8345 3.59458 14.9091 3.50825 14.9073 3.38943C14.9044 3.21301 14.829 3.12323 14.9279 3.08931C14.9522 3.23766 14.9528 3.4924 14.8933 3.52562C14.8926 3.66914 14.9413 3.71036 14.9654 3.59463C14.936 3.11826 15.03 3.43178 15.0028 3.07179C15.0017 3.05697 15.0001 3.04116 14.9978 3.02438C14.9839 3.01979 14.9681 3.00347 14.9553 3.00697C14.9851 2.89816 15.0184 3.0106 15.0315 3.07179C15.0347 3.08443 15.0375 3.09414 15.0403 3.09789ZM14.935 4.13445C14.906 4.0488 14.8766 3.96344 14.8475 3.87814C14.8949 3.87814 14.9374 3.92517 14.9641 4.06015C14.9544 4.08479 14.9447 4.1098 14.935 4.13445ZM10.0347 4.29586C10.0369 4.32434 10.0202 4.36123 10.0117 4.39446C9.97832 4.38865 9.43385 4.67893 9.69488 4.5036C9.73279 4.47813 9.99625 4.37864 10.0347 4.29586ZM8.05062 14.4748C8.10488 14.5261 8.15886 14.5773 8.21282 14.6284C8.11098 14.5823 8.00891 14.5363 7.90697 14.4904C7.95494 14.4852 8.00265 14.48 8.05062 14.4748ZM14.9498 12.9755C14.9488 13.0062 14.9134 12.9043 14.919 13.0252C14.8963 12.9351 14.8771 12.8507 14.8558 12.7626C14.8726 12.7363 14.8893 12.7096 14.906 12.6832C14.8953 12.6627 14.8846 12.6417 14.8738 12.6212C14.8982 12.6335 14.9221 12.6445 14.9469 12.6575C14.8946 12.8058 14.9539 12.8398 14.9498 12.9755ZM14.9391 17.3909C14.8823 17.3893 14.9379 17.1898 14.8455 17.3694C14.8316 17.3192 14.8432 17.2607 14.8682 17.1533C14.8855 17.1394 14.9024 17.1242 14.919 17.1087C14.8841 17.0997 14.878 17.068 14.8581 17.0059C14.8582 17.0058 14.8582 17.0058 14.8583 17.0057C14.8605 16.9738 14.8611 16.9489 14.8619 16.9282C14.8654 16.8317 14.8823 16.8319 14.9295 16.7955C14.9199 16.8534 14.9176 16.895 14.92 16.9282C14.9244 17.0031 14.9568 17.0338 14.9615 17.1312C14.966 17.227 14.9103 17.3359 14.9391 17.3909ZM10.6034 3.96682C10.5039 4.07599 10.6342 4.04903 10.3941 4.13267C10.4024 4.11476 10.4107 4.0969 10.419 4.07899C10.4804 4.0415 10.5419 4.00412 10.6034 3.96682ZM14.3509 17.7172C14.3943 17.7904 14.5464 17.7801 14.4874 17.6559C14.3783 17.6916 14.4604 17.7313 14.3509 17.7172ZM15.0161 10.91C15.0123 11.1584 14.9196 11.1114 14.8732 11.0094C14.8901 10.9936 14.907 10.9779 14.9237 10.9624C14.9161 10.9189 14.9084 10.8754 14.9009 10.8319C14.9393 10.858 14.9778 10.884 15.0161 10.91ZM10.5482 16.0365C10.7419 16.0805 10.387 15.9058 10.5202 15.9403C10.6265 15.9679 10.7177 16.0888 10.6535 16.0946C10.6213 16.0771 10.5856 16.0573 10.5485 16.0366C10.5484 16.0366 10.5483 16.0365 10.5482 16.0365ZM11.5077 16.5711C11.512 16.5012 11.5418 16.5395 11.4063 16.4743C11.3676 16.4556 11.0847 16.2651 11.1824 16.3815C11.2877 16.4423 11.3985 16.5073 11.5077 16.5711ZM14.9244 8.03934C14.9517 8.03706 15.0117 8.29908 14.9967 8.33271C14.9967 8.33271 14.9968 8.33271 14.9968 8.33271C14.9559 8.42349 14.9501 8.1471 14.894 8.26699C14.9434 8.0015 14.824 7.92208 14.9813 7.94058C14.9882 8.09697 14.9558 8.02293 14.9244 8.03934ZM2.38815 8.66986C2.38804 8.66992 2.38794 8.66998 2.38783 8.67004C2.40371 8.66235 2.54931 8.62456 2.54098 8.6454C2.38404 8.72227 2.39776 8.68389 2.27886 8.80258C2.26417 8.79494 2.2508 8.78703 2.23547 8.77964C2.2871 8.74027 2.30964 8.7079 2.38815 8.66986ZM9.42979 4.58153C9.4817 4.54331 9.59774 4.51049 9.66005 4.47248C9.51572 4.68702 9.22237 4.73403 9.42979 4.58153ZM3.09216 11.6804C3.09234 11.6804 3.09252 11.6805 3.0927 11.6805C3.09262 11.6806 3.09252 11.6806 3.09245 11.6806C3.09235 11.6805 3.09226 11.6804 3.09216 11.6804ZM13.7558 2.1947C13.7465 2.18965 13.7406 2.18477 13.7375 2.17983C13.7373 2.17932 13.7371 2.17881 13.737 2.17831C13.743 2.18373 13.7491 2.1892 13.7558 2.1947ZM14.9162 7.49477C14.9543 7.38564 15.0148 7.74925 15.0003 7.86683C14.983 7.85861 14.9672 7.85732 14.9472 7.83816C14.9922 7.74326 14.9098 7.51293 14.9162 7.49477ZM14.9302 15.7847C14.9312 15.4973 15.0815 15.8713 14.9616 15.8867C14.9593 15.8862 14.9304 15.7921 14.9302 15.7847ZM14.9319 9.7614C14.9774 9.83463 14.9895 9.68747 14.9817 9.92278C14.9699 9.93648 14.9581 9.95016 14.9463 9.96386C14.9415 9.89639 14.9367 9.82887 14.9319 9.7614ZM15.1275 13.9018C15.1022 13.54 15.0574 13.1941 14.9319 13.4297C14.936 13.4571 14.9399 13.4848 14.9439 13.5122C15.0051 13.5163 14.9717 13.6174 14.9697 13.7652C14.994 13.7863 14.9996 13.8683 15.0203 13.8837C15.0602 13.9135 15.0883 13.8192 15.1275 13.9018ZM4.69553 12.7431C4.70581 12.737 4.71599 12.7308 4.72621 12.7247C4.78165 12.7431 4.8372 12.7616 4.89265 12.78C4.87461 12.7927 4.85656 12.8055 4.83853 12.8182C4.79089 12.7932 4.74346 12.7684 4.69582 12.7434C4.69573 12.7433 4.69563 12.7432 4.69553 12.7431ZM15.0642 4.48697C14.9492 4.45411 14.9704 4.56894 15.0285 4.80188C15.0404 4.69705 15.0523 4.59179 15.0642 4.48697ZM12.8612 17.5189C12.871 17.4868 12.8809 17.4549 12.8904 17.4226C12.7663 17.3903 12.7675 17.4342 12.7972 17.5013C12.8186 17.5072 12.8398 17.5129 12.8612 17.5189ZM11.3115 16.6402C11.3526 16.6718 11.3431 16.6358 11.3475 16.639C11.453 16.7159 11.4628 16.7355 11.6106 16.798C11.631 16.8017 11.6513 16.805 11.6718 16.8086C11.6422 16.7124 11.5773 16.718 11.4624 16.6053C11.475 16.6396 11.4875 16.674 11.5 16.7085C11.4274 16.6609 11.3552 16.6135 11.2826 16.5658C11.2701 16.567 11.2576 16.568 11.245 16.5692C11.2671 16.5927 11.2894 16.6176 11.3115 16.6402ZM4.13744 12.3866C4.06581 12.3421 3.99389 12.2974 3.92225 12.2529C3.91115 12.266 3.90009 12.2792 3.88899 12.2923C3.97171 12.3237 4.05472 12.3552 4.13744 12.3866ZM14.9632 2.75788C14.9555 2.75328 14.9477 2.74901 14.94 2.74558C14.9473 2.74368 14.9552 2.74865 14.9632 2.75788ZM2.14932 8.7009C2.06067 8.73847 1.94528 8.81403 1.85326 8.8643C1.88155 8.89682 2.10643 8.75348 2.20028 8.72892C2.2095 8.71483 2.18679 8.68501 2.14932 8.7009ZM15.0124 11.2536C15.0335 11.2776 15.0545 11.3015 15.0757 11.3252C15.0734 11.3831 15.071 11.4411 15.0687 11.4993C15.086 11.5011 15.1034 11.5027 15.1207 11.5045C15.0982 11.2479 15.1481 11.3071 15.1972 11.1801C15.1357 11.2047 15.0741 11.229 15.0124 11.2536ZM1.76048 11.1408C1.92683 11.2234 1.99468 11.2373 1.93013 11.1402C1.86753 11.1178 1.8046 11.0952 1.742 11.0728C1.74826 11.0955 1.75452 11.1183 1.76048 11.1408ZM12.0935 2.95907C11.9689 3.05339 11.9319 2.99442 11.82 3.10386C11.8967 3.07438 11.9735 3.04504 12.0499 3.01574C12.0643 2.99696 12.0791 2.97785 12.0935 2.95907ZM15.242 6.98781C15.2662 6.92238 15.1511 6.80007 15.236 6.61613C15.2107 6.57229 15.1865 6.54482 15.1616 6.50714C15.1887 6.48522 15.216 6.46031 15.2428 6.43941C15.2428 6.43929 15.2428 6.43917 15.2428 6.43905C15.2337 6.27221 15.1998 6.38038 15.1712 6.37661C15.1593 6.37484 15.1792 6.25102 15.1533 6.28972C15.1089 6.35652 15.1344 6.60613 15.0803 6.60682C15.098 6.51912 15.0832 6.34787 15.0471 6.39852C15.0075 6.45401 15.0739 6.6154 15.041 6.71818C15.1275 6.5709 15.1008 6.87508 15.0343 6.90968C15.0854 7.08816 15.1062 6.92411 15.1038 6.74118C15.1547 6.85286 15.1272 6.68847 15.1695 6.6614C15.1951 6.77656 15.1738 7.17176 15.242 6.98781ZM15.1482 15.4084C15.1449 15.2851 15.174 15.0924 15.131 15.0079C15.106 14.9587 15.0866 15.1519 15.0473 15.0187C15.0511 15.1389 15.0665 15.1663 15.1009 15.1457C15.1051 15.1731 15.1091 15.2009 15.1131 15.2283C15.1064 15.2409 15.0998 15.2539 15.093 15.2666C15.1072 15.281 15.1213 15.2954 15.1355 15.3095C15.1327 15.3386 15.1299 15.368 15.127 15.3971C15.1341 15.4005 15.1403 15.4064 15.1482 15.4084ZM8.23806 5.18747C8.26751 5.16999 8.29668 5.15267 8.32608 5.1351C8.31862 5.12972 8.31036 5.1244 8.3023 5.11909C8.2962 5.11474 8.29011 5.11039 8.28401 5.10604C8.31338 5.11721 8.47492 5.07067 8.52144 5.01379C8.54484 4.98521 8.45358 4.98442 8.57641 4.90417C8.48566 4.95932 8.40364 5.01397 8.31633 5.06892C8.31746 5.05237 8.3182 5.03588 8.31933 5.01934C8.31926 5.01935 8.3192 5.01936 8.31914 5.01938C8.28793 5.03381 8.25629 5.04832 8.22508 5.06276C8.22934 5.10439 8.2338 5.14583 8.23806 5.18747ZM12.9159 17.625C13.0305 17.66 13.0714 17.6675 13.0455 17.6021C13.0454 17.602 13.0453 17.6019 13.0452 17.6018C12.9979 17.5968 12.9505 17.5918 12.9031 17.5868C12.9073 17.5995 12.9114 17.6122 12.9159 17.625ZM14.2869 1.95132C13.9885 2.04166 14.5847 2.11612 14.5044 2.04015C14.5017 2.03146 14.3097 1.97125 14.2869 1.95132ZM15.0672 10.8644C15.0685 10.9326 15.0697 11.0009 15.0711 11.0694C15.0915 11.0537 15.1118 11.0375 15.1322 11.0218C15.1105 10.9694 15.0888 10.9168 15.0672 10.8644ZM2.42162 11.6095C2.46099 11.6848 2.61225 11.7912 2.71496 11.7933C2.67692 11.7647 2.63886 11.736 2.60082 11.7073C2.68106 11.7471 2.76073 11.7859 2.84141 11.8262C2.87729 11.7737 2.769 11.7537 2.64246 11.6604C2.62292 11.6459 2.52838 11.5004 2.45246 11.5251C2.43706 11.5303 2.57537 11.6197 2.45863 11.5932C2.50052 11.6207 2.5382 11.6417 2.57834 11.6667C2.57375 11.6815 2.56913 11.6963 2.56484 11.7112C2.51697 11.6773 2.46948 11.6435 2.42162 11.6095ZM15.1432 14.6903C15.1467 14.5208 15.1214 14.4999 15.0766 14.4646C15.0816 14.5434 15.0866 14.6222 15.0917 14.701C15.1088 14.6973 15.126 14.694 15.1432 14.6903ZM3.72595 12.3793C3.80262 12.4321 3.78644 12.3806 3.82224 12.3933C3.9575 12.4413 4.02783 12.512 4.15673 12.5675C4.14521 12.569 4.13456 12.5704 4.12343 12.5719C4.12353 12.572 4.12364 12.572 4.12375 12.5721C4.68006 12.9288 4.42113 12.6838 4.07233 12.4979C4.0711 12.4816 4.07019 12.4654 4.06891 12.4491C3.90398 12.3812 3.75141 12.3195 3.72595 12.3793ZM15.1616 3.957C15.1701 3.94947 15.2241 4.01352 15.1988 3.89329C15.1201 3.79808 15.1592 3.95423 15.1289 3.99333C15.1213 3.96079 15.114 3.9275 15.1064 3.8953C15.0842 4.08989 15.1029 4.11828 15.1604 4.04737C15.1643 4.04231 15.1532 3.96456 15.1616 3.957ZM15.1102 2.61131C14.9983 2.62651 15.1265 2.86891 15.1537 2.85826C15.148 2.81902 15.1219 2.79306 15.1192 2.75095C15.1153 2.70788 15.1394 2.68859 15.1102 2.61131ZM15.1721 9.71375C15.1726 9.70656 15.2214 9.63428 15.1832 9.64146C15.0928 9.73087 15.151 9.91103 15.1825 9.87951C15.1809 9.81993 15.1673 9.78019 15.1722 9.71375C15.1722 9.71375 15.1721 9.71375 15.1721 9.71375ZM1.44007 11.0744C1.44141 11.0789 1.58778 11.186 1.61703 11.1819C1.64388 11.1738 1.66311 11.1595 1.68617 11.1483C1.5903 11.1157 1.42364 11.0022 1.44038 11.0746C1.44028 11.0745 1.44017 11.0744 1.44007 11.0744Z" fill="black"/>
</svg>
