<?xml version="1.0" encoding="UTF-8"?>
<svg id="_レイヤー_2" data-name="レイヤー 2" xmlns="http://www.w3.org/2000/svg" viewBox="0 0 20.88 16.58">
  <g id="_レイヤー_1-2" data-name="レイヤー 1">
    <path d="M8.81,9.75c-.07-.09.23.11.05-.07.05.02.09.04.14.06,0,.03,0,.06,0,.08-.06-.03-.12-.05-.19-.08,0,0,0,0,0,0ZM8.57,9.97c.09-.03.27.05.12-.11-.03.01-.05.03-.08.04-.05-.05-.11-.11-.16-.16-.03,0-.05-.01-.08-.02,0-.05-.02-.11-.02-.16.02.02.05.04.07.06.12.03.21.07.36.15,0-.02-.01-.03-.02-.05.06.06.12.11.18.17-.07-.02-.15-.04-.21-.06.06.11.23.17.32.21.12.05.08.06.17.1.01,0,.03-.01.05,0,.13.08.39.24.21.2-.22-.13-.43-.2-.63-.34.02.09-.1.05-.27-.02ZM12.7,12.12c-.08-.01-.21-.1-.29-.17,0,0,0,0,0,0-.02-.02-.04-.08.02-.04.11.06.12.15.2.15.02.02.04.04.07.07ZM12.94,12.25c.06.05,0,.08-.07.02h0s.06-.02-.09-.06c0-.04-.02-.08-.03-.12.03.02.06.03.09.05-.05.03.04.06.1.11ZM9.6,10.37s0-.06-.07-.13c.07.04.14.08.21.12-.05,0-.09,0-.14,0ZM7.96,9.42s0,0,0,0c-.03,0-.05-.01-.08-.02,0-.02-.01-.04-.02-.07-.09-.03-.18-.07-.27-.1.04-.04.18.05.27.07.11.08.15.14.14.18-.02-.02-.03-.04-.05-.06ZM20.41,7.78s-.03-.06-.04-.09c0,.04-.01.08-.02.12.06.11,0,.12.01.26.01.44.11.32-.03.72,0-.32-.06-.2-.11-.39.04-.04.13.15.14.02-.04-.22-.08-.44-.11-.68,0,0-.01.01-.02.02,0,.04,0,.08.01.12-.02-.04-.04-.08-.05-.13.04.05.02-.08.07-.07.02,0,.05.07.07.11.01-.09.02-.19.03-.28.02.05.03.1.05.15,0,.04,0,.08,0,.12,0,0,0,0,0,0ZM9.18,6.48c.08-.1.26-.22.38-.22-.13.07-.26.15-.38.22ZM8.01,9.52s-.01-.03-.02-.04c.06.02.12.03.18.05,0,.03,0,.05,0,.08-.05-.03-.1-.06-.15-.09ZM11.28,11.38s-.04-.02-.09-.05c0,0,0,0,0,0-.02-.01-.16-.11-.14-.12.08.04.16.09.24.14,0,.01,0,.02-.01.03ZM10.39,10.85h0s-.05-.04-.08-.06c.12.03.11.09.21.13.1.04.17.05.22.16-.03,0-.07-.01-.11-.02-.12-.1-.17-.1-.29-.14.02-.03.03-.05.05-.08ZM20.27,9.73s0,.06,0,.07t0,0c.03.26-.02-.03-.02.21,0-.04-.02-.07-.03-.11.02-.06.04-.11.05-.17ZM18.31,15.46s0-.02,0-.03c.13.08.18.06.27.15-.09-.04-.18-.08-.28-.12,0,0,0,0,0,0ZM11.89,11.82c-.15-.07-.26-.12-.38-.22h0s.04,0,.03-.01c-.03-.01-.06-.03-.09-.04,0-.02,0-.03.01-.05.08.05.16.1.23.15,0-.02-.01-.03-.02-.05.07.03.14.07.21.1-.04.01-.08.02-.11.03.04.03.08.06.11.09ZM20.26,15.67s-.02-.03-.04,0c-.03.02-.05.09-.06.06.02-.04.05-.08.06-.12-.11.1-.18.23-.23.18.11-.07.17-.18.19-.3.05.02.04.17.12.11-.01.03-.03.06-.04.08,0,0,0,0,0,0ZM6.04,7.88c.03-.15.18-.48.35-.59.04-.03.22-.06.23-.04.02.04-.09.15.06.06-.05.04-.09.08-.13.12.03.01.06.03.09.04.04-.05.09-.1.14-.14,0,0,.02.01.03.02-.18.14-.05.09-.11.19.09-.06.18-.11.27-.14-.05.03-.11.06-.15.09.03.04.11-.04.14-.04.06,0-.03.05-.12.15-.09.09-.15.22-.13.26.05-.07.1-.13.17-.18,0,.02-.02.05-.03.07-.16.1-.27.3-.3.53,0,.02,0,.04,0,.06.02,0,.05-.01.07-.02,0,.03,0,.06.02.09-.08-.08-.08.04-.08.21-.06-.07-.06-.18-.11-.17.07.28.24.6.52.72.02,0,.04.02.05.02.07.03.1-.03.25.06,0,0-.02.01-.02.02.27.12.44.19.69.38,0-.03,0-.06-.01-.09-.06-.02-.13-.04-.19-.07-.02-.06.05-.04-.12-.14-.14-.08-.06-.02-.11-.03-.06-.02-.09-.07-.15-.08-.05-.01-.02.04-.13-.03.07-.01.13-.02.2-.03.02.02.04.05.07.07-.03,0-.07-.01-.1-.02.11.04.21.07.32.11-.06.03.05.07.11.1.09.04,0,.03.06.06.06.03.15.02.24.09-.07,0,0,.06-.03.07-.03.01-.14-.05-.05.04.21.1.04-.11.18-.04.17.08.13.23.07.23-.05,0-.18-.08-.23-.08.21.18.26.1.31.11.18.03,0,.12.2.17-.02.03-.04.05-.06.08.03.01.06.02.1.03-.07-.12.01-.06.06-.04.07.04-.02-.05,0-.05.06.01.14.06.1.01.02.02.03.05.05.07.09.03.35.03.15-.06.04-.03.09.02.13.06.04.03.06,0,.1.03.15.11.02.1-.03.12.23.1.03-.04.35.12.05-.01-.08-.13.05-.08,0,.07.06.16.22.27.02,0,.05,0,.07,0,.07.1-.01.13.2.17-.16.06-.05.02.08.16.03.03-.06,0-.02.05.02.02.08.03.12.07.02.02.11.13.19.15-.02-.09.15-.05.05-.17.23.14.4.21.1.14.05.05.1.1.15.15.05.01.1.02.15.03-.02.05-.03.06.13.14-.08-.03-.15-.06-.23-.09,0,0-.02.01-.03.02.1.03.34.16.41.19.07.02-.05-.05-.02-.05.2-.01.14.05.25.09.06.02-.07-.07-.04-.05.13.05.15.14.26.2-.02-.05-.04-.1-.06-.15.11.06.23.14.34.18.04.02.02-.02.03-.02.04.01.17.08.19.08.11.06.09.09.19.15-.04-.02-.08-.04-.12-.06-.05.04-.09.08-.14.11.1.06.2.12.29.18-.06-.06-.13-.12-.19-.18.14.03.27.05.41.08.05.06.09.12.14.17.17.09.19-.03.22.1.05.02.1.04.16.06-.01,0-.03.02-.04.02.06.03.12.05.19.08-.04-.08-.07-.16-.1-.23.12.06.1.09.11.11.03.05.14.07.16.11,0,.01-.12-.03-.09.02,0,0,.09.2.2.23,0-.02.01-.05.02-.07.13.06.14.2.11.21.08.02.18.08.21.05.04.02.07.04.11.06-.08.05.07.12.12.07-.06-.04-.12-.07-.18-.11.09-.05-.07-.2.27.09.05.08-.13-.08-.08-.02.09.08.2.12.28.2.1.1-.07.05.24.17-.56-.47.13-.02.44.11.02.15.24.33.6.49-.02-.05-.13-.1-.19-.14-.06-.05.02-.02-.05-.08-.07-.06-.22-.17-.29-.24.08.02.42.17.18.09.14.12.2.2.4.32.09-.01.1-.04.29.07-.15,0,.04.17-.05.21-.13-.09-.01-.12-.08-.19,0,0-.14-.07-.17-.08.1.13.13.18,0,.2.09.05.15.09.17.06.01.03.02.05.03.08.03.02.06.03.09.05-.01-.08.05,0,.12.02.07.01.02-.07.18.02-.05-.04-.09-.08-.14-.12.11.05.23.1.34.14-.06-.07-.19-.21-.16-.25.04.04.22.11.24.12.07.04.02.04.02.04.1.08.2.12.22.18.09.03.15.08.24.13.05.03.06,0,.08.02.17.15-.03.08.37.22-.03-.05-.06-.09-.1-.14.05.02.09.03.14.05.03.02.05.04.08.06-.03.04-.05.08-.08.13.03.02.06.04.09.06-.05-.03-.11-.05-.16-.08,0,0-.02,0-.03.01.07.06.14.11.21.17.01-.01.02-.03.03-.04.16.12.16.14.35.19.13.07.27.07.36.09.02.02.04.05.06.07.02,0,.05,0,.07,0,.02.04.05.07.07.11.04-.03.06-.03-.06-.12.07-.02.29.13.38.2.06.05-.04.05-.03.06.02.03.15.09.17.1,0,0,.01,0,.02.01.08.06.15.08.23.11.02,0,.06.05.07.05.03.01.12.03.13.03.53-.06-.03-.05.4-.19-.02,0-.04-.02-.06-.03.03-.01.06-.03.08-.05.04-.01.02.04.07-.03,0,.02.02.04.02.06.02-.03.05-.06.06-.1.1.02.25-.17.31-.12.03.02-.06.2.03.13.05-.07,0-.04,0-.07.11-.22.13-.2.15-.3-.02-.02-.03-.04-.05-.06.01-.04.02-.07.03-.11-.01,0-.03-.02-.04-.03,0,.03,0,.07-.01.1-.02-.02-.03-.09-.04-.16-.02-.11-.01-.22.01-.13.02.06.01.17.07.1,0-.1-.02-.22-.03-.33.01,0,.03,0,.04-.01,0-.15-.06-.01-.09-.01,0-.03,0-.07,0-.1.01-.01.03-.03.04-.04-.02,0-.07-.02-.05-.12.01-.07.07.04.06-.09-.03,0-.07.05-.08-.08.03-.01.07-.03.1-.04-.03-.17.02-.25-.02-.45-.02-.13-.11-.3.02-.39,0-.09-.03-.06-.04-.09-.04-.13.03-.23.03-.25.02-.16,0-.22.03-.35-.02,0-.05.01-.07.02.04.12.04.17.03.34,0-.05-.01-.11-.01-.16-.02,0-.04.02-.06.03.08.5-.05.39-.07-.04.04-.04.07-.07.11-.11-.06-.24,0-.36,0-.63,0-.03-.02-.15-.02-.2,0,0,0,0,0,0-.04-.03-.05.01-.08.02,0-.03,0-.06-.01-.08.02-.06.04-.04.04-.16-.02.02-.05.03-.07.05,0-.13.03-.22.01-.35,0,.02.02.04.03.06.02-.27.16-.06.09-.26.01-.01.02-.03.04-.04,0,.08,0,.17,0,.25.02,0,.03,0,.05,0,0-.09-.01-.18-.02-.27.01.07.02.13.03.2,0-.1.02-.21.02-.31-.06.11-.07-.03-.13,0,.05-.19.12-.33.08-.62,0-.06-.05-.03,0-.19-.07.04-.1-.16-.17-.14,0,.06,0,.11,0,.17.02-.06.09-.07.11.02.02.12-.02.3.05.29,0,.05,0,.09,0,.14-.02-.02-.03-.04-.05-.06.03.13.02.22-.03.28-.01-.16-.02-.32-.03-.47,0,.02,0,.05,0,.07-.05-.12-.09,0-.1-.22.02,0,.04,0,.06,0-.06-.08-.05-.3-.12-.23.02-.07.03-.08,0-.12.05-.18.11-.29.18-.23-.01-.07-.02-.13-.04-.2-.02.04-.04.08-.06.11,0-.11,0-.23,0-.34.06-.01.02.22.07.15.01-.01-.01-.07,0-.09.06-.17.02.1.07.05.02-.25.1-.05.03-.4.02,0,.03-.02.05-.03,0-.12-.04-.11-.04-.22,0-.07.06-.15.02-.22,0-.01-.09.11-.09-.15,0-.2.06-.12.08-.22.02-.11-.06-.35.03-.42-.01.06-.02.13-.03.19.02.03.04.05.05.08-.02-.14,0-.29-.04-.39.06-.19,0-.4-.07-.35.01.06.04,0,.02.08-.02,0-.03.02-.05.03,0-.15,0-.25.05-.18,0-.02,0-.05,0-.07-.04,0-.08,0-.11-.01,0-.03,0-.05-.01-.08,0-.03.02-.06.03-.09.06.04.06.11.09-.12-.02,0-.04,0-.06,0,.03-.2.08-.2.07-.45.07.19-.06.29.09.29,0,.05-.02.09-.03.14.02,0,.04.01.06.02-.01-.25-.15-.68-.06-.85-.01-.02-.02-.04-.03-.06.05-.17-.07-.24,0-.41,0-.02.12.02.12-.2-.01,0-.04,0-.06.01,0-.05.02-.09.03-.14-.01,0-.03-.02-.04-.03,0,.08-.01.16-.02.24,0-.07,0-.14-.01-.2-.02.09-.02.13-.06.07,0-.08,0-.15,0-.23,0,0-.02-.02-.03-.02-.03.04-.05.07-.08.11.02-.2.02-.37.08-.52,0-.03.05.07.01-.11.02,0,.03,0,.05-.01-.05-.22-.04-.29,0-.51-.04.15-.01.02-.03-.02-.01-.03-.01.07-.03.06-.01-.01-.07-.14-.08-.03.11.27-.02.35.03.7-.01-.05-.03-.11-.04-.16,0,.03-.02.05-.03.08.02-.19,0-.1,0-.18-.02-.08-.03-.23-.04-.32,0-.03.02,0,.03-.07,0-.05-.04-.18,0-.21.03-.02.11.19.11-.1.03-.05.02.08.02.09.03.03.06-.15.03-.23,0,0-.03.06-.04-.01-.02-.17,0-.26.05-.37-.05-.01-.11-.15-.09-.33-.01,0-.03-.02-.04-.03,0,.03.01.05.02.08,0,.03-.01.06-.03.09-.01-.18-.08-.2-.1-.28-.08-.29.09-.11.12-.06-.01.04-.03.07-.04.11.02,0,.03,0,.05-.01,0-.43.11-.07.14-.28-.08-.06-.09-.22-.04-.42,0-.02,0-.05,0-.07-.01,0-.03,0-.04,0-.01-.25.11-.29.13-.31.05-.1-.02-.18-.02-.21,0-.11.02-.15.02-.23,0-.02,0-.04,0-.06-.03-.14-.04-.04-.07-.08-.02-.03-.05-.14-.08-.17.02.01.04.03.06.04-.02-.14-.05-.27-.15-.41-.2-.07-.21-.3-.25-.14.11.1.15.18.17.26-.06-.07-.13-.14-.2-.19-.01-.03-.02-.05-.04-.09-.08-.01-.22-.09-.28-.1-.3,0-.19.06-.47,0,.19-.04.19-.09.39-.06-.04-.04-.15-.05-.07-.08-.21,0-.14.04-.21.08-.06.03-.18.07-.16.1-.02-.02-.03-.03-.05-.05-.06.02-.12.05-.18.08-.05.03-.1.06-.15.09.04-.05.07-.09.11-.14-.04.01-.08.03-.12.04-.23.21-.76.37-.6.48-.13.08-.15.07-.24.08,0,.02,0,.03,0,.05-.09.04-.13.11-.21.15-.08.03-.12,0-.09.08-.06,0-.11.02-.17.03-.02.03-.04.06-.06.09-.05.02-.1.04-.15.05,0,.05-.19.13-.25.2-.09,0-.15-.1-.31.02.02.02.04.05.06.07-.04.02-.09.03-.13.05,0,0-.01-.01-.02-.02.02,0,.04-.02.06-.03-.03,0-.05,0-.08-.01-.05.06-.1.11-.14.17.09-.03.18-.06.27-.09-.09.08-.17.1-.25.17-.1,0-.08-.03-.07-.09-.03.02-.05.04-.08.06,0-.05-.07-.05.1-.14-.02,0-.04,0-.05-.01-.03.02-.05.02-.08.04-.08.06-.1.17-.08.19.01.01.08-.06.08-.04.02.05-.18.14.11.03-.07.08-.11.07-.21.12.02.01.03.02.05.03-.05.02-.1.04-.15.06.02-.11-.33.05-.07-.19-.09.05-.18.1-.27.14.01-.02.03-.04.04-.06.04-.02.09-.04.13-.06-.06.01-.11.03-.17.04-.1.08-.13.13-.16.2.14-.05.08-.06.18-.13,0,.02.02.04.03.07-.08-.01-.23.12-.27.14-.12.08-.05-.02-.13.02-.08.05-.16.13-.25.12.02.02.03.05.05.06-.12.08-.11.04-.13.04-.24.06-.33.18-.56.32.03-.01.07-.02.1-.03-.15.15-.04.07.13,0-.15.08-.21.17-.3.24-.1.07-.29.15-.36.17.13-.11.3-.19.46-.29-.03-.01-.06-.02-.1-.04-.07.11-.15.11-.19.12-.11.04-.08.08-.17.06.01.01.02.03.03.04-.2.11-.44.2-.53.34-.03-.03-.07-.06-.1-.1-.07.08-.16.09-.22.14-.07.05-.02.06-.1.12-.01.01-.06,0-.09.05-.03.04-.11.23-.18.14-.07.04-.14.08-.21.12.07-.04.13-.09.2-.13-.07.01-.14.02-.21.03,0,.02,0,.05.01.07-.14.12-.28.15-.43.25-.03.02.06.02-.06.08-.12.06-.25.03-.44.18,0,0-.03.1-.13.1-.02,0,.04-.05,0-.04-.04,0-.22.1-.25.07,0,0,.02.01.04.02-.03.02-.05.04-.08.06-.01-.02-.03-.03-.04-.05-.14.14-.19.25-.44.37.08-.01.17-.03.25-.04,0-.03.02-.06.02-.09.12-.06.23-.11.35-.17,0-.03.01-.06.02-.09.03-.01.06-.03.09-.04,0,.02,0,.04,0,.06.06-.04.11-.08.17-.11-.07.16-.34.18-.28.25-.03,0-.07,0-.1.01,0,.04-.05.06-.15.11.03,0,.07,0,.1.02-.11.03-.27.12-.37.17-.04.02-.02-.03-.03-.03-.07.02-.17.14-.2.15-.16.07-.31.04-.45.19.18-.09.08-.04.16-.04.02,0,.26-.11-.02.04-.03.02-.57.25-.43.11-.07.06-.13.12-.19.17-.25-.01-.12.06-.03.09-.03.02-.06.03-.09.05.03-.1-.31.09-.4.18-.03.03.09,0,0,.05-.04.02-.1.04-.14.06.09,0-.03.09,0,.13-.1,0-.21-.03-.19-.1-.06.06-.11.11-.17.17.04,0,.07-.02.11-.02-.23.1-.48.32-.57.26-.03.02-.06.03-.09.05,0,.02,0,.04,0,.06-.14.06-.28.12-.41.19.11-.08.13-.11.26-.17-.06,0-.11.02-.17.03-.16.15-.16.2-.45.34-.01,0-.24.09-.25.09-.04,0,0-.05-.03-.05-.05,0-.33.08-.34.07,0-.15.82-.63,1.04-.76,2.28-1.4,4.59-2.62,6.88-3.96.02-.01,0-.02.01-.03.06-.04.14-.05.16-.06.05-.03,0-.03.05-.06.37-.22.73-.4,1.1-.62.02-.01.01.02.05,0,.02-.01.07-.08.12-.11.17-.1.32-.18.51-.28.1-.06.25-.14.36-.21.05-.03.09-.07.14-.1.07-.04.07,0,.08,0,.05-.02.04-.05.09-.08.08-.05.1-.03.2-.09.07-.04.24-.16.33-.22.23-.1.51-.27.71-.4.04-.02.06-.04.09-.05.07-.03.1-.03.15-.05.24-.1.46-.17.72-.14.35.05.61.23.83.48.03.04.05.01.08.05.13.15.23.4.25.57.02.11,0,.18,0,.25,0,.04-.02.09-.01.15,0,.04.04.05.05.12,0,.11-.03.23-.03.31,0,.11.03.01.03.16,0,0-.03.03-.03.06,0,.09.03.08.02.21,0,.01-.03.18-.03.2,0,.1,0,.3,0,.36.02.21.06.05-.03.23.02.08.04.16.07.24-.02-.06-.05.17-.05.19.01.13.05.05.04.22-.08-.22-.01.22,0,.32.01.47-.01.9,0,1.38,0,.16.02.37.02.54,0,.04-.02,0-.02.04,0,.03.02,0,.02.04,0,.24-.05.44,0,.66,0,.01-.01.01-.02.03.05.18-.02.54-.02.67-.01.21.02.26.01.41,0,.2-.07.5.03.37,0,.14,0,.27,0,.41,0,.02-.03,0-.03.01,0,.04.02.05.02.08,0,.07-.02-.05-.02.06,0,.05.02.08.02.23,0,.9,0,1.88,0,2.8,0,.06.02.02.02.1,0,.28-.05.77-.04,1.01,0,.24.04.18.06.33,0,.03-.02,0-.02.03,0,.18-.03.38-.04.53,0,.09.03.09.03.15,0,.1-.03.2-.03.25,0,.24.02.41,0,.64,0,0,.01-.01.02-.02,0,.12,0,.23,0,.35,0,.21-.05.42-.14.61.01-.01.03-.03.04-.04-.21.39-.27.28-.12.35-.02.03-.04.06-.05.09-.05-.06-.26.12-.57.22-.02,0-.15.13-.16.04-.03.03-.05.05-.09.08-.07-.01-.15-.03-.22-.05-.04,0-.07.01-.11.01,0,.02,0,.03-.02.05-.17,0-.5-.12-.62-.2,0,0,0,0-.01,0-.22-.12-.47-.21-.61-.35-.09-.04-.02.03-.14-.04,0-.02-.01-.04-.02-.07-.14,0-.14-.04-.27-.14-.09-.06-.16-.08-.25-.14-.02-.01,0-.03-.02-.04-.05-.03-.22-.09-.25-.11-.33-.18-.62-.35-.93-.54-.03-.02,0,.02-.03,0-.06-.03,0-.04-.04-.06-.09-.06-.11-.03-.24-.1-.42-.24-.89-.54-1.32-.79-.01,0-.02.01-.04,0-.1-.06-.18-.14-.27-.19-.15-.08-.27-.12-.41-.2-.28-.16-.52-.32-.81-.49-.24-.14-.44-.25-.7-.4-1.13-.66-2.32-1.27-3.45-1.96-.03-.02,0-.03-.02-.03-.09-.04-.11-.02-.11-.09-.11-.05-.17-.04-.29-.12-.07-.04.01-.06-.12-.1-.12-.04-.02.06-.32-.15,0,0-.03-.06-.1-.09-.07-.03,0,.04-.17-.05-.33-.17-.71-.42-1.09-.63-.08-.05-.16-.1-.24-.17-.04-.02-.33-.34-.36-.43-.08-.14-.1-.1-.16-.31-.04-.17-.02-.31,0-.51,0-.02-.03-.07.02-.21ZM20.35,7.28s-.15-.08-.11-.25c0-.02.08.07.1-.02,0,.09.01.18.02.27h0ZM7.08,7.65c-.09.05-.16.11-.23.18.03-.06.07-.12.11-.18.04,0,.08,0,.11,0ZM18.98,15.88s0,0,0,0c.03.01.06.03.09.04.08.03.16.05.23.06-.01,0-.03.02-.04.02-.07,0-.14-.02-.21-.04-.02,0-.04-.01-.05-.02,0-.02-.01-.04-.02-.06ZM18.01,15.45c-.07-.05-.04-.06-.07-.1,0,0,0,0,0,0,0-.01-.06-.04-.07-.06,0,.02,0,.03,0,.05-.19-.07-.47-.37,0-.16-.02.01-.03.02-.05.03.22.12.44.29.19.23ZM20.3,5.27c-.06-.21-.07-.28-.03-.54.02.04.03.07.05.11-.02.04-.03.09-.05.13h0s.03.02.05.03c0,.09-.01.19-.02.28ZM10.95,11.32c0-.13-.01-.06.15,0,.06.02.02-.02.05,0,.18.08.16.16.1.17-.1-.05-.2-.11-.29-.16,0,0,0,0,0,0ZM6.65,8.68s0,0,0,0c.02-.01.06.04.05-.04.02.05.05.1.09.15-.01-.01-.02-.03-.04-.04,0,.02,0,.04,0,.05.04,0,.03.03.07.08.01-.04.03-.07.05-.1.03.06.07.11.12.16,0,0,0,.01-.01.02.03,0,.06.01.08.02,0,.01,0,.02,0,.04,0,0,0,0,0,0,.04.01.07.02.11.04,0,.03-.08,0,.05.06-.05,0-.1,0-.16,0-.02,0-.03-.02-.05-.03-.16-.1-.3-.24-.37-.41ZM12.3,12.07c-.22-.12-.15-.1-.07-.12.02.04.05.08.07.12ZM20.38,12.45c-.04-.07-.08-.14-.11-.22-.02-.15.05-.29.08-.18.03.13,0,.27.04.4ZM20.36,9.14c-.02.18-.06.01-.09-.03.04-.05.04-.12.04-.23,0,.1.05.23.05.26h0ZM20.33,15.3c0,.06,0,.12-.03.17-.03-.03.03-.12-.04-.06,0-.04.01-.07.02-.11.02.03.04,0,.06,0h0ZM14.39,13.22c.1.11.13.1.27.15,0,.04-.18,0-.27-.03,0-.04,0-.08,0-.12ZM10.74,5.45c0-.06.22-.18.33-.23,0,.01-.02.03-.03.04-.1.06-.2.13-.3.2ZM20.32,8.83s0,.04,0,.05c0-.02,0-.04,0-.05ZM20.52,1.39c.04.06.06-.12.04.1h0c-.01.14-.01.17-.02.3-.05-.05-.07-.31-.09.05,0,0,.03,0,.03.05,0,.02-.03.08-.04.16,0,.03-.01.24-.01-.05-.04,0-.08,0-.11,0-.01-.11.06-.2.06-.32,0-.18-.08-.27.02-.3.02.15.02.4-.03.44,0,.14.05.18.07.07-.03-.48.06-.16.04-.52,0-.01,0-.03,0-.05-.01,0-.03-.02-.04-.02.03-.11.06,0,.08.06,0,.01,0,.02,0,.03ZM20.41,2.43c-.03-.09-.06-.17-.09-.26.05,0,.09.05.12.18,0,.02-.02.05-.03.07ZM15.51,2.59s-.01.07-.02.1c-.03,0-.58.28-.32.11.04-.03.3-.12.34-.21ZM13.53,12.77c.05.05.11.1.16.15-.1-.05-.2-.09-.31-.14.05,0,.1-.01.14-.02ZM20.43,11.27s-.04-.07-.03.05c-.02-.09-.04-.17-.06-.26.02-.03.03-.05.05-.08-.01-.02-.02-.04-.03-.06.02.01.05.02.07.04-.05.15,0,.18,0,.32ZM20.42,15.68c-.06,0,0-.2-.09-.02-.01-.05,0-.11.02-.22.02-.01.03-.03.05-.04-.03,0-.04-.04-.06-.1t0,0s0-.06,0-.08c0-.1.02-.1.07-.13,0,.06-.01.1,0,.13,0,.07.04.11.04.2,0,.1-.05.2-.02.26ZM16.08,2.26c-.1.11.03.08-.21.17,0-.02.02-.04.02-.05.06-.04.12-.07.18-.11ZM19.83,16.01c.04.07.2.06.14-.06-.11.04-.03.08-.14.06ZM20.49,9.2c0,.25-.1.2-.14.1.02-.02.03-.03.05-.05,0-.04-.02-.09-.02-.13.04.03.08.05.12.08ZM16.03,14.33c.19.04-.16-.13-.03-.1.11.03.2.15.13.15-.03-.02-.07-.04-.1-.06,0,0,0,0,0,0ZM16.98,14.86c0-.07.03-.03-.1-.1-.04-.02-.32-.21-.22-.09.11.06.22.13.33.19ZM20.4,6.33s.09.26.07.29h0c-.04.09-.05-.19-.1-.07.05-.27-.07-.34.09-.33,0,.16-.03.08-.06.1ZM7.87,6.96s0,0,0,0c.02,0,.16-.05.15-.02-.16.08-.14.04-.26.16-.01,0-.03-.02-.04-.02.05-.04.07-.07.15-.11ZM14.91,2.88c.05-.04.17-.07.23-.11-.14.21-.44.26-.23.11ZM8.57,9.97s0,0,0,0c0,0,0,0,0,0,0,0,0,0,0,0ZM19.23.49s-.02,0-.02-.01c0,0,0,0,0,0,0,0,.01.01.02.02ZM20.39,5.79c.04-.11.1.25.08.37-.02,0-.03,0-.05-.03.05-.09-.04-.33-.03-.34ZM20.41,14.08c0-.29.15.09.03.1,0,0-.03-.09-.03-.1ZM20.41,8.06c.05.07.06-.07.05.16-.01.01-.02.03-.04.04,0-.07,0-.13-.01-.2ZM20.6,12.2c-.03-.36-.07-.71-.2-.47,0,.03,0,.06.01.08.06,0,.03.11.03.25.02.02.03.1.05.12.04.03.07-.06.11.02ZM10.17,11.04s.02-.01.03-.02c.06.02.11.04.17.06-.02.01-.04.03-.05.04-.05-.03-.1-.05-.14-.07,0,0,0,0,0,0ZM20.54,2.78c-.11-.03-.09.08-.04.31.01-.1.02-.21.04-.31ZM18.34,15.81s.02-.06.03-.1c-.12-.03-.12.01-.09.08.02,0,.04.01.06.02ZM16.79,14.93s.03,0,.04,0c.11.08.12.1.26.16.02,0,.04,0,.06.01-.03-.1-.09-.09-.21-.2.01.03.03.07.04.1-.07-.05-.14-.09-.22-.14-.01,0-.02,0-.04,0,.02.02.04.05.07.07ZM9.61,10.68c-.07-.04-.14-.09-.22-.13-.01.01-.02.03-.03.04.08.03.17.06.25.09ZM20.44,1.05s-.02,0-.02-.01c0,0,.02,0,.02.01ZM7.63,6.99c-.09.04-.2.11-.3.16.03.03.25-.11.35-.14,0-.01-.01-.04-.05-.03ZM20.49,9.55s.04.05.06.07c0,.06,0,.12,0,.17.02,0,.03,0,.05,0-.02-.26.03-.2.08-.32-.06.02-.12.05-.18.07ZM7.24,9.43c.17.08.23.1.17,0-.06-.02-.13-.05-.19-.07,0,.02.01.05.02.07ZM17.57,1.25c-.12.09-.16.04-.27.14.08-.03.15-.06.23-.09.01-.02.03-.04.04-.06ZM20.72,5.28c.02-.07-.09-.19,0-.37-.03-.04-.05-.07-.07-.11.03-.02.05-.05.08-.07h0c0-.17-.04-.06-.07-.06-.01,0,0-.13-.02-.09-.04.07-.02.32-.07.32.02-.09,0-.26-.03-.21-.04.06.03.22,0,.32.09-.15.06.16,0,.19.05.18.07.01.07-.17.05.11.02-.05.07-.08.03.12,0,.51.07.33ZM20.63,13.7c0-.12.03-.32-.02-.4-.02-.05-.04.14-.08.01,0,.12.02.15.05.13,0,.03,0,.06.01.08,0,.01-.01.03-.02.04.01.01.03.03.04.04,0,.03,0,.06,0,.09,0,0,.01,0,.02.01ZM13.71,3.48s.06-.03.09-.05c0,0-.02-.01-.02-.02,0,0-.01,0-.02-.01.03.01.19-.04.24-.09.02-.03-.07-.03.05-.11-.09.06-.17.11-.26.16,0-.02,0-.03,0-.05,0,0,0,0,0,0-.03.01-.06.03-.09.04,0,.04,0,.08.01.12ZM18.39,15.92c.11.03.16.04.13-.02,0,0,0,0,0,0-.05,0-.09-.01-.14-.02,0,.01,0,.03.01.04ZM19.76.25c-.3.09.3.16.22.09,0,0-.19-.07-.22-.09ZM20.54,9.16c0,.07,0,.14,0,.2.02-.02.04-.03.06-.05-.02-.05-.04-.11-.07-.16ZM7.9,9.9c.04.08.19.18.29.18-.04-.03-.08-.06-.11-.09.08.04.16.08.24.12.04-.05-.07-.07-.2-.17-.02-.01-.11-.16-.19-.14-.02,0,.12.09,0,.07.04.03.08.05.12.07,0,.01,0,.03-.01.04-.05-.03-.1-.07-.14-.1ZM20.62,12.98c0-.17-.02-.19-.07-.23,0,.08.01.16.02.24.02,0,.03,0,.05-.01ZM9.2,10.67c.08.05.06,0,.1.01.14.05.21.12.33.17-.01,0-.02,0-.03,0,0,0,0,0,0,0,.56.36.3.11-.05-.07,0-.02,0-.03,0-.05-.16-.07-.32-.13-.34-.07ZM20.64,2.25s.06.06.04-.06c-.08-.1-.04.06-.07.1,0-.03-.01-.07-.02-.1-.02.19,0,.22.05.15,0,0,0-.08,0-.09ZM20.59.91c-.11.02.02.26.04.25,0-.04-.03-.07-.03-.11,0-.04.02-.06,0-.14ZM20.65,8.01s.05-.08.01-.07c-.09.09-.03.27,0,.24,0-.06-.02-.1-.01-.17h0ZM6.92,9.37s.15.11.18.11c.03,0,.05-.02.07-.03-.1-.03-.26-.15-.25-.07,0,0,0,0,0,0Z"/>
    <path d="M2.81,9.75c-.07-.09.23.11.05-.07.05.02.09.04.14.06,0,.03,0,.06,0,.08-.06-.03-.12-.05-.19-.08,0,0,0,0,0,0ZM2.57,9.97c.09-.03.27.05.12-.11-.03.01-.05.03-.08.04-.05-.05-.11-.11-.16-.16-.03,0-.05-.01-.08-.02,0-.05-.02-.11-.02-.16.02.02.05.04.07.06.12.03.21.07.36.15,0-.02-.01-.03-.02-.05.06.06.12.11.18.17-.07-.02-.15-.04-.21-.06.06.11.23.17.32.21.12.05.08.06.17.1.01,0,.03-.01.05,0,.13.08.39.24.21.2-.22-.13-.43-.2-.63-.34.02.09-.1.05-.27-.02ZM6.7,12.12c-.08-.01-.21-.1-.29-.17,0,0,0,0,0,0-.02-.02-.04-.08.02-.04.11.06.12.15.2.15.02.02.04.04.07.07ZM6.94,12.25c.06.05,0,.08-.07.02,0,0,0,0,0,0-.03-.02.06-.02-.09-.06,0-.04-.02-.08-.03-.12.03.02.06.03.09.05-.05.03.04.06.1.11ZM3.6,10.37s0-.06-.07-.13c.07.04.14.08.21.12-.05,0-.09,0-.14,0ZM1.96,9.42s0,0,0,0c-.03,0-.05-.01-.08-.02,0-.02-.01-.04-.02-.07-.09-.03-.18-.07-.27-.1.04-.04.18.05.27.07.11.08.15.14.14.18-.02-.02-.03-.04-.05-.06ZM14.41,7.78s-.03-.06-.04-.09c0,.04-.01.08-.02.12.06.11,0,.12.01.26.01.44.11.32-.03.72,0-.32-.06-.2-.11-.39.04-.04.13.15.14.02-.04-.22-.08-.44-.11-.68,0,0-.01.01-.02.02,0,.04,0,.08.01.12-.02-.04-.04-.08-.05-.13.04.05.02-.08.06-.07.02,0,.05.07.07.11.01-.09.02-.19.03-.28.02.05.03.1.05.15,0,.04,0,.08,0,.12,0,0,0,0,0,0ZM3.18,6.48c.08-.1.26-.22.38-.22-.13.07-.26.15-.38.22ZM2.01,9.52s-.01-.03-.02-.04c.06.02.12.03.18.05,0,.03,0,.05,0,.08-.05-.03-.1-.06-.15-.09ZM5.28,11.38s-.04-.02-.09-.05c0,0,0,0,0,0-.02-.01-.16-.11-.14-.12.08.04.16.09.24.14,0,.01,0,.02-.01.03ZM4.39,10.85s0,0,0,0c-.03-.02-.05-.04-.08-.06.12.03.11.09.21.13.1.04.17.05.22.16-.03,0-.07-.01-.11-.02-.12-.1-.17-.1-.29-.14.02-.03.03-.05.05-.08ZM14.27,9.73s0,.06,0,.07t0,0c.03.26-.02-.03-.02.21,0-.04-.02-.07-.03-.11.02-.06.04-.11.05-.17ZM12.31,15.46s0-.02,0-.03c.13.08.18.06.27.15-.09-.04-.18-.08-.28-.12,0,0,0,0,0,0ZM5.89,11.82c-.15-.07-.26-.12-.38-.22,0,0,0,0,0,0,0,0,.04,0,.03-.01-.03-.01-.06-.03-.09-.04,0-.02,0-.03.01-.05.08.05.16.1.23.15,0-.02-.01-.03-.02-.05.07.03.14.07.21.1-.04.01-.08.02-.11.03.04.03.08.06.11.09ZM14.26,15.67s-.02-.03-.04,0c-.03.02-.05.09-.06.06.02-.04.05-.08.06-.12-.11.1-.18.23-.23.18.11-.07.17-.18.19-.3.05.02.04.17.12.11-.01.03-.03.06-.04.08,0,0,0,0,0,0ZM.04,7.88c.03-.15.18-.48.35-.59.04-.03.22-.06.23-.04.02.04-.09.15.06.06-.05.04-.09.08-.13.12.03.01.06.03.09.04.04-.05.09-.1.14-.14,0,0,.02.01.03.02-.18.14-.05.09-.11.19.09-.06.18-.11.27-.14-.05.03-.11.06-.15.09.03.04.11-.04.14-.04.06,0-.03.05-.12.15-.09.09-.15.22-.13.26.05-.07.1-.13.17-.18,0,.02-.02.05-.03.07-.16.1-.27.3-.3.53,0,.02,0,.04,0,.06.02,0,.05-.01.07-.02,0,.03,0,.06.02.09-.08-.08-.08.04-.08.21-.06-.07-.06-.18-.11-.17.07.28.24.6.52.72.02,0,.04.02.05.02.07.03.1-.03.25.06,0,0-.02.01-.02.02.27.12.44.19.69.38,0-.03,0-.06-.01-.09-.06-.02-.13-.04-.19-.07-.02-.06.05-.04-.12-.14-.14-.08-.06-.02-.11-.03-.06-.02-.09-.07-.15-.08-.05-.01-.02.04-.13-.03.07-.01.13-.02.2-.03.02.02.04.05.07.07-.03,0-.07-.01-.1-.02.11.04.21.07.32.11-.06.03.05.07.11.1.09.04,0,.03.06.06.06.03.15.02.24.09-.07,0,0,.06-.03.07-.03.01-.14-.05-.05.04.21.1.04-.11.18-.04.17.08.13.23.07.23-.05,0-.18-.08-.23-.08.21.18.26.1.31.11.18.03,0,.12.2.17-.02.03-.04.05-.06.08.03.01.06.02.1.03-.07-.12.01-.06.06-.04.07.04-.02-.05,0-.05.06.01.14.06.1.01.02.02.03.05.05.07.09.03.35.03.15-.06.04-.03.09.02.13.06.04.03.06,0,.1.03.15.11.02.1-.03.12.23.1.03-.04.35.12.05-.01-.08-.13.05-.08,0,.07.06.16.22.27.02,0,.05,0,.07,0,.06.1-.01.13.2.17-.16.06-.05.02.08.16.03.03-.06,0-.02.05.02.02.08.03.12.07.02.02.11.13.19.15-.02-.09.15-.05.05-.17.23.14.4.21.1.14.05.05.1.1.15.15.05.01.1.02.15.03-.02.05-.03.06.13.14-.08-.03-.15-.06-.23-.09,0,0-.02.01-.03.02.1.03.34.16.41.19.07.02-.05-.05-.02-.05.2-.01.14.05.25.09.06.02-.07-.07-.04-.05.13.05.15.14.26.2-.02-.05-.04-.1-.06-.15.11.06.23.14.34.18.04.02.02-.02.03-.02.04.01.18.08.19.08.11.06.09.09.19.15-.04-.02-.08-.04-.12-.06-.05.04-.09.08-.14.11.1.06.2.12.29.18-.06-.06-.13-.12-.19-.18.14.03.27.05.41.08.05.06.09.12.14.17.17.09.19-.03.22.1.05.02.1.04.16.06-.01,0-.03.02-.04.02.06.03.12.05.19.08-.04-.08-.07-.16-.11-.23.12.06.1.09.11.11.03.05.14.07.16.11,0,.01-.12-.03-.09.02,0,0,.09.2.2.23,0-.02.01-.05.02-.07.13.06.14.2.11.21.08.02.18.08.21.05.04.02.07.04.11.06-.08.05.07.12.12.07-.06-.04-.12-.07-.18-.11.09-.05-.07-.2.27.09.05.08-.13-.08-.08-.02.09.08.2.12.28.2.1.1-.07.05.24.17-.56-.47.13-.02.44.11.02.15.24.33.6.49-.02-.05-.13-.1-.19-.14-.06-.05.02-.02-.05-.08-.07-.06-.22-.17-.29-.24.08.02.42.17.18.09.14.12.2.2.4.32.09-.01.1-.04.29.07-.15,0,.04.17-.05.21-.13-.09-.01-.12-.07-.19,0,0-.14-.07-.17-.08.09.13.13.18,0,.2.09.05.15.09.17.06.01.03.02.05.03.08.03.02.06.03.09.05-.01-.08.05,0,.12.02.07.01.02-.07.18.02-.05-.04-.09-.08-.14-.12.11.05.23.1.34.14-.06-.07-.19-.21-.16-.25.04.04.22.11.24.12.07.04.02.04.02.04.1.08.2.12.22.18.09.03.15.08.24.13.05.03.06,0,.08.02.17.15-.03.08.37.22-.03-.05-.06-.09-.1-.14.05.02.09.03.14.05.03.02.05.04.08.06-.03.04-.05.08-.08.13.03.02.06.04.09.06-.05-.03-.11-.05-.16-.08,0,0-.02,0-.03.01.07.06.14.11.21.17.01-.01.02-.03.03-.04.16.12.16.14.35.19.13.07.27.07.36.09.02.02.04.05.07.07.02,0,.05,0,.07,0,.02.04.05.07.07.11.04-.03.06-.03-.06-.12.07-.02.29.13.38.2.06.05-.04.05-.03.06.02.03.15.09.17.1,0,0,.01,0,.02.01.08.06.15.08.23.11.02,0,.06.05.07.05.03.01.12.03.13.03.53-.06-.03-.05.4-.19-.02,0-.04-.02-.06-.03.03-.01.06-.03.08-.05.04-.01.02.04.07-.03,0,.02.02.04.02.06.02-.03.05-.06.06-.1.1.02.25-.17.31-.12.03.02-.06.2.03.13.05-.07,0-.04,0-.07.11-.22.13-.2.15-.3-.02-.02-.03-.04-.05-.06.01-.04.02-.07.03-.11-.01,0-.03-.02-.04-.03,0,.03,0,.07-.01.1-.02-.02-.03-.09-.04-.16-.02-.11-.01-.22.01-.13.02.06.01.17.07.1,0-.1-.02-.22-.03-.33.01,0,.03,0,.04-.01,0-.15-.06-.01-.09-.01,0-.03,0-.07,0-.1.01-.01.03-.03.04-.04-.02,0-.07-.02-.05-.12.01-.07.07.04.06-.09-.03,0-.07.05-.08-.08.03-.01.07-.03.1-.04-.03-.17.02-.25-.02-.45-.02-.13-.11-.3.02-.39,0-.09-.03-.06-.04-.09-.04-.13.03-.23.03-.25.02-.16,0-.22.03-.35-.02,0-.05.01-.07.02.04.12.04.17.03.34,0-.05-.01-.11-.02-.16-.02,0-.04.02-.06.03.08.5-.05.39-.07-.04.04-.04.07-.07.11-.11-.06-.24,0-.36,0-.63,0-.03-.02-.15-.02-.2,0,0,0,0,0,0-.04-.03-.05.01-.08.02,0-.03,0-.06-.01-.08.02-.06.04-.04.04-.16-.02.02-.05.03-.07.05,0-.13.03-.22.01-.35,0,.02.02.04.03.06.02-.27.16-.06.09-.26.01-.01.02-.03.04-.04,0,.08,0,.17,0,.25.02,0,.03,0,.05,0,0-.09-.01-.18-.02-.27.01.07.02.13.03.2,0-.1.02-.21.02-.31-.06.11-.07-.03-.13,0,.05-.19.12-.33.08-.62,0-.06-.05-.03,0-.19-.07.04-.1-.16-.17-.14,0,.06,0,.11,0,.17.02-.06.09-.07.11.02.02.12-.02.3.05.29,0,.05,0,.09,0,.14-.02-.02-.04-.04-.05-.06.03.13.02.22-.03.28-.01-.16-.02-.32-.03-.47,0,.02,0,.05,0,.07-.05-.12-.09,0-.1-.22.02,0,.04,0,.06,0-.06-.08-.05-.3-.12-.23.02-.07.03-.08,0-.12.05-.18.11-.29.18-.23-.01-.07-.02-.13-.04-.2-.02.04-.04.08-.06.11,0-.11,0-.23,0-.34.06-.01.02.22.07.15.01-.01-.01-.07,0-.09.06-.17.02.1.07.05.02-.25.1-.05.03-.4.02,0,.03-.02.05-.03,0-.12-.04-.11-.04-.22,0-.07.06-.15.02-.22,0-.01-.09.11-.09-.15,0-.2.06-.12.08-.22.02-.11-.06-.35.03-.42-.01.06-.02.13-.03.19.02.03.04.05.05.08-.02-.14,0-.29-.04-.39.06-.19,0-.4-.07-.35.01.06.04,0,.02.08-.02,0-.03.02-.05.03,0-.15,0-.25.05-.18,0-.02,0-.05,0-.07-.04,0-.08,0-.11-.01,0-.03,0-.05-.01-.08,0-.03.02-.06.02-.09.06.04.06.11.09-.12-.02,0-.04,0-.06,0,.03-.2.08-.2.07-.45.07.19-.06.29.09.29,0,.05-.02.09-.03.14.02,0,.04.01.06.02-.01-.25-.15-.68-.06-.85-.01-.02-.02-.04-.03-.06.05-.17-.07-.24,0-.41,0-.02.12.02.12-.2-.02,0-.04,0-.06.01,0-.05.02-.09.03-.14-.01,0-.03-.02-.04-.03,0,.08-.01.16-.02.24,0-.07,0-.14-.01-.2-.02.09-.02.13-.06.07,0-.08,0-.15,0-.23,0,0-.02-.02-.03-.02-.03.04-.05.07-.08.11.02-.2.02-.37.08-.52,0-.03.05.07.01-.11.02,0,.03,0,.05-.01-.05-.22-.04-.29,0-.51-.04.15-.01.02-.03-.02-.01-.03-.01.07-.03.06-.01-.01-.07-.14-.08-.03.11.27-.02.35.03.7-.01-.05-.03-.11-.04-.16-.01.03-.02.05-.03.08.02-.19,0-.1,0-.18-.02-.08-.03-.23-.04-.32,0-.03.02,0,.03-.07,0-.05-.04-.18,0-.21.03-.02.11.19.11-.1.03-.05.02.08.02.09.03.03.06-.15.03-.23,0,0-.03.06-.04-.01-.02-.17,0-.26.05-.37-.05-.01-.11-.15-.09-.33-.01,0-.03-.02-.04-.03,0,.03.01.05.02.08,0,.03-.02.06-.03.09-.01-.18-.08-.2-.1-.28-.08-.29.09-.11.12-.06-.01.04-.03.07-.04.11.02,0,.03,0,.05-.01,0-.43.11-.07.14-.28-.08-.06-.09-.22-.04-.42,0-.02,0-.05,0-.07-.01,0-.03,0-.04,0-.01-.25.11-.29.13-.31.05-.1-.02-.18-.02-.21,0-.11.02-.15.02-.23,0-.02,0-.04,0-.06-.03-.14-.04-.04-.07-.08-.02-.03-.05-.14-.08-.17.02.01.04.03.06.04-.02-.14-.05-.27-.15-.41-.2-.07-.21-.3-.25-.14.11.1.15.18.17.26-.06-.07-.13-.14-.2-.19-.01-.03-.02-.05-.04-.09-.08-.01-.22-.09-.28-.1-.3,0-.19.06-.47,0,.19-.04.19-.09.39-.06-.04-.04-.15-.05-.07-.08-.21,0-.14.04-.21.08-.06.03-.18.07-.16.1-.02-.02-.03-.03-.05-.05-.06.02-.12.05-.18.08-.05.03-.1.06-.15.09.04-.05.07-.09.11-.14-.04.01-.08.03-.12.04-.23.21-.76.37-.6.48-.13.08-.15.07-.24.08,0,.02,0,.03,0,.05-.09.04-.13.11-.21.15-.08.03-.12,0-.09.08-.06,0-.11.02-.17.03-.02.03-.04.06-.06.09-.05.02-.1.04-.15.05,0,.05-.19.13-.25.2-.09,0-.15-.1-.31.02.02.02.04.05.06.07-.04.02-.09.03-.13.05,0,0-.01-.01-.02-.02.02,0,.04-.02.06-.03-.03,0-.05,0-.08-.01-.05.06-.1.11-.14.17.09-.03.18-.06.27-.09-.09.08-.17.1-.25.17-.1,0-.08-.03-.07-.09-.03.02-.05.04-.08.06,0-.05-.07-.05.1-.14-.02,0-.04,0-.05-.01-.03.02-.05.02-.08.04-.08.06-.1.17-.08.19.01.01.08-.06.08-.04.02.05-.18.14.11.03-.07.08-.11.07-.21.12.02.01.03.02.05.03-.05.02-.1.04-.15.06.02-.11-.33.05-.07-.19-.09.05-.18.1-.27.14.01-.02.03-.04.04-.06.04-.02.09-.04.13-.06-.06.01-.11.03-.17.04-.1.08-.13.13-.16.2.14-.05.08-.06.18-.13,0,.02.02.04.03.07-.08-.01-.23.12-.27.14-.12.08-.05-.02-.13.02-.08.05-.16.13-.25.12.02.02.03.05.05.06-.12.08-.11.04-.13.04-.24.06-.33.18-.56.32.03-.01.07-.02.1-.03-.15.15-.04.07.13,0-.15.08-.21.17-.3.24-.1.07-.29.15-.36.17.13-.11.3-.19.46-.29-.03-.01-.06-.02-.1-.04-.07.11-.15.11-.18.12-.11.04-.08.08-.17.06.01.01.02.03.03.04-.2.11-.44.2-.53.34-.03-.03-.07-.06-.1-.1-.07.08-.16.09-.22.14-.07.05-.02.06-.1.12-.01.01-.06,0-.09.05-.03.04-.11.23-.18.14-.07.04-.14.08-.21.12.07-.04.13-.09.2-.13-.07.01-.14.02-.21.03,0,.02,0,.05.01.07-.14.12-.28.15-.43.25-.03.02.06.02-.06.08-.12.06-.25.03-.44.18,0,0-.03.1-.13.1-.02,0,.04-.05,0-.04-.04,0-.22.1-.25.07,0,0,.02.01.04.02-.03.02-.05.04-.08.06-.01-.02-.03-.03-.04-.05-.14.14-.19.25-.44.37.08-.01.17-.03.25-.04,0-.03.02-.06.02-.09.12-.06.23-.11.35-.17,0-.03.01-.06.02-.09.03-.01.06-.03.09-.04,0,.02,0,.04,0,.06.06-.04.11-.08.17-.11-.07.16-.34.18-.28.25-.03,0-.07,0-.1.01,0,.04-.05.06-.15.11.03,0,.07,0,.1.02-.11.03-.27.12-.37.17-.04.02-.02-.03-.03-.03-.07.02-.17.14-.2.15-.16.07-.31.04-.45.19.18-.09.08-.04.16-.04.02,0,.26-.11-.02.04-.03.02-.57.25-.43.11-.07.06-.13.12-.19.17-.25-.01-.12.06-.03.09-.03.02-.06.03-.09.05.03-.1-.31.09-.4.18-.03.03.09,0,0,.05-.04.02-.1.04-.14.06.09,0-.03.09,0,.13-.1,0-.21-.03-.19-.1-.06.06-.11.11-.17.17.04,0,.07-.02.11-.02-.23.1-.48.32-.57.26-.03.02-.06.03-.09.05,0,.02,0,.04,0,.06-.14.06-.28.12-.41.19.11-.08.13-.11.26-.17-.06,0-.11.02-.17.03-.16.15-.16.2-.45.34-.01,0-.24.09-.25.09-.04,0,0-.05-.03-.05-.05,0-.33.08-.34.07,0-.15.82-.63,1.04-.76,2.28-1.4,4.59-2.62,6.88-3.96.02-.01,0-.02.01-.03.06-.04.14-.05.16-.06.05-.03,0-.03.05-.06.37-.22.73-.4,1.1-.62.02-.01.01.02.05,0,.02-.01.07-.08.12-.11.17-.1.32-.18.51-.28.1-.06.25-.14.36-.21.05-.03.09-.07.14-.1.07-.04.07,0,.08,0,.05-.02.04-.05.09-.08.08-.05.1-.03.2-.09.07-.04.24-.16.33-.22.23-.1.51-.27.71-.4.04-.02.06-.04.09-.05.07-.03.1-.03.15-.05.24-.1.46-.17.72-.14.35.05.61.23.83.48.03.04.05.01.08.05.13.15.23.4.25.57.02.11,0,.18,0,.25,0,.04-.02.09-.01.15,0,.04.04.05.05.12,0,.11-.03.23-.03.31,0,.11.03.01.03.16,0,0-.03.03-.03.06,0,.09.03.08.02.21,0,.01-.03.18-.03.2,0,.1,0,.3,0,.36.02.21.06.05-.03.23.02.08.04.16.07.24-.02-.06-.05.17-.05.19.02.13.05.05.04.22-.08-.22-.01.22,0,.32.01.47-.01.9,0,1.38,0,.16.02.37.02.54,0,.04-.02,0-.02.04,0,.03.02,0,.02.04,0,.24-.05.44,0,.66,0,.01-.01.01-.02.03.05.18-.02.54-.02.67-.01.21.02.26.01.41,0,.2-.07.5.03.37,0,.14,0,.27,0,.41,0,.02-.03,0-.03.01,0,.04.02.05.02.08,0,.07-.02-.05-.02.06,0,.05.02.08.02.23,0,.9,0,1.88,0,2.8,0,.06.02.02.02.1,0,.28-.05.77-.04,1.01,0,.24.04.18.06.33,0,.03-.02,0-.02.03,0,.18-.03.38-.04.53,0,.09.03.09.03.15,0,.1-.03.2-.03.25,0,.24.02.41,0,.64,0,0,.01-.01.02-.02,0,.12,0,.23,0,.35,0,.21-.05.42-.14.61.01-.01.03-.03.04-.04-.21.39-.27.28-.12.35-.02.03-.04.06-.05.09-.05-.06-.26.12-.57.22-.02,0-.15.13-.16.04-.03.03-.05.05-.09.08-.07-.01-.15-.03-.22-.05-.04,0-.07.01-.11.01,0,.02,0,.03-.02.05-.17,0-.5-.12-.62-.2,0,0,0,0-.01,0-.22-.12-.47-.21-.61-.35-.09-.04-.02.03-.14-.04,0-.02-.01-.04-.02-.07-.14,0-.14-.04-.27-.14-.09-.06-.16-.08-.25-.14-.02-.01,0-.03-.02-.04-.05-.03-.22-.09-.25-.11-.33-.18-.62-.35-.93-.54-.03-.02,0,.02-.03,0-.06-.03,0-.04-.04-.06-.09-.06-.11-.03-.24-.1-.42-.24-.89-.54-1.32-.79-.01,0-.02.01-.04,0-.1-.06-.18-.14-.27-.19-.15-.08-.27-.12-.41-.2-.28-.16-.52-.32-.81-.49-.24-.14-.44-.25-.7-.4-1.13-.66-2.32-1.27-3.45-1.96-.03-.02,0-.03-.02-.03-.09-.04-.11-.02-.11-.09-.11-.05-.17-.04-.29-.12-.07-.04.01-.06-.12-.1-.12-.04-.02.06-.32-.15,0,0-.03-.06-.1-.09-.07-.03,0,.04-.17-.05-.33-.17-.71-.42-1.09-.63-.08-.05-.16-.1-.24-.17-.04-.02-.33-.34-.36-.43-.08-.14-.1-.1-.16-.31-.04-.17-.02-.31,0-.51,0-.02-.03-.07.02-.21ZM14.35,7.28s-.15-.08-.11-.25c0-.02.08.07.1-.02,0,.09.01.18.02.27h0ZM1.08,7.65c-.09.05-.16.11-.23.18.03-.06.07-.12.11-.18.04,0,.08,0,.11,0ZM12.98,15.88s0,0,0,0c.03.01.06.03.09.04.08.03.16.05.23.06-.01,0-.03.02-.04.02-.07,0-.14-.02-.21-.04-.02,0-.04-.01-.05-.02,0-.02-.01-.04-.02-.06ZM12.01,15.45c-.07-.05-.04-.06-.07-.1,0,0,0,0,0,0,0-.01-.06-.04-.07-.06,0,.02,0,.03,0,.05-.19-.07-.47-.37,0-.16-.02.01-.03.02-.05.03.22.12.44.29.19.23ZM14.3,5.27c-.06-.21-.07-.28-.03-.54.02.04.03.07.05.11-.02.04-.03.09-.05.13h0s.03.02.05.03c0,.09-.01.19-.02.28ZM4.95,11.32c0-.13-.01-.06.15,0,.06.02.02-.02.05,0,.18.08.16.16.1.17-.1-.05-.2-.11-.29-.16,0,0,0,0,0,0ZM.65,8.68s0,0,0,0c.02-.01.06.04.05-.04.02.05.05.1.09.15-.01-.01-.02-.03-.04-.04,0,.02,0,.04,0,.05.04,0,.03.03.07.08.01-.04.03-.07.05-.1.03.06.07.11.12.16,0,0,0,.01-.01.02.03,0,.06.01.08.02,0,.01,0,.02,0,.04,0,0,0,0,0,0,.04.01.07.02.11.04,0,.03-.08,0,.05.06-.05,0-.1,0-.16,0-.02,0-.03-.02-.05-.03-.16-.1-.3-.24-.37-.41ZM6.3,12.07c-.22-.12-.15-.1-.07-.12.02.04.05.08.07.12ZM14.38,12.45c-.04-.07-.08-.14-.11-.22-.02-.15.05-.29.08-.18.03.13,0,.27.04.4ZM14.36,9.14c-.02.18-.06.01-.09-.03.04-.05.04-.12.04-.23,0,.1.05.23.05.26h0ZM14.33,15.3c0,.06,0,.12-.03.17-.03-.03.03-.12-.04-.06,0-.04.01-.07.02-.11.02.03.04,0,.06,0h0ZM8.39,13.22c.1.11.13.1.27.15,0,.04-.18,0-.27-.03,0-.04,0-.08,0-.12ZM4.74,5.45c0-.06.22-.18.33-.23,0,.01-.02.03-.03.04-.1.06-.2.13-.3.2ZM14.32,8.83s0,.04,0,.05c0-.02,0-.04,0-.05ZM14.52,1.39c.04.06.06-.12.04.1h0c-.01.14-.01.17-.02.3-.05-.05-.07-.31-.09.05,0,0,.03,0,.03.05,0,.02-.03.08-.04.16,0,.03-.01.24-.01-.05-.04,0-.08,0-.11,0-.01-.11.06-.2.06-.32,0-.18-.08-.27.02-.3.02.15.02.4-.03.44,0,.14.05.18.07.07-.03-.48.06-.16.04-.52,0-.01,0-.03,0-.05-.01,0-.03-.02-.04-.02.03-.11.06,0,.08.06,0,.01,0,.02,0,.03ZM14.41,2.43c-.03-.09-.06-.17-.09-.26.05,0,.09.05.12.18,0,.02-.02.05-.03.07ZM9.51,2.59s-.01.07-.02.1c-.03,0-.58.28-.32.11.04-.03.3-.12.34-.21ZM7.53,12.77c.05.05.11.1.16.15-.1-.05-.2-.09-.31-.14.05,0,.1-.01.14-.02ZM14.43,11.27s-.04-.07-.03.05c-.02-.09-.04-.17-.06-.26.02-.03.03-.05.05-.08-.01-.02-.02-.04-.03-.06.02.01.05.02.07.04-.05.15,0,.18,0,.32ZM14.42,15.68c-.06,0,0-.2-.09-.02-.01-.05,0-.11.02-.22.02-.01.03-.03.05-.04-.03,0-.04-.04-.06-.1t0,0s0-.06,0-.08c0-.1.02-.1.07-.13,0,.06-.01.1,0,.13,0,.07.04.11.04.2,0,.1-.05.2-.02.26ZM10.08,2.26c-.1.11.03.08-.21.17,0-.02.02-.04.02-.05.06-.04.12-.07.18-.11ZM13.83,16.01c.04.07.2.06.14-.06-.11.04-.03.08-.14.06ZM14.49,9.2c0,.25-.1.2-.14.1.02-.02.03-.03.05-.05,0-.04-.02-.09-.02-.13.04.03.08.05.12.08ZM10.03,14.33c.19.04-.16-.13-.03-.1.11.03.2.15.13.15-.03-.02-.07-.04-.1-.06,0,0,0,0,0,0ZM10.98,14.86c0-.07.03-.03-.1-.1-.04-.02-.32-.21-.22-.09.11.06.22.13.33.19ZM14.4,6.33s.09.26.07.29h0c-.04.09-.05-.19-.1-.07.05-.27-.07-.34.09-.33,0,.16-.03.08-.06.1ZM1.87,6.96s0,0,0,0c.02,0,.16-.05.15-.02-.16.08-.14.04-.26.16-.01,0-.03-.02-.04-.02.05-.04.07-.07.15-.11ZM8.91,2.88c.05-.04.17-.07.23-.11-.14.21-.44.26-.23.11ZM2.57,9.97s0,0,0,0c0,0,0,0,0,0,0,0,0,0,0,0ZM13.23.49s-.02,0-.02-.01c0,0,0,0,0,0,0,0,.01.01.02.02ZM14.39,5.79c.04-.11.1.25.08.37-.02,0-.03,0-.05-.03.05-.09-.04-.33-.03-.34ZM14.41,14.08c0-.29.15.09.03.1,0,0-.03-.09-.03-.1ZM14.41,8.06c.05.07.06-.07.05.16-.01.01-.02.03-.04.04,0-.07,0-.13-.01-.2ZM14.6,12.2c-.03-.36-.07-.71-.2-.47,0,.03,0,.06.01.08.06,0,.03.11.03.25.02.02.03.1.05.12.04.03.07-.06.11.02ZM4.17,11.04s.02-.01.03-.02c.06.02.11.04.17.06-.02.01-.04.03-.05.04-.05-.03-.1-.05-.14-.07,0,0,0,0,0,0ZM14.54,2.78c-.12-.03-.09.08-.04.31.01-.1.02-.21.04-.31ZM12.34,15.81s.02-.06.03-.1c-.12-.03-.12.01-.09.08.02,0,.04.01.06.02ZM10.79,14.93s.03,0,.04,0c.11.08.12.1.26.16.02,0,.04,0,.06.01-.03-.1-.09-.09-.21-.2.01.03.03.07.04.1-.07-.05-.14-.09-.22-.14-.01,0-.03,0-.04,0,.02.02.04.05.07.07ZM3.61,10.68c-.07-.04-.14-.09-.22-.13-.01.01-.02.03-.03.04.08.03.17.06.25.09ZM14.44,1.05s-.02,0-.02-.01c0,0,.02,0,.02.01ZM1.63,6.99c-.09.04-.2.11-.3.16.03.03.25-.11.35-.14,0-.01-.01-.04-.05-.03ZM14.49,9.55s.04.05.06.07c0,.06,0,.12,0,.17.02,0,.03,0,.05,0-.02-.26.03-.2.08-.32-.06.02-.12.05-.18.07ZM1.24,9.43c.17.08.23.1.17,0-.06-.02-.13-.05-.19-.07,0,.02.01.05.02.07ZM11.57,1.25c-.12.09-.16.04-.27.14.08-.03.15-.06.23-.09.01-.02.03-.04.04-.06ZM14.72,5.28c.02-.07-.09-.19,0-.37-.03-.04-.05-.07-.07-.11.03-.02.05-.05.08-.07h0c0-.17-.04-.06-.07-.06-.01,0,0-.13-.02-.09-.04.07-.02.32-.07.32.02-.09,0-.26-.03-.21-.04.06.03.22,0,.32.09-.15.06.16,0,.19.05.18.07.01.07-.17.05.11.02-.05.07-.08.03.12,0,.51.07.33ZM14.63,13.7c0-.12.03-.32-.02-.4-.02-.05-.04.14-.08.01,0,.12.02.15.05.13,0,.03,0,.06.01.08,0,.01-.01.03-.02.04.01.01.03.03.04.04,0,.03,0,.06,0,.09,0,0,.01,0,.02.01ZM7.71,3.48s.06-.03.09-.05c0,0-.02-.01-.02-.02,0,0-.01,0-.02-.01.03.01.19-.04.24-.09.02-.03-.07-.03.05-.11-.09.06-.17.11-.26.16,0-.02,0-.03,0-.05,0,0,0,0,0,0-.03.01-.06.03-.09.04,0,.04,0,.08.01.12ZM12.39,15.92c.11.03.16.04.13-.02,0,0,0,0,0,0-.05,0-.09-.01-.14-.02,0,.01,0,.03.01.04ZM13.76.25c-.3.09.3.16.22.09,0,0-.19-.07-.22-.09ZM14.54,9.16c0,.07,0,.14,0,.2.02-.02.04-.03.06-.05-.02-.05-.04-.11-.07-.16ZM1.9,9.9c.04.08.19.18.29.18-.04-.03-.08-.06-.11-.09.08.04.16.08.24.12.04-.05-.07-.07-.2-.17-.02-.01-.11-.16-.19-.14-.02,0,.12.09,0,.07.04.03.08.05.12.07,0,.01,0,.03-.01.04-.05-.03-.1-.07-.14-.1ZM14.62,12.98c0-.17-.02-.19-.07-.23,0,.08.01.16.02.24.02,0,.03,0,.05-.01ZM3.2,10.67c.08.05.06,0,.1.01.14.05.21.12.33.17-.01,0-.02,0-.03,0,0,0,0,0,0,0,.56.36.3.11-.05-.07,0-.02,0-.03,0-.05-.16-.07-.32-.13-.34-.07ZM14.64,2.25s.06.06.04-.06c-.08-.1-.04.06-.07.1,0-.03-.01-.07-.02-.1-.02.19,0,.22.05.15,0,0,0-.08,0-.09ZM14.59.91c-.11.02.02.26.04.25,0-.04-.03-.07-.03-.11,0-.04.02-.06,0-.14ZM14.65,8.01s.05-.08.01-.07c-.09.09-.03.27,0,.24,0-.06-.02-.1-.01-.17h0ZM.92,9.37s.15.11.18.11c.03,0,.05-.02.07-.03-.1-.03-.26-.15-.25-.07,0,0,0,0,0,0Z"/>
  </g>
</svg>