<svg width="15" height="17" viewBox="0 0 15 17" fill="none" xmlns="http://www.w3.org/2000/svg">
<path d="M2.80481 9.7496C2.73372 9.65649 3.03152 9.86256 2.85763 9.6844C2.90319 9.70545 2.94908 9.72653 2.99464 9.74758C2.99315 9.77551 2.99195 9.80355 2.99046 9.83149C2.92866 9.80429 2.86684 9.77708 2.80474 9.74971C2.80476 9.74967 2.80478 9.74964 2.80481 9.7496ZM2.56926 9.9743C2.6581 9.94344 2.83683 10.0247 2.68682 9.86232C2.66008 9.87507 2.63299 9.88762 2.60625 9.90037C2.55224 9.84732 2.49783 9.79405 2.44377 9.7411C2.41629 9.73598 2.38883 9.73088 2.3614 9.72567C2.35354 9.67215 2.346 9.61867 2.33819 9.56506C2.3609 9.58534 2.3839 9.60591 2.40661 9.62619C2.52588 9.65527 2.62139 9.69953 2.76313 9.77396C2.75599 9.75824 2.74877 9.74258 2.74162 9.72687C2.80339 9.78225 2.8651 9.83764 2.92658 9.89285C2.85739 9.87226 2.78009 9.84916 2.71593 9.83015C2.77284 9.93982 2.9504 9.99958 3.04013 10.0354C3.16233 10.0841 3.12104 10.0967 3.21131 10.1336C3.22569 10.1395 3.23961 10.1189 3.26621 10.1338C3.40041 10.209 3.65256 10.3697 3.47232 10.3325C3.2568 10.1994 3.04659 10.1317 2.83998 9.99282C2.86343 10.0836 2.73873 10.0379 2.56926 9.9743ZM6.70349 12.1152C6.6208 12.105 6.49204 12.0155 6.41164 11.9431C6.41154 11.943 6.41143 11.943 6.41133 11.9429C6.39364 11.9269 6.36954 11.8632 6.43452 11.9027C6.54038 11.9673 6.55832 12.0562 6.63775 12.0487C6.65867 12.0707 6.68133 12.0926 6.70349 12.1152ZM6.93886 12.2465C6.99639 12.2989 6.94091 12.326 6.86537 12.2664C6.86535 12.2665 6.86533 12.2665 6.86531 12.2665C6.83379 12.2416 6.92159 12.2456 6.77763 12.2099C6.7684 12.1677 6.75812 12.1282 6.74868 12.087C6.77915 12.104 6.80714 12.1192 6.83904 12.1371C6.79144 12.1703 6.88128 12.1941 6.93886 12.2465ZM3.59809 10.3717C3.63208 10.3367 3.58856 10.3119 3.5311 10.2409C3.60003 10.2825 3.66893 10.3242 3.73757 10.3656C3.69095 10.3676 3.64471 10.3697 3.59809 10.3717ZM1.96401 9.41977C1.9639 9.41971 1.96379 9.41965 1.96369 9.41959C1.93712 9.41286 1.91047 9.40611 1.88425 9.39945C1.87904 9.37696 1.87395 9.35463 1.86873 9.33214C1.78012 9.29926 1.69107 9.26613 1.6024 9.23334C1.63797 9.19438 1.77863 9.28527 1.87644 9.30016C1.98734 9.38211 2.02957 9.44103 2.01544 9.4833C1.99836 9.46221 1.98139 9.44104 1.96401 9.41977ZM14.4134 7.77932C14.3992 7.74815 14.3849 7.71738 14.3706 7.68622C14.3641 7.72765 14.3591 7.76876 14.3515 7.81054C14.4136 7.91981 14.3587 7.93007 14.3625 8.07324C14.3743 8.51207 14.4708 8.39564 14.3295 8.79196C14.3362 8.47377 14.2699 8.59605 14.2187 8.40421C14.2577 8.36447 14.3454 8.55456 14.3636 8.42575C14.3224 8.2038 14.2841 7.99036 14.2575 7.74409C14.2508 7.75128 14.244 7.75843 14.2373 7.76563C14.2415 7.80468 14.2458 7.84341 14.25 7.88246C14.232 7.84033 14.2142 7.79914 14.196 7.75632C14.2368 7.81044 14.214 7.6725 14.261 7.69096C14.2819 7.69918 14.3109 7.76014 14.3309 7.79612C14.3417 7.7033 14.3517 7.6081 14.3622 7.51425C14.3789 7.56287 14.3956 7.61146 14.4122 7.65974C14.4127 7.69946 14.4131 7.73887 14.4136 7.77859C14.4136 7.77883 14.4135 7.77908 14.4134 7.77932ZM3.18448 6.47685C3.26222 6.3758 3.44366 6.26175 3.56833 6.25228C3.44028 6.32716 3.31253 6.40196 3.18448 6.47685ZM2.00519 9.51896C1.99776 9.50512 1.99066 9.49158 1.98324 9.47774C2.04191 9.49394 2.10083 9.51039 2.15951 9.52659C2.15735 9.55293 2.15541 9.57941 2.1536 9.60584C2.10422 9.57697 2.05456 9.54782 2.00519 9.51896ZM5.2826 11.3804C5.24455 11.3602 5.24164 11.3576 5.19686 11.3278C5.1969 11.3278 5.19695 11.3279 5.19699 11.3279C5.1792 11.3162 5.03201 11.2151 5.05839 11.2091C5.13509 11.253 5.21658 11.3004 5.29491 11.3456C5.29123 11.3575 5.28574 11.3682 5.2826 11.3804ZM4.38697 10.8509C4.38688 10.8509 4.3868 10.8508 4.38671 10.8507C4.36025 10.8322 4.3367 10.812 4.30847 10.7945C4.42646 10.8292 4.41684 10.8836 4.51823 10.9252C4.61966 10.9667 4.6921 10.9754 4.7363 11.0831C4.70131 11.0752 4.66173 11.0699 4.62497 11.0631C4.5057 10.9613 4.45637 10.9638 4.33527 10.9262C4.35256 10.9011 4.36968 10.8761 4.38697 10.8509ZM14.2695 9.73304C14.3046 9.7625 14.2701 9.79536 14.2697 9.79877C14.2697 9.7987 14.2696 9.79865 14.2696 9.79858C14.3022 10.0595 14.2501 9.76462 14.2446 10.0109C14.2358 9.97425 14.2265 9.93821 14.2176 9.90191C14.2346 9.84575 14.2538 9.78784 14.2695 9.73304ZM12.3076 15.4588C12.3107 15.4488 12.3133 15.4384 12.3164 15.4284C12.4434 15.5044 12.4962 15.4884 12.5843 15.5817C12.492 15.5408 12.3998 15.4999 12.3076 15.4589C12.3076 15.4589 12.3076 15.4589 12.3076 15.4588ZM5.89133 11.8179C5.73944 11.7528 5.63001 11.6996 5.50906 11.5939C5.50898 11.5938 5.50889 11.5937 5.50881 11.5936C5.50189 11.5874 5.55067 11.5909 5.5431 11.5802C5.51334 11.5668 5.4818 11.5542 5.45143 11.5411C5.45616 11.524 5.46106 11.5071 5.46574 11.4901C5.5434 11.5405 5.62111 11.591 5.69907 11.6416C5.69223 11.6261 5.68505 11.6104 5.6782 11.5949C5.74901 11.6298 5.81956 11.6646 5.89037 11.6995C5.85258 11.7102 5.81483 11.7209 5.77728 11.7318C5.81526 11.7605 5.85341 11.7891 5.89133 11.8179ZM14.258 15.6749C14.2367 15.689 14.242 15.6433 14.2158 15.6684C14.1905 15.6933 14.169 15.7567 14.1527 15.7257C14.1768 15.6866 14.198 15.6437 14.215 15.6009C14.1017 15.7028 14.0331 15.8285 13.9838 15.7787C14.0919 15.7046 14.1498 15.6025 14.1742 15.4819C14.2285 15.503 14.212 15.6521 14.2977 15.5926C14.286 15.6204 14.2724 15.649 14.2581 15.6745C14.258 15.6746 14.258 15.6747 14.258 15.6749ZM0.0370748 7.88339C0.0717231 7.7379 0.218715 7.40597 0.382658 7.29179C0.421252 7.25838 0.602083 7.23577 0.609169 7.24971C0.633378 7.28822 0.514988 7.40116 0.667482 7.30837C0.622163 7.3457 0.581398 7.38618 0.542047 7.42966C0.571865 7.44304 0.601165 7.45705 0.629769 7.47191C0.672318 7.4217 0.720036 7.37434 0.77069 7.33161C0.779352 7.33798 0.787963 7.34443 0.796511 7.35091C0.614622 7.49525 0.745625 7.44073 0.688401 7.54543C0.773954 7.48286 0.867229 7.43477 0.961621 7.40186C0.91081 7.42826 0.855161 7.46523 0.814469 7.49549C0.842299 7.53878 0.926808 7.46004 0.949611 7.45932C1.01148 7.4552 0.914817 7.5131 0.828703 7.60716C0.740107 7.69928 0.676327 7.83113 0.701611 7.8669C0.747548 7.80046 0.804401 7.73859 0.866897 7.68834C0.857402 7.71108 0.848725 7.73438 0.841701 7.75717C0.686686 7.85594 0.575791 8.05652 0.542593 8.28611C0.544596 8.30694 0.547349 8.32767 0.550577 8.34787C0.573885 8.34049 0.597198 8.33386 0.620656 8.32736C0.624549 8.3561 0.629876 8.38485 0.636566 8.41275C0.551931 8.33602 0.551589 8.4542 0.559851 8.62197C0.503622 8.54961 0.502988 8.43788 0.454026 8.45308C0.524757 8.73186 0.695471 9.05538 0.969663 9.17174C0.987243 9.17951 1.00481 9.18686 1.02238 9.19375C1.09105 9.22073 1.1238 9.16354 1.26931 9.25457C1.26065 9.25793 1.25324 9.26876 1.24522 9.27512C1.51793 9.39612 1.68325 9.46978 1.93417 9.65182C1.9306 9.6224 1.92732 9.59304 1.92375 9.56363C1.86118 9.54113 1.79843 9.51873 1.73616 9.49641C1.71716 9.44027 1.78278 9.45822 1.61347 9.36095C1.47477 9.28123 1.54861 9.3438 1.50513 9.33209C1.4462 9.31633 1.41699 9.26353 1.35327 9.24716C1.30407 9.23441 1.33383 9.28886 1.22726 9.21788C1.29266 9.20737 1.35965 9.19619 1.42561 9.1854C1.4479 9.20914 1.46991 9.23289 1.49215 9.25672C1.45927 9.25064 1.42692 9.24471 1.39404 9.23863C1.50019 9.27674 1.60048 9.31277 1.71026 9.35213C1.6477 9.38581 1.76176 9.42549 1.8211 9.45151C1.91357 9.492 1.81834 9.48505 1.87876 9.51193C1.93924 9.53872 2.02391 9.53394 2.12189 9.60198C2.05326 9.59342 2.11625 9.65765 2.08933 9.67078C2.06238 9.6839 1.95074 9.62579 2.0418 9.70966C2.25324 9.80795 2.08226 9.60004 2.22578 9.6652C2.39815 9.74345 2.3599 9.89937 2.29469 9.89999C2.24338 9.90048 2.11431 9.81991 2.06276 9.82014C2.27517 9.99691 2.32349 9.91794 2.3729 9.92555C2.55241 9.95308 2.366 10.0486 2.57136 10.0937C2.55165 10.1203 2.53421 10.1444 2.51517 10.1699C2.54811 10.1819 2.57198 10.1865 2.61054 10.2033C2.53591 10.0862 2.62186 10.139 2.66673 10.1648C2.73744 10.2053 2.64401 10.1153 2.66674 10.1191C2.72798 10.1295 2.80284 10.1841 2.76802 10.1313C2.7834 10.1554 2.80061 10.1805 2.81663 10.2049C2.90732 10.2383 3.16986 10.2313 2.97148 10.1488C3.01419 10.1145 3.06162 10.1702 3.10432 10.2039C3.14701 10.2375 3.16239 10.2088 3.20033 10.2377C3.35118 10.3525 3.21685 10.3391 3.16926 10.3619C3.39934 10.4601 3.1987 10.3214 3.51869 10.4829C3.5664 10.4695 3.44213 10.354 3.57163 10.4051C3.56276 10.4712 3.62842 10.5602 3.78934 10.6768C3.81305 10.6741 3.83677 10.6713 3.86047 10.6686C3.92547 10.7719 3.84811 10.7955 4.05636 10.8343C3.89856 10.8932 4.00395 10.8581 4.13237 10.9933C4.15849 11.0206 4.07235 11.002 4.10943 11.0392C4.12625 11.056 4.18474 11.0663 4.2255 11.108C4.24535 11.1284 4.33128 11.2358 4.42001 11.2596C4.3951 11.1726 4.56786 11.2105 4.46869 11.0931C4.69369 11.2379 4.87075 11.3052 4.56855 11.2298C4.61777 11.2802 4.66708 11.3306 4.71636 11.3809C4.7648 11.3915 4.81354 11.4025 4.86223 11.4134C4.8426 11.4617 4.82909 11.4707 4.99493 11.5559C4.91884 11.5261 4.84295 11.4966 4.76651 11.4667C4.75892 11.4744 4.74371 11.4781 4.741 11.4883C4.837 11.5208 5.08365 11.6533 5.14927 11.6753C5.21489 11.6973 5.10333 11.6285 5.12692 11.6267C5.32286 11.6127 5.27109 11.6766 5.38164 11.7186C5.44656 11.7432 5.31096 11.6509 5.34509 11.6651C5.47152 11.7179 5.49686 11.8001 5.60086 11.861C5.58039 11.8109 5.56047 11.7604 5.54105 11.7105C5.64964 11.7752 5.77153 11.8459 5.87862 11.8955C5.92065 11.9149 5.90281 11.8761 5.91017 11.8784C5.94677 11.8898 6.08521 11.9542 6.0992 11.9621C6.20426 12.0226 6.19016 12.0539 6.29121 12.1144C6.24973 12.0938 6.21077 12.0743 6.17023 12.0542C6.1247 12.0919 6.07881 12.1295 6.03323 12.1673C6.13117 12.2285 6.2292 12.2897 6.32744 12.3511C6.26344 12.2927 6.19912 12.2343 6.13511 12.176C6.27203 12.2033 6.409 12.2305 6.54598 12.2577C6.59184 12.316 6.63747 12.3741 6.68334 12.4324C6.84891 12.5196 6.87217 12.404 6.90006 12.5331C6.95194 12.5535 7.00383 12.5739 7.05566 12.5944C7.04185 12.6026 7.0281 12.6108 7.0143 12.6189C7.07615 12.6447 7.13795 12.6706 7.19985 12.6963C7.16407 12.6185 7.13077 12.5392 7.09486 12.463C7.21349 12.5191 7.19469 12.5567 7.20634 12.5755C7.23727 12.6254 7.3449 12.6443 7.36767 12.6871C7.3753 12.7017 7.25049 12.6615 7.27281 12.7112C7.2772 12.7208 7.36725 12.9081 7.47559 12.9394C7.48442 12.92 7.4901 12.8932 7.49778 12.871C7.63175 12.9335 7.64141 13.0669 7.60898 13.0841C7.68779 13.1045 7.78799 13.1602 7.81891 13.1389C7.85403 13.1582 7.88887 13.1774 7.924 13.1967C7.8465 13.2474 7.99883 13.3179 8.04387 13.2618C7.98512 13.2259 7.92634 13.1898 7.86759 13.1539C7.95625 13.1044 7.80134 12.9543 8.13804 13.2419C8.18747 13.3227 8.01298 13.1625 8.05475 13.2258C8.14692 13.3019 8.25098 13.3429 8.33221 13.4262C8.4332 13.53 8.26573 13.4771 8.57206 13.596C8.01458 13.129 8.69962 13.5716 9.01047 13.706C9.02848 13.8598 9.25486 14.036 9.61215 14.1996C9.59413 14.1493 9.47863 14.1031 9.4229 14.0578C9.36719 14.0125 9.44388 14.0331 9.37546 13.975C9.30701 13.9168 9.15545 13.804 9.09019 13.7381C9.16558 13.759 9.51255 13.906 9.27065 13.8304C9.41337 13.9524 9.47085 14.0262 9.66575 14.1462C9.75204 14.1337 9.76444 14.1021 9.95833 14.2123C9.80665 14.2112 10.0001 14.383 9.91305 14.4221C9.78511 14.3275 9.89927 14.3065 9.83808 14.2296C9.83176 14.2218 9.69473 14.1644 9.66575 14.1462C9.76072 14.279 9.79267 14.3265 9.67325 14.3504C9.76785 14.3969 9.81945 14.4384 9.84696 14.4099C9.85761 14.4353 9.86837 14.4608 9.87872 14.486C9.90857 14.5027 9.93603 14.5168 9.96729 14.5352C9.95298 14.4601 10.019 14.5394 10.0918 14.5511C10.1646 14.5627 10.1074 14.4769 10.2715 14.5709C10.2237 14.5277 10.1796 14.4888 10.1332 14.4472C10.2463 14.4953 10.3597 14.5434 10.4727 14.5915C10.4163 14.518 10.2818 14.3797 10.3095 14.3419C10.3493 14.3852 10.5314 14.4547 10.5503 14.4641C10.6233 14.5008 10.5701 14.504 10.5751 14.5077C10.6789 14.5841 10.7753 14.6282 10.7951 14.691C10.8885 14.7218 10.9457 14.768 11.0346 14.818C11.0836 14.8456 11.0905 14.8118 11.1159 14.8336C11.2844 14.9787 11.083 14.9112 11.4883 15.0524C11.4555 15.0072 11.4235 14.9618 11.3908 14.9164C11.4363 14.9328 11.4817 14.949 11.5272 14.9653C11.5527 14.9848 11.578 15.0042 11.6035 15.0238C11.5782 15.0662 11.5528 15.1086 11.5275 15.151C11.5564 15.1708 11.5855 15.1906 11.6144 15.2104C11.5601 15.1846 11.5056 15.1588 11.4512 15.133C11.4421 15.1378 11.4334 15.1428 11.4243 15.1476C11.4947 15.2038 11.5648 15.2599 11.6351 15.3162C11.6452 15.3022 11.6553 15.288 11.6654 15.274C11.8273 15.3951 11.8241 15.4101 12.013 15.4645C12.1401 15.5384 12.2796 15.5361 12.3683 15.5524C12.3899 15.576 12.4114 15.5997 12.4333 15.6234C12.4574 15.6208 12.4816 15.6184 12.5056 15.6158C12.5292 15.6523 12.5532 15.6892 12.5769 15.7256C12.6181 15.6974 12.6348 15.6908 12.5119 15.6015C12.5848 15.5788 12.8027 15.7332 12.887 15.8036C12.951 15.8571 12.8487 15.852 12.8548 15.8621C12.8748 15.896 13.0004 15.9492 13.0234 15.9662C13.029 15.9703 13.0345 15.9743 13.0399 15.9783C13.119 16.0356 13.1867 16.0607 13.2725 16.092C13.2898 16.0988 13.3372 16.1375 13.3422 16.1388C13.3764 16.1504 13.4663 16.1691 13.4769 16.1685C14.002 16.1111 13.4457 16.1136 13.8754 15.975C13.8555 15.9663 13.8372 15.9566 13.8188 15.9466C13.8472 15.932 13.8751 15.9156 13.9015 15.8977C13.943 15.8873 13.9173 15.9373 13.9721 15.8723C13.9805 15.8921 13.9885 15.9123 13.9958 15.9326C14.0202 15.9009 14.0411 15.8691 14.0608 15.835C14.1593 15.8543 14.3095 15.6642 14.3717 15.7152C14.3987 15.7345 14.3124 15.913 14.3969 15.8451C14.4493 15.7761 14.3882 15.8066 14.4049 15.7763C14.5101 15.5544 14.5345 15.5748 14.5514 15.4726C14.5348 15.452 14.5173 15.4316 14.4994 15.4125C14.512 15.3773 14.5227 15.3416 14.5316 15.3043C14.5183 15.2944 14.5049 15.2849 14.4914 15.2759C14.4888 15.3093 14.484 15.3472 14.4784 15.3776C14.4604 15.3577 14.4529 15.2892 14.4428 15.222C14.4275 15.1122 14.4293 15.0007 14.4576 15.092C14.4763 15.1526 14.4684 15.2637 14.5323 15.1935C14.5231 15.089 14.5137 14.9705 14.5045 14.8605C14.5183 14.8571 14.532 14.8539 14.5458 14.8505C14.5369 14.7023 14.4819 14.8371 14.4524 14.8368C14.4515 14.8029 14.4508 14.7686 14.45 14.7347C14.4633 14.7204 14.4773 14.7067 14.4902 14.6917C14.469 14.6903 14.4197 14.6713 14.438 14.5703C14.4499 14.5053 14.5034 14.6076 14.496 14.4837C14.4629 14.493 14.4226 14.5377 14.4119 14.3997C14.4465 14.386 14.4781 14.3671 14.5144 14.3565C14.4812 14.1849 14.5346 14.1068 14.496 13.9054C14.4716 13.7776 14.3849 13.6026 14.5185 13.52C14.522 13.4265 14.4887 13.4562 14.4812 13.4285C14.4458 13.298 14.5092 13.2009 14.5129 13.1766C14.5368 13.0215 14.5149 12.9519 14.5448 12.8256C14.52 12.8324 14.4966 12.8361 14.4725 12.8416C14.5096 12.9574 14.5078 13.0161 14.4999 13.1784C14.4949 13.124 14.4898 13.0695 14.4848 13.0151C14.4648 13.024 14.4447 13.0328 14.4247 13.0413C14.5038 13.5436 14.3789 13.4264 14.3515 13.0054C14.3887 12.9691 14.4257 12.9314 14.463 12.8955C14.4067 12.6523 14.4556 12.5378 14.4673 12.2627C14.4686 12.23 14.4472 12.1109 14.4461 12.0597C14.446 12.0606 14.4459 12.0614 14.4457 12.0623C14.4106 12.0304 14.3945 12.0736 14.3631 12.0787C14.3592 12.051 14.3553 12.0232 14.3514 11.9955C14.3753 11.9335 14.3949 11.9553 14.3892 11.8334C14.3654 11.8498 14.3416 11.866 14.3178 11.8825C14.317 11.7489 14.3428 11.6614 14.3316 11.5371C14.3407 11.558 14.3497 11.5786 14.3587 11.5995C14.3817 11.3289 14.5216 11.5442 14.4519 11.3397C14.4641 11.3267 14.4765 11.314 14.4887 11.301C14.4917 11.3853 14.4946 11.4696 14.4976 11.5535C14.5149 11.5552 14.5321 11.5571 14.5493 11.5584C14.5442 11.4683 14.5388 11.3778 14.5337 11.2877C14.5453 11.3535 14.5569 11.4196 14.5685 11.4854C14.5767 11.3809 14.585 11.2764 14.5933 11.172C14.5298 11.2829 14.522 11.1391 14.4591 11.1661C14.5114 10.9811 14.5805 10.8358 14.5363 10.5491C14.5275 10.4922 14.4835 10.5231 14.537 10.3618C14.4671 10.4008 14.4342 10.1987 14.3677 10.2247C14.3709 10.2808 14.3729 10.3391 14.3769 10.3935C14.3999 10.3315 14.4634 10.3213 14.4823 10.4154C14.5063 10.5357 14.4623 10.7111 14.5327 10.7039C14.5294 10.7518 14.5275 10.7964 14.5247 10.843C14.5072 10.8238 14.4896 10.805 14.4721 10.7862C14.4995 10.9187 14.4906 11.002 14.4466 11.0657C14.4364 10.9078 14.4264 10.7502 14.4164 10.5923C14.4134 10.6156 14.4103 10.6392 14.4074 10.6624C14.3624 10.5429 14.3198 10.6662 14.3102 10.4432C14.3308 10.4446 14.3514 10.4457 14.372 10.447C14.317 10.3658 14.3173 10.1435 14.254 10.2144C14.2734 10.1473 14.2857 10.1336 14.2516 10.0956C14.2997 9.91849 14.3606 9.80474 14.4332 9.86777C14.4215 9.80201 14.4098 9.73621 14.3981 9.67079C14.3782 9.70881 14.3585 9.74687 14.3386 9.78489C14.3398 9.67047 14.3411 9.55522 14.3422 9.44114C14.401 9.43017 14.36 9.66137 14.4126 9.59467C14.4231 9.58132 14.4005 9.51974 14.4065 9.50357C14.4707 9.33298 14.4243 9.60078 14.4735 9.55049C14.4888 9.29629 14.5713 9.49971 14.5019 9.14959C14.5189 9.14034 14.5362 9.13041 14.5531 9.12184C14.5541 9.00031 14.5158 9.01016 14.5085 8.9057C14.504 8.84027 14.5713 8.75816 14.5255 8.6859C14.517 8.67302 14.4348 8.79456 14.4384 8.53912C14.4412 8.34087 14.4993 8.42338 14.5199 8.31622C14.5405 8.20899 14.4599 7.96369 14.5513 7.89141C14.5392 7.94757 14.5327 8.01912 14.5227 8.08145C14.5405 8.1068 14.5581 8.13148 14.5758 8.15648C14.5529 8.01397 14.5799 7.86666 14.5375 7.77074C14.6024 7.58061 14.5422 7.36797 14.4689 7.42552C14.4795 7.48811 14.5114 7.42003 14.4911 7.50694C14.474 7.51585 14.457 7.52524 14.4399 7.53415C14.442 7.38615 14.4415 7.28337 14.4936 7.35086C14.4948 7.32791 14.496 7.30517 14.4973 7.28222C14.4596 7.27811 14.4218 7.27446 14.3841 7.27035C14.3799 7.24295 14.3757 7.21542 14.3714 7.18802C14.3797 7.15755 14.3881 7.12701 14.3965 7.09619C14.4561 7.13764 14.458 7.20825 14.4914 6.97461C14.4708 6.97392 14.4503 6.97292 14.4297 6.97224C14.4558 6.77663 14.5057 6.77147 14.5039 6.52588C14.5754 6.7143 14.4486 6.81738 14.5921 6.8167C14.5827 6.86397 14.5731 6.91163 14.5637 6.95891C14.5845 6.9661 14.6053 6.97323 14.6261 6.98009C14.6152 6.72626 14.4784 6.30461 14.5691 6.13466C14.558 6.11412 14.5484 6.09349 14.5365 6.07259C14.5912 5.9061 14.4683 5.8342 14.5391 5.66531C14.5465 5.64789 14.662 5.68435 14.6579 5.4645C14.6429 5.46997 14.6176 5.47283 14.5987 5.47728C14.6079 5.42968 14.6175 5.38232 14.6269 5.33507C14.6131 5.3265 14.5992 5.31752 14.5852 5.30896C14.5799 5.39015 14.5744 5.47112 14.569 5.55231C14.5642 5.48485 14.5595 5.41695 14.5547 5.34949C14.5321 5.4375 14.5318 5.47721 14.4955 5.42415C14.4933 5.34776 14.491 5.27126 14.4889 5.19486C14.4796 5.18699 14.4702 5.17918 14.4609 5.17131C14.4331 5.20831 14.406 5.24568 14.3778 5.28267C14.4005 5.08364 14.4017 4.9106 14.4563 4.75782C14.4655 4.73179 14.5016 4.82386 14.469 4.64646C14.4882 4.64372 14.5037 4.63895 14.5214 4.63587C14.4678 4.41868 14.4838 4.34732 14.5225 4.12088C14.4864 4.2675 14.5099 4.13668 14.4905 4.09934C14.4772 4.07375 14.4792 4.17361 14.4652 4.16232C14.4513 4.15102 14.3953 4.02125 14.3886 4.1322C14.5034 4.40421 14.3661 4.47831 14.4213 4.82774C14.4065 4.77395 14.3917 4.71978 14.3769 4.66599C14.3668 4.69132 14.3577 4.714 14.3471 4.74139C14.3695 4.5465 14.355 4.64129 14.3373 4.56121C14.3196 4.48104 14.3045 4.33535 14.2997 4.23772C14.2981 4.20696 14.3239 4.2394 14.3263 4.16999C14.3279 4.12272 14.2898 3.99353 14.3348 3.9637C14.364 3.94417 14.4447 4.15172 14.4445 3.86475C14.4732 3.81074 14.4643 3.94832 14.4677 3.95128C14.5019 3.97629 14.5276 3.79988 14.5015 3.71834C14.4992 3.71174 14.4726 3.77613 14.4622 3.70611C14.4373 3.53996 14.4678 3.444 14.5091 3.33643C14.4606 3.32478 14.4028 3.18496 14.4207 3.01093C14.4068 3.00203 14.3928 2.99355 14.3789 2.98465C14.3862 3.01167 14.3935 3.03868 14.4008 3.0657C14.3921 3.09516 14.3858 3.12638 14.3755 3.15515C14.3636 2.98014 14.2969 2.95538 14.2724 2.87146C14.189 2.58426 14.3655 2.75832 14.3959 2.81012C14.3836 2.84746 14.3699 2.88357 14.3569 2.92057C14.3738 2.91646 14.3908 2.91229 14.4078 2.90852C14.4072 2.4786 14.5173 2.84305 14.5486 2.62483C14.4656 2.56865 14.4576 2.40837 14.5103 2.20421C14.5099 2.1816 14.5098 2.15891 14.5092 2.1363C14.4971 2.13254 14.4787 2.1326 14.4707 2.12645C14.4566 1.88047 14.5844 1.83666 14.5965 1.81336C14.6502 1.70991 14.5759 1.62935 14.5753 1.59886C14.5731 1.49176 14.5957 1.448 14.5951 1.36556C14.5949 1.34707 14.5935 1.32697 14.5899 1.30467C14.5627 1.16074 14.5458 1.26275 14.5189 1.22272C14.498 1.19108 14.4724 1.08711 14.4398 1.05164C14.4596 1.0633 14.4795 1.0782 14.4989 1.09149C14.4808 0.947603 14.4468 0.823095 14.3461 0.68439C14.1492 0.611751 14.1327 0.386876 14.0932 0.543569C14.2066 0.643339 14.246 0.723489 14.2594 0.806573C14.2014 0.734424 14.1333 0.671254 14.0582 0.619369C14.0473 0.589876 14.0413 0.565202 14.023 0.532741C13.946 0.520604 13.8061 0.441116 13.7402 0.436366C13.4381 0.427415 13.5478 0.495775 13.2727 0.428554C13.4591 0.387224 13.4643 0.336881 13.6641 0.371829C13.6283 0.327398 13.5186 0.32521 13.5929 0.289777C13.3834 0.28635 13.4515 0.333461 13.3782 0.370004C13.316 0.402763 13.1952 0.436906 13.2135 0.471952C13.1957 0.455699 13.1798 0.439712 13.1608 0.424329C13.0982 0.445831 13.0382 0.473321 12.9807 0.506618C12.9298 0.536037 12.879 0.565458 12.8281 0.594917C12.8636 0.54947 12.899 0.503999 12.9345 0.458642C12.8955 0.471761 12.8564 0.484937 12.8173 0.498056C12.5839 0.710472 12.0619 0.869537 12.2199 0.973419C12.0938 1.05241 12.0671 1.04336 11.9811 1.05608C11.9799 1.07164 11.9777 1.08521 11.9771 1.10203C11.8873 1.13835 11.8477 1.21687 11.7681 1.24833C11.6887 1.27987 11.6477 1.25097 11.6753 1.32337C11.6169 1.33177 11.5606 1.34323 11.5032 1.35281C11.4834 1.38429 11.4636 1.41558 11.4441 1.44679C11.395 1.4646 11.3459 1.48249 11.2968 1.5003C11.2913 1.54564 11.1085 1.63303 11.0436 1.6988C10.9507 1.70699 10.8907 1.59853 10.7296 1.71722C10.7494 1.74126 10.7691 1.76526 10.7889 1.78931C10.7463 1.80653 10.7035 1.82382 10.6606 1.84121C10.6532 1.83389 10.6461 1.82639 10.6387 1.81908C10.6605 1.81012 10.6819 1.80131 10.7037 1.79244C10.6777 1.78785 10.6521 1.78311 10.6264 1.77835C10.5787 1.83489 10.531 1.89148 10.4831 1.94819C10.5742 1.91759 10.6653 1.88697 10.7564 1.85637C10.6653 1.935 10.5828 1.95664 10.5064 2.02981C10.4078 2.03777 10.4241 2.00009 10.4325 1.94207C10.4057 1.96208 10.3785 1.98217 10.3517 2.00218C10.3477 1.95135 10.2853 1.95568 10.4553 1.86181C10.4372 1.85711 10.4192 1.85308 10.4011 1.84776C10.3745 1.86548 10.3511 1.8662 10.3234 1.88805C10.2478 1.94768 10.225 2.05423 10.2448 2.07553C10.2553 2.08664 10.3224 2.01508 10.3297 2.03515C10.3472 2.08415 10.1492 2.17194 10.4439 2.06114C10.3709 2.14092 10.3387 2.13115 10.2355 2.17986C10.2517 2.19019 10.2677 2.20055 10.2837 2.21105C10.234 2.23061 10.1844 2.25022 10.1348 2.26978C10.1545 2.15722 9.80126 2.32312 10.0661 2.0817C9.97451 2.13002 9.88326 2.17814 9.79191 2.2261C9.8058 2.20769 9.81973 2.18935 9.83363 2.17093C9.87635 2.15176 9.91879 2.13267 9.96146 2.11341C9.90578 2.12656 9.85007 2.13984 9.79439 2.15299C9.69244 2.23539 9.66416 2.28793 9.63219 2.35108C9.77682 2.3002 9.71489 2.2914 9.81275 2.22605C9.82145 2.24933 9.83742 2.26614 9.8414 2.29358C9.76347 2.27994 9.61053 2.4109 9.57202 2.436C9.45482 2.51237 9.52474 2.4144 9.44329 2.46021C9.36178 2.50608 9.2811 2.58695 9.1902 2.5823C9.20525 2.60563 9.22489 2.62742 9.24226 2.64654C9.12072 2.72723 9.1295 2.68434 9.11432 2.6882C8.87118 2.74804 8.78761 2.86428 8.55295 3.00801C8.5875 2.99798 8.62195 2.98704 8.65654 2.97639C8.50624 3.13114 8.6183 3.04563 8.78408 2.97239C8.63486 3.05172 8.57617 3.1435 8.48037 3.21602C8.38458 3.2885 8.19467 3.36842 8.11993 3.38839C8.25183 3.27495 8.42215 3.2012 8.58206 3.0986C8.54926 3.08493 8.51914 3.07471 8.48435 3.05896C8.41402 3.16802 8.33627 3.16714 8.29941 3.17934C8.19118 3.21519 8.21966 3.2575 8.13386 3.24384C8.14565 3.25877 8.1553 3.27148 8.16646 3.28534C7.96288 3.3938 7.73087 3.48931 7.63569 3.62455C7.60121 3.59224 7.57047 3.55968 7.53375 3.52759C7.46623 3.60588 7.3764 3.61749 7.30919 3.66549C7.24227 3.71333 7.28753 3.72939 7.21121 3.78971C7.19708 3.80086 7.15351 3.7996 7.12397 3.83613C7.0941 3.87296 7.01573 4.0638 6.94374 3.97817C6.87199 4.019 6.80232 4.05457 6.73138 4.09338C6.7965 4.04861 6.86175 4.004 6.92658 3.9594C6.85509 3.96984 6.784 3.98015 6.71251 3.9906C6.71699 4.0155 6.72167 4.04078 6.7263 4.06523C6.58414 4.18077 6.451 4.2127 6.29748 4.31197C6.27186 4.32855 6.35768 4.33335 6.23453 4.3906C6.11134 4.44786 5.98046 4.42199 5.79779 4.56664C5.78858 4.57398 5.76309 4.66638 5.66831 4.66733C5.64676 4.66758 5.70743 4.61452 5.66315 4.62407C5.61884 4.63364 5.44634 4.72007 5.41678 4.69901C5.42441 4.70811 5.44087 4.71259 5.45187 4.71998C5.42619 4.74126 5.40022 4.76271 5.37419 4.78407C5.36123 4.76778 5.34803 4.75158 5.33512 4.73538C5.19531 4.87142 5.14976 4.98797 4.89417 5.10568C4.97735 5.09218 5.06062 5.07878 5.14351 5.06546C5.1517 5.03647 5.15985 5.00734 5.16774 4.97853C5.28376 4.92122 5.40006 4.86369 5.51608 4.80638C5.52252 4.77505 5.52867 4.74398 5.53512 4.71265C5.56633 4.69822 5.5972 4.68386 5.62842 4.66943C5.62964 4.68868 5.63076 4.70788 5.63169 4.7273C5.68829 4.68972 5.74493 4.65202 5.80124 4.61461C5.73329 4.77164 5.46469 4.7989 5.52274 4.86392C5.48973 4.86769 5.45664 4.8714 5.42357 4.87508C5.43269 4.9176 5.37307 4.93827 5.27521 4.98724C5.30706 4.99239 5.34103 4.996 5.37121 5.00236C5.26485 5.03054 5.10311 5.12715 5.00234 5.17255C4.95808 5.19248 4.98486 5.14238 4.97066 5.14651C4.89766 5.16738 4.80191 5.28311 4.77433 5.29425C4.60952 5.36096 4.46081 5.33222 4.32708 5.48496C4.50693 5.39976 4.41007 5.44781 4.48935 5.44398C4.51418 5.4428 4.74797 5.33525 4.46481 5.48655C4.43157 5.50422 3.89306 5.73596 4.03254 5.59476C3.95933 5.65638 3.90514 5.71005 3.83928 5.76863C3.58729 5.75422 3.71558 5.83036 3.80449 5.86173C3.77468 5.8793 3.74654 5.89638 3.71569 5.9142C3.74363 5.81118 3.40725 6 3.31291 6.09832C3.28125 6.13118 3.39947 6.09073 3.31736 6.15129C3.2729 6.17086 3.22205 6.19233 3.17492 6.21274C3.2628 6.21697 3.14621 6.30546 3.17219 6.34638C3.07022 6.35543 2.96299 6.31172 2.98238 6.24328C2.92598 6.29902 2.86921 6.35495 2.81285 6.41078C2.84945 6.40292 2.8864 6.39473 2.923 6.38687C2.69061 6.4859 2.44599 6.70708 2.34973 6.64519C2.32131 6.66243 2.29254 6.67976 2.26413 6.697C2.26382 6.71702 2.26382 6.73689 2.26351 6.75691C2.12585 6.81918 1.98843 6.8812 1.85077 6.94348C1.96138 6.86731 1.97675 6.8302 2.10827 6.77719C2.05154 6.78713 1.99387 6.79748 1.93803 6.80691C1.78157 6.95866 1.77408 7.00336 1.49057 7.14876C1.47774 7.15533 1.2472 7.23693 1.2379 7.23727C1.19535 7.2389 1.23043 7.18531 1.21089 7.185C1.15647 7.18392 0.875942 7.26426 0.875359 7.25229C0.869883 7.1044 1.69394 6.62663 1.91368 6.492C4.19291 5.09554 6.50272 3.86972 8.79432 2.52826C8.81784 2.5144 8.79786 2.50364 8.80753 2.4971C8.86769 2.45677 8.9442 2.44734 8.96796 2.43506C9.01868 2.40873 8.97756 2.40037 9.01367 2.3795C9.38705 2.16428 9.74742 1.9751 10.1186 1.75533C10.1427 1.74101 10.129 1.77462 10.1698 1.74655C10.1908 1.73195 10.2427 1.66253 10.2922 1.63335C10.4652 1.53145 10.6167 1.45661 10.7998 1.35031C10.8999 1.29215 11.0518 1.20781 11.1637 1.14263C11.2131 1.11385 11.2569 1.07054 11.3055 1.04184C11.3746 1.00113 11.3762 1.03673 11.3879 1.03226C11.4391 1.01264 11.4282 0.978803 11.4731 0.953826C11.5567 0.90747 11.5728 0.924989 11.6768 0.862653C11.7511 0.818061 11.9138 0.703016 12.0057 0.643714C12.2405 0.539234 12.5141 0.368965 12.7161 0.242042C12.7518 0.219587 12.7794 0.20577 12.8017 0.196664C12.8711 0.166282 12.8997 0.170823 12.9483 0.148855C13.1918 0.0444921 13.4051 -0.0242697 13.6664 0.00807891C14.0121 0.0588716 14.2789 0.24183 14.4928 0.487756C14.527 0.528507 14.5424 0.500243 14.5757 0.542224C14.7009 0.696626 14.8066 0.937911 14.8301 1.11367C14.8466 1.22234 14.8351 1.29319 14.8248 1.36556C14.8161 1.40897 14.8097 1.45402 14.8136 1.51634C14.8162 1.55741 14.8541 1.56945 14.859 1.63829C14.8666 1.74824 14.8332 1.8688 14.8295 1.94553C14.8245 2.0507 14.8631 1.95924 14.8579 2.10107C14.8577 2.1069 14.8301 2.12812 14.8314 2.15857C14.8352 2.2473 14.8569 2.23849 14.8548 2.36833C14.8545 2.38079 14.8282 2.55294 14.8281 2.57006C14.8277 2.67077 14.8185 2.87354 14.8241 2.93316C14.844 3.14625 14.8855 2.97849 14.7954 3.15972C14.8175 3.23952 14.8398 3.31865 14.8612 3.40325C14.8412 3.34679 14.8124 3.57591 14.8143 3.59201C14.8293 3.7252 14.8643 3.64586 14.8585 3.81473C14.7776 3.59171 14.8481 4.0326 14.8502 4.13092C14.8602 4.60434 14.84 5.03468 14.8405 5.5105C14.8407 5.66979 14.8579 5.88326 14.8574 6.05178C14.8574 6.09106 14.8383 6.06138 14.8378 6.09596C14.8376 6.13045 14.8591 6.09219 14.8579 6.13156C14.8505 6.37649 14.8099 6.5684 14.8606 6.79278C14.8533 6.80371 14.8475 6.80336 14.8394 6.82144C14.8849 7.00507 14.8238 7.35869 14.8154 7.49161C14.8024 7.6995 14.8331 7.75261 14.8269 7.90364C14.8186 8.10336 14.7586 8.40322 14.8576 8.2693C14.8607 8.40631 14.8616 8.53821 14.8524 8.67659C14.8513 8.69199 14.8262 8.68138 14.8256 8.68754C14.822 8.72658 14.8446 8.7393 14.8456 8.76567C14.8484 8.83719 14.8214 8.72048 14.8289 8.82245C14.833 8.87623 14.8526 8.90677 14.853 9.05612C14.8552 9.95642 14.8482 10.9338 14.8449 11.8567C14.8447 11.9201 14.869 11.8784 14.8674 11.9579C14.8621 12.234 14.8211 12.7282 14.8267 12.9663C14.8323 13.2044 14.8679 13.1507 14.8828 13.2997C14.8857 13.3284 14.8654 13.3048 14.8651 13.3309C14.8632 13.5059 14.8316 13.7146 14.8268 13.8565C14.8236 13.9502 14.8555 13.9427 14.8578 14.0078C14.8611 14.1047 14.8289 14.2045 14.8278 14.2563C14.8233 14.4994 14.8493 14.6666 14.836 14.8937C14.843 14.8849 14.8495 14.879 14.8565 14.8715C14.856 14.9884 14.8555 15.1052 14.855 15.222C14.8547 15.4284 14.8078 15.6392 14.714 15.8283C14.7275 15.8154 14.7406 15.8026 14.7538 15.7889C14.5441 16.1815 14.4802 16.0676 14.6288 16.1361C14.6117 16.1658 14.5928 16.1969 14.5743 16.2241C14.5247 16.1633 14.3112 16.3393 14.0064 16.4478C13.9873 16.4576 13.8553 16.5802 13.8468 16.4901C13.8132 16.522 13.7924 16.5423 13.7609 16.5684C13.6864 16.5574 13.6135 16.5406 13.5453 16.5181C13.5095 16.524 13.4728 16.5282 13.4361 16.5311C13.4301 16.5479 13.4339 16.5658 13.4211 16.5821C13.2474 16.5888 12.924 16.4657 12.8049 16.3853C12.8013 16.3832 12.7979 16.3813 12.7947 16.3795C12.573 16.2578 12.327 16.1691 12.1816 16.0276C12.0961 15.9841 12.1617 16.0607 12.0405 15.9858C12.035 15.9631 12.0301 15.9414 12.0243 15.9179C11.8855 15.9253 11.8875 15.8732 11.7573 15.7797C11.6692 15.7164 11.5987 15.6972 11.5116 15.6426C11.4895 15.6288 11.5038 15.6114 11.488 15.6031C11.4352 15.5753 11.2725 15.5167 11.2356 15.4963C10.9011 15.3125 10.6189 15.1456 10.3082 14.9568C10.2748 14.9366 10.3077 14.9809 10.2731 14.9599C10.2175 14.9261 10.2675 14.916 10.2357 14.8958C10.1469 14.8394 10.1285 14.8698 10.0006 14.7981C9.57952 14.5621 9.11228 14.2614 8.67678 14.0073C8.66313 13.9994 8.65352 14.0179 8.63858 14.0095C8.54138 13.9546 8.45759 13.8737 8.36965 13.8232C8.22377 13.7395 8.09964 13.7016 7.9558 13.6185C7.67461 13.456 7.43082 13.2979 7.14197 13.1302C6.90558 12.9929 6.69858 12.8766 6.43903 12.7266C5.30532 12.0716 4.11515 11.4609 2.9911 10.7713C2.96252 10.7537 2.98355 10.7446 2.97429 10.7401C2.88605 10.6984 2.86611 10.7156 2.86217 10.6532C2.7497 10.6001 2.69628 10.6144 2.56806 10.5372C2.49971 10.496 2.58159 10.4733 2.44909 10.4329C2.32943 10.3964 2.42928 10.4924 2.13241 10.2819C2.12457 10.2763 2.10214 10.2206 2.03207 10.1913C1.96174 10.1617 2.02441 10.2284 1.8626 10.1442C1.53498 9.97359 1.15292 9.72813 0.774514 9.50975C0.690904 9.4615 0.61187 9.40547 0.539026 9.34262C0.495305 9.32654 0.212436 9.0015 0.182016 8.91714C0.100474 8.77287 0.0807205 8.81518 0.0211452 8.60243C-0.0172541 8.43501 0.00404201 8.29235 0.0219626 8.09703C0.0254526 8.07466 -0.00646815 8.02985 0.0370748 7.88339ZM14.3514 7.28258C14.32 7.25449 14.2045 7.20379 14.2397 7.03394C14.243 7.01784 14.3224 7.10476 14.3351 7.01094C14.3434 7.10274 14.3462 7.19215 14.3515 7.28258C14.3515 7.28258 14.3515 7.28258 14.3514 7.28258ZM1.07509 7.64893C0.988794 7.69546 0.911562 7.75786 0.848891 7.83337C0.877714 7.77058 0.916343 7.71016 0.963799 7.65465C1.00151 7.64999 1.03881 7.64815 1.07509 7.64893ZM12.9844 15.8782C12.9843 15.8782 12.9842 15.8781 12.9841 15.878C13.0143 15.8913 13.0446 15.9045 13.0748 15.9178C13.1517 15.9492 13.2306 15.9681 13.3083 15.9743C13.2954 15.9826 13.2819 15.9906 13.2682 15.9982C13.1975 15.9936 13.1253 15.9788 13.0539 15.954C13.0362 15.9473 13.0185 15.9407 13.0009 15.934C12.9954 15.9154 12.9899 15.8968 12.9844 15.8782ZM12.0122 15.451C11.9448 15.3971 11.9739 15.3885 11.944 15.3465C11.9439 15.3465 11.9439 15.3465 11.9439 15.3466C11.936 15.3356 11.8884 15.3025 11.8695 15.2906C11.8698 15.3066 11.8722 15.3237 11.8731 15.34C11.684 15.2693 11.4062 14.9722 11.8664 15.1828C11.8512 15.1941 11.8363 15.2055 11.8211 15.2168C12.0404 15.3378 12.2633 15.51 12.0122 15.451ZM14.3014 5.26898C14.2445 5.05521 14.2325 4.98666 14.2715 4.72733C14.2876 4.76396 14.3037 4.8006 14.3199 4.83723C14.3034 4.88005 14.2871 4.92257 14.2706 4.96539C14.2706 4.96551 14.2706 4.96563 14.2706 4.96575C14.2879 4.97432 14.3052 4.98291 14.3225 4.99113C14.3155 5.08361 14.3084 5.17649 14.3014 5.26898ZM4.94611 11.324C4.95135 11.1957 4.9332 11.2615 5.0934 11.3244C5.14888 11.3462 5.10909 11.3002 5.14249 11.3157C5.32297 11.399 5.29859 11.4729 5.24051 11.4851C5.14215 11.4314 5.0429 11.377 4.94643 11.3241C4.94632 11.3241 4.94622 11.324 4.94611 11.324ZM0.6462 8.67651C0.646154 8.67641 0.646108 8.67631 0.646061 8.67621C0.66963 8.66135 0.705231 8.7198 0.696655 8.63879C0.719872 8.69212 0.74858 8.74314 0.782476 8.79056C0.770357 8.7781 0.7586 8.76501 0.747193 8.75167C0.747275 8.76973 0.747774 8.7879 0.749119 8.80632C0.787863 8.80524 0.78246 8.83181 0.816874 8.88661C0.830352 8.85077 0.84565 8.81613 0.862533 8.78274C0.895259 8.83985 0.936413 8.89398 0.985069 8.94301C0.980599 8.95038 0.976157 8.95779 0.971731 8.96519C0.999563 8.97221 1.02726 8.97746 1.05491 8.9815C1.05556 8.9939 1.05632 9.00616 1.05754 9.0187C1.05768 9.01874 1.05781 9.01878 1.05795 9.01882C1.09459 9.03106 1.13129 9.04333 1.16798 9.05547C1.1656 9.08275 1.08768 9.05014 1.21945 9.11894C1.16727 9.11821 1.11521 9.11746 1.06273 9.11655C1.04751 9.10758 1.03229 9.0986 1.01707 9.08962C0.853197 8.9935 0.721812 8.84814 0.6462 8.67651ZM6.30443 12.0678C6.08934 11.9491 6.15824 11.9681 6.23564 11.9478C6.25845 11.9877 6.28162 12.0279 6.30443 12.0678ZM14.3811 12.4515C14.3427 12.3802 14.3047 12.3087 14.2677 12.2357C14.2463 12.0905 14.3162 11.9452 14.3437 12.0544C14.3766 12.186 14.3397 12.3234 14.3811 12.4515ZM14.3641 9.1432C14.3463 9.32092 14.3006 9.15371 14.274 9.11363C14.3168 9.06447 14.313 8.99591 14.318 8.8858C14.3207 8.98919 14.3671 9.11381 14.3642 9.1432C14.3641 9.1432 14.3641 9.1432 14.3641 9.1432ZM14.3347 15.2996C14.3308 15.3605 14.3289 15.4243 14.3006 15.4731C14.2716 15.4472 14.326 15.3528 14.2568 15.4137C14.2644 15.3779 14.2696 15.3416 14.2721 15.3055C14.2921 15.3311 14.3122 15.3016 14.3346 15.2998C14.3346 15.2997 14.3346 15.2997 14.3347 15.2996ZM8.38705 13.2202C8.48636 13.3278 8.5186 13.3249 8.65559 13.3692C8.65508 13.4098 8.48005 13.3772 8.38245 13.3359C8.3841 13.2974 8.3857 13.2589 8.38705 13.2202ZM4.7444 5.44944C4.75092 5.3936 4.9624 5.2647 5.07561 5.21474C5.06627 5.22786 5.05693 5.24108 5.04764 5.25429C4.9467 5.31926 4.84535 5.38447 4.7444 5.44944ZM14.321 8.8334C14.3197 8.85183 14.3187 8.8693 14.318 8.8858C14.3175 8.86746 14.3183 8.84976 14.321 8.8334ZM14.5168 1.39165C14.5593 1.45021 14.5736 1.27615 14.557 1.4875C14.557 1.4875 14.5571 1.4875 14.5571 1.4875C14.5461 1.62727 14.5432 1.65812 14.5399 1.78762C14.4853 1.741 14.4657 1.47829 14.4544 1.84038C14.4544 1.84515 14.4869 1.83565 14.4825 1.8935C14.4811 1.91136 14.4544 1.96851 14.4466 2.05543C14.4441 2.08352 14.4359 2.29462 14.4354 2.00687C14.3973 2.01544 14.3588 1.99998 14.3218 2.00066C14.3111 1.88834 14.3857 1.80202 14.3838 1.6832C14.3809 1.50677 14.3055 1.41699 14.4045 1.38307C14.4288 1.53142 14.4294 1.78616 14.3699 1.81938C14.3691 1.9629 14.4179 2.00412 14.442 1.88839C14.4126 1.41203 14.5065 1.72554 14.4794 1.36556C14.4783 1.35073 14.4767 1.33493 14.4744 1.31815C14.4604 1.31355 14.4446 1.29723 14.4319 1.30073C14.4616 1.19192 14.4949 1.30436 14.5081 1.36556C14.5112 1.37819 14.5141 1.3879 14.5168 1.39165ZM14.4116 2.42821C14.3825 2.34257 14.3532 2.2572 14.324 2.1719C14.3714 2.1719 14.4139 2.21894 14.4407 2.35391C14.4309 2.37856 14.4212 2.40357 14.4116 2.42821ZM9.51126 2.58962C9.51346 2.6181 9.49679 2.65499 9.48829 2.68822C9.45488 2.68242 8.91041 2.97269 9.17145 2.79736C9.20935 2.77189 9.47281 2.6724 9.51126 2.58962ZM7.52719 12.7686C7.58144 12.8199 7.63543 12.871 7.68938 12.9222C7.58754 12.876 7.48548 12.8301 7.38353 12.7841C7.4315 12.779 7.47921 12.7737 7.52719 12.7686ZM14.4264 11.2693C14.4254 11.2999 14.39 11.198 14.3955 11.3189C14.3729 11.2288 14.3537 11.1444 14.3324 11.0564C14.3491 11.03 14.3658 11.0034 14.3826 10.977C14.3718 10.9564 14.3611 10.9355 14.3504 10.9149C14.3748 10.9273 14.3987 10.9382 14.4235 10.9512C14.3711 11.0996 14.4305 11.1336 14.4264 11.2693ZM14.4156 15.6847C14.3589 15.6831 14.4144 15.4835 14.3221 15.6631C14.3081 15.613 14.3197 15.5545 14.3448 15.447C14.3621 15.4332 14.379 15.418 14.3955 15.4025C14.3607 15.3934 14.3546 15.3618 14.3347 15.2996C14.3347 15.2996 14.3348 15.2995 14.3348 15.2995C14.337 15.2676 14.3376 15.2427 14.3385 15.222C14.342 15.1255 14.3589 15.1256 14.4061 15.0893C14.3965 15.1472 14.3942 15.1888 14.3966 15.222C14.401 15.2968 14.4334 15.3276 14.4381 15.4249C14.4426 15.5208 14.3869 15.6297 14.4156 15.6847ZM10.0799 2.26058C9.98046 2.36976 10.1107 2.3428 9.87068 2.42643C9.87893 2.40852 9.8873 2.39066 9.89555 2.37275C9.95696 2.33526 10.0184 2.29788 10.0799 2.26058ZM13.8274 16.011C13.8709 16.0842 14.023 16.0739 13.964 15.9497C13.8548 15.9853 13.937 16.0251 13.8274 16.011ZM14.4927 9.20381C14.4889 9.45216 14.3961 9.40521 14.3498 9.30312C14.3666 9.28736 14.3835 9.27162 14.4003 9.2562C14.3926 9.2127 14.385 9.16919 14.3774 9.12568C14.4158 9.15171 14.4543 9.17777 14.4927 9.20381ZM10.0247 14.3302C10.2184 14.3743 9.86361 14.1995 9.99674 14.2341C10.1031 14.2617 10.1943 14.3826 10.1301 14.3883C10.0978 14.3709 10.0621 14.3511 10.025 14.3304C10.0249 14.3303 10.0248 14.3303 10.0247 14.3302ZM10.9842 14.8648C10.9886 14.7949 11.0184 14.8332 10.8829 14.768C10.8442 14.7494 10.5613 14.5589 10.659 14.6753C10.7643 14.7361 10.8751 14.8011 10.9842 14.8648ZM14.401 6.3331C14.4283 6.33082 14.4882 6.59284 14.4732 6.62647C14.4733 6.62647 14.4733 6.62647 14.4734 6.62647C14.4325 6.71725 14.4267 6.44086 14.3706 6.56075C14.4199 6.29527 14.3006 6.21584 14.4579 6.23434C14.4648 6.39073 14.4323 6.31669 14.401 6.3331ZM1.86471 6.96362C1.86461 6.96368 1.8645 6.96374 1.8644 6.9638C1.88028 6.95611 2.02587 6.91832 2.01754 6.93916C1.8606 7.01603 1.87432 6.97765 1.75542 7.09635C1.74073 7.08871 1.72736 7.08079 1.71203 7.07341C1.76367 7.03403 1.7862 7.00166 1.86471 6.96362ZM8.90635 2.87529C8.95826 2.83707 9.0743 2.80425 9.13661 2.76624C8.99228 2.98078 8.69893 3.02779 8.90635 2.87529ZM2.56872 9.97413C2.5689 9.97418 2.56908 9.97424 2.56926 9.9743C2.56918 9.97432 2.56909 9.97434 2.56901 9.97436C2.56891 9.97429 2.56882 9.97421 2.56872 9.97413ZM13.2323 0.488458C13.2231 0.483415 13.2171 0.478532 13.214 0.473588C13.2139 0.473083 13.2137 0.472576 13.2136 0.47207C13.2195 0.477491 13.2257 0.482961 13.2323 0.488458ZM14.3927 5.78854C14.4308 5.67941 14.4914 6.04301 14.4769 6.16059C14.4595 6.15237 14.4438 6.15109 14.4238 6.13193C14.4688 6.03702 14.3863 5.80669 14.3927 5.78854ZM14.4067 14.0784C14.4078 13.791 14.5581 14.1651 14.4381 14.1805C14.4358 14.1799 14.4069 14.0859 14.4067 14.0784ZM14.4085 8.05516C14.454 8.12839 14.4661 7.98123 14.4582 8.21654C14.4464 8.23024 14.4346 8.24392 14.4228 8.25762C14.4181 8.19015 14.4132 8.12263 14.4085 8.05516ZM14.6041 12.1956C14.5787 11.8338 14.534 11.4878 14.4085 11.7235C14.4125 11.7508 14.4164 11.7786 14.4204 11.806C14.4817 11.8101 14.4483 11.9111 14.4463 12.059C14.4706 12.0801 14.4762 12.1621 14.4969 12.1775C14.5368 12.2072 14.5649 12.113 14.6041 12.1956ZM4.1721 11.0369C4.18237 11.0308 4.19255 11.0245 4.20277 11.0185C4.25822 11.0369 4.31377 11.0554 4.36921 11.0738C4.35118 11.0865 4.33312 11.0992 4.31509 11.112C4.26745 11.087 4.22002 11.0621 4.17238 11.0371C4.17229 11.0371 4.17219 11.037 4.1721 11.0369ZM14.5408 2.78073C14.4258 2.74787 14.4469 2.8627 14.5051 3.09564C14.517 2.99081 14.5289 2.88556 14.5408 2.78073ZM12.3378 15.8126C12.3476 15.7805 12.3575 15.7486 12.367 15.7164C12.2429 15.684 12.2441 15.7279 12.2737 15.795C12.2952 15.801 12.3163 15.8067 12.3378 15.8126ZM10.7881 14.934C10.8291 14.9655 10.8196 14.9296 10.824 14.9327C10.9295 15.0097 10.9393 15.0293 11.0872 15.0917C11.1076 15.0955 11.1279 15.0988 11.1483 15.1023C11.1188 15.0062 11.0538 15.0118 10.939 14.899C10.9516 14.9334 10.964 14.9678 10.9766 15.0023C10.904 14.9546 10.8317 14.9072 10.7592 14.8596C10.7466 14.8607 10.7341 14.8618 10.7216 14.8629C10.7436 14.8864 10.766 14.9114 10.7881 14.934ZM3.61401 10.6804C3.54237 10.6359 3.47045 10.5912 3.39881 10.5467C3.38771 10.5598 3.37665 10.573 3.36555 10.586C3.44827 10.6174 3.53128 10.649 3.61401 10.6804ZM14.4398 1.05164C14.432 1.04704 14.4242 1.04277 14.4166 1.03934C14.4238 1.03744 14.4317 1.04241 14.4398 1.05164ZM1.62589 6.99467C1.53723 7.03223 1.42184 7.10779 1.32982 7.15806C1.35812 7.19059 1.583 7.04724 1.67684 7.02268C1.68607 7.00859 1.66335 6.97877 1.62589 6.99467ZM14.489 9.54738C14.5101 9.57136 14.5311 9.59531 14.5522 9.61895C14.5499 9.67684 14.5475 9.73487 14.5453 9.79311C14.5625 9.79482 14.58 9.7965 14.5973 9.79822C14.5748 9.54167 14.6246 9.60082 14.6738 9.47381C14.6122 9.49848 14.5507 9.52272 14.489 9.54738ZM1.23704 9.4346C1.40339 9.51714 1.47124 9.53109 1.40669 9.43396C1.34409 9.41156 1.28116 9.38897 1.21856 9.36657C1.22482 9.3893 1.23108 9.41205 1.23704 9.4346ZM11.5701 1.25283C11.4454 1.34715 11.4084 1.28818 11.2966 1.39762C11.3733 1.36815 11.4501 1.3388 11.5265 1.3095C11.5409 1.29072 11.5557 1.27161 11.5701 1.25283ZM14.7185 5.28158C14.7427 5.21614 14.6277 5.09383 14.7126 4.90989C14.6873 4.86605 14.663 4.83858 14.6382 4.8009C14.6652 4.77898 14.6926 4.75407 14.7194 4.73318C14.7194 4.73305 14.7194 4.73293 14.7194 4.73281C14.7103 4.56597 14.6764 4.67414 14.6477 4.67038C14.6358 4.66861 14.6557 4.54478 14.6298 4.58348C14.5855 4.65028 14.611 4.8999 14.5569 4.90058C14.5745 4.81288 14.5598 4.64163 14.5237 4.69228C14.484 4.74778 14.5504 4.90916 14.5176 5.01194C14.6041 4.86467 14.5773 5.16884 14.5109 5.20344C14.5619 5.38192 14.5827 5.21787 14.5804 5.03494C14.6313 5.14662 14.6038 4.98223 14.6461 4.95516C14.6716 5.07032 14.6503 5.46552 14.7185 5.28158ZM14.6247 13.7022C14.6214 13.5788 14.6505 13.3861 14.6076 13.3017C14.5825 13.2525 14.5632 13.4456 14.5238 13.3124C14.5277 13.4326 14.543 13.46 14.5775 13.4395C14.5816 13.4669 14.5857 13.4946 14.5897 13.522C14.583 13.5347 14.5763 13.5477 14.5696 13.5604C14.5838 13.5747 14.5979 13.5892 14.612 13.6033C14.6092 13.6323 14.6064 13.6618 14.6035 13.6909C14.6107 13.6943 14.6169 13.7001 14.6247 13.7022ZM7.71462 3.48123C7.74408 3.46375 7.77325 3.44643 7.80265 3.42886C7.79518 3.42348 7.78692 3.41816 7.77886 3.41286C7.77277 3.40851 7.76667 3.40416 7.76057 3.39981C7.78994 3.41097 7.95148 3.36443 7.998 3.30755C8.02141 3.27897 7.93015 3.27818 8.05297 3.19794C7.96222 3.25308 7.88021 3.30773 7.79289 3.36268C7.79402 3.34614 7.79476 3.32965 7.79589 3.3131C7.79582 3.31311 7.79576 3.31313 7.7957 3.31314C7.76449 3.32757 7.73286 3.34208 7.70164 3.35652C7.7059 3.39816 7.71037 3.4396 7.71462 3.48123ZM12.3924 15.9188C12.5071 15.9538 12.548 15.9612 12.5221 15.8958C12.522 15.8957 12.5219 15.8957 12.5218 15.8956C12.4744 15.8906 12.4271 15.8856 12.3797 15.8806C12.3839 15.8933 12.388 15.9059 12.3924 15.9188ZM13.7635 0.245078C13.465 0.335422 14.0613 0.409881 13.9809 0.333915C13.9782 0.325219 13.7862 0.265008 13.7635 0.245078ZM14.5437 9.15817C14.5451 9.22635 14.5463 9.29467 14.5476 9.36318C14.568 9.34742 14.5883 9.3313 14.6087 9.31554C14.5871 9.26312 14.5654 9.21059 14.5437 9.15817ZM1.89818 9.90328C1.93756 9.97859 2.08881 10.085 2.19152 10.0871C2.15348 10.0584 2.11543 10.0298 2.07738 10.0011C2.15763 10.0409 2.23729 10.0796 2.31798 10.12C2.35385 10.0675 2.24556 10.0474 2.11902 9.95417C2.09948 9.93964 2.00494 9.79412 1.92902 9.81883C1.91362 9.82402 2.05193 9.91345 1.93519 9.88701C1.97709 9.91442 2.01476 9.93546 2.05491 9.96043C2.05032 9.97523 2.0457 9.99003 2.0414 10.005C1.99354 9.97104 1.94605 9.93723 1.89818 9.90328ZM14.6198 12.984C14.6233 12.8146 14.5979 12.7937 14.5531 12.7584C14.5582 12.8372 14.5632 12.916 14.5683 12.9948C14.5854 12.991 14.6025 12.9878 14.6198 12.984ZM3.20251 10.6731C3.27918 10.7258 3.263 10.6744 3.2988 10.687C3.43406 10.735 3.5044 10.8057 3.6333 10.8613C3.62177 10.8628 3.61112 10.8642 3.59999 10.8657C3.6001 10.8657 3.6002 10.8658 3.60031 10.8658C4.15662 11.2225 3.89769 10.9775 3.54889 10.7917C3.54766 10.7753 3.54676 10.7591 3.54547 10.7429C3.38054 10.675 3.22797 10.6132 3.20251 10.6731ZM14.6382 2.25077C14.6467 2.24323 14.7006 2.30729 14.6754 2.18705C14.5966 2.09184 14.6357 2.248 14.6054 2.2871C14.5979 2.25455 14.5905 2.22127 14.583 2.18906C14.5607 2.38365 14.5794 2.41205 14.637 2.34113C14.6409 2.33607 14.6298 2.25832 14.6382 2.25077ZM14.5868 0.905071C14.4748 0.920274 14.6031 1.16268 14.6303 1.15202C14.6245 1.11279 14.5985 1.08682 14.5957 1.04471C14.5919 1.00164 14.6159 0.982349 14.5868 0.905071ZM14.6486 8.00752C14.6492 8.00032 14.6979 7.92805 14.6598 7.93522C14.5694 8.02464 14.6276 8.20479 14.659 8.17328C14.6575 8.11369 14.6439 8.07396 14.6488 8.00752C14.6487 8.00752 14.6487 8.00752 14.6486 8.00752ZM0.916631 9.36815C0.917975 9.37267 1.06434 9.4798 1.0936 9.47568C1.12045 9.46752 1.13967 9.45327 1.16274 9.44209C1.06687 9.40945 0.900205 9.29593 0.916947 9.36833C0.916843 9.36827 0.916734 9.36821 0.916631 9.36815Z" fill="black"/>
</svg>
