<svg width="900" height="2" viewBox="0 0 900 2" fill="none" xmlns="http://www.w3.org/2000/svg">
<path d="M825.266 1.80665C827.299 1.89684 820.511 1.83772 825.018 1.97241C824.079 1.98151 823.133 1.9909 822.193 2C821.954 1.95012 821.71 1.90035 821.472 1.85047C822.734 1.83578 823.997 1.8211 825.266 1.80641C825.266 1.80649 825.266 1.80657 825.266 1.80665ZM826.989 1.18193C825.832 1.3242 822.157 1.36214 826.127 1.49343C826.443 1.4446 826.766 1.39579 827.082 1.34696C828.46 1.38483 829.847 1.42269 831.226 1.46035C831.721 1.44174 832.217 1.4231 832.712 1.40469C833.344 1.48954 833.969 1.57463 834.601 1.65968C834.04 1.64727 833.472 1.63463 832.911 1.62221C830.695 1.69112 828.724 1.70996 825.715 1.72279C825.979 1.74287 826.244 1.76277 826.508 1.78285C824.982 1.7487 823.456 1.71446 821.935 1.68031C823.256 1.64679 824.732 1.60951 825.956 1.57827C823.997 1.44522 820.544 1.51927 818.746 1.54702C816.298 1.5849 816.851 1.52163 815.035 1.54812C814.745 1.55226 814.712 1.60184 814.139 1.60268C811.246 1.60661 805.628 1.58033 808.913 1.46463C813.674 1.47953 817.735 1.38662 822.406 1.42056C821.17 1.28677 823.631 1.24125 826.989 1.18193ZM739.524 1.60793C740.967 1.54295 743.906 1.56917 745.896 1.61428C745.899 1.61428 745.901 1.61428 745.903 1.61428C746.341 1.62421 747.334 1.71056 745.903 1.70705C743.572 1.70102 742.444 1.56509 741.22 1.65737C740.673 1.64019 740.098 1.6249 739.524 1.60793ZM734.457 1.61599C733.027 1.58266 733.675 1.48024 735.466 1.50796C735.466 1.50788 735.466 1.5078 735.466 1.50771C736.214 1.51931 734.746 1.60026 737.427 1.51809C737.974 1.58202 738.513 1.64018 739.054 1.70204C738.398 1.70308 737.799 1.70475 737.111 1.70558C737.574 1.6005 735.887 1.64905 734.457 1.61599ZM806.496 1.52248C806.271 1.61702 807.213 1.61642 808.817 1.68202C807.303 1.67892 805.789 1.67561 804.282 1.6725C805.022 1.62243 805.756 1.57255 806.496 1.52248ZM842.061 1.53713C842.063 1.53713 842.066 1.53713 842.068 1.53713C842.564 1.52223 843.061 1.50727 843.551 1.49258C843.847 1.52632 844.14 1.55991 844.437 1.59365C846.189 1.56198 847.951 1.53031 849.703 1.49844C849.49 1.6015 846.345 1.58473 844.612 1.65676C842.035 1.62571 840.793 1.56588 840.626 1.47854C841.102 1.49799 841.578 1.51768 842.061 1.53713ZM420.619 1.12626C420.033 1.15482 419.454 1.1834 418.868 1.21195C419.648 1.22499 420.421 1.23493 421.206 1.25004C423.261 1.12586 423.454 1.2357 426.147 1.22807C434.4 1.20447 432.21 1.01161 439.663 1.2941C433.679 1.28066 435.979 1.4134 432.371 1.51565C431.624 1.43782 435.199 1.2623 432.776 1.22587C428.602 1.30823 424.588 1.38495 419.957 1.43814C420.092 1.45159 420.226 1.46509 420.362 1.47854C421.096 1.47006 421.824 1.46152 422.559 1.45303C421.766 1.48905 420.992 1.52475 420.187 1.56118C421.204 1.47943 418.61 1.52511 418.958 1.43118C419.112 1.38937 420.259 1.33137 420.935 1.29142C419.189 1.26969 417.399 1.24978 415.634 1.22868C416.549 1.19536 417.462 1.16202 418.37 1.12871C419.117 1.12767 419.859 1.12693 420.605 1.1259C420.61 1.12602 420.615 1.12614 420.619 1.12626ZM44.9012 1.56093C47.1174 1.46365 51.1448 1.44755 53.2645 1.55581C50.4748 1.55746 47.6908 1.55928 44.9012 1.56093ZM840.458 1.40652C840.708 1.42306 840.952 1.43942 841.203 1.45596C840.095 1.48659 838.98 1.517 837.872 1.54763C837.66 1.49984 837.442 1.45203 837.224 1.40445C838.299 1.40507 839.382 1.4059 840.458 1.40652ZM769.575 1.45974C770.386 1.45685 770.458 1.45842 771.467 1.46524C771.466 1.4652 771.465 1.46516 771.464 1.46511C771.864 1.46766 775.212 1.49558 774.838 1.53237C773.176 1.53299 771.403 1.53237 769.702 1.53237C769.651 1.50817 769.64 1.48415 769.575 1.45974ZM789.141 1.48123C789.144 1.48131 789.146 1.48139 789.148 1.48147C789.753 1.48706 790.326 1.49844 790.951 1.50051C788.703 1.55843 788.348 1.45452 786.305 1.48391C784.263 1.51351 783.002 1.57084 781.269 1.4285C781.913 1.40718 782.607 1.37668 783.27 1.35184C786.169 1.40875 786.95 1.35519 789.275 1.29911C789.23 1.35995 789.186 1.42038 789.141 1.48123ZM457.362 1.41421C457.916 1.34385 458.533 1.41289 458.598 1.41373C458.596 1.41381 458.595 1.41389 458.594 1.41397C463.501 1.3488 457.955 1.45292 462.587 1.46389C461.898 1.48148 461.22 1.50005 460.537 1.51785C459.481 1.48391 458.392 1.44546 457.362 1.41421ZM616.811 1.42081C616.856 1.4413 616.91 1.46183 616.955 1.48233C614.172 1.47756 613.462 1.55823 611.149 1.48477C613.037 1.46324 614.923 1.44188 616.811 1.42056C616.811 1.42064 616.811 1.42072 616.811 1.42081ZM755.547 1.3107C758.633 1.27158 760.916 1.25435 763.88 1.31644C763.882 1.31652 763.884 1.3166 763.886 1.31668C764.057 1.32051 763.231 1.36338 763.454 1.37418C764.065 1.36776 764.697 1.35791 765.315 1.35025C765.398 1.38458 765.478 1.41891 765.562 1.45303C763.823 1.4433 762.082 1.43358 760.337 1.42386C760.594 1.44393 760.858 1.46384 761.116 1.48391C759.634 1.49426 758.158 1.50457 756.677 1.51492C757.192 1.45864 757.706 1.40234 758.215 1.34586C757.326 1.33406 756.436 1.3227 755.547 1.3107ZM570.476 1.19657C570.966 1.21893 570.059 1.25642 570.819 1.27567C571.58 1.29468 572.981 1.25296 572.653 1.31607C571.629 1.32455 570.554 1.33428 569.511 1.34317C572.868 1.45698 576.216 1.354 576.268 1.49453C573.047 1.4581 570.398 1.47503 567.28 1.51394C567.408 1.40239 570.527 1.30593 568.564 1.20121C569.194 1.19976 569.858 1.19765 570.469 1.19682C570.471 1.19674 570.474 1.19665 570.476 1.19657ZM885.543 0.00766718C887.45 0.0161536 891.819 -0.0293734 894.229 0.03562C894.821 0.0516367 896.797 0.259113 896.786 0.286462C896.729 0.378568 894.317 0.391105 896.9 0.451127C896.031 0.45175 895.188 0.455208 894.325 0.456864C894.48 0.518752 894.633 0.580476 894.781 0.642157C895.832 0.632843 896.883 0.623482 897.933 0.61396C897.985 0.634452 898.036 0.654989 898.088 0.675481C894.312 0.675895 896.541 0.754985 894.582 0.828671C896.386 0.86592 898.203 0.902989 900 0.940238C898.963 0.935685 897.739 0.932313 896.824 0.926933C896.702 1.03186 898.884 1.00685 899.258 1.02629C901.365 1.13619 890.64 1.08073 889.762 1.23344C891.475 1.25041 893.273 1.26697 895.025 1.28373C894.523 1.30256 894.014 1.32141 893.511 1.34024C889.537 1.23492 885.079 1.1976 880.448 1.132C880.029 1.13634 879.61 1.1408 879.198 1.14494C879.321 1.19232 879.436 1.23952 879.559 1.2869C878.927 1.29249 878.288 1.29803 877.657 1.30362C879.518 1.14757 876.94 1.1497 873.829 1.05449C875.484 0.99965 877.526 1.0329 877.385 0.930717C871.703 1.00933 865.049 0.89823 859.522 0.986989C858.15 1.00893 858.155 1.14074 854.929 1.12858C855.038 1.11409 855.057 1.08794 855.128 1.06889C849.548 1.13202 846.163 1.16976 840.365 1.10539C840.7 1.15277 841.029 1.20034 841.364 1.24772C842.594 1.22412 843.827 1.20015 845.051 1.17655C845.889 1.25479 844.651 1.28931 848.323 1.28849C851.332 1.28787 849.541 1.25332 850.359 1.23014C851.467 1.19849 852.439 1.26075 853.631 1.22538C854.552 1.19827 853.556 1.13371 855.959 1.15007C854.992 1.23369 854.006 1.32004 853.034 1.40469C852.447 1.38586 851.865 1.36673 851.279 1.34769C851.872 1.32533 852.455 1.30327 853.047 1.28092C850.96 1.32107 848.988 1.35894 846.83 1.40054C847.532 1.27966 845.301 1.32498 844.09 1.33927C842.203 1.3616 843.82 1.2784 842.583 1.29227C841.346 1.30635 840.012 1.39929 837.776 1.37943C838.974 1.32562 837.344 1.27737 837.66 1.2277C837.975 1.17803 840.34 1.16704 838.068 1.11284C833.7 1.15403 838.44 1.34317 835.49 1.37381C831.947 1.41065 831.103 1.10234 832.16 1.03606C832.991 0.983898 835.85 0.994389 836.688 0.942435C831.566 0.848676 831.522 1.03377 830.646 1.06999C827.463 1.20183 829.601 0.849946 825.832 0.977224C825.903 0.91142 825.96 0.852235 826.031 0.789123C825.381 0.801126 824.949 0.817079 824.164 0.826596C826.48 0.95481 824.584 0.949315 823.611 0.949515C822.077 0.949929 824.446 1.01247 824.04 1.02861C822.945 1.07182 821.213 1.0522 822.275 1.10869C821.798 1.0824 821.282 1.05604 820.792 1.02996C819.001 1.06271 814.791 1.33736 818.797 1.2819C818.424 1.38394 817.128 1.33489 816.116 1.31937C815.105 1.30386 815.124 1.36885 814.235 1.35684C810.698 1.30882 813.012 1.19766 813.572 1.11052C808.901 1.17054 813.474 1.21025 806.743 1.2504C806.093 1.3214 809.203 1.39715 806.613 1.43814C806.136 1.3148 804.229 1.2262 800.512 1.18522C800.151 1.21358 799.792 1.24219 799.431 1.27054C797.401 1.1567 798.439 1.03832 794.682 1.17948C796.699 0.919724 795.312 1.08591 791.95 0.980153C791.267 0.958834 792.845 0.904941 791.891 0.877619C791.459 0.865298 790.41 0.905978 789.354 0.874568C788.839 0.859045 786.429 0.758886 784.76 0.806456C785.985 0.932303 782.814 1.03936 785.533 1.14348C780.508 1.11781 776.991 1.17823 782.622 1.00664C781.346 0.968556 780.069 0.930633 778.794 0.892755C777.904 0.922768 777.008 0.952544 776.112 0.98235C775.977 0.878919 776.113 0.849904 772.61 0.868098C774.13 0.843686 775.643 0.818868 777.17 0.794249C777.221 0.773363 777.433 0.751655 777.383 0.731386C775.513 0.771111 770.25 0.788209 768.975 0.815733C767.699 0.843262 770.162 0.850796 769.795 0.877497C766.736 1.09768 766.978 0.935286 764.783 0.973073C763.494 0.995428 766.571 1.0197 765.881 1.02922C763.325 1.06412 762.14 0.947101 759.873 0.945609C760.678 1.01203 761.477 1.07948 762.263 1.14653C759.885 1.14301 757.235 1.14242 755.025 1.16374C754.158 1.17206 754.813 1.22146 754.672 1.22477C753.969 1.24174 751.109 1.26863 750.806 1.26884C748.527 1.26923 748.461 1.20081 746.247 1.19706C747.116 1.19127 747.934 1.18605 748.784 1.18046C749.17 1.06953 749.565 0.958606 749.951 0.847469C747.78 0.839398 745.609 0.831493 743.431 0.823423C745.022 0.860467 746.619 0.897335 748.21 0.934379C745.723 1.024 743.237 1.11383 740.75 1.20365C739.455 1.1486 738.165 1.09355 736.87 1.0385C733.354 1.05302 734.062 1.27651 732.394 1.08073C731.357 1.09728 730.32 1.11383 729.283 1.13017C729.431 1.10224 729.578 1.07425 729.726 1.04631C728.476 1.06349 727.227 1.08056 725.977 1.09795C727.291 1.19687 728.579 1.30097 729.88 1.397C727.421 1.4185 727.374 1.33458 727.007 1.31363C726.034 1.25816 724.103 1.33298 723.33 1.28165C723.068 1.26403 725.479 1.20878 724.648 1.14506C724.486 1.13271 721.259 0.898484 719.2 0.952567C719.238 0.994999 719.397 1.04703 719.481 1.09318C716.712 1.11896 715.3 0.897469 715.667 0.835385C714.192 0.878848 712.035 0.88248 711.732 0.950369C710.979 0.952025 710.231 0.953596 709.477 0.955252C710.262 0.789909 707.118 0.820143 706.912 0.962332C708.207 0.965851 709.504 0.969555 710.799 0.973073C709.819 1.14735 713.755 1.25255 705.566 1.09111C704.001 1.00045 708.349 1.10346 707.074 1.03557C704.857 0.996055 702.777 1.02912 700.671 0.965994C698.049 0.887138 701.274 0.811293 695.167 0.911675C708.638 1.16316 693.319 1.08156 686.993 1.15959C685.253 0.911205 679.91 0.832533 672.552 0.906426C673.319 0.975555 675.634 0.939939 676.968 0.962698C678.301 0.985463 676.858 1.02647 678.519 1.05876C680.181 1.09104 683.71 1.13493 685.393 1.18376C683.968 1.22288 676.935 1.31538 681.585 1.20426C678.114 1.13577 676.484 1.06538 672.182 1.05254C670.893 1.16037 670.989 1.22752 666.795 1.23063C669.275 1.08078 664.51 0.976641 665.559 0.821836C668.533 0.857892 666.871 1.00835 668.591 1.08037C668.767 1.08757 671.538 1.04985 672.182 1.05254C669.386 0.917377 668.419 0.867068 670.139 0.706241C668.161 0.720316 666.931 0.700125 666.75 0.776916C666.338 0.743602 665.924 0.71026 665.518 0.676946C664.874 0.677775 664.295 0.680859 663.612 0.680241C664.552 0.796077 662.731 0.724769 661.436 0.777282C660.141 0.829857 661.878 0.921297 658.322 0.922539C659.507 0.949654 660.591 0.972919 661.738 0.998585C659.444 1.02839 657.144 1.05838 654.851 1.08818C656.462 1.15896 659.952 1.26409 659.856 1.35721C658.8 1.32205 655.182 1.38384 654.786 1.38638C653.252 1.3959 654.088 1.33718 653.972 1.33573C651.563 1.30719 649.579 1.32718 648.664 1.2382C646.854 1.27835 645.489 1.25546 643.569 1.25773C642.513 1.25897 642.718 1.32433 642.1 1.31192C637.99 1.22914 641.905 1.14467 633.977 1.30545C634.937 1.35099 635.884 1.39756 636.844 1.44351C635.948 1.46069 635.058 1.47796 634.162 1.49514C633.563 1.48686 632.969 1.47852 632.37 1.47024C632.383 1.37152 632.398 1.27259 632.411 1.17387C631.754 1.16849 631.094 1.16326 630.437 1.15788C631.565 1.14815 632.695 1.13843 633.822 1.12871C633.925 1.11133 634.022 1.09396 634.124 1.07658C632.449 1.04968 630.78 1.02253 629.105 0.995411C629.073 1.02975 629.041 1.06434 629.009 1.09868C625.234 1.05087 625.144 1.02179 621.555 1.11638C618.792 1.11534 616.541 1.25893 614.943 1.31937C614.37 1.30012 613.796 1.28063 613.216 1.26139C612.849 1.28995 612.478 1.31839 612.111 1.34696C611.383 1.30722 610.645 1.26747 609.917 1.22794C609.511 1.31814 609.301 1.3463 612.142 1.37796C611.169 1.49014 606.168 1.44065 604.132 1.40298C602.587 1.3744 604.301 1.28083 604.108 1.26945C603.463 1.23078 600.917 1.26414 600.383 1.25773C598.121 1.23103 596.537 1.2357 594.495 1.215C594.097 1.21086 592.986 1.15156 592.891 1.1497C592.157 1.13956 590.344 1.11074 590.138 1.10991C579.504 1.06564 590.867 1.32292 580.978 1.29581C581.274 1.32974 581.547 1.36344 581.836 1.39737C581.09 1.39944 580.335 1.4014 579.588 1.40347C578.641 1.37512 579.786 1.32355 577.905 1.36514C578.028 1.32334 578.151 1.28151 578.28 1.23991C577.461 1.26247 576.673 1.28485 575.835 1.30741C574.521 1.16232 569.723 1.12937 570.064 0.959036C570.18 0.90108 573.581 0.841612 571.784 0.779724C570.323 0.767541 571.312 0.836758 570.716 0.84039C566.413 0.865642 566.663 0.768621 564.904 0.794493C564.627 0.836074 564.336 0.878469 564.052 0.920464C563.389 0.908258 562.724 0.89605 562.054 0.883844C561.9 0.911788 561.738 0.93976 561.584 0.967703C562.209 0.969565 562.912 0.971455 563.486 0.973318C562.686 1.08155 555.344 1.13016 558.144 1.03789C559.284 1.00043 561.372 1.01635 560.053 0.888483C558.088 0.906903 555.858 0.925724 553.79 0.944144C553.726 0.916615 553.666 0.889036 553.602 0.861507C550.815 0.879327 553.349 0.989394 553.344 1.04839C552.707 1.05004 552.063 1.05149 551.425 1.05315C551.155 1.02647 550.898 0.998554 550.615 0.972707C550.589 1.01516 550.232 1.11382 548.332 1.07719C547.11 1.05335 549.034 0.946259 546.704 0.961111C546.878 1.02733 547.72 1.10799 545.125 1.12932C544.867 1.0602 544.511 0.996883 544.311 0.924248C541.084 0.990646 539.616 0.883914 535.828 0.961111C533.425 1.00996 530.133 1.18337 528.58 0.916191C526.823 0.909158 527.38 0.975693 526.86 0.990651C524.406 1.06144 522.58 0.934751 522.122 0.927299C519.205 0.879534 517.897 0.923388 515.52 0.863582C515.649 0.913051 515.719 0.959878 515.823 1.00811C518 0.934005 519.103 0.937483 522.157 0.953421C521.133 0.963354 520.108 0.973516 519.084 0.983449C519.252 1.02359 519.417 1.06375 519.578 1.10368C529.023 0.945546 526.82 1.19539 518.902 1.25004C518.219 1.17574 517.512 1.10165 516.835 1.02715C512.261 1.13974 510.109 1.042 504.936 1.0186C504.321 1.01593 502.081 1.05872 501.118 1.06084C501.134 1.06112 501.15 1.06141 501.166 1.06169C500.567 1.13185 501.378 1.16414 501.475 1.22684C500.953 1.23471 500.431 1.24254 499.909 1.2504C498.744 1.2026 499.154 1.16334 496.861 1.17472C497.17 1.22232 497.475 1.26994 497.784 1.31754C495.272 1.31919 493.627 1.26748 491.289 1.28983C491.682 1.27182 492.07 1.25376 492.463 1.23576C487.373 1.1898 491.424 0.90994 487.577 1.04924C487.333 1.02483 487.094 1.00017 486.85 0.975759C488.434 0.969757 490.019 0.963939 491.598 0.957937C491.63 0.923385 491.665 0.88898 491.69 0.854427C489.996 0.864776 488.293 0.875448 486.599 0.885798C487.836 0.862615 489.08 0.839403 490.317 0.816221C488.352 0.799664 486.387 0.783097 484.422 0.766541C486.509 0.893599 483.804 0.909137 484.312 1.03496C480.833 0.930226 478.101 0.792166 472.708 0.880549C471.639 0.898155 472.22 0.986082 469.186 0.879084C469.92 1.01899 466.119 1.08464 466.607 1.21769C467.664 1.21128 468.759 1.20724 469.783 1.19938C468.617 1.15323 468.424 1.02626 470.195 0.988576C472.456 0.940557 475.754 1.02855 475.619 0.887628C476.521 0.89425 477.36 0.898156 478.236 0.903741C477.875 0.9387 477.522 0.973879 477.168 1.00884C479.66 0.95403 481.226 0.971853 482.424 1.05998C479.455 1.08026 476.491 1.10033 473.522 1.1204C473.959 1.1264 474.403 1.13244 474.84 1.13823C472.592 1.22826 474.911 1.31355 470.717 1.3328C470.742 1.29162 470.763 1.25041 470.789 1.20902C469.262 1.31914 465.081 1.31854 466.415 1.44522C465.152 1.40631 464.895 1.3817 464.18 1.44998C460.849 1.35373 458.71 1.23202 459.895 1.08672C458.659 1.1101 457.421 1.13352 456.191 1.1569C456.906 1.19663 457.622 1.23618 458.337 1.27591C456.185 1.27343 454.017 1.27099 451.872 1.26871C451.666 1.15116 456.014 1.23305 454.759 1.12797C454.508 1.10688 453.35 1.15206 453.046 1.14018C449.838 1.01165 454.874 1.10451 453.928 1.00603C449.148 0.975604 452.973 0.810591 446.389 0.949271C446.215 0.915333 446.028 0.880712 445.867 0.846981C443.581 0.844944 443.767 0.921602 441.802 0.936088C440.572 0.9451 439.027 0.810489 437.669 0.902154C437.426 0.919054 439.712 1.08358 434.908 1.07634C431.18 1.07073 432.732 0.954459 430.716 0.913262C428.7 0.872072 424.087 1.03329 422.727 0.850521C423.783 0.874728 425.129 0.887788 426.301 0.907647C426.778 0.872051 427.242 0.83684 427.712 0.801451C425.032 0.847399 422.262 0.793245 420.458 0.878107C416.882 0.748329 412.883 0.868762 413.966 1.01531C415.143 0.994179 413.862 0.930278 415.497 0.970998C415.664 1.00515 415.841 1.03914 416.008 1.07329C413.225 1.06915 411.292 1.07011 412.561 0.965994C412.13 0.96351 411.702 0.961032 411.271 0.958548C411.193 1.03389 411.125 1.10951 411.047 1.18485C410.532 1.19334 410.014 1.20176 409.499 1.21024C408.926 1.1937 408.352 1.17695 407.772 1.1602C408.552 1.04097 409.879 1.03704 405.486 0.970388C405.473 1.01158 405.454 1.0526 405.441 1.09379C401.762 1.04143 401.665 0.941651 397.047 0.945365C400.59 0.802356 402.529 1.05586 402.516 0.768982C403.405 0.787818 404.301 0.806906 405.19 0.825742C405.326 0.784138 405.46 0.742474 405.589 0.70087C400.815 0.722815 392.885 0.996424 389.689 0.815C389.303 0.83714 388.915 0.856386 388.522 0.880183C385.391 0.770687 384.039 1.01651 380.863 0.874934C380.535 0.860075 381.221 0.629121 377.086 0.637397C377.189 0.667414 377.243 0.717935 377.326 0.755799C376.431 0.737384 375.541 0.718113 374.652 0.699283C374.491 0.727008 374.322 0.754722 374.161 0.782653C375.688 0.793416 377.21 0.804359 378.737 0.815122C377.469 0.82464 376.192 0.834168 374.923 0.843685C376.578 0.888999 377.325 0.88948 376.327 0.962088C374.891 0.966434 373.452 0.971046 372.015 0.975393C371.867 0.993996 371.72 1.01282 371.572 1.03142C372.268 1.08689 372.971 1.14113 373.666 1.19743C369.923 1.1521 366.669 1.14964 363.796 1.04057C363.306 1.02215 365.038 0.94989 361.702 1.01506C361.65 0.976791 361.561 0.945714 361.503 0.910332C357.418 1.01755 356.076 0.985548 351.817 0.908135C354.575 0.980373 352.115 0.933391 351.412 0.972097C350.931 0.998764 352.809 0.994824 352.597 1.02275C352.384 1.05049 349.944 1.16247 352.03 1.17594C357.146 0.946398 358.539 1.22084 365.111 1.11052C364.099 1.14012 363.081 1.16978 362.069 1.19938C362.545 1.21944 362.972 1.23764 363.487 1.25895C359.822 1.21404 361.604 1.24322 360.098 1.2786C358.591 1.31399 355.851 1.34406 354.015 1.35379C353.436 1.35685 354.046 1.30536 352.741 1.30057C351.852 1.29726 349.422 1.37358 348.861 1.2836C348.494 1.22503 352.397 1.06375 347.001 1.06413C345.985 1.00671 348.572 1.02455 348.628 1.01763C349.098 0.949322 345.781 0.897965 344.247 0.950125C344.123 0.954625 345.334 1.00785 344.017 1.02873C340.892 1.07862 339.088 1.01758 337.065 0.934989C336.846 1.03186 334.216 1.14755 330.943 1.11174C330.776 1.13946 330.616 1.16742 330.449 1.19535C330.957 1.18068 331.465 1.1662 331.973 1.15153C332.528 1.16892 333.115 1.18157 333.656 1.20207C330.364 1.22589 329.899 1.35939 328.32 1.40823C322.919 1.57509 326.193 1.22213 327.167 1.1613C327.869 1.18593 328.548 1.21342 329.244 1.2393C329.167 1.20556 329.088 1.17156 329.017 1.13762C320.932 1.13865 327.786 0.918608 323.682 0.855892C322.626 1.02188 319.612 1.03788 315.772 0.932548C315.347 0.933376 314.92 0.933588 314.495 0.934623C314.424 0.958826 314.425 0.995821 314.31 1.01177C309.684 1.03992 308.86 0.784289 308.422 0.760071C306.476 0.652664 304.961 0.801276 304.387 0.80255C301.972 0.807724 301.27 0.741737 298.97 0.770081C296.496 0.800707 298.188 0.85134 297.435 0.896661C296.832 0.932653 294.88 0.939063 294.074 0.976369C294.394 0.945857 294.75 0.915936 295.07 0.885309C292.506 0.843713 290.411 0.803169 287.499 0.793029C284.214 1.01628 281.419 0.63968 282.552 0.945121C285.31 0.966026 286.852 1.00083 288.327 1.07866C286.517 1.08859 284.706 1.09827 282.896 1.1082C282.367 1.07468 281.992 1.04201 281.368 1.00786C280.015 1.07905 276.879 1.0485 275.648 1.06938C269.882 1.16728 271.666 1.28871 266.402 1.08464C270.196 1.06476 270.19 0.965641 273.952 0.979299C273.14 0.908512 271.228 0.923178 272.465 0.838315C268.826 0.859217 270.002 0.934983 268.586 1.00225C267.364 1.06023 264.904 1.06348 265.043 1.13884C264.791 1.09741 264.597 1.0573 264.346 1.01592C261.988 1.01633 259.631 1.01636 257.273 1.01677C258.278 0.973519 259.283 0.930187 260.288 0.88714C259.528 0.870803 258.768 0.854529 258.008 0.838192C252.21 0.97273 242.211 0.726157 243.808 1.06413C241.012 1.0749 240.663 1.03251 239.143 0.968557C238.975 0.994215 238.812 1.01556 238.645 1.04411C236.841 1.01725 235.457 1.11359 233.866 1.08855C232.275 1.0637 231.88 0.972706 231.648 1.12565C230.617 1.08178 229.592 1.04534 228.568 1.00457C227.95 1.03931 227.333 1.07366 226.721 1.1082C225.755 1.08999 224.786 1.07185 223.82 1.05364C223.304 1.12665 219.504 1.09518 217.829 1.14421C216.239 1.06551 216.283 0.817713 212.542 0.862117C212.639 0.923575 212.734 0.984854 212.83 1.04631C211.974 1.03348 211.115 1.02069 210.252 1.00786C210.201 0.987803 210.156 0.967743 210.104 0.947684C210.542 0.953892 210.974 0.960067 211.412 0.966482C211.032 0.932536 210.66 0.898748 210.286 0.864802C208.979 0.915091 207.669 0.965385 206.355 1.01567C208.127 1.05375 209.899 1.09185 211.67 1.12993C209.447 1.17505 207.9 1.13004 205.967 1.18034C204.286 1.09549 204.907 1.0466 205.59 0.95452C204.965 0.962382 204.333 0.969972 203.708 0.977834C204.12 0.885742 203.064 0.83087 206.716 0.838315C206.465 0.812048 206.209 0.787005 205.964 0.759705C205.365 0.763844 204.976 0.741642 204.319 0.751771C202.528 0.779507 201.155 0.941261 201.278 0.997975C201.344 1.02768 203.11 0.970869 203.039 1.01287C202.864 1.11528 198.813 1.0693 204.656 1.17216C202.717 1.23736 202.283 1.18819 200.145 1.16935C200.312 1.20348 200.475 1.23739 200.636 1.27152C199.644 1.2558 198.651 1.24013 197.659 1.2244C199.038 1.0491 191.725 0.983251 198.308 0.829892C196.363 0.822028 194.424 0.814123 192.485 0.805845C192.884 0.787842 193.284 0.770019 193.683 0.752015C194.559 0.761535 195.43 0.770899 196.306 0.780212C195.276 0.747312 194.243 0.714606 193.213 0.681706C190.778 0.722482 189.823 0.785195 188.709 0.862605C191.543 0.919095 190.617 0.841932 192.825 0.826596C192.748 0.87562 192.85 0.920713 192.657 0.972219C191.516 0.870674 187.793 0.944548 186.93 0.949515C184.303 0.964598 186.363 0.864825 184.606 0.862727C182.847 0.860657 180.773 0.920042 179.336 0.821103C179.362 0.876558 179.477 0.933933 179.58 0.984425C176.841 1.00264 177.388 0.937128 177.104 0.928642C172.581 0.789139 170.127 0.906914 164.954 0.921196C165.611 0.938373 166.275 0.953879 166.938 0.970022C163.036 1.08776 165.665 1.05171 169.053 1.09062C165.877 1.07882 164.058 1.1791 161.816 1.2089C159.574 1.23866 155.73 1.18716 154.325 1.14701C157.54 1.08244 161.007 1.12502 164.576 1.10722C164.171 1.05073 163.776 1.00292 163.358 0.940848C161.187 1.05942 159.929 0.980137 159.214 0.964407C157.114 0.918272 157.18 1.02004 155.911 0.910577C155.962 0.948233 156 0.979893 156.052 1.01506C151.716 0.999334 147.039 0.932762 144.217 1.07182C143.96 0.98138 143.765 0.894245 143.469 0.801939C141.633 0.870021 140.061 0.800303 138.515 0.816221C136.975 0.832158 137.561 0.90525 135.751 0.933403C135.416 0.938577 134.718 0.892828 133.894 0.926567C133.061 0.960484 129.99 1.21267 129.623 0.99236C128.07 0.991324 126.601 0.983268 125.081 0.979543C126.562 0.967125 128.045 0.955097 129.52 0.942679C128.257 0.889284 127.002 0.836048 125.74 0.782653C125.579 0.83026 125.417 0.878727 125.263 0.925712C121.861 0.983667 119.392 0.905831 115.959 0.924248C115.385 0.927352 116.738 1.02147 114.194 0.997486C111.649 0.973478 109.761 0.797802 105.425 0.865657C105.206 0.869176 103.923 1.00372 102.37 0.910577C102.017 0.889466 103.504 0.85823 102.693 0.830502C101.881 0.802766 98.2588 0.779959 97.9753 0.713931C98.014 0.737314 98.24 0.761542 98.3495 0.785339C97.7312 0.796512 97.1066 0.807695 96.4819 0.818662C96.4239 0.777478 96.3613 0.736233 96.3033 0.695255C92.7471 0.791085 90.9093 0.947409 85.6398 0.895685C87.1214 0.955498 88.6037 1.01555 90.0789 1.07536C90.4848 1.03335 90.8914 0.991045 91.2908 0.949027C93.7193 0.96579 96.1545 0.982432 98.583 0.999195C98.9824 0.951382 99.3749 0.903705 99.7743 0.855892C100.418 0.8621 101.056 0.868116 101.7 0.874323C101.539 0.908888 101.377 0.94327 101.209 0.977834C102.485 0.96935 103.762 0.960685 105.031 0.9522C102.447 1.15623 97.8164 0.934846 98.1504 1.10551C97.5773 1.07903 97.0035 1.05237 96.4304 1.02568C96.179 1.10844 95.0136 1.08462 92.9594 1.07158C93.4297 1.11236 93.9491 1.15258 94.3807 1.19377C92.3835 1.13623 88.8408 1.14182 86.7727 1.11967C85.8645 1.10995 86.7717 1.04995 86.5015 1.04289C85.1163 1.00605 82.4688 1.11074 81.9147 1.10246C78.6034 1.05319 76.4515 0.854714 72.8373 0.985524C76.5676 1.01781 74.5382 1.00418 75.8654 1.07683C76.2808 1.09961 81.1 1.14712 75.0654 1.12602C74.358 1.12338 63.4083 0.986246 67.0077 0.881159C65.2359 0.914691 63.8487 0.953462 62.2252 0.989064C58.2565 0.712118 59.63 0.972289 60.7832 1.11552C60.1325 1.11614 59.5135 1.1176 58.8435 1.1176C60.2673 0.967119 53.0133 0.957776 50.5522 1.03374C49.7277 1.05899 52.0334 1.10716 50.1265 1.12993C49.2185 1.11937 48.1884 1.10571 47.2289 1.09392C48.6204 1.18912 45.8894 1.22581 45.9277 1.32267C44.1819 1.23636 42.8465 1.05343 43.806 0.954276C42.3631 0.994423 40.9127 1.03452 39.4698 1.07487C40.1398 1.09785 40.8185 1.12062 41.4885 1.1436C36.7725 1.08274 30.7086 1.22122 29.7229 1.01775C29.098 1.0192 28.4664 1.02045 27.8415 1.0219C27.6482 1.05626 27.4614 1.09068 27.2681 1.12504C24.4405 1.09524 21.6192 1.06525 18.7915 1.03545C21.3093 1.01413 21.9086 0.965219 24.549 1.00493C23.5315 0.965415 22.4951 0.925681 21.4969 0.886164C17.5218 0.992552 16.9796 1.06247 10.9947 1.03081C10.7241 1.02936 6.202 0.940143 6.04738 0.93145C5.33898 0.891712 6.41431 0.833982 6.09888 0.813902C5.22267 0.757602 -0.101606 0.616238 0.00147697 0.594918C1.30291 0.33329 19.2166 0.329822 24.0615 0.316368C74.3139 0.176867 123.46 0.363501 173.396 0.331626C173.91 0.331132 173.686 0.292511 173.904 0.290856C175.264 0.281156 176.598 0.341349 177.101 0.343832C178.174 0.34895 177.583 0.293337 178.368 0.293298C186.473 0.293918 194.121 0.326621 202.232 0.3171C202.76 0.316479 202.221 0.360975 203.149 0.353109C203.628 0.348802 205.127 0.280538 206.208 0.279504C209.983 0.275987 213.154 0.297872 217.136 0.296837C219.313 0.29622 222.58 0.302022 225.015 0.300988C226.09 0.300548 227.211 0.269318 228.273 0.268274C229.781 0.266826 229.473 0.330134 229.705 0.334067C230.722 0.351243 230.863 0.281757 231.83 0.28341C233.627 0.286722 233.724 0.333115 236.005 0.329185C237.635 0.326287 241.365 0.289657 243.42 0.278894C248.226 0.332705 254.283 0.311342 258.767 0.293542C261.421 0.28299 261.667 0.347945 262.749 0.347738C266.563 0.34648 269.457 0.263519 273.039 0.260828C277.792 0.257323 282.005 0.31218 286.61 0.316124C287.357 0.316744 287.186 0.257229 287.918 0.255702C290.631 0.250113 294.099 0.239281 296.515 0.247768C299.208 0.257094 300.201 0.343481 302.836 0.325889C303.608 0.320665 303.835 0.24492 305.129 0.235195C307.197 0.219902 309.464 0.286697 310.907 0.294152C312.885 0.304087 311.165 0.226921 313.832 0.23727C313.942 0.237717 314.341 0.292878 314.914 0.290246C316.582 0.282794 316.417 0.239356 318.859 0.243495C319.093 0.244067 322.33 0.296627 322.652 0.296837C324.546 0.297665 328.36 0.316067 329.481 0.304894C333.488 0.265153 330.333 0.182187 333.742 0.362264C335.242 0.318188 336.731 0.273513 338.321 0.230679C337.26 0.270626 341.569 0.328271 341.871 0.324546C344.376 0.294526 342.884 0.22446 346.06 0.236049C341.866 0.397912 350.157 0.256912 352.006 0.252772C360.91 0.232701 369.003 0.273093 377.951 0.272058C380.947 0.271634 384.961 0.237419 388.131 0.238247C388.869 0.238296 388.311 0.276602 388.961 0.277429C389.61 0.277997 388.89 0.234995 389.631 0.23727C394.237 0.252178 397.846 0.333317 402.066 0.231899C402.272 0.246563 402.265 0.258149 402.605 0.274256C406.058 0.183398 412.709 0.305583 415.208 0.322349C419.118 0.348414 420.117 0.286999 422.957 0.299401C426.713 0.315959 432.352 0.435938 429.834 0.23788C432.411 0.231673 434.891 0.229959 437.493 0.248378C437.783 0.250466 437.584 0.300807 437.699 0.301842C438.434 0.30907 438.673 0.263997 439.169 0.261927C440.514 0.25636 438.319 0.310328 440.237 0.295251C441.248 0.287179 441.822 0.247866 444.631 0.247035C461.562 0.242689 479.944 0.256768 497.3 0.263392C498.492 0.263806 497.708 0.215123 499.202 0.218228C504.395 0.229001 513.69 0.31093 518.167 0.299767C522.645 0.288591 521.635 0.217399 524.436 0.18759C524.978 0.181794 524.534 0.222368 525.023 0.222989C528.316 0.226718 532.241 0.290002 534.908 0.299523C536.672 0.305902 536.53 0.242074 537.754 0.237514C539.577 0.230891 541.454 0.295378 542.427 0.297448C547 0.30654 550.144 0.2546 554.415 0.281091C554.248 0.267044 554.138 0.25404 553.996 0.2402C559.053 0.242476 564.104 0.244759 569.161 0.247035C568.923 0.234202 568.692 0.221259 568.454 0.208219C574.387 0.215261 573.71 0.354349 573.188 0.0606431C573.62 0.0502962 574.077 0.0383028 574.489 0.0287843C574.322 0.18008 577.911 0.2908 582.478 0.329307C582.814 0.332204 585.061 0.184687 584.817 0.358968C585.403 0.316331 585.752 0.286939 586.248 0.249477C587.214 0.302241 588.193 0.354382 589.16 0.406939C589.681 0.399076 590.21 0.391488 590.732 0.383625C590.809 0.349473 590.75 0.314012 590.917 0.280481C593.339 0.275307 598.307 0.317528 600.221 0.313194C604.976 0.302224 609.817 0.209887 613.515 0.309654C615.316 0.299483 613.527 0.232451 616.206 0.240932C616.509 0.274869 616.794 0.307397 617.109 0.342367C619.299 0.190736 619.757 0.282977 622.757 0.314659C624.786 0.336183 626.115 0.299124 628.048 0.306358C628.537 0.308221 628.468 0.352727 628.803 0.351278C629.925 0.346688 633.126 0.285432 633.918 0.283777C641.095 0.267635 647.26 0.274506 654.095 0.290856C654.83 0.292512 653.878 0.24859 654.638 0.250453C655.861 0.253377 655.141 0.320869 655.85 0.32418C657.826 0.333036 657.841 0.261868 660.598 0.258143C669.675 0.245939 680.112 0.299401 689.595 0.304161C689.891 0.304161 689.874 0.262463 690.196 0.262049C692.296 0.26001 694.421 0.316376 696.328 0.315757C699.491 0.314929 701.868 0.256349 704.993 0.256556C711.101 0.256763 716.557 0.286758 722.839 0.288415C727.98 0.289864 732.445 0.284302 738.082 0.284509C762.706 0.285337 787.833 0.15298 812.625 0.223355C813.255 0.225216 812.999 0.262058 813.191 0.260462C815.021 0.244525 815.184 0.194816 815.835 0.298913C818.165 0.278397 818.901 0.20019 821.716 0.205778C823.216 0.208707 822.096 0.329921 824.634 0.26742C826.926 0.210919 824.397 0.144488 831.212 0.212369C831.392 0.214235 832.28 0.28812 833.698 0.268885C835.122 0.249842 833.473 0.196936 836.901 0.180998C844.947 0.143745 855.132 0.207612 864.487 0.187956C865.073 0.186714 870.719 0.147214 871.834 0.128999C873.991 0.0936064 873.54 0.0387007 876.342 0.0252445C878.506 0.0148952 880.292 0.0770903 882.837 0.0646712C883.134 0.0631617 883.63 -0.000813246 885.543 0.00766718ZM411.277 1.25028C410.749 1.31305 409.796 1.54409 406.601 1.47378C406.299 1.46716 407.933 1.30827 406.169 1.28299C407.895 1.26623 409.577 1.2608 411.277 1.25004C411.277 1.25012 411.277 1.2502 411.277 1.25028ZM899.389 1.48086C896.999 1.46927 894.6 1.45779 892.21 1.44619C893.859 1.41825 895.511 1.39036 897.154 1.36221C897.901 1.40174 898.642 1.44133 899.389 1.48086ZM601.845 1.37112C601.848 1.37112 601.85 1.37112 601.852 1.37112C599.339 1.40093 596.825 1.43079 594.313 1.4606C594.577 1.43866 594.842 1.41662 595.106 1.39468C597.09 1.36012 599.075 1.32561 601.052 1.29105C601.316 1.31775 601.581 1.34443 601.845 1.37112ZM621.696 1.13884C623.3 1.16492 622.908 1.2089 623.79 1.25175C623.79 1.25166 623.79 1.25158 623.79 1.2515C624.023 1.26266 625.108 1.27242 625.528 1.27408C625.373 1.24655 625.173 1.21938 625.006 1.19206C628.749 1.12541 636.069 1.36225 626.592 1.45767C626.734 1.4229 626.869 1.38831 627.011 1.35355C622.301 1.36327 617.051 1.28786 621.696 1.13884ZM373.409 1.35037C369.389 1.46422 368.1 1.48822 363.223 1.41019C363.912 1.37792 364.6 1.34566 365.289 1.31339C366.095 1.3463 366.894 1.37898 367.7 1.41189C367.702 1.41189 367.704 1.41189 367.706 1.41189C367.867 1.37733 368.029 1.3427 368.184 1.30814C369.923 1.32221 371.67 1.3363 373.409 1.35037ZM775.587 1.22111C776.707 1.44847 776.384 1.31631 773.184 1.36759C772.075 1.38539 773.156 1.42517 772.466 1.43179C768.743 1.46797 768.446 1.31564 769.277 1.23637C771.383 1.23098 773.512 1.22608 775.58 1.22111C775.582 1.22111 775.585 1.22111 775.587 1.22111ZM872.174 1.17387C872.176 1.17387 872.178 1.17387 872.181 1.17387C872.277 1.22933 870.776 1.24424 872.469 1.29679C871.181 1.29658 869.894 1.29614 868.6 1.29593C868.979 1.29077 869.367 1.28584 869.746 1.28068C869.411 1.26163 869.076 1.24235 868.741 1.22331C868.283 1.28705 867.858 1.25 866.505 1.22868C866.879 1.29677 867.251 1.36492 867.625 1.43301C866.053 1.41273 864.476 1.39238 862.904 1.3721C862.885 1.35494 862.865 1.33775 862.846 1.32059C862.253 1.34252 861.667 1.3647 861.074 1.38663C860.913 1.36614 860.758 1.34584 860.597 1.32535C859.882 1.34087 859.166 1.35638 858.451 1.3721C858.234 1.32247 859.809 1.30103 857.016 1.31363C857.873 1.26272 858.728 1.21196 859.591 1.16105C863.785 1.16519 867.98 1.16952 872.174 1.17387ZM746.47 1.29105C751.089 1.28153 749.788 1.3175 748.719 1.43008C747.971 1.38373 747.217 1.3374 746.47 1.29105ZM508.486 1.19084C507.146 1.26763 505.8 1.34365 504.428 1.41775C501.696 1.4606 498.963 1.32063 501.018 1.26578C503.492 1.19997 506.076 1.27363 508.486 1.19084ZM446.269 1.22501C449.611 1.26062 446.466 1.35187 445.713 1.40506C444.788 1.31957 443.499 1.32711 441.428 1.31717C443.372 1.31163 445.716 1.21897 446.269 1.22477C446.269 1.22485 446.269 1.22493 446.269 1.22501ZM562.271 1.27714C563.61 1.27484 564.942 1.25339 566.14 1.27945C565.779 1.35288 563.383 1.28608 565.096 1.39493C564.239 1.39679 563.382 1.3986 562.531 1.40066C563.072 1.35557 562.345 1.32186 562.274 1.27738C562.273 1.2773 562.272 1.27722 562.271 1.27714ZM701.714 1.37759C699.086 1.29066 698.588 1.32786 695.94 1.38809C695.566 1.31731 698.724 1.19875 700.701 1.17265C701.037 1.24095 701.373 1.30929 701.714 1.37759ZM79.9681 1.34134C80.5993 1.25112 85.2557 1.23936 87.5692 1.26603C87.2937 1.27941 87.0173 1.29297 86.7418 1.30655C84.4869 1.31814 82.223 1.32975 79.9681 1.34134ZM440.443 1.31107C440.789 1.31371 441.118 1.31568 441.428 1.31717C441.083 1.31816 440.75 1.31662 440.443 1.31107ZM300.491 0.919487C301.592 0.834426 298.318 0.805848 302.293 0.839169C302.293 0.839088 302.293 0.839006 302.293 0.838925C304.922 0.860865 305.502 0.866723 307.937 0.873347C307.061 0.982619 302.12 1.02168 308.93 1.04424C309.019 1.04434 308.841 0.979316 309.929 0.988209C310.264 0.990974 311.339 1.04434 312.974 1.05986C313.502 1.06483 317.472 1.08129 312.061 1.08232C312.222 1.15849 311.931 1.23559 311.944 1.30948C309.832 1.33096 308.208 1.18181 305.974 1.18547C302.656 1.19126 300.967 1.34209 300.329 1.14421C303.119 1.09559 307.91 1.09442 308.535 1.21342C311.234 1.21487 312.009 1.11737 309.833 1.06914C300.51 1.13041 307.273 0.924422 299.111 1.00225C299.014 1.02977 298.678 1.05938 298.73 1.08525C296.238 0.988405 300.098 0.949911 300.491 0.919487ZM319.985 1.12993C318.374 1.18809 316.769 1.24672 315.164 1.30509C315.164 1.21029 316.049 1.12522 318.587 1.07182C319.051 1.09126 319.521 1.11069 319.985 1.12993ZM184.496 1.15483C184.264 1.20636 183.646 1.25359 183.195 1.30265C182.705 1.25918 171.108 1.21748 177.008 1.17485C177.865 1.16864 183.091 1.25977 184.496 1.15483ZM719.965 1.29996C718.599 1.26539 717.239 1.23077 715.88 1.19621C717.972 1.17428 720.066 1.15178 722.159 1.12944C721.426 1.18627 720.699 1.24313 719.965 1.29996ZM486.252 1.10039C486.829 1.10232 484.913 1.1732 487.186 1.16203C485.492 1.20736 483.905 1.24573 482.249 1.28837C481.753 1.25483 481.252 1.22144 480.756 1.18791C480.369 1.20943 479.975 1.23083 479.588 1.25236C479.82 1.20351 480.027 1.1558 480.271 1.10612C483.061 1.21086 483.701 1.09211 486.252 1.10039ZM569.202 0.909356C569.704 1.01552 565.664 1.07865 569.638 1.09563C568.884 1.16537 567.672 1.20196 565.347 1.20817C564.973 1.18149 564.601 1.15501 564.227 1.12834C564.176 1.19972 563.578 1.22625 562.271 1.27714C562.269 1.27705 562.268 1.27697 562.267 1.27689C558.731 1.28206 558.943 1.25826 558.092 1.14091C561.836 1.20715 561.947 1.09993 564.499 1.03618C566.251 0.992343 568.539 1.0122 569.202 0.909356ZM196.852 1.15361C194.205 1.24322 196.581 1.32681 191.884 1.23161C192.187 1.20884 192.491 1.18626 192.794 1.16349C194.147 1.15998 195.499 1.15671 196.852 1.15361ZM582.266 1.27323C581.963 1.10889 579.471 0.980972 579.045 1.24833C581.474 1.30276 580.288 1.15132 582.266 1.27323ZM447.409 0.967703C452.079 0.975371 451.196 1.16085 449.276 1.25358C448.98 1.21984 448.684 1.18604 448.394 1.15251C447.576 1.16782 446.757 1.18317 445.939 1.19828C446.429 1.12149 446.919 1.04449 447.409 0.967703ZM664.605 1.0927C661.035 1.21006 668.457 1.15797 665.964 1.23124C663.974 1.28981 661.35 1.17156 662.342 1.09746C663.031 1.09539 663.799 1.09394 664.598 1.0927C664.6 1.0927 664.602 1.0927 664.605 1.0927ZM643.95 1.12626C644.536 1.25166 643.692 1.21511 646.511 1.19254C647.317 1.18613 653.716 1.23322 651.03 1.12932C648.743 1.12932 646.327 1.12751 643.95 1.12626ZM393.421 1.15117C393.378 1.09656 398.306 0.976656 398.938 1.00664C398.938 1.00656 398.938 1.00648 398.938 1.0064C400.646 1.08815 395.448 1.09977 397.702 1.21195C392.71 1.11324 391.216 1.35201 391.564 1.0374C394.505 1.0236 393.113 1.08845 393.421 1.15117ZM18.8293 1.08427C18.827 1.08427 18.8247 1.08427 18.8224 1.08427C19.1533 1.08684 21.8799 1.16698 21.5484 1.19474C18.2694 1.17094 18.8538 1.11819 15.8012 1.20487C15.6338 1.17695 15.4904 1.14987 15.3102 1.12175C16.5214 1.10519 17.1928 1.07165 18.8293 1.08427ZM171.958 1.04473C173.163 1.03044 175.361 1.08962 176.733 1.0861C172.365 1.31337 167.146 1.10144 171.958 1.04473ZM826.999 1.18168C826.996 1.18176 826.993 1.18184 826.989 1.18193C826.99 1.1818 826.991 1.18168 826.993 1.18156C826.995 1.1816 826.997 1.18164 826.999 1.18168ZM265.317 1.18107C265.162 1.16632 265.074 1.1535 265.043 1.14225C265.043 1.1412 265.043 1.14014 265.043 1.13908C265.127 1.15289 265.216 1.16686 265.317 1.18107ZM383.18 1.16764C381.128 1.09149 387.966 0.970418 390.177 0.999317C390.022 1.03408 389.998 1.06559 389.638 1.10551C387.853 1.0155 383.521 1.18048 383.18 1.16764ZM539.083 1.13969C533.677 1.13762 540.712 0.836932 541.002 1.07683C540.991 1.08148 539.222 1.13928 539.083 1.13969ZM425.807 1.13615C427.184 1.04511 424.416 1.02094 428.842 1.03667C429.099 1.06025 429.357 1.08389 429.614 1.10747C428.345 1.11698 427.076 1.12663 425.807 1.13615ZM503.672 0.744935C496.869 0.795644 490.363 0.885104 494.794 1.13615C495.309 1.12809 495.831 1.12029 496.346 1.11223C496.423 0.989747 498.323 1.0566 501.104 1.06059C501.501 1.01197 503.043 1.00072 503.332 0.959402C503.892 0.879527 502.12 0.82337 503.672 0.744935ZM790.892 0.944266C790.783 0.965172 790.676 0.986187 790.566 1.00689C789.49 1.03048 788.411 1.05396 787.335 1.07756C787.509 1.03744 787.683 0.997324 787.857 0.957205C788.868 0.952861 789.874 0.948489 790.885 0.944144C790.888 0.944185 790.89 0.944226 790.892 0.944266ZM326.614 0.871516C325.996 1.10162 328.156 1.05924 332.536 0.942924C330.565 0.919121 328.586 0.895319 326.614 0.871516ZM612.993 0.838192C613.135 0.903564 613.274 0.968734 613.422 1.03411C615.748 0.966007 615.316 0.891145 614.201 0.804625C613.796 0.815791 613.398 0.827026 612.993 0.838192ZM646.494 0.810362C645.529 0.796724 646.022 0.849505 645.921 0.848446C643.479 0.82071 643.135 0.796498 640.139 0.836239C639.772 0.850104 639.411 0.864684 639.044 0.878962C640.429 1.01594 641.435 0.941285 644.366 1.02178C643.837 0.974791 643.311 0.927741 642.783 0.880549C644.412 0.890482 646.036 0.900277 647.665 0.91021C647.858 0.895721 648.052 0.881366 648.245 0.866878C647.666 0.848255 647.068 0.827327 646.494 0.810362ZM803.334 1.00371C804.919 1.00909 806.511 1.01469 808.096 1.02007C808.154 0.986333 808.21 0.952368 808.268 0.918633C806.625 0.946983 804.977 0.975361 803.334 1.00371ZM294.074 0.976369C293.948 0.988337 293.826 1.00038 293.717 1.01262C293.728 0.997698 293.865 0.986048 294.074 0.976369ZM14.6476 0.899225C12.8504 0.875632 10.2606 0.891123 8.28927 0.886164C8.44425 0.970798 13.4547 0.947403 15.2141 0.998707C15.4968 0.983521 15.4073 0.909153 14.6476 0.899225ZM453.87 0.975149C454.321 0.932929 454.771 0.890909 455.216 0.84869C456.305 0.853244 457.396 0.858052 458.491 0.862605C458.523 0.828039 458.555 0.793173 458.587 0.758607C453.762 0.803514 454.875 0.703839 452.486 0.605538C452.95 0.72867 453.406 0.851809 453.87 0.975149ZM853.761 0.784484C850.276 0.807873 849.04 0.851558 851.005 0.955252C852.235 0.931457 853.472 0.90764 854.702 0.883844C854.386 0.850735 854.071 0.817593 853.761 0.784484ZM230.597 0.898248C227.681 0.936994 227.632 0.79783 224.781 0.875544C226.308 0.901204 227.834 0.927151 229.354 0.952811C229.765 0.934667 230.186 0.916393 230.597 0.898248ZM373.646 0.516065C372.415 0.467652 370.115 0.697782 366.656 0.527905C365.831 0.578606 365.315 0.627034 364.606 0.676701C364.194 0.622678 363.725 0.567965 363.332 0.514356C363.33 0.514356 363.328 0.514356 363.326 0.514356C360.188 0.532571 362.222 0.600325 362.151 0.657659C362.118 0.681427 359.79 0.641696 360.517 0.693424C361.773 0.782221 366.468 0.73116 366.481 0.839413C364.831 0.804034 361.611 0.833598 362.563 0.905816C363.607 0.985085 366.642 0.852241 368.575 0.918023C365.805 0.745004 371.526 0.798447 372.176 0.931327C375.533 0.829286 372.448 0.78766 369.008 0.792418C371.108 0.690584 368.016 0.745602 367.507 0.660955C369.673 0.609858 377.105 0.652452 373.646 0.516065ZM532.007 0.703678C529.687 0.710244 526.063 0.652038 524.474 0.737978C523.549 0.788048 527.182 0.82682 524.677 0.90545C526.937 0.897784 527.453 0.867068 527.066 0.798155C527.581 0.789881 528.103 0.78181 528.618 0.773743C528.856 0.787189 529.101 0.800456 529.339 0.813902C529.61 0.785548 529.882 0.75742 530.146 0.729067C530.693 0.734651 531.247 0.740243 531.794 0.746034C531.858 0.731777 531.968 0.719369 532.007 0.703678ZM146.851 0.90252C147.495 0.901693 148.133 0.900869 148.777 0.899835C148.706 0.883051 148.621 0.865573 148.54 0.848324C148.481 0.834693 148.423 0.821063 148.365 0.807432C148.738 0.856131 151.807 0.937072 153.099 0.885065C153.749 0.858975 152.27 0.766352 155.025 0.750184C153.029 0.754948 151.179 0.767588 149.24 0.775451C149.414 0.747922 149.581 0.720099 149.755 0.69257C149.754 0.692529 149.753 0.692488 149.752 0.692448C149.108 0.68624 148.456 0.679735 147.812 0.673528C147.49 0.749905 147.173 0.826143 146.851 0.90252ZM611.105 0.708926C608.908 0.76295 608.172 0.791004 609.21 0.878352C609.212 0.878392 609.214 0.878433 609.216 0.878474C610.035 0.839774 610.853 0.80109 611.671 0.76239C611.484 0.74459 611.298 0.726727 611.105 0.708926ZM275.15 0.688053C270.479 1.01984 280.998 0.81645 278.995 0.703434C278.905 0.698259 275.588 0.72469 275.15 0.688053ZM446.55 0.865657C447.832 0.862966 449.117 0.860536 450.406 0.857845C450.109 0.817069 449.806 0.776435 449.51 0.735658C448.524 0.778918 447.536 0.822397 446.55 0.865657ZM838.587 0.633857C837.237 0.542782 833.773 0.509786 832.081 0.608834C832.97 0.620425 833.859 0.632031 834.748 0.643622C833.067 0.655002 831.405 0.667529 829.712 0.678288C829.621 0.80517 831.573 0.73156 834.511 0.766541C834.966 0.772182 837.874 0.929678 838.878 0.810972C839.08 0.786573 835.987 0.769983 838.137 0.699039C837.197 0.693456 836.385 0.694694 835.497 0.691593C835.432 0.661373 835.368 0.631119 835.297 0.6009C836.396 0.611841 837.488 0.622915 838.587 0.633857ZM518.5 0.713565C515.314 0.706563 514.92 0.757261 514.257 0.846859C515.739 0.836717 517.221 0.826729 518.703 0.816587C518.632 0.782317 518.571 0.74804 518.5 0.713565ZM810.104 0.604806C808.36 0.59015 809.107 0.663081 808.405 0.676946C805.751 0.729097 803.941 0.676974 801.319 0.709659C801.493 0.695584 801.653 0.682428 801.82 0.668767C801.818 0.668767 801.816 0.668767 801.813 0.668767C789.399 0.6073 795.92 0.772698 803.348 0.74579C803.522 0.772905 803.689 0.800054 803.863 0.826962C807.187 0.779565 810.253 0.733958 810.104 0.604806ZM316.648 0.676701C316.506 0.659729 317.71 0.55187 315.449 0.602364C313.659 0.759844 316.595 0.681681 317.331 0.74225C316.719 0.75736 316.093 0.77206 315.487 0.78717C319.146 0.831671 319.681 0.794226 318.347 0.679143C318.252 0.671409 316.79 0.69362 316.648 0.676701ZM292.598 0.599069C292.095 0.831099 296.714 0.726761 296.546 0.65473C295.909 0.651858 295.413 0.691144 294.737 0.673772C294.054 0.656388 293.879 0.60219 292.598 0.599069ZM424.911 0.655828C424.775 0.654794 423.416 0.557274 423.551 0.633613C425.233 0.814311 428.621 0.698001 428.028 0.635077C426.907 0.63819 426.16 0.665304 424.911 0.655584C424.911 0.655666 424.911 0.655747 424.911 0.655828ZM859.605 0.579172C859.54 0.572698 856.149 0.533501 855.711 0.569895C855.351 0.610871 855.172 0.654786 854.901 0.697208C856.77 0.657881 860.551 0.687839 859.598 0.579172C859.6 0.579172 859.602 0.579172 859.605 0.579172Z" fill="black"/>
</svg>
