<svg width="2" height="301" viewBox="0 0 2 301" fill="none" xmlns="http://www.w3.org/2000/svg">
<path d="M1.80665 24.9945C1.89685 24.3145 1.83772 26.5846 1.97242 25.0772C1.98152 25.3915 1.9909 25.7078 2 26.0222C1.95012 26.1018 1.90036 26.1836 1.85047 26.2633C1.83579 25.8412 1.8211 25.4188 1.80641 24.9945C1.80649 24.9945 1.80657 24.9945 1.80665 24.9945ZM1.18193 24.4181C1.32421 24.805 1.36214 26.0341 1.49344 24.7063C1.44461 24.6008 1.39579 24.4926 1.34696 24.3871C1.38483 23.9261 1.42269 23.4622 1.46036 23.0012C1.44174 22.8353 1.42311 22.6699 1.4047 22.504C1.48955 22.2928 1.57463 22.0836 1.65969 21.8725C1.64727 22.06 1.63463 22.2499 1.62221 22.4374C1.69112 23.1785 1.70996 23.838 1.7228 24.8441C1.74287 24.7558 1.76277 24.6672 1.78285 24.5788C1.7487 25.0894 1.71447 25.5998 1.68032 26.1083C1.64679 25.6667 1.60951 25.1729 1.57827 24.7637C1.44523 25.4185 1.51927 26.5738 1.54702 27.175C1.5849 27.9937 1.52164 27.8087 1.54812 28.4162C1.55226 28.5131 1.60185 28.5242 1.60268 28.7159C1.60662 29.6834 1.58033 31.5624 1.46463 30.4635C1.47953 28.8711 1.38662 27.5132 1.42056 25.951C1.28678 26.3642 1.24125 25.5412 1.18193 24.4181ZM1.60793 53.6702C1.54296 53.1877 1.56918 52.2049 1.61428 51.5391C1.61428 51.5383 1.61428 51.5376 1.61428 51.5368C1.62422 51.3903 1.71057 51.0585 1.70705 51.5368C1.70102 52.3166 1.56509 52.6936 1.65737 53.103C1.64019 53.2861 1.6249 53.4785 1.60793 53.6702ZM1.61599 55.3649C1.58267 55.8433 1.48024 55.6263 1.50796 55.0274C1.50788 55.0274 1.5078 55.0274 1.50772 55.0274C1.51931 54.7774 1.60027 55.2681 1.51809 54.3717C1.58202 54.1887 1.64018 54.0084 1.70204 53.8275C1.70308 54.047 1.70476 54.2472 1.70558 54.4774C1.6005 54.3224 1.64905 54.8867 1.61599 55.3649ZM1.52249 31.2718C1.61702 31.3471 1.61642 31.032 1.68203 30.4956C1.67892 31.0019 1.67561 31.5083 1.6725 32.0124C1.62244 31.7648 1.57256 31.5195 1.52249 31.2718ZM1.53714 19.3774C1.53714 19.3767 1.53714 19.3758 1.53714 19.3751C1.52223 19.2092 1.50728 19.0428 1.49258 18.8791C1.52632 18.7799 1.55991 18.6819 1.59365 18.5828C1.56198 17.9967 1.53032 17.4076 1.49844 16.8214C1.6015 16.8926 1.58473 17.9447 1.65676 18.5243C1.62571 19.3861 1.56589 19.8013 1.47854 19.8574C1.49799 19.6979 1.51769 19.5389 1.53714 19.3774ZM1.12627 160.326C1.15482 160.522 1.1834 160.716 1.21195 160.912C1.22499 160.651 1.23493 160.393 1.25004 160.13C1.12586 159.443 1.23571 159.378 1.22807 158.478C1.20447 155.717 1.01161 156.45 1.2941 153.957C1.28067 155.958 1.41341 155.189 1.51565 156.396C1.43782 156.646 1.2623 155.45 1.22587 156.26C1.30824 157.656 1.38495 158.999 1.43814 160.548C1.45159 160.503 1.46509 160.458 1.47854 160.412C1.47006 160.167 1.46152 159.923 1.45303 159.677C1.48905 159.943 1.52475 160.202 1.56118 160.471C1.47943 160.131 1.52511 160.998 1.43118 160.882C1.38937 160.83 1.33137 160.447 1.29142 160.221C1.26969 160.804 1.24979 161.403 1.22868 161.993C1.19537 161.688 1.16202 161.382 1.12871 161.078C1.12767 160.829 1.12693 160.581 1.1259 160.331C1.12602 160.329 1.12614 160.328 1.12627 160.326ZM1.56094 285.983C1.46365 285.242 1.44756 283.895 1.55581 283.186C1.55746 284.119 1.55928 285.05 1.56094 285.983ZM1.40653 19.9136C1.42307 19.8297 1.43942 19.7484 1.45596 19.6645C1.48659 20.035 1.51701 20.4077 1.54763 20.7782C1.49984 20.8493 1.45204 20.922 1.40445 20.9952C1.40507 20.6355 1.40591 20.2733 1.40653 19.9136ZM1.45975 43.6198C1.45685 43.3487 1.45842 43.3247 1.46524 42.9871C1.4652 42.9875 1.46516 42.9879 1.46512 42.9883C1.46766 42.8545 1.49558 41.7348 1.53237 41.8596C1.533 42.4154 1.53237 43.0085 1.53237 43.5773C1.50817 43.5945 1.48416 43.5983 1.45975 43.6198ZM1.48123 37.0761C1.48131 37.0753 1.48139 37.0746 1.48147 37.0738C1.48706 36.8714 1.49844 36.6799 1.50052 36.471C1.55843 37.2227 1.45453 37.3416 1.48392 38.0245C1.51351 38.7075 1.57084 39.1295 1.4285 39.709C1.40718 39.4935 1.37668 39.2614 1.35184 39.0396C1.40876 38.07 1.3552 37.809 1.29911 37.0313C1.35995 37.0464 1.42039 37.061 1.48123 37.0761ZM1.41422 148.038C1.34385 147.853 1.4129 147.646 1.41373 147.625C1.41381 147.625 1.41389 147.625 1.41397 147.626C1.3488 145.985 1.45292 147.839 1.4639 146.29C1.48148 146.521 1.50005 146.748 1.51785 146.976C1.48391 147.329 1.44546 147.693 1.41422 148.038ZM1.42081 94.7111C1.4413 94.696 1.46184 94.6779 1.48233 94.6629C1.47757 95.5937 1.55824 95.831 1.48477 96.6045C1.46325 95.9733 1.44188 95.3423 1.42056 94.7111C1.42064 94.7111 1.42073 94.7111 1.42081 94.7111ZM1.31071 48.3114C1.27159 47.2793 1.25435 46.5159 1.31644 45.5247C1.31652 45.5239 1.31661 45.5232 1.31669 45.5224C1.32051 45.4652 1.36338 45.7417 1.37418 45.6671C1.36777 45.4626 1.35791 45.2514 1.35026 45.0448C1.38459 45.0167 1.41891 44.9901 1.45303 44.9621C1.44331 45.5438 1.43359 46.1258 1.42386 46.7097C1.44394 46.6234 1.46384 46.5352 1.48392 46.449C1.49426 46.9445 1.50457 47.4382 1.51492 47.9337C1.45864 47.7614 1.40235 47.5895 1.34586 47.4193C1.33407 47.7165 1.32271 48.0142 1.31071 48.3114ZM1.19658 110.207C1.21893 110.044 1.25642 110.347 1.27567 110.093C1.29468 109.838 1.25296 109.37 1.31608 109.48C1.32456 109.822 1.33428 110.181 1.34317 110.53C1.45698 109.408 1.354 108.288 1.49453 108.27C1.45811 109.348 1.47503 110.234 1.51394 111.276C1.40239 111.233 1.30594 110.19 1.20121 110.847C1.19977 110.636 1.19765 110.414 1.19682 110.21C1.19674 110.209 1.19666 110.208 1.19658 110.207ZM0.00767072 4.83517C0.0161571 4.19733 -0.0293699 2.73605 0.0356235 1.93018C0.0516403 1.73184 0.259117 1.07138 0.286466 1.07474C0.378572 1.09415 0.391109 1.90079 0.45113 1.03683C0.451753 1.32751 0.455212 1.6095 0.456867 1.89801C0.518756 1.84631 0.580479 1.79489 0.642161 1.7453C0.632846 1.39407 0.623485 1.04245 0.613964 0.691223C0.634456 0.673981 0.654993 0.65683 0.675484 0.639557C0.675898 1.90219 0.754988 1.15686 0.828675 1.81189C0.865924 1.20871 0.902993 0.601044 0.940242 -1.26375e-08C0.935689 0.346863 0.932317 0.756134 0.926937 1.0621C1.03187 1.10306 1.00685 0.373108 1.0263 0.248016C1.1362 -0.456543 1.08073 3.13046 1.23344 3.42401C1.25041 2.85095 1.26697 2.24973 1.28373 1.66379C1.30257 1.83179 1.32141 2.00214 1.34025 2.17014C1.23492 3.49945 1.19761 4.99014 1.132 6.53912C1.13635 6.67911 1.14081 6.81931 1.14494 6.95706C1.19232 6.9162 1.23952 6.87738 1.2869 6.83652C1.29249 7.04767 1.29804 7.26147 1.30363 7.47263C1.14758 6.85001 1.1497 7.71228 1.05449 8.7529C0.999653 8.19922 1.0329 7.5162 0.930721 7.56332C1.00934 9.46359 0.898234 11.689 0.986992 13.5375C1.00893 13.9964 1.14074 13.995 1.12859 15.0739C1.1141 15.0372 1.08794 15.031 1.0689 15.0073C1.13203 16.8733 1.16977 18.0053 1.10539 19.9446C1.15277 19.8326 1.20035 19.7224 1.24772 19.6105C1.22413 19.1989 1.20015 18.7867 1.17656 18.3773C1.25479 18.0972 1.28932 18.5111 1.28849 17.2831C1.28787 16.2768 1.25333 16.8758 1.23014 16.6021C1.1985 16.2316 1.26076 15.9064 1.22538 15.5079C1.19827 15.1998 1.13372 15.5331 1.15007 14.7294C1.23369 15.0526 1.32004 15.3823 1.4047 15.7077C1.38586 15.9037 1.36673 16.0983 1.34769 16.2944C1.32534 16.0962 1.30328 15.9013 1.28092 15.7031C1.32107 16.4011 1.35895 17.0608 1.40055 17.7825C1.27967 17.5476 1.32499 18.2938 1.33927 18.6988C1.3616 19.3298 1.27841 18.7892 1.29227 19.2029C1.30636 19.6165 1.3993 20.0628 1.37943 20.8104C1.32562 20.4097 1.27737 20.9548 1.2277 20.8494C1.17804 20.7439 1.16704 19.953 1.11284 20.7128C1.15403 22.1736 1.34317 20.5884 1.37381 21.5751C1.41065 22.7601 1.10234 23.0421 1.03606 22.6889C0.983902 22.4109 0.994392 21.4545 0.942439 21.1743C0.84868 22.8874 1.03377 22.9022 1.07 23.1952C1.20183 24.2596 0.84995 23.5446 0.977227 24.8051C0.911423 24.7813 0.852238 24.7622 0.789126 24.7384C0.801129 24.9559 0.817082 25.1003 0.8266 25.3631C0.954814 24.5882 0.949318 25.2224 0.949518 25.5479C0.949932 26.0608 1.01247 25.2686 1.02862 25.4044C1.07182 25.7707 1.0522 26.35 1.10869 25.9946C1.0824 26.154 1.05604 26.3268 1.02996 26.4906C1.06271 27.0898 1.33737 28.4978 1.2819 27.1577C1.38394 27.2827 1.3349 27.7162 1.31937 28.0545C1.30386 28.3927 1.36885 28.3864 1.35685 28.6837C1.30882 29.8665 1.19766 29.0928 1.11052 28.9053C1.17054 30.4674 1.21025 28.9381 1.25041 31.1891C1.3214 31.4068 1.39716 30.3666 1.43814 31.2328C1.3148 31.3923 1.2262 32.0301 1.18522 33.2732C1.21358 33.3938 1.24219 33.5142 1.27055 33.6349C1.15671 34.3136 1.03833 33.9666 1.17949 35.2229C0.919728 34.5485 1.08591 35.0121 0.980156 36.1368C0.958837 36.3652 0.904944 35.8375 0.877622 36.1564C0.865301 36.3009 0.905982 36.6519 0.874571 37.0049C0.859049 37.1773 0.758889 37.9831 0.806459 38.5412C0.932306 38.1318 1.03936 39.1922 1.14348 38.2829C1.11781 39.9636 1.17823 41.1398 1.00664 39.2566C0.968559 39.6832 0.930637 40.1102 0.892758 40.5368C0.922771 40.8342 0.952548 41.1341 0.982353 41.4336C0.878922 41.4788 0.849907 41.4334 0.868101 42.6048C0.843689 42.0965 0.818871 41.5904 0.794252 41.0799C0.773366 41.0627 0.751658 40.9917 0.731389 41.0088C0.771115 41.6339 0.788212 43.3942 0.815736 43.8207C0.843265 44.2474 0.850799 43.4235 0.8775 43.5463C1.09768 44.5695 0.935289 44.4885 0.973077 45.2227C0.995431 45.6537 1.0197 44.6247 1.02923 44.8553C1.06412 45.7101 0.947104 46.1067 0.945612 46.8647C1.01203 46.5954 1.07949 46.3283 1.14653 46.0655C1.14301 46.8606 1.14242 47.7469 1.16374 48.486C1.17206 48.7761 1.22146 48.5569 1.22477 48.6042C1.24175 48.8393 1.26863 49.7959 1.26884 49.8971C1.26923 50.6595 1.20081 50.6812 1.19706 51.422C1.19127 51.1312 1.18605 50.8578 1.18046 50.5735C1.06953 50.4442 0.958609 50.3123 0.847472 50.1831C0.839401 50.9091 0.831496 51.6353 0.823426 52.3635C0.86047 51.8314 0.897338 51.2973 0.934382 50.7652C1.024 51.5969 1.11383 52.4286 1.20366 53.2603C1.1486 53.6933 1.09356 54.1247 1.0385 54.5578C1.05303 55.7339 1.27651 55.497 1.08074 56.0551C1.09729 56.4018 1.11383 56.7486 1.13017 57.0953C1.10224 57.0458 1.07425 56.9968 1.04631 56.9472C1.06349 57.3652 1.08056 57.783 1.09795 58.2011C1.19687 57.7616 1.30098 57.3307 1.39701 56.8956C1.4185 57.7181 1.33458 57.7339 1.31364 57.8566C1.25816 58.182 1.33299 58.8278 1.28165 59.0863C1.26403 59.1738 1.20878 58.3676 1.14506 58.6454C1.13271 58.6997 0.898487 59.779 0.952569 60.4677C0.995001 60.4547 1.04703 60.4015 1.09319 60.3735C1.11896 61.2997 0.897471 61.772 0.835388 61.6492C0.878851 62.1426 0.882483 62.8638 0.950372 62.965C0.952028 63.2171 0.953599 63.4673 0.955255 63.7194C0.789912 63.4568 0.820146 64.5082 0.962335 64.5771C0.965853 64.1441 0.969557 63.7104 0.973076 63.2774C1.14735 63.6048 1.25255 62.2888 1.09111 65.0273C1.00045 65.5508 1.10346 64.0966 1.03557 64.5232C0.996058 65.2643 1.02912 65.9601 0.965997 66.6646C0.88714 67.5413 0.811296 66.4626 0.911678 68.5052C1.16316 63.9998 1.08156 69.1232 1.15959 71.2391C0.911208 71.8209 0.832535 73.6079 0.906429 76.0686C0.975557 75.8121 0.939942 75.038 0.962701 74.5919C0.985466 74.146 1.02648 74.6285 1.05877 74.073C1.09104 73.5172 1.13493 72.3368 1.18376 71.7742C1.22288 72.2507 1.31538 74.6027 1.20427 73.0476C1.13577 74.2085 1.06538 74.7537 1.05254 76.1926C1.16037 76.6235 1.22752 76.5916 1.23063 77.9941C1.08079 77.1646 0.976643 78.7584 0.821839 78.4075C0.857895 77.4129 1.00835 77.9688 1.08037 77.3936C1.08757 77.3346 1.04985 76.4079 1.05254 76.1926C0.917379 77.1277 0.867071 77.4511 0.706244 76.8758C0.720319 77.5373 0.700127 77.9487 0.776919 78.0091C0.743605 78.1469 0.710262 78.2855 0.676948 78.4213C0.677778 78.6365 0.680862 78.8303 0.680244 79.0585C0.79608 78.7442 0.724771 79.3534 0.777285 79.7865C0.829859 80.2196 0.9213 79.6385 0.922542 80.8279C0.949656 80.4315 0.972921 80.069 0.998588 79.6855C1.02839 80.4524 1.05838 81.2218 1.08818 81.9888C1.15896 81.4501 1.26409 80.2828 1.35721 80.3147C1.32205 80.668 1.38384 81.8781 1.38639 82.0106C1.39591 82.5234 1.33718 82.244 1.33573 82.2827C1.30719 83.0884 1.32719 83.752 1.2382 84.0579C1.27835 84.6633 1.25546 85.1199 1.25773 85.7618C1.25897 86.1152 1.32433 86.0465 1.31193 86.2533C1.22914 87.6279 1.14468 86.3183 1.30546 88.97C1.35099 88.649 1.39757 88.3323 1.44351 88.0112C1.46069 88.3107 1.47797 88.6085 1.49514 88.908C1.48687 89.1084 1.47852 89.307 1.47024 89.5073C1.37152 89.5031 1.27259 89.4979 1.17387 89.4936C1.16849 89.7134 1.16326 89.934 1.15788 90.1538C1.14815 89.7768 1.13844 89.3987 1.12871 89.0217C1.11134 88.9872 1.09396 88.955 1.07659 88.9206C1.04968 89.4808 1.02253 90.0391 0.995414 90.5993C1.02976 90.6101 1.06434 90.6207 1.09868 90.6314C1.05087 91.8941 1.0218 91.9242 1.11638 93.1243C1.11534 94.0486 1.25893 94.8014 1.31937 95.3357C1.30013 95.5275 1.28064 95.7194 1.26139 95.9133C1.28996 96.0361 1.31839 96.1602 1.34696 96.283C1.30722 96.5265 1.26748 96.7732 1.22795 97.0167C1.31814 97.1524 1.3463 97.2227 1.37796 96.2727C1.49014 96.5981 1.44066 98.2706 1.40299 98.9515C1.3744 99.468 1.28083 98.8949 1.26945 98.9595C1.23078 99.1752 1.26414 100.027 1.25773 100.205C1.23103 100.962 1.23571 101.492 1.21501 102.175C1.21086 102.307 1.15156 102.679 1.1497 102.711C1.13956 102.956 1.11074 103.563 1.10991 103.632C1.06564 107.188 1.32292 103.388 1.29581 106.695C1.32974 106.596 1.36344 106.505 1.39737 106.408C1.39944 106.658 1.40141 106.91 1.40347 107.16C1.37512 107.477 1.32355 107.094 1.36515 107.723C1.32334 107.682 1.28151 107.641 1.23991 107.598C1.26247 107.871 1.28485 108.135 1.30741 108.415C1.16232 108.855 1.12937 110.459 0.959038 110.345C0.901083 110.307 0.841615 109.169 0.779726 109.77C0.767543 110.258 0.83676 109.928 0.840392 110.127C0.865644 111.566 0.768623 111.483 0.794496 112.071C0.836076 112.164 0.878472 112.261 0.920466 112.356C0.90826 112.578 0.896052 112.8 0.883847 113.024C0.91179 113.076 0.939762 113.13 0.967705 113.181C0.969568 112.972 0.971457 112.737 0.97332 112.545C1.08155 112.813 1.13016 115.268 1.03789 114.332C1.00043 113.951 1.01635 113.252 0.888485 113.693C0.906906 114.351 0.925726 115.096 0.944146 115.788C0.916617 115.809 0.889038 115.829 0.861509 115.851C0.879329 116.783 0.989396 115.935 1.04839 115.937C1.05004 116.15 1.05149 116.366 1.05315 116.579C1.02648 116.669 0.998557 116.755 0.972709 116.85C1.01516 116.859 1.11382 116.978 1.0772 117.614C1.05336 118.022 0.946262 117.379 0.961113 118.158C1.02734 118.1 1.10799 117.818 1.12932 118.686C1.0602 118.772 0.996885 118.891 0.92425 118.958C0.990649 120.037 0.883916 120.529 0.961113 121.795C1.00996 122.599 1.18337 123.7 0.916194 124.219C0.90916 124.807 0.975695 124.621 0.990653 124.795C1.06144 125.615 0.934753 126.226 0.927301 126.379C0.879536 127.355 0.92339 127.792 0.863584 128.587C0.913053 128.544 0.95988 128.521 1.00811 128.486C0.934007 127.758 0.937485 127.389 0.953423 126.368C0.963356 126.71 0.973518 127.053 0.983451 127.395C1.02359 127.339 1.06375 127.284 1.10368 127.23C0.945548 124.071 1.1954 124.808 1.25004 127.456C1.17575 127.684 1.10165 127.921 1.02715 128.147C1.13974 129.677 1.042 130.397 1.01861 132.127C1.01593 132.333 1.05873 133.082 1.06084 133.404C1.06112 133.399 1.06141 133.393 1.06169 133.388C1.13185 133.588 1.16414 133.317 1.22685 133.284C1.23471 133.459 1.24254 133.634 1.25041 133.808C1.20261 134.198 1.16334 134.061 1.17473 134.828C1.22233 134.724 1.26994 134.622 1.31754 134.519C1.3192 135.359 1.26748 135.909 1.28983 136.691C1.27182 136.56 1.25377 136.43 1.23576 136.299C1.18981 138.001 0.909942 136.646 1.04924 137.932C1.02483 138.014 1.00018 138.094 0.975761 138.176C0.969759 137.646 0.963941 137.116 0.957939 136.588C0.923387 136.577 0.888982 136.566 0.854429 136.557C0.864778 137.124 0.87545 137.693 0.885799 138.26C0.862617 137.846 0.839405 137.43 0.816223 137.016C0.799666 137.673 0.783099 138.331 0.766543 138.988C0.893601 138.29 0.909139 139.195 1.03496 139.024C0.930228 140.188 0.792168 141.102 0.880551 142.905C0.898157 143.263 0.986084 143.069 0.879086 144.083C1.01899 143.838 1.08464 145.109 1.21769 144.946C1.21128 144.593 1.20724 144.226 1.19938 143.884C1.15323 144.274 1.02626 144.338 0.988577 143.746C0.940559 142.99 1.02856 141.887 0.88763 141.932C0.894251 141.63 0.898157 141.35 0.903743 141.057C0.938702 141.177 0.973881 141.295 1.00884 141.414C0.954032 140.58 0.971855 140.057 1.05999 139.656C1.08027 140.649 1.10033 141.64 1.12041 142.633C1.1264 142.487 1.13244 142.339 1.13823 142.192C1.22827 142.944 1.31355 142.169 1.3328 143.571C1.29162 143.563 1.25041 143.556 1.20903 143.547C1.31914 144.058 1.31854 145.456 1.44522 145.01C1.40631 145.432 1.3817 145.518 1.44998 145.758C1.35373 146.872 1.23202 147.587 1.08672 147.191C1.1101 147.604 1.13352 148.018 1.1569 148.43C1.19664 148.19 1.23618 147.951 1.27592 147.712C1.27343 148.432 1.27099 149.156 1.26871 149.874C1.15116 149.943 1.23305 148.489 1.12797 148.908C1.10688 148.992 1.15206 149.38 1.14018 149.481C1.01166 150.554 1.10451 148.87 1.00603 149.186C0.975606 150.785 0.810593 149.506 0.949273 151.708C0.915335 151.766 0.880714 151.828 0.846983 151.882C0.844945 152.647 0.921604 152.585 0.93609 153.242C0.945101 153.653 0.810491 154.17 0.902156 154.624C0.919056 154.705 1.08358 153.941 1.07634 155.547C1.07073 156.794 0.954461 156.275 0.913264 156.949C0.872074 157.624 1.03329 159.167 0.850523 159.621C0.87473 159.268 0.88779 158.818 0.907649 158.426C0.872053 158.266 0.836842 158.111 0.801453 157.954C0.847401 158.85 0.793246 159.777 0.878109 160.38C0.74833 161.576 0.868764 162.913 1.01531 162.551C0.994181 162.158 0.93028 162.586 0.971 162.039C1.00515 161.983 1.03914 161.924 1.07329 161.868C1.06915 162.799 1.07011 163.446 0.965995 163.021C0.963512 163.165 0.961033 163.308 0.958549 163.453C1.03389 163.479 1.10951 163.502 1.18486 163.527C1.19334 163.7 1.20176 163.873 1.21025 164.045C1.1937 164.237 1.17696 164.429 1.1602 164.623C1.04098 164.362 1.03704 163.918 0.97039 165.388C1.01158 165.392 1.05261 165.398 1.0938 165.403C1.04143 166.633 0.941653 166.665 0.945366 168.21C0.802358 167.025 1.05586 166.377 0.768984 166.381C0.787819 166.083 0.806908 165.784 0.825744 165.486C0.784139 165.441 0.742476 165.396 0.700872 165.353C0.722817 166.95 0.996426 169.602 0.815002 170.671C0.837142 170.8 0.856387 170.93 0.880184 171.061C0.770689 172.108 1.01651 172.56 0.874935 173.623C0.860077 173.732 0.629122 173.503 0.637398 174.886C0.667415 174.851 0.717937 174.833 0.755801 174.805C0.737385 175.105 0.718114 175.403 0.699285 175.7C0.727009 175.754 0.754723 175.81 0.782655 175.864C0.793418 175.353 0.804361 174.844 0.815124 174.333C0.824641 174.758 0.834169 175.185 0.843687 175.609C0.889 175.055 0.889481 174.806 0.962089 175.139C0.966436 175.62 0.971047 176.101 0.975394 176.582C0.993998 176.631 1.01282 176.68 1.03142 176.73C1.08689 176.497 1.14113 176.262 1.19743 176.029C1.1521 177.281 1.14964 178.369 1.04058 179.33C1.02216 179.494 0.949892 178.915 1.01506 180.031C0.976793 180.048 0.945715 180.078 0.910334 180.097C1.01755 181.464 0.985549 181.912 0.908137 183.337C0.980374 182.414 0.933392 183.237 0.972098 183.472C0.998765 183.633 0.994825 183.005 1.02275 183.076C1.05049 183.147 1.16248 183.963 1.17595 183.265C0.946399 181.555 1.22084 181.089 1.11052 178.891C1.14012 179.229 1.16978 179.57 1.19938 179.908C1.21944 179.749 1.23764 179.606 1.25895 179.434C1.21404 180.66 1.24322 180.063 1.2786 180.567C1.314 181.071 1.34406 181.988 1.35379 182.602C1.35685 182.795 1.30537 182.591 1.30057 183.028C1.29726 183.325 1.37358 184.138 1.28361 184.325C1.22503 184.448 1.06375 183.143 1.06413 184.948C1.00671 185.287 1.02455 184.422 1.01763 184.403C0.949323 184.246 0.897966 185.356 0.950127 185.868C0.954626 185.91 1.00785 185.505 1.02874 185.945C1.07862 186.99 1.01758 187.594 0.934991 188.271C1.03186 188.344 1.14755 189.223 1.11174 190.318C1.13946 190.374 1.16743 190.427 1.19535 190.483C1.18068 190.313 1.16621 190.143 1.15153 189.973C1.16892 189.788 1.18158 189.592 1.20207 189.411C1.22589 190.511 1.35939 190.667 1.40823 191.195C1.57509 193.001 1.22214 191.907 1.1613 191.581C1.18593 191.346 1.21342 191.119 1.2393 190.886C1.20556 190.912 1.17156 190.938 1.13762 190.962C1.13865 193.666 0.918609 191.374 0.855893 192.746C1.02188 193.1 1.03788 194.108 0.932549 195.392C0.933377 195.534 0.93359 195.677 0.934624 195.819C0.958827 195.843 0.995822 195.842 1.01177 195.881C1.03992 197.428 0.78429 197.704 0.760073 197.85C0.652665 198.501 0.801277 199.007 0.802551 199.199C0.807725 200.007 0.741738 200.242 0.770082 201.011C0.800708 201.838 0.851341 201.273 0.896662 201.524C0.932654 201.726 0.939064 202.379 0.97637 202.649C0.945858 202.541 0.915937 202.422 0.88531 202.316C0.843714 203.173 0.80317 203.874 0.79303 204.847C1.01629 205.946 0.639682 206.881 0.945122 206.502C0.966027 205.58 1.00083 205.064 1.07866 204.571C1.08859 205.176 1.09827 205.782 1.1082 206.387C1.07468 206.564 1.04201 206.689 1.00786 206.898C1.07905 207.351 1.0485 208.399 1.06938 208.811C1.16729 210.74 1.28871 210.143 1.08464 211.903C1.06476 210.634 0.965642 210.637 0.9793 209.378C0.908513 209.65 0.923179 210.289 0.838316 209.875C0.859218 211.093 0.934984 210.699 1.00225 211.173C1.06023 211.582 1.06348 212.404 1.13884 212.358C1.09741 212.442 1.0573 212.507 1.01592 212.591C1.01633 213.379 1.01636 214.168 1.01677 214.956C0.97352 214.62 0.930188 214.284 0.887141 213.948C0.870805 214.202 0.85453 214.457 0.838193 214.711C0.972731 216.65 0.726158 219.994 1.06413 219.46C1.0749 220.395 1.03251 220.512 0.968558 221.02C0.994216 221.076 1.01556 221.131 1.04412 221.187C1.01726 221.79 1.11359 222.253 1.08855 222.785C1.0637 223.317 0.972707 223.449 1.12565 223.527C1.08178 223.871 1.04534 224.214 1.00457 224.557C1.03931 224.763 1.07366 224.97 1.1082 225.174C1.08999 225.498 1.07185 225.821 1.05364 226.145C1.12665 226.317 1.09518 227.588 1.14421 228.148C1.06551 228.68 0.817714 228.665 0.862118 229.917C0.923576 229.884 0.984855 229.852 1.04631 229.82C1.03348 230.107 1.02069 230.394 1.00786 230.682C0.987804 230.7 0.967744 230.715 0.947685 230.732C0.953893 230.585 0.960068 230.441 0.966483 230.294C0.932537 230.421 0.898749 230.546 0.864803 230.671C0.915092 231.108 0.965386 231.546 1.01567 231.986C1.05375 231.393 1.09185 230.801 1.12993 230.208C1.17505 230.952 1.13004 231.469 1.18034 232.115C1.09549 232.678 1.0466 232.47 0.95452 232.242C0.962383 232.451 0.969973 232.662 0.977835 232.871C0.885743 232.733 0.830871 233.086 0.838315 231.865C0.812049 231.949 0.787006 232.035 0.759706 232.117C0.763845 232.317 0.741643 232.447 0.751772 232.667C0.779508 233.266 0.941261 233.725 0.997975 233.684C1.02768 233.662 0.970869 233.071 1.01287 233.095C1.11528 233.153 1.0693 234.508 1.17216 232.554C1.23736 233.203 1.18819 233.347 1.16935 234.063C1.20348 234.007 1.23739 233.952 1.27152 233.899C1.2558 234.23 1.24013 234.562 1.2244 234.894C1.0491 234.433 0.983252 236.879 0.829893 234.677C0.822029 235.328 0.814124 235.976 0.805846 236.624C0.787842 236.491 0.77002 236.357 0.752016 236.224C0.761536 235.931 0.7709 235.639 0.780213 235.346C0.747312 235.691 0.714607 236.036 0.681707 236.381C0.722483 237.195 0.785195 237.515 0.862606 237.887C0.919096 236.94 0.841933 237.249 0.826597 236.511C0.875621 236.537 0.920714 236.502 0.97222 236.567C0.870675 236.949 0.944549 238.194 0.949516 238.482C0.964599 239.361 0.864826 238.672 0.862728 239.26C0.860658 239.848 0.920043 240.542 0.821104 241.022C0.876558 241.014 0.933934 240.975 0.984426 240.941C1.00264 241.856 0.937129 241.674 0.928643 241.768C0.78914 243.281 0.906915 244.102 0.921197 245.832C0.938374 245.612 0.95388 245.39 0.970023 245.168C1.08776 246.474 1.05171 245.594 1.09062 244.461C1.07882 245.523 1.1791 246.132 1.2089 246.882C1.23866 247.631 1.18716 248.917 1.14702 249.387C1.08244 248.312 1.12502 247.152 1.10722 245.958C1.05073 246.094 1.00292 246.226 0.940849 246.366C1.05942 247.092 0.980137 247.513 0.964407 247.752C0.918273 248.454 1.02004 248.432 0.910577 248.856C0.948233 248.839 0.979894 248.827 1.01506 248.809C0.999334 250.259 0.932763 251.824 1.07182 252.767C0.98138 252.853 0.894245 252.919 0.80194 253.018C0.870022 253.632 0.800303 254.157 0.816221 254.674C0.832159 255.189 0.905251 254.993 0.933403 255.599C0.938578 255.711 0.892829 255.944 0.926567 256.22C0.960484 256.499 1.21267 257.526 0.99236 257.648C0.991324 258.168 0.983269 258.659 0.979543 259.167C0.967125 258.672 0.955098 258.176 0.94268 257.683C0.889285 258.105 0.836049 258.525 0.782654 258.947C0.83026 259.001 0.878727 259.055 0.925713 259.107C0.983668 260.244 0.905832 261.07 0.924248 262.218C0.927353 262.41 1.02148 261.958 0.997487 262.808C0.973478 263.66 0.797803 264.291 0.865657 265.741C0.869176 265.814 1.00372 266.244 0.910577 266.763C0.889467 266.881 0.85823 266.384 0.830503 266.655C0.802767 266.927 0.77996 268.138 0.713931 268.233C0.737314 268.22 0.761542 268.144 0.785339 268.108C0.796513 268.314 0.807696 268.523 0.818663 268.732C0.777478 268.752 0.736233 268.772 0.695256 268.792C0.791085 269.981 0.94741 270.596 0.895685 272.358C0.955498 271.863 1.01555 271.367 1.07536 270.874C1.03335 270.738 0.991045 270.602 0.949027 270.468C0.96579 269.656 0.982433 268.842 0.999196 268.029C0.951382 267.896 0.903706 267.765 0.855892 267.631C0.8621 267.416 0.868116 267.202 0.874324 266.987C0.908888 267.041 0.94327 267.095 0.977834 267.151C0.96935 266.725 0.960685 266.297 0.952201 265.873C1.15623 266.737 0.934847 268.286 1.10551 268.174C1.07903 268.366 1.05237 268.558 1.02568 268.749C1.10844 268.833 1.08462 269.223 1.07158 269.91C1.11236 269.753 1.15258 269.579 1.19377 269.435C1.13623 270.103 1.14182 271.288 1.11967 271.979C1.10995 272.283 1.04995 271.98 1.04289 272.07C1.00605 272.533 1.11074 273.419 1.10246 273.604C1.05319 274.712 0.854714 275.431 0.985524 276.64C1.01781 275.392 1.00418 276.071 1.07683 275.627C1.09961 275.488 1.14712 273.877 1.12602 275.895C1.12338 276.131 0.986246 279.793 0.881159 278.59C0.914691 279.182 0.953463 279.646 0.989064 280.189C0.712118 281.516 0.972289 281.057 1.11552 280.671C1.11614 280.889 1.1176 281.096 1.1176 281.32C0.96712 280.844 0.957776 283.27 1.03374 284.093C1.05899 284.369 1.10716 283.598 1.12993 284.235C1.11937 284.539 1.10571 284.884 1.09392 285.205C1.18912 284.739 1.22581 285.653 1.32267 285.64C1.23636 286.224 1.05343 286.67 0.954276 286.349C0.994423 286.832 1.03452 287.317 1.07488 287.8C1.09785 287.575 1.12062 287.348 1.1436 287.124C1.08274 288.702 1.22122 290.73 1.01775 291.059C1.0192 291.268 1.02045 291.48 1.0219 291.689C1.05626 291.753 1.09068 291.816 1.12504 291.88C1.09524 292.826 1.06525 293.77 1.03545 294.715C1.01413 293.873 0.965219 293.673 1.00493 292.79C0.965415 293.13 0.925681 293.477 0.886164 293.81C0.992552 295.14 1.06247 295.321 1.03081 297.323C1.02936 297.413 0.940143 298.926 0.93145 298.977C0.891712 299.214 0.833982 298.855 0.813902 298.96C0.757602 299.253 0.616238 301.034 0.594918 301C0.33329 300.564 0.329822 294.573 0.316368 292.953C0.176868 276.146 0.363502 259.71 0.331627 243.009C0.331133 242.837 0.292511 242.912 0.290857 242.839C0.281157 242.384 0.34135 241.938 0.343833 241.77C0.348951 241.411 0.293338 241.608 0.293298 241.346C0.293919 238.635 0.326622 236.077 0.317101 233.365C0.31648 233.188 0.360975 233.368 0.35311 233.058C0.348803 232.898 0.280539 232.397 0.279505 232.035C0.275988 230.772 0.297873 229.712 0.296838 228.38C0.29622 227.652 0.302023 226.559 0.300988 225.745C0.300549 225.385 0.269319 225.011 0.268275 224.655C0.266826 224.151 0.330135 224.254 0.334068 224.177C0.351244 223.836 0.281758 223.789 0.283411 223.466C0.286723 222.865 0.333116 222.832 0.329185 222.07C0.326288 221.524 0.289658 220.277 0.278895 219.589C0.332706 217.982 0.311343 215.957 0.293543 214.457C0.282991 213.569 0.347946 213.487 0.347739 213.125C0.346481 211.85 0.26352 210.882 0.26083 209.684C0.257324 208.094 0.312181 206.685 0.316125 205.145C0.316745 204.895 0.25723 204.952 0.255703 204.707C0.250114 203.8 0.239282 202.64 0.247769 201.832C0.257095 200.932 0.343482 200.599 0.32589 199.718C0.320666 199.46 0.244921 199.384 0.235196 198.951C0.219904 198.26 0.286698 197.501 0.294153 197.019C0.304089 196.357 0.226922 196.933 0.237271 196.041C0.237718 196.004 0.292879 195.87 0.290247 195.679C0.282796 195.121 0.239357 195.176 0.243497 194.36C0.244068 194.281 0.296628 193.198 0.296839 193.091C0.297667 192.457 0.316068 191.182 0.304895 190.807C0.265154 189.467 0.182188 190.522 0.362265 189.382C0.318189 188.88 0.273514 188.382 0.23068 187.85C0.270628 188.205 0.328273 186.764 0.324547 186.663C0.294527 185.825 0.224461 186.324 0.236051 185.262C0.397913 186.665 0.256913 183.892 0.252774 183.273C0.232702 180.296 0.273095 177.589 0.27206 174.596C0.271636 173.594 0.23742 172.252 0.238248 171.192C0.238297 170.945 0.276603 171.131 0.277431 170.914C0.277998 170.697 0.234996 170.938 0.237272 170.69C0.25218 169.15 0.333319 167.943 0.231901 166.531C0.246564 166.463 0.258151 166.465 0.274257 166.351C0.183399 165.196 0.305585 162.972 0.32235 162.136C0.348415 160.828 0.287001 160.494 0.299402 159.544C0.315961 158.288 0.43594 156.402 0.237882 157.244C0.231675 156.383 0.229961 155.553 0.24838 154.683C0.250467 154.586 0.300809 154.653 0.301844 154.614C0.309071 154.368 0.263998 154.288 0.261929 154.122C0.256362 153.673 0.31033 154.407 0.295252 153.765C0.28718 153.427 0.247868 153.235 0.247037 152.296C0.24269 146.633 0.25677 140.485 0.263394 134.681C0.263808 134.282 0.215125 134.544 0.21823 134.045C0.229003 132.308 0.310932 129.199 0.299769 127.702C0.288593 126.204 0.217401 126.542 0.187592 125.605C0.181796 125.424 0.22237 125.573 0.222991 125.409C0.22672 124.308 0.290004 122.995 0.299525 122.103C0.305905 121.513 0.242076 121.56 0.237516 121.151C0.230893 120.541 0.29538 119.914 0.29745 119.588C0.306543 118.059 0.254602 117.007 0.281093 115.579C0.267046 115.635 0.254042 115.672 0.240202 115.719C0.242478 114.028 0.244761 112.339 0.247038 110.647C0.234204 110.727 0.221261 110.804 0.208221 110.884C0.215264 108.899 0.354351 109.126 0.0606454 109.3C0.0502985 109.156 0.0383051 109.003 0.0287866 108.865C0.180082 108.921 0.290802 107.721 0.329309 106.193C0.332207 106.081 0.184689 105.329 0.35897 105.411C0.316333 105.215 0.286941 105.098 0.249479 104.933C0.302244 104.609 0.354384 104.282 0.406942 103.959C0.399079 103.784 0.391491 103.607 0.383628 103.433C0.349475 103.407 0.314015 103.427 0.280483 103.371C0.275309 102.561 0.31753 100.899 0.313196 100.259C0.302226 98.6691 0.20989 97.0502 0.309657 95.8134C0.299485 95.2109 0.232454 95.8092 0.240934 94.9132C0.274872 94.8119 0.307399 94.7168 0.34237 94.6112C0.190738 93.8789 0.28298 93.7259 0.314661 92.7224C0.336186 92.0437 0.299126 91.5992 0.306361 90.9529C0.308224 90.7892 0.35273 90.8124 0.351281 90.7003C0.346691 90.3251 0.285434 89.2544 0.283779 88.9895C0.267638 86.5894 0.274509 84.5274 0.290859 82.2414C0.292515 81.9958 0.248593 82.3142 0.250456 82.06C0.25338 81.6509 0.320871 81.8916 0.324183 81.6547C0.333039 80.9937 0.261871 80.9886 0.258146 80.0667C0.245942 77.0308 0.299404 73.5404 0.304164 70.3688C0.304164 70.2697 0.262466 70.2756 0.262052 70.1678C0.260013 69.4656 0.316379 68.7548 0.31576 68.1171C0.314932 67.0591 0.256352 66.2641 0.256559 65.219C0.256766 63.1764 0.286761 61.3513 0.288418 59.2505C0.289867 57.5311 0.284305 56.0378 0.284512 54.1525C0.28534 45.9171 0.152983 37.5136 0.223358 29.2223C0.225219 29.0112 0.262061 29.0972 0.260466 29.0328C0.244528 28.4208 0.194819 28.3663 0.298916 28.1487C0.2784 27.3691 0.200194 27.1232 0.205781 26.1818C0.20871 25.68 0.329924 26.0546 0.267423 25.2058C0.210922 24.4393 0.144491 25.2852 0.212372 23.0058C0.214238 22.9455 0.288123 22.6484 0.268888 22.1745C0.249845 21.6983 0.19694 22.2495 0.181002 21.1032C0.143749 18.412 0.207615 15.0057 0.18796 11.8772C0.186718 11.6812 0.147217 9.79272 0.129003 9.42001C0.0936098 8.69861 0.0387042 8.84937 0.025248 7.91238C0.0148987 7.18838 0.0770938 6.59113 0.0646747 5.73996C0.0631653 5.64081 -0.000809722 5.47473 0.00767072 4.83517ZM1.25028 163.451C1.31305 163.627 1.54409 163.946 1.47378 165.014C1.46716 165.116 1.30828 164.569 1.283 165.159C1.26623 164.582 1.2608 164.019 1.25004 163.451C1.25012 163.451 1.2502 163.451 1.25028 163.451ZM1.48086 0.204376C1.46927 1.00375 1.45779 1.80591 1.4462 2.60532C1.41826 2.05371 1.39037 1.50131 1.36222 0.951874C1.40174 0.702026 1.44134 0.454254 1.48086 0.204376ZM1.37113 99.7162C1.37113 99.7154 1.37113 99.7147 1.37113 99.7139C1.40093 100.554 1.43079 101.395 1.4606 102.235C1.43866 102.147 1.41663 102.058 1.39469 101.97C1.36013 101.307 1.32561 100.643 1.29105 99.9814C1.31775 99.8931 1.34443 99.8045 1.37113 99.7162ZM1.13884 93.0772C1.16492 92.5406 1.2089 92.6719 1.25175 92.3767C1.25167 92.3767 1.25159 92.3767 1.2515 92.3767C1.26266 92.2989 1.27242 91.936 1.27409 91.7957C1.24656 91.8475 1.21938 91.9142 1.19206 91.9703C1.12541 90.7184 1.36225 88.2702 1.45767 91.4398C1.42291 91.3924 1.38832 91.3471 1.35355 91.2997C1.36328 92.8748 1.28787 94.6307 1.13884 93.0772ZM1.35038 176.115C1.46422 177.46 1.48822 177.891 1.41019 179.522C1.37792 179.292 1.34566 179.061 1.31339 178.831C1.3463 178.562 1.37899 178.294 1.4119 178.025C1.4119 178.024 1.4119 178.023 1.4119 178.023C1.37733 177.969 1.34271 177.915 1.30814 177.863C1.32221 177.281 1.3363 176.697 1.35038 176.115ZM1.22111 41.6093C1.44848 41.2345 1.31632 41.3426 1.36759 42.413C1.38539 42.7836 1.42517 42.4224 1.43179 42.653C1.46797 43.898 1.31564 43.9976 1.23637 43.7197C1.23099 43.0151 1.22608 42.3032 1.22111 41.6116C1.22111 41.6108 1.22111 41.61 1.22111 41.6093ZM1.17387 9.30634C1.17387 9.30554 1.17387 9.30484 1.17387 9.30405C1.22933 9.27179 1.24425 9.77362 1.29679 9.20758C1.29658 9.63828 1.29614 10.0688 1.29594 10.5016C1.29077 10.3747 1.28585 10.245 1.28068 10.1181C1.26164 10.2301 1.24235 10.3426 1.22331 10.4546C1.28705 10.6075 1.25 10.7497 1.22868 11.2021C1.29678 11.0771 1.36492 10.9526 1.43301 10.8277C1.41274 11.3534 1.39238 11.8809 1.3721 12.4065C1.35494 12.413 1.33775 12.4196 1.32059 12.4261C1.34253 12.6242 1.3647 12.8204 1.38663 13.0186C1.36614 13.0724 1.34584 13.1243 1.32535 13.1781C1.34087 13.4173 1.35638 13.6566 1.3721 13.8958C1.32248 13.9685 1.30103 13.4417 1.31364 14.3757C1.26272 14.0892 1.21197 13.8032 1.16106 13.5146C1.1652 12.1118 1.16953 10.709 1.17387 9.30634ZM1.29105 51.3473C1.28153 49.8025 1.3175 50.2376 1.43008 50.5952C1.38373 50.8451 1.3374 51.0975 1.29105 51.3473ZM1.19084 130.94C1.26763 131.388 1.34365 131.838 1.41776 132.297C1.4606 133.211 1.32064 134.125 1.26579 133.437C1.19997 132.61 1.27363 131.746 1.19084 130.94ZM1.22502 151.748C1.26062 150.63 1.35187 151.682 1.40506 151.934C1.31958 152.243 1.32712 152.674 1.31717 153.367C1.31163 152.717 1.21897 151.933 1.22477 151.748C1.22485 151.748 1.22493 151.748 1.22502 151.748ZM1.27714 112.952C1.27484 112.504 1.25339 112.058 1.27946 111.658C1.35289 111.779 1.28608 112.58 1.39493 112.007C1.39679 112.293 1.3986 112.58 1.40067 112.864C1.35557 112.684 1.32186 112.927 1.27738 112.951C1.2773 112.951 1.27722 112.951 1.27714 112.952ZM1.3776 66.3156C1.29066 67.1947 1.32786 67.3613 1.38809 68.2469C1.31731 68.3717 1.19875 67.3158 1.17265 66.6543C1.24095 66.5422 1.3093 66.4298 1.3776 66.3156ZM1.34134 274.255C1.25112 274.044 1.23936 272.487 1.26603 271.713C1.27941 271.805 1.29297 271.898 1.30655 271.99C1.31814 272.744 1.32975 273.501 1.34134 274.255ZM1.31107 153.696C1.31371 153.58 1.31569 153.471 1.31717 153.367C1.31816 153.482 1.31662 153.594 1.31107 153.696ZM0.919488 200.503C0.834427 200.134 0.805849 201.229 0.83917 199.9C0.839089 199.9 0.839007 199.9 0.838926 199.9C0.860866 199.021 0.866725 198.827 0.873348 198.012C0.98262 198.305 1.02168 199.958 1.04424 197.68C1.04434 197.65 0.979318 197.71 0.988211 197.346C0.990976 197.234 1.04434 196.874 1.05986 196.328C1.06483 196.151 1.08129 194.823 1.08232 196.633C1.15849 196.579 1.23559 196.676 1.30948 196.672C1.33096 197.379 1.18181 197.921 1.18547 198.669C1.19126 199.778 1.34209 200.343 1.14421 200.556C1.09559 199.623 1.09442 198.021 1.21342 197.812C1.21487 196.91 1.11737 196.65 1.06914 197.378C1.13041 200.496 0.924424 198.234 1.00225 200.964C1.02977 200.996 1.05938 201.109 1.08525 201.092C0.988406 201.925 0.949912 200.634 0.919488 200.503ZM1.12993 193.983C1.18809 194.522 1.24672 195.059 1.30509 195.595C1.21029 195.595 1.12523 195.299 1.07182 194.45C1.09127 194.295 1.11069 194.138 1.12993 193.983ZM1.15483 239.296C1.20637 239.374 1.25359 239.581 1.30265 239.732C1.25918 239.895 1.21748 243.774 1.17485 241.801C1.16864 241.514 1.25977 239.766 1.15483 239.296ZM1.29996 60.2116C1.2654 60.6684 1.23078 61.1233 1.19621 61.578C1.17428 60.8781 1.15178 60.1777 1.12944 59.4779C1.18627 59.7231 1.24314 59.9664 1.29996 60.2116ZM1.10039 138.376C1.10232 138.183 1.1732 138.824 1.16203 138.063C1.20736 138.63 1.24573 139.161 1.28837 139.714C1.25484 139.88 1.22144 140.048 1.18791 140.214C1.20943 140.343 1.23083 140.475 1.25236 140.604C1.20351 140.527 1.1558 140.458 1.10613 140.376C1.21086 139.443 1.09211 139.229 1.10039 138.376ZM0.909358 110.633C1.01552 110.466 1.07865 111.817 1.09563 110.488C1.16538 110.74 1.20196 111.145 1.20817 111.923C1.1815 112.048 1.15502 112.172 1.12834 112.297C1.19972 112.314 1.22625 112.515 1.27714 112.952C1.27706 112.952 1.27697 112.953 1.27689 112.953C1.28206 114.135 1.25826 114.065 1.14091 114.349C1.20715 113.097 1.09993 113.06 1.03618 112.207C0.992345 111.621 1.0122 110.855 0.909358 110.633ZM1.15361 235.164C1.24322 236.049 1.32681 235.255 1.23161 236.825C1.20884 236.724 1.18626 236.622 1.16349 236.521C1.15998 236.069 1.15671 235.616 1.15361 235.164ZM1.27323 106.264C1.1089 106.366 0.980974 107.199 1.24833 107.342C1.30277 106.529 1.15133 106.926 1.27323 106.264ZM0.967704 151.367C0.975373 149.805 1.16085 150.1 1.25358 150.742C1.21984 150.841 1.18604 150.94 1.15251 151.037C1.16783 151.311 1.18317 151.584 1.19828 151.858C1.12149 151.694 1.0445 151.53 0.967704 151.367ZM1.0927 78.7267C1.21006 79.9204 1.15797 77.4381 1.23124 78.272C1.28981 78.9378 1.17156 79.8152 1.09746 79.4834C1.09539 79.2528 1.09394 78.9962 1.0927 78.729C1.0927 78.7282 1.0927 78.7275 1.0927 78.7267ZM1.12627 85.6344C1.25166 85.4384 1.21511 85.7209 1.19255 84.7778C1.18613 84.5085 1.23322 82.3683 1.12932 83.2668C1.12932 84.0315 1.12751 84.8395 1.12627 85.6344ZM1.15117 169.422C1.09656 169.437 0.976657 167.789 1.00664 167.577C1.00656 167.577 1.00648 167.577 1.0064 167.577C1.08816 167.006 1.09977 168.745 1.21195 167.991C1.11324 169.66 1.35201 170.16 1.0374 170.044C1.0236 169.06 1.08845 169.526 1.15117 169.422ZM1.08427 294.703C1.08427 294.703 1.08427 294.704 1.08427 294.705C1.08684 294.594 1.16698 293.682 1.19474 293.793C1.17094 294.89 1.11819 294.694 1.20487 295.715C1.17695 295.771 1.14987 295.819 1.12175 295.88C1.10519 295.474 1.07165 295.25 1.08427 294.703ZM1.04473 243.49C1.03044 243.087 1.08962 242.351 1.08611 241.892C1.31337 243.353 1.10144 245.099 1.04473 243.49ZM1.18168 24.4146C1.18177 24.4157 1.18185 24.417 1.18193 24.4181C1.18181 24.4178 1.18169 24.4173 1.18156 24.4169C1.1816 24.4161 1.18164 24.4154 1.18168 24.4146ZM1.18107 212.266C1.16632 212.318 1.1535 212.347 1.14226 212.358C1.1412 212.358 1.14014 212.358 1.13908 212.358C1.1529 212.33 1.16687 212.3 1.18107 212.266ZM1.16765 172.848C1.09149 173.534 0.970419 171.247 0.999319 170.508C1.03408 170.559 1.06559 170.567 1.10551 170.688C1.0155 171.285 1.18048 172.733 1.16765 172.848ZM1.13969 120.707C1.13762 122.515 0.836934 120.162 1.07683 120.065C1.08148 120.069 1.13928 120.66 1.13969 120.707ZM1.13615 158.591C1.04512 158.131 1.02094 159.056 1.03667 157.576C1.06025 157.49 1.08389 157.404 1.10747 157.318C1.11699 157.742 1.12663 158.167 1.13615 158.591ZM0.744937 132.55C0.795646 134.825 0.885106 137.001 1.13615 135.519C1.12809 135.347 1.12029 135.172 1.11223 135C0.989749 134.974 1.05661 134.339 1.0606 133.408C1.01197 133.276 1.00073 132.76 0.959404 132.663C0.879529 132.476 0.823372 133.069 0.744937 132.55ZM0.944269 36.4905C0.965175 36.5272 0.98619 36.563 1.00689 36.5996C1.03048 36.9594 1.05397 37.3203 1.07756 37.6801C1.03744 37.622 0.997328 37.5636 0.957208 37.5055C0.952864 37.1674 0.948492 36.8309 0.944147 36.4928C0.944188 36.492 0.944229 36.4912 0.944269 36.4905ZM0.871517 191.766C1.10162 191.972 1.05924 191.25 0.942925 189.785C0.919122 190.444 0.89532 191.106 0.871517 191.766ZM0.838195 95.9879C0.903566 95.9406 0.968737 95.8939 1.03411 95.8444C0.96601 95.0665 0.891147 95.211 0.804627 95.5837C0.815793 95.7194 0.827029 95.8523 0.838195 95.9879ZM0.810364 84.7836C0.796726 85.1062 0.849508 84.9415 0.848448 84.9753C0.820712 85.792 0.796501 85.9069 0.836242 86.9089C0.850107 87.0317 0.864686 87.1524 0.878964 87.2752C1.01594 86.812 0.941287 86.4757 1.02178 85.4955C0.974794 85.6721 0.927744 85.8482 0.880551 86.0248C0.890484 85.4798 0.90028 84.937 0.910213 84.392C0.895724 84.3274 0.881369 84.2626 0.86688 84.198C0.848258 84.3918 0.82733 84.5919 0.810364 84.7836ZM1.00371 32.3293C1.0091 31.7993 1.01469 31.2668 1.02007 30.7368C0.986336 30.7174 0.952371 30.6987 0.918636 30.6794C0.946986 31.2286 0.975365 31.78 1.00371 32.3293ZM0.97637 202.649C0.988338 202.691 1.00038 202.732 1.01262 202.768C0.997699 202.764 0.98605 202.719 0.97637 202.649ZM0.899225 296.101C0.875632 296.702 0.891123 297.568 0.886164 298.228C0.970798 298.176 0.947403 296.5 0.998707 295.912C0.983521 295.817 0.909153 295.847 0.899225 296.101ZM0.97515 149.206C0.932931 149.055 0.890911 148.904 0.848692 148.756C0.853246 148.391 0.858053 148.026 0.862607 147.66C0.828041 147.649 0.793175 147.639 0.758608 147.628C0.803516 149.242 0.703841 148.87 0.60554 149.668C0.728672 149.513 0.851811 149.361 0.97515 149.206ZM0.784488 15.4643C0.807876 16.6299 0.851562 17.0434 0.955255 16.3863C0.93146 15.9748 0.907643 15.561 0.883848 15.1496C0.850739 15.2552 0.817597 15.3609 0.784488 15.4643ZM0.898249 223.878C0.936995 224.853 0.79783 224.87 0.875545 225.823C0.901205 225.313 0.927152 224.802 0.952812 224.294C0.934668 224.156 0.916394 224.015 0.898249 223.878ZM0.516066 176.036C0.467654 176.448 0.697783 177.217 0.527907 178.374C0.578607 178.65 0.627036 178.822 0.676703 179.059C0.62268 179.197 0.567967 179.354 0.514357 179.485C0.514357 179.486 0.514357 179.487 0.514357 179.488C0.532572 180.537 0.600326 179.857 0.657661 179.88C0.681429 179.892 0.641697 180.67 0.693426 180.427C0.782222 180.007 0.731161 178.437 0.839415 178.433C0.804035 178.984 0.833599 180.061 0.905818 179.743C0.985086 179.394 0.852242 178.379 0.918024 177.732C0.745006 178.658 0.798449 176.745 0.931329 176.528C0.829287 175.405 0.787661 176.437 0.79242 177.587C0.690586 176.885 0.745604 177.919 0.660957 178.089C0.60986 177.365 0.652453 174.879 0.516066 176.036ZM0.70368 123.073C0.710246 123.849 0.65204 125.061 0.73798 125.593C0.78805 125.902 0.826822 124.687 0.905452 125.525C0.897786 124.769 0.867071 124.596 0.798157 124.726C0.789883 124.553 0.781812 124.379 0.773745 124.207C0.787191 124.127 0.800458 124.045 0.813904 123.965C0.78555 123.875 0.757423 123.784 0.729069 123.696C0.734653 123.513 0.740245 123.327 0.746036 123.145C0.731779 123.123 0.719371 123.086 0.70368 123.073ZM0.902521 251.887C0.901693 251.671 0.90087 251.458 0.899835 251.242C0.883052 251.266 0.865574 251.294 0.848324 251.322C0.834694 251.341 0.821063 251.361 0.807433 251.38C0.856132 251.255 0.937073 250.229 0.885066 249.797C0.858976 249.579 0.766353 250.074 0.750185 249.153C0.754948 249.82 0.767589 250.439 0.775452 251.087C0.747923 251.029 0.720099 250.973 0.69257 250.915C0.69253 250.916 0.692489 250.916 0.692448 250.916C0.686241 251.132 0.679736 251.35 0.673528 251.565C0.749906 251.673 0.826143 251.779 0.902521 251.887ZM0.708929 96.6194C0.762952 97.3542 0.791006 97.6002 0.878354 97.2533C0.878395 97.2525 0.878435 97.2517 0.878476 97.251C0.839777 96.9774 0.801092 96.7036 0.762393 96.43C0.744592 96.4925 0.72673 96.5548 0.708929 96.6194ZM0.688054 208.978C1.01984 210.54 0.816451 207.022 0.703435 207.692C0.69826 207.722 0.724691 208.831 0.688054 208.978ZM0.865659 151.654C0.862968 151.225 0.860537 150.795 0.857847 150.364C0.81707 150.463 0.776436 150.565 0.73566 150.664C0.77892 150.994 0.822399 151.324 0.865659 151.654ZM0.63386 20.5394C0.542786 20.9908 0.50979 22.1491 0.608837 22.7153C0.620428 22.4179 0.632034 22.1205 0.643625 21.8231C0.655005 22.3852 0.667532 22.9412 0.678292 23.5075C0.805173 23.5377 0.731564 22.8848 0.766544 21.9023C0.772185 21.7502 0.929682 20.7776 0.810975 20.4418C0.786577 20.3742 0.769987 21.4089 0.699043 20.6898C0.69346 21.0042 0.694698 21.2756 0.691597 21.5728C0.661377 21.5944 0.631123 21.6156 0.600903 21.6394C0.611845 21.2719 0.622918 20.907 0.63386 20.5394ZM0.713567 127.59C0.706565 128.656 0.757263 128.788 0.846861 129.01C0.836719 128.514 0.826731 128.018 0.816589 127.523C0.782319 127.546 0.748042 127.567 0.713567 127.59ZM0.604809 30.065C0.590154 30.6485 0.663084 30.3986 0.676949 30.6334C0.7291 31.521 0.676977 32.1265 0.709662 33.0034C0.695587 32.9451 0.682431 32.8917 0.66877 32.8357C0.66877 32.8365 0.66877 32.8372 0.66877 32.838C0.607303 36.9899 0.772701 34.8091 0.745793 32.3247C0.772908 32.2665 0.800058 32.2108 0.826966 32.1525C0.779569 31.0407 0.733961 30.0155 0.604809 30.065ZM0.676703 195.099C0.65973 195.146 0.551871 194.744 0.602366 195.5C0.759845 196.099 0.681682 195.116 0.742251 194.87C0.757361 195.075 0.772061 195.285 0.787171 195.487C0.831673 194.263 0.794228 194.085 0.679144 194.531C0.67141 194.562 0.693622 195.051 0.676703 195.099ZM0.59907 203.142C0.8311 203.31 0.726762 201.766 0.654731 201.822C0.651859 202.035 0.691146 202.201 0.673773 202.427C0.656389 202.655 0.602191 202.714 0.59907 203.142ZM0.65583 158.891C0.654795 158.936 0.557276 159.391 0.633614 159.346C0.814312 158.783 0.698003 157.65 0.635079 157.848C0.638191 158.223 0.665306 158.473 0.655586 158.891C0.655667 158.891 0.655749 158.891 0.65583 158.891ZM0.579176 13.51C0.572702 13.5315 0.533505 14.6657 0.569899 14.8121C0.610874 14.9327 0.654789 14.9926 0.697212 15.083C0.657884 14.4581 0.687843 13.1935 0.579176 13.5123C0.579176 13.5115 0.579176 13.5108 0.579176 13.51Z" fill="black"/>
</svg>
