<?xml version="1.0" encoding="UTF-8"?>
<svg id="_レイヤー_2" data-name="レイヤー 2" xmlns="http://www.w3.org/2000/svg" viewBox="0 0 568.87 425.02">
  <defs>
    <style>
      .cls-1 {
        fill: none;
        stroke: #000;
        stroke-width: 2px;
      }
    </style>
  </defs>
  <g id="_レイヤー_4" data-name="レイヤー 4">
    <g>
      <circle class="cls-1" cx="284.79" cy="274.54" r="111.56"/>
      <path class="cls-1" d="M284.79,423.97c69.72,0,190.25.2,260.05-.19,18.98-.22,23.12-4.38,22.9-23.93.11-70.46.25-231.33-.06-302.47-.32-7.98-.58-15.57-7.25-19.68-5.8-4.01-23.93-4.29-34.43-4.37-16.48-.14-38.38-.03-57.19-.08-16.25-.06-29.85-.39-38.92-4.37-30.51-12.29-5.77-65.51-44.78-67.01-57.53-1.42-143.13-.75-197.89-.26-19.93.45-26.26,11.2-28.5,28.35-2.65,22.71-7.26,40.24-33.53,42.29-24.55,2.01-53.24.58-77.73,1.05-12.24.38-25.68-.6-36.98,3.37-9.36,3.74-9.03,13.84-9.39,23.07-.07,83.76-.12,244.02-.08,324.24"/>
      <path class="cls-1" d="M285.07,423.43c-77.12.87-144.03-62.2-148-138.85-8.52-111.23,111.58-192.27,211.35-143.56,51.37,24.42,84.92,75.95,84.94,134.11"/>
      <rect class="cls-1" x="46.31" y="35.02" width="60.21" height="24.69" rx="1.86" ry="1.86"/>
      <line class="cls-1" x1="31.36" y1="125.15" x2="31.36" y2="386.97"/>
    </g>
  </g>
</svg>