<svg width="15" height="17" viewBox="0 0 15 17" fill="none" xmlns="http://www.w3.org/2000/svg">
<path d="M12.078 6.83279C12.1491 6.92591 11.8513 6.71984 12.0252 6.898C11.9796 6.87695 11.9337 6.85587 11.8882 6.83482C11.8897 6.80688 11.8909 6.77884 11.8924 6.7509C11.9541 6.7781 12.016 6.80532 12.0781 6.83269C12.078 6.83272 12.078 6.83276 12.078 6.83279ZM12.3136 6.6081C12.2247 6.63895 12.046 6.55767 12.196 6.72008C12.2227 6.70732 12.2498 6.69478 12.2766 6.68203C12.3306 6.73507 12.385 6.78834 12.439 6.8413C12.4665 6.84642 12.494 6.85151 12.5214 6.85672C12.5293 6.91025 12.5368 6.96373 12.5446 7.01734C12.5219 6.99706 12.4989 6.97649 12.4762 6.95621C12.3569 6.92713 12.2614 6.88287 12.1197 6.80844C12.1268 6.82416 12.134 6.83981 12.1412 6.85553C12.0794 6.80015 12.0177 6.74475 11.9562 6.68955C12.0254 6.71014 12.1027 6.73324 12.1669 6.75225C12.11 6.64258 11.9324 6.58281 11.8427 6.54703C11.7205 6.49835 11.7618 6.48566 11.6715 6.44884C11.6571 6.44292 11.6432 6.46352 11.6166 6.44864C11.4824 6.37343 11.2303 6.21268 11.4105 6.24993C11.626 6.38297 11.8362 6.45069 12.0428 6.58958C12.0194 6.49879 12.1441 6.5445 12.3136 6.6081ZM8.17932 4.46716C8.26201 4.47738 8.39077 4.56686 8.47117 4.63932C8.47127 4.63938 8.47138 4.63944 8.47149 4.6395C8.48918 4.65545 8.51328 4.71922 8.44829 4.67967C8.34243 4.61507 8.3245 4.52623 8.24507 4.53365C8.22414 4.51166 8.20148 4.48975 8.17932 4.46716ZM7.94396 4.33592C7.88643 4.28346 7.94191 4.25636 8.01744 4.31598C8.01746 4.31594 8.01748 4.31591 8.01751 4.31587C8.04902 4.34076 7.96122 4.33681 8.10519 4.37248C8.11441 4.41472 8.12469 4.45423 8.13414 4.4954C8.10366 4.4784 8.07568 4.46322 8.04377 4.44527C8.09137 4.41209 8.00154 4.38825 7.94396 4.33592ZM11.2847 6.21073C11.2507 6.24568 11.2943 6.27046 11.3517 6.34151C11.2828 6.29992 11.2139 6.25823 11.1452 6.21681C11.1919 6.21482 11.2381 6.21272 11.2847 6.21073ZM12.9188 7.16262C12.9189 7.16268 12.919 7.16274 12.9191 7.16281C12.9457 7.16954 12.9723 7.17629 12.9986 7.18295C13.0038 7.20543 13.0089 7.22777 13.0141 7.25026C13.1027 7.28314 13.1917 7.31627 13.2804 7.34905C13.2448 7.38802 13.1042 7.29713 13.0064 7.28224C12.8955 7.20029 12.8532 7.14137 12.8674 7.0991C12.8845 7.12019 12.9014 7.14136 12.9188 7.16262ZM0.469382 8.80308C0.483659 8.83424 0.497948 8.86502 0.512226 8.89618C0.518742 8.85474 0.523716 8.81364 0.531268 8.77186C0.469181 8.66259 0.524101 8.65232 0.520282 8.50916C0.508484 8.07033 0.412053 8.18676 0.5533 7.79043C0.546582 8.10863 0.612952 7.98635 0.664074 8.17818C0.625161 8.21792 0.537399 8.02783 0.519184 8.15664C0.560367 8.3786 0.598724 8.59204 0.625319 8.83831C0.632044 8.83112 0.638794 8.82396 0.645521 8.81677C0.641277 8.77771 0.637008 8.73899 0.632764 8.69993C0.650773 8.74207 0.668624 8.78326 0.686839 8.82608C0.645964 8.77196 0.668804 8.90989 0.62184 8.89143C0.600935 8.88321 0.571932 8.82225 0.551958 8.78628C0.541093 8.8791 0.531142 8.9743 0.520587 9.06815C0.503932 9.01952 0.487257 8.97094 0.470603 8.92265C0.470085 8.88293 0.469716 8.84352 0.469199 8.80381C0.46926 8.80356 0.469321 8.80332 0.469382 8.80308ZM11.6983 10.1055C11.6206 10.2066 11.4392 10.3206 11.3145 10.3301C11.4425 10.2552 11.5703 10.1804 11.6983 10.1055ZM12.8776 7.06344C12.885 7.07727 12.8922 7.09082 12.8996 7.10465C12.8409 7.08846 12.782 7.072 12.7233 7.05581C12.7255 7.02946 12.7274 7.00298 12.7292 6.97656C12.7786 7.00542 12.8283 7.03458 12.8776 7.06344ZM9.60021 5.20195C9.63826 5.22225 9.64117 5.22483 9.68595 5.25462C9.68591 5.25457 9.68587 5.25453 9.68582 5.25448C9.70361 5.26622 9.8508 5.36732 9.82442 5.37333C9.74772 5.3294 9.66623 5.282 9.5879 5.23678C9.59158 5.22493 9.59707 5.21423 9.60021 5.20195ZM10.4958 5.73145C10.4959 5.73154 10.496 5.73164 10.4961 5.73174C10.5226 5.75024 10.5461 5.77041 10.5743 5.7879C10.4564 5.75322 10.466 5.69878 10.3646 5.65721C10.2632 5.61574 10.1907 5.60702 10.1465 5.49931C10.1815 5.50721 10.2211 5.51245 10.2578 5.51934C10.3771 5.62105 10.4264 5.61861 10.5475 5.65615C10.5303 5.68129 10.5131 5.7063 10.4958 5.73145ZM0.613356 6.84935C0.578172 6.8199 0.612696 6.78704 0.613112 6.78363C0.613153 6.78369 0.613194 6.78375 0.613234 6.78381C0.58065 6.52288 0.63271 6.81778 0.638197 6.5715C0.64699 6.60814 0.656275 6.64419 0.665173 6.68049C0.648204 6.73665 0.628978 6.79456 0.613356 6.84935ZM2.57518 1.12356C2.57213 1.13363 2.56948 1.14396 2.56644 1.15404C2.43946 1.07798 2.38661 1.09404 2.29848 1.00074C2.39077 1.0416 2.483 1.08251 2.57524 1.12346C2.57522 1.12349 2.5752 1.12353 2.57518 1.12356ZM8.99148 4.76445C9.14337 4.82956 9.2528 4.88279 9.37375 4.98847C9.37384 4.98856 9.37392 4.98866 9.37401 4.98875C9.38092 4.99495 9.33214 4.99154 9.33971 5.00215C9.36948 5.01563 9.40101 5.02815 9.43138 5.04126C9.42665 5.05835 9.42175 5.07534 9.41707 5.09234C9.33941 5.04188 9.2617 4.99141 9.18374 4.94078C9.19059 4.95633 9.19777 4.97196 9.20461 4.9875C9.1338 4.9526 9.06325 4.91782 8.99244 4.88291C9.03024 4.87224 9.06798 4.86153 9.10553 4.85059C9.06756 4.82186 9.0294 4.79327 8.99148 4.76445ZM0.624805 0.907533C0.646132 0.893359 0.640854 0.939085 0.666995 0.913955C0.692313 0.889118 0.713786 0.825698 0.730155 0.856661C0.70597 0.895835 0.684783 0.938727 0.667833 0.981535C0.781145 0.879637 0.849738 0.753865 0.899039 0.803664C0.790938 0.877765 0.733062 0.979919 0.708659 1.10053C0.654285 1.07941 0.670845 0.930291 0.585106 0.989785C0.596786 0.962009 0.610382 0.933356 0.624746 0.907878C0.624766 0.907763 0.624785 0.907647 0.624805 0.907533ZM14.8457 8.69901C14.8111 8.8445 14.6641 9.17643 14.5002 9.2906C14.4616 9.32401 14.2807 9.34663 14.2736 9.33269C14.2494 9.29418 14.3678 9.18123 14.2153 9.27403C14.2606 9.23669 14.3014 9.19622 14.3408 9.15274C14.3109 9.13936 14.2816 9.12535 14.253 9.11049C14.2105 9.1607 14.1628 9.20806 14.1121 9.25078C14.1035 9.24442 14.0948 9.23797 14.0863 9.23148C14.2682 9.08714 14.1372 9.14167 14.1944 9.03697C14.1089 9.09953 14.0156 9.14762 13.9212 9.18054C13.972 9.15414 14.0277 9.11717 14.0683 9.08691C14.0405 9.04362 13.956 9.12236 13.9332 9.12308C13.8713 9.1272 13.968 9.0693 14.0541 8.97524C14.1427 8.88312 14.2065 8.75127 14.1812 8.7155C14.1353 8.78194 14.0784 8.8438 14.0159 8.89406C14.0254 8.87131 14.0341 8.84801 14.0411 8.82523C14.1961 8.72646 14.307 8.52588 14.3402 8.29629C14.3382 8.27546 14.3355 8.25473 14.3322 8.23452C14.3089 8.24191 14.2856 8.24853 14.2622 8.25503C14.2583 8.2263 14.2529 8.19755 14.2462 8.16965C14.3309 8.24638 14.3312 8.1282 14.323 7.96043C14.3792 8.03279 14.3798 8.14451 14.4288 8.12931C14.3581 7.85054 14.1873 7.52702 13.9131 7.41066C13.8956 7.40289 13.878 7.39553 13.8604 7.38865C13.7918 7.36167 13.759 7.41886 13.6135 7.32783C13.6222 7.32447 13.6296 7.31364 13.6376 7.30727C13.3649 7.18627 13.1996 7.11262 12.9486 6.93058C12.9522 6.96 12.9555 6.98936 12.9591 7.01877C13.0216 7.04127 13.0844 7.06366 13.1467 7.08599C13.1657 7.14213 13.1 7.12418 13.2693 7.22145C13.408 7.30117 13.3342 7.23859 13.3777 7.25031C13.4366 7.26606 13.4658 7.31887 13.5295 7.33524C13.5787 7.34799 13.549 7.29354 13.6556 7.36451C13.5901 7.37503 13.5232 7.38621 13.4572 7.397C13.4349 7.37326 13.4129 7.34951 13.3907 7.32567C13.4235 7.33175 13.4559 7.33769 13.4888 7.34377C13.3826 7.30566 13.2823 7.26963 13.1726 7.23026C13.2351 7.19659 13.1211 7.15691 13.0617 7.13089C12.9692 7.09039 13.0645 7.09735 13.0041 7.07047C12.9436 7.04368 12.8589 7.04846 12.7609 6.98042C12.8296 6.98897 12.7666 6.92475 12.7935 6.91161C12.8204 6.8985 12.9321 6.95661 12.841 6.87274C12.6296 6.77444 12.8005 6.98236 12.657 6.9172C12.4847 6.83895 12.5229 6.68303 12.5881 6.6824C12.6394 6.68192 12.7685 6.76249 12.8201 6.76226C12.6076 6.58549 12.5593 6.66446 12.5099 6.65684C12.3304 6.62932 12.5168 6.53378 12.3114 6.4887C12.3312 6.46209 12.3486 6.43799 12.3676 6.41255C12.3347 6.40046 12.3108 6.39588 12.2723 6.37912C12.3469 6.49623 12.261 6.44343 12.2161 6.41765C12.1454 6.37706 12.2388 6.46711 12.2161 6.46331C12.1548 6.45289 12.08 6.39835 12.1148 6.45106C12.0994 6.427 12.0822 6.40185 12.0662 6.37754C11.9755 6.34409 11.713 6.35109 11.9113 6.4336C11.8686 6.46785 11.8212 6.41215 11.7785 6.37854C11.7358 6.34493 11.7204 6.37358 11.6825 6.34474C11.5316 6.22992 11.666 6.2433 11.7136 6.22046C11.4835 6.12228 11.6841 6.26104 11.3641 6.09948C11.3164 6.11293 11.4407 6.22841 11.3112 6.17731C11.32 6.11122 11.2544 6.02215 11.0935 5.90559C11.0698 5.90827 11.046 5.9111 11.0223 5.91378C10.9573 5.81053 11.0347 5.78685 10.8265 5.74811C10.9843 5.68925 10.8789 5.72434 10.7504 5.58914C10.7243 5.56175 10.8105 5.58037 10.7734 5.54319C10.7566 5.52637 10.6981 5.51608 10.6573 5.47442C10.6375 5.45399 10.5515 5.34656 10.4628 5.32279C10.4877 5.40983 10.3149 5.3719 10.4141 5.48926C10.1891 5.34454 10.0121 5.2772 10.3143 5.35261C10.265 5.3022 10.2157 5.25184 10.1665 5.20152C10.118 5.19088 10.0693 5.17993 10.0206 5.16903C10.0402 5.12065 10.0537 5.11169 9.88788 5.02645C9.96397 5.05628 10.0399 5.08577 10.1163 5.11569C10.1239 5.10801 10.1391 5.10426 10.1418 5.09413C10.0458 5.06163 9.79916 4.9291 9.73355 4.90711C9.66792 4.88511 9.77948 4.95387 9.75589 4.95567C9.55995 4.96967 9.61172 4.9058 9.50117 4.86379C9.43625 4.83921 9.57185 4.93152 9.53773 4.91731C9.4113 4.86447 9.38595 4.78227 9.28196 4.72137C9.30243 4.77154 9.32234 4.82198 9.34176 4.8719C9.23317 4.80717 9.11128 4.73646 9.00419 4.68694C8.96216 4.66748 8.98 4.7063 8.97265 4.70396C8.93604 4.69263 8.7976 4.62822 8.78361 4.62026C8.67855 4.55983 8.69265 4.52848 8.5916 4.46797C8.63308 4.48857 8.67204 4.50805 8.71258 4.52823C8.75812 4.49048 8.804 4.45293 8.84959 4.41508C8.75164 4.35387 8.65361 4.29271 8.55537 4.23133C8.61938 4.28967 8.68369 4.34809 8.7477 4.40643C8.61078 4.37913 8.47381 4.3519 8.33683 4.32468C8.29097 4.26642 8.24534 4.20829 8.19947 4.15003C8.0339 4.06282 8.01064 4.17842 7.98275 4.04929C7.93087 4.02889 7.87898 4.00848 7.82715 3.988C7.84096 3.97984 7.85471 3.97162 7.86851 3.96346C7.80666 3.93767 7.74486 3.91184 7.68296 3.88614C7.71875 3.96392 7.75204 4.04324 7.78796 4.11942C7.66932 4.06334 7.68813 4.02574 7.67647 4.00692C7.64554 3.95704 7.53791 3.9381 7.51514 3.89531C7.50751 3.88073 7.63232 3.92089 7.61 3.87122C7.60561 3.86156 7.51556 3.67433 7.40722 3.64301C7.39839 3.66241 7.39271 3.68917 7.38503 3.71138C7.25106 3.64891 7.2414 3.51546 7.27383 3.49834C7.19502 3.47793 7.09482 3.42218 7.0639 3.44352C7.02878 3.4242 6.99394 3.40499 6.95881 3.38567C7.03631 3.33495 6.88398 3.26446 6.83894 3.32055C6.89769 3.3565 6.95647 3.39258 7.01522 3.42853C6.92656 3.47796 7.08147 3.62813 6.74477 3.34053C6.69534 3.25965 6.86983 3.41987 6.82806 3.35655C6.73589 3.28052 6.63183 3.23953 6.5506 3.15619C6.44961 3.05235 6.61708 3.10526 6.31075 2.98635C6.86823 3.45341 6.1832 3.01079 5.87234 2.87637C5.85433 2.72257 5.62795 2.54644 5.27066 2.38283C5.28869 2.43314 5.40419 2.47926 5.45991 2.52458C5.51563 2.56989 5.43894 2.54929 5.50736 2.60743C5.57581 2.66559 5.72737 2.77843 5.79262 2.8443C5.71723 2.82336 5.37026 2.67644 5.61216 2.75195C5.46944 2.63 5.41197 2.55618 5.21706 2.43624C5.13077 2.44867 5.11837 2.48028 4.92448 2.37014C5.07616 2.37119 4.88275 2.1994 4.96976 2.16026C5.0977 2.25494 4.98354 2.2759 5.04473 2.35281C5.05106 2.36062 5.18808 2.41795 5.21706 2.43624C5.12209 2.30337 5.09014 2.25588 5.20957 2.23198C5.11497 2.18548 5.06336 2.14403 5.03586 2.17249C5.0252 2.1471 5.01445 2.12164 5.00409 2.09643C4.97424 2.07968 4.94679 2.0656 4.91552 2.0472C4.92984 2.12234 4.86378 2.04303 4.79103 2.03135C4.71825 2.01968 4.7754 2.10547 4.61132 2.01145C4.65913 2.05471 4.70322 2.0936 4.74961 2.13521C4.63656 2.08714 4.52312 2.03896 4.41007 1.9909C4.46654 2.06437 4.60099 2.20269 4.57332 2.24047C4.53347 2.19717 4.35139 2.12772 4.33251 2.11829C4.25952 2.08164 4.31269 2.07843 4.30771 2.07472C4.20391 1.99832 4.10754 1.95422 4.08767 1.89137C3.99427 1.86063 3.93713 1.81442 3.84817 1.76437C3.79921 1.73682 3.79232 1.77058 3.76695 1.74877C3.59838 1.60365 3.79982 1.67118 3.39451 1.53001C3.42733 1.57524 3.45929 1.62059 3.49201 1.666C3.44647 1.64963 3.40116 1.63344 3.35562 1.61707C3.3301 1.59756 3.30484 1.57816 3.27932 1.55864C3.30459 1.51624 3.33004 1.47381 3.35531 1.43141C3.3264 1.4116 3.29732 1.3918 3.2684 1.372C3.32275 1.39776 3.37723 1.4236 3.43158 1.44936C3.44067 1.44458 3.44944 1.43961 3.45852 1.43483C3.38811 1.37864 3.31803 1.32251 3.24768 1.26623C3.23761 1.28024 3.2275 1.29437 3.21743 1.30839C3.05553 1.18731 3.05866 1.17233 2.86978 1.11789C2.74276 1.04396 2.60322 1.04629 2.51453 1.02998C2.49294 1.00641 2.47138 0.98271 2.4495 0.958964C2.42545 0.961569 2.40125 0.96402 2.3772 0.966624C2.35361 0.930064 2.32957 0.893235 2.30593 0.856764C2.2647 0.885033 2.24798 0.89164 2.37087 0.980871C2.29802 1.00358 2.0801 0.849193 1.99577 0.778754C1.9318 0.725313 2.0341 0.730357 2.02805 0.720291C2.00802 0.686401 1.88246 0.633172 1.85944 0.61618C1.85385 0.612068 1.84834 0.608059 1.84289 0.604145C1.76386 0.546773 1.69609 0.521691 1.61033 0.490359C1.59304 0.483578 1.5456 0.444942 1.54064 0.443622C1.5064 0.432014 1.4165 0.413299 1.4059 0.413895C0.880779 0.471264 1.43716 0.468749 1.00742 0.607423C1.02727 0.6161 1.04558 0.625779 1.06406 0.635777C1.03562 0.650418 1.00775 0.666839 0.981303 0.684659C0.939846 0.69507 0.965477 0.645083 0.910702 0.710137C0.902341 0.690247 0.894339 0.670134 0.886997 0.649755C0.862607 0.681468 0.841757 0.713319 0.822031 0.747428C0.723514 0.728059 0.573342 0.91822 0.511129 0.867237C0.484123 0.847894 0.570452 0.669426 0.485899 0.737286C0.433537 0.806297 0.49462 0.775826 0.47789 0.80609C0.372702 1.02801 0.348349 1.00759 0.331437 1.1098C0.348057 1.1304 0.365528 1.15082 0.383411 1.16993C0.370856 1.20506 0.36013 1.24079 0.351219 1.27814C0.364493 1.28801 0.377921 1.29748 0.391455 1.30652C0.394 1.27305 0.398846 1.23516 0.404423 1.20479C0.422401 1.22473 0.429876 1.29319 0.439965 1.36043C0.455288 1.47016 0.453489 1.58171 0.425195 1.49039C0.406464 1.42976 0.414423 1.31872 0.350491 1.38889C0.359702 1.49337 0.369112 1.61191 0.378321 1.72188C0.364557 1.7253 0.350768 1.72849 0.337004 1.73192C0.345914 1.88011 0.400946 1.74533 0.430444 1.74561C0.43127 1.77951 0.431996 1.81376 0.432824 1.84766C0.419487 1.86203 0.405527 1.87569 0.392604 1.89074C0.413828 1.89212 0.46316 1.9111 0.444847 2.01214C0.432927 2.07711 0.37938 1.9748 0.386805 2.09867C0.419916 2.08941 0.460244 2.04467 0.470908 2.18265C0.43635 2.19635 0.404692 2.2153 0.368374 2.22591C0.401573 2.39751 0.348206 2.4756 0.386805 2.67701C0.411231 2.80479 0.497933 2.97982 0.364345 3.06239C0.360829 3.15586 0.394096 3.12619 0.401575 3.15385C0.43697 3.28438 0.373626 3.38146 0.3699 3.40578C0.346017 3.5609 0.367944 3.63045 0.338041 3.75684C0.362776 3.74999 0.386189 3.74625 0.410303 3.74077C0.373253 3.62498 0.374991 3.56634 0.38296 3.40395C0.387927 3.45841 0.393008 3.51289 0.397974 3.56734C0.418046 3.55844 0.438123 3.54962 0.458091 3.54106C0.379022 3.03883 0.503946 3.15599 0.531268 3.57702C0.494122 3.61333 0.457074 3.65095 0.419823 3.68692C0.476121 3.93014 0.427249 4.04459 0.415552 4.31966C0.414214 4.35236 0.435612 4.47147 0.436668 4.52266C0.436811 4.52181 0.436953 4.52096 0.437095 4.52011C0.472174 4.55196 0.488318 4.50882 0.519672 4.50368C0.523604 4.53142 0.52752 4.55918 0.531451 4.58692C0.507552 4.64888 0.48792 4.6271 0.493611 4.74903C0.517412 4.73259 0.541218 4.71637 0.565019 4.69993C0.565847 4.83353 0.539987 4.92097 0.551164 5.04532C0.542161 5.02443 0.533131 5.00379 0.524128 4.98289C0.501152 5.25352 0.36122 5.03815 0.430871 5.24267C0.418663 5.25568 0.406336 5.26836 0.394129 5.28137C0.391128 5.19711 0.38822 5.11281 0.385218 5.02889C0.367943 5.02718 0.350739 5.02533 0.333463 5.02397C0.338638 5.11406 0.343974 5.2046 0.349148 5.2947C0.337557 5.22892 0.325951 5.16276 0.31436 5.09699C0.306081 5.20146 0.297798 5.30596 0.28952 5.41044C0.353049 5.29949 0.360819 5.44333 0.42373 5.41628C0.371362 5.60127 0.302333 5.74658 0.346524 6.03332C0.355327 6.09017 0.399291 6.05929 0.345791 6.22063C0.415743 6.18158 0.448568 6.38369 0.515094 6.35773C0.511887 6.30156 0.50987 6.24331 0.50594 6.18886C0.482862 6.25086 0.419378 6.26114 0.400537 6.16695C0.376528 6.04672 0.420527 5.87134 0.350064 5.87851C0.353374 5.83057 0.355327 5.78598 0.358121 5.73941C0.3756 5.75858 0.393189 5.77735 0.410669 5.79618C0.383264 5.66366 0.392176 5.58039 0.436241 5.51669C0.446382 5.67459 0.456415 5.83215 0.466452 5.99006C0.469449 5.96679 0.472469 5.94322 0.475362 5.91995C0.520383 6.03951 0.563023 5.91619 0.572648 6.1392C0.552059 6.13784 0.531455 6.13674 0.510762 6.13537C0.565819 6.21656 0.565521 6.43886 0.628858 6.36795C0.609404 6.43509 0.597099 6.44878 0.631239 6.48679C0.583115 6.66391 0.522259 6.77766 0.449607 6.71462C0.4613 6.78039 0.473009 6.84619 0.484701 6.9116C0.504567 6.87359 0.52434 6.83552 0.544207 6.79751C0.542966 6.91193 0.541745 7.02718 0.540606 7.14126C0.481831 7.15222 0.522774 6.92102 0.470236 6.98773C0.459691 7.00108 0.482279 7.06265 0.476339 7.07883C0.412077 7.24942 0.458505 6.98161 0.409265 7.03191C0.394051 7.2861 0.311545 7.08269 0.380885 7.43281C0.363916 7.44205 0.346606 7.45199 0.32974 7.46055C0.328722 7.58209 0.367051 7.57223 0.374294 7.6767C0.378799 7.74212 0.311494 7.82424 0.357327 7.8965C0.365777 7.90938 0.44804 7.78783 0.444419 8.04328C0.441614 8.24152 0.383479 8.15901 0.36288 8.26618C0.342286 8.37341 0.422894 8.6187 0.33151 8.69099C0.343614 8.63482 0.350144 8.56328 0.360073 8.50095C0.342275 8.4756 0.324669 8.45092 0.306975 8.42591C0.329949 8.56843 0.302872 8.71574 0.345303 8.81166C0.280414 9.00179 0.340631 9.21443 0.413904 9.15687C0.403339 9.09429 0.371389 9.16237 0.391749 9.07545C0.408825 9.06654 0.425817 9.05716 0.442894 9.04825C0.440824 9.19625 0.441303 9.29903 0.389246 9.23154C0.388005 9.25449 0.386765 9.27723 0.385523 9.30018C0.423194 9.30429 0.461006 9.30793 0.498677 9.31205C0.50292 9.33945 0.507129 9.36697 0.511372 9.39438C0.503097 9.42485 0.494727 9.45539 0.486349 9.4862C0.426736 9.44475 0.424768 9.37415 0.391444 9.60779C0.412038 9.60847 0.432552 9.60948 0.453147 9.61016C0.426965 9.80576 0.377076 9.81092 0.378931 10.0565C0.307428 9.8681 0.434179 9.76501 0.29074 9.7657C0.300158 9.71842 0.309702 9.67076 0.319121 9.62349C0.298318 9.61629 0.277486 9.60916 0.256685 9.60231C0.267657 9.85614 0.404461 10.2778 0.31375 10.4477C0.324819 10.4683 0.334443 10.4889 0.346341 10.5098C0.291593 10.6763 0.414505 10.7482 0.343716 10.9171C0.336287 10.9345 0.220809 10.898 0.224947 11.1179C0.239956 11.1124 0.265217 11.1096 0.284149 11.1051C0.274941 11.1527 0.265306 11.2001 0.255891 11.2473C0.269754 11.2559 0.283611 11.2649 0.297576 11.2734C0.302958 11.1922 0.308429 11.1113 0.313811 11.0301C0.31857 11.0976 0.323333 11.1654 0.328092 11.2329C0.350748 11.1449 0.35099 11.1052 0.387293 11.1582C0.389467 11.2346 0.391773 11.3111 0.393946 11.3875C0.403247 11.3954 0.412658 11.4032 0.421959 11.4111C0.449693 11.3741 0.476816 11.3367 0.504963 11.2997C0.482299 11.4988 0.481069 11.6718 0.426537 11.8246C0.417326 11.8506 0.381194 11.7585 0.413782 11.9359C0.394645 11.9387 0.379106 11.9434 0.361415 11.9465C0.415025 12.1637 0.399023 12.2351 0.360317 12.4615C0.396436 12.3149 0.372945 12.4457 0.392298 12.4831C0.405631 12.5086 0.403661 12.4088 0.417626 12.4201C0.431493 12.4314 0.487486 12.5611 0.494221 12.4502C0.379448 12.1782 0.51667 12.1041 0.461508 11.7547C0.476307 11.8084 0.49114 11.8626 0.50594 11.9164C0.515971 11.8911 0.525071 11.8684 0.535723 11.841C0.51327 12.0359 0.527857 11.9411 0.54555 12.0212C0.563247 12.1014 0.578281 12.247 0.583145 12.3447C0.584673 12.3754 0.558932 12.343 0.556535 12.4124C0.55488 12.4597 0.593041 12.5889 0.548052 12.6187C0.518766 12.6382 0.438124 12.4307 0.438316 12.7176C0.409605 12.7717 0.418522 12.6341 0.415063 12.6311C0.38091 12.6061 0.355232 12.7825 0.381312 12.8641C0.383561 12.8707 0.410175 12.8063 0.420616 12.8763C0.445559 13.0424 0.415037 13.1384 0.373744 13.246C0.422179 13.2576 0.480023 13.3974 0.462118 13.5715C0.475979 13.5804 0.489962 13.5888 0.503926 13.5978C0.496589 13.5707 0.489352 13.5437 0.482015 13.5167C0.490709 13.4872 0.497036 13.456 0.507283 13.4272C0.519193 13.6023 0.585944 13.627 0.610365 13.7109C0.693794 13.9981 0.517316 13.8241 0.486898 13.7723C0.499213 13.7349 0.512961 13.6988 0.525897 13.6618C0.509028 13.6659 0.49203 13.6701 0.475057 13.6739C0.475573 14.1038 0.365553 13.7393 0.334195 13.9576C0.417191 14.0137 0.42519 14.174 0.372524 14.3782C0.372937 14.4008 0.373043 14.4235 0.373561 14.4461C0.385662 14.4499 0.40416 14.4498 0.412133 14.456C0.426208 14.7019 0.298393 14.7457 0.286285 14.769C0.232581 14.8725 0.306887 14.953 0.307524 14.9835C0.309681 15.0906 0.287109 15.1344 0.287751 15.2168C0.287883 15.2353 0.289351 15.2554 0.292871 15.2777C0.320125 15.4217 0.33697 15.3196 0.363907 15.3597C0.384813 15.3913 0.410382 15.4953 0.443023 15.5308C0.423225 15.5191 0.403272 15.5042 0.383951 15.4909C0.401962 15.6348 0.436053 15.7593 0.536706 15.898C0.733585 15.9706 0.750088 16.1955 0.789596 16.0388C0.676209 15.9391 0.636772 15.8589 0.623416 15.7758C0.681407 15.848 0.749546 15.9111 0.824625 15.963C0.835485 15.9925 0.841558 16.0172 0.859772 16.0497C0.936855 16.0618 1.07673 16.1413 1.14264 16.146C1.44475 16.155 1.33497 16.0866 1.61015 16.1538C1.42369 16.1952 1.41846 16.2455 1.21874 16.2106C1.25454 16.255 1.36419 16.2572 1.28988 16.2926C1.4994 16.296 1.43126 16.2489 1.50465 16.2124C1.56681 16.1796 1.68763 16.1455 1.66929 16.1104C1.68715 16.1267 1.703 16.1427 1.72201 16.1581C1.78464 16.1366 1.84459 16.1091 1.90216 16.0758C1.95301 16.0464 2.00386 16.0169 2.05469 15.9875C2.01923 16.0329 1.9838 16.0784 1.94829 16.1238C1.98734 16.1106 2.02644 16.0975 2.0655 16.0843C2.29888 15.8719 2.82096 15.7129 2.66291 15.609C2.78897 15.53 2.81567 15.539 2.90166 15.5263C2.90296 15.5108 2.90512 15.4972 2.9057 15.4804C2.99546 15.444 3.03513 15.3655 3.11466 15.3341C3.19414 15.3025 3.23508 15.3314 3.20752 15.259C3.26595 15.2506 3.32225 15.2392 3.3796 15.2296C3.39938 15.1981 3.41923 15.1668 3.43875 15.1356C3.4878 15.1178 3.53694 15.0999 3.58599 15.0821C3.59152 15.0368 3.77435 14.9494 3.83923 14.8836C3.93212 14.8754 3.99206 14.9839 4.15322 14.8652C4.13341 14.8411 4.11371 14.8171 4.09389 14.7931C4.13655 14.7759 4.17928 14.7586 4.22224 14.7412C4.22962 14.7485 4.2367 14.756 4.24408 14.7633C4.22236 14.7723 4.20092 14.7811 4.17915 14.79C4.20514 14.7946 4.23073 14.7993 4.25642 14.804C4.30407 14.7475 4.35179 14.6909 4.39973 14.6342C4.30864 14.6648 4.21752 14.6954 4.12643 14.726C4.2175 14.6474 4.3 14.6258 4.37643 14.5526C4.47506 14.5446 4.4587 14.5823 4.45027 14.6403C4.47707 14.6203 4.50428 14.6002 4.53108 14.5802C4.53513 14.631 4.5975 14.6267 4.42747 14.7206C4.4456 14.7253 4.46365 14.7293 4.48174 14.7346C4.5083 14.7169 4.53174 14.7162 4.55946 14.6943C4.635 14.6347 4.6578 14.5282 4.63798 14.5069C4.62751 14.4958 4.56039 14.5673 4.55315 14.5472C4.5356 14.4983 4.73364 14.4105 4.43887 14.5213C4.51186 14.4415 4.54411 14.4512 4.64731 14.4025C4.63107 14.3922 4.6151 14.3818 4.59916 14.3714C4.64876 14.3518 4.69841 14.3322 4.74801 14.3126C4.72835 14.4252 5.08155 14.2593 4.81676 14.5007C4.9083 14.4524 4.99955 14.4043 5.09091 14.3563C5.07702 14.3747 5.06308 14.393 5.04919 14.4115C5.00646 14.4306 4.96402 14.4497 4.92135 14.469C4.97703 14.4558 5.03274 14.4426 5.08842 14.4294C5.19037 14.347 5.21865 14.2945 5.25062 14.2313C5.10599 14.2822 5.16792 14.291 5.07007 14.3563C5.06136 14.3331 5.04539 14.3163 5.04141 14.2888C5.11934 14.3025 5.27229 14.1715 5.31079 14.1464C5.42799 14.07 5.35807 14.168 5.43952 14.1222C5.52103 14.0763 5.60171 13.9955 5.69261 14.0001C5.67756 13.9768 5.65792 13.955 5.64055 13.9359C5.76209 13.8552 5.75331 13.8981 5.76849 13.8942C6.01163 13.8344 6.0952 13.7181 6.32986 13.5744C6.29531 13.5844 6.26086 13.5954 6.22627 13.606C6.37657 13.4513 6.26451 13.5368 6.09874 13.61C6.24795 13.5307 6.30665 13.4389 6.40244 13.3664C6.49823 13.2939 6.68814 13.214 6.76288 13.194C6.63098 13.3074 6.46066 13.3812 6.30075 13.4838C6.33356 13.4975 6.36367 13.5077 6.39847 13.5234C6.46879 13.4144 6.54654 13.4153 6.5834 13.4031C6.69163 13.3672 6.66315 13.3249 6.74895 13.3386C6.73716 13.3236 6.72751 13.3109 6.71635 13.2971C6.91993 13.1886 7.15194 13.0931 7.24712 12.9578C7.2816 12.9902 7.31234 13.0227 7.34906 13.0548C7.41658 12.9765 7.50641 12.9649 7.57363 12.9169C7.64055 12.8691 7.59528 12.853 7.6716 12.7927C7.68573 12.7815 7.7293 12.7828 7.75884 12.7463C7.78871 12.7094 7.86708 12.5186 7.93907 12.6042C8.01082 12.5634 8.08049 12.5278 8.15144 12.489C8.08631 12.5338 8.02106 12.5784 7.95623 12.623C8.02772 12.6126 8.09881 12.6022 8.1703 12.5918C8.16582 12.5669 8.16114 12.5416 8.15651 12.5172C8.29867 12.4016 8.43181 12.3697 8.58533 12.2704C8.61096 12.2538 8.52513 12.2491 8.64828 12.1918C8.77147 12.1345 8.90235 12.1604 9.08502 12.0158C9.09423 12.0084 9.11972 11.916 9.2145 11.9151C9.23605 11.9148 9.17538 11.9679 9.21966 11.9583C9.26398 11.9488 9.43647 11.8623 9.46603 11.8834C9.45841 11.8743 9.44194 11.8698 9.43095 11.8624C9.45663 11.8411 9.48259 11.8197 9.50862 11.7983C9.52159 11.8146 9.53478 11.8308 9.54769 11.847C9.6875 11.711 9.73305 11.5944 9.98864 11.4767C9.90546 11.4902 9.82219 11.5036 9.7393 11.5169C9.73111 11.5459 9.72296 11.5751 9.71507 11.6039C9.59905 11.6612 9.48275 11.7187 9.36673 11.776C9.36029 11.8073 9.35414 11.8384 9.3477 11.8697C9.31648 11.8842 9.28561 11.8985 9.25439 11.913C9.25317 11.8937 9.25205 11.8745 9.25113 11.8551C9.19452 11.8927 9.13788 11.9304 9.08157 11.9678C9.14953 11.8108 9.41812 11.7835 9.36007 11.7185C9.39308 11.7147 9.42618 11.711 9.45924 11.7073C9.45012 11.6648 9.50974 11.6441 9.6076 11.5952C9.57575 11.59 9.54178 11.5864 9.5116 11.58C9.61796 11.5519 9.7797 11.4552 9.88047 11.4099C9.92473 11.3899 9.89795 11.44 9.91216 11.4359C9.98516 11.415 10.0809 11.2993 10.1085 11.2881C10.2733 11.2214 10.422 11.2502 10.5557 11.0974C10.3759 11.1826 10.4727 11.1346 10.3935 11.1384C10.3686 11.1396 10.1348 11.2471 10.418 11.0958C10.4512 11.0782 10.9898 10.8464 10.8503 10.9876C10.9235 10.926 10.9777 10.8723 11.0435 10.8138C11.2955 10.8282 11.1672 10.752 11.0783 10.7207C11.1081 10.7031 11.1363 10.686 11.1671 10.6682C11.1392 10.7712 11.4756 10.5824 11.5699 10.4841C11.6016 10.4512 11.4833 10.4917 11.5655 10.4311C11.6099 10.4115 11.6608 10.3901 11.7079 10.3697C11.62 10.3654 11.7366 10.2769 11.7106 10.236C11.8126 10.227 11.9198 10.2707 11.9004 10.3391C11.9568 10.2834 12.0136 10.2275 12.07 10.1716C12.0334 10.1795 11.9964 10.1877 11.9598 10.1955C12.1922 10.0965 12.4368 9.87532 12.5331 9.93721C12.5615 9.91997 12.5903 9.90264 12.6187 9.88539C12.619 9.86538 12.619 9.8455 12.6193 9.82549C12.757 9.76321 12.8944 9.70119 13.032 9.63892C12.9214 9.71509 12.9061 9.7522 12.7745 9.80521C12.8313 9.79526 12.8889 9.78491 12.9448 9.77549C13.1012 9.62374 13.1087 9.57904 13.3922 9.43363C13.4051 9.42707 13.6356 9.34547 13.6449 9.34512C13.6875 9.3435 13.6524 9.39708 13.6719 9.39739C13.7263 9.39848 14.0069 9.31813 14.0075 9.33011C14.0129 9.47799 13.1889 9.95576 12.9691 10.0904C10.6899 11.4869 8.38009 12.7127 6.08849 14.0541C6.06497 14.068 6.08495 14.0788 6.07528 14.0853C6.01512 14.1256 5.93861 14.1351 5.91485 14.1473C5.86413 14.1737 5.90526 14.182 5.86914 14.2029C5.49576 14.4181 5.13539 14.6073 4.76425 14.8271C4.74008 14.8414 4.75379 14.8078 4.71303 14.8358C4.69206 14.8504 4.64009 14.9199 4.59057 14.9491C4.4176 15.0509 4.26609 15.1258 4.08301 15.2321C3.98288 15.2902 3.83099 15.3746 3.71913 15.4398C3.66972 15.4686 3.62594 15.5119 3.57727 15.5406C3.50821 15.5813 3.50656 15.5457 3.4949 15.5501C3.44373 15.5698 3.45461 15.6036 3.4097 15.6286C3.3261 15.6749 3.31005 15.6574 3.20601 15.7197C3.13167 15.7643 2.96904 15.8794 2.87709 15.9387C2.64231 16.0432 2.36876 16.2134 2.16672 16.3404C2.13098 16.3628 2.10346 16.3766 2.08111 16.3857C2.01176 16.4161 1.98314 16.4116 1.93453 16.4335C1.69105 16.5379 1.47767 16.6067 1.21642 16.5743C0.87075 16.5235 0.603955 16.3406 0.390034 16.0946C0.355823 16.0539 0.340421 16.0822 0.307097 16.0402C0.18188 15.8858 0.0762245 15.6445 0.0527088 15.4687C0.036196 15.3601 0.0476868 15.2892 0.058038 15.2168C0.0667317 15.1734 0.073106 15.1284 0.0691941 15.0661C0.0665819 15.025 0.0287087 15.0129 0.0238469 14.9441C0.0162003 14.8342 0.049598 14.7136 0.0533249 14.6369C0.0582926 14.5317 0.0197098 14.6232 0.0248845 14.4813C0.0251076 14.4755 0.0526879 14.4543 0.0513718 14.4238C0.0476468 14.3351 0.0259268 14.3439 0.0279973 14.2141C0.0282824 14.2016 0.0545628 14.0295 0.0546677 14.0123C0.0550816 13.9116 0.0642827 13.7089 0.0586961 13.6492C0.0388253 13.4361 -0.00265761 13.6039 0.0873817 13.4227C0.0653432 13.3429 0.0430062 13.2637 0.0215886 13.1791C0.0415624 13.2356 0.0703853 13.0065 0.0685228 12.9904C0.0535119 12.8572 0.0184797 12.9365 0.0242742 12.7677C0.105205 12.9907 0.0347055 12.5498 0.0326351 12.4515C0.0225996 11.9781 0.0427965 11.5477 0.0422787 11.0719C0.042067 10.9126 0.024959 10.6991 0.0253729 10.5306C0.0253977 10.4913 0.0445504 10.521 0.0449643 10.4864C0.0452475 10.4519 0.0237469 10.4902 0.0248846 10.4508C0.0323386 10.2059 0.0729079 10.014 0.0221991 9.78961C0.029531 9.77869 0.0353245 9.77904 0.0433774 9.76095C-0.00205185 9.57733 0.0590415 9.2237 0.0674243 9.09079C0.0804563 8.88289 0.0497489 8.82979 0.0559497 8.67876C0.0642295 8.47904 0.124219 8.17918 0.0251899 8.31309C0.0220867 8.17609 0.0212293 8.04419 0.030439 7.90581C0.0314823 7.89041 0.0566536 7.90102 0.0571704 7.89486C0.0607839 7.85582 0.0382476 7.8431 0.0372129 7.81672C0.0344291 7.74521 0.0614133 7.86192 0.0538746 7.75995C0.0498386 7.70616 0.0301824 7.67563 0.0297676 7.52627C0.0275942 6.62598 0.0346343 5.64858 0.0379455 4.72567C0.0381524 4.66229 0.0138118 4.70401 0.0153634 4.62453C0.0207507 4.34842 0.0617149 3.85418 0.056133 3.61609C0.0505455 3.37801 0.0149496 3.43172 4.46044e-05 3.28274C-0.00285266 3.25396 0.0174339 3.27756 0.0177438 3.25152C0.0196083 3.07646 0.0512503 2.86776 0.056011 2.72594C0.0592011 2.63215 0.0272863 2.63966 0.0250071 2.5746C0.021695 2.47765 0.0539387 2.37787 0.0549734 2.32614C0.0595206 2.08295 0.0335501 1.91575 0.0467957 1.68865C0.0397719 1.69754 0.0332697 1.7034 0.0263499 1.71092C0.0268448 1.59405 0.0273398 1.47723 0.0278348 1.36043C0.0280942 1.15403 0.0750188 0.943238 0.16879 0.754097C0.155314 0.767023 0.142212 0.7798 0.129006 0.793506C0.338693 0.400938 0.402568 0.514833 0.254061 0.446341C0.271109 0.416629 0.289977 0.385447 0.308518 0.358246C0.358154 0.419088 0.571642 0.243108 0.876373 0.134569C0.895553 0.124809 1.02747 0.00216719 1.03602 0.092334C1.06958 0.0603479 1.09042 0.0400717 1.12188 0.014046C1.19641 0.0250288 1.26934 0.0417539 1.33747 0.0643449C1.37335 0.0584265 1.41006 0.0541609 1.44669 0.0513403C1.45269 0.0344515 1.44893 0.0165565 1.46176 0.000268803C1.63545 -0.00642944 1.95883 0.116652 2.07788 0.197137C2.08146 0.199185 2.08489 0.201107 2.08814 0.202895C2.30984 0.324557 2.55583 0.413271 2.70119 0.554793C2.78668 0.598281 2.72106 0.521695 2.84232 0.596597C2.84777 0.619341 2.85275 0.640993 2.85854 0.664526C2.99728 0.657082 2.99528 0.709187 3.12554 0.802681C3.2136 0.865953 3.28406 0.885236 3.37125 0.939747C3.39333 0.953572 3.37901 0.971 3.3948 0.979279C3.44761 1.00712 3.61035 1.06571 3.64724 1.08606C3.98175 1.26987 4.26395 1.43676 4.57462 1.62556C4.60802 1.64581 4.57516 1.60147 4.6097 1.62249C4.66529 1.65627 4.61528 1.66637 4.64707 1.68664C4.73587 1.74302 4.75436 1.7126 4.88224 1.78428C5.3033 2.02033 5.77053 2.32096 6.20603 2.57514C6.21968 2.58302 6.22929 2.5645 6.24423 2.57288C6.34143 2.62783 6.42522 2.70874 6.51317 2.75916C6.65905 2.84291 6.78317 2.88075 6.92701 2.96391C7.20821 3.12638 7.452 3.28445 7.74084 3.45218C7.97723 3.58949 8.18424 3.70579 8.44378 3.85576C9.5775 4.51079 10.7677 5.12152 11.8917 5.81112C11.9203 5.8287 11.8993 5.83782 11.9085 5.84225C11.9968 5.88399 12.0167 5.86681 12.0206 5.92918C12.1331 5.98227 12.1865 5.96796 12.3148 6.04521C12.3831 6.08637 12.3012 6.10908 12.4337 6.14949C12.5534 6.18596 12.4535 6.08995 12.7504 6.30054C12.7582 6.30615 12.7807 6.36175 12.8507 6.3911C12.9211 6.42071 12.8584 6.35398 13.0202 6.43821C13.3478 6.6088 13.7299 6.85427 14.1083 7.07265C14.1919 7.12089 14.2709 7.17693 14.3438 7.23977C14.3875 7.25586 14.6704 7.5809 14.7008 7.66526C14.7823 7.80953 14.8021 7.76722 14.8617 7.97997C14.9001 8.14739 14.8788 8.29005 14.8608 8.48537C14.8574 8.50774 14.8893 8.55255 14.8457 8.69901ZM0.53139 9.29981C0.562775 9.32791 0.678296 9.3786 0.64314 9.54846C0.639828 9.56456 0.560386 9.47764 0.547747 9.57146C0.539364 9.47965 0.536649 9.39025 0.531268 9.29981C0.531309 9.29981 0.53135 9.29981 0.53139 9.29981ZM13.8077 8.93347C13.894 8.88694 13.9712 8.82454 14.0339 8.74903C14.0051 8.81182 13.9665 8.87223 13.919 8.92775C13.8813 8.93241 13.844 8.93425 13.8077 8.93347ZM1.89844 0.704167C1.89855 0.704228 1.89865 0.704289 1.89876 0.70435C1.8685 0.691108 1.83824 0.677866 1.80797 0.664624C1.73109 0.633186 1.65221 0.614314 1.57451 0.608088C1.58745 0.599797 1.60091 0.591819 1.61457 0.584192C1.68529 0.588844 1.75756 0.603591 1.82889 0.62839C1.84659 0.635069 1.86427 0.641742 1.88194 0.648409C1.88743 0.666989 1.89295 0.685587 1.89844 0.704167ZM2.87064 1.13136C2.938 1.1853 2.90892 1.19391 2.93886 1.23593C2.93888 1.23589 2.9389 1.23586 2.93892 1.23582C2.94686 1.24684 2.99438 1.27992 3.01327 1.29179C3.01303 1.27576 3.01063 1.25868 3.00975 1.24239C3.19878 1.31305 3.47666 1.61023 3.01638 1.39958C3.0316 1.38829 3.04648 1.37691 3.0617 1.36563C2.8424 1.24463 2.61948 1.07239 2.87064 1.13136ZM0.581437 11.3134C0.638358 11.5272 0.650359 11.5957 0.611342 11.8551C0.595209 11.8184 0.579077 11.7818 0.562944 11.7452C0.579399 11.7023 0.595742 11.6598 0.612196 11.617C0.612196 11.6169 0.612196 11.6168 0.612196 11.6166C0.594915 11.6081 0.577602 11.5995 0.560319 11.5913C0.567356 11.4988 0.574399 11.4059 0.581437 11.3134ZM9.9367 5.25845C9.93146 5.38669 9.94961 5.32087 9.78941 5.25798C9.73393 5.23622 9.77372 5.28216 9.74032 5.2667C9.55985 5.18339 9.58422 5.10952 9.6423 5.09728C9.74066 5.15096 9.83991 5.20543 9.93638 5.25826C9.93649 5.25832 9.9366 5.25839 9.9367 5.25845ZM14.2366 7.90588C14.2367 7.90599 14.2367 7.90609 14.2368 7.90619C14.2132 7.92105 14.1776 7.8626 14.1862 7.94361C14.1629 7.89028 14.1342 7.83926 14.1003 7.79183C14.1125 7.8043 14.1242 7.81739 14.1356 7.83073C14.1355 7.81267 14.135 7.7945 14.1337 7.77608C14.0949 7.77715 14.1004 7.75059 14.0659 7.69579C14.0525 7.73162 14.0372 7.76627 14.0203 7.79965C13.9876 7.74255 13.9464 7.68841 13.8977 7.63939C13.9022 7.63202 13.9067 7.62461 13.9111 7.61721C13.8832 7.61019 13.8556 7.60493 13.8279 7.6009C13.8273 7.5885 13.8265 7.57624 13.8253 7.5637C13.8251 7.56366 13.825 7.56362 13.8249 7.56358C13.7882 7.55134 13.7515 7.53907 13.7148 7.52693C13.7172 7.49965 13.7951 7.53225 13.6634 7.46345C13.7155 7.46419 13.7676 7.46494 13.8201 7.46584C13.8353 7.47482 13.8505 7.4838 13.8657 7.49277C14.0296 7.5889 14.161 7.73425 14.2366 7.90588ZM8.57838 4.5146C8.79347 4.63328 8.72457 4.61427 8.64717 4.63459C8.62436 4.59466 8.60119 4.55453 8.57838 4.5146ZM0.501668 4.1309C0.540064 4.20215 0.578076 4.27371 0.615126 4.34668C0.63655 4.49194 0.566567 4.63724 0.539141 4.52796C0.506235 4.39641 0.543064 4.25902 0.501668 4.1309ZM0.518756 7.43919C0.536561 7.26148 0.582184 7.42869 0.608779 7.46877C0.566036 7.51793 0.569807 7.58649 0.564836 7.6966C0.562065 7.5932 0.515733 7.46858 0.518634 7.43919C0.518675 7.43919 0.518715 7.43919 0.518756 7.43919ZM0.548121 1.28277C0.552041 1.22194 0.553877 1.15805 0.582208 1.10926C0.611231 1.13518 0.556846 1.22964 0.625986 1.16866C0.618372 1.20446 0.613239 1.24081 0.610693 1.2769C0.590711 1.25131 0.570615 1.28084 0.548257 1.28262C0.548212 1.28267 0.548166 1.28272 0.548121 1.28277ZM6.49576 3.36217C6.39645 3.25464 6.36421 3.2575 6.22722 3.21318C6.22773 3.17261 6.40276 3.20521 6.50036 3.2465C6.49871 3.28498 6.49712 3.32352 6.49576 3.36217ZM10.1384 11.133C10.1319 11.1888 9.92041 11.3177 9.8072 11.3677C9.81654 11.3545 9.82588 11.3413 9.83517 11.3281C9.93612 11.2631 10.0375 11.1979 10.1384 11.133ZM0.561784 7.74899C0.563105 7.73056 0.564091 7.71309 0.564836 7.6966C0.565327 7.71494 0.564559 7.73263 0.561784 7.74899ZM0.365993 15.1907C0.323463 15.1322 0.309174 15.3062 0.325834 15.0949C0.325793 15.0949 0.325752 15.0949 0.325711 15.0949C0.336682 14.9551 0.339611 14.9243 0.342922 14.7948C0.397558 14.8414 0.417088 15.1041 0.428368 14.742C0.428417 14.7372 0.395908 14.7467 0.400354 14.6889C0.401736 14.671 0.428417 14.6139 0.436179 14.527C0.438664 14.4989 0.446892 14.2878 0.44741 14.5755C0.485495 14.567 0.524043 14.5824 0.560991 14.5817C0.571728 14.6941 0.497153 14.7804 0.498982 14.8992C0.50188 15.0756 0.577292 15.1654 0.478353 15.1993C0.454045 15.051 0.45346 14.7962 0.512958 14.763C0.513683 14.6195 0.464936 14.5783 0.440818 14.694C0.470256 15.1704 0.376296 14.8569 0.403448 15.2168C0.404552 15.2317 0.406161 15.2475 0.408435 15.2642C0.422372 15.2688 0.438194 15.2852 0.450949 15.2817C0.42119 15.3905 0.387864 15.278 0.374731 15.2168C0.371591 15.2042 0.368727 15.1945 0.365993 15.1907ZM0.471213 14.1542C0.500294 14.2398 0.529608 14.3252 0.558793 14.4105C0.511395 14.4105 0.468862 14.3635 0.442161 14.2285C0.451882 14.2038 0.461595 14.1788 0.471213 14.1542ZM5.37156 13.9928C5.36935 13.9643 5.38602 13.9274 5.39452 13.8942C5.42793 13.9 5.9724 13.6097 5.71137 13.785C5.67346 13.8105 5.41 13.91 5.37156 13.9928ZM7.35563 3.81379C7.30137 3.76251 7.24739 3.71135 7.19343 3.66024C7.29527 3.70638 7.39734 3.75232 7.49928 3.79828C7.45131 3.80339 7.4036 3.80868 7.35563 3.81379ZM0.456443 5.31313C0.457411 5.28246 0.49285 5.38435 0.487264 5.26348C0.509929 5.35358 0.529113 5.43795 0.550433 5.526C0.533666 5.55238 0.516968 5.57903 0.500203 5.60541C0.510966 5.62596 0.521664 5.64692 0.532427 5.66748C0.508004 5.65514 0.48415 5.64417 0.459311 5.63115C0.511678 5.48281 0.452304 5.4488 0.456443 5.31313ZM0.467189 0.897734C0.523913 0.899294 0.468368 1.09887 0.5607 0.919258C0.574681 0.969443 0.563089 1.0279 0.538022 1.13536C0.520749 1.1492 0.503805 1.16439 0.487273 1.1799C0.522145 1.18897 0.528211 1.22061 0.548121 1.28277C0.548076 1.28282 0.548032 1.28287 0.547986 1.28292C0.54579 1.31482 0.545177 1.3397 0.54431 1.36043C0.540844 1.45691 0.523916 1.45675 0.476705 1.49313C0.486347 1.43519 0.488638 1.39361 0.486256 1.36043C0.481816 1.28556 0.449449 1.25483 0.444744 1.15747C0.440249 1.06163 0.49593 0.952691 0.467189 0.897734ZM4.80286 14.3218C4.90235 14.2126 4.77207 14.2396 5.01213 14.156C5.00388 14.1739 4.99552 14.1917 4.98726 14.2096C4.92585 14.2471 4.86438 14.2845 4.80286 14.3218ZM1.05539 0.571431C1.01194 0.498209 0.859803 0.50852 0.918803 0.632721C1.02799 0.597075 0.945821 0.557287 1.05539 0.571431ZM0.390101 7.37859C0.393935 7.13024 0.486675 7.17719 0.533038 7.27927C0.516169 7.29503 0.499269 7.31078 0.482503 7.32619C0.490162 7.3697 0.497836 7.41321 0.505391 7.45672C0.466995 7.43068 0.428496 7.40462 0.390101 7.37859ZM4.8581 2.25217C4.66439 2.2081 5.0192 2.38287 4.88607 2.34831C4.77975 2.32074 4.68851 2.19979 4.75272 2.19408C4.78498 2.21152 4.82068 2.23129 4.85778 2.25199C4.85789 2.25205 4.85799 2.25211 4.8581 2.25217ZM3.89858 1.71758C3.89422 1.78746 3.86446 1.74917 3.99996 1.81437C4.03864 1.83301 4.32156 2.02354 4.22382 1.90712C4.11852 1.84632 4.00772 1.78131 3.89858 1.71758ZM0.481832 10.2493C0.454529 10.2516 0.394577 9.98955 0.40957 9.95592C0.409529 9.95592 0.409488 9.95592 0.409448 9.95592C0.450327 9.86514 0.456135 10.1415 0.512226 10.0216C0.462869 10.2871 0.582255 10.3666 0.42495 10.3481C0.418049 10.1917 0.450476 10.2657 0.481832 10.2493ZM13.0181 9.61878C13.0182 9.61872 13.0183 9.61866 13.0184 9.6186C13.0025 9.62628 12.8569 9.66407 12.8653 9.64324C13.0222 9.56637 13.0085 9.60474 13.1274 9.48605C13.1421 9.49369 13.1555 9.5016 13.1708 9.50899C13.1191 9.54836 13.0966 9.58074 13.0181 9.61878ZM5.97646 13.7071C5.92455 13.7453 5.80851 13.7781 5.7462 13.8162C5.89053 13.6016 6.18388 13.5546 5.97646 13.7071ZM12.3141 6.60827C12.3139 6.60821 12.3137 6.60816 12.3136 6.6081C12.3136 6.60807 12.3137 6.60806 12.3138 6.60803C12.3139 6.60811 12.314 6.60819 12.3141 6.60827ZM1.65048 16.0939C1.65971 16.099 1.66569 16.1039 1.6688 16.1088C1.66895 16.1093 1.6691 16.1098 1.66925 16.1103C1.66329 16.1049 1.65712 16.0994 1.65048 16.0939ZM0.490072 10.7939C0.451994 10.903 0.391458 10.5394 0.405908 10.4218C0.423288 10.43 0.439043 10.4313 0.459006 10.4505C0.414 10.5454 0.496488 10.7757 0.490072 10.7939ZM0.476095 2.50395C0.47506 2.79137 0.324716 2.41732 0.444664 2.4019C0.446988 2.40248 0.475891 2.49652 0.476095 2.50395ZM0.474325 8.52723C0.428807 8.45401 0.41672 8.60117 0.424584 8.36585C0.436374 8.35216 0.448192 8.33847 0.459982 8.32478C0.464742 8.39225 0.469566 8.45976 0.474325 8.52723ZM0.278718 4.38684C0.304072 4.74859 0.348802 5.09457 0.474325 4.85893C0.470294 4.83156 0.466395 4.8038 0.462363 4.77642C0.401124 4.77231 0.434552 4.67128 0.436546 4.52339C0.412234 4.50231 0.406612 4.42031 0.385951 4.40491C0.346013 4.37516 0.317935 4.46939 0.278718 4.38684ZM10.7107 5.54549C10.7004 5.55163 10.6903 5.55788 10.68 5.56393C10.6246 5.54554 10.569 5.52703 10.5136 5.50864C10.5316 5.49589 10.5497 5.48315 10.5677 5.4704C10.6154 5.4954 10.6628 5.52026 10.7104 5.54525C10.7105 5.54533 10.7106 5.54541 10.7107 5.54549ZM0.342007 13.8017C0.457059 13.8345 0.435869 13.7197 0.377712 13.4868C0.36581 13.5916 0.353909 13.6968 0.342007 13.8017ZM2.54502 0.769782C2.5352 0.801855 2.52533 0.83378 2.51581 0.866025C2.63993 0.898373 2.63876 0.854474 2.60907 0.787377C2.5876 0.781431 2.56649 0.775728 2.54502 0.769782ZM4.09471 1.64843C4.05369 1.61687 4.06317 1.65281 4.05879 1.64967C3.95328 1.57274 3.94349 1.55312 3.7956 1.49067C3.77523 1.48692 3.75496 1.48363 3.73449 1.48006C3.76402 1.57619 3.82899 1.5706 3.94384 1.68338C3.93125 1.64899 3.91879 1.61463 3.90626 1.58015C3.97882 1.62777 4.0511 1.67516 4.12366 1.72279C4.13618 1.72165 4.14869 1.72059 4.16121 1.71945C4.13918 1.69598 4.11686 1.67101 4.09471 1.64843ZM11.2688 5.90202C11.3404 5.94649 11.4124 5.99124 11.484 6.03571C11.4951 6.02264 11.5062 6.00942 11.5173 5.99635C11.4345 5.96496 11.3515 5.93342 11.2688 5.90202ZM0.443023 15.5308C0.450789 15.5354 0.458564 15.5396 0.466216 15.5431C0.458986 15.545 0.451081 15.54 0.443023 15.5308ZM13.2569 9.58773C13.3456 9.55017 13.461 9.4746 13.553 9.42434C13.5247 9.39181 13.2998 9.53515 13.206 9.55971C13.1967 9.57381 13.2195 9.60363 13.2569 9.58773ZM0.393824 7.03501C0.372714 7.01103 0.351704 6.98709 0.330595 6.96345C0.332871 6.90555 0.335275 6.84753 0.337553 6.78929C0.320269 6.78758 0.302836 6.78589 0.285553 6.78418C0.308007 7.04073 0.258169 6.98157 0.209018 7.10858C0.270585 7.08392 0.332154 7.05967 0.393824 7.03501ZM13.6458 7.14779C13.4794 7.06525 13.4116 7.0513 13.4761 7.14844C13.5387 7.17084 13.6017 7.19343 13.6642 7.21583C13.658 7.1931 13.6517 7.17035 13.6458 7.14779ZM3.31275 15.3296C3.43737 15.2352 3.4744 15.2942 3.58624 15.1848C3.50953 15.2143 3.43275 15.2436 3.35634 15.2729C3.34196 15.2917 3.32713 15.3108 3.31275 15.3296ZM0.164282 11.3008C0.140076 11.3663 0.25514 11.4886 0.170202 11.6725C0.195552 11.7163 0.219767 11.7438 0.2446 11.7815C0.217589 11.8034 0.190232 11.8283 0.163428 11.8492C0.163428 11.8493 0.163428 11.8495 0.163428 11.8496C0.172534 12.0164 0.206412 11.9083 0.235079 11.912C0.246963 11.9138 0.227097 12.0376 0.252962 11.9989C0.29736 11.9321 0.271829 11.6825 0.325956 11.6818C0.308266 11.7695 0.323048 11.9408 0.359157 11.8901C0.398792 11.8346 0.332369 11.6732 0.36526 11.5705C0.278752 11.7177 0.305473 11.4136 0.371913 11.379C0.320893 11.2005 0.30008 11.3645 0.302458 11.5475C0.251542 11.4358 0.27905 11.6002 0.236727 11.6272C0.211178 11.5121 0.232476 11.1169 0.164282 11.3008ZM0.258089 2.8802C0.261371 3.00356 0.232269 3.19627 0.275239 3.28073C0.300274 3.32992 0.31966 3.13675 0.358974 3.26996C0.355141 3.14977 0.339784 3.12235 0.305327 3.1429C0.30119 3.11551 0.297155 3.08777 0.293121 3.06038C0.299844 3.04771 0.306477 3.03471 0.313201 3.02205C0.299024 3.00766 0.28496 2.99319 0.270783 2.97914C0.273576 2.95005 0.276372 2.92061 0.279267 2.89152C0.272138 2.8881 0.265935 2.88226 0.258089 2.8802ZM7.16819 13.1012C7.13874 13.1186 7.10956 13.136 7.08017 13.1535C7.08763 13.1589 7.09589 13.1642 7.10395 13.1695C7.11005 13.1739 7.11614 13.1782 7.12224 13.1826C7.09287 13.1714 6.93133 13.218 6.88481 13.2748C6.8614 13.3034 6.95266 13.3042 6.82984 13.3845C6.92059 13.3293 7.0026 13.2747 7.08992 13.2197C7.08879 13.2363 7.08805 13.2528 7.08692 13.2693C7.08699 13.2693 7.08705 13.2693 7.08711 13.2693C7.11832 13.2548 7.14996 13.2403 7.18117 13.2259C7.17691 13.1842 7.17245 13.1428 7.16819 13.1012ZM2.49038 0.663605C2.37571 0.628588 2.33483 0.621182 2.36076 0.686582C2.36085 0.686661 2.36095 0.686739 2.36104 0.686818C2.40839 0.691811 2.45576 0.696824 2.50311 0.701816C2.49895 0.689141 2.49484 0.676451 2.49038 0.663605ZM1.11935 16.3373C1.41777 16.247 0.821511 16.1725 0.901891 16.2485C0.904588 16.2572 1.09659 16.3174 1.11935 16.3373ZM0.339079 7.42422C0.337733 7.35605 0.336517 7.28773 0.335172 7.21921C0.314784 7.23497 0.294467 7.2511 0.274079 7.26686C0.295709 7.31928 0.317448 7.37181 0.339079 7.42422ZM12.9846 6.67912C12.9453 6.60381 12.794 6.49743 12.6913 6.49531C12.7293 6.52397 12.7674 6.55264 12.8054 6.5813C12.7252 6.54154 12.6455 6.50277 12.5648 6.4624C12.529 6.51495 12.6373 6.53497 12.7638 6.62823C12.7833 6.64276 12.8779 6.78827 12.9538 6.76357C12.9692 6.75838 12.8309 6.66895 12.9476 6.69539C12.9057 6.66797 12.868 6.64694 12.8279 6.62197C12.8325 6.60717 12.8371 6.59237 12.8414 6.5774C12.8893 6.61136 12.9368 6.64517 12.9846 6.67912ZM0.263032 3.59838C0.259532 3.76782 0.28488 3.78874 0.329679 3.82402C0.324609 3.74522 0.319614 3.6664 0.314543 3.58761C0.297409 3.59137 0.280269 3.59462 0.263032 3.59838ZM11.6803 5.90929C11.6036 5.85657 11.6198 5.90801 11.584 5.89535C11.4488 5.84737 11.3784 5.77667 11.2495 5.72111C11.261 5.71964 11.2717 5.7182 11.2828 5.71673C11.2827 5.71667 11.2826 5.71661 11.2825 5.71655C10.7262 5.35988 10.9851 5.60486 11.3339 5.7907C11.3351 5.80707 11.3361 5.82327 11.3373 5.83955C11.5023 5.9074 11.6548 5.96916 11.6803 5.90929ZM0.2446 14.3316C0.236114 14.3392 0.182184 14.2751 0.207431 14.3953C0.286171 14.4906 0.24709 14.3344 0.277375 14.2953C0.28493 14.3278 0.292279 14.3611 0.299835 14.3933C0.322085 14.1987 0.303362 14.1703 0.24582 14.2413C0.241953 14.2463 0.25306 14.3241 0.2446 14.3316ZM0.296006 15.6773C0.407966 15.6621 0.279707 15.4197 0.252553 15.4304C0.258294 15.4696 0.284324 15.4956 0.287088 15.5377C0.290952 15.5808 0.266895 15.6 0.296006 15.6773ZM0.234164 8.57488C0.233646 8.58207 0.184886 8.65435 0.223056 8.64717C0.313405 8.55776 0.25525 8.3776 0.223789 8.40912C0.225344 8.46871 0.238902 8.50844 0.234042 8.57488C0.234083 8.57488 0.234123 8.57488 0.234164 8.57488ZM13.9662 7.21425C13.9648 7.20973 13.8185 7.1026 13.7892 7.10672C13.7624 7.11487 13.7431 7.12913 13.7201 7.14031C13.8159 7.17295 13.9826 7.28647 13.9659 7.21406C13.966 7.21412 13.9661 7.21419 13.9662 7.21425Z" fill="black"/>
</svg>
