<svg width="245" height="165" viewBox="0 0 245 165" fill="none" xmlns="http://www.w3.org/2000/svg">
<path d="M0.903325 68.1271C0.948421 66.2835 0.91886 72.438 0.986207 68.3512C0.990757 69.2034 0.99545 70.0609 1 70.913C0.975058 71.1292 0.950177 71.3506 0.925236 71.5667C0.917891 70.4223 0.910548 69.2773 0.903203 68.1271C0.903244 68.1271 0.903284 68.1271 0.903325 68.1271ZM0.590963 66.5645C0.662102 67.6133 0.681069 70.9456 0.746717 67.3458C0.722302 67.0596 0.697893 66.7665 0.673478 66.4804C0.692414 65.2306 0.711345 63.9731 0.730177 62.7233C0.720869 62.2738 0.711551 61.8249 0.702346 61.3754C0.744772 60.8031 0.787313 60.2358 0.829842 59.6634C0.823633 60.1716 0.817315 60.6867 0.811106 61.1949C0.845558 63.204 0.85498 64.9917 0.861396 67.7193C0.871435 67.4798 0.881385 67.2397 0.891424 67.0003C0.874349 68.3845 0.857232 69.7681 0.840157 71.1465C0.823396 69.9493 0.804756 68.6109 0.789134 67.5014C0.722612 69.2768 0.759635 72.4083 0.77351 74.0383C0.792448 76.2579 0.760817 75.7562 0.774059 77.4032C0.776129 77.666 0.800922 77.6959 0.80134 78.2156C0.803307 80.8384 0.790165 85.9324 0.732313 82.9533C0.739765 78.6365 0.693308 74.955 0.71028 70.72C0.643387 71.8403 0.620624 69.6093 0.590963 66.5645ZM0.803965 145.866C0.771476 144.558 0.784587 141.893 0.807138 140.089C0.807138 140.086 0.807138 140.084 0.807138 140.082C0.812106 139.685 0.855282 138.786 0.853523 140.082C0.850508 142.196 0.782543 143.218 0.828683 144.328C0.820093 144.825 0.812451 145.346 0.803965 145.866ZM0.807993 150.46C0.791331 151.757 0.740119 151.169 0.753979 149.545C0.753939 149.545 0.753898 149.545 0.753857 149.545C0.759653 148.868 0.800132 150.198 0.759045 147.768C0.79101 147.271 0.820091 146.783 0.851021 146.292C0.851538 146.887 0.852377 147.43 0.852791 148.054C0.80025 147.634 0.824524 149.164 0.807993 150.46ZM0.761242 85.1447C0.808509 85.3487 0.808211 84.4947 0.841011 83.0405C0.839459 84.4129 0.837803 85.7858 0.836251 87.1524C0.811216 86.481 0.786277 85.8162 0.761242 85.1447ZM0.768566 52.8993C0.768566 52.8973 0.768566 52.8952 0.768566 52.8931C0.761115 52.4433 0.753637 51.9923 0.746289 51.5484C0.763159 51.2796 0.779955 51.014 0.796824 50.7453C0.78099 49.1564 0.765157 47.5591 0.749219 45.9703C0.800749 46.1633 0.792364 49.0153 0.828378 50.5865C0.812853 52.9228 0.782942 54.0486 0.739271 54.2005C0.748995 53.7684 0.758842 53.3373 0.768566 52.8993ZM244.437 137.729C244.423 137.198 244.408 136.673 244.394 136.142C244.388 136.848 244.383 137.549 244.375 138.262C244.437 140.125 244.382 140.3 244.386 142.741C244.398 150.223 244.494 148.238 244.353 154.996C244.36 149.57 244.293 151.655 244.242 148.384C244.281 147.707 244.369 150.948 244.387 148.752C244.346 144.967 244.308 141.328 244.281 137.129C244.274 137.251 244.267 137.373 244.261 137.496C244.265 138.162 244.269 138.822 244.273 139.488C244.255 138.77 244.238 138.067 244.219 137.337C244.26 138.26 244.237 135.908 244.284 136.223C244.305 136.363 244.334 137.402 244.354 138.016C244.365 136.433 244.375 134.81 244.386 133.21C244.402 134.039 244.419 134.867 244.436 135.69C244.436 136.368 244.437 137.04 244.437 137.717C244.437 137.721 244.437 137.725 244.437 137.729ZM41.2104 0.648387C43.2198 0.599746 46.8713 0.591697 48.7931 0.645824C46.2639 0.646652 43.7396 0.647559 41.2104 0.648387ZM0.703262 54.353C0.711531 54.1255 0.719711 53.9051 0.72798 53.6775C0.743293 54.682 0.758501 55.6924 0.773815 56.6969C0.749918 56.8897 0.726017 57.0867 0.702224 57.2852C0.702535 56.31 0.702951 55.3282 0.703262 54.353ZM0.729872 118.62C0.728426 117.885 0.729209 117.82 0.732618 116.904C0.732598 116.906 0.732578 116.907 0.732557 116.908C0.73383 116.545 0.747788 113.509 0.766186 113.848C0.766496 115.355 0.766186 116.962 0.766186 118.504C0.754084 118.551 0.742077 118.561 0.729872 118.62ZM0.740613 100.88C0.740654 100.878 0.740695 100.876 0.740736 100.874C0.743531 100.325 0.749219 99.8055 0.750257 99.2394C0.779213 101.277 0.727262 101.599 0.741956 103.451C0.756755 105.302 0.785418 106.446 0.714248 108.017C0.703588 107.433 0.688338 106.804 0.675919 106.203C0.704376 103.574 0.677596 102.867 0.649554 100.758C0.679976 100.799 0.710191 100.839 0.740613 100.88ZM237.826 164.161C237.323 164.196 236.763 164.161 236.705 164.161C236.706 164.161 236.707 164.161 236.708 164.161C232.259 164.194 237.287 164.141 233.088 164.136C233.713 164.127 234.327 164.118 234.946 164.109C235.904 164.126 236.891 164.145 237.826 164.161ZM93.2583 164.158C93.2174 164.147 93.1685 164.137 93.1276 164.127C95.651 164.129 96.2944 164.089 98.3913 164.126C96.6802 164.136 94.9695 164.147 93.2583 164.158C93.2583 164.158 93.2583 164.158 93.2583 164.158ZM0.655352 131.338C0.635792 128.54 0.627173 126.471 0.65822 123.784C0.658261 123.782 0.658301 123.78 0.658342 123.778C0.660253 123.623 0.681689 124.372 0.687088 124.17C0.683882 123.615 0.678953 123.043 0.675126 122.483C0.692291 122.407 0.709453 122.334 0.726515 122.258C0.721652 123.835 0.716792 125.413 0.711928 126.996C0.721967 126.762 0.731918 126.523 0.741956 126.29C0.74713 127.633 0.752285 128.971 0.757458 130.314C0.729319 129.847 0.701172 129.381 0.672929 128.92C0.667032 129.726 0.661352 130.533 0.655352 131.338ZM135.268 164.27C134.825 164.258 135.646 164.24 134.957 164.23C134.268 164.221 132.997 164.241 133.295 164.21C134.223 164.206 135.198 164.201 136.143 164.196C133.1 164.139 130.064 164.191 130.017 164.121C132.938 164.139 135.339 164.13 138.166 164.111C138.05 164.167 135.222 164.215 137.002 164.267C136.43 164.268 135.829 164.269 135.275 164.27C135.273 164.27 135.271 164.27 135.268 164.27ZM0.00383359 13.4759C0.00807679 11.7468 -0.0146867 7.78522 0.01781 5.60051C0.0258183 5.06303 0.129557 3.27242 0.143231 3.28149C0.189284 3.33406 0.195552 5.52086 0.225563 3.17877C0.225875 3.96662 0.227604 4.73129 0.228432 5.51335C0.259376 5.37321 0.290238 5.23369 0.321079 5.09935C0.316421 4.14723 0.311741 3.19396 0.30698 2.24182C0.317226 2.19507 0.327495 2.1485 0.33774 2.10175C0.337947 5.52477 0.377492 3.50413 0.414336 5.27989C0.43296 3.64467 0.451495 1.99732 0.470119 0.36792C0.467843 1.30823 0.466156 2.41784 0.463467 3.24725C0.515932 3.35823 0.503424 1.3794 0.513147 1.04028C0.568097 -0.869709 0.540363 8.85449 0.616718 9.65026C0.625203 8.09682 0.633483 6.46684 0.641863 4.87836C0.651281 5.33393 0.660704 5.7955 0.670121 6.25108C0.617458 9.85476 0.598802 13.8959 0.566001 18.0952C0.568172 18.4746 0.570402 18.8548 0.57247 19.2283C0.59616 19.1173 0.61976 19.0124 0.64345 18.9015C0.646245 19.4739 0.649017 20.0535 0.651812 20.6259C0.573786 18.9381 0.57485 21.2755 0.527245 24.0967C0.499825 22.5958 0.516449 20.7441 0.465359 20.8719C0.504666 26.0234 0.449115 32.0563 0.493494 37.0677C0.504463 38.3117 0.57037 38.3077 0.564292 41.2326C0.557047 41.1333 0.543968 41.1163 0.534447 41.0521C0.566012 46.1107 0.584882 49.1798 0.552696 54.437C0.576384 54.1334 0.600171 53.8348 0.623859 53.5312C0.612061 52.4155 0.600075 51.2979 0.588277 50.1881C0.627394 49.4289 0.644657 50.5509 0.644244 47.2216C0.643933 44.4937 0.626662 46.1176 0.61507 45.3757C0.599246 44.3712 0.630376 43.4897 0.61269 42.4092C0.599133 41.574 0.566857 42.4776 0.575033 40.2988C0.616844 41.175 0.660018 42.0688 0.702346 42.9509C0.692928 43.4824 0.683366 44.01 0.673844 44.5415C0.662667 44.0041 0.651637 43.4758 0.64046 42.9384C0.660536 44.8308 0.679471 46.619 0.700271 48.5757C0.639832 47.939 0.662492 49.9615 0.669633 51.0597C0.680798 52.7703 0.639202 51.3048 0.646136 52.4262C0.653176 53.5476 0.699647 54.7572 0.689713 56.7841C0.662809 55.6977 0.638683 57.1755 0.61385 56.8899C0.589017 56.6037 0.583518 54.4598 0.556418 56.5195C0.577013 60.4798 0.671584 56.1824 0.686905 58.8572C0.705325 62.0697 0.551168 62.8341 0.518029 61.8766C0.491949 61.1231 0.497194 58.5302 0.471218 57.7708C0.424338 62.4146 0.516885 62.4549 0.534996 63.2493C0.600915 66.1348 0.424973 64.1966 0.488612 67.6135C0.45571 67.5492 0.426118 67.4972 0.394561 67.4329C0.400563 68.0225 0.408539 68.414 0.413298 69.1263C0.477405 67.0257 0.474657 68.7451 0.474758 69.6275C0.474965 71.0177 0.506234 68.8703 0.514306 69.2383C0.535908 70.2314 0.526099 71.8018 0.554343 70.8383C0.5412 71.2706 0.528018 71.7391 0.514978 72.183C0.531355 73.8072 0.668681 77.6245 0.640948 73.9916C0.69197 74.3304 0.667447 75.5056 0.659685 76.4227C0.65193 77.3395 0.684424 77.3225 0.678422 78.1285C0.65441 81.335 0.598828 79.2374 0.555259 78.7292C0.58527 82.9639 0.605125 78.8181 0.625202 84.9206C0.660699 85.5105 0.698577 82.6908 0.719069 85.0389C0.6574 85.4714 0.613099 87.2003 0.592611 90.5703C0.606789 90.8974 0.621094 91.2237 0.635272 91.5508C0.578351 93.3908 0.519161 92.4503 0.589742 95.8558C0.459862 94.0275 0.542953 95.2845 0.490077 98.3336C0.479417 98.9528 0.452471 97.522 0.43881 98.3865C0.432649 98.7784 0.452989 99.7298 0.437284 100.687C0.429523 101.154 0.379443 103.339 0.403228 104.852C0.466151 103.742 0.519681 106.616 0.571738 104.151C0.558904 108.708 0.589116 111.896 0.503321 106.791C0.484278 107.948 0.465317 109.105 0.446378 110.262C0.461384 111.068 0.476272 111.881 0.491175 112.693C0.43946 112.815 0.424952 112.692 0.434049 115.868C0.421843 114.49 0.409434 113.118 0.397125 111.734C0.386682 111.687 0.375827 111.495 0.365693 111.541C0.385556 113.236 0.394105 118.008 0.407866 119.164C0.421631 120.321 0.425398 118.087 0.438749 118.42C0.548838 121.194 0.467643 120.974 0.486537 122.965C0.497714 124.133 0.509851 121.344 0.514611 121.969C0.53206 124.286 0.473551 125.361 0.472804 127.416C0.506015 126.686 0.539742 125.962 0.573263 125.25C0.571504 127.405 0.571209 129.808 0.581869 131.812C0.58603 132.598 0.61073 132.004 0.612385 132.132C0.620872 132.769 0.634314 135.363 0.634418 135.637C0.634615 137.704 0.600404 137.763 0.598531 139.771C0.595634 138.983 0.593024 138.241 0.59023 137.471C0.534765 137.12 0.479303 136.763 0.423735 136.412C0.419699 138.38 0.415747 140.35 0.411711 142.323C0.430233 140.881 0.448667 139.433 0.46719 137.99C0.512 140.245 0.556913 142.5 0.601826 144.755C0.574299 145.929 0.546777 147.098 0.51925 148.272C0.526512 151.46 0.638255 150.818 0.540367 152.331C0.548642 153.271 0.556913 154.211 0.565085 155.151C0.551118 155.017 0.537123 154.884 0.523156 154.75C0.531746 155.883 0.540279 157.016 0.548973 158.149C0.598436 156.957 0.650487 155.789 0.698501 154.61C0.70925 156.84 0.667288 156.882 0.656816 157.215C0.62908 158.097 0.666492 159.848 0.640826 160.549C0.632014 160.786 0.60439 158.6 0.572531 159.354C0.566356 159.501 0.449242 162.427 0.476283 164.294C0.497499 164.258 0.523513 164.114 0.546592 164.038C0.547169 164.151 0.547498 164.261 0.547598 164.368L0.5 164.32C2.79253 164.318 3.94666 164.421 3.62869 164.45C4.96635 164.428 6.9214 164.427 7.19594 164.393C7.8794 164.392 8.55761 164.391 9.24104 164.39C8.52894 164.473 11.3794 164.458 11.5663 164.387C10.3922 164.385 9.21674 164.383 8.04261 164.381C8.93051 164.294 5.3626 164.242 12.7865 164.322C14.2059 164.368 10.2634 164.316 11.42 164.35C13.4292 164.37 15.3154 164.353 17.2253 164.385C19.602 164.424 16.6779 164.462 22.2152 164.412C10.0011 164.286 23.8903 164.327 29.6267 164.288C31.2039 164.412 36.0482 164.452 42.7191 164.415C42.024 164.38 39.9253 164.398 38.716 164.387C37.5071 164.375 38.8151 164.355 37.3091 164.339C35.8025 164.322 32.6024 164.3 31.0773 164.276C32.369 164.256 38.7453 164.21 34.5293 164.266C37.6766 164.3 39.1546 164.335 43.0553 164.342C44.2235 164.288 44.137 164.254 47.9392 164.253C45.6905 164.328 50.0111 164.38 49.0598 164.457C46.3635 164.439 47.8706 164.364 46.3112 164.328C46.1513 164.324 43.6391 164.343 43.0553 164.342C45.5904 164.409 46.467 164.434 44.9074 164.515C46.7007 164.508 47.8161 164.518 47.9797 164.479C48.3534 164.496 48.7293 164.513 49.0972 164.529C49.6808 164.529 50.2061 164.527 50.8248 164.528C49.9727 164.47 51.6243 164.506 52.7983 164.479C53.9724 164.453 52.3972 164.407 55.6216 164.407C54.5468 164.393 53.5641 164.381 52.5244 164.369C54.6036 164.354 56.6894 164.339 58.7686 164.324C57.3083 164.288 54.1437 164.236 54.2302 164.189C55.1879 164.207 58.4687 164.176 58.8278 164.175C60.218 164.17 59.4603 164.199 59.5655 164.2C61.7496 164.214 63.5485 164.204 64.3779 164.249C66.0191 164.229 67.2568 164.24 68.9972 164.239C69.9552 164.238 69.7689 164.206 70.3295 164.212C74.056 164.253 70.5057 164.296 77.6944 164.215C76.8241 164.192 75.9654 164.169 75.0952 164.146C75.9072 164.138 76.7143 164.129 77.5263 164.12C78.0695 164.124 78.6079 164.129 79.1511 164.133C79.1395 164.182 79.1255 164.232 79.1138 164.281C79.7096 164.284 80.3078 164.286 80.9036 164.289C79.8814 164.294 78.8567 164.299 77.8344 164.304C77.7411 164.312 77.6539 164.321 77.5605 164.33C79.0792 164.343 80.5927 164.357 82.1114 164.37C82.1406 164.353 82.1694 164.336 82.1986 164.319C85.6215 164.342 85.7031 164.357 88.9564 164.31C91.4624 164.31 93.503 164.238 94.9517 164.208C95.4714 164.218 95.9918 164.228 96.5174 164.237C96.8504 164.223 97.1867 164.209 97.5197 164.194C98.1797 164.214 98.8488 164.234 99.5088 164.254C99.8766 164.209 100.067 164.195 97.4917 164.179C98.3738 164.123 102.908 164.148 104.754 164.166C106.154 164.181 104.6 164.228 104.776 164.233C105.36 164.253 107.668 164.236 108.153 164.239C110.203 164.252 111.64 164.25 113.491 164.26C113.852 164.262 114.86 164.292 114.945 164.293C115.611 164.298 117.255 164.313 117.442 164.313C127.083 164.335 116.781 164.206 125.746 164.22C125.478 164.203 125.231 164.186 124.968 164.169C125.645 164.168 126.33 164.167 127.007 164.166C127.866 164.18 126.827 164.206 128.532 164.185C128.421 164.206 128.31 164.227 128.193 164.248C128.935 164.237 129.65 164.225 130.409 164.214C131.601 164.287 135.951 164.303 135.642 164.388C135.537 164.417 132.453 164.447 134.083 164.478C135.407 164.484 134.51 164.45 135.051 164.448C138.953 164.435 138.726 164.484 140.321 164.471C140.572 164.45 140.836 164.429 141.092 164.408C141.694 164.414 142.297 164.42 142.904 164.426C143.044 164.412 143.19 164.398 143.331 164.384C142.764 164.383 142.126 164.382 141.606 164.381C142.331 164.327 148.988 164.303 146.45 164.349C145.416 164.368 143.522 164.36 144.719 164.424C146.5 164.414 148.522 164.405 150.397 164.396C150.455 164.41 150.509 164.423 150.568 164.437C153.095 164.428 150.797 164.373 150.801 164.344C151.379 164.343 151.963 164.342 152.541 164.341C152.786 164.355 153.019 164.369 153.276 164.382C153.299 164.36 153.623 164.311 155.346 164.329C156.454 164.341 154.709 164.395 156.821 164.387C156.664 164.354 155.901 164.314 158.253 164.303C158.487 164.338 158.81 164.369 158.991 164.406C161.917 164.373 163.248 164.426 166.683 164.387C168.862 164.363 171.846 164.276 173.254 164.41C174.848 164.413 174.342 164.38 174.813 164.373C177.039 164.337 178.694 164.401 179.109 164.404C181.754 164.428 182.94 164.406 185.095 164.436C184.978 164.411 184.914 164.388 184.821 164.364C182.847 164.401 181.847 164.399 179.078 164.391C180.006 164.386 180.935 164.381 181.864 164.376C181.712 164.356 181.562 164.336 181.416 164.316C172.852 164.395 174.85 164.27 182.029 164.243C182.648 164.28 183.289 164.317 183.903 164.354C188.05 164.298 190.001 164.347 194.692 164.359C195.249 164.36 197.28 164.339 198.153 164.337C198.138 164.337 198.124 164.337 198.109 164.337C198.652 164.302 197.917 164.286 197.829 164.255C198.302 164.251 198.776 164.247 199.249 164.243C200.305 164.267 199.934 164.286 202.013 164.281C201.733 164.257 201.456 164.233 201.176 164.209C203.454 164.208 204.945 164.234 207.065 164.223C206.709 164.232 206.357 164.241 206 164.25C210.615 164.273 206.943 164.413 210.43 164.343C210.652 164.355 210.868 164.368 211.09 164.38C209.653 164.383 208.216 164.386 206.785 164.389C206.756 164.406 206.724 164.423 206.701 164.441C208.237 164.436 209.781 164.43 211.317 164.425C210.195 164.437 209.067 164.448 207.946 164.46C209.727 164.468 211.509 164.476 213.291 164.485C211.399 164.421 213.851 164.413 213.39 164.35C216.544 164.403 219.022 164.472 223.911 164.428C224.881 164.419 224.354 164.375 227.105 164.428C226.439 164.358 229.886 164.326 229.443 164.259C228.485 164.262 227.492 164.264 226.563 164.268C227.621 164.291 227.796 164.355 226.19 164.374C224.14 164.398 221.149 164.354 221.272 164.424C220.454 164.421 219.694 164.419 218.9 164.416C219.227 164.399 219.547 164.381 219.868 164.363C217.608 164.391 216.188 164.382 215.102 164.338C217.795 164.328 220.481 164.318 223.174 164.308C222.777 164.305 222.375 164.302 221.978 164.299C224.017 164.254 221.914 164.211 225.717 164.202C225.693 164.222 225.675 164.243 225.651 164.263C227.036 164.208 230.826 164.209 229.617 164.145C230.762 164.165 230.995 164.177 231.644 164.143C234.663 164.191 236.603 164.252 235.528 164.325C236.65 164.313 237.772 164.301 238.887 164.289C238.239 164.27 237.59 164.25 236.941 164.23C238.893 164.231 240.858 164.232 242.803 164.234C242.99 164.292 239.048 164.251 240.185 164.304C240.413 164.314 241.463 164.292 241.738 164.298C244.647 164.362 240.081 164.316 240.938 164.365C243.985 164.376 243.176 164.42 244.5 164.421L244.553 164.421L244.553 164.368C244.553 163.808 244.546 162.868 244.525 161.094C244.542 160.936 244.56 160.767 244.577 160.621C244.578 158.548 244.539 158.716 244.532 156.935C244.527 155.82 244.595 154.42 244.549 153.187C244.54 152.968 244.458 155.04 244.462 150.685C244.465 147.304 244.523 148.711 244.543 146.884C244.564 145.056 244.483 140.873 244.575 139.641C244.563 140.598 244.556 141.818 244.546 142.881C244.564 143.313 244.582 143.734 244.599 144.16C244.576 141.73 244.603 139.219 244.561 137.583C244.626 134.341 244.566 130.715 244.492 131.697C244.503 132.764 244.535 131.603 244.514 133.085C244.497 133.237 244.48 133.397 244.463 133.549C244.465 131.025 244.465 129.273 244.517 130.424C244.518 130.032 244.519 129.645 244.521 129.253C244.483 129.183 244.445 129.121 244.408 129.051C244.403 128.584 244.399 128.114 244.395 127.647C244.403 127.127 244.412 126.607 244.42 126.081C244.48 126.788 244.481 127.992 244.515 124.008C244.494 123.996 244.474 123.979 244.453 123.968C244.479 120.632 244.529 120.544 244.527 116.357C244.599 119.57 244.472 121.327 244.616 121.316C244.606 122.122 244.597 122.934 244.587 123.74C244.608 123.863 244.629 123.985 244.65 124.102C244.639 119.773 244.502 112.584 244.592 109.686C244.581 109.336 244.572 108.984 244.56 108.628C244.615 105.789 244.492 104.563 244.563 101.683C244.57 101.386 244.685 102.008 244.681 98.2592C244.666 98.3526 244.641 98.4012 244.622 98.4771C244.631 97.6654 244.641 96.858 244.65 96.0522C244.636 95.9062 244.623 95.7531 244.609 95.6071C244.603 96.9915 244.598 98.372 244.592 99.7564C244.588 98.6062 244.583 97.4484 244.578 96.2981C244.555 97.7989 244.555 98.4759 244.519 97.5713C244.517 96.2686 244.514 94.9642 244.512 93.6616C244.503 93.5274 244.494 93.3942 244.484 93.2601C244.457 93.8908 244.429 94.528 244.401 95.1589C244.424 91.7652 244.425 88.8147 244.48 86.2096C244.489 85.7657 244.525 87.3356 244.492 84.3108C244.512 84.264 244.527 84.1828 244.545 84.1302C244.491 80.4268 244.507 79.2102 244.546 75.3491C244.51 77.8492 244.533 75.6185 244.514 74.9818C244.501 74.5455 244.503 76.2483 244.489 76.0557C244.475 75.8629 244.419 73.6503 244.412 75.5421C244.527 80.1801 244.39 81.4436 244.445 87.4018C244.43 86.4847 244.415 85.561 244.4 84.6439C244.39 85.0758 244.381 85.4625 244.371 85.9294C244.393 82.6064 244.378 84.2225 244.361 82.8571C244.343 81.4902 244.328 79.006 244.323 77.3413C244.322 76.8168 244.347 77.37 244.35 76.1864C244.351 75.3804 244.313 73.1776 244.358 72.669C244.387 72.336 244.468 75.8749 244.468 70.9818C244.497 70.0608 244.488 72.4068 244.491 72.4573C244.525 72.8837 244.551 69.8756 244.525 68.4854C244.523 68.3728 244.496 69.4706 244.486 68.2768C244.461 65.4438 244.491 63.8076 244.533 61.9734C244.484 61.7748 244.426 59.3907 244.444 56.4233C244.43 56.2715 244.416 56.1269 244.402 55.9751C244.41 56.4358 244.417 56.8964 244.424 57.3572C244.416 57.8595 244.409 58.3918 244.399 58.8824C244.387 55.8982 244.32 55.4762 244.296 54.0452C244.212 49.1481 244.389 52.1161 244.419 52.9993C244.407 53.636 244.393 54.2516 244.38 54.8825C244.397 54.8124 244.414 54.7413 244.431 54.677C244.431 47.3464 244.541 53.5607 244.572 49.8398C244.489 48.8819 244.481 46.1491 244.534 42.6679C244.533 42.2824 244.533 41.8955 244.533 41.51C244.521 41.4458 244.502 41.4468 244.494 41.3419C244.48 37.1478 244.608 36.4007 244.62 36.0034C244.674 34.2395 244.599 32.8659 244.599 32.3459C244.596 30.1555 244.629 29.519 244.615 27.4339C244.6 25.1914 244.574 26.7248 244.552 26.0425C244.534 25.4952 244.53 23.726 244.512 22.9951C244.527 23.2855 244.542 23.6083 244.557 23.8978C244.578 21.5735 244.598 19.6739 244.603 17.0341C244.492 14.0553 244.68 11.5208 244.527 12.5486C244.517 15.0487 244.5 16.4466 244.461 17.7843C244.456 16.1432 244.451 14.5009 244.446 12.8599C244.463 12.381 244.479 12.0411 244.496 11.4747C244.46 10.2482 244.476 7.40494 244.465 6.28876C244.428 2.27854 244.383 2.29608 244.411 0.36792L244.5 0.457256C243.915 0.448943 243.15 0.434006 242.038 0.41024C243.135 0.40707 243.881 0.399872 244.5 0.391758L244.476 0.36792C244.493 1.68943 244.515 2.42774 244.51 4.75105C244.546 4.01502 244.538 2.28168 244.581 3.40321C244.572 0.661049 244.545 0.934187 244.516 0.36792L244.516 0.351759L244.5 0.351778C244.385 0.357553 244.235 0.363359 244.018 0.369043C242.91 0.398037 240.679 0.39966 240.805 0.437338C240.577 0.416622 240.401 0.396568 240.174 0.375879C238.036 0.376086 235.899 0.376099 233.761 0.376306C234.672 0.354679 235.583 0.333013 236.494 0.31149C235.806 0.303322 235.116 0.295184 234.427 0.287016C229.17 0.354285 220.105 0.230998 221.553 0.399987C219.018 0.405368 218.701 0.384173 217.323 0.352198C217.171 0.365028 217.023 0.375699 216.871 0.389977C215.236 0.376547 213.981 0.424713 212.538 0.412193C211.096 0.399769 210.738 0.354273 210.527 0.430747C209.593 0.408811 208.664 0.390588 207.735 0.370203C207.175 0.387576 206.615 0.404749 206.061 0.422019C205.184 0.412913 204.306 0.403844 203.43 0.394738C202.962 0.431243 199.517 0.415508 197.998 0.440024C196.557 0.400673 196.596 0.276777 193.205 0.298978C193.292 0.329707 193.379 0.360347 193.466 0.391076C192.689 0.384661 191.911 0.378266 191.128 0.371851C191.082 0.361821 191.041 0.351791 190.995 0.341762C191.392 0.344866 191.783 0.347954 192.181 0.351161C191.836 0.334188 191.498 0.317294 191.16 0.300321C189.974 0.325466 188.787 0.350612 187.595 0.375757C189.201 0.394795 190.808 0.413845 192.414 0.432883C190.399 0.455444 188.996 0.43294 187.244 0.458089C185.719 0.415664 186.282 0.391219 186.901 0.34518C186.335 0.349111 185.762 0.352906 185.195 0.356837C185.569 0.310791 184.611 0.283355 187.922 0.287077C187.695 0.273944 187.462 0.261422 187.241 0.247772C186.697 0.249842 186.345 0.238741 185.75 0.243805C184.126 0.257673 182.881 0.33855 182.992 0.366907C183.051 0.381761 184.653 0.353354 184.589 0.374353C184.43 0.425561 180.757 0.40257 186.055 0.454C184.296 0.4866 183.904 0.462014 181.964 0.452596C182.116 0.46966 182.264 0.486616 182.41 0.50368C181.51 0.495818 180.61 0.487984 179.711 0.480122C180.961 0.392468 174.331 0.359546 180.299 0.282866C178.535 0.278934 176.778 0.274981 175.02 0.270843C175.382 0.261841 175.744 0.252929 176.106 0.243927C176.9 0.248687 177.69 0.253369 178.484 0.258026C177.55 0.241576 176.614 0.225223 175.68 0.208773C173.472 0.229161 172.606 0.260517 171.596 0.299223C174.165 0.327468 173.326 0.288886 175.328 0.281218C175.258 0.30573 175.35 0.328276 175.175 0.354029C174.141 0.303257 170.766 0.340194 169.983 0.342677C167.601 0.350219 169.469 0.300333 167.876 0.299284C166.281 0.298249 164.4 0.327941 163.098 0.278472C163.121 0.306199 163.225 0.334886 163.319 0.360133C160.836 0.36924 161.332 0.336484 161.074 0.332241C156.974 0.26249 154.749 0.321377 150.058 0.328518C150.654 0.337106 151.256 0.34486 151.858 0.352931C148.319 0.411801 150.703 0.393775 153.775 0.413231C150.895 0.407331 149.246 0.457468 147.213 0.472371C145.181 0.487248 141.695 0.461498 140.421 0.441427C143.336 0.409138 146.48 0.430431 149.716 0.421531C149.348 0.393285 148.99 0.36938 148.611 0.338344C146.643 0.397627 145.502 0.357988 144.854 0.350123C142.95 0.327056 143.01 0.377939 141.859 0.323208C141.906 0.342036 141.94 0.357867 141.987 0.375452C138.056 0.367587 133.816 0.334301 131.257 0.403832C131.023 0.35861 130.847 0.315042 130.579 0.26889C128.914 0.30293 127.489 0.268071 126.087 0.27603C124.691 0.283999 125.222 0.320545 123.581 0.334621C123.277 0.337209 122.645 0.314334 121.897 0.331203C121.142 0.348162 118.358 0.474254 118.025 0.3641C116.617 0.363582 115.285 0.359554 113.906 0.357691C115.25 0.351482 116.594 0.345469 117.931 0.33926C116.787 0.312562 115.649 0.285944 114.504 0.259247C114.358 0.28305 114.212 0.307283 114.071 0.330776C110.987 0.359753 108.749 0.320835 105.636 0.330044C105.116 0.331596 106.342 0.378657 104.036 0.366663C101.729 0.354659 100.016 0.266821 96.0857 0.300748C95.8871 0.302508 94.7231 0.36978 93.3153 0.323208C92.995 0.312653 94.3433 0.297035 93.6079 0.283171C92.8719 0.269303 89.588 0.2579 89.331 0.224885C89.366 0.236577 89.5709 0.248691 89.6703 0.260589C89.1096 0.266176 88.5433 0.271768 87.9769 0.277251C87.9243 0.256659 87.8676 0.236036 87.815 0.215548C84.5908 0.263462 82.9244 0.341624 78.1467 0.315762C79.4901 0.345669 80.834 0.375695 82.1715 0.405602C82.5396 0.384593 82.9082 0.363442 83.2704 0.342433C85.4722 0.350815 87.6801 0.359136 89.8819 0.367518C90.2441 0.343611 90.5999 0.319773 90.9621 0.295866C91.5461 0.29897 92.1243 0.301978 92.7083 0.305082C92.5623 0.322364 92.4151 0.339555 92.2632 0.356837C93.4195 0.352595 94.5773 0.348262 95.7277 0.34402C93.3855 0.446033 89.1868 0.335343 89.4897 0.420676C88.9701 0.407437 88.4498 0.394105 87.9302 0.380761C87.7023 0.422139 86.6457 0.41023 84.7832 0.40371C85.2096 0.424098 85.6805 0.444208 86.0719 0.464803C84.2611 0.436035 81.049 0.438829 79.1739 0.427756C78.3504 0.422893 79.173 0.392894 78.928 0.389367C77.6721 0.370945 75.2717 0.42329 74.7693 0.419151C71.767 0.394515 69.816 0.295277 66.5391 0.360682C69.9213 0.376827 68.0813 0.370008 69.2846 0.406334C69.6613 0.417723 74.0307 0.441482 68.5593 0.43093C67.9179 0.429609 57.9902 0.361043 61.2536 0.308499C59.6472 0.325265 58.3895 0.344651 56.9175 0.362452C53.3192 0.223979 54.5645 0.354064 55.6101 0.425681C55.0202 0.425992 54.4589 0.426719 53.8514 0.426719C55.1424 0.35148 48.5654 0.346808 46.334 0.38479C45.5864 0.397416 47.677 0.421499 45.948 0.432883C45.1248 0.427606 44.1908 0.420775 43.3209 0.414878C44.5825 0.462481 42.1064 0.480826 42.1411 0.529253C40.5582 0.4861 39.3475 0.394634 40.2174 0.345058C38.9092 0.365131 37.5941 0.38518 36.2859 0.405357C36.8934 0.416845 37.5088 0.428231 38.1163 0.439718C33.8404 0.409292 28.3425 0.478528 27.4487 0.376794C26.8822 0.377519 26.3095 0.378145 25.7429 0.378869C25.5677 0.396049 25.3983 0.413262 25.2231 0.430442C22.6593 0.415542 20.1014 0.400544 17.5376 0.385644C19.8204 0.374983 20.3638 0.35053 22.7578 0.370386C21.8352 0.350628 20.8955 0.33076 19.9905 0.311002C16.3865 0.364196 15.8948 0.399157 10.4685 0.383325C10.2231 0.3826 6.12315 0.337991 5.98296 0.333645C5.34068 0.313776 6.31564 0.284911 6.02965 0.274871C5.23522 0.246721 0.407878 0.176039 0.501339 0.165379C1.68131 0.0345647 17.9231 0.0328308 22.3158 0.0261038C67.8779 -0.0436463 112.437 0.0496705 157.713 0.0337328C158.178 0.0334861 157.975 0.0141751 158.173 0.0133481C159.406 0.00849804 160.616 0.0385943 161.071 0.039836C162.045 0.042395 161.509 0.0145885 162.22 0.0145687C169.568 0.0148792 176.503 0.0312304 183.857 0.02647C184.336 0.0261595 183.847 0.0484072 184.688 0.0444745C185.122 0.0423211 186.482 0.00818884 187.462 0.00767207C190.884 0.0059135 193.76 0.0168561 197.37 0.0163386C199.344 0.0160297 202.306 0.0189311 204.513 0.0184138C205.488 0.0181938 206.504 0.00257885 207.467 0.00205714C208.834 0.0013327 208.555 0.0329871 208.766 0.0349534C209.688 0.0435413 209.816 0.00879833 210.692 0.00962511C212.322 0.011281 212.41 0.0344775 214.477 0.0325122C215.955 0.0310633 219.338 0.0127486 221.201 0.00736693C225.559 0.0342723 231.05 0.0235909 235.115 0.0146908C237.522 0.00941482 237.745 0.0418925 238.726 0.0417891C240.853 0.0414021 242.665 0.025555 244.5 0.0131026L244.854 0.0126683L244.855 0.36792C244.863 1.51599 244.869 2.67335 244.87 3.92304C244.871 8.23287 244.844 12.0524 244.842 16.2279C244.842 16.905 244.871 16.7495 244.872 17.4139C244.875 19.8731 244.88 23.0178 244.876 25.2083C244.871 27.6495 244.828 28.55 244.837 30.9389C244.84 31.6393 244.878 31.8446 244.882 33.0183C244.89 34.8931 244.857 36.9488 244.853 38.2571C244.848 40.0504 244.887 38.4909 244.881 40.9092C244.881 41.0086 244.854 41.3704 244.855 41.8897C244.859 43.4026 244.88 43.2524 244.878 45.4663C244.878 45.6787 244.852 48.6141 244.852 48.9059C244.851 50.6232 244.842 54.0807 244.848 55.0973C244.867 58.7306 244.909 55.8702 244.819 58.9602C244.841 60.3209 244.863 61.6703 244.885 63.1127C244.865 62.1501 244.836 66.0568 244.838 66.3313C244.853 68.6023 244.888 67.2495 244.882 70.1289C244.801 66.3262 244.872 73.8438 244.874 75.5203C244.884 83.5926 244.863 90.9303 244.864 99.0436C244.864 101.76 244.881 105.399 244.881 108.273C244.881 108.943 244.862 108.437 244.861 109.026C244.861 109.614 244.883 108.962 244.881 109.633C244.874 113.81 244.833 117.082 244.884 120.908C244.877 121.094 244.871 121.088 244.863 121.397C244.908 124.528 244.847 130.557 244.839 132.824C244.826 136.368 244.857 137.274 244.85 139.849C244.842 143.255 244.782 148.367 244.881 146.084C244.884 148.42 244.885 150.669 244.876 153.029C244.875 153.291 244.85 153.11 244.849 153.215C244.845 153.881 244.868 154.098 244.869 154.548C244.872 155.767 244.845 153.777 244.852 155.516C244.856 156.433 244.876 156.954 244.876 159.5C244.877 161.109 244.877 162.733 244.877 164.368L244.877 164.744L244.5 164.745C230.533 164.745 215.702 164.739 201.614 164.736C200.534 164.736 201.245 164.76 199.89 164.759C195.182 164.753 186.755 164.712 182.695 164.718C178.635 164.724 179.551 164.759 177.011 164.774C176.52 164.777 176.923 164.757 176.479 164.756C173.494 164.755 169.935 164.723 167.517 164.718C165.918 164.715 166.046 164.747 164.936 164.749C163.283 164.752 161.582 164.72 160.7 164.719C156.553 164.715 153.703 164.741 149.83 164.727C149.982 164.734 150.082 164.741 150.21 164.748C145.625 164.747 141.046 164.746 136.461 164.744C136.677 164.751 136.886 164.757 137.102 164.764C131.722 164.76 132.336 164.691 132.809 164.838C132.418 164.843 132.003 164.849 131.63 164.854C131.781 164.778 128.527 164.723 124.386 164.703C124.082 164.702 122.044 164.776 122.266 164.688C121.735 164.71 121.418 164.724 120.968 164.743C120.092 164.717 119.205 164.691 118.329 164.664C117.856 164.668 117.376 164.672 116.903 164.676C116.833 164.693 116.887 164.711 116.735 164.728C114.539 164.73 110.035 164.709 108.299 164.711C103.988 164.717 99.5995 164.763 96.2466 164.713C94.6133 164.718 96.2352 164.752 93.8061 164.747C93.5317 164.73 93.2736 164.714 92.9875 164.697C91.0023 164.773 90.5875 164.726 87.867 164.711C86.0271 164.7 84.8223 164.718 83.0701 164.715C82.6262 164.714 82.6891 164.692 82.3853 164.692C81.368 164.695 78.4655 164.725 77.7473 164.726C71.2406 164.734 65.6506 164.731 59.4534 164.722C58.7875 164.722 59.6509 164.744 58.9616 164.743C57.8527 164.741 58.5052 164.707 57.8628 164.706C56.0709 164.701 56.0573 164.737 53.5578 164.739C45.3276 164.745 35.8652 164.718 27.2672 164.716C26.9985 164.716 27.0145 164.737 26.7225 164.737C24.8187 164.738 22.8916 164.71 21.163 164.71C18.2949 164.71 16.1394 164.74 13.3064 164.74C8.88845 164.74 4.84613 164.73 0.5 164.726L0.142646 164.726L0.142208 164.368C0.143293 163.266 0.14404 162.146 0.144208 160.994C0.144932 156.333 0.142151 152.284 0.142254 147.173C0.142668 124.848 0.0764899 102.066 0.111677 79.5884C0.112608 79.0163 0.131029 79.2492 0.130231 79.0748C0.122263 77.4159 0.0974079 77.2678 0.149456 76.6779C0.139198 74.5646 0.100095 73.8978 0.102889 71.3457C0.104353 69.9855 0.164961 71.001 0.13371 68.6998C0.105459 66.6219 0.072244 68.915 0.106184 62.7357C0.107117 62.5722 0.14406 61.767 0.134442 60.4821C0.124921 59.1912 0.0984682 60.6854 0.0904992 57.5778C0.0718727 50.2824 0.103806 41.0479 0.093978 32.5666C0.0933571 32.0351 0.0736069 26.9158 0.0644995 25.9052C0.0468031 23.9496 0.0193503 24.3582 0.0126222 21.8181C0.0074476 19.8554 0.0385452 18.2361 0.0323356 15.9287C0.0315809 15.66 -0.000406623 15.2098 0.00383359 13.4759ZM244.375 129.259C244.343 128.78 244.228 127.916 244.263 125.02C244.266 124.745 244.346 126.227 244.359 124.628C244.367 126.193 244.37 127.717 244.375 129.259C244.375 129.259 244.375 129.259 244.375 129.259ZM0.74043 0.921996C0.734635 3.08912 0.728893 5.26369 0.723097 7.43084C0.709126 5.93547 0.695182 4.43795 0.681107 2.94843C0.70087 2.27093 0.720667 1.59949 0.74043 0.921996ZM106.827 164.182C106.825 164.182 106.823 164.182 106.821 164.182C109.099 164.167 111.378 164.153 113.656 164.138C113.417 164.149 113.177 164.16 112.937 164.171C111.139 164.188 109.339 164.205 107.546 164.222C107.307 164.209 107.066 164.196 106.827 164.182ZM88.8288 164.299C87.3743 164.285 87.7303 164.263 86.93 164.242C86.93 164.242 86.93 164.242 86.93 164.242C86.7188 164.237 85.7351 164.232 85.3549 164.231C85.4951 164.245 85.6762 164.258 85.8281 164.272C82.4343 164.305 75.7973 164.187 84.39 164.139C84.2615 164.156 84.1387 164.174 84.0102 164.191C88.2802 164.186 93.0404 164.224 88.8288 164.299ZM244.325 94.9254C244.268 91.2804 244.256 90.1116 244.295 85.6898C244.311 86.3144 244.327 86.9391 244.343 87.5637C244.327 88.2938 244.311 89.0187 244.294 89.7488C244.294 89.7509 244.294 89.753 244.294 89.7551C244.311 89.9011 244.329 90.0476 244.346 90.1877C244.339 91.7647 244.332 93.3484 244.325 94.9254ZM0.610554 113.169C0.724237 112.153 0.658157 112.446 0.683793 115.348C0.692693 116.353 0.712584 115.374 0.715895 115.999C0.733985 119.374 0.657818 119.644 0.618183 118.89C0.615492 116.98 0.613038 115.05 0.610554 113.175C0.610554 113.173 0.610554 113.171 0.610554 113.169ZM0.586935 25.5971C0.586935 25.595 0.586935 25.5929 0.586935 25.5908C0.614663 25.5033 0.622122 26.8639 0.648394 25.3294C0.64829 26.4968 0.64807 27.6642 0.647967 28.8375C0.645384 28.4934 0.642921 28.1419 0.640338 27.7978C0.630816 28.1016 0.621174 28.4061 0.611653 28.7099C0.643525 29.1245 0.624998 29.5099 0.614338 30.7363C0.648386 30.3975 0.682458 30.0603 0.716506 29.7215C0.706366 31.1465 0.696191 32.5766 0.686051 34.0016C0.67747 34.0191 0.668876 34.037 0.660295 34.0545C0.671261 34.5917 0.682347 35.1235 0.693314 35.6607C0.68307 35.8067 0.672919 35.9474 0.662675 36.0934C0.670435 36.7415 0.678188 37.3907 0.686051 38.0389C0.661237 38.2361 0.650513 36.8076 0.656816 39.34C0.631361 38.5632 0.605982 37.7881 0.580526 37.0054C0.582596 33.2028 0.584761 29.3997 0.586935 25.5971ZM0.645525 139.569C0.640765 135.381 0.658749 136.56 0.715041 137.53C0.691866 138.207 0.668701 138.891 0.645525 139.569ZM191.473 164.273C192.688 164.234 193.908 164.196 195.152 164.159C197.629 164.138 200.107 164.208 198.243 164.235C196 164.268 193.658 164.231 191.473 164.273ZM244.387 160.985C244.37 164.015 244.324 161.164 244.297 160.481C244.34 159.642 244.336 158.473 244.341 156.596C244.344 158.359 244.391 160.484 244.388 160.985C244.388 160.985 244.388 160.985 244.387 160.985ZM142.708 164.229C141.494 164.23 140.286 164.241 139.2 164.228C139.528 164.191 141.7 164.225 140.146 164.17C140.923 164.17 141.701 164.169 142.471 164.168C141.982 164.19 142.641 164.207 142.705 164.229C142.706 164.229 142.707 164.229 142.708 164.229ZM16.279 164.179C18.6623 164.223 19.114 164.204 21.5148 164.174C21.853 164.209 18.9905 164.269 17.1973 164.282C16.8936 164.247 16.5886 164.213 16.279 164.179ZM73.0044 0.538591C73.5767 0.49348 77.7984 0.487598 79.8961 0.500934C79.6463 0.507624 79.3957 0.514404 79.1459 0.521196C77.1014 0.526992 75.0489 0.532795 73.0044 0.538591ZM244.344 155.703C244.343 156.017 244.342 156.315 244.341 156.596C244.341 156.283 244.342 155.981 244.344 155.703ZM244.54 28.8129C244.583 29.8114 244.597 26.8434 244.58 30.4471C244.58 30.4471 244.58 30.4471 244.581 30.4471C244.57 32.8304 244.567 33.3565 244.563 35.5645C244.509 34.7697 244.489 30.2902 244.478 36.4641C244.478 36.5454 244.51 36.3836 244.506 37.3699C244.505 37.6744 244.478 38.6489 244.47 40.131C244.468 40.61 244.459 44.2094 244.459 39.303C244.421 39.449 244.382 39.1855 244.345 39.1972C244.335 37.282 244.409 35.81 244.407 33.784C244.404 30.7757 244.329 29.2449 244.428 28.6666C244.452 31.1961 244.453 35.5397 244.393 36.1062C244.393 38.5533 244.441 39.2561 244.465 37.2828C244.435 28.8304 244.538 34.9624 244.499 27.5616C244.485 27.474 244.47 27.1696 244.457 27.216C244.506 24.957 244.525 28.4566 244.54 28.8129ZM244.435 46.4873C244.406 45.027 244.377 43.5714 244.347 42.117C244.395 42.117 244.437 42.919 244.464 45.2204C244.454 45.6406 244.445 46.0671 244.435 46.4873ZM167.776 0.445333C167.566 0.471102 167.005 0.494716 166.597 0.519243C166.153 0.497511 155.638 0.476661 160.987 0.455343C161.764 0.452238 166.503 0.497804 167.776 0.445333ZM0.649981 163.599C0.646403 163.856 0.642823 164.112 0.639243 164.368L0.5 164.229C1.48047 164.242 2.45836 164.256 3.4357 164.27C2.45739 164.275 1.47872 164.281 0.5 164.287L0.580965 164.368C0.575559 163.449 0.570129 162.529 0.564719 161.61C0.593133 162.275 0.621567 162.935 0.649981 163.599ZM211.631 164.318C211.108 164.317 212.846 164.281 210.785 164.287C212.321 164.264 213.76 164.245 215.261 164.224C215.711 164.241 216.165 164.257 216.615 164.274C216.965 164.263 217.323 164.253 217.673 164.242C217.463 164.266 217.276 164.29 217.054 164.315C214.525 164.262 213.945 164.322 211.631 164.318ZM136.423 164.413C135.968 164.36 139.631 164.329 136.028 164.32C136.711 164.285 137.81 164.267 139.919 164.264C140.257 164.277 140.595 164.29 140.934 164.304C140.98 164.268 141.523 164.255 142.708 164.229C142.709 164.229 142.71 164.229 142.711 164.229C145.917 164.227 145.725 164.239 146.496 164.297C143.102 164.264 143.001 164.318 140.688 164.35C139.099 164.372 137.025 164.362 136.423 164.413ZM178.979 0.444723C176.579 0.489531 178.733 0.531325 174.475 0.483723C174.75 0.472339 175.025 0.461051 175.3 0.449667C176.526 0.447908 177.753 0.446275 178.979 0.444723ZM124.579 164.231C124.854 164.313 127.113 164.377 127.499 164.244C125.297 164.217 126.372 164.292 124.579 164.231ZM244.516 162.018C244.515 163.116 244.508 163.876 244.498 164.368C243.355 164.341 243.654 164.297 244.5 164.263L244.395 164.368C244.387 164.174 244.38 163.952 244.373 163.712C244.39 163.443 244.407 163.175 244.424 162.912C244.416 162.17 244.408 161.428 244.401 160.686C244.439 161.13 244.478 161.574 244.516 162.018ZM49.9252 164.322C53.1613 164.263 46.4319 164.289 48.6925 164.252C50.4975 164.223 52.8761 164.282 51.9765 164.319C51.3515 164.32 50.6557 164.321 49.9314 164.322C49.9293 164.322 49.9273 164.322 49.9252 164.322ZM68.6517 164.305C68.1203 164.242 68.8863 164.26 66.3296 164.272C65.5994 164.275 59.7973 164.251 62.2331 164.303C64.3064 164.303 66.4968 164.304 68.6517 164.305ZM244.424 113.07C244.452 113.031 244.512 117.499 244.497 118.072C244.497 118.072 244.497 118.072 244.497 118.072C244.456 119.62 244.45 114.907 244.394 116.951C244.443 112.425 244.324 111.07 244.481 111.386C244.488 114.052 244.456 112.79 244.424 113.07ZM17.5719 0.410057C17.5698 0.410057 17.5677 0.410057 17.5656 0.410057C17.8657 0.411341 20.3378 0.451411 20.0372 0.465291C17.0643 0.453391 17.5941 0.427015 14.8264 0.470357C14.6747 0.456397 14.5447 0.442857 14.3813 0.428794C15.4794 0.420514 16.0882 0.403744 17.5719 0.410057ZM156.408 0.390282C157.501 0.383141 159.494 0.412732 160.738 0.410972C156.778 0.524605 152.045 0.418642 156.408 0.390282ZM0.590841 66.5551C0.590881 66.5582 0.590922 66.5614 0.590963 66.5645C0.590901 66.5636 0.590841 66.5623 0.59078 66.5614C0.5908 66.5593 0.59082 66.5572 0.590841 66.5551ZM241.054 0.458455C240.914 0.451079 240.834 0.444672 240.805 0.439047C240.805 0.438518 240.805 0.437989 240.805 0.43746C240.882 0.444367 240.963 0.451352 241.054 0.458455ZM244.416 103.784C244.454 101.924 244.515 108.123 244.5 110.128C244.483 109.988 244.467 109.966 244.447 109.64C244.492 108.021 244.41 104.094 244.416 103.784ZM163.732 164.298C168.633 164.299 162.255 164.449 161.992 164.329C162.002 164.327 163.605 164.298 163.732 164.298ZM244.432 142.433C244.477 143.681 244.49 141.172 244.482 145.184C244.47 145.418 244.458 145.651 244.446 145.885C244.442 144.734 244.437 143.583 244.432 142.433ZM195.837 164.495C202.005 164.47 207.905 164.425 203.887 164.3C203.42 164.304 202.947 164.308 202.48 164.312C202.41 164.373 200.687 164.34 198.165 164.338C197.806 164.362 196.408 164.368 196.145 164.388C195.638 164.428 197.245 164.456 195.837 164.495ZM0.472133 99.2923C0.482586 99.3916 0.493093 99.4887 0.503443 99.588C0.515241 100.564 0.526982 101.542 0.53878 102.517C0.518721 102.36 0.498662 102.202 0.478603 102.044C0.47643 101.127 0.474244 100.215 0.472072 99.2985C0.472092 99.2965 0.472113 99.2944 0.472133 99.2923ZM244.564 52.4981C244.449 51.9378 244.47 53.8959 244.529 57.8677C244.54 56.0803 244.552 54.2855 244.564 52.4981ZM96.7197 164.449C96.5912 164.416 96.4649 164.384 96.3306 164.351C94.2219 164.385 94.6135 164.422 95.624 164.466C95.9917 164.46 96.3521 164.454 96.7197 164.449ZM66.3451 164.463C67.2199 164.47 66.7735 164.443 66.865 164.444C69.0788 164.458 69.3907 164.47 72.1069 164.45C72.4398 164.443 72.767 164.436 73.0999 164.428C71.8442 164.36 70.9324 164.397 68.2751 164.357C68.754 164.381 69.2311 164.404 69.7101 164.428C68.2325 164.423 66.7612 164.418 65.2837 164.413C65.1084 164.42 64.9328 164.427 64.7576 164.434C65.2831 164.444 65.8255 164.454 66.3451 164.463ZM0.501856 88.0116C0.504547 86.5746 0.507343 85.1311 0.510034 83.6941C0.493166 83.6416 0.476184 83.5911 0.459316 83.5385C0.473491 85.0277 0.487681 86.5224 0.501856 88.0116ZM244.512 22.9951C244.506 22.8812 244.5 22.7701 244.494 22.6714C244.501 22.681 244.507 22.8055 244.512 22.9951ZM13.7805 0.317532C12.151 0.305736 9.80295 0.313482 8.01561 0.311002C8.15612 0.353319 12.6989 0.341622 14.2941 0.367273C14.5504 0.35968 14.4693 0.322496 13.7805 0.317532ZM240.991 164.38C240.582 164.401 240.174 164.422 239.771 164.444C238.784 164.441 237.794 164.439 236.801 164.437C236.772 164.454 236.743 164.471 236.714 164.489C241.089 164.466 240.08 164.516 242.246 164.565C241.825 164.504 241.412 164.442 240.991 164.38ZM0.392242 42.291C0.403936 45.4511 0.425779 46.572 0.477626 44.7905C0.465728 43.6752 0.45382 42.5533 0.441922 41.438C0.425368 41.7242 0.408797 42.0107 0.392242 42.291ZM209.575 0.317044C206.93 0.336417 206.886 0.266835 204.302 0.305692C205.686 0.318522 207.07 0.331495 208.448 0.344325C208.82 0.335254 209.202 0.326117 209.575 0.317044ZM244.742 95.1402C244.766 94.0245 244.651 91.939 244.736 88.8025C244.711 88.0551 244.686 87.5866 244.662 86.9442C244.689 86.5703 244.716 86.1457 244.743 85.7894C244.743 85.7873 244.743 85.7852 244.743 85.7831C244.734 82.9384 244.7 84.7828 244.671 84.7186C244.659 84.6884 244.679 82.5771 244.653 83.2369C244.609 84.3759 244.634 88.6321 244.58 88.6438C244.598 87.1484 244.583 84.2284 244.547 85.0921C244.507 86.0383 244.574 88.7902 244.541 90.5426C244.628 88.0314 244.601 93.218 244.534 93.8079C244.585 96.8512 244.606 94.054 244.604 90.9348C244.655 92.839 244.627 90.0361 244.67 89.5745C244.695 91.5381 244.674 98.2766 244.742 95.1402ZM170.147 164.516C172.251 164.513 175.537 164.542 176.977 164.499C177.815 164.474 174.522 164.455 176.793 164.415C174.744 164.419 174.276 164.434 174.627 164.469C174.16 164.473 173.687 164.477 173.22 164.481C173.004 164.474 172.782 164.468 172.566 164.461C172.321 164.475 172.074 164.489 171.834 164.503C171.338 164.501 170.836 164.498 170.34 164.495C170.282 164.502 170.182 164.508 170.147 164.516ZM133.645 0.31918C134.229 0.318766 134.807 0.318355 135.391 0.317837C135.327 0.309446 135.25 0.300707 135.176 0.292082C135.123 0.285267 135.07 0.278451 135.017 0.271636C135.356 0.295985 138.138 0.336456 139.31 0.310452C139.899 0.297407 138.558 0.251096 141.056 0.243012C139.246 0.245394 137.569 0.251714 135.811 0.255646C135.969 0.241881 136.12 0.227969 136.278 0.214205C136.277 0.214184 136.276 0.214164 136.275 0.214144C135.691 0.21104 135.1 0.207788 134.516 0.204684C134.224 0.242873 133.937 0.280991 133.645 0.31918ZM98.4317 164.513C100.424 164.486 101.09 164.472 100.15 164.429C100.148 164.429 100.146 164.429 100.144 164.429C99.4021 164.448 98.6599 164.467 97.9181 164.487C98.0875 164.496 98.2565 164.505 98.4317 164.513ZM244.656 5.83741C244.49 1.60256 244.592 11.1396 244.648 9.32373C244.651 9.24195 244.638 6.23463 244.656 5.83741ZM244.567 161.24C244.568 162.281 244.569 163.323 244.571 164.368L244.571 164.438L244.5 164.439C244.377 164.439 244.255 164.439 244.132 164.439C244.254 164.448 244.377 164.457 244.5 164.467L244.599 164.467L244.599 164.368C244.61 164.219 244.621 164.07 244.632 163.923C244.611 163.03 244.589 162.134 244.567 161.24ZM0.316928 56.0495C0.271391 57.2729 0.254893 60.4134 0.304417 61.9482C0.310212 61.1421 0.316015 60.3357 0.321811 59.5296C0.327501 61.0535 0.333764 62.5604 0.339144 64.096C0.402585 64.1778 0.36578 62.408 0.38327 59.7443C0.386091 59.332 0.464839 56.6953 0.405486 55.7849C0.393287 55.6017 0.384992 58.4065 0.34952 56.4572C0.346728 57.3096 0.347347 58.0453 0.345797 58.851C0.330687 58.9094 0.31556 58.9673 0.30045 59.0315C0.305921 58.0352 0.311458 57.0457 0.316928 56.0495ZM182.393 164.511C185.282 164.515 185.639 164.489 186.24 164.444C184.897 164.45 183.553 164.455 182.209 164.46C182.273 164.477 182.329 164.494 182.393 164.511ZM0.302403 81.8732C0.295075 83.4548 0.33154 82.7774 0.338473 83.414C0.364548 85.8204 0.338487 87.4617 0.354829 89.8388C0.347792 89.681 0.341214 89.5362 0.334384 89.3843C0.334384 89.3864 0.334384 89.3885 0.334384 89.3905C0.30365 100.646 0.386349 94.7341 0.372895 87.9991C0.386452 87.8414 0.400027 87.6899 0.413481 87.5322C0.389783 84.5182 0.366979 81.7388 0.302403 81.8732ZM244.662 43.4617C244.67 43.3332 244.724 44.4254 244.699 42.3753C244.62 40.7518 244.659 43.4144 244.629 44.0811C244.621 43.5262 244.614 42.9586 244.606 42.4095C244.584 45.7274 244.603 46.2117 244.66 45.0025C244.664 44.9162 244.653 43.5905 244.662 43.4617ZM244.7 21.6566C244.584 21.201 244.637 25.3882 244.673 25.2363C244.674 24.6583 244.654 24.209 244.663 23.5959C244.672 22.9768 244.699 22.8185 244.7 21.6566ZM244.672 141.62C244.673 141.498 244.721 140.265 244.683 140.388C244.593 141.912 244.651 144.984 244.682 144.447C244.681 143.431 244.667 142.753 244.672 141.62C244.672 141.62 244.672 141.62 244.672 141.62ZM0.289586 36.993C0.286349 37.0513 0.266751 40.126 0.284948 40.5229C0.305435 40.8499 0.327393 41.0122 0.348604 41.2575C0.328941 39.5635 0.34392 36.1347 0.289586 36.9992C0.289586 36.9971 0.289586 36.9951 0.289586 36.993Z" fill="black"/>
</svg>
