<svg width="2000" height="1" viewBox="0 0 2000 1" fill="none" xmlns="http://www.w3.org/2000/svg">
<path d="M1833.92 0.903325C1838.44 0.948421 1823.36 0.91886 1833.37 0.986207C1831.29 0.990757 1829.18 0.99545 1827.1 1C1826.57 0.975058 1826.02 0.950177 1825.49 0.925236C1828.3 0.917891 1831.1 0.910548 1833.92 0.903203C1833.92 0.903244 1833.92 0.903284 1833.92 0.903325ZM1837.75 0.590963C1835.18 0.662102 1827.02 0.681069 1835.84 0.746717C1836.54 0.722302 1837.26 0.697893 1837.96 0.673478C1841.02 0.692414 1844.1 0.711345 1847.17 0.730177C1848.27 0.720869 1849.37 0.711551 1850.47 0.702346C1851.87 0.744772 1853.26 0.787313 1854.67 0.829842C1853.42 0.823633 1852.16 0.817315 1850.91 0.811106C1845.99 0.845558 1841.61 0.85498 1834.92 0.861396C1835.51 0.871435 1836.1 0.881385 1836.69 0.891424C1833.29 0.874349 1829.9 0.857232 1826.52 0.840157C1829.46 0.823396 1832.74 0.804756 1835.46 0.789134C1831.11 0.722612 1823.43 0.759635 1819.44 0.77351C1814 0.792448 1815.22 0.760817 1811.19 0.774059C1810.54 0.776129 1810.47 0.800922 1809.2 0.80134C1802.77 0.803307 1790.28 0.790165 1797.58 0.732313C1808.17 0.739765 1817.19 0.693308 1827.57 0.71028C1824.82 0.643387 1830.29 0.620624 1837.75 0.590963ZM1643.39 0.803965C1646.59 0.771476 1653.12 0.784587 1657.55 0.807138C1657.55 0.807138 1657.56 0.807138 1657.56 0.807138C1658.54 0.812106 1660.74 0.855282 1657.56 0.853523C1652.38 0.850508 1649.88 0.782543 1647.16 0.828683C1645.94 0.820093 1644.66 0.812451 1643.39 0.803965ZM1632.13 0.807993C1628.95 0.791332 1630.39 0.740119 1634.37 0.753979C1634.37 0.753939 1634.37 0.753898 1634.37 0.753857C1636.03 0.759653 1632.77 0.800132 1638.73 0.759045C1639.94 0.79101 1641.14 0.820091 1642.34 0.851021C1640.88 0.851538 1639.55 0.852377 1638.02 0.852791C1639.05 0.80025 1635.3 0.824524 1632.13 0.807993ZM1792.21 0.761242C1791.71 0.808509 1793.81 0.808211 1797.37 0.841011C1794.01 0.839459 1790.64 0.837803 1787.29 0.836251C1788.94 0.811216 1790.57 0.786277 1792.21 0.761242ZM1871.25 0.768566C1871.25 0.768566 1871.26 0.768566 1871.26 0.768566C1872.36 0.761115 1873.47 0.753637 1874.56 0.746289C1875.22 0.763159 1875.87 0.779955 1876.53 0.796824C1880.42 0.78099 1884.34 0.765157 1888.23 0.749219C1887.76 0.800749 1880.77 0.792364 1876.92 0.828378C1871.19 0.812853 1868.43 0.782942 1868.06 0.739271C1869.12 0.748995 1870.17 0.758842 1871.25 0.768566ZM934.709 0.563132C933.407 0.57741 932.121 0.591699 930.818 0.605977C932.55 0.612493 934.268 0.617467 936.014 0.625019C940.581 0.562931 941.01 0.617852 946.993 0.614033C965.332 0.602235 960.466 0.505803 977.03 0.647051C963.731 0.640332 968.842 0.706702 960.825 0.757825C959.164 0.718911 967.108 0.631149 961.725 0.612934C952.449 0.654117 943.529 0.692474 933.237 0.719069C933.537 0.725795 933.836 0.732545 934.137 0.739271C935.769 0.735028 937.388 0.730758 939.02 0.726515C937.259 0.744523 935.538 0.762375 933.748 0.780589C936.01 0.739715 930.245 0.762554 931.017 0.71559C931.36 0.694685 933.908 0.665683 935.411 0.645708C931.532 0.634844 927.554 0.624892 923.631 0.614338C925.664 0.597682 927.694 0.581008 929.712 0.564353C931.372 0.563835 933.019 0.563466 934.679 0.562949C934.689 0.56301 934.699 0.563071 934.709 0.563132ZM99.7803 0.780467C104.705 0.731826 113.655 0.723777 118.366 0.777904C112.166 0.778732 105.98 0.77964 99.7803 0.780467ZM1867.68 0.703262C1868.24 0.711531 1868.78 0.719711 1869.34 0.72798C1866.88 0.743293 1864.4 0.758501 1861.94 0.773815C1861.47 0.749918 1860.98 0.726017 1860.5 0.702224C1862.89 0.702535 1865.29 0.702951 1867.68 0.703262ZM1710.17 0.729872C1711.97 0.728426 1712.13 0.729209 1714.37 0.732618C1714.37 0.732598 1714.37 0.732578 1714.36 0.732557C1715.25 0.73383 1722.69 0.747788 1721.86 0.766186C1718.17 0.766496 1714.23 0.766186 1710.45 0.766186C1710.34 0.754084 1710.31 0.742077 1710.17 0.729872ZM1753.65 0.740613C1753.65 0.740654 1753.66 0.740695 1753.66 0.740736C1755.01 0.743531 1756.28 0.749219 1757.67 0.750257C1752.67 0.779213 1751.88 0.727262 1747.35 0.741956C1742.81 0.756755 1740 0.785418 1736.15 0.714248C1737.58 0.703588 1739.13 0.688338 1740.6 0.675919C1747.04 0.704376 1748.78 0.677596 1753.94 0.649554C1753.84 0.679976 1753.75 0.710191 1753.65 0.740613ZM1016.36 0.707107C1017.59 0.671923 1018.96 0.706447 1019.11 0.706863C1019.1 0.706903 1019.1 0.706944 1019.1 0.706985C1030 0.674401 1017.68 0.726461 1027.97 0.731947C1026.44 0.740741 1024.93 0.750026 1023.42 0.758923C1021.07 0.741955 1018.65 0.722729 1016.36 0.707107ZM1370.69 0.710403C1370.79 0.720648 1370.91 0.730917 1371.01 0.741163C1364.83 0.738782 1363.25 0.779116 1358.11 0.742383C1362.3 0.731622 1366.5 0.720938 1370.69 0.71028C1370.69 0.710321 1370.69 0.710362 1370.69 0.710403ZM1678.99 0.655352C1685.85 0.635792 1690.92 0.627173 1697.51 0.65822C1697.52 0.658261 1697.52 0.658301 1697.53 0.658342C1697.91 0.660253 1696.07 0.681689 1696.56 0.687088C1697.92 0.683882 1699.33 0.678953 1700.7 0.675126C1700.89 0.692291 1701.06 0.709453 1701.25 0.726515C1697.38 0.721652 1693.52 0.716792 1689.64 0.711928C1690.21 0.721967 1690.8 0.731918 1691.37 0.741956C1688.08 0.74713 1684.8 0.752285 1681.5 0.757458C1682.65 0.729319 1683.79 0.701172 1684.92 0.672929C1682.95 0.667032 1680.97 0.661352 1678.99 0.655352ZM1267.72 0.598287C1268.81 0.609464 1266.8 0.628211 1268.49 0.637835C1270.18 0.647338 1273.29 0.62648 1272.56 0.658037C1270.29 0.662277 1267.9 0.667139 1265.58 0.671586C1273.04 0.728491 1280.48 0.676999 1280.6 0.747266C1273.44 0.729052 1267.55 0.737514 1260.62 0.75697C1260.91 0.701193 1267.84 0.652967 1263.47 0.600606C1264.88 0.599882 1266.35 0.598823 1267.71 0.598409C1267.71 0.598368 1267.72 0.598327 1267.72 0.598287ZM1967.87 0.0038336C1972.11 0.0080768 1981.82 -0.0146867 1987.18 0.01781C1988.49 0.0258183 1992.88 0.129557 1992.86 0.143231C1992.73 0.189284 1987.37 0.195552 1993.11 0.225563C1991.18 0.225875 1989.31 0.227604 1987.39 0.228432C1987.73 0.259376 1988.07 0.290238 1988.4 0.321079C1990.74 0.316421 1993.07 0.311741 1995.41 0.30698C1995.52 0.317226 1995.64 0.327495 1995.75 0.33774C1987.36 0.337947 1992.31 0.377492 1987.96 0.414336C1991.97 0.43296 1996.01 0.451495 2000 0.470119C1997.7 0.467843 1994.98 0.466156 1992.94 0.463467C1992.67 0.515932 1997.52 0.503424 1998.35 0.513147C2003.03 0.568097 1979.2 0.540363 1977.25 0.616718C1981.06 0.625203 1985.05 0.633483 1988.95 0.641863C1987.83 0.651281 1986.7 0.660704 1985.58 0.670121C1976.75 0.617458 1966.84 0.598802 1956.55 0.566001C1955.62 0.568172 1954.69 0.570402 1953.77 0.57247C1954.05 0.59616 1954.3 0.61976 1954.57 0.64345C1953.17 0.646245 1951.75 0.649017 1950.35 0.651812C1954.48 0.573786 1948.76 0.57485 1941.84 0.527245C1945.52 0.499825 1950.06 0.516449 1949.75 0.465359C1937.12 0.504666 1922.33 0.449115 1910.05 0.493494C1907 0.504463 1907.01 0.57037 1899.84 0.564292C1900.08 0.557047 1900.13 0.543968 1900.28 0.534447C1887.89 0.566012 1880.36 0.584882 1867.48 0.552696C1868.22 0.576384 1868.95 0.600171 1869.7 0.623859C1872.43 0.612061 1875.17 0.600075 1877.89 0.588277C1879.75 0.627394 1877 0.644657 1885.16 0.644244C1891.85 0.643933 1887.87 0.626662 1889.69 0.61507C1892.15 0.599246 1894.31 0.630376 1896.96 0.61269C1899 0.599133 1896.79 0.566857 1902.13 0.575033C1899.98 0.616844 1897.79 0.660018 1895.63 0.702346C1894.33 0.692928 1893.03 0.683366 1891.73 0.673844C1893.05 0.662667 1894.34 0.651637 1895.66 0.64046C1891.02 0.660536 1886.64 0.679471 1881.84 0.700271C1883.4 0.639832 1878.45 0.662492 1875.76 0.669633C1871.56 0.680798 1875.15 0.639202 1872.41 0.646136C1869.66 0.653176 1866.69 0.699647 1861.73 0.689713C1864.39 0.662809 1860.77 0.638683 1861.47 0.61385C1862.17 0.589017 1867.42 0.583518 1862.37 0.556418C1852.67 0.577013 1863.2 0.671584 1856.64 0.686905C1848.77 0.705325 1846.9 0.551168 1849.24 0.518029C1851.09 0.491949 1857.45 0.497194 1859.31 0.471218C1847.92 0.424338 1847.83 0.516885 1845.88 0.534996C1838.81 0.600915 1843.56 0.424973 1835.18 0.488612C1835.34 0.45571 1835.47 0.426118 1835.63 0.394561C1834.18 0.400563 1833.22 0.408539 1831.47 0.413298C1836.62 0.477405 1832.41 0.474657 1830.25 0.474758C1826.84 0.474965 1832.1 0.506234 1831.2 0.514306C1828.77 0.535908 1824.92 0.526099 1827.28 0.554343C1826.22 0.5412 1825.07 0.528018 1823.98 0.514978C1820 0.531355 1810.65 0.668681 1819.55 0.640948C1818.72 0.69197 1815.84 0.667447 1813.59 0.659685C1811.34 0.65193 1811.39 0.684424 1809.41 0.678422C1801.55 0.65441 1806.69 0.598828 1807.94 0.555259C1797.56 0.58527 1807.72 0.605125 1792.76 0.625202C1791.32 0.660699 1798.23 0.698577 1792.47 0.719069C1791.41 0.6574 1787.18 0.613099 1778.92 0.592611C1778.11 0.606789 1777.31 0.621094 1776.51 0.635272C1772 0.578351 1774.31 0.519161 1765.96 0.589742C1770.44 0.459862 1767.36 0.542953 1759.89 0.490077C1758.37 0.479417 1761.88 0.452471 1759.76 0.43881C1758.8 0.432649 1756.47 0.452989 1754.12 0.437284C1752.98 0.429523 1747.62 0.379443 1743.91 0.403228C1746.63 0.466151 1739.59 0.519681 1745.63 0.571738C1734.46 0.558904 1726.65 0.589116 1739.16 0.503321C1736.32 0.484278 1733.49 0.465317 1730.65 0.446378C1728.68 0.461384 1726.68 0.476272 1724.69 0.491175C1724.39 0.43946 1724.7 0.424952 1716.91 0.434049C1720.29 0.421843 1723.65 0.409434 1727.04 0.397125C1727.16 0.386682 1727.63 0.375827 1727.52 0.365693C1723.36 0.385556 1711.67 0.394105 1708.83 0.407866C1706 0.421631 1711.47 0.425398 1710.66 0.438749C1703.86 0.548838 1704.4 0.467643 1699.52 0.486537C1696.65 0.497714 1703.49 0.509851 1701.96 0.514611C1696.28 0.53206 1693.64 0.473551 1688.61 0.472804C1690.4 0.506015 1692.17 0.539742 1693.92 0.573263C1688.63 0.571504 1682.74 0.571209 1677.83 0.581869C1675.91 0.58603 1677.36 0.61073 1677.05 0.612385C1675.49 0.620872 1669.13 0.634314 1668.46 0.634418C1663.39 0.634615 1663.25 0.600404 1658.33 0.598531C1660.26 0.595634 1662.07 0.593024 1663.96 0.59023C1664.82 0.534765 1665.7 0.479303 1666.56 0.423735C1661.73 0.419699 1656.91 0.415747 1652.07 0.411711C1655.61 0.430233 1659.15 0.448667 1662.69 0.46719C1657.16 0.512 1651.64 0.556913 1646.11 0.601826C1643.23 0.574299 1640.37 0.546777 1637.49 0.51925C1629.68 0.526512 1631.25 0.638255 1627.54 0.540367C1625.24 0.548642 1622.93 0.556913 1620.63 0.565085C1620.96 0.551118 1621.28 0.537123 1621.61 0.523156C1618.84 0.531746 1616.06 0.540279 1613.28 0.548973C1616.2 0.598436 1619.06 0.650487 1621.96 0.698501C1616.49 0.70925 1616.39 0.667288 1615.57 0.656816C1613.41 0.62908 1609.12 0.666492 1607.4 0.640826C1606.82 0.632014 1612.18 0.60439 1610.33 0.572531C1609.97 0.566356 1602.8 0.449242 1598.22 0.476283C1598.31 0.497499 1598.66 0.523513 1598.85 0.546592C1592.69 0.559479 1589.55 0.448734 1590.37 0.417692C1587.09 0.439424 1582.3 0.44124 1581.63 0.475185C1579.95 0.476013 1578.29 0.476798 1576.62 0.477626C1578.36 0.394955 1571.37 0.410071 1570.92 0.481166C1573.79 0.482925 1576.67 0.484777 1579.55 0.486537C1577.38 0.573676 1586.12 0.626273 1567.93 0.545555C1564.45 0.500225 1574.11 0.551731 1571.27 0.517785C1566.35 0.498028 1561.73 0.514559 1557.05 0.482997C1551.22 0.443569 1558.39 0.405647 1544.82 0.455838C1574.75 0.581578 1540.71 0.540781 1526.65 0.579794C1522.78 0.455603 1510.91 0.416266 1494.56 0.453213C1496.26 0.487777 1501.41 0.46997 1504.37 0.481349C1507.34 0.492732 1504.13 0.513237 1507.82 0.529381C1511.51 0.545521 1519.36 0.567463 1523.1 0.591878C1519.93 0.611441 1504.3 0.65769 1514.63 0.602132C1506.92 0.567883 1503.3 0.532689 1493.74 0.526269C1490.87 0.580186 1491.09 0.613759 1481.77 0.615314C1487.28 0.540392 1476.69 0.48832 1479.02 0.410918C1485.63 0.428946 1481.93 0.504176 1485.76 0.540184C1486.15 0.543783 1492.31 0.524924 1493.74 0.526269C1487.52 0.458688 1485.37 0.433534 1489.2 0.35312C1484.8 0.360158 1482.07 0.350062 1481.67 0.388458C1480.75 0.371801 1479.83 0.35513 1478.93 0.338473C1477.5 0.338888 1476.21 0.34043 1474.69 0.340121C1476.78 0.398038 1472.73 0.362384 1469.86 0.388641C1466.98 0.414928 1470.84 0.460648 1462.94 0.461269C1465.57 0.474827 1467.98 0.486459 1470.53 0.499292C1465.43 0.514193 1460.32 0.529189 1455.22 0.54409C1458.8 0.579479 1466.56 0.632044 1466.35 0.678605C1464 0.661026 1455.96 0.69192 1455.08 0.693191C1451.67 0.697952 1453.53 0.668588 1453.27 0.667863C1447.92 0.653593 1443.51 0.663592 1441.48 0.619098C1437.45 0.639174 1434.42 0.627728 1430.15 0.628864C1427.81 0.629485 1428.26 0.662165 1426.89 0.655962C1417.75 0.614568 1426.46 0.572337 1408.84 0.652727C1410.97 0.675493 1413.08 0.698782 1415.21 0.721755C1413.22 0.730344 1411.24 0.738981 1409.25 0.747571C1407.92 0.743431 1406.6 0.73926 1405.27 0.735121C1405.3 0.68576 1405.33 0.636295 1405.36 0.586935C1403.9 0.584244 1402.43 0.58163 1400.97 0.578939C1403.48 0.574075 1405.99 0.569217 1408.49 0.564353C1408.72 0.555667 1408.94 0.546978 1409.17 0.538292C1405.44 0.524838 1401.73 0.511263 1398.01 0.497706C1397.94 0.514876 1397.87 0.532168 1397.8 0.549339C1389.41 0.525433 1389.21 0.510897 1381.23 0.558188C1375.09 0.557671 1370.09 0.629465 1366.54 0.659685C1365.27 0.650062 1363.99 0.640317 1362.7 0.630695C1361.89 0.644977 1361.06 0.659196 1360.25 0.673478C1358.63 0.65361 1356.99 0.633737 1355.37 0.613972C1354.47 0.65907 1354 0.67315 1360.31 0.68898C1358.15 0.745071 1347.04 0.720327 1342.52 0.701492C1339.08 0.687199 1342.89 0.640414 1342.46 0.634723C1341.03 0.615389 1335.37 0.632071 1334.18 0.628864C1329.16 0.615514 1325.64 0.617851 1321.1 0.607502C1320.22 0.605431 1317.75 0.575781 1317.54 0.57485C1315.9 0.569779 1311.88 0.555368 1311.42 0.554954C1287.79 0.53282 1313.04 0.661459 1291.06 0.647906C1291.72 0.66487 1292.33 0.68172 1292.97 0.698684C1291.31 0.699719 1289.63 0.700702 1287.97 0.701736C1285.87 0.687558 1288.41 0.661774 1284.23 0.682572C1284.51 0.661668 1284.78 0.640754 1285.07 0.619953C1283.25 0.631234 1281.5 0.642423 1279.63 0.653704C1276.71 0.581158 1266.05 0.564683 1266.81 0.479518C1267.07 0.45054 1274.63 0.420806 1270.63 0.389862C1267.39 0.38377 1269.58 0.418379 1268.26 0.420195C1258.69 0.432821 1259.25 0.384311 1255.34 0.397247C1254.73 0.418037 1254.08 0.439235 1253.45 0.460232C1251.98 0.454129 1250.5 0.448025 1249.01 0.441922C1248.67 0.455894 1248.31 0.46988 1247.96 0.483851C1249.35 0.484783 1250.92 0.485727 1252.19 0.486659C1250.41 0.540773 1234.1 0.56508 1240.32 0.518945C1242.85 0.500215 1247.49 0.508173 1244.56 0.444241C1240.19 0.453452 1235.24 0.462862 1230.65 0.472072C1230.5 0.458308 1230.37 0.444518 1230.23 0.430753C1224.03 0.439663 1229.67 0.494697 1229.65 0.524194C1228.24 0.525021 1226.81 0.525746 1225.39 0.526574C1224.79 0.513237 1224.22 0.499277 1223.59 0.486354C1223.53 0.507578 1222.74 0.556911 1218.51 0.538597C1215.8 0.526677 1220.08 0.47313 1214.9 0.480556C1215.29 0.513666 1217.16 0.553994 1211.39 0.564658C1210.82 0.5301 1210.02 0.498442 1209.58 0.462124C1202.41 0.495323 1199.15 0.441957 1190.73 0.480556C1185.39 0.504981 1178.07 0.591683 1174.62 0.458096C1170.72 0.454579 1171.96 0.487846 1170.8 0.495325C1165.35 0.53072 1161.29 0.467375 1160.27 0.46365C1153.79 0.439767 1150.88 0.461694 1145.6 0.431791C1145.89 0.456526 1146.04 0.479939 1146.27 0.504053C1151.11 0.467003 1153.56 0.468742 1160.35 0.476711C1158.07 0.481677 1155.8 0.486758 1153.52 0.491724C1153.89 0.511796 1154.26 0.531873 1154.62 0.551841C1175.61 0.472773 1170.71 0.597697 1153.12 0.625019C1151.6 0.587872 1150.03 0.550824 1148.52 0.513574C1138.36 0.569871 1133.57 0.520999 1122.08 0.509302C1120.71 0.507964 1115.74 0.529362 1113.6 0.530419C1113.63 0.530561 1113.67 0.530704 1113.7 0.530846C1112.37 0.565924 1114.17 0.582069 1114.39 0.613422C1113.23 0.617354 1112.07 0.62127 1110.91 0.625202C1108.32 0.601302 1109.23 0.581671 1104.14 0.587362C1104.82 0.611162 1105.5 0.634969 1106.19 0.658769C1100.6 0.659597 1096.95 0.633738 1091.75 0.644915C1092.63 0.635911 1093.49 0.626882 1094.36 0.617878C1083.05 0.594902 1092.05 0.45497 1083.51 0.524621C1082.96 0.512413 1082.43 0.500087 1081.89 0.487879C1085.41 0.484879 1088.93 0.481969 1092.44 0.478969C1092.51 0.461692 1092.59 0.44449 1092.65 0.427213C1088.88 0.432388 1085.1 0.437724 1081.33 0.442899C1084.08 0.431308 1086.84 0.419702 1089.59 0.40811C1085.23 0.399832 1080.86 0.391549 1076.49 0.38327C1081.13 0.446799 1075.12 0.454568 1076.25 0.51748C1068.52 0.465113 1062.45 0.396083 1050.46 0.440274C1048.09 0.449078 1049.38 0.493041 1042.63 0.439542C1044.27 0.509493 1035.82 0.542318 1036.91 0.608845C1039.25 0.605638 1041.69 0.60362 1043.96 0.59969C1041.37 0.576613 1040.94 0.513128 1044.88 0.494288C1049.9 0.470279 1057.23 0.514277 1056.93 0.443814C1058.94 0.447125 1060.8 0.449078 1062.75 0.45187C1061.94 0.46935 1061.16 0.48694 1060.37 0.504419C1065.91 0.477015 1069.39 0.485927 1072.05 0.529992C1065.45 0.540132 1058.87 0.550165 1052.27 0.560202C1053.24 0.563199 1054.23 0.566219 1055.2 0.569113C1050.2 0.614132 1055.36 0.656774 1046.04 0.666398C1046.09 0.645809 1046.14 0.625205 1046.2 0.604512C1042.8 0.65957 1033.51 0.659272 1036.48 0.722609C1033.67 0.703154 1033.1 0.690849 1031.51 0.724989C1024.11 0.676865 1019.36 0.616009 1021.99 0.543358C1019.24 0.55505 1016.49 0.566759 1013.76 0.578451C1015.35 0.598317 1016.94 0.618091 1018.53 0.637957C1013.74 0.636715 1008.93 0.635495 1004.16 0.634357C1003.7 0.575581 1013.36 0.616525 1010.58 0.563986C1010.02 0.553441 1007.44 0.57603 1006.77 0.57009C999.64 0.505827 1010.83 0.552255 1008.73 0.503015C998.107 0.487802 1006.61 0.405295 991.976 0.474635C991.589 0.457666 991.174 0.440356 990.816 0.423491C985.736 0.422472 986.148 0.460801 981.783 0.468044C979.049 0.47255 975.617 0.405245 972.597 0.451077C972.059 0.459527 977.138 0.54179 966.463 0.53817C958.178 0.535364 961.626 0.477229 957.147 0.456631C952.666 0.436036 942.415 0.516644 939.394 0.42526C941.741 0.437364 944.731 0.443894 947.336 0.453824C948.395 0.436026 949.427 0.41842 950.472 0.400726C944.516 0.423699 938.36 0.396622 934.351 0.439054C926.405 0.374164 917.518 0.434381 919.924 0.507654C922.539 0.49709 919.694 0.465139 923.326 0.485499C923.699 0.502575 924.091 0.519568 924.463 0.536644C918.278 0.534574 913.983 0.535054 916.803 0.482997C915.844 0.481755 914.894 0.480516 913.935 0.479274C913.763 0.516945 913.61 0.554756 913.439 0.592427C912.293 0.59667 911.143 0.600879 909.998 0.605122C908.724 0.596848 907.448 0.588477 906.16 0.580099C907.893 0.520487 910.843 0.518519 901.079 0.485194C901.05 0.505789 901.009 0.526302 900.98 0.546897C892.805 0.520715 892.589 0.470826 882.326 0.472682C890.2 0.401178 894.508 0.527929 894.48 0.384491C896.455 0.393909 898.447 0.403453 900.423 0.412871C900.724 0.392069 901.022 0.371237 901.308 0.350435C890.7 0.361408 873.079 0.498212 865.976 0.4075C865.117 0.41857 864.255 0.428193 863.382 0.440091C856.424 0.385344 853.419 0.508256 846.361 0.437467C845.633 0.430038 847.157 0.31456 837.969 0.318698C838.198 0.333707 838.317 0.358968 838.503 0.3779C836.513 0.368692 834.535 0.359056 832.56 0.349642C832.202 0.363504 831.826 0.377361 831.469 0.391327C834.862 0.396708 838.245 0.40218 841.639 0.407561C838.819 0.41232 835.982 0.417084 833.162 0.421843C836.841 0.444499 838.5 0.44474 836.283 0.481044C833.09 0.483217 829.893 0.485523 826.7 0.487696C826.371 0.496998 826.045 0.506408 825.716 0.51571C827.262 0.543444 828.824 0.570566 830.37 0.598714C822.052 0.57605 814.821 0.574819 808.435 0.520287C807.347 0.511077 811.195 0.474945 803.782 0.507532C803.667 0.488396 803.468 0.472857 803.339 0.455166C794.262 0.508775 791.28 0.492774 781.817 0.454068C787.944 0.490187 782.477 0.466695 780.916 0.486048C779.847 0.499382 784.02 0.497412 783.548 0.511377C783.076 0.525244 777.653 0.581237 782.29 0.587972C793.657 0.473199 796.754 0.61042 811.358 0.555259C809.11 0.570058 806.846 0.584891 804.598 0.59969C805.656 0.609721 806.604 0.618821 807.749 0.629474C799.604 0.60702 803.565 0.621608 800.219 0.6393C796.868 0.656997 790.78 0.672032 786.699 0.676896C785.414 0.678424 786.77 0.652682 783.869 0.650286C781.893 0.64863 776.494 0.686792 775.248 0.641802C774.432 0.612517 783.105 0.531874 771.113 0.532067C768.855 0.503356 774.605 0.512273 774.729 0.508813C775.774 0.474661 768.401 0.448983 764.994 0.475063C764.718 0.477312 767.409 0.503925 764.483 0.514367C757.539 0.539309 753.529 0.508788 749.033 0.467495C748.546 0.515929 742.703 0.573773 735.43 0.555869C735.058 0.56973 734.703 0.583712 734.331 0.597676C735.461 0.59034 736.589 0.583102 737.719 0.575766C738.95 0.584459 740.255 0.590787 741.457 0.601033C734.143 0.612944 733.108 0.679694 729.601 0.704116C717.599 0.787544 724.873 0.611067 727.038 0.580648C728.598 0.592964 730.107 0.606711 731.653 0.619648C731.482 0.602778 731.307 0.585781 731.15 0.568808C713.183 0.569324 728.414 0.459304 719.294 0.427946C716.946 0.510942 710.248 0.518941 701.716 0.466274C700.771 0.466688 699.822 0.466794 698.878 0.467312C698.72 0.479413 698.723 0.49791 698.466 0.505884C688.186 0.519959 686.355 0.392144 685.381 0.380036C681.058 0.326332 677.691 0.400638 676.417 0.401275C671.048 0.403862 669.488 0.370868 664.378 0.38504C658.881 0.400354 662.639 0.42567 660.967 0.448331C659.626 0.466326 655.29 0.469532 653.498 0.488185C654.21 0.472928 655.001 0.457968 655.711 0.442655C650.014 0.421857 645.358 0.401585 638.888 0.396514C631.587 0.508142 625.375 0.31984 627.894 0.47256C634.022 0.483013 637.448 0.500416 640.726 0.539329C636.704 0.544296 632.679 0.549133 628.657 0.554099C627.483 0.537338 626.65 0.521003 625.262 0.503931C622.256 0.539525 615.287 0.524251 612.551 0.534691C599.738 0.583642 603.701 0.644356 592.005 0.54232C600.435 0.532378 600.422 0.48282 608.782 0.489649C606.978 0.454256 602.73 0.461589 605.479 0.419157C597.391 0.429609 600.005 0.467492 596.857 0.501123C594.142 0.530117 588.675 0.53174 588.984 0.569418C588.425 0.548703 587.993 0.528648 587.435 0.507959C582.196 0.508166 576.957 0.508179 571.719 0.508386C573.952 0.48676 576.184 0.465093 578.417 0.44357C576.729 0.435402 575.039 0.427265 573.351 0.419096C560.466 0.486365 538.247 0.363078 541.796 0.532067C535.583 0.537448 534.806 0.516253 531.428 0.484279C531.056 0.497108 530.694 0.507779 530.322 0.522057C526.314 0.508627 523.237 0.556793 519.702 0.544273C516.166 0.531849 515.288 0.486353 514.773 0.562827C512.482 0.540891 510.205 0.522668 507.929 0.502283C506.556 0.519656 505.184 0.536829 503.825 0.554099C501.677 0.544993 499.525 0.535924 497.378 0.526818C496.23 0.563323 487.787 0.547588 484.065 0.572104C480.531 0.532753 480.628 0.408857 472.315 0.431059C472.53 0.461787 472.742 0.492427 472.956 0.523156C471.052 0.516741 469.145 0.510346 467.227 0.503931C467.112 0.493901 467.013 0.483871 466.899 0.473842C467.872 0.476946 468.832 0.480034 469.805 0.483241C468.961 0.466268 468.133 0.449374 467.303 0.432401C464.397 0.457546 461.487 0.482693 458.567 0.507837C462.503 0.526875 466.441 0.545925 470.378 0.564963C465.438 0.587524 462 0.565021 457.705 0.590169C453.969 0.547745 455.349 0.523299 456.866 0.47726C455.478 0.481191 454.073 0.484986 452.685 0.488917C453.601 0.442871 451.253 0.415435 459.368 0.419157C458.81 0.406024 458.241 0.393502 457.698 0.379853C456.366 0.381922 455.503 0.370821 454.043 0.375885C450.063 0.389753 447.011 0.47063 447.283 0.498987C447.43 0.513841 451.355 0.485434 451.197 0.506433C450.809 0.557641 441.807 0.53465 454.791 0.58608C450.481 0.61868 449.519 0.594095 444.766 0.584676C445.138 0.60174 445.499 0.618696 445.857 0.63576C443.653 0.627898 441.446 0.620064 439.242 0.612202C442.306 0.524548 426.056 0.491626 440.684 0.414946C436.361 0.411014 432.053 0.407061 427.745 0.402923C428.632 0.393921 429.52 0.385009 430.407 0.376008C432.354 0.380768 434.289 0.385449 436.236 0.390106C433.946 0.373656 431.652 0.357303 429.362 0.340853C423.95 0.361241 421.829 0.392597 419.352 0.431303C425.65 0.459548 423.593 0.420966 428.5 0.413298C428.329 0.43781 428.555 0.460356 428.126 0.486109C425.59 0.435337 417.318 0.472274 415.4 0.474758C409.562 0.482299 414.14 0.432413 410.235 0.431364C406.327 0.430329 401.717 0.460021 398.524 0.410552C398.581 0.438279 398.837 0.466966 399.066 0.492213C392.981 0.50132 394.195 0.468564 393.565 0.464321C383.514 0.39457 378.061 0.453457 366.565 0.460598C368.025 0.469186 369.5 0.47694 370.974 0.485011C362.301 0.543881 368.144 0.525856 375.674 0.545311C368.616 0.539412 364.574 0.589548 359.591 0.604451C354.61 0.619328 346.066 0.593578 342.944 0.573507C350.088 0.541218 357.794 0.562511 365.725 0.553611C364.824 0.525365 363.947 0.50146 363.017 0.470424C358.193 0.529708 355.397 0.490068 353.808 0.482203C349.142 0.459136 349.289 0.510019 346.469 0.455288C346.583 0.474116 346.667 0.489947 346.782 0.507532C337.147 0.499667 326.754 0.466381 320.483 0.535912C319.911 0.49069 319.478 0.447122 318.82 0.40097C314.74 0.435011 311.246 0.400151 307.811 0.40811C304.389 0.416079 305.692 0.452625 301.669 0.466701C300.925 0.469289 299.374 0.446414 297.542 0.463283C295.691 0.480242 288.867 0.606334 288.051 0.49618C284.601 0.495662 281.335 0.491634 277.957 0.489771C281.25 0.483562 284.543 0.477549 287.822 0.47134C285.016 0.444642 282.228 0.418024 279.422 0.391327C279.064 0.41513 278.705 0.439363 278.361 0.462856C270.802 0.491833 265.316 0.452916 257.686 0.462124C256.412 0.463676 259.417 0.510737 253.764 0.498743C248.109 0.486739 243.913 0.398901 234.279 0.432828C233.792 0.434588 230.939 0.50186 227.489 0.455288C226.703 0.444733 230.008 0.429115 228.206 0.415251C226.402 0.401383 218.353 0.38998 217.723 0.356966C217.809 0.368657 218.311 0.380771 218.555 0.392669C217.181 0.398256 215.793 0.403848 214.404 0.409331C214.275 0.388739 214.136 0.368116 214.007 0.347628C206.105 0.395542 202.021 0.473705 190.311 0.447842C193.603 0.477749 196.897 0.507775 200.175 0.537682C201.077 0.516673 201.981 0.495522 202.869 0.474513C208.265 0.482895 213.677 0.491216 219.073 0.499598C219.961 0.475691 220.833 0.451853 221.721 0.427946C223.152 0.43105 224.57 0.434058 226.001 0.437162C225.643 0.454444 225.282 0.471635 224.91 0.488917C227.744 0.484675 230.582 0.480342 233.401 0.4761C227.661 0.578113 217.37 0.467423 218.112 0.552757C216.839 0.539517 215.563 0.526185 214.29 0.512842C213.731 0.554219 211.141 0.54231 206.576 0.53579C207.622 0.556178 208.776 0.576288 209.735 0.596883C205.297 0.568115 197.424 0.570909 192.828 0.559836C190.81 0.554973 192.826 0.524974 192.226 0.521447C189.147 0.503025 183.264 0.55537 182.033 0.551231C174.674 0.526596 169.892 0.427357 161.861 0.492762C170.15 0.508907 165.64 0.502088 168.59 0.538414C169.513 0.549803 180.222 0.573562 166.812 0.56301C165.24 0.56169 140.907 0.493123 148.906 0.44058C144.969 0.457345 141.886 0.476731 138.278 0.494532C129.459 0.356059 132.511 0.486144 135.074 0.557761C133.628 0.558072 132.252 0.558799 130.763 0.558799C133.927 0.48356 117.807 0.478888 112.338 0.51687C110.506 0.529496 115.63 0.553579 111.392 0.564963C109.374 0.559687 107.085 0.552855 104.953 0.546959C108.045 0.594562 101.977 0.612906 102.062 0.661333C98.182 0.61818 95.2145 0.526714 97.3466 0.477138C94.1402 0.497211 90.9171 0.51726 87.7107 0.537437C89.1996 0.548925 90.7078 0.560311 92.1967 0.571799C81.7166 0.541372 68.2414 0.610608 66.0508 0.508874C64.6621 0.509599 63.2587 0.510225 61.8699 0.51095C61.4404 0.528129 61.0253 0.545342 60.5958 0.562522C54.3121 0.547622 48.0426 0.532624 41.7589 0.517724C47.354 0.507063 48.6858 0.48261 54.5534 0.502466C52.2923 0.482708 49.989 0.46284 47.7708 0.443082C38.9374 0.496276 37.7324 0.531237 24.4326 0.515405C23.8312 0.51468 13.7822 0.470071 13.4386 0.465725C11.8644 0.445856 14.254 0.416991 13.5531 0.406951C11.6059 0.378801 -0.225791 0.308119 0.00328216 0.297459C2.89536 0.166645 42.7036 0.164911 53.47 0.158184C165.142 0.0884338 274.355 0.181751 385.325 0.165813C386.466 0.165566 385.968 0.146255 386.454 0.145428C389.475 0.140578 392.441 0.170674 393.557 0.171916C395.943 0.174475 394.629 0.146669 396.373 0.146649C414.383 0.146959 431.379 0.16331 449.404 0.15855C450.578 0.15824 449.38 0.180487 451.441 0.176555C452.506 0.174401 455.837 0.140269 458.239 0.139752C466.629 0.137994 473.676 0.148936 482.524 0.148419C487.363 0.14811 494.622 0.151011 500.033 0.150494C502.423 0.150274 504.912 0.134659 507.273 0.134137C510.623 0.133413 509.939 0.165067 510.455 0.167034C512.717 0.175621 513.03 0.140878 515.177 0.141705C519.172 0.143361 519.387 0.166558 524.455 0.164592C528.077 0.163143 536.367 0.144829 540.934 0.139447C551.615 0.166352 565.073 0.155671 575.037 0.146771C580.936 0.141495 581.482 0.173973 583.888 0.173869C592.362 0.17324 598.793 0.13176 606.753 0.130414C617.316 0.128662 626.678 0.15609 636.912 0.158062C638.571 0.158372 638.19 0.128614 639.818 0.127851C645.846 0.125057 653.554 0.119641 658.922 0.123884C664.906 0.128547 667.113 0.171741 672.968 0.162944C674.685 0.160333 675.188 0.12246 678.065 0.117597C682.66 0.109951 687.698 0.143348 690.905 0.147076C695.3 0.152044 691.478 0.11346 697.405 0.118635C697.649 0.118858 698.536 0.146439 699.808 0.145123C703.517 0.141397 703.148 0.119678 708.574 0.121748C709.095 0.122034 716.29 0.148313 717.005 0.148419C721.214 0.148833 729.688 0.158033 732.18 0.152447C741.085 0.132576 734.074 0.0910934 741.648 0.181132C744.983 0.159094 748.29 0.136757 751.825 0.115339C749.466 0.135313 759.041 0.164136 759.714 0.162273C765.28 0.147263 761.965 0.11223 769.022 0.118025C759.702 0.198956 778.127 0.128456 782.236 0.126386C802.021 0.11635 820.006 0.136547 839.891 0.136029C846.548 0.135817 855.47 0.118709 862.513 0.119123C864.154 0.119148 862.914 0.138301 864.359 0.138715C865.8 0.138998 864.201 0.117497 865.847 0.118635C876.083 0.126089 884.103 0.166659 893.48 0.11595C893.937 0.123281 893.922 0.129075 894.678 0.137128C902.352 0.0916989 917.131 0.152792 922.685 0.161174C931.374 0.174207 933.593 0.1435 939.905 0.1497C948.252 0.15798 960.783 0.217969 955.187 0.11894C960.912 0.115837 966.425 0.11498 972.208 0.124189C972.852 0.125233 972.408 0.150404 972.666 0.150921C974.297 0.154535 974.829 0.131998 975.931 0.130964C978.92 0.12818 974.042 0.155164 978.304 0.147625C980.551 0.143589 981.828 0.123933 988.069 0.123518C1025.69 0.121344 1066.54 0.128384 1105.11 0.131696C1107.76 0.131903 1106.02 0.107562 1109.34 0.109114C1120.88 0.114501 1141.53 0.155465 1151.48 0.149883C1161.43 0.144295 1159.19 0.1087 1165.41 0.093795C1166.62 0.0908972 1165.63 0.111184 1166.72 0.111494C1174.03 0.113359 1182.76 0.145001 1188.68 0.149761C1192.6 0.152951 1192.29 0.121037 1195.01 0.118757C1199.06 0.115445 1203.23 0.147689 1205.39 0.148724C1215.56 0.15327 1222.54 0.1273 1232.03 0.140546C1231.66 0.133522 1231.42 0.12702 1231.1 0.1201C1242.34 0.121238 1253.56 0.122379 1264.8 0.123518C1264.27 0.117101 1263.76 0.110629 1263.23 0.104109C1276.42 0.107631 1274.91 0.177175 1273.75 0.0303215C1274.71 0.0251481 1275.73 0.0191514 1276.64 0.0143922C1276.27 0.0900401 1284.25 0.1454 1294.4 0.164653C1295.14 0.166102 1300.14 0.0923433 1299.59 0.179484C1300.9 0.158165 1301.67 0.14347 1302.77 0.124738C1304.92 0.151121 1307.1 0.177191 1309.24 0.20347C1310.4 0.199538 1311.58 0.195744 1312.74 0.191813C1312.91 0.174736 1312.78 0.157006 1313.15 0.14024C1318.53 0.137653 1329.57 0.158764 1333.83 0.156597C1344.39 0.151112 1355.15 0.104944 1363.37 0.154827C1367.37 0.149741 1363.39 0.116226 1369.35 0.120466C1370.02 0.137435 1370.65 0.153698 1371.35 0.171184C1376.22 0.0953679 1377.24 0.141489 1383.9 0.157329C1388.41 0.168092 1391.37 0.149562 1395.66 0.153179C1396.75 0.154111 1396.6 0.176363 1397.34 0.175639C1399.83 0.173344 1406.95 0.142716 1408.71 0.141888C1424.66 0.133818 1438.36 0.137253 1453.55 0.145428C1455.18 0.146256 1453.06 0.124295 1454.75 0.125227C1457.47 0.126689 1455.87 0.160434 1457.44 0.16209C1461.84 0.166518 1461.87 0.130934 1468 0.129072C1488.17 0.122969 1511.36 0.1497 1532.43 0.152081C1533.09 0.152081 1533.05 0.131232 1533.77 0.131025C1538.43 0.130005 1543.16 0.158188 1547.39 0.157879C1554.42 0.157465 1559.71 0.128175 1566.65 0.128278C1580.22 0.128382 1592.35 0.143379 1606.31 0.144208C1617.73 0.144932 1627.66 0.142151 1640.18 0.142254C1694.9 0.142668 1750.74 0.0764899 1805.83 0.111677C1807.23 0.112608 1806.66 0.131029 1807.09 0.130231C1811.16 0.122263 1811.52 0.0974079 1812.97 0.149456C1818.15 0.139198 1819.78 0.100095 1826.03 0.102889C1829.37 0.104353 1826.88 0.164961 1832.52 0.13371C1837.61 0.105459 1831.99 0.072244 1847.14 0.106184C1847.54 0.107117 1849.51 0.14406 1852.66 0.134442C1855.83 0.124921 1852.16 0.0984682 1859.78 0.0904992C1877.66 0.0718727 1900.29 0.103806 1921.08 0.0939781C1922.38 0.0933571 1934.93 0.0736069 1937.41 0.0644995C1942.2 0.0468032 1941.2 0.0193503 1947.43 0.0126222C1952.24 0.0074476 1956.21 0.0385452 1961.86 0.0323356C1962.52 0.0315809 1963.62 -0.00040664 1967.87 0.0038336ZM913.95 0.625141C912.776 0.656525 910.657 0.772046 903.559 0.73689C902.886 0.733579 906.518 0.654137 902.597 0.641497C906.434 0.633115 910.17 0.6304 913.95 0.625019C913.95 0.625059 913.95 0.6251 913.95 0.625141ZM1998.64 0.74043C1993.33 0.734635 1988 0.728893 1982.69 0.723097C1986.35 0.709126 1990.02 0.695182 1993.68 0.681107C1995.34 0.70087 1996.98 0.720667 1998.64 0.74043ZM1337.43 0.685562C1337.44 0.685562 1337.44 0.685562 1337.45 0.685562C1331.87 0.700465 1326.28 0.715396 1320.7 0.730299C1321.28 0.719329 1321.87 0.708312 1322.46 0.697342C1326.87 0.680062 1331.28 0.662805 1335.67 0.645525C1336.26 0.658873 1336.85 0.672215 1337.43 0.685562ZM1381.55 0.569418C1385.11 0.582458 1384.24 0.60445 1386.2 0.625873C1386.2 0.625832 1386.2 0.625792 1386.2 0.625751C1386.72 0.631328 1389.13 0.636208 1390.06 0.637042C1389.72 0.623277 1389.27 0.609689 1388.9 0.596028C1397.22 0.562704 1413.49 0.681124 1392.43 0.728834C1392.74 0.711451 1393.04 0.694157 1393.36 0.676774C1382.89 0.681637 1371.22 0.643932 1381.55 0.569418ZM829.798 0.675187C820.864 0.732108 817.999 0.744109 807.161 0.705093C808.692 0.688959 810.223 0.672828 811.754 0.656694C813.544 0.673149 815.321 0.689492 817.11 0.705947C817.115 0.705947 817.12 0.705947 817.125 0.705947C817.483 0.688665 817.842 0.671352 818.186 0.65407C822.051 0.661107 825.933 0.66815 829.798 0.675187ZM1723.53 0.610554C1726.02 0.724237 1725.3 0.658157 1718.19 0.683793C1715.72 0.692693 1718.12 0.712584 1716.59 0.715895C1708.32 0.733985 1707.66 0.657818 1709.5 0.618183C1714.19 0.615492 1718.92 0.613038 1723.51 0.610554C1723.52 0.610554 1723.52 0.610554 1723.53 0.610554ZM1938.16 0.586935C1938.17 0.586935 1938.17 0.586935 1938.18 0.586935C1938.39 0.614663 1935.06 0.622122 1938.82 0.648394C1935.96 0.64829 1933.1 0.64807 1930.22 0.647967C1931.07 0.645384 1931.93 0.642921 1932.77 0.640338C1932.03 0.630816 1931.28 0.621174 1930.53 0.611653C1929.52 0.643525 1928.57 0.624998 1925.57 0.614338C1926.4 0.648386 1927.22 0.682458 1928.05 0.716506C1924.56 0.706366 1921.06 0.696191 1917.56 0.686051C1917.52 0.67747 1917.48 0.668876 1917.43 0.660295C1916.12 0.671261 1914.81 0.682347 1913.5 0.693314C1913.14 0.68307 1912.8 0.672919 1912.44 0.662675C1910.85 0.670435 1909.26 0.678188 1907.67 0.686051C1907.19 0.661237 1910.69 0.650513 1904.48 0.656816C1906.38 0.631361 1908.28 0.605982 1910.2 0.580526C1919.52 0.582596 1928.84 0.584761 1938.16 0.586935ZM1658.82 0.645525C1669.09 0.640765 1666.2 0.658749 1663.82 0.715041C1662.16 0.691866 1660.48 0.668701 1658.82 0.645525ZM1129.97 0.595418C1126.99 0.633814 1124 0.671826 1120.95 0.708877C1114.88 0.7303 1108.81 0.660317 1113.37 0.632892C1118.87 0.599985 1124.61 0.636814 1129.97 0.595418ZM991.709 0.612507C999.135 0.630311 992.147 0.675934 990.473 0.702529C988.418 0.659787 985.553 0.663557 980.951 0.658586C985.272 0.655815 990.48 0.609484 991.709 0.612385C991.709 0.612426 991.709 0.612466 991.709 0.612507ZM1249.49 0.638568C1252.47 0.637419 1255.43 0.626696 1258.09 0.639727C1257.29 0.676442 1251.96 0.643039 1255.77 0.697464C1253.87 0.698395 1251.96 0.699298 1250.07 0.700332C1251.27 0.677783 1249.66 0.66093 1249.5 0.63869C1249.5 0.638649 1249.49 0.638608 1249.49 0.638568ZM1559.37 0.688797C1553.52 0.64533 1552.42 0.66393 1546.53 0.694046C1545.7 0.658655 1552.72 0.599374 1557.11 0.586324C1557.86 0.620474 1558.61 0.654647 1559.37 0.688797ZM177.707 0.670671C179.11 0.625561 189.457 0.619678 194.598 0.633014C193.986 0.639704 193.372 0.646484 192.76 0.653276C187.749 0.659072 182.718 0.664875 177.707 0.670671ZM978.761 0.655535C979.532 0.656856 980.262 0.657842 980.951 0.658586C980.185 0.659078 979.445 0.658309 978.761 0.655535ZM667.757 0.459744C670.204 0.417213 662.93 0.402924 671.763 0.419584C671.763 0.419544 671.763 0.419503 671.763 0.419462C677.604 0.430433 678.893 0.433362 684.305 0.436673C682.357 0.491309 671.378 0.510838 686.51 0.522118C686.71 0.522168 686.313 0.489658 688.73 0.494105C689.477 0.495487 691.865 0.522168 695.498 0.529931C696.672 0.532414 705.494 0.540643 693.468 0.54116C693.826 0.579246 693.18 0.617794 693.209 0.654741C688.515 0.665479 684.907 0.590903 679.941 0.592733C672.568 0.59563 668.816 0.671043 667.399 0.572104C673.599 0.547796 684.244 0.547211 685.633 0.606709C691.631 0.607433 693.353 0.558687 688.517 0.534569C667.8 0.565203 682.83 0.462211 664.69 0.501123C664.476 0.514883 663.73 0.529692 663.843 0.542625C658.307 0.494202 666.884 0.474955 667.757 0.459744ZM711.077 0.564963C707.498 0.594044 703.93 0.623359 700.365 0.652544C700.365 0.605146 702.331 0.562612 707.972 0.535912C709.002 0.545632 710.047 0.555346 711.077 0.564963ZM409.991 0.577414C409.476 0.603182 408.102 0.626797 407.099 0.651323C406.011 0.629591 380.24 0.608741 393.351 0.587423C395.255 0.584318 406.87 0.629884 409.991 0.577414ZM1599.92 0.649981C1596.89 0.632697 1593.86 0.615387 1590.84 0.598103C1595.49 0.58714 1600.15 0.575889 1604.8 0.564719C1603.17 0.593133 1601.55 0.621567 1599.92 0.649981ZM1080.56 0.550193C1081.84 0.551161 1077.58 0.5866 1082.64 0.581014C1078.87 0.603679 1075.34 0.622863 1071.66 0.644183C1070.56 0.627417 1069.45 0.610719 1068.35 0.593953C1067.49 0.604716 1066.61 0.615415 1065.75 0.626178C1066.27 0.601754 1066.73 0.5779 1067.27 0.553062C1073.47 0.605429 1074.89 0.546054 1080.56 0.550193ZM1264.89 0.454678C1266.01 0.507759 1257.03 0.539326 1265.86 0.547813C1264.19 0.582687 1261.49 0.60098 1256.33 0.604085C1255.5 0.590747 1254.67 0.577507 1253.84 0.56417C1253.72 0.59986 1252.39 0.613125 1249.49 0.638568C1249.49 0.638527 1249.49 0.638486 1249.48 0.638446C1241.63 0.641029 1242.09 0.62913 1240.21 0.570456C1248.52 0.603573 1248.77 0.549966 1254.44 0.51809C1258.34 0.496171 1263.42 0.506098 1264.89 0.454678ZM437.449 0.576803C431.567 0.621611 436.846 0.663405 426.409 0.615803C427.082 0.604419 427.758 0.593131 428.431 0.581747C431.437 0.579988 434.443 0.578355 437.449 0.576803ZM1293.92 0.636615C1293.25 0.554447 1287.71 0.490486 1286.77 0.624164C1292.16 0.651382 1289.53 0.575662 1293.92 0.636615ZM994.241 0.483851C1004.62 0.487685 1002.66 0.580425 998.392 0.626789C997.733 0.609919 997.075 0.59302 996.431 0.576254C994.613 0.583912 992.794 0.591586 990.976 0.599141C992.064 0.560746 993.153 0.522247 994.241 0.483851ZM1476.9 0.546348C1468.97 0.605028 1485.46 0.578983 1479.92 0.61562C1475.5 0.644905 1469.67 0.585778 1471.87 0.548728C1473.4 0.547694 1475.11 0.546969 1476.88 0.546348C1476.89 0.546348 1476.89 0.546348 1476.9 0.546348ZM1431 0.563132C1432.3 0.625828 1430.43 0.607553 1436.69 0.596272C1438.48 0.593064 1452.7 0.616611 1446.73 0.564658C1441.65 0.564658 1436.28 0.563753 1431 0.563132ZM874.269 0.575583C874.174 0.54828 885.124 0.488328 886.53 0.503321C886.53 0.50328 886.53 0.503239 886.53 0.503198C890.324 0.544077 878.773 0.549886 883.783 0.605977C872.688 0.556619 869.369 0.676006 870.142 0.518701C876.678 0.5118 873.583 0.544226 874.269 0.575583ZM41.8428 0.542137C41.8377 0.542137 41.8326 0.542137 41.8276 0.542137C42.5629 0.543421 48.6221 0.583491 47.8853 0.597371C40.5988 0.585471 41.8973 0.559095 35.1137 0.602437C34.7418 0.588477 34.4232 0.574937 34.0227 0.560874C36.7143 0.552594 38.2063 0.535824 41.8428 0.542137ZM382.129 0.522363C384.806 0.515222 389.691 0.544812 392.741 0.543052C383.034 0.656685 371.435 0.550722 382.129 0.522363ZM1837.78 0.590841C1837.77 0.590881 1837.76 0.590922 1837.75 0.590963C1837.76 0.590901 1837.76 0.590841 1837.76 0.59078C1837.77 0.5908 1837.77 0.59082 1837.78 0.590841ZM589.594 0.590535C589.249 0.583159 589.054 0.576752 588.984 0.571127C588.984 0.570598 588.984 0.570069 588.984 0.56954C589.171 0.576447 589.369 0.583432 589.594 0.590535ZM851.511 0.583822C846.95 0.545744 862.146 0.485209 867.06 0.499659C866.716 0.517038 866.663 0.532794 865.862 0.552757C861.896 0.507751 852.27 0.590238 851.511 0.583822ZM1197.96 0.569846C1185.95 0.568811 1201.58 0.418466 1202.23 0.538414C1202.2 0.540738 1198.27 0.569641 1197.96 0.569846ZM946.237 0.568076C949.298 0.522558 943.147 0.51047 952.982 0.518334C953.554 0.530125 954.126 0.541943 954.698 0.553733C951.879 0.558492 949.057 0.563316 946.237 0.568076ZM1119.27 0.372468C1104.15 0.397822 1089.69 0.442552 1099.54 0.568076C1100.69 0.564044 1101.85 0.560145 1102.99 0.556113C1103.16 0.494874 1107.38 0.528302 1113.57 0.530297C1114.45 0.505984 1117.87 0.500362 1118.52 0.479701C1119.76 0.439763 1115.82 0.411685 1119.27 0.372468ZM1757.54 0.472133C1757.29 0.482586 1757.06 0.493093 1756.81 0.503443C1754.42 0.515241 1752.03 0.526982 1749.63 0.53878C1750.02 0.518721 1750.41 0.498662 1750.79 0.478603C1753.04 0.47643 1755.28 0.474244 1757.52 0.472072C1757.53 0.472092 1757.53 0.472113 1757.54 0.472133ZM725.809 0.435758C724.436 0.55081 729.235 0.52962 738.97 0.471462C734.589 0.45956 730.19 0.447659 725.809 0.435758ZM1362.21 0.419096C1362.52 0.451782 1362.83 0.484367 1363.16 0.517053C1368.33 0.483004 1367.37 0.445572 1364.89 0.402312C1363.99 0.407895 1363.11 0.413513 1362.21 0.419096ZM1436.65 0.405181C1434.51 0.398362 1435.6 0.424753 1435.38 0.424223C1429.95 0.410355 1429.19 0.398249 1422.53 0.41812C1421.72 0.425052 1420.91 0.432342 1420.1 0.439481C1423.18 0.507971 1425.41 0.470642 1431.92 0.510889C1430.75 0.487396 1429.58 0.463871 1428.41 0.440274C1432.03 0.445241 1435.63 0.450139 1439.26 0.455105C1439.69 0.447861 1440.12 0.440683 1440.55 0.433439C1439.26 0.424127 1437.93 0.413664 1436.65 0.405181ZM1785.19 0.501856C1788.71 0.504547 1792.25 0.507343 1795.77 0.510034C1795.9 0.493166 1796.02 0.476184 1796.15 0.459316C1792.5 0.473491 1788.84 0.487681 1785.19 0.501856ZM653.498 0.488185C653.219 0.494168 652.947 0.500188 652.705 0.506311C652.728 0.498849 653.033 0.493024 653.498 0.488185ZM32.5502 0.449612C28.5565 0.437816 22.8013 0.445562 18.4206 0.443082C18.765 0.485399 29.8993 0.473702 33.8091 0.499353C34.4373 0.49176 34.2384 0.454576 32.5502 0.449612ZM1008.6 0.487574C1009.6 0.466465 1010.6 0.445455 1011.59 0.424345C1014.01 0.426622 1016.44 0.429026 1018.87 0.431303C1018.94 0.414019 1019.01 0.396587 1019.08 0.379303C1008.36 0.401757 1010.83 0.351919 1005.53 0.302769C1006.56 0.364335 1007.57 0.425905 1008.6 0.487574ZM1897.25 0.392242C1889.5 0.403936 1886.75 0.425779 1891.12 0.477626C1893.85 0.465728 1896.6 0.45382 1899.34 0.441922C1898.64 0.425368 1897.93 0.408797 1897.25 0.392242ZM512.438 0.449124C505.957 0.468497 505.849 0.398915 499.514 0.437772C502.907 0.450602 506.298 0.463575 509.677 0.476405C510.589 0.467334 511.525 0.458197 512.438 0.449124ZM830.324 0.258032C827.59 0.233826 822.478 0.348891 814.791 0.263953C812.959 0.289303 811.81 0.313517 810.236 0.338351C809.32 0.311339 808.279 0.283983 807.406 0.257178C807.4 0.257178 807.395 0.257178 807.39 0.257178C800.418 0.266285 804.938 0.300162 804.781 0.32883C804.707 0.340714 799.532 0.320848 801.149 0.346712C803.941 0.39111 814.373 0.36558 814.402 0.419707C810.737 0.402017 803.58 0.416799 805.697 0.452908C808.016 0.492542 814.76 0.42612 819.056 0.459011C812.901 0.372502 825.613 0.399224 827.059 0.465664C834.518 0.414643 827.662 0.39383 820.017 0.396209C824.684 0.345292 817.814 0.372801 816.683 0.330478C821.495 0.304929 838.012 0.326226 830.324 0.258032ZM1182.24 0.351839C1177.08 0.355122 1169.03 0.326019 1165.5 0.368989C1163.44 0.394024 1171.52 0.41341 1165.95 0.452725C1170.97 0.448892 1172.12 0.433534 1171.26 0.399078C1172.4 0.394941 1173.56 0.390905 1174.71 0.386871C1175.24 0.393594 1175.78 0.400228 1176.31 0.406951C1176.91 0.392774 1177.51 0.37871 1178.1 0.364533C1179.32 0.367326 1180.55 0.370122 1181.76 0.373017C1181.91 0.365889 1182.15 0.359685 1182.24 0.351839ZM326.335 0.45126C327.766 0.450846 329.184 0.450435 330.615 0.449917C330.457 0.441526 330.269 0.432787 330.088 0.424162C329.959 0.417347 329.829 0.410531 329.699 0.403716C330.529 0.428066 337.348 0.468536 340.22 0.442533C341.665 0.429488 338.378 0.383176 344.5 0.375092C340.063 0.377474 335.953 0.383794 331.645 0.387726C332.031 0.373961 332.403 0.360049 332.789 0.346285C332.787 0.346265 332.784 0.346244 332.782 0.346224C331.35 0.34312 329.902 0.339868 328.471 0.336764C327.755 0.374953 327.051 0.413071 326.335 0.45126ZM1358.01 0.354463C1353.13 0.381475 1351.49 0.395502 1353.8 0.439176C1353.8 0.439196 1353.81 0.439216 1353.81 0.439237C1355.63 0.419887 1357.45 0.400545 1359.27 0.381195C1358.85 0.372295 1358.44 0.363364 1358.01 0.354463ZM611.445 0.344027C601.065 0.50992 624.44 0.408225 619.99 0.351717C619.789 0.349129 612.418 0.362345 611.445 0.344027ZM992.334 0.432828C995.183 0.431483 998.039 0.430268 1000.9 0.428922C1000.24 0.408534 999.569 0.388217 998.911 0.367829C996.72 0.389459 994.524 0.411198 992.334 0.432828ZM1863.53 0.316928C1860.53 0.271391 1852.83 0.254893 1849.07 0.304417C1851.04 0.310212 1853.02 0.316015 1855 0.321811C1851.26 0.327501 1847.57 0.333764 1843.8 0.339144C1843.6 0.402585 1847.94 0.36578 1854.47 0.38327C1855.48 0.386091 1861.94 0.464839 1864.17 0.405486C1864.62 0.393287 1857.75 0.384992 1862.53 0.34952C1860.44 0.346728 1858.63 0.347347 1856.66 0.345797C1856.52 0.330687 1856.37 0.31556 1856.22 0.30045C1858.66 0.305921 1861.08 0.311458 1863.53 0.316928ZM1152.22 0.356782C1145.14 0.353282 1144.27 0.37863 1142.79 0.42343C1146.09 0.418358 1149.38 0.413365 1152.67 0.408294C1152.52 0.391159 1152.38 0.37402 1152.22 0.356782ZM1800.23 0.302403C1796.36 0.295075 1798.02 0.33154 1796.46 0.338473C1790.56 0.364548 1786.53 0.338487 1780.71 0.354829C1781.1 0.347792 1781.45 0.341214 1781.82 0.334384C1781.82 0.334384 1781.81 0.334384 1781.81 0.334384C1754.22 0.30365 1768.71 0.386349 1785.22 0.372895C1785.6 0.386452 1785.98 0.400027 1786.36 0.413481C1793.75 0.389783 1800.56 0.366979 1800.23 0.302403ZM703.661 0.338351C703.346 0.329865 706.023 0.275935 700.999 0.301182C697.019 0.379922 703.545 0.340841 705.179 0.371125C703.819 0.37868 702.428 0.38603 701.082 0.393585C709.214 0.415836 710.401 0.397113 707.438 0.339571C707.226 0.335704 703.977 0.34681 703.661 0.338351ZM650.217 0.299534C649.1 0.415549 659.363 0.36338 658.991 0.327365C657.574 0.325929 656.473 0.345572 654.97 0.336886C653.453 0.328194 653.065 0.301095 650.217 0.299534ZM944.246 0.327914C943.945 0.327397 940.925 0.278637 941.225 0.316806C944.962 0.407155 952.491 0.349 951.174 0.317539C948.683 0.319095 947.023 0.332652 944.246 0.327792C944.246 0.327833 944.246 0.327874 944.246 0.327914ZM1910.23 0.289586C1910.09 0.286349 1902.55 0.266751 1901.58 0.284948C1900.78 0.305435 1900.38 0.327393 1899.78 0.348604C1903.93 0.328941 1912.34 0.34392 1910.22 0.289586C1910.22 0.289586 1910.23 0.289586 1910.23 0.289586Z" fill="black"/>
</svg>
