<svg width="246" height="186" viewBox="0 0 246 186" fill="none" xmlns="http://www.w3.org/2000/svg">
<path d="M1.40333 72.0807C1.44842 70.1468 1.41886 76.6029 1.48621 72.3158C1.49076 73.2098 1.49545 74.1092 1.5 75.0032C1.47506 75.2299 1.45018 75.4622 1.42524 75.6889C1.41789 74.4884 1.41055 73.2873 1.4032 72.0807C1.40324 72.0807 1.40328 72.0807 1.40333 72.0807ZM1.09096 70.4415C1.1621 71.5417 1.18107 75.0373 1.24672 71.2611C1.2223 70.9609 1.19789 70.6535 1.17348 70.3533C1.19241 69.0422 1.21134 67.7231 1.23018 66.412C1.22087 65.9405 1.21155 65.4696 1.20235 64.9981C1.24477 64.3977 1.28731 63.8025 1.32984 63.2021C1.32363 63.7353 1.31732 64.2756 1.31111 64.8087C1.34556 66.9163 1.35498 68.7916 1.3614 71.6529C1.37143 71.4017 1.38139 71.1498 1.39142 70.8986C1.37435 72.3508 1.35723 73.8021 1.34016 75.2481C1.3234 73.9923 1.30476 72.5882 1.28913 71.4243C1.22261 73.2868 1.25964 76.5718 1.27351 78.2816C1.29245 80.6101 1.26082 80.0838 1.27406 81.8115C1.27613 82.0872 1.30092 82.1186 1.30134 82.6638C1.30331 85.4151 1.29017 90.7588 1.23231 87.6337C1.23976 83.1053 1.19331 79.2433 1.21028 74.8008C1.14339 75.976 1.12062 73.6355 1.09096 70.4415ZM1.30396 153.63C1.27148 152.258 1.28459 149.463 1.30714 147.57C1.30714 147.567 1.30714 147.565 1.30714 147.563C1.31211 147.146 1.35528 146.203 1.35352 147.563C1.35051 149.781 1.28254 150.853 1.32868 152.017C1.32009 152.538 1.31245 153.085 1.30396 153.63ZM1.30799 158.45C1.29133 159.81 1.24012 159.193 1.25398 157.49C1.25394 157.49 1.2539 157.49 1.25386 157.49C1.25965 156.779 1.30013 158.174 1.25905 155.625C1.29101 155.105 1.32009 154.592 1.35102 154.078C1.35154 154.702 1.35238 155.271 1.35279 155.926C1.30025 155.485 1.32452 157.09 1.30799 158.45ZM1.26124 89.9325C1.30851 90.1465 1.30821 89.2506 1.34101 87.7251C1.33946 89.1649 1.3378 90.605 1.33625 92.0387C1.31122 91.3343 1.28628 90.6369 1.26124 89.9325ZM1.26857 56.1065C1.26857 56.1043 1.26857 56.1021 1.26857 56.0999C1.26112 55.6281 1.25364 55.155 1.24629 54.6893C1.26316 54.4074 1.27995 54.1287 1.29682 53.8468C1.28099 52.1801 1.26516 50.5045 1.24922 48.8377C1.30075 49.0403 1.29236 52.032 1.32838 53.6803C1.31285 56.1311 1.28294 57.3121 1.23927 57.4714C1.24899 57.0181 1.25884 56.5659 1.26857 56.1065ZM244.937 157.056C244.923 156.498 244.908 155.948 244.894 155.39C244.888 156.131 244.883 156.867 244.875 157.614C244.937 159.569 244.882 159.752 244.886 162.313C244.898 170.162 244.994 168.08 244.853 175.169C244.86 169.477 244.793 171.664 244.742 168.233C244.781 167.522 244.869 170.922 244.887 168.618C244.846 164.648 244.808 160.83 244.781 156.425C244.774 156.554 244.767 156.682 244.761 156.811C244.765 157.509 244.769 158.202 244.773 158.901C244.755 158.147 244.738 157.41 244.719 156.644C244.76 157.612 244.737 155.145 244.784 155.475C244.805 155.622 244.834 156.713 244.854 157.356C244.865 155.696 244.875 153.993 244.886 152.314C244.902 153.184 244.919 154.053 244.936 154.917C244.936 155.627 244.937 156.332 244.937 157.043C244.937 157.047 244.937 157.051 244.937 157.056ZM43.706 1.28047C45.8139 1.23183 49.6444 1.22378 51.6604 1.2779C49.0072 1.27873 46.3592 1.27964 43.706 1.28047ZM1.20326 57.6314C1.21153 57.3927 1.21971 57.1615 1.22798 56.9228C1.24329 57.9766 1.2585 59.0365 1.27381 60.0902C1.24992 60.2924 1.22602 60.4991 1.20222 60.7074C1.20253 59.6844 1.20295 58.6544 1.20326 57.6314ZM1.22987 125.048C1.22843 124.277 1.22921 124.209 1.23262 123.249C1.2326 123.25 1.23258 123.251 1.23256 123.252C1.23383 122.872 1.24779 119.688 1.26619 120.043C1.2665 121.623 1.26619 123.31 1.26619 124.928C1.25408 124.977 1.24208 124.987 1.22987 125.048ZM1.24061 106.439C1.24065 106.437 1.24069 106.435 1.24074 106.432C1.24353 105.857 1.24922 105.312 1.25026 104.718C1.27921 106.856 1.22726 107.194 1.24196 109.136C1.25675 111.078 1.28542 112.278 1.21425 113.926C1.20359 113.314 1.18834 112.654 1.17592 112.023C1.20438 109.266 1.1776 108.523 1.14955 106.312C1.17998 106.355 1.21019 106.396 1.24061 106.439ZM237.998 184.793C237.471 184.828 236.884 184.794 236.823 184.793C236.824 184.793 236.825 184.793 236.826 184.793C232.159 184.826 237.434 184.774 233.028 184.768C233.684 184.759 234.329 184.75 234.978 184.741C235.982 184.758 237.018 184.777 237.998 184.793ZM86.3445 184.79C86.3016 184.779 86.2503 184.769 86.2073 184.759C88.8544 184.761 89.5294 184.721 91.7291 184.758C89.934 184.768 88.1395 184.779 86.3445 184.79C86.3445 184.79 86.3445 184.79 86.3445 184.79ZM1.15535 138.391C1.13579 135.456 1.12717 133.284 1.15822 130.466C1.15826 130.463 1.1583 130.461 1.15834 130.459C1.16025 130.297 1.18169 131.083 1.18709 130.871C1.18388 130.289 1.17895 129.688 1.17513 129.101C1.19229 129.021 1.20945 128.945 1.22652 128.866C1.22165 130.52 1.21679 132.175 1.21193 133.835C1.22197 133.59 1.23192 133.339 1.24196 133.094C1.24713 134.503 1.25228 135.907 1.25746 137.316C1.22932 136.826 1.20117 136.337 1.17293 135.853C1.16703 136.699 1.16135 137.545 1.15535 138.391ZM130.414 184.902C129.948 184.891 130.811 184.872 130.087 184.862C129.364 184.853 128.031 184.874 128.344 184.842C129.317 184.838 130.34 184.833 131.332 184.828C128.139 184.772 124.954 184.823 124.905 184.753C127.969 184.771 130.488 184.762 133.454 184.743C133.331 184.799 130.365 184.847 132.233 184.899C131.633 184.9 131.002 184.901 130.421 184.902C130.418 184.902 130.416 184.902 130.414 184.902ZM0.503834 14.7505C0.508077 12.9367 0.485313 8.78085 0.51781 6.48909C0.525818 5.92528 0.629557 4.04683 0.643231 4.0564C0.689284 4.11156 0.695552 6.40549 0.725563 3.94863C0.725875 4.77515 0.727604 5.57724 0.728432 6.39766C0.759376 6.25062 0.790238 6.10432 0.821079 5.96336C0.816421 4.96458 0.811741 3.96454 0.80698 2.96576C0.817226 2.9167 0.827495 2.86784 0.83774 2.81882C0.837947 6.40964 0.877492 4.28993 0.914336 6.15276C0.93296 4.43739 0.951495 2.70926 0.970119 1C0.967843 1.9864 0.966156 3.1504 0.963467 4.02048C1.01593 4.13689 1.00342 2.06105 1.01315 1.70533C1.0681 -0.298276 1.04036 9.90257 1.11672 10.7374C1.1252 9.10778 1.13348 7.39787 1.14186 5.73153C1.15128 6.20945 1.1607 6.69361 1.17012 7.17156C1.11746 10.9519 1.0988 15.1912 1.066 19.5963C1.06817 19.9943 1.0704 20.3931 1.07247 20.7849C1.09616 20.6685 1.11976 20.5584 1.14345 20.442C1.14624 21.0426 1.14902 21.6505 1.15181 22.2511C1.07379 20.4805 1.07485 22.9324 1.02725 25.892C0.999825 24.3175 1.01645 22.375 0.965359 22.509C1.00467 27.9131 0.949115 34.2418 0.993494 39.4988C1.00446 40.8038 1.07037 40.7996 1.06429 43.8678C1.05705 43.7637 1.04397 43.7459 1.03445 43.6784C1.06601 48.9851 1.08488 52.2046 1.0527 57.7196C1.07638 57.4011 1.10017 57.0878 1.12386 56.7693C1.11206 55.599 1.10008 54.4266 1.08828 53.2623C1.12739 52.466 1.14466 53.6429 1.14424 50.1504C1.14393 47.2888 1.12666 48.9923 1.11507 48.2141C1.09925 47.1603 1.13038 46.2356 1.11269 45.1022C1.09913 44.2259 1.06686 45.1738 1.07503 42.8882C1.11684 43.8074 1.16002 44.7451 1.20235 45.6703C1.19293 46.228 1.18337 46.7813 1.17384 47.3389C1.16267 46.7752 1.15164 46.221 1.14046 45.6573C1.16054 47.6425 1.17947 49.5183 1.20027 51.5709C1.13983 50.9029 1.16249 53.0246 1.16963 54.1766C1.1808 55.9712 1.1392 54.4337 1.14614 55.6101C1.15318 56.7866 1.19965 58.0555 1.18971 60.1817C1.16281 59.0421 1.13868 60.5923 1.11385 60.2927C1.08902 59.9925 1.08352 57.7434 1.05642 59.9041C1.07701 64.0586 1.17158 59.5505 1.18691 62.3564C1.20533 65.7263 1.05117 66.5283 1.01803 65.5238C0.991949 64.7334 0.997194 62.0134 0.971218 61.2168C0.924338 66.0882 1.01689 66.1305 1.035 66.9638C1.10092 69.9908 0.924973 67.9575 0.988612 71.5419C0.95571 71.4745 0.926118 71.4199 0.894561 71.3525C0.900563 71.971 0.908539 72.3816 0.913298 73.1289C0.977405 70.9253 0.974657 72.729 0.974758 73.6546C0.974965 75.113 1.00623 72.8604 1.01431 73.2464C1.03591 74.2882 1.0261 75.9356 1.05434 74.9248C1.0412 75.3783 1.02802 75.8697 1.01498 76.3355C1.03135 78.0393 1.16868 82.0436 1.14095 78.2327C1.19197 78.5881 1.16745 79.8208 1.15968 80.7829C1.15193 81.7447 1.18442 81.7268 1.17842 82.5723C1.15441 85.936 1.09883 83.7356 1.05526 83.2026C1.08527 87.6448 1.10513 83.2958 1.1252 89.6974C1.1607 90.3163 1.19858 87.3584 1.21907 89.8215C1.1574 90.2752 1.1131 92.0888 1.09261 95.624C1.10679 95.9672 1.12109 96.3095 1.13527 96.6526C1.07835 98.5828 1.01916 97.5962 1.08974 101.169C0.959862 99.2508 1.04295 100.569 0.990077 103.768C0.979417 104.417 0.952471 102.916 0.93881 103.823C0.932649 104.235 0.952989 105.233 0.937284 106.237C0.929523 106.727 0.879443 109.019 0.903228 110.606C0.966151 109.441 1.01968 112.457 1.07174 109.871C1.0589 114.65 1.08912 117.996 1.00332 112.64C0.984278 113.853 0.965317 115.068 0.946378 116.281C0.961384 117.126 0.976272 117.979 0.991175 118.831C0.93946 118.96 0.924952 118.83 0.934049 122.162C0.921843 120.716 0.909434 119.277 0.897125 117.825C0.886682 117.776 0.875827 117.574 0.865693 117.623C0.885556 119.401 0.894105 124.407 0.907866 125.62C0.921631 126.833 0.925398 124.49 0.938749 124.839C1.04884 127.749 0.967643 127.519 0.986537 129.607C0.997714 130.832 1.00985 127.906 1.01461 128.562C1.03206 130.993 0.973551 132.121 0.972804 134.276C1.00602 133.511 1.03974 132.751 1.07326 132.004C1.0715 134.265 1.07121 136.785 1.08187 138.887C1.08603 139.712 1.11073 139.089 1.11238 139.223C1.12087 139.892 1.13431 142.612 1.13442 142.9C1.13461 145.068 1.1004 145.13 1.09853 147.237C1.09563 146.41 1.09302 145.632 1.09023 144.823C1.03477 144.456 0.979303 144.081 0.923735 143.713C0.919699 145.778 0.915747 147.843 0.911711 149.914C0.930233 148.401 0.948667 146.882 0.96719 145.369C1.012 147.734 1.05691 150.099 1.10183 152.464C1.0743 153.696 1.04678 154.923 1.01925 156.154C1.02651 159.499 1.13825 158.826 1.04037 160.412C1.04864 161.398 1.05691 162.385 1.06509 163.371C1.05112 163.23 1.03712 163.09 1.02316 162.95C1.03175 164.138 1.04028 165.327 1.04897 166.515C1.09844 165.265 1.15049 164.04 1.1985 162.803C1.20925 165.142 1.16729 165.187 1.15682 165.536C1.12908 166.461 1.16649 168.298 1.14083 169.033C1.13201 169.281 1.10439 166.989 1.07253 167.779C1.06636 167.933 0.949242 171.003 0.976283 172.961C0.997499 172.924 1.02351 172.773 1.04659 172.693C1.05948 175.327 0.948734 176.67 0.917692 176.321C0.939424 177.725 0.94124 179.775 0.975185 180.063C0.976013 180.78 0.976798 181.492 0.977626 182.209C0.894955 181.462 0.910071 184.452 0.981166 184.648C0.982925 183.416 0.984777 182.183 0.986537 180.952C1.06999 181.844 1.12176 178.449 1.05509 185L1 184.945C1.28953 184.948 1.59843 184.951 1.92801 184.954C2.78552 184.981 1.7775 184.975 1 184.971L1.02877 185C1.03121 184.427 1.03218 183.98 1.01779 184.495C1.0162 184.664 1.01485 184.832 1.01368 185L1 184.986C2.92023 185 4.74184 184.988 6.58443 185.017C9.07753 185.056 6.01014 185.094 11.8188 185.044C-0.993904 184.918 13.5761 184.959 19.5937 184.92C21.2481 185.044 26.33 185.084 33.3278 185.047C32.5987 185.012 30.3971 185.03 29.1286 185.019C27.8603 185.007 29.2325 184.987 27.6526 184.971C26.0722 184.954 22.7153 184.933 21.1154 184.908C22.4704 184.889 29.1592 184.842 24.7366 184.898C28.0382 184.932 29.5886 184.967 33.6805 184.974C34.906 184.92 34.8153 184.886 38.8039 184.885C36.4449 184.96 40.9773 185.012 39.9794 185.089C37.1509 185.071 38.7319 184.996 37.0961 184.96C36.9283 184.956 34.293 184.975 33.6805 184.974C36.3399 185.041 37.2595 185.066 35.6234 185.147C37.5046 185.14 38.6747 185.15 38.8463 185.112C39.2383 185.128 39.6327 185.145 40.0186 185.162C40.6308 185.161 41.182 185.16 41.8309 185.16C40.9371 185.102 42.6696 185.138 43.9011 185.111C45.1328 185.085 43.4804 185.039 46.8628 185.039C45.7354 185.025 44.7045 185.014 43.6138 185.001C45.795 184.986 47.983 184.971 50.1641 184.956C48.6322 184.921 45.3124 184.868 45.4032 184.821C46.4078 184.839 49.8495 184.808 50.2262 184.807C51.6846 184.802 50.8898 184.831 51.0001 184.832C53.2913 184.846 55.1783 184.836 56.0483 184.881C57.77 184.861 59.0684 184.872 60.8942 184.871C61.899 184.871 61.7037 184.838 62.2917 184.844C66.201 184.885 62.4766 184.928 70.0176 184.847C69.1047 184.825 68.2039 184.801 67.291 184.778C68.1428 184.77 68.9895 184.761 69.8413 184.752C70.4111 184.757 70.976 184.761 71.5458 184.765C71.5336 184.814 71.5188 184.864 71.5066 184.913C72.1317 184.916 72.7592 184.918 73.3842 184.921C72.3119 184.926 71.237 184.931 70.1646 184.936C70.0666 184.944 69.9751 184.953 69.8772 184.962C71.4704 184.975 73.0579 184.989 74.6512 185.002C74.6818 184.985 74.712 184.968 74.7426 184.951C78.3333 184.975 78.4189 184.989 81.8317 184.942C84.4605 184.942 86.6012 184.871 88.1209 184.84C88.666 184.85 89.212 184.86 89.7633 184.869C90.1126 184.855 90.4655 184.841 90.8148 184.827C91.5072 184.846 92.209 184.866 92.9014 184.886C93.2872 184.841 93.4871 184.827 90.7854 184.811C91.7108 184.755 96.4672 184.78 98.4035 184.799C99.8725 184.813 98.2426 184.86 98.4264 184.865C99.0397 184.885 101.461 184.868 101.969 184.871C104.12 184.884 105.627 184.882 107.569 184.893C107.948 184.895 109.005 184.924 109.094 184.925C109.793 184.93 111.517 184.945 111.713 184.945C121.828 184.967 111.02 184.839 120.425 184.852C120.143 184.835 119.884 184.818 119.609 184.801C120.319 184.8 121.037 184.799 121.748 184.798C122.648 184.812 121.559 184.838 123.348 184.817C123.231 184.838 123.114 184.859 122.992 184.88C123.77 184.869 124.52 184.858 125.317 184.846C126.567 184.919 131.13 184.935 130.806 185.02C130.696 185.049 127.46 185.079 129.17 185.11C130.559 185.116 129.619 185.082 130.185 185.08C134.279 185.067 134.041 185.116 135.714 185.103C135.977 185.082 136.254 185.061 136.524 185.04C137.154 185.046 137.787 185.052 138.424 185.058C138.571 185.044 138.724 185.03 138.871 185.016C138.277 185.015 137.608 185.014 137.062 185.013C137.823 184.959 144.806 184.935 142.143 184.981C141.059 185 139.072 184.992 140.328 185.056C142.197 185.047 144.317 185.037 146.284 185.028C146.345 185.042 146.402 185.055 146.463 185.069C149.114 185.06 146.703 185.005 146.708 184.976C147.315 184.975 147.927 184.974 148.534 184.973C148.791 184.987 149.035 185.001 149.304 185.014C149.329 184.992 149.668 184.943 151.476 184.961C152.638 184.973 150.808 185.027 153.023 185.019C152.858 184.986 152.057 184.946 154.526 184.935C154.771 184.97 155.11 185.002 155.299 185.038C158.369 185.005 159.765 185.058 163.368 185.019C165.654 184.995 168.785 184.908 170.261 185.042C171.933 185.045 171.403 185.012 171.897 185.005C174.232 184.969 175.968 185.033 176.404 185.036C179.178 185.06 180.422 185.038 182.683 185.068C182.56 185.043 182.494 185.02 182.396 184.996C180.324 185.033 179.275 185.031 176.371 185.023C177.345 185.018 178.319 185.013 179.293 185.008C179.134 184.988 178.976 184.968 178.823 184.948C169.84 185.027 171.936 184.902 179.466 184.875C180.116 184.912 180.789 184.949 181.432 184.986C185.783 184.93 187.83 184.979 192.75 184.991C193.335 184.992 195.465 184.971 196.381 184.97C196.366 184.969 196.351 184.969 196.335 184.969C196.905 184.934 196.133 184.918 196.042 184.887C196.538 184.883 197.034 184.879 197.531 184.875C198.639 184.899 198.249 184.918 200.43 184.913C200.136 184.889 199.846 184.865 199.552 184.841C201.942 184.84 203.506 184.866 205.73 184.855C205.356 184.864 204.987 184.873 204.613 184.882C209.454 184.905 205.602 185.045 209.26 184.975C209.493 184.988 209.719 185 209.952 185.012C208.445 185.015 206.937 185.018 205.436 185.021C205.405 185.038 205.372 185.056 205.348 185.073C206.959 185.068 208.579 185.062 210.19 185.057C209.014 185.069 207.83 185.08 206.654 185.092C208.523 185.1 210.392 185.108 212.261 185.117C210.276 185.053 212.849 185.045 212.365 184.983C215.674 185.035 218.273 185.104 223.402 185.06C224.419 185.051 223.867 185.007 226.752 185.06C226.054 184.991 229.669 184.958 229.205 184.891C228.2 184.894 227.158 184.896 226.184 184.9C227.293 184.923 227.477 184.987 225.792 185.006C223.642 185.03 220.505 184.986 220.633 185.056C219.775 185.053 218.978 185.051 218.145 185.048C218.488 185.031 218.824 185.013 219.16 184.996C216.79 185.023 215.301 185.014 214.161 184.97C216.985 184.96 219.804 184.95 222.628 184.94C222.212 184.937 221.79 184.934 221.374 184.931C223.513 184.886 221.307 184.843 225.296 184.834C225.272 184.854 225.252 184.875 225.227 184.895C226.68 184.84 230.656 184.841 229.388 184.777C230.588 184.797 230.833 184.809 231.513 184.775C234.681 184.823 236.716 184.884 235.588 184.957C236.765 184.945 237.942 184.933 239.112 184.922C238.432 184.902 237.751 184.882 237.071 184.862C239.118 184.863 241.179 184.865 243.22 184.866C243.416 184.924 239.28 184.883 240.473 184.936C240.712 184.947 241.814 184.924 242.103 184.93C245.154 184.994 240.364 184.948 241.264 184.997C244.459 185.008 243.612 185.052 245 185.053L245.053 185.053L245.053 185C245.053 184.413 245.046 183.426 245.025 181.566C245.042 181.4 245.06 181.222 245.077 181.069C245.078 178.895 245.039 179.072 245.032 177.203C245.027 176.033 245.095 174.564 245.049 173.271C245.04 173.041 244.958 175.215 244.962 170.646C244.965 167.1 245.023 168.576 245.043 166.659C245.064 164.741 244.983 160.353 245.075 159.061C245.063 160.065 245.056 161.345 245.046 162.46C245.064 162.913 245.082 163.355 245.099 163.802C245.076 161.253 245.103 158.618 245.061 156.902C245.126 153.501 245.066 149.698 244.992 150.727C245.003 151.847 245.035 150.629 245.014 152.184C244.997 152.343 244.98 152.511 244.963 152.67C244.965 150.023 244.965 148.185 245.017 149.392C245.018 148.981 245.019 148.575 245.021 148.164C244.983 148.09 244.945 148.025 244.908 147.952C244.903 147.462 244.899 146.969 244.895 146.479C244.903 145.934 244.912 145.388 244.92 144.837C244.98 145.578 244.981 146.841 245.015 142.662C244.994 142.65 244.974 142.632 244.953 142.619C244.979 139.121 245.029 139.028 245.027 134.636C245.099 138.006 244.972 139.85 245.116 139.837C245.106 140.683 245.097 141.535 245.087 142.381C245.108 142.51 245.129 142.637 245.15 142.76C245.139 138.22 245.002 130.678 245.092 127.638C245.081 127.27 245.072 126.901 245.06 126.528C245.115 123.55 244.992 122.264 245.063 119.243C245.07 118.931 245.185 119.583 245.181 115.651C245.166 115.749 245.141 115.8 245.122 115.879C245.131 115.028 245.141 114.181 245.15 113.335C245.136 113.182 245.123 113.022 245.109 112.869C245.103 114.321 245.098 115.769 245.092 117.221C245.088 116.015 245.083 114.8 245.078 113.593C245.055 115.168 245.055 115.878 245.019 114.929C245.017 113.563 245.014 112.194 245.012 110.828C245.003 110.687 244.994 110.547 244.984 110.406C244.957 111.068 244.929 111.737 244.901 112.398C244.924 108.838 244.925 105.743 244.98 103.01C244.989 102.545 245.025 104.192 244.992 101.019C245.012 100.969 245.027 100.884 245.045 100.829C244.991 96.9442 245.007 95.6679 245.046 91.6175C245.01 94.2401 245.033 91.9001 245.014 91.2322C245.001 90.7745 245.003 92.5607 244.989 92.3587C244.975 92.1565 244.919 89.8355 244.912 91.8199C245.027 96.6853 244.89 98.0108 244.945 104.261C244.93 103.299 244.915 102.33 244.9 101.368C244.89 101.821 244.881 102.227 244.871 102.716C244.893 99.2305 244.878 100.926 244.861 99.4936C244.843 98.0597 244.828 95.4537 244.823 93.7073C244.822 93.1572 244.847 93.7374 244.85 92.4959C244.851 91.6504 244.813 89.3395 244.858 88.806C244.887 88.4568 244.968 92.1691 244.968 87.0362C244.997 86.07 244.988 88.531 244.991 88.5839C245.025 89.0313 245.051 85.8757 245.025 84.4173C245.023 84.2992 244.996 85.4509 244.986 84.1985C244.961 81.2266 244.991 79.5103 245.033 77.5862C244.984 77.3778 244.926 74.8769 244.944 71.764C244.93 71.6048 244.916 71.453 244.902 71.2938C244.91 71.7771 244.917 72.2603 244.924 72.7436C244.916 73.2706 244.909 73.8289 244.899 74.3436C244.887 71.2132 244.82 70.7704 244.796 69.2693C244.712 64.1322 244.889 67.2456 244.919 68.1721C244.907 68.84 244.893 69.4858 244.88 70.1476C244.897 70.0741 244.914 69.9995 244.931 69.9321C244.931 62.2421 245.041 68.761 245.072 64.8577C244.989 63.8529 244.981 60.9861 245.034 57.3343C245.033 56.9299 245.033 56.524 245.033 56.1196C245.021 56.0523 245.002 56.0533 244.994 55.9433C244.98 51.5436 245.108 50.7598 245.12 50.3431C245.174 48.4928 245.099 47.0518 245.099 46.5063C245.096 44.2086 245.129 43.5408 245.115 41.3536C245.1 39.0011 245.074 40.6096 245.052 39.8939C245.034 39.3198 245.03 37.4639 245.012 36.6971C245.027 37.0018 245.042 37.3404 245.057 37.6441C245.078 35.2058 245.098 33.2132 245.103 30.4439C244.992 27.3191 245.18 24.6604 245.027 25.7385C245.017 28.3612 245 29.8277 244.961 31.2309C244.956 29.5094 244.951 27.7866 244.946 26.0651C244.963 25.5628 244.979 25.2062 244.996 24.612C244.96 23.3254 244.976 20.3428 244.965 19.1719C244.916 13.6877 244.856 15.3842 244.958 10.3782C244.968 13.9863 245.017 13.9806 245.01 17.5588C245.046 16.7867 245.038 14.9684 245.081 16.1449C245.07 12.6832 245.033 13.8022 244.999 12.455C244.97 11.2929 244.968 8.95295 244.931 9.08512C244.951 8.84588 244.971 8.66082 244.992 8.42225C244.992 6.18001 244.992 3.93782 244.992 1.69557C245.013 2.65136 245.035 3.60679 245.056 4.56257C245.065 3.84019 245.073 3.11675 245.081 2.39437C245.076 1.95264 245.071 1.48527 245.068 1L245.068 0.931762L245 0.931841C239.427 0.96849 231.491 0.876614 232.889 1.03207C230.23 1.03745 229.897 1.01625 228.451 0.984279C228.292 0.997108 228.137 1.00778 227.978 1.02206C226.262 1.00863 224.946 1.05679 223.432 1.04427C221.919 1.03185 221.543 0.986353 221.323 1.06283C220.343 1.04089 219.368 1.02267 218.394 1.00228C217.806 1.01966 217.219 1.03683 216.637 1.0541C215.718 1.04499 214.797 1.03592 213.878 1.02682C213.387 1.06332 209.773 1.04759 208.18 1.0721C206.667 1.03275 206.709 0.908857 203.151 0.931059C203.243 0.961787 203.333 0.992427 203.425 1.02316C202.61 1.01674 201.794 1.01035 200.973 1.00393C200.924 0.993901 200.882 0.983871 200.833 0.973842C201.249 0.976946 201.66 0.980034 202.077 0.983241C201.715 0.966268 201.361 0.949374 201.006 0.932401C199.762 0.957546 198.517 0.982693 197.267 1.00784C198.952 1.02687 200.637 1.04593 202.322 1.06496C200.208 1.08752 198.736 1.06502 196.898 1.09017C195.299 1.04774 195.889 1.0233 196.539 0.97726C195.944 0.981191 195.343 0.984986 194.749 0.988917C195.141 0.942871 194.136 0.915435 197.61 0.919157C197.371 0.906024 197.127 0.893502 196.895 0.879853C196.325 0.881922 195.955 0.870821 195.33 0.875885C193.627 0.889753 192.321 0.97063 192.437 0.998987C192.5 1.01384 194.18 0.985434 194.112 1.00643C193.946 1.05764 190.093 1.03465 195.65 1.08608C193.806 1.11868 193.394 1.09409 191.36 1.08468C191.519 1.10174 191.674 1.1187 191.827 1.13576C190.883 1.1279 189.939 1.12006 188.996 1.1122C190.307 1.02455 183.352 0.991626 189.613 0.914946C187.763 0.911014 185.919 0.907061 184.075 0.902923C184.455 0.893921 184.834 0.885009 185.214 0.876008C186.048 0.880768 186.876 0.885449 187.709 0.890106C186.729 0.873656 185.747 0.857303 184.767 0.840853C182.451 0.861241 181.543 0.892597 180.483 0.931303C183.178 0.959548 182.298 0.920966 184.398 0.913298C184.325 0.93781 184.422 0.960356 184.238 0.986109C183.153 0.935337 179.612 0.972274 178.791 0.974758C176.293 0.982299 178.252 0.932413 176.581 0.931364C174.908 0.930329 172.935 0.960021 171.568 0.910552C171.593 0.938279 171.702 0.966966 171.8 0.992213C169.196 1.00132 169.715 0.968564 169.446 0.964321C165.144 0.89457 162.81 0.953457 157.89 0.960598C158.515 0.969186 159.146 0.97694 159.777 0.985011C156.065 1.04388 158.566 1.02586 161.788 1.04531C158.768 1.03941 157.038 1.08955 154.905 1.10445C152.773 1.11933 149.116 1.09358 147.78 1.07351C150.838 1.04122 154.136 1.06251 157.53 1.05361C157.145 1.02537 156.769 1.00146 156.371 0.970424C154.306 1.02971 153.11 0.990068 152.43 0.982203C150.433 0.959136 150.496 1.01002 149.289 0.955288C149.338 0.974116 149.374 0.989947 149.423 1.00753C145.299 0.999667 140.851 0.966381 138.167 1.03591C137.922 0.99069 137.737 0.947122 137.455 0.90097C135.709 0.935011 134.213 0.900151 132.743 0.90811C131.279 0.916079 131.836 0.952625 130.114 0.966701C129.796 0.969289 129.132 0.946414 128.348 0.963283C127.556 0.980242 124.635 1.10633 124.286 0.99618C122.809 0.995662 121.412 0.991634 119.966 0.989771C121.375 0.983562 122.785 0.977549 124.188 0.97134C122.987 0.944642 121.793 0.918024 120.593 0.891327C120.439 0.91513 120.286 0.939363 120.139 0.962856C116.903 0.991833 114.555 0.952916 111.289 0.962124C110.744 0.963676 112.031 1.01074 109.611 0.998743C107.191 0.986739 105.395 0.898901 101.271 0.932828C101.063 0.934588 99.8419 1.00186 98.3651 0.955288C98.0291 0.944733 99.4434 0.929115 98.6721 0.915251C97.9 0.901383 94.455 0.88998 94.1854 0.856966C94.2222 0.868657 94.4371 0.880771 94.5413 0.892669C93.9533 0.898256 93.3592 0.903848 92.765 0.909331C92.7098 0.888739 92.6503 0.868116 92.5952 0.847628C89.2128 0.895542 87.4649 0.973705 82.4529 0.947842C83.8622 0.977749 85.272 1.00778 86.6751 1.03768C87.0611 1.01667 87.4478 0.995522 87.8277 0.974513C90.1375 0.982895 92.4537 0.991216 94.7634 0.999598C95.1433 0.975691 95.5166 0.951853 95.8965 0.927946C96.5091 0.93105 97.1157 0.934058 97.7284 0.937162C97.5752 0.954444 97.4207 0.971635 97.2614 0.988917C98.4744 0.984675 99.6889 0.980342 100.896 0.9761C98.4387 1.07811 94.0342 0.967423 94.352 1.05276C93.8069 1.03952 93.2611 1.02618 92.716 1.01284C92.477 1.05422 91.3685 1.04231 89.4147 1.03579C89.862 1.05618 90.356 1.07629 90.7666 1.09688C88.867 1.06812 85.4974 1.07091 83.5305 1.05984C82.6666 1.05497 83.5295 1.02497 83.2725 1.02145C81.9551 1.00303 79.437 1.05537 78.91 1.05123C75.7605 1.0266 73.7139 0.927357 70.2763 0.992762C73.8243 1.00891 71.8941 1.00209 73.1564 1.03841C73.5516 1.0498 78.1351 1.07356 72.3956 1.06301C71.7227 1.06169 61.3084 0.993123 64.7317 0.94058C63.0466 0.957345 61.7272 0.976731 60.1831 0.994532C56.4084 0.856059 57.7147 0.986144 58.8116 1.05776C58.1927 1.05807 57.6039 1.0588 56.9667 1.0588C58.3209 0.98356 51.4216 0.978888 49.0808 1.01687C48.2965 1.0295 50.4895 1.05358 48.6759 1.06496C47.8123 1.05969 46.8325 1.05285 45.9199 1.04696C47.2434 1.09456 44.646 1.11291 44.6823 1.16133C43.0219 1.11818 41.7518 1.02671 42.6643 0.977138C41.292 0.997211 39.9125 1.01726 38.5402 1.03744C39.1774 1.04892 39.8229 1.06031 40.4602 1.0718C35.9747 1.04137 30.2073 1.11061 29.2698 1.00887C28.6754 1.0096 28.0747 1.01023 27.4803 1.01095C27.2965 1.02813 27.1188 1.04534 26.935 1.06252C24.2456 1.04762 21.5622 1.03262 18.8728 1.01772C21.2675 1.00706 21.8375 0.98261 24.3488 1.00247C23.3811 0.982708 22.3953 0.96284 21.4459 0.943082C17.6652 0.996276 17.1495 1.03124 11.4571 1.0154C11.1998 1.01468 6.89879 0.970071 6.75173 0.965725C6.07797 0.945856 7.10072 0.916991 6.80071 0.906951C5.96734 0.878801 0.903362 0.808119 1.0014 0.797459C2.23922 0.666645 19.2771 0.664911 23.8852 0.658184C71.6807 0.588434 118.424 0.681751 165.919 0.665813C166.407 0.665566 166.194 0.646255 166.402 0.645428C167.695 0.640578 168.965 0.670674 169.443 0.671916C170.464 0.674475 169.901 0.646669 170.647 0.646649C178.356 0.646959 185.63 0.66331 193.345 0.65855C193.848 0.65824 193.335 0.680487 194.217 0.676555C194.672 0.674401 196.098 0.640269 197.126 0.639752C200.717 0.637994 203.733 0.648936 207.52 0.648419C209.591 0.64811 212.698 0.651011 215.014 0.650494C216.037 0.650274 217.102 0.634659 218.113 0.634137C219.547 0.633413 219.254 0.665067 219.475 0.667034C220.443 0.675621 220.577 0.640878 221.496 0.641705C223.205 0.643361 223.298 0.666558 225.467 0.664592C227.017 0.663143 230.565 0.644829 232.52 0.639447C236.371 0.662115 241.066 0.658103 245 0.650955L245.349 0.650548L245.349 1C245.35 1.73545 245.352 2.44428 245.353 3.11601C245.359 5.64043 245.326 5.87441 245.326 6.90385C245.327 10.5309 245.368 13.2835 245.37 16.6902C245.371 21.2113 245.344 25.218 245.342 29.5982C245.342 30.3085 245.371 30.1454 245.372 30.8423C245.375 33.4221 245.38 36.7209 245.376 39.0188C245.371 41.5797 245.328 42.5243 245.337 45.0304C245.34 45.7651 245.378 45.9804 245.382 47.2116C245.39 49.1783 245.357 51.3348 245.353 52.7073C245.348 54.5885 245.387 52.9525 245.381 55.4894C245.381 55.5936 245.354 55.9732 245.355 56.518C245.359 58.105 245.38 57.9475 245.378 60.2699C245.378 60.4927 245.352 63.572 245.352 63.8781C245.351 65.6796 245.342 69.3065 245.348 70.3729C245.367 74.1844 245.409 71.1837 245.319 74.4253C245.341 75.8526 245.363 77.2682 245.385 78.7813C245.365 77.7714 245.336 81.8697 245.338 82.1577C245.353 84.54 245.388 83.1209 245.382 86.1414C245.301 82.1523 245.372 90.0384 245.374 91.7971C245.384 100.265 245.363 107.963 245.364 116.474C245.364 119.323 245.381 123.141 245.381 126.155C245.381 126.858 245.362 126.327 245.361 126.946C245.361 127.562 245.383 126.878 245.381 127.582C245.374 131.963 245.333 135.396 245.384 139.41C245.377 139.605 245.371 139.599 245.363 139.922C245.408 143.207 245.347 149.532 245.339 151.909C245.326 155.628 245.357 156.578 245.35 159.279C245.342 162.852 245.282 168.215 245.381 165.82C245.384 168.27 245.385 170.63 245.376 173.105C245.375 173.38 245.35 173.191 245.349 173.301C245.345 173.999 245.368 174.227 245.369 174.698C245.372 175.978 245.345 173.89 245.352 175.714C245.356 176.676 245.376 177.222 245.376 179.894C245.377 181.581 245.377 183.285 245.377 185L245.377 185.376L245 185.377C230.349 185.377 214.79 185.371 200.012 185.368C198.879 185.368 199.625 185.392 198.203 185.391C193.264 185.385 184.424 185.345 180.165 185.35C175.907 185.356 176.868 185.391 174.203 185.406C173.688 185.409 174.11 185.389 173.644 185.389C170.513 185.387 166.78 185.355 164.243 185.35C162.566 185.347 162.7 185.379 161.536 185.381C159.802 185.385 158.017 185.352 157.092 185.351C152.742 185.347 149.752 185.373 145.689 185.359C145.848 185.366 145.953 185.373 146.088 185.38C141.278 185.379 136.474 185.378 131.665 185.376C131.891 185.383 132.111 185.389 132.337 185.396C126.694 185.392 127.338 185.323 127.834 185.47C127.424 185.475 126.989 185.481 126.597 185.486C126.756 185.41 123.342 185.355 118.998 185.335C118.68 185.334 116.542 185.408 116.775 185.321C116.217 185.342 115.885 185.357 115.413 185.375C114.494 185.349 113.563 185.323 112.644 185.297C112.148 185.3 111.644 185.304 111.148 185.308C111.075 185.325 111.131 185.343 110.972 185.36C108.668 185.362 103.943 185.341 102.123 185.343C97.6006 185.349 92.9966 185.395 89.4792 185.345C87.766 185.35 89.4673 185.384 86.9192 185.38C86.6313 185.363 86.3606 185.346 86.0604 185.329C83.9778 185.405 83.5427 185.359 80.6889 185.343C78.7588 185.332 77.4949 185.35 75.6569 185.347C75.1912 185.346 75.2571 185.324 74.9385 185.324C73.8714 185.327 70.8266 185.357 70.0731 185.358C63.2475 185.366 57.3835 185.363 50.8825 185.355C50.184 185.354 51.0897 185.376 50.3666 185.375C49.2033 185.373 49.8878 185.34 49.2139 185.338C47.3342 185.333 47.3199 185.369 44.6979 185.371C36.0643 185.377 26.138 185.35 17.1185 185.348C16.8366 185.348 16.8535 185.369 16.5471 185.369C14.55 185.37 12.5284 185.342 10.7151 185.342C7.70644 185.343 5.44527 185.372 2.47333 185.372C1.97798 185.372 1.48721 185.372 1 185.371L0.629046 185.372L0.628611 185C0.630836 179.774 0.64345 174.965 0.644208 169.5C0.644932 164.61 0.642151 160.363 0.642254 155.002C0.642668 131.582 0.57649 107.683 0.611677 84.1038C0.612608 83.5038 0.631029 83.748 0.630231 83.565C0.622263 81.8248 0.597408 81.6695 0.649456 81.0507C0.639198 78.8338 0.600095 78.1342 0.602889 75.4571C0.604353 74.0302 0.664961 75.0955 0.63371 72.6815C0.605459 70.5018 0.572244 72.9072 0.606184 66.4251C0.607117 66.2535 0.64406 65.4088 0.634442 64.0609C0.624921 62.7067 0.598468 64.2743 0.590499 61.0143C0.571873 53.3612 0.603806 43.6741 0.593978 34.777C0.593357 34.2194 0.573607 28.8492 0.5645 27.7891C0.546803 25.7377 0.51935 26.1662 0.512622 23.5017C0.507448 21.4428 0.538545 19.7441 0.532336 17.3236C0.531581 17.0417 0.499593 16.5695 0.503834 14.7505ZM244.875 148.171C244.843 147.668 244.728 146.761 244.763 143.723C244.766 143.435 244.846 144.99 244.859 143.312C244.867 144.954 244.87 146.553 244.875 148.171C244.875 148.171 244.875 148.171 244.875 148.171ZM1.24043 1.58124C1.23463 3.85458 1.22889 6.13579 1.2231 8.40914C1.20913 6.84045 1.19518 5.26955 1.18111 3.707C1.20087 2.99632 1.22067 2.29191 1.24043 1.58124ZM100.578 184.814C100.576 184.814 100.574 184.814 100.572 184.814C102.961 184.8 105.353 184.785 107.742 184.77C107.491 184.781 107.239 184.792 106.988 184.803C105.101 184.82 103.213 184.837 101.333 184.854C101.081 184.841 100.829 184.828 100.578 184.814ZM81.6979 184.931C80.1721 184.918 80.5455 184.896 79.706 184.874C79.706 184.874 79.706 184.874 79.706 184.874C79.4844 184.869 78.4525 184.864 78.0537 184.863C78.2008 184.877 78.3907 184.89 78.55 184.904C74.9899 184.937 68.0275 184.819 77.0414 184.771C76.9066 184.789 76.7779 184.806 76.6431 184.823C81.1224 184.818 86.1159 184.856 81.6979 184.931ZM244.825 112.153C244.768 108.33 244.756 107.104 244.795 102.465C244.811 103.12 244.827 103.776 244.843 104.431C244.827 105.197 244.811 105.957 244.794 106.723C244.794 106.725 244.794 106.727 244.794 106.73C244.811 106.883 244.829 107.036 244.846 107.184C244.839 108.838 244.832 110.499 244.825 112.153ZM1.11055 119.331C1.22424 118.265 1.15816 118.572 1.18379 121.616C1.19269 122.67 1.21258 121.643 1.2159 122.299C1.23398 125.84 1.15782 126.123 1.11818 125.332C1.11549 123.329 1.11304 121.304 1.11055 119.337C1.11055 119.335 1.11055 119.333 1.11055 119.331ZM1.08693 27.4659C1.08693 27.4637 1.08693 27.4615 1.08693 27.4593C1.11466 27.3674 1.12212 28.7948 1.14839 27.185C1.14829 28.4097 1.14807 29.6343 1.14797 30.8651C1.14538 30.5041 1.14292 30.1354 1.14034 29.7745C1.13082 30.0931 1.12117 30.4126 1.11165 30.7313C1.14353 31.1662 1.125 31.5705 1.11434 32.857C1.14839 32.5016 1.18246 32.1479 1.21651 31.7925C1.20637 33.2873 1.19619 34.7876 1.18605 36.2824C1.17747 36.3008 1.16888 36.3195 1.1603 36.3379C1.17126 36.9014 1.18235 37.4593 1.19331 38.0228C1.18307 38.176 1.17292 38.3236 1.16268 38.4767C1.17043 39.1566 1.17819 39.8377 1.18605 40.5176C1.16124 40.7245 1.15051 39.226 1.15682 41.8825C1.13136 41.0676 1.10598 40.2545 1.08053 39.4335C1.0826 35.4444 1.08476 31.4549 1.08693 27.4659ZM1.14553 147.024C1.14077 142.631 1.15875 143.868 1.21504 144.885C1.19187 145.596 1.1687 146.314 1.14553 147.024ZM189.374 184.905C190.648 184.866 191.928 184.828 193.233 184.791C195.831 184.77 198.431 184.84 196.476 184.867C194.123 184.9 191.665 184.863 189.374 184.905ZM244.887 181.451C244.87 184.63 244.824 181.639 244.797 180.922C244.84 180.043 244.836 178.817 244.841 176.847C244.844 178.697 244.891 180.926 244.888 181.451C244.888 181.451 244.888 181.451 244.887 181.451ZM138.218 184.861C136.944 184.863 135.677 184.873 134.538 184.86C134.882 184.824 137.16 184.857 135.531 184.803C136.346 184.802 137.161 184.801 137.97 184.8C137.456 184.822 138.147 184.839 138.215 184.861C138.216 184.861 138.217 184.861 138.218 184.861ZM5.59176 184.811C8.09188 184.855 8.56564 184.836 11.0841 184.806C11.4389 184.841 8.43617 184.901 6.55503 184.914C6.23642 184.88 5.91652 184.845 5.59176 184.811ZM77.0585 1.17067C77.6589 1.12556 82.0876 1.11968 84.2881 1.13301C84.0261 1.1397 83.7631 1.14648 83.5011 1.15328C81.3564 1.15907 79.2032 1.16488 77.0585 1.17067ZM244.844 175.91C244.843 176.24 244.842 176.552 244.841 176.847C244.841 176.519 244.842 176.202 244.844 175.91ZM245.04 42.8001C245.083 43.8475 245.097 40.7341 245.08 44.5144C245.08 44.5144 245.08 44.5144 245.081 44.5144C245.07 47.0145 245.067 47.5665 245.063 49.8827C245.009 49.0489 244.989 44.3498 244.978 50.8264C244.978 50.9117 245.01 50.7419 245.006 51.7766C245.005 52.096 244.978 53.1183 244.97 54.673C244.968 55.1755 244.959 58.9514 244.959 53.8044C244.921 53.9576 244.882 53.6812 244.845 53.6934C244.835 51.6843 244.909 50.1403 244.907 48.0149C244.904 44.8592 244.829 43.2533 244.928 42.6466C244.952 45.3001 244.953 49.8566 244.893 50.4509C244.893 53.018 244.941 53.7552 244.965 51.6852C244.935 42.8185 245.038 49.2511 244.999 41.4874C244.985 41.3956 244.97 41.0762 244.957 41.125C245.006 38.7552 245.025 42.4264 245.04 42.8001ZM244.935 61.3409C244.906 59.809 244.877 58.2821 244.847 56.7563C244.895 56.7564 244.937 57.5977 244.964 60.0119C244.954 60.4528 244.945 60.9001 244.935 61.3409ZM176.476 1.07741C176.256 1.10318 175.667 1.1268 175.239 1.15132C174.773 1.12959 163.743 1.10874 169.354 1.08742C170.169 1.08432 175.14 1.12988 176.476 1.07741ZM1.14998 172.233C1.1327 173.532 1.11539 174.826 1.0981 176.119C1.08714 174.129 1.07589 172.137 1.06472 170.146C1.09313 170.844 1.12157 171.536 1.14998 172.233ZM210.52 184.95C209.971 184.949 211.794 184.913 209.632 184.919C211.244 184.896 212.753 184.877 214.328 184.856C214.799 184.873 215.276 184.889 215.748 184.906C216.116 184.895 216.491 184.885 216.858 184.874C216.638 184.898 216.441 184.922 216.208 184.947C213.555 184.895 212.947 184.954 210.52 184.95ZM131.625 185.045C131.148 184.992 134.99 184.961 131.211 184.952C131.928 184.917 133.08 184.899 135.292 184.896C135.648 184.909 136.002 184.923 136.357 184.936C136.406 184.9 136.975 184.887 138.218 184.861C138.219 184.861 138.22 184.862 138.222 184.862C141.584 184.859 141.383 184.871 142.192 184.93C138.632 184.896 138.526 184.95 136.099 184.982C134.432 185.004 132.256 184.994 131.625 185.045ZM188.228 1.0768C185.711 1.12161 187.97 1.16341 183.503 1.1158C183.791 1.10442 184.081 1.09313 184.369 1.08175C185.655 1.07999 186.942 1.07836 188.228 1.0768ZM119.201 184.863C119.489 184.946 121.859 185.01 122.264 184.876C119.954 184.849 121.082 184.924 119.201 184.863ZM245.016 182.535C245.015 183.687 245.008 184.484 244.998 185C243.799 184.973 244.113 184.929 245 184.895L244.895 185C244.887 184.797 244.88 184.564 244.873 184.312C244.89 184.03 244.907 183.748 244.924 183.472C244.916 182.694 244.908 181.916 244.901 181.138C244.939 181.603 244.978 182.07 245.016 182.535ZM40.8872 184.954C44.282 184.895 37.2227 184.921 39.5941 184.884C41.4875 184.855 43.9828 184.914 43.0391 184.951C42.3834 184.952 41.6535 184.953 40.8937 184.954C40.8916 184.954 40.8894 184.954 40.8872 184.954ZM60.5317 184.937C59.9743 184.874 60.7778 184.892 58.0957 184.904C57.3297 184.907 51.2432 184.883 53.7985 184.935C55.9733 184.935 58.2711 184.936 60.5317 184.937ZM244.924 131.187C244.952 131.146 245.012 135.833 244.997 136.435C244.997 136.435 244.997 136.435 244.997 136.435C244.956 138.059 244.95 133.115 244.894 135.259C244.943 130.511 244.824 129.09 244.981 129.421C244.988 132.218 244.956 130.894 244.924 131.187ZM18.9087 1.04214C18.9065 1.04214 18.9044 1.04214 18.9022 1.04214C19.2169 1.04342 21.8103 1.08349 21.4949 1.09737C18.3763 1.08547 18.932 1.05909 16.0287 1.10244C15.8695 1.08848 15.7331 1.07494 15.5617 1.06087C16.7137 1.05259 17.3523 1.03582 18.9087 1.04214ZM164.551 1.02236C165.697 1.01522 167.788 1.04481 169.093 1.04305C164.939 1.15669 159.974 1.05072 164.551 1.02236ZM1.09084 70.4317C1.09088 70.4349 1.09092 70.4382 1.09096 70.4415C1.0909 70.4405 1.09084 70.4392 1.09078 70.4382C1.0908 70.436 1.09082 70.4339 1.09084 70.4317ZM244.909 9.34635C244.917 9.19857 244.923 9.11507 244.929 9.08512C244.929 9.08512 244.93 9.08512 244.93 9.08512C244.924 9.16494 244.917 9.25002 244.909 9.34635ZM244.916 121.447C244.954 119.495 245.015 125.998 245 128.102C244.983 127.955 244.967 127.932 244.947 127.589C244.992 125.891 244.91 121.771 244.916 121.447ZM160.273 184.93C165.414 184.931 158.723 185.082 158.447 184.962C158.458 184.959 160.14 184.93 160.273 184.93ZM244.932 161.99C244.977 163.299 244.99 160.667 244.982 164.876C244.97 165.121 244.958 165.366 244.946 165.611C244.942 164.404 244.937 163.196 244.932 161.99ZM193.952 185.128C200.422 185.102 206.611 185.057 202.396 184.932C201.906 184.936 201.41 184.94 200.92 184.944C200.846 185.005 199.039 184.972 196.394 184.97C196.017 184.994 194.55 185 194.275 185.02C193.743 185.06 195.428 185.088 193.952 185.128ZM0.972133 104.774C0.982586 104.878 0.993093 104.98 1.00344 105.084C1.01524 106.107 1.02698 107.133 1.03878 108.157C1.01872 107.991 0.998662 107.826 0.978603 107.66C0.97643 106.699 0.974244 105.742 0.972072 104.78C0.972092 104.778 0.972113 104.776 0.972133 104.774ZM245.064 67.6464C244.949 67.0586 244.97 69.1126 245.029 73.2791C245.04 71.4041 245.052 69.5214 245.064 67.6464ZM89.9756 185.081C89.8408 185.048 89.7083 185.016 89.5674 184.983C87.3553 185.017 87.7661 185.054 88.8262 185.098C89.2118 185.092 89.5899 185.086 89.9756 185.081ZM58.1121 185.095C59.0297 185.102 58.5614 185.075 58.6574 185.076C60.9798 185.09 61.3069 185.102 64.1563 185.082C64.5055 185.075 64.8487 185.068 65.1979 185.061C63.8807 184.992 62.9242 185.029 60.1366 184.989C60.6391 185.013 61.1394 185.036 61.6419 185.06C60.092 185.055 58.5485 185.05 56.9986 185.045C56.8147 185.052 56.6306 185.059 56.4467 185.067C56.998 185.076 57.5669 185.086 58.1121 185.095ZM1.00186 92.9399C1.00455 91.4325 1.00734 89.9182 1.01003 88.4108C0.993166 88.3557 0.976184 88.3027 0.959316 88.2476C0.973491 89.8097 0.987681 91.3777 1.00186 92.9399ZM245.012 36.6971C245.006 36.5776 245 36.4611 244.994 36.3575C245.001 36.3676 245.007 36.4982 245.012 36.6971ZM14.9315 0.949612C13.2222 0.937816 10.759 0.945562 8.88402 0.943082C9.03142 0.985399 13.7969 0.973702 15.4703 0.999353C15.7392 0.99176 15.654 0.954576 14.9315 0.949612ZM241.319 185.012C240.89 185.034 240.462 185.055 240.039 185.076C239.004 185.073 237.966 185.071 236.924 185.069C236.893 185.086 236.863 185.103 236.833 185.121C241.421 185.098 240.363 185.148 242.635 185.197C242.194 185.136 241.76 185.074 241.319 185.012ZM0.892242 44.9781C0.903936 48.2931 0.925779 49.4689 0.977626 47.6002C0.965728 46.4302 0.95382 45.2533 0.941922 44.0834C0.925368 44.3835 0.908797 44.684 0.892242 44.9781ZM220.324 0.949124C217.55 0.968497 217.503 0.898915 214.792 0.937772C216.244 0.950602 217.696 0.963575 219.142 0.976405C219.532 0.967334 219.933 0.958197 220.324 0.949124ZM245.242 112.379C245.266 111.208 245.151 109.021 245.236 105.73C245.211 104.946 245.186 104.455 245.162 103.781C245.189 103.389 245.216 102.943 245.243 102.57C245.243 102.567 245.243 102.565 245.243 102.563C245.234 99.5788 245.2 101.514 245.171 101.446C245.159 101.415 245.179 99.1999 245.153 99.8919C245.109 101.087 245.134 105.552 245.08 105.564C245.098 103.995 245.083 100.932 245.047 101.838C245.007 102.831 245.074 105.717 245.041 107.556C245.128 104.922 245.101 110.362 245.034 110.981C245.085 114.174 245.106 111.239 245.104 107.967C245.155 109.965 245.127 107.024 245.17 106.54C245.195 108.6 245.174 115.669 245.242 112.379ZM167.003 185.148C169.209 185.145 172.656 185.174 174.167 185.131C175.047 185.106 171.591 185.087 173.974 185.047C171.824 185.051 171.334 185.066 171.701 185.101C171.211 185.105 170.715 185.109 170.225 185.113C169.999 185.106 169.766 185.1 169.54 185.093C169.282 185.107 169.024 185.121 168.772 185.135C168.252 185.133 167.725 185.13 167.205 185.127C167.144 185.134 167.039 185.14 167.003 185.148ZM140.671 0.95126C141.284 0.950846 141.891 0.950435 142.503 0.949917C142.436 0.941526 142.355 0.932787 142.278 0.924162C142.222 0.917347 142.167 0.910531 142.111 0.903716C142.466 0.928066 145.385 0.968536 146.614 0.942533C147.232 0.929488 145.826 0.883176 148.446 0.875092C146.547 0.877474 144.788 0.883794 142.944 0.887726C143.109 0.873961 143.268 0.860049 143.434 0.846285C143.433 0.846265 143.432 0.846244 143.431 0.846224C142.818 0.84312 142.198 0.839868 141.586 0.836764C141.279 0.874953 140.978 0.913071 140.671 0.95126ZM91.7715 185.146C93.8611 185.119 94.5606 185.104 93.574 185.061C93.5718 185.061 93.5697 185.061 93.5675 185.061C92.7894 185.08 92.0108 185.099 91.2328 185.119C91.4104 185.128 91.5877 185.137 91.7715 185.146ZM245.156 18.6984C244.99 14.2559 245.092 24.2604 245.148 22.3556C245.151 22.2698 245.138 19.1151 245.156 18.6984ZM245.067 181.719C245.068 182.81 245.069 183.904 245.071 185L245.071 185.071L245 185.071C244.871 185.071 244.743 185.071 244.614 185.071C244.742 185.08 244.871 185.09 245 185.099L245.099 185.099L245.099 185C245.11 184.844 245.121 184.688 245.132 184.534C245.111 183.596 245.089 182.657 245.067 181.719ZM0.816928 59.411C0.771391 60.6945 0.754893 63.989 0.804417 65.5989C0.810212 64.7533 0.816015 63.9074 0.821811 63.0617C0.827501 64.6604 0.833764 66.2411 0.839144 67.852C0.902585 67.9378 0.86578 66.0813 0.88327 63.287C0.886091 62.8544 0.964839 60.0885 0.905486 59.1335C0.893287 58.9413 0.884992 61.8836 0.84952 59.8388C0.846728 60.733 0.847347 61.5047 0.845797 62.3499C0.830687 62.4111 0.81556 62.4719 0.80045 62.5393C0.805921 61.4941 0.811458 60.4561 0.816928 59.411ZM179.849 185.143C182.879 185.147 183.254 185.121 183.885 185.077C182.475 185.082 181.065 185.087 179.656 185.092C179.723 185.109 179.781 185.126 179.849 185.143ZM0.802403 86.5006C0.795075 88.1598 0.83154 87.4492 0.838473 88.117C0.864548 90.6413 0.838487 92.3631 0.854829 94.8567C0.847792 94.6912 0.841214 94.5393 0.834384 94.3799C0.834384 94.3821 0.834384 94.3843 0.834384 94.3865C0.80365 106.194 0.886349 99.992 0.872895 92.9268C0.886452 92.7614 0.900027 92.6025 0.913481 92.437C0.889783 89.2754 0.866979 86.3597 0.802403 86.5006ZM245.162 58.167C245.17 58.0322 245.224 59.1779 245.199 57.0274C245.12 55.3243 245.159 58.1174 245.129 58.8168C245.121 58.2346 245.114 57.6393 245.106 57.0633C245.084 60.5438 245.103 61.0518 245.16 59.7833C245.164 59.6928 245.153 58.302 245.162 58.167ZM245.2 35.293C245.084 34.8151 245.137 39.2075 245.173 39.0482C245.174 38.4419 245.154 37.9705 245.163 37.3274C245.172 36.6779 245.199 36.5119 245.2 35.293ZM245.172 161.137C245.173 161.009 245.221 159.716 245.183 159.844C245.093 161.444 245.151 164.666 245.182 164.102C245.181 163.036 245.167 162.326 245.172 161.137C245.172 161.137 245.172 161.137 245.172 161.137ZM0.789586 39.4204C0.786349 39.4816 0.766751 42.7071 0.784948 43.1233C0.805435 43.4664 0.827393 43.6367 0.848604 43.894C0.828941 42.117 0.84392 38.52 0.789586 39.4269C0.789586 39.4248 0.789586 39.4226 0.789586 39.4204Z" fill="black"/>
</svg>
