<?xml version="1.0" encoding="UTF-8"?>
<svg id="_レイヤー_1" data-name="レイヤー_1" xmlns="http://www.w3.org/2000/svg" version="1.1" viewBox="0 0 396 38">
  <!-- Generator: Adobe Illustrator 29.8.1, SVG Export Plug-In . SVG Version: 2.1.1 Build 2)  -->
  <path d="M36.4,36.6c-1.9,0,4.5,0,.2,0,.9,0,1.8,0,2.7,0,.2,0,.5,0,.7,0-1.2,0-2.4,0-3.6,0h0ZM34.8,36.9c1.1,0,4.6,0,.8-.2-.3,0-.6,0-.9,0-1.3,0-2.6,0-4,0-.5,0-.9,0-1.4,0-.6,0-1.2,0-1.8-.1.5,0,1.1,0,1.6,0,2.1,0,4,0,6.9,0-.3,0-.5,0-.8,0,1.5,0,2.9,0,4.4,0-1.3,0-2.7,0-3.8,0,1.9,0,5.2,0,6.9,0,2.3,0,1.8,0,3.5,0,.3,0,.3,0,.9,0,2.8,0,8.1,0,5,0-4.5,0-8.4,0-12.9,0,1.2,0-1.2,0-4.4.1ZM118.3,36.7c-1.4,0-4.2,0-6.1,0h0c-.4,0-1.4,0,0,0,2.2,0,3.3,0,4.5,0,.5,0,1.1,0,1.6,0ZM123.2,36.7c1.4,0,.7,0-1,0h0c-.7,0,.7,0-1.9,0-.5,0-1,0-1.6,0,.6,0,1.2,0,1.9,0-.4,0,1.2,0,2.5,0ZM54.3,36.7c.2,0-.7,0-2.2,0,1.4,0,2.9,0,4.3,0-.7,0-1.4,0-2.1,0ZM20.4,36.7h0c-.5,0-.9,0-1.4,0-.3,0-.6,0-.8,0-1.7,0-3.4,0-5,0,.2,0,3.2,0,4.9,0,2.5,0,3.6,0,3.8,0-.5,0-.9,0-1.4,0ZM394.9,8.9c0-.6,0-1.1,0-1.7,0,.7,0,1.5,0,2.2,0,2,0,2.1,0,4.7,0,7.9.1,5.8,0,12.9,0-5.7,0-3.5-.1-7,0-.7.1,2.7.1.4,0-4,0-7.8-.1-12.2,0,.1,0,.3,0,.4,0,.7,0,1.4,0,2.1,0-.8,0-1.5,0-2.3,0,1,0-1.5,0-1.2,0,.1,0,1.2,0,1.9,0-1.7,0-3.4,0-5.1,0,.9,0,1.7,0,2.6,0,.7,0,1.4,0,2.1h0ZM43.9,1.3c2.1,0,6,0,8,0-2.7,0-5.3,0-8,0ZM21.9,36.8c-.2,0-.5,0-.7,0,1.1,0,2.1,0,3.2,0,.2,0,.4,0,.6,0-1,0-2.1,0-3.1,0ZM89.6,36.8c-.8,0-.8,0-1.8,0h0c-.4,0-3.6,0-3.2,0,1.6,0,3.3,0,4.9,0,0,0,0,0,.1,0ZM70.9,36.8s0,0,0,0c-.6,0-1.1,0-1.7,0,2.1,0,2.5,0,4.4,0,2,0,3.2,0,4.8,0-.6,0-1.3,0-1.9,0-2.8,0-3.5,0-5.7,0,0,0,0,0,.1,0ZM388,36.8c-.5,0-1.1,0-1.2,0,0,0,0,0,0,0-4.7,0,.6,0-3.8,0,.7,0,1.3,0,2,0,1,0,2,0,3,0ZM235.6,36.8s0,0-.1,0c2.7,0,3.3,0,5.5,0-1.8,0-3.6,0-5.4,0h0ZM103,36.8c-2.9,0-5.1,0-8,0,0,0,0,0,0,0-.2,0,.6,0,.4,0-.6,0-1.2,0-1.8,0,0,0-.2,0-.2,0,1.7,0,3.3,0,5,0-.2,0-.5,0-.7,0,1.4,0,2.8,0,4.2,0-.5,0-1,0-1.5,0,.8,0,1.7,0,2.5,0ZM279.9,36.9c-.5,0,.4,0-.3,0-.7,0-2.1,0-1.8,0,1,0,2,0,3,0-3.2,0-6.4,0-6.5,0,3.1,0,5.6,0,8.6,0-.1,0-3.1.1-1.2.2-.6,0-1.2,0-1.8,0,0,0,0,0,0,0ZM.5,14.8c0-1.8,0-6,0-8.3,0-.6.1-2.5.1-2.4,0,0,0,2.4,0-.1,0,.8,0,1.6,0,2.5,0-.1,0-.3,0-.4,0-1,0-2,0-3,0,0,0,0,0-.1,0,3.6,0,1.5,0,3.3,0-1.7,0-3.5,0-5.2,0,1,0,2.2,0,3,0,.1,0-2,0-2.3,0-2,0,8.2.1,9.1,0-1.6,0-3.4,0-5,0,.5,0,1,0,1.4,0,3.8,0,8.1-.1,12.5,0,.4,0,.8,0,1.2,0-.1,0-.2,0-.3,0,.6,0,1.2,0,1.8,0-1.8,0,.7-.1,3.7,0-1.6,0-3.5,0-3.4,0,4.5,0,9.7,0,14.4h0s0,0,0,0c.9,0,1.8,0,2.7,0,1.3,0,1.3,0,4.4,0-.1,0-.1,0-.2,0,5.3,0,8.6,0,14.1,0-.3,0-.6,0-1,0-1.2,0-2.4,0-3.5,0-.8,0,.4,0-3.1,0-2.9,0-1.2,0-1.9,0-1.1,0-2,0-3.1,0-.9,0,0,0-2.2,0,.9,0,1.9,0,2.8-.1.6,0,1.1,0,1.7,0-.6,0-1.1,0-1.7,0,2,0,3.9,0,5.9,0-.7,0,1.5,0,2.6,0,1.8,0,.3,0,1.4,0,1.2,0,2.5,0,4.6,0-1.1,0,.4,0,.1,0-.3,0-2.6,0-.4,0,4.2,0-.4-.1,2.5-.1,3.4,0,4.2.1,3.2.2-.8,0-3.5,0-4.3,0,4.9,0,4.9,0,5.8,0,3,0,1,.1,4.6,0,0,0-.1,0-.2,0,.6,0,1,0,1.8,0-2.2,0-.4,0,.5,0,1.5,0-.8,0-.4,0,1,0,2.7,0,1.7,0,.5,0,.9,0,1.4,0,1.7,0,5.7-.2,1.9-.1.4,0,1.6,0,2.6,0,1,0,.9,0,1.8,0,3.4,0,1.2,0,.6.1,4.5,0,0,0,6.5,0,.6,0-2.3,0,.1,0,.5,0,2.3.1,5.8.1.3,0,.7,0,1,0,1.9,0,.9.1,4.5,0-1.9.1-.6,0,2.6,0,.7,0-.9,0,0,0,.4,0,1.4,0,2.4,0,.5,0,2.8,0,4.4,0-1.2,0,1.9-.1-.7-.2,4.8,0,8.2,0,2.8,0,1.2,0,2.4,0,3.7,0,.8,0,1.7,0,2.6,0,.1,0,0,0,3.3,0-1.5,0-2.9,0-4.4,0,0,0-.3,0-.2,0,1.8,0,6.8,0,8,0,1.2,0-1.1,0-.8,0,2.9-.1,2.7,0,4.8,0,1.2,0-1.7,0-1,0,2.4,0,3.6,0,5.7,0-.8,0-1.5,0-2.3-.1,2.3,0,4.8,0,6.9,0,.8,0,.2,0,.3,0,.7,0,3.4,0,3.7,0,2.2,0,2.2,0,4.4,0-.8,0-1.6,0-2.4,0-.4,0-.7.1-1.1.2,2.1,0,4.2,0,6.2,0-1.5,0-3,0-4.6,0,2.4,0,4.8,0,7.1-.1,1.2,0,2.5,0,3.7,0,3.4,0,2.7-.1,4.3,0,1,0,2,0,3,0-.1,0-.3,0-.4,0,1.2,0,2.4,0,3.6,0-1.3,0-2.5-.1-3.7-.1,2.3,0,2.4,0,2.7,0,.9,0,2.8,0,3.5,0,.2,0-2.1,0-1.3,0,.2,0,3.2.1,5.2,0,0,0-.2,0-.3,0,2.6,0,4,0,3.6.1,1.4,0,3.5,0,3.8,0,.7,0,1.4,0,2.2,0-.8,0,2.3,0,2.4,0-1.2,0-2.5,0-3.7,0,.9,0-2.8-.1,5,0,1.5,0-2.7,0-1.4,0,2.1,0,4.1,0,6.1,0,2.5,0-.6,0,5.3,0-12.9-.1,1.8,0,7.8-.1,1.7.1,6.8.2,13.8.1-.7,0-2.9,0-4.2,0-1.3,0,.1,0-1.5,0-1.6,0-5,0-6.6,0,1.4,0,8.1,0,3.6,0,3.3,0,4.9,0,9,0,1.2,0,1.1,0,5.1,0-2.4,0,2.2.1,1.2.2-2.8,0-1.3,0-2.9-.1-.2,0-2.8,0-3.4,0,2.7,0,3.6,0,2,.2,1.9,0,3.1,0,3.2,0,.4,0,.8,0,1.2,0,.6,0,1.2,0,1.8,0-.9,0,.8,0,2.1,0,1.2,0-.4,0,3,0-1.1,0-2.2,0-3.3,0,2.2,0,4.4,0,6.6,0-1.5,0-4.9,0-4.8-.1,1,0,4.5,0,4.8,0,1.5,0,.7,0,.8,0,2.3,0,4.2,0,5.1,0,1.7,0,3,0,4.9,0,1,0,.8,0,1.4,0,3.9,0,.2,0,7.8,0-.9,0-1.8,0-2.7,0,.9,0,1.7,0,2.6,0,.6,0,1.1,0,1.7,0,0,0,0,0,0,.1.6,0,1.3,0,1.9,0-1.1,0-2.2,0-3.2,0,0,0-.2,0-.3,0,1.6,0,3.2,0,4.8,0,0,0,0,0,0,0,3.6,0,3.7,0,7.1,0,2.6,0,4.8,0,6.3-.1.5,0,1.1,0,1.6,0,.4,0,.7,0,1.1,0,.7,0,1.4,0,2.1,0,.4,0,.6,0-2.1,0,.9,0,5.7,0,7.7,0,1.5,0-.2,0,0,0,.6,0,3,0,3.6,0,2.2,0,3.7,0,5.6,0,.4,0,1.4,0,1.5,0,.7,0,2.4,0,2.6,0,10.2,0-.7-.1,8.8,0-.3,0-.5,0-.8,0,.7,0,1.4,0,2.1,0,.9,0-.2,0,1.6,0-.1,0-.2,0-.4,0,.8,0,1.5,0,2.3,0,1.3,0,5.8,0,5.5.2-.1,0-3.4,0-1.6,0,1.4,0,.5,0,1,0,4.1,0,3.9,0,5.6,0,.3,0,.5,0,.8,0,.6,0,1.3,0,1.9,0,.1,0,.3,0,.4,0-.6,0-1.3,0-1.8,0,.8,0,7.8,0,5.1,0-1.1,0-3.1,0-1.8,0,1.9,0,4,0,6,0,0,0,.1,0,.2,0,2.7,0,.2,0,.2,0,.6,0,1.2,0,1.8,0,.3,0,.5,0,.8,0,0,0,.4,0,2.2,0,1.2,0-.7,0,1.6,0-.2,0-1,0,1.5,0,.2,0,.6,0,.8.1,3.1,0,4.5,0,8.1,0,2.3,0,5.4-.1,6.9,0,1.7,0,1.1,0,1.6,0,2.3,0,4.1,0,4.5,0,2.8,0,4,0,6.3,0-.1,0-.2,0-.3,0-2.1,0-3.1,0-6.1,0,1,0,2,0,2.9,0-.2,0-.3,0-.5,0-9,0-6.9,0,.6,0,.7,0,1.3,0,2,.1,4.4,0,6.4,0,11.4,0,.6,0,2.7,0,3.6,0,0,0,0,0,0,0,.6,0-.2,0-.3,0,.5,0,1,0,1.5,0,1.1,0,.7,0,2.9,0-.3,0-.6,0-.9,0,2.4,0,4,0,6.2,0-.4,0-.7,0-1.1,0,4.9,0,1,.2,4.7,0,.2,0,.5,0,.7,0-1.5,0-3,0-4.5,0,0,0,0,0,0,0,1.6,0,3.2,0,4.9,0-1.2,0-2.4,0-3.6,0,1.9,0,3.8,0,5.6,0-2,0,.6,0,.1-.1,3.3,0,5.9.1,11.1,0,1,0,.5,0,3.4,0-.7,0,2.9-.1,2.5-.2-1,0-2.1,0-3,0,1.1,0,1.3,0-.4.1-2.2,0-5.3,0-5.2,0-.9,0-1.7,0-2.5,0,.3,0,.7,0,1,0-2.4,0-3.9,0-5,0,2.8,0,5.7,0,8.5,0-.4,0-.8,0-1.3,0,2.1,0,0,0,3.9,0,0,0,0,0,0,0,1.5,0,5.5,0,4.2-.1,1.2,0,1.5,0,2.1,0,3.2,0,5.2.1,4.1.2,1.2,0,2.4,0,3.5,0-.7,0-1.4,0-2.1,0,2.1,0,4.1,0,6.2,0,.2,0-4,0-2.8,0,.2,0,1.3,0,1.6,0,3.1,0-1.7,0-.8,0,3.2,0,2.4,0,3.8,0h0c0-.6,0-1.6,0-3.5,0-.2,0-.3,0-.5,0-2.2,0-2,0-3.9,0-1.2,0-2.7,0-3.9,0-.2,0,2,0-2.6,0-3.6,0-2.1,0-4,0-1.9,0-6.3,0-7.6,0,1,0,2.3,0,3.4,0,.5,0,.9,0,1.3,0-2.6,0-5.2,0-6.9,0-3.4,0-7.2,0-6.2,0,1.1,0,0,0,1.5,0,.2,0,.3,0,.5,0-1.7,0-3.1,0-3.5h0c-.2,0-.2,0,0,0,0,0,0,.1,0,.2,0,0,0-.2,0-.2h0s0,0,0,0c-.3,0-.7,0-1,0,0,0-.1,0-.2.1-.5,0-1,0-1.5,0-.5,0-1.1,0-1.7,0,.7,0,2,0-2.2,0,0,0,0,0,0,0-3.5,0-3.6,0-8,0,3.4,0,5.2,0,5.2,0,.9,0,1.7,0,2.6,0,.1,0,.3,0,.4,0-4.6,0-12.1.1-15.2,0-.4,0-.7,0-1.1,0-3,0-4.3,0-7.3,0-.3,0,.3-.1-3.6-.1,0,0,.1,0,.2,0-.9,0-1.7,0-2.6,0-.2,0-.3,0-.5,0,1.5,0,2.9,0,4.4,0-1.2,0-2.4,0-3.6,0,1.6,0,2.3,0,1.3,0-1.4,0-2.7,0-4.1,0-.1,0-.3,0-.4,0,.7,0,1.3,0,2,0-3.6,0-6.7,0-9.4,0-.5,0,1.2,0-2,0,0,0-.1,0-.2,0-3.9,0-5.2,0-9.3,0,2.6,0,.3,0-.4,0-.5,0,1.3,0,1.1,0-.2,0-2.5,0-.5,0,4.9-.1,6.2,0,12.5,0-1,0-1.9,0-2.9,0,.5,0,.9,0,1.4,0-3.5,0-1.8,0-3.2,0-1.4,0-4.1,0-5.8,0-.6,0,0,0-1.2,0-.9,0-3.2,0-3.7,0-.3,0,3.4-.1-1.8-.1-1,0,1.5,0,1.6,0,.5,0-2.7,0-4.2,0-.1,0,1,0-.2,0-3,0-4.7,0-6.6,0-.2,0-2.7.1-5.8,0-.2,0-.3,0-.5,0,.5,0,1,0,1.5,0,.5,0,1.1,0,1.6,0-3.1,0-3.6,0-5.1.1-5.2,0-2,0-1.1-.1.7,0,1.3,0,2,0,0,0-.1,0-.2,0-7.7,0-1.2-.1-5.1-.1-1,0-3.9,0-7.6,0-.4,0-.8,0-1.2,0,0,0,0,0-.2,0-4.4,0-5.2-.1-5.6-.1-1.9,0-3.3,0-3.9,0-2.3,0-3,0-5.2,0-2.4,0-.7,0-1.5,0-.6,0-2.4,0-3.2,0,.3,0,.6,0,1,0-2.4,0-4.5,0-7.2,0-3.1.1-5.8,0-4.7,0,2.6,0,4.1,0,5.5,0-1.7,0-3.5,0-5.2,0-.5,0-.9,0-1.5,0-1.3,0-4.3,0-5.5,0-5.5,0-3.8.1-8.8,0,3.6,0,3.6,0,7.2,0-.8,0-2.6,0-1.4,0-3.5,0-2.4,0-3.7,0-1.2,0-3.5,0-3.4,0-.2,0-.4,0-.7,0-2.3,0-4.5,0-6.8,0,1,0,1.9,0,2.9,0-.7,0-1.5,0-2.2,0-5.5,0-15.1,0-13.6.1-2.7,0-3,0-4.5,0-.2,0-.3,0-.5,0-1.7,0-3,0-4.6,0-1.5,0-1.9,0-2.1,0-1,0-2,0-2.9,0-.6,0-1.2,0-1.8,0-.9,0-1.8,0-2.8,0-.5,0-4.1,0-5.7,0-1.5,0-1.5-.2-5.1-.1,0,0,.2,0,.3,0-.8,0-1.6,0-2.5,0,0,0,0,0-.1,0,.4,0,.8,0,1.2,0-.4,0-.7,0-1.1,0-1.2,0-2.5,0-3.8,0,1.7,0,3.4,0,5.1,0-2.1,0-3.6,0-5.4,0-1.6,0-1,0-.4-.1-.6,0-1.2,0-1.8,0,.4,0-.6,0,2.9,0-.2,0-.5,0-.7,0-.6,0-.9,0-1.6,0-1.7,0-3,0-2.9.1,0,0,1.8,0,1.7,0-.2,0-4,0,1.5,0-1.9,0-2.3,0-4.3,0,.2,0,.3,0,.5,0-.9,0-1.9,0-2.8,0,1.3,0-5.7-.1.6-.2-1.9,0-3.7,0-5.6,0,.4,0,.8,0,1.1,0,.8,0,1.7,0,2.5,0-1,0-2,0-3,0-2.3,0-3.2,0-4.3,0,2.7,0,1.8,0,3.9,0,0,0,0,0-.2,0-1.1,0-4.6,0-5.5,0-2.5,0-.5,0-2.2,0-1.7,0-3.7,0-5,0,0,0,.1,0,.2,0-2.6,0-2.1,0-2.4,0-4.3,0-6.7,0-11.6,0,.6,0,1.3,0,1.9,0-3.7,0-1.2,0,2,0-3,0-4.8,0-6.9,0-2.1,0-5.8,0-7.2,0,3.1,0,6.4,0,9.8,0-.4,0-.8,0-1.2,0-2.1,0-3.3,0-4,0-2,0-1.9,0-3.2,0,0,0,0,0,.1,0-4.1,0-8.6,0-11.3,0-.2,0-.4,0-.7-.1-1.8,0-3.3,0-4.7,0-1.5,0-.9,0-2.6,0-.3,0-1,0-1.8,0-.8,0-3.7.1-4.1,0-1.5,0-2.9,0-4.3,0,1.4,0,2.8,0,4.2,0-1.2,0-2.4,0-3.6,0-.2,0-.3,0-.5,0-3.2,0-5.6,0-8.9,0-.5,0,.7,0-1.7,0-2.4,0-4.2,0-8.4,0-.2,0-1.4,0-2.9,0-.3,0,1.1,0,.3,0-.8,0-4.2,0-4.5,0,0,0,.3,0,.4,0-.6,0-1.2,0-1.8,0,0,0-.1,0-.2,0-3.4,0-5.2.1-10.2.1,1.4,0,2.8,0,4.2,0,.4,0,.8,0,1.2,0,2.3,0,4.6,0,7,0,.4,0,.8,0,1.1,0,.6,0,1.2,0,1.8,0-.2,0-.3,0-.5,0,1.2,0,2.4,0,3.7,0-2.5.1-6.9,0-6.6,0-.5,0-1.1,0-1.6,0-.2,0-1.4,0-3.3,0,.4,0,.9,0,1.4,0-1.9,0-5.3,0-7.3,0-.9,0,0,0-.3,0-1.3,0-3.9,0-4.4,0-3.2,0-5.2-.1-8.7,0,3.6,0,1.6,0,2.9,0,.4,0,5,0-.8,0-.7,0-11.1,0-7.7-.1-1.7,0-3,0-4.6,0-3.8-.1-2.5,0-1.4,0-.6,0-1.2,0-1.9,0,1.4,0-5.6,0-7.9,0-.8,0,1.4,0-.4,0-.9,0-1.9,0-2.8,0,1.3,0-1.3,0-1.2.1-1.7,0-2.9-.1-2-.2-1.4,0-2.8,0-4.1,0,.6,0,1.3,0,1.9,0-4.5,0-10.3,0-11.2,0-.6,0-1.2,0-1.8,0-.2,0-.4,0-.5,0-2.7,0-5.4,0-8.1,0,2.4,0,3,0,5.5,0-1,0-2,0-2.9,0-3.8,0-4.3,0-10,0-.3,0-4.6,0-4.7,0-.7,0,.4,0,0,0-.8,0-5.9,0-5.8-.1,1.2-.1,18.4-.1,23-.1,48,0,95,0,142.7,0,.5,0,.3,0,.5,0,1.3,0,2.6,0,3.1,0,1,0,.5,0,1.2,0,7.7,0,15.1,0,22.8,0,.5,0,0,0,.9,0,.5,0,1.9,0,2.9,0,3.6,0,6.6,0,10.4,0,2.1,0,5.2,0,7.5,0,1,0,2.1,0,3.1,0,1.4,0,1.1,0,1.4,0,1,0,1.1,0,2,0,1.7,0,1.8,0,4,0,1.6,0,5.1,0,7.1,0,4.6,0,10.4,0,14.7,0,2.5,0,2.8,0,3.8,0,3.6,0,6.4,0,9.8,0,4.5,0,8.6,0,13,0,.7,0,.5,0,1.2,0,2.6,0,5.9,0,8.2,0,2.6,0,3.5,0,6,0,.7,0,1,0,2.2,0,2,0,4.1,0,5.5,0,1.9,0,.2,0,2.8,0,.1,0,.5,0,1,0,1.6,0,1.4,0,3.8,0,.2,0,3.3,0,3.6,0,1.8,0,5.5,0,6.5,0,3.8,0,.8,0,4.1,0,1.4,0,2.9,0,4.4,0-1,0,3.1,0,3.4,0,2.4,0,1,0,4,0-4,0,3.9,0,5.7,0,8.5,0,16.2,0,24.8,0,2.9,0,6.7,0,9.7,0,.7,0,.2,0,.8,0,.6,0,0,0,.6,0,4.4,0,7.9,0,11.9,0,.2,0,.2,0,.5,0,2.4,0,6.4,0,9.3,0h.4s0,.4,0,.4c0,1.1,0,2.1,0,2.8,0,3.7,0,4.7,0,7.4,0,3.6,0,9,0,6.6,0,2.5,0,4.8,0,7.3,0,.3,0,0,0,.2,0,.7,0,.9,0,1.4,0,1.3,0-.8,0,1,0,1,0,1.5,0,4.2,0,1.7,0,3.4,0,5.1v.4h-.4c-14.7,0-30.4,0-45.2,0-1.1,0-.4,0-1.8,0-5,0-13.8,0-18.1,0-4.3,0-3.3,0-6,0-.5,0,0,0-.6,0-3.1,0-6.9,0-9.4,0-1.7,0-1.6,0-2.7,0-1.7,0-3.5,0-4.5,0-4.4,0-7.4,0-11.5,0,.2,0,.3,0,.4,0-4.8,0-9.7,0-14.5,0,.2,0,.4,0,.7,0-5.7,0-5,0-4.5,0-.4,0-.8,0-1.2,0,.2,0-3.3-.1-7.6-.2-.3,0-2.5,0-2.2,0-.6,0-.9,0-1.4,0-.9,0-1.9,0-2.8,0-.5,0-1,0-1.5,0,0,0,0,0-.2,0-2.3,0-7.1,0-8.9,0-4.5,0-9.2,0-12.7,0-1.7,0,0,0-2.6,0-.3,0-.6,0-.9,0-2.1,0-2.5,0-5.4,0-1.9,0-3.2,0-5.1,0-.5,0-.4,0-.7,0-1.1,0-4.1,0-4.9,0-6.9,0-12.7,0-19.3,0-.7,0,.2,0-.5,0-1.2,0-.5,0-1.2,0-1.9,0-1.9,0-4.5,0-8.7,0-18.6,0-27.7,0-.3,0-.3,0-.6,0-2,0-4,0-5.9,0-3,0-5.3,0-8.3,0-5.8,0-11.1,0-17.1,0-4.9,0-9.2,0-14.6,0-23.5,0-47.5,0-71.2,0-.6,0-.4,0-.5,0-1.7,0-1.9,0-2.5,0-2.2,0-2.9,0-5.6,0-1.4,0-.4,0-2.8,0-2.2,0,.2,0-6.3,0-.2,0-1,0-2.4,0-1.4,0,.2,0-3.1,0-7.1,0-15.9,0-24.3,0h-.4s0-.4,0-.4c0-.7,0-1.4,0-2.1,0-.6,0-6,0-7,0-2.1,0-1.6,0-4.3,0-2.1,0-3.8,0-6.2,0-.3,0-.8,0-2.6ZM394,1.1c-.5,0-1.4.1-4.5.1-.3,0,1.3,0-.4,0,1.6,0,3.3,0,4.9,0h0ZM1.2,1.6c0,2.3,0,4.6,0,6.9,0-1.6,0-3.2,0-4.7,0-.7,0-1.4,0-2.1ZM249.9,36.8h0c2.4,0,4.8,0,7.2,0-.3,0-.5,0-.8,0-1.9,0-3.8,0-5.7,0-.3,0-.5,0-.8,0ZM230.9,36.9c-1.5,0-1.2,0-2,0h0c-.2,0-1.3,0-1.7,0,.1,0,.3,0,.5,0-3.6,0-10.6,0-1.5-.1-.1,0-.3,0-.4,0,4.5,0,9.5,0,5.1.1ZM357.8,1.2c-3.8,0-5.1,0-9.7,0,.7,0,1.3,0,2,0,.8,0,1.5,0,2.3,0h0c.2,0,.3,0,.5,0,1.7,0,3.3,0,5,0ZM83.9,36.9c-1.1-.1-.8,0,2.3,0,1.1,0,0,0,.7,0,3.6,0,3.8,0,3,0-2,0-4,0-6,0h0ZM1.1,27.6h0c0,0,0,1.3,0-.3,0,1.2,0,2.5,0,3.7,0-.4,0-.7,0-1.1,0,.3,0,.6,0,1,0,.4,0,.8,0,2.1,0-.4,0-.7.1-1.1,0,1.5,0,3,0,4.5,0,0,0,0,0,0,0,.2,0,.3,0,.5l-.2-.2c.4,0,.8,0,1.2,0,.2,0,.3,0,.5,0,.7,0,1.4,0,2.1,0,.2,0-1.3,0,1.4,0-.8,0-1.6,0-2.5,0-.9,0-1.7,0-2.6,0h0c0-3.1,0-6.2,0-9.3ZM111.7,36.9c-4.4,0-3.2,0-2.1,0,.7,0,1.4,0,2.1,0ZM339.1,36.9c1.3,0,2.6,0,3.9-.1,2.6,0,5.2,0,3.3,0-2.4,0-4.8,0-7.1,0ZM394.9,33.4c0,3.2,0,.2,0-.5,0-.9,0-2.1,0-4.1,0,1.9,0,4.1,0,4.6h0ZM287.7,36.9c-1.3,0-2.6,0-3.7,0,.3,0,2.6,0,1,0,.8,0,1.6,0,2.5,0-.5,0,.2,0,.2,0,0,0,0,0,0,0ZM154.5,36.8c2.5,0,3,0,5.5,0,.4,0-2.7,0-4.6.1-.3,0-.6,0-1-.1ZM77.4,1.2c.6,0,5.1,0,7.3,0-.3,0-.5,0-.8,0-2.2,0-4.3,0-6.5,0ZM394.8,27.9c0,.3,0,.6,0,.9,0-.3,0-.6,0-.9ZM288.1,1c1.1,0-2.1,0,1.7,0h0c2.5,0,3.1,0,5.4,0-.8,0-5.6,0,.9,0,0,0,0,0,1,0,.3,0,1.3,0,2.9,0,.5,0,4.3,0-.9,0,.2,0-.1,0-.1.1-2,0-3.6,0-5.7,0-3.2,0-4.8,0-5.4,0,2.7,0,7.2,0,7.8,0,2.6,0,3.3,0,1.2,0-8.9,0-2.4,0-10.2,0,0,0-.4,0-.4,0-2.4,0,1.3,0,1.7,0ZM306.8,1.1c-1.5,0-3.1,0-4.6,0,0,0,.8,0,3.3-.1.4,0,.9,0,1.3,0ZM177.3,1.1c-.2,0-.8,0-1.2,0-.5,0-11.5,0-5.9,0,.8,0,5.8,0,7.2,0ZM137,36.8c1.3,0,2.6,0,3.9,0-2,0-4,0-6,0,.7,0,1.4,0,2.1,0ZM360.4,36.9c-.6,0,1.3,0-.9,0,1.6,0,3.1,0,4.7,0,.5,0,1,0,1.4,0,.4,0,.7,0,1.1,0-.2,0-.4,0-.7,0-2.7,0-3.3,0-5.7,0ZM281.1,37c-.5,0,3.4,0-.4,0,.7,0,1.9,0,4.1,0,.4,0,.7,0,1.1,0,0,0,.6,0,1.9,0,0,0,0,0,0,0,3.4,0,3.2,0,4,0-3.6,0-3.7,0-6.1,0-1.7,0-3.9,0-4.5,0ZM189.1,1.1c-2.5,0-.3,0-4.7,0,.3,0,.6,0,.9,0,1.3,0,2.6,0,3.9,0ZM268.6,36.9c.3,0,2.7.1,3.1,0-2.3,0-1.2,0-3.1,0ZM395,34.5c0,1.2,0,2,0,2.5-1.2,0-.9,0,0-.1h-.1c0,0,0-.3,0-.6,0-.3,0-.6,0-.8,0-.8,0-1.6,0-2.3,0,.5,0,.9.1,1.4ZM189.9,37c3.4,0-3.7,0-1.3,0,1.9,0,4.4,0,3.5,0-.7,0-1.4,0-2.2,0h0ZM209.7,36.9c-.6,0,.2,0-2.4,0-.8,0-6.9,0-4.3,0,2.2,0,4.5,0,6.8,0ZM376.9,1.1s4.7,0,5.3,0h0c1.6,0-3.3,0-1.2.1-4.8,0-6.2,0-5.9,0,2.8,0,1.5,0,1.8,0ZM19,1h0c.3,0,2.9,0,2.6,0-3.1,0-2.6,0-5.5,0-.2,0-.3,0-.5,0,1.2,0,1.8,0,3.4,0ZM165.3,1c1.2,0,3.3,0,4.6,0-4.2.1-9.2,0-4.6,0ZM34.8,36.9s0,0,0,0c0,0,0,0,0,0h0ZM254.5,1.1c-.1,0-.2,0-.3,0h0c0,0,.2,0,.3,0ZM367.1,1.1c-2,0,4.6,0,6.7,0-.1,0-.2,0-.5,0-1.7,0-5.8,0-6.2,0ZM309.9,36.9c5.2,0-1.6.2-1.8,0,0,0,1.7,0,1.8,0ZM394.9,13.9c0,1.3,0-1.3,0,2.9,0,.2,0,.5,0,.7,0-1.2,0-2.4,0-3.6ZM343.7,37.1c6.5,0,12.7,0,8.5-.2-.5,0-1,0-1.5,0,0,0-1.9,0-4.5,0-.4,0-1.9,0-2.1,0-.5,0,1.2,0-.3.1ZM69.3,37c.1,0,.2,0,.3,0,1,0,2.1,0,3.1,0-.2,0-.3,0-.5,0-1,0-1.9,0-2.9,0h0ZM313.1.9c-.6.1,1.5,0,5.7,0-1.9,0-3.8,0-5.7,0ZM239.3,37.1c-.1,0-.3,0-.4,0-2.2,0-1.8,0-.7.1.4,0,.8,0,1.2,0ZM207.2,37.1c.9,0,.5,0,.5,0,2.3,0,2.7,0,5.5,0,.4,0,.7,0,1,0-1.3,0-2.3,0-5.1,0,.5,0,1,0,1.5,0-1.6,0-3.1,0-4.7,0-.2,0-.4,0-.6,0,.6,0,1.1,0,1.7,0ZM57.4,37c-1.5,0-3,0-4.6,0,0,0-.1,0-.2,0,1.6,0,3.1,0,4.7,0ZM282,1c-.1,0-.2,0-.3,0,0,0,.1,0,.3,0ZM15,.9c-1.7,0-4.2,0-6.1,0,.1,0,4.9,0,6.6,0,.3,0,.2,0-.5,0ZM391.3,37c-.4,0-.9,0-1.3,0-1,0-2.1,0-3.1,0,0,0,0,0,0,0,4.6,0,3.5,0,5.8,0-.4,0-.9-.1-1.3-.2ZM9.2,37.1c3.3,0,4.5,0,2.6,0-1.2,0-2.4,0-3.5,0,.3,0,.6,0,.9,0ZM221.3.9c-2.8,0-2.8,0-5.6,0,1.5,0,2.9,0,4.4,0,.4,0,.8,0,1.2,0ZM358,.8c-1.2,0-3.4,0-6.7,0-.8,0-1.3,0-2,0-.4,0-.8,0-1.2,0h0c-3,0-1.1,0-1.1,0,0,0-2.3,0-1.6,0,1.2,0,5.7,0,5.7,0-1.6,0-4.7,0-3.7,0,1,0,3.9,0,5.7,0-2.6,0,2.8,0,3.4,0,3.2,0,.3,0-3,0,2,0-.9,0-1.4,0,2.1,0,9.2,0,5.9,0ZM316.6,37.1c2.2,0,5.7,0,7.2,0,.9,0-2.6,0-.2,0-2.2,0-2.7,0-2.3,0-.5,0-1,0-1.5,0-.2,0-.5,0-.7,0-.3,0-.5,0-.8,0-.5,0-1.1,0-1.6,0,0,0-.2,0-.2,0ZM141.3,1c.6,0,1.2,0,1.8,0,0,0-.1,0-.2,0,0,0-.1,0-.2,0,.4,0,3.3,0,4.5,0,.6,0-.8,0,1.8,0-1.9,0-3.7,0-5.5,0,.2,0,.3,0,.5,0,0,0,0,0,0,0-.6,0-1.2,0-1.9,0-.3,0-.6,0-.9.1ZM241.1,37.1c2.1,0,2.8,0,1.8,0h0c-.8,0-1.6,0-2.3,0,.2,0,.4,0,.5,0ZM263.9.8c-4.5.2,5.6,0,3.7,0,0,0-3.3,0-3.7,0ZM395.1,33.7c0,1.1,0,2.2,0,3.3h0c0,0,0,0,0,0-.1,0-.3,0-.4,0,.1,0,.3,0,.4,0h0c0-.3,0-.4,0-.6,0-.9,0-1.9,0-2.8ZM23.7,37.2c1.3,0,4.6,0,6.2,0-.8,0-1.7,0-2.5,0,1.6,0,3.2,0,4.8,0,0,0-1.8,0-4.6,0-.4,0-3.2,0-4.2,0-.2,0,2.8,0,.7,0,.9,0,1.7,0,2.5,0,0,0,.1,0,.2,0-1.1,0-2.1,0-3.1,0ZM329.5,37.1c3,0,3.4,0,4.1,0-1.4,0-2.8,0-4.2,0,0,0,.1,0,.2,0ZM50.9,37.2c1.7,0,1,0,1.6,0,2.5,0,4.3,0,6.8,0-.2,0-.3,0-.5,0h0c11.9,0,5.6,0-1.5,0-.2,0-.3,0-.5,0-3.2,0-6.1,0-6,.1ZM303.6.8c-.1,0,1,0-1.1,0-1.7,0,1.1,0,1.8,0-.6,0-1.2,0-1.8,0,3.5,0,4,0,2.7,0,0,0-1.5,0-1.6,0ZM280.6.8c-.5.1,3.9,0,3.8,0-.6,0-1.1,0-1.7,0-.7,0-.8,0-2,0ZM395.2,13c0-.1,0-1.4,0-1.3,0,1.6,0,4.8,0,4.3,0-1.1,0-1.8,0-3h0ZM3.6,37.2c0,0,3.3,0,3.7,0,.3,0,.5,0,.8,0-1.8,0-5.4,0-4.5,0h0Z"/>
</svg>