<?xml version="1.0" encoding="UTF-8"?>
<svg id="_レイヤー_2" data-name="レイヤー 2" xmlns="http://www.w3.org/2000/svg" xmlns:xlink="http://www.w3.org/1999/xlink" viewBox="0 0 127.14 24.45">
  <defs>
    <style>
      .cls-1, .cls-2, .cls-3, .cls-4 {
        fill: none;
      }

      .cls-5 {
        fill: #231815;
      }

      .cls-6 {
        fill: url(#_ハス_四角形_);
        opacity: .74;
      }

      .cls-2 {
        stroke-width: 2px;
      }

      .cls-2, .cls-3, .cls-4 {
        stroke: #231815;
        stroke-linecap: round;
      }

      .cls-3 {
        stroke-width: 2.7px;
      }

      .cls-4 {
        stroke-width: 2.5px;
      }
    </style>
    <pattern id="_ハス_四角形_" data-name="ハス (四角形)" x="0" y="0" width="42.5" height="42.5" patternTransform="translate(-9.7 501.88)" patternUnits="userSpaceOnUse" viewBox="0 0 42.5 42.5">
      <g>
        <rect class="cls-1" width="42.5" height="42.5"/>
        <line class="cls-2" x1="3.38" y1="24.61" x2="17.53" y2="38.75"/>
        <line class="cls-2" x1="38.95" y1="24.82" x2="24.81" y2="38.96"/>
        <line class="cls-2" x1="17.67" y1="3.54" x2="3.52" y2="17.68"/>
        <line class="cls-2" x1="24.63" y1="3.36" x2="38.78" y2="17.5"/>
        <path class="cls-5" d="M21.25,14.94c1.5,0,1.64.66,2.75,1.7,2.19-1.93-.33-6.3-2.75-7.38-2.42,1.08-4.94,5.45-2.75,7.38,1.11-1.04,1.25-1.7,2.75-1.7Z"/>
        <path class="cls-5" d="M14.94,21.25c0-1.5.66-1.64,1.7-2.75-1.93-2.19-6.3.33-7.38,2.75,1.08,2.42,5.45,4.94,7.38,2.75-1.04-1.11-1.7-1.25-1.7-2.75Z"/>
        <path class="cls-5" d="M21.25,27.56c-1.5,0-1.64-.66-2.75-1.7-2.19,1.93.33,6.3,2.75,7.38,2.42-1.08,4.94-5.46,2.75-7.38-1.11,1.04-1.25,1.7-2.75,1.7Z"/>
        <path class="cls-5" d="M27.56,21.25c0,1.5-.66,1.64-1.7,2.75,1.93,2.19,6.3-.32,7.38-2.75-1.08-2.42-5.45-4.94-7.38-2.75,1.04,1.11,1.7,1.25,1.7,2.75Z"/>
        <path class="cls-5" d="M-.25,36.44c1.5,0,1.64.66,2.75,1.7,2.19-1.93-.33-6.3-2.75-7.38-2.42,1.08-4.94,5.45-2.75,7.38,1.11-1.04,1.25-1.7,2.75-1.7Z"/>
        <path class="cls-5" d="M6.06,42.75c0,1.5-.66,1.64-1.7,2.75,1.93,2.19,6.3-.32,7.38-2.75-1.08-2.42-5.45-4.94-7.38-2.75,1.04,1.11,1.7,1.25,1.7,2.75Z"/>
        <path class="cls-5" d="M-.25,6.06c1.5,0,1.64-.66,2.75-1.7,2.19,1.93-.33,6.3-2.75,7.38-2.42-1.08-4.94-5.45-2.75-7.38,1.11,1.04,1.25,1.7,2.75,1.7Z"/>
        <path class="cls-5" d="M6.06-.25c0-1.5-.66-1.64-1.7-2.75,1.93-2.19,6.3.32,7.38,2.75-1.08,2.42-5.45,4.94-7.38,2.75,1.04-1.11,1.7-1.25,1.7-2.75Z"/>
        <path class="cls-5" d="M42.75,36.44c-1.5,0-1.64.66-2.75,1.7-2.19-1.93.32-6.3,2.75-7.38,2.42,1.08,4.94,5.45,2.75,7.38-1.11-1.04-1.25-1.7-2.75-1.7Z"/>
        <path class="cls-5" d="M36.44,42.75c0,1.5.66,1.64,1.7,2.75-1.93,2.19-6.3-.32-7.38-2.75,1.08-2.42,5.45-4.94,7.38-2.75-1.04,1.11-1.7,1.25-1.7,2.75Z"/>
        <path class="cls-5" d="M42.75,6.06c-1.5,0-1.64-.66-2.75-1.7-2.19,1.93.32,6.3,2.75,7.38,2.42-1.08,4.94-5.45,2.75-7.38-1.11,1.04-1.25,1.7-2.75,1.7Z"/>
        <path class="cls-5" d="M36.44-.25c0-1.5.66-1.64,1.7-2.75-1.93-2.19-6.3.32-7.38,2.75,1.08,2.42,5.45,4.94,7.38,2.75-1.04-1.11-1.7-1.25-1.7-2.75Z"/>
        <line class="cls-4" x1="21.25" y1="21.25" x2="21.25" y2="21.25"/>
        <line class="cls-4"/>
        <line class="cls-4" x1="42.5" x2="42.5"/>
        <line class="cls-4" y1="42.5" y2="42.5"/>
        <line class="cls-4" x1="42.5" y1="42.5" x2="42.5" y2="42.5"/>
        <line class="cls-3" x1="21.25" y1="42.44" x2="21.25" y2="42.44"/>
        <line class="cls-3" x1="21.25" y1="-.06" x2="21.25" y2="-.06"/>
        <line class="cls-3" y1="21.19" y2="21.19"/>
        <line class="cls-3" x1="42.5" y1="21.19" x2="42.5" y2="21.19"/>
      </g>
    </pattern>
  </defs>
  <g id="_レイヤー_1-2" data-name="レイヤー 1">
    <path class="cls-6" d="M13.61.03h113.53c-.91,1.57-.95,3.48-2.64,4.88-.58.48-.99.11-1.47.74.05-.07-.03,1.14-.03,1.22-.06,1.01,0,1.76.35,2.71-1.38.14-.2,1.34-.34,1.99-.16.74-1.45,1.51-1.79,2.25-.94,1.99.61,3.11,3.1,3.22,1.1,1.37-3.15,2.64.58,3.38-.83.33-2.17.78-1.81,1.76.79.46,1.9.79,2.59,1.29-.33.44.05.46.35.84l-126.02.14c.43-1.01,0-2.2.14-3.2.13-.99.61-2.09.61-3.11,0-.56-.22-.78-.19-1.29.04-.5.37-.94.37-1.51,0-1.09-.67-2.05,0-3.09.66-1.03,2.45-2.17,3.7-2.82,1.01-.52,2.8-.77,3.02-1.93.18-.95-1.31-2.02-.91-3.08.1-.27.96-1.01,1.22-1.29.67-.73,1.27-1.41,2.46-1.83.65-.23,1.31-.33,1.88-.55.73-.28.68-.89,2.22-.71"/>
  </g>
</svg>