<?xml version="1.0" encoding="UTF-8"?>
<svg id="_レイヤー_2" data-name="レイヤー 2" xmlns="http://www.w3.org/2000/svg" xmlns:xlink="http://www.w3.org/1999/xlink" viewBox="0 0 120.42 24.42">
  <defs>
    <style>
      .cls-1, .cls-2 {
        fill: none;
      }

      .cls-2 {
        stroke: #231815;
        stroke-width: 5.75px;
      }

      .cls-3 {
        fill: #fff;
      }

      .cls-4 {
        fill: url(#_十字架);
        opacity: .7;
      }
    </style>
    <pattern id="_十字架" data-name="十字架" x="0" y="0" width="54.96" height="54.97" patternTransform="translate(-430.33 441.35)" patternUnits="userSpaceOnUse" viewBox="0 0 54.96 54.97">
      <g>
        <rect class="cls-1" y="0" width="54.96" height="54.97"/>
        <line class="cls-3" x1="-21.67" y1="48.97" x2="-15.67" y2="54.97"/>
        <line class="cls-3" x1="-21.67" y1="54.97" x2="-15.67" y2="48.97"/>
        <path class="cls-2" d="M0,54.97"/>
        <polygon class="cls-2" points="16.49 60.46 16.49 49.47 5.5 49.47 5.5 38.48 -5.5 38.48 -5.5 60.46 16.49 60.46"/>
        <path class="cls-2" d="M21.99,43.97"/>
        <polygon class="cls-2" points="27.48 38.48 38.48 38.48 38.48 49.47 27.48 49.47 27.48 60.46 16.49 60.46 16.49 49.47 5.5 49.47 5.5 38.48 16.49 38.48 16.49 27.48 27.48 27.48 27.48 38.48"/>
        <path class="cls-2" d="M10.99,21.99"/>
        <polygon class="cls-2" points="16.49 16.49 27.48 16.49 27.48 27.48 16.49 27.48 16.49 38.48 5.5 38.48 5.5 27.48 -5.5 27.48 -5.5 16.49 5.5 16.49 5.5 5.5 16.49 5.5 16.49 16.49"/>
        <path class="cls-2" d="M0,0"/>
        <polygon class="cls-2" points="-5.5 -5.5 16.49 -5.5 16.49 5.5 5.5 5.5 5.5 16.49 -5.5 16.49 -5.5 -5.5"/>
        <path class="cls-2" d="M43.97,32.98"/>
        <polygon class="cls-2" points="49.47 27.48 60.46 27.48 60.46 38.48 49.47 38.48 49.47 49.47 38.48 49.47 38.48 38.48 27.48 38.48 27.48 27.48 38.48 27.48 38.48 16.49 49.47 16.49 49.47 27.48"/>
        <path class="cls-2" d="M54.96,54.97"/>
        <polygon class="cls-2" points="60.46 38.48 49.47 38.48 49.47 49.47 38.48 49.47 38.48 60.46 60.46 60.46 60.46 38.48"/>
        <path class="cls-2" d="M32.98,10.99"/>
        <polygon class="cls-2" points="38.48 5.5 49.47 5.5 49.47 16.49 38.48 16.49 38.48 27.48 27.48 27.48 27.48 16.49 16.49 16.49 16.49 5.5 27.48 5.5 27.48 -5.5 38.48 -5.5 38.48 5.5"/>
        <path class="cls-2" d="M54.96,0"/>
        <polygon class="cls-2" points="60.46 16.49 49.47 16.49 49.47 5.5 38.48 5.5 38.48 -5.5 60.46 -5.5 60.46 16.49"/>
        <polyline class="cls-2" points="-5.5 27.48 5.5 27.48 5.5 38.48 -5.5 38.48"/>
        <polyline class="cls-2" points="27.48 -5.5 27.48 5.5 16.49 5.5 16.49 -5.5"/>
        <polyline class="cls-2" points="60.46 27.48 49.47 27.48 49.47 16.49 60.46 16.49"/>
        <polyline class="cls-2" points="27.48 60.46 27.48 49.47 38.48 49.47 38.48 60.46"/>
        <polygon class="cls-2" points="-27.48 16.49 -16.49 16.49 -16.49 27.48 -27.48 27.48 -27.48 38.48 -38.47 38.48 -38.47 27.48 -49.47 27.48 -49.47 16.49 -38.47 16.49 -38.47 5.5 -27.48 5.5 -27.48 16.49"/>
      </g>
    </pattern>
  </defs>
  <g id="_レイヤー_1-2" data-name="レイヤー 1">
    <path class="cls-4" d="M120.42,24.42c-.92-.41-.48-1.03-.56-1.15-.08-.12-.26-.7-.32-.82-.09-.18-.78-.23-.86-.42-.47-1.18.92-1.95-1.78-2.55.19-.29.31-.72.66-.96-.69-.4-.62-.75.17-1,.24-2-1.13-1.7-2.48-2.92.72-.42,1.25-1.02.7-1.8-.89-.12-.56-.39-.64-.98-.01-.08.27-1.3.32-1.58.28-1.41.83-1.24,1.83-2.21.2-.19.46-1.01.48-1.15,0-.1.24-.44.19-.71-.05-.26-.8-.31-.83-.45-.21-.84.53-1.96.76-2.79-.12-.03-.31,0-.44-.01-.26-.7,1.43-2.69,1.93-2.93H0v11.09c1.34-.59,2.11.7.56,1.15-.07.61.21,1.13.83,1.4-.43.73.21.82.39,1.38.52,1.57.54.82,2.66,1.73-.4,1.25-1.83.72-3.18,1.11-.08,1.15-.31,1.9,1.04,2.37,1.08.37,2.86-.2,4.01,0,1.1.19,1.86.99,3.1.87.89,1.19,1.95,2.15,3.02,3.35h107.99Z"/>
  </g>
</svg>