<?xml version="1.0" encoding="UTF-8"?>
<svg id="_レイヤー_2" data-name="レイヤー 2" xmlns="http://www.w3.org/2000/svg" xmlns:xlink="http://www.w3.org/1999/xlink" viewBox="0 0 121.64 26.01">
  <defs>
    <style>
      .cls-1 {
        fill: none;
      }

      .cls-2 {
        fill: #e4dabd;
        stroke: #c6bda7;
        stroke-width: .3px;
      }

      .cls-3 {
        fill: url(#_織り目_籐_カラー);
        opacity: .8;
      }
    </style>
    <pattern id="_織り目_籐_カラー" data-name="織り目 (籐) カラー" x="0" y="0" width="36" height="36" patternTransform="translate(-428.96 483.31)" patternUnits="userSpaceOnUse" viewBox="0 0 36 36">
      <g>
        <g>
          <rect class="cls-1" width="36" height="36"/>
          <polygon class="cls-2" points="22.31 28.5 -3 28.5 -3 32.75 18.06 32.75 22.31 28.5"/>
          <rect class="cls-2" x="3.25" y="32.75" width="4.25" height="6.25"/>
          <polygon class="cls-2" points="11.88 32.74 20.28 41.14 23.28 38.13 17.88 32.74 11.88 32.74"/>
          <polygon class="cls-2" points="21.03 35.83 28.53 28.34 28.52 22.33 18.02 32.83 21.03 35.83"/>
          <rect class="cls-2" x="32.75" y="28.5" width="6.25" height="4.25"/>
          <polygon class="cls-2" points="28.5 13.31 28.5 39 32.75 39 32.75 17.56 28.5 13.31"/>
          <polygon class="cls-2" points="22.67 7.53 33.01 17.83 36.01 14.83 28.67 7.52 22.67 7.53"/>
          <polygon class="cls-2" points="13.31 7.5 39 7.5 39 3.25 17.56 3.25 13.31 7.5"/>
          <rect class="cls-2" x="28.5" y="-3" width="4.25" height="6.25"/>
          <polygon class="cls-2" points="14.97 -.17 18.42 3.28 24.42 3.27 17.98 -3.17 14.97 -.17"/>
          <polygon class="cls-2" points="15.02 -.17 7.52 7.33 7.53 13.34 18.02 2.84 15.02 -.17"/>
          <polygon class="cls-2" points="7.5 3.25 11.56 3.25 7.52 7.41 7.5 3.25"/>
          <rect class="cls-2" x="-3" y="3.25" width="6.25" height="4.25"/>
          <polygon class="cls-2" points="7.5 22.31 7.5 -3 3.25 -3 3.25 18.06 7.5 22.31"/>
          <polygon class="cls-2" points="-.03 20.83 7.67 28.53 13.67 28.52 2.97 17.82 -.03 20.83"/>
          <polygon class="cls-2" points="32.77 18.08 38.15 12.7 41.16 15.64 32.78 24.09 32.77 18.08"/>
          <polygon class="cls-2" points="3.27 11.58 -4.6 19.46 -1.6 22.46 3.28 17.59 3.27 11.58"/>
        </g>
        <polygon class="cls-2" points="32.83 7.5 32.83 11.56 28.67 7.52 32.83 7.5"/>
        <polygon class="cls-2" points="28.5 32.5 24.44 32.5 28.49 28.38 28.5 32.5"/>
        <polygon class="cls-2" points="3.51 28.55 3.51 24.48 7.67 28.53 3.51 28.55"/>
        <polygon class="cls-2" points="39.01 17.86 40.99 19.83 37.97 22.85 35.99 20.86 39.01 17.86"/>
        <polygon class="cls-2" points="-2.01 12.86 -.03 14.82 -3.04 17.84 -5.03 15.86 -2.01 12.86"/>
        <polygon class="cls-2" points="17.97 38.88 16 40.87 12.98 37.85 14.97 35.87 17.97 38.88"/>
      </g>
    </pattern>
  </defs>
  <g id="_レイヤー_1-2" data-name="レイヤー 1">
    <path class="cls-3" d="M108.31.03L0,1.75c.89,1.56.96,3.47,2.59,4.84.56.47.95.09,1.41.72-.05-.07.04,1.14.05,1.22.07,1,.02,1.76-.3,2.72,1.32.12.21,1.34.35,1.98.17.74,1.4,1.49,1.74,2.22.92,1.98-.54,3.12-2.91,3.27-1.03,1.39,3.04,2.59-.5,3.39.79.32,2.08.74,1.76,1.73-.75.47-1.81.82-2.46,1.33.32.43-.04.46-.32.85l120.24-1.77c-.42-1-.04-2.2-.17-3.2-.14-.99-.61-2.08-.62-3.1,0-.56.2-.78.16-1.3-.04-.5-.37-.94-.38-1.51-.01-1.09.61-2.06-.04-3.09-.64-1.02-2.37-2.14-3.56-2.76-.98-.51-2.68-.73-2.91-1.88-.19-.95,1.22-2.04.82-3.1-.1-.26-.93-.99-1.18-1.27-.65-.72-1.23-1.39-2.37-1.79-.62-.22-1.26-.31-1.8-.52-.7-.27-.66-.87-2.13-.67"/>
  </g>
</svg>