<?xml version="1.0" encoding="UTF-8"?>
<svg id="_レイヤー_2" data-name="レイヤー 2" xmlns="http://www.w3.org/2000/svg" xmlns:xlink="http://www.w3.org/1999/xlink" viewBox="0 0 120.43 24.42">
  <defs>
    <style>
      .cls-1, .cls-2, .cls-3 {
        fill: none;
      }

      .cls-4 {
        fill: #11763a;
      }

      .cls-5 {
        fill: #129141;
      }

      .cls-2 {
        stroke: #4da867;
      }

      .cls-2, .cls-3 {
        stroke-miterlimit: 1;
      }

      .cls-3 {
        stroke: #11763a;
      }

      .cls-6 {
        fill: #4da867;
      }

      .cls-7 {
        fill: url(#_葉_トロピカル_カラー);
        opacity: .75;
      }
    </style>
    <pattern id="_葉_トロピカル_カラー" data-name="葉 (トロピカル) カラー" x="0" y="0" width="54.25" height="90.65" patternTransform="translate(-289.99 443.81)" patternUnits="userSpaceOnUse" viewBox="0 0 54.25 90.65">
      <g>
        <rect class="cls-1" x="0" y="0" width="54.25" height="90.65"/>
        <rect class="cls-4" x="0" y="0" width="54.25" height="90.65"/>
        <path class="cls-6" d="M55.91,42.37c-.46-2.06-.69-2.33-1.05-2.76-.44-.53-.75-1.04-1.01.35-1.44,7.83-8.07,18.82-12.16,26.78-2.47,4.81-6.85,11.95-8.18,14.61-1.58,3.15-3.03,4.08-1.66,8.84,1.49,5.2,2.51,3.87,2.01,2.36-.98-2.97-1.14-5.51,1.05-3.85,2.89,2.19,7.78,1.22,10.41,1.05,4.03-.26,7.88.96,8.05,5.95l-5.25-3.76c-2.97,0-7.44.35-9.97-.53-2.54-.87-4.81-3.5-3.41,1.05h21.18v-50.09Z"/>
        <path class="cls-6" d="M56.44,33.93c-3.41,2.99-2.89-.17-2.45-.88,2.7-4.31,2.45-9.43,2.54-14.52.01-.91-.92-1.62-1.22,1.22,0,0-.12,3.59-.22,4.59-.17,1.75-1.05,1.71-1.36.04,0,0-.04-1.22-.35-4.64-.23-2.61-1.24-2.14-1.22-1.22.04,2.32-.15,9.12.79,10.76.35.61.53,1.58.09,2.8-.98,2.74-.53,3.41.88,4.03.88.39,1.92,0,2.8.88,2.63,2.63.44,1.58-2.54.61-2.82-.91-4.05-3.03-5.51-7-1.3-3.52-3.41-7.44-7.26-13.21-3.67-5.51-5.25-11.02-6.65-15.57-1.4-4.55.88-1.93,3.41-1.05,2.54.88,7,.53,9.97.53s3.68,2.71,3.68,4.72v8.49c0,.88,1.57.88,1.57,0V5.05c-.17-4.99-4.02-6.21-8.05-5.95-2.63.17-7.53,1.14-10.41-1.05-2.19-1.66-2.03.88-1.05,3.85.5,1.51-.52,2.84-2.01-2.36l24.59-.02v34.41Z"/>
        <path class="cls-6" d="M-.41,91.98l21.94.04c.93-3.49-.95-1.45-2.89-.61-1.92.83-9.01.42-11.64.53-2.19.09-4.38,2.62-4.38,5.6l-1.57-.88c.33-5.83,6.15-6.76,8.05-6.91,3.25-.26,9.01,1.19,11.99-.88,1.14-.79,2.01.35,1.66,1.49-.97,3.15.45,2.12,1.23-.79.53-1.99-1.02-4.51-2.36-8.58-.28-.84-6.11-10.11-8.36-14.61-4.46-8.96-10.56-19.43-11.59-24.02-.46-2.06-.69-2.33-1.05-2.76-.44-.53-.75-1.04-1,.35l-.02,52.02Z"/>
        <path class="cls-6" d="M-5.6-1.09v31.7c1.46,3.97,2.7,6.09,5.51,7,2.97.96,5.16,2.02,2.54-.61-.88-.88-1.91-.49-2.8-.88-1.4-.61-1.85-1.28-.88-4.03.44-1.22.26-2.19-.09-2.8-.94-1.64-.75-8.44-.79-10.76-.01-.91.99-1.39,1.22,1.22.31,3.41.35,4.64.35,4.64.31,1.66,1.18,1.71,1.35-.04.1-1,.22-4.59.22-4.59.31-2.84,1.24-2.14,1.22-1.22-.09,5.1.16,10.21-2.54,14.52-.44.7-.96,3.87,2.45.88,2.29-2,1.97-2.06,4.11-4.72,1.81-2.24,4.89-7.34,7.52-11.64,3.46-5.65,6.47-11.59,7.7-16.19.93-3.49-.95-1.45-2.89-.61-1.92.83-9.01.42-11.64.53-2.19.09-4.38,2.62-4.38,5.6v7.61c0,.88-1.57.88-1.57,0V6.01C1.38.19,7.2-.74,9.1-.9c3.25-.26,9.01,1.19,11.99-.87,1.14-.79,2.01.35,1.66,1.49-.97,3.15.45,2.12,1.23-.79l-29.57-.02Z"/>
        <path class="cls-6" d="M28.17,65.08c.31-2.84,1.24-2.14,1.22-1.23-.09,5.1.16,10.21-2.54,14.53-.44.7-.96,3.87,2.45.88,2.29-2,1.97-2.06,4.11-4.72,1.81-2.24,4.89-7.34,7.52-11.64,3.46-5.65,6.47-11.59,7.7-16.19.93-3.49-.95-1.45-2.89-.61-1.92.83-9.01.42-11.64.53-2.19.09-4.38,2.62-4.38,5.6v7.61c0,.88-1.57.88-1.57,0v-8.49c.33-5.83,6.15-6.76,8.05-6.91,3.25-.26,9.01,1.19,11.99-.88,1.14-.79,2.01.35,1.66,1.49-.97,3.15.45,2.12,1.23-.79.53-1.99-1.02-4.51-2.36-8.58-.28-.84-6.11-10.11-8.36-14.61-3.47-6.97-7.93-14.86-10.23-20.18-.66-1.52-1.13-2.82-1.37-3.84-.46-2.06-.69-2.33-1.05-2.76-.44-.53-.75-1.04-1.01.35-.36,1.93-1.02,4.05-1.89,6.26-2.66,6.79-7.19,14.52-10.27,20.51-2.47,4.81-6.85,11.95-8.18,14.61-1.58,3.15-3.03,4.08-1.66,8.84,1.49,5.2,2.51,3.87,2.01,2.36-.98-2.97-1.14-5.51,1.05-3.85,2.89,2.19,7.78,1.22,10.41,1.05,4.03-.26,7.88.96,8.05,5.95v9.45c0,.88-1.57.88-1.57,0v-8.49c0-2.01-.7-4.72-3.68-4.72s-7.44.35-9.97-.53c-2.54-.88-4.81-3.5-3.41,1.05,1.4,4.55,2.98,10.06,6.65,15.58,3.85,5.77,5.97,9.69,7.26,13.21,1.46,3.97,2.7,6.09,5.51,7,2.98.96,5.17,2.02,2.54-.61-.88-.88-1.91-.49-2.8-.88-1.4-.61-1.86-1.28-.88-4.03.44-1.22.26-2.19-.09-2.8-.94-1.64-.75-8.44-.79-10.76-.01-.91.99-1.39,1.22,1.23.31,3.41.35,4.64.35,4.64.31,1.66,1.18,1.71,1.36-.04.1-1,.22-4.59.22-4.59Z"/>
        <path class="cls-6" d="M30.15,91.54c-.66-1.52-1.13-2.82-1.37-3.84-.46-2.06-.69-2.33-1.05-2.76-.44-.53-.75-1.04-1.01.35-.36,1.93-1.02,4.05-1.89,6.26h5.31Z"/>
        <path class="cls-5" d="M3.05,89.4c-1.24.64-2.14,1.2-3.05,1.25v-46.75c2.01,3.32,3.94,9.45,5.34,11.38,1.4,1.92,2.99,5.25,4.02,7.17,1.23,2.27,9.68,16.25,11.38,20.83,1.14,3.06.79,3.7-.35,4.46-2.1,1.4-5.43-.14-7.7-.26-4.94-.27-7.7.93-9.64,1.93Z"/>
        <path class="cls-5" d="M7.35,2.78c-1.05-.07-3.59.52-3.33,5.6.26,5.08.03,13.98-.17,18.2-.14,2.93-4.8,9.13-.09,3.59,4.46-5.25,8.98-13.9,11.02-16.89,1.45-2.12,4.29-8.27,5.16-10.15,1.23-2.62,1.21-2.96-.44-1.58-1.59,1.35-10.76,1.31-12.16,1.23Z"/>
        <path class="cls-5" d="M27.12,45.33V-1.42c2.01,3.33,3.94,9.45,5.34,11.37,1.4,1.92,2.99,5.25,4.02,7.17,1.23,2.28,9.68,16.25,11.38,20.83,1.14,3.06.79,3.71-.35,4.46-2.1,1.4-5.43-.14-7.7-.26-8.11-.44-10.35,3.06-12.69,3.17Z"/>
        <path class="cls-5" d="M34.47,48.1c-1.05-.06-3.59.53-3.33,5.6.26,5.08.03,13.98-.17,18.2-.14,2.93-4.8,9.13-.09,3.59,4.46-5.25,8.98-13.9,11.02-16.89,1.45-2.12,4.29-8.27,5.16-10.15,1.23-2.62,1.21-2.96-.44-1.58-1.59,1.35-10.76,1.31-12.16,1.22Z"/>
        <path class="cls-5" d="M66.94-3.17c-8.11-.44-10.35,3.06-12.69,3.17v-3.19l12.69.02Z"/>
        <path class="cls-5" d="M12.69-3.17C4.58-3.61,2.33-.12,0,0v-3.19l12.69.02Z"/>
        <path class="cls-5" d="M27.12,100.62v-11.4c2.01,3.32,3.94,9.45,5.34,11.37l-5.34.02Z"/>
        <path class="cls-5" d="M57.3,89.4c-1.24.64-2.14,1.2-3.05,1.25v-46.75c2.01,3.32,3.94,9.45,5.34,11.38l-2.29,34.13Z"/>
        <path class="cls-3" d="M35.57,1.03c3.24,4.64,9.62,11.29,15.4,14"/>
        <path class="cls-3" d="M37.41,1.2c.79,1.66,1.05,2.19,1.31,3.94-1.14.09-1.49-.17-2.28-.35"/>
        <path class="cls-3" d="M40.73,1.99c.61,1.49,1.49,4.64,1.05,6.21-1.84.35-3.24.35-3.85.17"/>
        <path class="cls-3" d="M45.19,2.43c1.14,1.92,2.19,7.53,1.4,9.89-2.01,2.01-4.03,2.27-5.25,2.62"/>
        <path class="cls-3" d="M48.52,3.04c1.05,3.59,1.31,8.21,1.31,11.2-.79,2.54-1.66,4.9-4.81,6.74"/>
        <path class="cls-3" d="M47.91,18.7c.88,2.54,1.31,5.95.44,8.49"/>
        <path class="cls-3" d="M-1.12,50.82c.41.45.83.74,1.16.88"/>
        <path class="cls-3" d="M-1.24,62.49c.58.88,1.07,1.54,1.28,2.24"/>
        <path class="cls-3" d="M-1.53,75.04c.48.57.97,1.1,1.49,1.59"/>
        <path class="cls-3" d="M-1.8,83.21c.69.43,1.32.77,1.85,1.03"/>
        <path class="cls-3" d="M8.44,46.35c3.24,4.64,9.62,11.29,15.4,14"/>
        <path class="cls-3" d="M10.28,46.53c.79,1.66,1.05,2.19,1.31,3.94-1.14.09-1.49-.17-2.28-.35"/>
        <path class="cls-3" d="M13.61,47.32c.61,1.49,1.49,4.64,1.05,6.21-1.84.35-3.24.35-3.85.17"/>
        <path class="cls-3" d="M18.07,47.75c1.14,1.92,2.19,7.53,1.4,9.89-2.01,2.01-4.03,2.28-5.25,2.62"/>
        <path class="cls-3" d="M21.39,48.37c1.05,3.59,1.31,8.21,1.31,11.2-.79,2.54-1.66,4.9-4.81,6.74"/>
        <path class="cls-3" d="M20.78,64.03c.88,2.54,1.31,5.95.44,8.49"/>
        <path class="cls-3" d="M24.37,2.12c.53,2.49,1.92,3.89,2.8,4.24"/>
        <path class="cls-3" d="M22.71,5.93c.36,9.4,3.79,11.28,4.46,13.48"/>
        <path class="cls-3" d="M24.63,15.42c-.62-.43-2.39.15-5.13-2.9"/>
        <path class="cls-3" d="M19.5,12.52c-.09,6.56,2.94,14.4,7.58,18.78"/>
        <path class="cls-3" d="M16.03,19c1.84,3.5,4.9,3.76,6.04,5.08"/>
        <path class="cls-3" d="M14.62,21.59c1.58,10.59,9.13,15.66,12.54,17.33"/>
        <path class="cls-3" d="M18.19,31.08c-2.01-.26-5.47-1.01-6.96-3.03"/>
        <path class="cls-3" d="M11.11,27.93c1.22,7.61,13.88,17.11,16.06,15.8"/>
        <path class="cls-3" d="M17.63,38.04c-3.24.7-9.62-.26-11.29-1.66"/>
        <path class="cls-3" d="M4.48,40.14c2.8.18,5.78-1.22,7.17-2.1"/>
        <path class="cls-3" d="M8.38,43.52c.7-1.4,8.58-2.31,14.88-1"/>
        <path class="cls-3" d="M-1.22,89.06c.56.15.99.16,1.26,0"/>
        <path class="cls-3" d="M51.49,47.45c.53,2.49,1.92,3.89,2.8,4.24"/>
        <path class="cls-3" d="M49.83,51.25c.36,9.4,3.79,11.28,4.46,13.47"/>
        <path class="cls-3" d="M51.76,60.75c-.62-.43-2.39.15-5.13-2.9"/>
        <path class="cls-3" d="M46.62,57.85c-.09,6.56,2.94,14.4,7.58,18.78"/>
        <path class="cls-3" d="M43.16,64.33c1.84,3.5,4.9,3.76,6.04,5.08"/>
        <path class="cls-3" d="M41.75,66.91c1.58,10.59,9.13,15.67,12.54,17.33"/>
        <path class="cls-3" d="M45.32,76.4c-2.01-.26-5.47-1.01-6.96-3.03"/>
        <path class="cls-3" d="M38.23,73.25c1.22,7.61,13.88,17.11,16.06,15.8"/>
        <path class="cls-3" d="M44.76,83.37c-3.24.7-9.62-.26-11.29-1.66"/>
        <path class="cls-3" d="M31.61,85.46c2.8.17,5.78-1.22,7.17-2.1"/>
        <path class="cls-3" d="M35.5,88.85c.7-1.4,8.58-2.31,14.88-1"/>
        <path class="cls-2" d="M55.07,63.14c-.33.55-.6,1.04-.74,1.5"/>
        <path class="cls-2" d="M55.92,75.06c-.52.54-1.04,1.06-1.58,1.57"/>
        <path class="cls-2" d="M55.78,83.38c-.54.37-1.03.66-1.46.86"/>
        <path class="cls-2" d="M56.06,88.55c-.66.28-1.24.47-1.72.55"/>
        <path class="cls-2" d="M55.82,47.1c0,2.41-.96,3.46-1.49,4.59"/>
        <path class="cls-2" d="M1.57,47.1c0,1.54-.39,2.53-.82,3.33-.24.45-.48.85-.67,1.26"/>
        <path class="cls-2" d="M4.2,53.35c.14,4.75-2.11,7.69-3.38,9.79-.33.55-.6,1.04-.74,1.5"/>
        <path class="cls-2" d="M2.97,59.35c.94-.67,2.02.02,3.88-1.68"/>
        <path class="cls-2" d="M8.58,61.05c-.3,5.56-3.31,10.23-6.92,14.01-.52.54-1.04,1.06-1.58,1.57"/>
        <path class="cls-2" d="M11.29,66.13c-2.19,1.92-4.29,2.28-5.42,3.59"/>
        <path class="cls-2" d="M12.51,67.96c-1.15,6.66-7.2,12.85-10.99,15.41-.54.37-1.04.66-1.46.86"/>
        <path class="cls-2" d="M9.36,75.58c1.92.35,5.08-.53,6.65-1.49-1.45,6.05-9.61,12.5-14.2,14.46-.66.28-1.24.47-1.72.55"/>
        <path class="cls-2" d="M9.71,83.37c3.24.7,8.57-.35,10.24-1.75"/>
        <path class="cls-2" d="M21.35,86.34c-2.36-1.05-2.71-2.54-5.69-2.97"/>
        <path class="cls-2" d="M20.74.94c-4.32,6.19-9.45,10.84-16.54,14.17"/>
        <path class="cls-2" d="M17.94,2.12c-.79,1.66-1.18,2.41-1.44,4.16"/>
        <path class="cls-2" d="M14.66,2.65c-.61,1.49-1.58,4.9-1.14,6.47,1.84.35,2.89.35,3.5.17"/>
        <path class="cls-2" d="M11.16,2.82c-1.14,1.92-1.22,6.08-.44,8.44,2.01,2.01,2.36,2.32,3.59,2.67"/>
        <path class="cls-2" d="M6.3,3.21c-1.05,3.59-.44,7.69-.44,10.67.88,3.24,2.62,5.78,4.55,6.48"/>
        <path class="cls-2" d="M7.52,17.65c-.29.84-.44,5.64-.26,7.79"/>
        <path class="cls-2" d="M47.86,46.26c-4.32,6.19-9.45,10.84-16.54,14.18"/>
        <path class="cls-2" d="M45.06,47.45c-.79,1.66-1.18,2.41-1.44,4.16"/>
        <path class="cls-2" d="M41.78,47.97c-.61,1.49-1.58,4.9-1.14,6.48,1.84.35,2.89.35,3.5.17"/>
        <path class="cls-2" d="M38.28,48.15c-1.14,1.92-1.22,6.08-.44,8.44,2.01,2.01,2.36,2.32,3.59,2.67"/>
        <path class="cls-2" d="M33.42,48.54c-1.05,3.59-.44,7.69-.44,10.67.88,3.24,2.62,5.78,4.55,6.48"/>
        <path class="cls-2" d="M34.65,62.98c-.29.84-.44,5.64-.26,7.79"/>
        <path class="cls-2" d="M28.7,1.77c0,2.4-.96,3.45-1.49,4.59"/>
        <path class="cls-2" d="M31.32,8.03c.17,5.99-3.44,9.09-4.11,11.29"/>
        <path class="cls-2" d="M30.1,14.02c.94-.66,2.02.02,3.88-1.68"/>
        <path class="cls-2" d="M35.71,15.72c-.34,6.35-4.22,11.54-8.5,15.58"/>
        <path class="cls-2" d="M38.41,20.8c-2.19,1.92-4.29,2.28-5.42,3.59"/>
        <path class="cls-2" d="M39.64,22.64c-1.31,7.61-9.03,14.61-12.45,16.28"/>
        <path class="cls-2" d="M36.49,30.25c1.92.35,5.08-.53,6.65-1.49-1.66,6.91-12.08,14.35-15.92,15.01"/>
        <path class="cls-2" d="M36.84,38.04c3.24.7,8.57-.35,10.24-1.75"/>
        <path class="cls-2" d="M48.47,41.01c-2.36-1.05-2.71-2.54-5.69-2.97"/>
      </g>
    </pattern>
  </defs>
  <g id="_レイヤー_1-2" data-name="レイヤー 1">
    <path class="cls-7" d="M120.43,24.42c-.92-.42-.48-1.03-.56-1.15-.08-.12-.26-.7-.33-.82-.09-.18-.78-.23-.86-.42-.47-1.18.92-1.95-1.78-2.55.19-.29.31-.72.66-.96-.69-.4-.62-.75.17-1,.24-2-1.13-1.7-2.48-2.92.72-.42,1.25-1.02.7-1.8-.89-.12-.56-.39-.64-.97-.01-.07.27-1.3.32-1.58.27-1.41.83-1.24,1.83-2.21.2-.19.47-1.01.48-1.15,0-.1.24-.44.19-.71-.05-.26-.8-.31-.84-.45-.21-.84.54-1.96.76-2.79-.12-.03-.31,0-.44-.01-.26-.7,1.43-2.69,1.93-2.93H0v11.09c1.34-.59,2.11.7.56,1.15-.07.61.21,1.13.83,1.4-.43.73.21.82.39,1.38.52,1.57.55.82,2.66,1.73-.4,1.25-1.83.72-3.18,1.11-.08,1.15-.31,1.9,1.04,2.36,1.08.37,2.86-.2,4,0,1.1.19,1.86.99,3.1.87.89,1.18,1.95,2.15,3.02,3.34h107.99Z"/>
  </g>
</svg>