<?xml version="1.0" encoding="UTF-8"?>
<svg id="_レイヤー_2" data-name="レイヤー 2" xmlns="http://www.w3.org/2000/svg" xmlns:xlink="http://www.w3.org/1999/xlink" viewBox="0 0 121.5 25.26">
  <defs>
    <style>
      .cls-1, .cls-2 {
        fill: none;
      }

      .cls-3 {
        fill: #56a6d6;
      }

      .cls-4 {
        fill: url(#_さざ波_カラー_);
        opacity: .71;
      }

      .cls-2 {
        stroke: #fff;
        stroke-width: .75px;
      }
    </style>
    <pattern id="_さざ波_カラー_" data-name="さざ波 (カラー)" x="0" y="0" width="55.51" height="59.27" patternTransform="translate(-568.39 247.63)" patternUnits="userSpaceOnUse" viewBox="0 0 55.51 59.27">
      <g>
        <rect class="cls-1" width="55.51" height="59.27"/>
        <rect class="cls-3" width="55.51" height="59.27"/>
        <path class="cls-2" d="M61.05,61.14c-2.44,0-4.54-.76-5.55-1.86-1.01,1.1-3.12,1.86-5.55,1.86s-4.54-.76-5.55-1.86c-1.01,1.1-3.11,1.86-5.55,1.86s-4.54-.76-5.55-1.86c-1.01,1.1-3.12,1.86-5.55,1.86s-4.54-.76-5.55-1.86c-1.01,1.1-3.12,1.86-5.55,1.86s-4.54-.76-5.55-1.86c-1.01,1.1-3.11,1.86-5.55,1.86s-4.54-.76-5.55-1.86c-1.01,1.1-3.12,1.86-5.55,1.86"/>
        <path class="cls-2" d="M61.05,54.55c-2.44,0-4.54-.76-5.55-1.86-1.01,1.1-3.12,1.86-5.55,1.86s-4.54-.76-5.55-1.86c-1.01,1.1-3.11,1.86-5.55,1.86s-4.54-.76-5.55-1.86c-1.01,1.1-3.12,1.86-5.55,1.86s-4.54-.76-5.55-1.86c-1.01,1.1-3.12,1.86-5.55,1.86s-4.54-.76-5.55-1.86c-1.01,1.1-3.11,1.86-5.55,1.86s-4.54-.76-5.55-1.86c-1.01,1.1-3.12,1.86-5.55,1.86"/>
        <path class="cls-2" d="M61.05,47.96c-2.44,0-4.54-.76-5.55-1.86-1.01,1.1-3.12,1.86-5.55,1.86s-4.54-.76-5.55-1.86c-1.01,1.1-3.11,1.86-5.55,1.86s-4.54-.76-5.55-1.86c-1.01,1.1-3.12,1.86-5.55,1.86s-4.54-.76-5.55-1.86c-1.01,1.1-3.12,1.86-5.55,1.86s-4.54-.76-5.55-1.86c-1.01,1.1-3.11,1.86-5.55,1.86s-4.54-.76-5.55-1.86c-1.01,1.1-3.12,1.86-5.55,1.86"/>
        <path class="cls-2" d="M61.05,41.38c-2.44,0-4.54-.76-5.55-1.86-1.01,1.1-3.12,1.86-5.55,1.86s-4.54-.76-5.55-1.86c-1.01,1.1-3.11,1.86-5.55,1.86s-4.54-.76-5.55-1.86c-1.01,1.1-3.12,1.86-5.55,1.86s-4.54-.76-5.55-1.86c-1.01,1.1-3.12,1.86-5.55,1.86s-4.54-.76-5.55-1.86c-1.01,1.1-3.11,1.86-5.55,1.86s-4.54-.76-5.55-1.86c-1.01,1.1-3.12,1.86-5.55,1.86"/>
        <path class="cls-2" d="M61.05,34.79c-2.44,0-4.54-.76-5.55-1.86-1.01,1.1-3.12,1.86-5.55,1.86s-4.54-.76-5.55-1.86c-1.01,1.1-3.11,1.86-5.55,1.86s-4.54-.76-5.55-1.86c-1.01,1.1-3.12,1.86-5.55,1.86s-4.54-.76-5.55-1.86c-1.01,1.1-3.12,1.86-5.55,1.86s-4.54-.76-5.55-1.86c-1.01,1.1-3.11,1.86-5.55,1.86s-4.54-.76-5.55-1.86c-1.01,1.1-3.12,1.86-5.55,1.86"/>
        <path class="cls-2" d="M61.05,28.21c-2.44,0-4.54-.76-5.55-1.86-1.01,1.1-3.12,1.86-5.55,1.86s-4.54-.76-5.55-1.86c-1.01,1.1-3.11,1.86-5.55,1.86s-4.54-.76-5.55-1.86c-1.01,1.1-3.12,1.86-5.55,1.86s-4.54-.76-5.55-1.86c-1.01,1.1-3.12,1.86-5.55,1.86s-4.54-.76-5.55-1.86c-1.01,1.1-3.11,1.86-5.55,1.86s-4.54-.76-5.55-1.86c-1.01,1.1-3.12,1.86-5.55,1.86"/>
        <path class="cls-2" d="M61.05,21.62c-2.44,0-4.54-.76-5.55-1.86-1.01,1.1-3.12,1.86-5.55,1.86s-4.54-.76-5.55-1.86c-1.01,1.1-3.11,1.86-5.55,1.86s-4.54-.76-5.55-1.86c-1.01,1.1-3.12,1.86-5.55,1.86s-4.54-.76-5.55-1.86c-1.01,1.1-3.12,1.86-5.55,1.86s-4.54-.76-5.55-1.86c-1.01,1.1-3.11,1.86-5.55,1.86s-4.54-.76-5.55-1.86c-1.01,1.1-3.12,1.86-5.55,1.86"/>
        <path class="cls-2" d="M61.05,15.04c-2.44,0-4.54-.76-5.55-1.86-1.01,1.1-3.12,1.86-5.55,1.86s-4.54-.76-5.55-1.86c-1.01,1.1-3.11,1.86-5.55,1.86s-4.54-.76-5.55-1.86c-1.01,1.1-3.12,1.86-5.55,1.86s-4.54-.76-5.55-1.86c-1.01,1.1-3.12,1.86-5.55,1.86s-4.54-.76-5.55-1.86c-1.01,1.1-3.11,1.86-5.55,1.86s-4.54-.76-5.55-1.86c-1.01,1.1-3.12,1.86-5.55,1.86"/>
        <path class="cls-2" d="M61.05,8.45c-2.44,0-4.54-.76-5.55-1.86-1.01,1.1-3.12,1.86-5.55,1.86s-4.54-.76-5.55-1.86c-1.01,1.1-3.11,1.86-5.55,1.86s-4.54-.76-5.55-1.86c-1.01,1.1-3.12,1.86-5.55,1.86s-4.54-.76-5.55-1.86c-1.01,1.1-3.12,1.86-5.55,1.86s-4.54-.76-5.55-1.86c-1.01,1.1-3.11,1.86-5.55,1.86s-4.54-.76-5.55-1.86c-1.01,1.1-3.12,1.86-5.55,1.86"/>
        <path class="cls-2" d="M61.05,1.86c-2.44,0-4.54-.76-5.55-1.86-1.01,1.1-3.12,1.86-5.55,1.86s-4.54-.76-5.55-1.86c-1.01,1.1-3.11,1.86-5.55,1.86s-4.54-.76-5.55-1.86c-1.01,1.1-3.12,1.86-5.55,1.86s-4.54-.76-5.55-1.86c-1.01,1.1-3.12,1.86-5.55,1.86s-4.54-.76-5.55-1.86c-1.01,1.1-3.11,1.86-5.55,1.86S1.01,1.1,0,0c-1.01,1.1-3.12,1.86-5.55,1.86"/>
      </g>
    </pattern>
  </defs>
  <g id="_レイヤー_1-2" data-name="レイヤー 1">
    <path class="cls-4" d="M13.18.03l108.32.96c-.88,1.57-.94,3.48-2.56,4.86-.55.47-.95.1-1.4.73.05-.07-.04,1.14-.04,1.22-.06,1,0,1.75.31,2.71-1.32.13-.2,1.34-.34,1.99-.16.74-1.39,1.5-1.73,2.23-.91,1.98.56,3.12,2.93,3.24,1.04,1.38-3.03,2.61.52,3.39-.79.32-2.07.76-1.74,1.74.75.47,1.81.81,2.46,1.31-.31.43.04.46.33.85L0,24.33c.41-1.01.02-2.2.16-3.2.13-1,.6-2.09.6-3.11,0-.56-.21-.78-.17-1.3.04-.49.36-.94.37-1.51,0-1.08-.63-2.05.02-3.09.64-1.02,2.35-2.15,3.55-2.79.97-.51,2.68-.74,2.9-1.9.19-.95-1.23-2.04-.84-3.09.1-.27.92-1,1.17-1.28.65-.73,1.23-1.4,2.37-1.81.62-.22,1.25-.32,1.79-.53.7-.27.65-.88,2.12-.69"/>
  </g>
</svg>