<?xml version="1.0" encoding="UTF-8"?>
<svg id="_レイヤー_2" data-name="レイヤー 2" xmlns="http://www.w3.org/2000/svg" viewBox="0 0 117.76 24.14">
  <defs>
    <style>
      .cls-1 {
        fill: #1d2879;
        opacity: .3;
      }
    </style>
  </defs>
  <g id="_レイヤー_1-2" data-name="レイヤー 1">
    <path class="cls-1" d="M117.76,23.86c-1.16-1.2-.17-1.98-2.61-2.25.12-.03.31,0,.45-.02.23-1.21-.19-2.34-1.59-2.64.16-.08.37-.34.7-.45.03-.6-.51-1.04-1.19-1.27.26-.46.87-.75,1.42-.95-.43-.47-.91-.89-1.61-1.01.13-.18.38-.63.55-.79,1.36-.43.25-1.35-.18-1.83.11,0,.21.02.3.06.3-1.37-1.02-2.49-.48-3.7.05-.03.32-.14.36-.17-1.53-1.22-2.94-3.57-3.07-5.31-.46-.06-.53-.3-1.01-.33.18-.98-1-1.35-.94-2.34-.16-.03-.32,0-.48-.04-.11-.28-.32-.54-.39-.82L0,.28c.1.51.61.87,1.22,1.16-.91,1.02.26,1.78.74,2.62.77,1.33.37,2.01.16,3.24-.07.41.43.47.15,1.11-.21.47-1.2.95-1.35,1.29-.38.9.46,3.02,1.14,3.6-1.22.39-.26,4.26-.28,5.21-.02.73-.5,1.36-.33,1.99.08.28,1.02-.04,1.06.41.03.26-.38.5-.38.56,0,.59-.55,1.8-1.39,2.14.04.04.14.15.13.21-.11.08-.28.21-.33.32l117.23-.28Z"/>
  </g>
</svg>