<?xml version="1.0" encoding="UTF-8"?>
<svg id="_レイヤー_2" data-name="レイヤー 2" xmlns="http://www.w3.org/2000/svg" xmlns:xlink="http://www.w3.org/1999/xlink" viewBox="0 0 119.72 24.84">
  <defs>
    <style>
      .cls-1, .cls-2, .cls-3 {
        fill: none;
      }

      .cls-2 {
        stroke: #edb82b;
      }

      .cls-4 {
        fill: url(#_アステカ_カラー_);
        opacity: .76;
      }

      .cls-5 {
        fill: #231815;
      }

      .cls-3 {
        stroke: #d66d49;
        stroke-width: 3px;
      }

      .cls-6 {
        fill: #f3dac4;
      }

      .cls-7 {
        fill: #1698b2;
      }
    </style>
    <pattern id="_アステカ_カラー_" data-name="アステカ (カラー)" x="0" y="0" width="67" height="70.5" patternTransform="translate(-152.72 247.19)" patternUnits="userSpaceOnUse" viewBox="0 0 67 70.5">
      <g>
        <rect class="cls-1" width="67" height="70.5"/>
        <rect class="cls-6" width="67" height="70.5"/>
        <polyline class="cls-7" points="-1 47.02 5.52 47.02 5.52 52.57 11.07 52.57 11.07 58.12 16.62 58.12 16.62 63.67 -1 63.67"/>
        <polygon class="cls-7" points="50.17 35.58 50.17 41.13 44.63 41.13 44.63 46.68 39.08 46.68 39.08 52.23 27.97 52.23 27.97 46.68 22.42 46.68 22.42 41.13 16.88 41.13 16.88 35.58 50.17 35.58"/>
        <polyline class="cls-7" points="68 47.02 61.47 47.02 61.47 52.57 55.92 52.57 55.92 58.12 50.38 58.12 50.38 63.67 68.13 63.67"/>
        <polygon class="cls-7" points="50.17 .33 50.17 5.88 44.63 5.88 44.63 11.43 39.08 11.43 39.08 16.98 27.97 16.98 27.97 11.43 22.42 11.43 22.42 5.88 16.88 5.88 16.88 .33 50.17 .33"/>
        <polyline class="cls-7" points="68.13 11.77 61.47 11.77 61.47 17.32 55.92 17.32 55.92 22.87 50.38 22.87 50.38 28.42 68.13 28.42"/>
        <polyline class="cls-7" points="-1 11.77 5.52 11.77 5.52 17.32 11.07 17.32 11.07 22.87 16.62 22.87 16.62 28.42 -1 28.42"/>
        <path class="cls-5" d="M0,40.51c-1.27,0-2.3,1.03-2.3,2.3s1.03,2.3,2.3,2.3,2.3-1.03,2.3-2.3-1.03-2.3-2.3-2.3Z"/>
        <path class="cls-5" d="M33.5,58.74c1.27,0,2.3-1.03,2.3-2.3s-1.03-2.3-2.3-2.3-2.3,1.03-2.3,2.3,1.03,2.3,2.3,2.3Z"/>
        <path class="cls-5" d="M67,40.51c1.27,0,2.3,1.03,2.3,2.3s-1.03,2.3-2.3,2.3-2.3-1.03-2.3-2.3,1.03-2.3,2.3-2.3Z"/>
        <path class="cls-5" d="M33.5,23.49c1.27,0,2.3-1.03,2.3-2.3s-1.03-2.3-2.3-2.3-2.3,1.03-2.3,2.3,1.03,2.3,2.3,2.3Z"/>
        <path class="cls-5" d="M67,5.26c1.27,0,2.3,1.03,2.3,2.3s-1.03,2.3-2.3,2.3-2.3-1.03-2.3-2.3,1.03-2.3,2.3-2.3Z"/>
        <path class="cls-5" d="M0,5.26c-1.27,0-2.3,1.03-2.3,2.3s1.03,2.3,2.3,2.3,2.3-1.03,2.3-2.3-1.03-2.3-2.3-2.3Z"/>
        <polyline class="cls-2" points="-.76 68.13 0 65.93 5.95 68.21 6.76 65.86 12.76 68.16 13.53 65.93 19.42 68.19 20.2 65.93 25.87 68.1 26.65 65.85 32.61 68.13 33.37 65.95 39.1 68.14 39.88 65.9 45.74 68.14 46.51 65.92 52.49 68.21 53.3 65.86 59.35 68.17 60.15 65.86 66.24 68.19 67.02 65.93 72.92 68.18"/>
        <polyline class="cls-2" points="-.76 32.88 0 30.68 5.95 32.96 6.76 30.61 12.76 32.91 13.53 30.68 19.42 32.94 20.2 30.68 25.87 32.85 26.65 30.6 32.61 32.88 33.37 30.7 39.1 32.89 39.88 30.65 45.74 32.89 46.51 30.67 52.49 32.96 53.3 30.61 59.35 32.92 60.15 30.61 66.24 32.94 67.02 30.68 72.92 32.93"/>
        <polyline class="cls-3" points="68.13 37.12 58.63 37.12 58.63 45.5 50.25 45.5 50.25 53.88 41.88 53.88 41.88 62.25 25.13 62.25 25.13 53.88 16.75 53.88 16.75 45.5 8.38 45.5 8.38 37.12 -1 37.12"/>
        <polyline class="cls-3" points="68.13 1.88 58.63 1.88 58.63 10.25 50.25 10.25 50.25 18.62 41.88 18.62 41.88 27 25.13 27 25.13 18.62 16.75 18.62 16.75 10.25 8.38 10.25 8.38 1.88 -1 1.88"/>
      </g>
    </pattern>
  </defs>
  <g id="_レイヤー_1-2" data-name="レイヤー 1">
    <path class="cls-4" d="M106.39,24.84c.11-.09.08-.18.33-.16-.25-1.17,1.02-1.69.59-2.91,1.46-.17,4.86-.79,5.15-2.1,2.54-.74,1.39-2.46,2.14-3.93.9-.16.66-.92.89-1.54,1.71.01,1.33-1.44,1.79-2.38.26-.53.67-.69.84-1.29.17-.6-.01-1.34.03-1.94,1.38-.14.25-2.85,1.42-3.67-.85-.67-1.41-1.37-1.59-2.22,1.68-.03.18-1.83,1.75-2.13L0,0v24.71l106.72-.02"/>
  </g>
</svg>