<?xml version="1.0" encoding="UTF-8"?>
<svg id="_レイヤー_2" data-name="レイヤー 2" xmlns="http://www.w3.org/2000/svg" xmlns:xlink="http://www.w3.org/1999/xlink" viewBox="0 0 119.72 24.84">
  <defs>
    <style>
      .cls-1, .cls-2 {
        fill: none;
      }

      .cls-3 {
        fill: url(#_10_lpi_20_);
      }

      .cls-3, .cls-4 {
        opacity: .61;
      }

      .cls-4 {
        fill: #eee6b3;
      }

      .cls-2 {
        stroke: #231815;
        stroke-width: 1.44px;
      }
    </style>
    <pattern id="_10_lpi_20_" data-name="10 lpi 20%" x="0" y="0" width="72" height="72" patternTransform="translate(-149.69 559.26)" patternUnits="userSpaceOnUse" viewBox="0 0 72 72">
      <g>
        <rect class="cls-1" width="72" height="72"/>
        <line class="cls-2" x1="-.25" y1="68.4" x2="72.25" y2="68.4"/>
        <line class="cls-2" x1="-.25" y1="54" x2="72.25" y2="54"/>
        <line class="cls-2" x1="-.25" y1="39.6" x2="72.25" y2="39.6"/>
        <line class="cls-2" x1="-.25" y1="25.2" x2="72.25" y2="25.2"/>
        <line class="cls-2" x1="-.25" y1="10.8" x2="72.25" y2="10.8"/>
        <line class="cls-2" x1="-20" y1="10.8" x2="-6" y2="10.8"/>
        <line class="cls-2" x1="-.25" y1="61.2" x2="72.25" y2="61.2"/>
        <line class="cls-2" x1="-.25" y1="46.8" x2="72.25" y2="46.8"/>
        <line class="cls-2" x1="-.25" y1="32.4" x2="72.25" y2="32.4"/>
        <line class="cls-2" x1="-.25" y1="18" x2="72.25" y2="18"/>
        <line class="cls-2" x1="-.25" y1="3.6" x2="72.25" y2="3.6"/>
        <line class="cls-2" x1="-20" y1="3.6" x2="-6" y2="3.6"/>
      </g>
    </pattern>
  </defs>
  <g id="_レイヤー_1-2" data-name="レイヤー 1">
    <g>
      <path class="cls-3" d="M13.32,24.84c-.11-.09-.08-.18-.33-.16.24-1.17-1.02-1.69-.59-2.91-1.46-.17-4.86-.79-5.15-2.1-2.54-.74-1.39-2.46-2.14-3.93-.9-.16-.66-.92-.89-1.54-1.71.01-1.33-1.44-1.79-2.38-.26-.53-.67-.69-.84-1.29-.17-.6.02-1.34-.03-1.94-1.38-.14-.25-2.84-1.42-3.67.85-.67,1.41-1.37,1.59-2.22-1.68-.03-.18-1.83-1.75-2.13l119.72-.56v24.7l-106.72-.02"/>
      <path class="cls-4" d="M13.32,24.84c-.11-.09-.08-.18-.33-.16.24-1.17-1.02-1.69-.59-2.91-1.46-.17-4.86-.79-5.15-2.1-2.54-.74-1.39-2.46-2.14-3.93-.9-.16-.66-.92-.89-1.54-1.71.01-1.33-1.44-1.79-2.38-.26-.53-.67-.69-.84-1.29-.17-.6.02-1.34-.03-1.94-1.38-.14-.25-2.84-1.42-3.67.85-.67,1.41-1.37,1.59-2.22-1.68-.03-.18-1.83-1.75-2.13l119.72-.56v24.7l-106.72-.02"/>
    </g>
  </g>
</svg>