<?xml version="1.0" encoding="UTF-8"?>
<svg id="_レイヤー_2" data-name="レイヤー 2" xmlns="http://www.w3.org/2000/svg" viewBox="0 0 125.61 24.14">
  <defs>
    <style>
      .cls-1 {
        fill: #b01e23;
        opacity: .45;
      }
    </style>
  </defs>
  <g id="_レイヤー_1-2" data-name="レイヤー 1">
    <path class="cls-1" d="M125.61,23.86c-1.24-1.2-.18-1.98-2.78-2.25.13-.03.33,0,.48-.02.25-1.21-.2-2.34-1.7-2.64.17-.08.39-.34.75-.45.03-.6-.55-1.04-1.27-1.27.28-.46.93-.75,1.52-.95-.46-.46-.97-.89-1.72-1.01.13-.18.4-.63.59-.8,1.46-.43.27-1.35-.19-1.83.12,0,.22.02.32.06.32-1.37-1.09-2.5-.52-3.7.05-.04.34-.15.38-.17-1.63-1.22-3.14-3.58-3.27-5.31-.49-.06-.56-.3-1.08-.33.19-.98-1.07-1.35-1-2.34-.17-.03-.34,0-.51-.04-.12-.28-.34-.55-.41-.82L0,.28c.11.51.65.87,1.3,1.16-.96,1.02.27,1.78.79,2.62.82,1.33.39,2.01.17,3.24-.07.41.46.47.16,1.12-.22.47-1.28.94-1.44,1.29-.41.9.49,3.02,1.22,3.6-1.3.39-.28,4.25-.3,5.21-.02.72-.54,1.36-.36,1.99.08.28,1.09-.04,1.13.4.03.27-.4.51-.4.56.01.59-.59,1.8-1.49,2.14.04.04.15.15.13.21-.12.08-.3.21-.35.32l125.04-.28Z"/>
  </g>
</svg>