<?xml version="1.0" encoding="UTF-8"?>
<svg id="_レイヤー_2" data-name="レイヤー 2" xmlns="http://www.w3.org/2000/svg" xmlns:xlink="http://www.w3.org/1999/xlink" viewBox="0 0 121.31 24.45">
  <defs>
    <style>
      .cls-1, .cls-2 {
        fill: none;
      }

      .cls-3 {
        fill: #80ba5e;
        stroke: #0e7a40;
      }

      .cls-3, .cls-4, .cls-5, .cls-6, .cls-7, .cls-2 {
        stroke-width: .35px;
      }

      .cls-4 {
        fill: #11793b;
        stroke: #f3cd2a;
      }

      .cls-5 {
        fill: #147dbf;
        stroke: #147dbf;
      }

      .cls-6 {
        fill: #c5d671;
        stroke: #066033;
      }

      .cls-7 {
        fill: #0f8446;
        stroke: #e9da7e;
      }

      .cls-8 {
        fill: url(#_葉_カラー_);
        opacity: .75;
      }

      .cls-2 {
        stroke: #189850;
      }
    </style>
    <pattern id="_葉_カラー_" data-name="葉 (カラー)" x="0" y="0" width="93.29" height="40.58" patternTransform="translate(-290.22 250.33)" patternUnits="userSpaceOnUse" viewBox="0 0 93.29 40.58">
      <g>
        <rect class="cls-1" x="0" y="0" width="93.29" height="40.58"/>
        <g>
          <polygon class="cls-2" points="37.61 9.71 37.66 9.81 41.46 9.81 41.41 9.71 37.61 9.71"/>
          <polygon class="cls-2" points="33.81 9.71 33.85 9.81 37.66 9.81 37.61 9.71 33.81 9.71"/>
          <polygon class="cls-2" points="41.41 9.71 41.46 9.81 45.26 9.81 45.22 9.71 41.41 9.71"/>
          <polygon class="cls-2" points="33.81 9.71 30 9.71 30.05 9.81 33.85 9.81 33.81 9.71"/>
          <polygon class="cls-2" points="52.82 9.71 52.87 9.81 56.67 9.81 56.63 9.71 52.82 9.71"/>
          <polygon class="cls-2" points="49.02 9.71 49.07 9.81 52.87 9.81 52.82 9.71 49.02 9.71"/>
          <polygon class="cls-2" points="45.22 9.71 45.26 9.81 49.07 9.81 49.02 9.71 45.22 9.71"/>
          <polygon class="cls-2" points="56.67 9.81 60.48 9.81 60.43 9.71 56.63 9.71 56.67 9.81"/>
          <path class="cls-3" d="M49.02,9.71h3.8l-.03-.06,4.13-7.26c-.91-.55-1.9-1.05-2.97-1.47l-4.97,8.73.03.06Z"/>
          <path class="cls-3" d="M52.82,9.71h3.81l-.03-.06,3.04-5.34c-.8-.67-1.71-1.32-2.71-1.92l-4.13,7.26.03.06Z"/>
          <path class="cls-3" d="M45.22,9.71h3.8l-.03-.06L53.96.92c-1.02-.41-2.1-.74-3.25-.98l-5.52,9.71.03.06Z"/>
          <path class="cls-3" d="M56.63,9.71h3.8l-.03-.06,1.76-3.1c-.44-.35-.89-.73-1.33-1.16-.37-.36-.77-.72-1.2-1.07l-3.04,5.34.03.06Z"/>
          <path class="cls-3" d="M60.43,9.71h9.06s-3.56-.2-7.33-3.16l-1.76,3.1.03.06Z"/>
          <path class="cls-3" d="M33.78,9.65l4.54-7.98c-.09.04-.18.08-.27.13-1.83.91-3.51,1.75-5.03,2.51l-3.04,5.34.03.06h3.8l-.03-.06Z"/>
          <path class="cls-3" d="M37.61,9.71h3.8l-.03-.06L46.96-.15l-5.57,9.8.03.06h3.8l-.03-.06L50.71-.05c-2.33-.48-4.89-.54-7.64.06l-5.49,9.64.03.06Z"/>
          <path class="cls-3" d="M33.01,4.31c-6.94,3.48-10.67,5.4-10.67,5.4h7.66l-.03-.06,3.04-5.34Z"/>
          <path class="cls-3" d="M33.81,9.71h3.8l-.03-.06L43.07.01c-1.53.33-3.12.87-4.75,1.66l-4.54,7.98.03.06Z"/>
          <path class="cls-7" d="M69.49,9.81h-9.01l1.79,3.66c4.72-2.38,7.22-3.66,7.22-3.66Z"/>
          <path class="cls-7" d="M59.22,15.01c1.1-.55,2.12-1.07,3.05-1.53l-1.79-3.66h-3.8l2.55,5.2Z"/>
          <path class="cls-7" d="M22.34,9.81s4.45.25,8.66,4.32c.59.57,1.26,1.15,2,1.71l-2.95-6.03h-7.71Z"/>
          <path class="cls-7" d="M33.85,9.81l4.37,8.92c1.34.51,2.79.89,4.33,1.08l-4.9-10h-3.8Z"/>
          <path class="cls-7" d="M49.07,9.81l4.03,8.23c.23-.1.46-.21.69-.32.83-.41,1.62-.81,2.38-1.19l-3.29-6.72h-3.8Z"/>
          <path class="cls-7" d="M30.05,9.81l2.95,6.03c1.46,1.1,3.22,2.14,5.22,2.89l-4.37-8.92h-3.8Z"/>
          <path class="cls-7" d="M56.67,9.81h-3.8l3.29,6.72c1.08-.54,2.1-1.05,3.06-1.53l-2.55-5.2Z"/>
          <path class="cls-7" d="M45.26,9.81l4.61,9.42c1.05-.29,2.12-.69,3.22-1.19l-4.03-8.23h-3.8Z"/>
          <path class="cls-7" d="M37.66,9.81l4.9,10c1.22.15,2.5.18,3.84.07l-4.93-10.07h-3.8Z"/>
          <path class="cls-7" d="M41.46,9.81l4.93,10.07c1.13-.1,2.29-.31,3.49-.64l-4.61-9.42h-3.8Z"/>
        </g>
        <g>
          <polygon class="cls-2" points="37.61 -9.83 37.66 -9.73 41.46 -9.73 41.41 -9.83 37.61 -9.83"/>
          <polygon class="cls-2" points="33.81 -9.83 33.85 -9.73 37.66 -9.73 37.61 -9.83 33.81 -9.83"/>
          <polygon class="cls-2" points="41.41 -9.83 41.46 -9.73 45.26 -9.73 45.22 -9.83 41.41 -9.83"/>
          <polygon class="cls-2" points="33.81 -9.83 30 -9.83 30.05 -9.73 33.85 -9.73 33.81 -9.83"/>
          <polygon class="cls-2" points="52.82 -9.83 52.87 -9.73 56.67 -9.73 56.63 -9.83 52.82 -9.83"/>
          <polygon class="cls-2" points="49.02 -9.83 49.07 -9.73 52.87 -9.73 52.82 -9.83 49.02 -9.83"/>
          <polygon class="cls-2" points="45.22 -9.83 45.26 -9.73 49.07 -9.73 49.02 -9.83 45.22 -9.83"/>
          <polygon class="cls-2" points="56.67 -9.73 60.48 -9.73 60.43 -9.83 56.63 -9.83 56.67 -9.73"/>
          <path class="cls-3" d="M49.02-9.83h3.8l-.03-.06,4.13-7.26c-.91-.55-1.9-1.05-2.97-1.47l-4.97,8.73.03.06Z"/>
          <path class="cls-3" d="M52.82-9.83h3.81l-.03-.06,3.04-5.34c-.8-.66-1.71-1.32-2.71-1.92l-4.13,7.26.03.06Z"/>
          <path class="cls-3" d="M45.22-9.83h3.8l-.03-.06,4.97-8.73c-1.02-.41-2.1-.74-3.25-.98l-5.52,9.71.03.06Z"/>
          <path class="cls-3" d="M56.63-9.83h3.8l-.03-.06,1.76-3.1c-.44-.35-.89-.73-1.33-1.17-.37-.35-.77-.71-1.2-1.07l-3.04,5.34.03.06Z"/>
          <path class="cls-3" d="M60.43-9.83h9.06s-3.56-.2-7.33-3.16l-1.76,3.1.03.06Z"/>
          <path class="cls-3" d="M33.78-9.89l4.54-7.98c-.09.04-.18.08-.27.13-1.83.91-3.51,1.75-5.03,2.51l-3.04,5.34.03.06h3.8l-.03-.06Z"/>
          <path class="cls-3" d="M37.61-9.83h3.8l-.03-.06,5.57-9.8-5.57,9.8.03.06h3.8l-.03-.06,5.52-9.71c-2.33-.48-4.89-.54-7.64.06l-5.49,9.64.03.06Z"/>
          <path class="cls-3" d="M33.01-15.23c-6.94,3.48-10.67,5.4-10.67,5.4h7.66l-.03-.06,3.04-5.34Z"/>
          <path class="cls-3" d="M33.81-9.83h3.8l-.03-.06,5.49-9.64c-1.53.33-3.12.87-4.75,1.66l-4.54,7.98.03.06Z"/>
          <path class="cls-7" d="M69.49-9.73h-9.01l1.79,3.66c4.72-2.38,7.22-3.66,7.22-3.66Z"/>
          <path class="cls-7" d="M59.22-4.53c1.1-.55,2.12-1.07,3.05-1.53l-1.79-3.66h-3.8l2.55,5.2Z"/>
          <path class="cls-7" d="M22.34-9.73s4.45.24,8.66,4.32c.59.57,1.26,1.15,2,1.71l-2.95-6.03h-7.71Z"/>
          <path class="cls-7" d="M33.85-9.73L38.22-.81c1.34.51,2.79.89,4.33,1.08l-4.9-10h-3.8Z"/>
          <path class="cls-7" d="M49.07-9.73l4.03,8.23c.23-.1.46-.21.69-.32.83-.41,1.62-.8,2.38-1.19l-3.29-6.72h-3.8Z"/>
          <path class="cls-7" d="M30.05-9.73l2.95,6.03c1.46,1.1,3.22,2.14,5.22,2.89l-4.37-8.92h-3.8Z"/>
          <path class="cls-7" d="M56.67-9.73h-3.8l3.29,6.72c1.08-.54,2.1-1.05,3.06-1.53l-2.55-5.2Z"/>
          <path class="cls-7" d="M45.26-9.73L49.88-.31c1.05-.29,2.12-.69,3.22-1.19l-4.03-8.23h-3.8Z"/>
          <path class="cls-7" d="M37.66-9.73L42.55.27c1.22.15,2.5.18,3.84.07l-4.93-10.07h-3.8Z"/>
          <path class="cls-7" d="M41.46-9.73L46.39.33c1.13-.1,2.29-.31,3.49-.64l-4.61-9.42h-3.8Z"/>
        </g>
        <g>
          <polygon class="cls-2" points="37.61 50.3 37.66 50.39 41.46 50.39 41.41 50.3 37.61 50.3"/>
          <polygon class="cls-2" points="33.81 50.3 33.85 50.39 37.66 50.39 37.61 50.3 33.81 50.3"/>
          <polygon class="cls-2" points="41.41 50.3 41.46 50.39 45.26 50.39 45.22 50.3 41.41 50.3"/>
          <polygon class="cls-2" points="33.81 50.3 30 50.3 30.05 50.39 33.85 50.39 33.81 50.3"/>
          <polygon class="cls-2" points="52.82 50.3 52.87 50.39 56.67 50.39 56.63 50.3 52.82 50.3"/>
          <polygon class="cls-2" points="49.02 50.3 49.07 50.39 52.87 50.39 52.82 50.3 49.02 50.3"/>
          <polygon class="cls-2" points="45.22 50.3 45.26 50.39 49.07 50.39 49.02 50.3 45.22 50.3"/>
          <polygon class="cls-2" points="56.67 50.39 60.48 50.39 60.43 50.3 56.63 50.3 56.67 50.39"/>
          <path class="cls-3" d="M49.02,50.3h3.8l-.03-.06,4.13-7.26c-.91-.55-1.9-1.05-2.97-1.47l-4.97,8.73.03.06Z"/>
          <path class="cls-3" d="M52.82,50.3h3.81l-.03-.06,3.04-5.34c-.8-.67-1.71-1.32-2.71-1.92l-4.13,7.26.03.06Z"/>
          <path class="cls-3" d="M45.22,50.3h3.8l-.03-.06,4.97-8.73c-1.02-.41-2.1-.74-3.25-.98l-5.52,9.7.03.06Z"/>
          <path class="cls-3" d="M56.63,50.3h3.8l-.03-.06,1.76-3.1c-.44-.35-.89-.73-1.33-1.16-.37-.36-.77-.71-1.2-1.07l-3.04,5.34.03.06Z"/>
          <path class="cls-3" d="M60.43,50.3h9.06s-3.56-.2-7.33-3.16l-1.76,3.1.03.06Z"/>
          <path class="cls-3" d="M33.78,50.24l4.54-7.98c-.09.04-.18.08-.27.13-1.83.91-3.51,1.75-5.03,2.51l-3.04,5.34.03.06h3.8l-.03-.06Z"/>
          <path class="cls-3" d="M37.61,50.3h3.8l-.03-.06,5.57-9.8-5.57,9.8.03.06h3.8l-.03-.06,5.52-9.7c-2.33-.48-4.89-.54-7.64.06l-5.49,9.64.03.06Z"/>
          <path class="cls-3" d="M33.01,44.9c-6.94,3.48-10.67,5.4-10.67,5.4h7.66l-.03-.06,3.04-5.34Z"/>
          <path class="cls-3" d="M33.81,50.3h3.8l-.03-.06,5.49-9.64c-1.53.33-3.12.87-4.75,1.66l-4.54,7.98.03.06Z"/>
          <path class="cls-7" d="M69.49,50.39h-9.01l1.79,3.66c4.72-2.38,7.22-3.66,7.22-3.66Z"/>
          <path class="cls-7" d="M59.22,55.59c1.1-.55,2.12-1.06,3.05-1.53l-1.79-3.66h-3.8l2.55,5.2Z"/>
          <path class="cls-7" d="M22.34,50.39s4.45.24,8.66,4.32c.59.57,1.26,1.15,2,1.71l-2.95-6.03h-7.71Z"/>
          <path class="cls-7" d="M33.85,50.39l4.37,8.92c1.34.51,2.79.89,4.33,1.08l-4.9-10h-3.8Z"/>
          <path class="cls-7" d="M49.07,50.39l4.03,8.23c.23-.1.46-.21.69-.32.83-.41,1.62-.8,2.38-1.19l-3.29-6.73h-3.8Z"/>
          <path class="cls-7" d="M30.05,50.39l2.95,6.03c1.46,1.1,3.22,2.13,5.22,2.89l-4.37-8.92h-3.8Z"/>
          <path class="cls-7" d="M56.67,50.39h-3.8l3.29,6.73c1.08-.54,2.1-1.05,3.06-1.53l-2.55-5.2Z"/>
          <path class="cls-7" d="M45.26,50.39l4.61,9.42c1.05-.29,2.12-.69,3.22-1.19l-4.03-8.23h-3.8Z"/>
          <path class="cls-7" d="M37.66,50.39l4.9,10c1.22.15,2.5.18,3.84.07l-4.93-10.07h-3.8Z"/>
          <path class="cls-7" d="M41.46,50.39l4.93,10.07c1.13-.1,2.29-.31,3.49-.64l-4.61-9.42h-3.8Z"/>
        </g>
        <g>
          <polygon class="cls-2" points="37.61 30.75 37.66 30.85 41.46 30.85 41.41 30.75 37.61 30.75"/>
          <polygon class="cls-2" points="33.81 30.75 33.85 30.85 37.66 30.85 37.61 30.75 33.81 30.75"/>
          <polygon class="cls-2" points="41.41 30.75 41.46 30.85 45.26 30.85 45.22 30.75 41.41 30.75"/>
          <polygon class="cls-2" points="33.81 30.75 30 30.75 30.05 30.85 33.85 30.85 33.81 30.75"/>
          <polygon class="cls-2" points="52.82 30.75 52.87 30.85 56.67 30.85 56.63 30.75 52.82 30.75"/>
          <polygon class="cls-2" points="49.02 30.75 49.07 30.85 52.87 30.85 52.82 30.75 49.02 30.75"/>
          <polygon class="cls-2" points="45.22 30.75 45.26 30.85 49.07 30.85 49.02 30.75 45.22 30.75"/>
          <polygon class="cls-2" points="56.67 30.85 60.48 30.85 60.43 30.75 56.63 30.75 56.67 30.85"/>
          <path class="cls-3" d="M49.02,30.75h3.8l-.03-.06,4.13-7.26c-.91-.55-1.9-1.05-2.97-1.47l-4.97,8.73.03.06Z"/>
          <path class="cls-3" d="M52.82,30.75h3.81l-.03-.06,3.04-5.34c-.8-.66-1.71-1.32-2.71-1.92l-4.13,7.26.03.06Z"/>
          <path class="cls-3" d="M45.22,30.75h3.8l-.03-.06,4.97-8.73c-1.02-.41-2.1-.74-3.25-.98l-5.52,9.71.03.06Z"/>
          <path class="cls-3" d="M56.63,30.75h3.8l-.03-.06,1.76-3.1c-.44-.35-.89-.73-1.33-1.16-.37-.35-.77-.71-1.2-1.07l-3.04,5.34.03.06Z"/>
          <path class="cls-3" d="M60.43,30.75h9.06s-3.56-.2-7.33-3.16l-1.76,3.1.03.06Z"/>
          <path class="cls-3" d="M33.78,30.7l4.54-7.98c-.09.04-.18.08-.27.13-1.83.91-3.51,1.75-5.03,2.51l-3.04,5.34.03.06h3.8l-.03-.06Z"/>
          <path class="cls-3" d="M37.61,30.75h3.8l-.03-.06,5.57-9.8-5.57,9.8.03.06h3.8l-.03-.06,5.52-9.71c-2.33-.48-4.89-.54-7.64.06l-5.49,9.64.03.06Z"/>
          <path class="cls-3" d="M33.01,25.36c-6.94,3.48-10.67,5.4-10.67,5.4h7.66l-.03-.06,3.04-5.34Z"/>
          <path class="cls-3" d="M33.81,30.75h3.8l-.03-.06,5.49-9.64c-1.53.33-3.12.87-4.75,1.66l-4.54,7.98.03.06Z"/>
          <path class="cls-7" d="M69.49,30.85h-9.01l1.79,3.66c4.72-2.38,7.22-3.66,7.22-3.66Z"/>
          <path class="cls-7" d="M59.22,36.05c1.1-.55,2.12-1.07,3.05-1.53l-1.79-3.66h-3.8l2.55,5.2Z"/>
          <path class="cls-7" d="M22.34,30.85s4.45.24,8.66,4.32c.59.57,1.26,1.15,2,1.71l-2.95-6.03h-7.71Z"/>
          <path class="cls-7" d="M33.85,30.85l4.37,8.92c1.34.51,2.79.89,4.33,1.08l-4.9-10h-3.8Z"/>
          <path class="cls-7" d="M49.07,30.85l4.03,8.23c.23-.11.46-.21.69-.32.83-.41,1.62-.8,2.38-1.19l-3.29-6.72h-3.8Z"/>
          <path class="cls-7" d="M30.05,30.85l2.95,6.03c1.46,1.1,3.22,2.14,5.22,2.89l-4.37-8.92h-3.8Z"/>
          <path class="cls-7" d="M56.67,30.85h-3.8l3.29,6.72c1.08-.54,2.1-1.05,3.06-1.53l-2.55-5.2Z"/>
          <path class="cls-7" d="M45.26,30.85l4.61,9.42c1.05-.29,2.12-.69,3.22-1.19l-4.03-8.23h-3.8Z"/>
          <path class="cls-7" d="M37.66,30.85l4.9,10c1.22.15,2.5.18,3.84.07l-4.93-10.07h-3.8Z"/>
          <path class="cls-7" d="M41.46,30.85l4.93,10.07c1.13-.1,2.29-.31,3.49-.64l-4.61-9.42h-3.8Z"/>
        </g>
        <g>
          <polygon class="cls-2" points="-7.87 9.71 -7.83 9.81 -4.02 9.81 -4.07 9.71 -7.87 9.71"/>
          <polygon class="cls-2" points="-11.68 9.71 -11.63 9.81 -7.83 9.81 -7.87 9.71 -11.68 9.71"/>
          <polygon class="cls-2" points="-4.07 9.71 -4.02 9.81 -.22 9.81 -.26 9.71 -4.07 9.71"/>
          <polygon class="cls-2" points="-11.68 9.71 -15.48 9.71 -15.43 9.81 -11.63 9.81 -11.68 9.71"/>
          <polygon class="cls-2" points="7.34 9.71 7.39 9.81 11.19 9.81 11.15 9.71 7.34 9.71"/>
          <polygon class="cls-2" points="3.54 9.71 3.59 9.81 7.39 9.81 7.34 9.71 3.54 9.71"/>
          <polygon class="cls-2" points="-.26 9.71 -.22 9.81 3.59 9.81 3.54 9.71 -.26 9.71"/>
          <polygon class="cls-2" points="11.19 9.81 15 9.81 14.95 9.71 11.15 9.71 11.19 9.81"/>
          <path class="cls-3" d="M3.54,9.71h3.8l-.03-.06,4.13-7.26c-.91-.55-1.91-1.05-2.97-1.47L3.51,9.65l.03.06Z"/>
          <path class="cls-3" d="M7.34,9.71h3.8l-.03-.06,3.04-5.34c-.8-.67-1.71-1.32-2.71-1.92l-4.13,7.26.03.06Z"/>
          <path class="cls-3" d="M-.26,9.71h3.8l-.03-.06L8.48.92C7.46.52,6.37.18,5.23-.05L-.29,9.65l.03.06Z"/>
          <path class="cls-3" d="M11.15,9.71h3.8l-.03-.06,1.76-3.1c-.44-.35-.89-.73-1.33-1.16-.37-.36-.77-.72-1.2-1.07l-3.04,5.34.03.06Z"/>
          <path class="cls-3" d="M14.95,9.71h9.06s-3.56-.2-7.32-3.16l-1.76,3.1.03.06Z"/>
          <path class="cls-3" d="M-11.7,9.65L-7.16,1.67c-.09.04-.18.08-.27.13-1.83.91-3.51,1.75-5.03,2.51l-3.04,5.34.03.06h3.8l-.03-.06Z"/>
          <path class="cls-3" d="M-7.87,9.71h3.8l-.03-.06L1.48-.15l-5.57,9.8.03.06H-.26l-.03-.06L5.23-.05C2.9-.53.33-.59-2.42.01l-5.49,9.64.03.06Z"/>
          <path class="cls-3" d="M-12.47,4.31c-6.94,3.48-10.67,5.4-10.67,5.4h7.66l-.03-.06,3.04-5.34Z"/>
          <path class="cls-3" d="M-11.68,9.71h3.8l-.03-.06L-2.42.01c-1.53.33-3.12.87-4.75,1.66l-4.54,7.98.03.06Z"/>
          <path class="cls-7" d="M24.01,9.81h-9.01l1.79,3.66c4.72-2.38,7.22-3.66,7.22-3.66Z"/>
          <path class="cls-7" d="M13.74,15.01c1.1-.55,2.12-1.07,3.05-1.53l-1.79-3.66h-3.8l2.54,5.2Z"/>
          <path class="cls-7" d="M-23.14,9.81s4.45.25,8.66,4.32c.59.57,1.26,1.15,2,1.71l-2.95-6.03h-7.71Z"/>
          <path class="cls-7" d="M-11.63,9.81l4.37,8.92c1.34.51,2.79.89,4.33,1.08l-4.9-10h-3.8Z"/>
          <path class="cls-7" d="M3.59,9.81l4.03,8.23c.23-.1.46-.21.69-.32.83-.41,1.62-.81,2.38-1.19l-3.29-6.72h-3.8Z"/>
          <path class="cls-7" d="M-15.43,9.81l2.95,6.03c1.46,1.1,3.22,2.14,5.22,2.89l-4.37-8.92h-3.8Z"/>
          <path class="cls-7" d="M11.19,9.81h-3.8l3.29,6.72c1.08-.54,2.1-1.05,3.05-1.53l-2.54-5.2Z"/>
          <path class="cls-7" d="M-.22,9.81l4.61,9.42c1.05-.29,2.12-.69,3.22-1.19L3.59,9.81H-.22Z"/>
          <path class="cls-7" d="M-7.83,9.81l4.9,10c1.22.15,2.5.18,3.84.07l-4.93-10.07h-3.8Z"/>
          <path class="cls-7" d="M-4.02,9.81L.91,19.88c1.13-.1,2.29-.31,3.49-.64L-.22,9.81h-3.8Z"/>
        </g>
        <g>
          <polygon class="cls-2" points="-7.87 -9.83 -7.83 -9.73 -4.02 -9.73 -4.07 -9.83 -7.87 -9.83"/>
          <polygon class="cls-2" points="-11.68 -9.83 -11.63 -9.73 -7.83 -9.73 -7.87 -9.83 -11.68 -9.83"/>
          <polygon class="cls-2" points="-4.07 -9.83 -4.02 -9.73 -.22 -9.73 -.26 -9.83 -4.07 -9.83"/>
          <polygon class="cls-2" points="-11.68 -9.83 -15.48 -9.83 -15.43 -9.73 -11.63 -9.73 -11.68 -9.83"/>
          <polygon class="cls-2" points="7.34 -9.83 7.39 -9.73 11.19 -9.73 11.15 -9.83 7.34 -9.83"/>
          <polygon class="cls-2" points="3.54 -9.83 3.59 -9.73 7.39 -9.73 7.34 -9.83 3.54 -9.83"/>
          <polygon class="cls-2" points="-.26 -9.83 -.22 -9.73 3.59 -9.73 3.54 -9.83 -.26 -9.83"/>
          <polygon class="cls-2" points="11.19 -9.73 15 -9.73 14.95 -9.83 11.15 -9.83 11.19 -9.73"/>
          <path class="cls-3" d="M3.54-9.83h3.8l-.03-.06,4.13-7.26c-.91-.55-1.91-1.05-2.97-1.47L3.51-9.89l.03.06Z"/>
          <path class="cls-3" d="M7.34-9.83h3.8l-.03-.06,3.04-5.34c-.8-.66-1.71-1.32-2.71-1.92l-4.13,7.26.03.06Z"/>
          <path class="cls-3" d="M-.26-9.83h3.8l-.03-.06,4.97-8.73c-1.02-.41-2.1-.74-3.25-.98L-.29-9.89l.03.06Z"/>
          <path class="cls-3" d="M11.15-9.83h3.8l-.03-.06,1.76-3.1c-.44-.35-.89-.73-1.33-1.17-.37-.35-.77-.71-1.2-1.07l-3.04,5.34.03.06Z"/>
          <path class="cls-3" d="M14.95-9.83h9.06s-3.56-.2-7.32-3.16l-1.76,3.1.03.06Z"/>
          <path class="cls-3" d="M-11.7-9.89l4.54-7.98c-.09.04-.18.08-.27.13-1.83.91-3.51,1.75-5.03,2.51l-3.04,5.34.03.06h3.8l-.03-.06Z"/>
          <path class="cls-3" d="M-7.87-9.83h3.8l-.03-.06L1.48-19.69l-5.57,9.8.03.06H-.26l-.03-.06,5.52-9.71c-2.33-.48-4.9-.54-7.64.06l-5.49,9.64.03.06Z"/>
          <path class="cls-3" d="M-12.47-15.23c-6.94,3.48-10.67,5.4-10.67,5.4h7.66l-.03-.06,3.04-5.34Z"/>
          <path class="cls-3" d="M-11.68-9.83h3.8l-.03-.06,5.49-9.64c-1.53.33-3.12.87-4.75,1.66l-4.54,7.98.03.06Z"/>
          <path class="cls-7" d="M24.01-9.73h-9.01l1.79,3.66c4.72-2.38,7.22-3.66,7.22-3.66Z"/>
          <path class="cls-7" d="M13.74-4.53c1.1-.55,2.12-1.07,3.05-1.53l-1.79-3.66h-3.8l2.54,5.2Z"/>
          <path class="cls-7" d="M-23.14-9.73s4.45.24,8.66,4.32c.59.57,1.26,1.15,2,1.71l-2.95-6.03h-7.71Z"/>
          <path class="cls-7" d="M-11.63-9.73L-7.26-.81C-5.92-.3-4.47.08-2.93.27l-4.9-10h-3.8Z"/>
          <path class="cls-7" d="M3.59-9.73L7.62-1.5c.23-.1.46-.21.69-.32.83-.41,1.62-.8,2.38-1.19l-3.29-6.72h-3.8Z"/>
          <path class="cls-7" d="M-15.43-9.73l2.95,6.03c1.46,1.1,3.22,2.14,5.22,2.89l-4.37-8.92h-3.8Z"/>
          <path class="cls-7" d="M11.19-9.73h-3.8l3.29,6.72c1.08-.54,2.1-1.05,3.05-1.53l-2.54-5.2Z"/>
          <path class="cls-7" d="M-.22-9.73L4.4-.31c1.05-.29,2.12-.69,3.22-1.19L3.59-9.73H-.22Z"/>
          <path class="cls-7" d="M-7.83-9.73L-2.93.27C-1.71.42-.42.45.91.33l-4.93-10.07h-3.8Z"/>
          <path class="cls-7" d="M-4.02-9.73L.91.33C2.04.24,3.2.03,4.4-.31L-.22-9.73h-3.8Z"/>
        </g>
        <g>
          <polygon class="cls-2" points="-7.87 50.3 -7.83 50.39 -4.02 50.39 -4.07 50.3 -7.87 50.3"/>
          <polygon class="cls-2" points="-11.68 50.3 -11.63 50.39 -7.83 50.39 -7.87 50.3 -11.68 50.3"/>
          <polygon class="cls-2" points="-4.07 50.3 -4.02 50.39 -.22 50.39 -.26 50.3 -4.07 50.3"/>
          <polygon class="cls-2" points="-11.68 50.3 -15.48 50.3 -15.43 50.39 -11.63 50.39 -11.68 50.3"/>
          <polygon class="cls-2" points="7.34 50.3 7.39 50.39 11.19 50.39 11.15 50.3 7.34 50.3"/>
          <polygon class="cls-2" points="3.54 50.3 3.59 50.39 7.39 50.39 7.34 50.3 3.54 50.3"/>
          <polygon class="cls-2" points="-.26 50.3 -.22 50.39 3.59 50.39 3.54 50.3 -.26 50.3"/>
          <polygon class="cls-2" points="11.19 50.39 15 50.39 14.95 50.3 11.15 50.3 11.19 50.39"/>
          <path class="cls-3" d="M3.54,50.3h3.8l-.03-.06,4.13-7.26c-.91-.55-1.91-1.05-2.97-1.47l-4.97,8.73.03.06Z"/>
          <path class="cls-3" d="M7.34,50.3h3.8l-.03-.06,3.04-5.34c-.8-.67-1.71-1.32-2.71-1.92l-4.13,7.26.03.06Z"/>
          <path class="cls-3" d="M-.26,50.3h3.8l-.03-.06,4.97-8.73c-1.02-.41-2.1-.74-3.25-.98L-.29,50.24l.03.06Z"/>
          <path class="cls-3" d="M11.15,50.3h3.8l-.03-.06,1.76-3.1c-.44-.35-.89-.73-1.33-1.16-.37-.36-.77-.71-1.2-1.07l-3.04,5.34.03.06Z"/>
          <path class="cls-3" d="M14.95,50.3h9.06s-3.56-.2-7.32-3.16l-1.76,3.1.03.06Z"/>
          <path class="cls-3" d="M-11.7,50.24l4.54-7.98c-.09.04-.18.08-.27.13-1.83.91-3.51,1.75-5.03,2.51l-3.04,5.34.03.06h3.8l-.03-.06Z"/>
          <path class="cls-3" d="M-7.87,50.3h3.8l-.03-.06,5.57-9.8-5.57,9.8.03.06H-.26l-.03-.06,5.52-9.7c-2.33-.48-4.9-.54-7.64.06l-5.49,9.64.03.06Z"/>
          <path class="cls-3" d="M-12.47,44.9c-6.94,3.48-10.67,5.4-10.67,5.4h7.66l-.03-.06,3.04-5.34Z"/>
          <path class="cls-3" d="M-11.68,50.3h3.8l-.03-.06,5.49-9.64c-1.53.33-3.12.87-4.75,1.66l-4.54,7.98.03.06Z"/>
          <path class="cls-7" d="M24.01,50.39h-9.01l1.79,3.66c4.72-2.38,7.22-3.66,7.22-3.66Z"/>
          <path class="cls-7" d="M13.74,55.59c1.1-.55,2.12-1.06,3.05-1.53l-1.79-3.66h-3.8l2.54,5.2Z"/>
          <path class="cls-7" d="M-23.14,50.39s4.45.24,8.66,4.32c.59.57,1.26,1.15,2,1.71l-2.95-6.03h-7.71Z"/>
          <path class="cls-7" d="M-11.63,50.39l4.37,8.92c1.34.51,2.79.89,4.33,1.08l-4.9-10h-3.8Z"/>
          <path class="cls-7" d="M3.59,50.39l4.03,8.23c.23-.1.46-.21.69-.32.83-.41,1.62-.8,2.38-1.19l-3.29-6.73h-3.8Z"/>
          <path class="cls-7" d="M-15.43,50.39l2.95,6.03c1.46,1.1,3.22,2.13,5.22,2.89l-4.37-8.92h-3.8Z"/>
          <path class="cls-7" d="M11.19,50.39h-3.8l3.29,6.73c1.08-.54,2.1-1.05,3.05-1.53l-2.54-5.2Z"/>
          <path class="cls-7" d="M-.22,50.39l4.61,9.42c1.05-.29,2.12-.69,3.22-1.19l-4.03-8.23H-.22Z"/>
          <path class="cls-7" d="M-7.83,50.39l4.9,10c1.22.15,2.5.18,3.84.07l-4.93-10.07h-3.8Z"/>
          <path class="cls-7" d="M-4.02,50.39L.91,60.46c1.13-.1,2.29-.31,3.49-.64L-.22,50.39h-3.8Z"/>
        </g>
        <g>
          <polygon class="cls-2" points="-7.87 30.75 -7.83 30.85 -4.02 30.85 -4.07 30.75 -7.87 30.75"/>
          <polygon class="cls-2" points="-11.68 30.75 -11.63 30.85 -7.83 30.85 -7.87 30.75 -11.68 30.75"/>
          <polygon class="cls-2" points="-4.07 30.75 -4.02 30.85 -.22 30.85 -.26 30.75 -4.07 30.75"/>
          <polygon class="cls-2" points="-11.68 30.75 -15.48 30.75 -15.43 30.85 -11.63 30.85 -11.68 30.75"/>
          <polygon class="cls-2" points="7.34 30.75 7.39 30.85 11.19 30.85 11.15 30.75 7.34 30.75"/>
          <polygon class="cls-2" points="3.54 30.75 3.59 30.85 7.39 30.85 7.34 30.75 3.54 30.75"/>
          <polygon class="cls-2" points="-.26 30.75 -.22 30.85 3.59 30.85 3.54 30.75 -.26 30.75"/>
          <polygon class="cls-2" points="11.19 30.85 15 30.85 14.95 30.75 11.15 30.75 11.19 30.85"/>
          <path class="cls-3" d="M3.54,30.75h3.8l-.03-.06,4.13-7.26c-.91-.55-1.91-1.05-2.97-1.47l-4.97,8.73.03.06Z"/>
          <path class="cls-3" d="M7.34,30.75h3.8l-.03-.06,3.04-5.34c-.8-.66-1.71-1.32-2.71-1.92l-4.13,7.26.03.06Z"/>
          <path class="cls-3" d="M-.26,30.75h3.8l-.03-.06,4.97-8.73c-1.02-.41-2.1-.74-3.25-.98L-.29,30.7l.03.06Z"/>
          <path class="cls-3" d="M11.15,30.75h3.8l-.03-.06,1.76-3.1c-.44-.35-.89-.73-1.33-1.16-.37-.35-.77-.71-1.2-1.07l-3.04,5.34.03.06Z"/>
          <path class="cls-3" d="M14.95,30.75h9.06s-3.56-.2-7.32-3.16l-1.76,3.1.03.06Z"/>
          <path class="cls-3" d="M-11.7,30.7l4.54-7.98c-.09.04-.18.08-.27.13-1.83.91-3.51,1.75-5.03,2.51l-3.04,5.34.03.06h3.8l-.03-.06Z"/>
          <path class="cls-3" d="M-7.87,30.75h3.8l-.03-.06L1.48,20.9l-5.57,9.8.03.06H-.26l-.03-.06,5.52-9.71c-2.33-.48-4.9-.54-7.64.06l-5.49,9.64.03.06Z"/>
          <path class="cls-3" d="M-12.47,25.36c-6.94,3.48-10.67,5.4-10.67,5.4h7.66l-.03-.06,3.04-5.34Z"/>
          <path class="cls-3" d="M-11.68,30.75h3.8l-.03-.06,5.49-9.64c-1.53.33-3.12.87-4.75,1.66l-4.54,7.98.03.06Z"/>
          <path class="cls-7" d="M24.01,30.85h-9.01l1.79,3.66c4.72-2.38,7.22-3.66,7.22-3.66Z"/>
          <path class="cls-7" d="M13.74,36.05c1.1-.55,2.12-1.07,3.05-1.53l-1.79-3.66h-3.8l2.54,5.2Z"/>
          <path class="cls-7" d="M-23.14,30.85s4.45.24,8.66,4.32c.59.57,1.26,1.15,2,1.71l-2.95-6.03h-7.71Z"/>
          <path class="cls-7" d="M-11.63,30.85l4.37,8.92c1.34.51,2.79.89,4.33,1.08l-4.9-10h-3.8Z"/>
          <path class="cls-7" d="M3.59,30.85l4.03,8.23c.23-.11.46-.21.69-.32.83-.41,1.62-.8,2.38-1.19l-3.29-6.72h-3.8Z"/>
          <path class="cls-7" d="M-15.43,30.85l2.95,6.03c1.46,1.1,3.22,2.14,5.22,2.89l-4.37-8.92h-3.8Z"/>
          <path class="cls-7" d="M11.19,30.85h-3.8l3.29,6.72c1.08-.54,2.1-1.05,3.05-1.53l-2.54-5.2Z"/>
          <path class="cls-7" d="M-.22,30.85l4.61,9.42c1.05-.29,2.12-.69,3.22-1.19l-4.03-8.23H-.22Z"/>
          <path class="cls-7" d="M-7.83,30.85l4.9,10c1.22.15,2.5.18,3.84.07l-4.93-10.07h-3.8Z"/>
          <path class="cls-7" d="M-4.02,30.85L.91,40.92c1.13-.1,2.29-.31,3.49-.64L-.22,30.85h-3.8Z"/>
        </g>
        <g>
          <polygon class="cls-2" points="85.4 9.71 85.44 9.81 89.25 9.81 89.2 9.71 85.4 9.71"/>
          <polygon class="cls-2" points="81.59 9.71 81.64 9.81 85.44 9.81 85.4 9.71 81.59 9.71"/>
          <polygon class="cls-2" points="89.2 9.71 89.25 9.81 93.05 9.81 93.01 9.71 89.2 9.71"/>
          <polygon class="cls-2" points="81.59 9.71 77.79 9.71 77.84 9.81 81.64 9.81 81.59 9.71"/>
          <polygon class="cls-2" points="100.61 9.71 100.66 9.81 104.47 9.81 104.42 9.71 100.61 9.71"/>
          <polygon class="cls-2" points="96.81 9.71 96.86 9.81 100.66 9.81 100.61 9.71 96.81 9.71"/>
          <polygon class="cls-2" points="93.01 9.71 93.05 9.81 96.86 9.81 96.81 9.71 93.01 9.71"/>
          <polygon class="cls-2" points="104.47 9.81 108.27 9.81 108.22 9.71 104.42 9.71 104.47 9.81"/>
          <path class="cls-3" d="M96.81,9.71h3.8l-.03-.06,4.13-7.26c-.91-.55-1.91-1.05-2.97-1.47l-4.96,8.73.03.06Z"/>
          <path class="cls-3" d="M100.61,9.71h3.81l-.03-.06,3.04-5.34c-.8-.67-1.71-1.32-2.71-1.92l-4.13,7.26.03.06Z"/>
          <path class="cls-3" d="M93.01,9.71h3.8l-.03-.06,4.96-8.73c-1.02-.41-2.11-.74-3.25-.98l-5.52,9.71.03.06Z"/>
          <path class="cls-3" d="M104.42,9.71h3.8l-.03-.06,1.77-3.1c-.45-.35-.89-.73-1.33-1.16-.37-.36-.77-.72-1.2-1.07l-3.04,5.34.03.06Z"/>
          <path class="cls-3" d="M108.22,9.71h9.06s-3.56-.2-7.32-3.16l-1.77,3.1.03.06Z"/>
          <path class="cls-3" d="M81.57,9.65l4.54-7.98c-.09.04-.18.08-.27.13-1.83.91-3.51,1.75-5.03,2.51l-3.04,5.34.03.06h3.8l-.03-.06Z"/>
          <path class="cls-3" d="M85.4,9.71h3.8l-.03-.06L94.75-.15l-5.58,9.8.03.06h3.8l-.03-.06L98.5-.05c-2.33-.48-4.89-.54-7.64.06l-5.49,9.64.03.06Z"/>
          <path class="cls-3" d="M80.8,4.31c-6.94,3.48-10.67,5.4-10.67,5.4h7.66l-.03-.06,3.04-5.34Z"/>
          <path class="cls-3" d="M81.59,9.71h3.8l-.03-.06L90.86.01c-1.53.33-3.12.87-4.75,1.66l-4.54,7.98.03.06Z"/>
          <path class="cls-7" d="M117.28,9.81h-9.01l1.79,3.66c4.72-2.38,7.22-3.66,7.22-3.66Z"/>
          <path class="cls-7" d="M107.01,15.01c1.1-.55,2.12-1.07,3.05-1.53l-1.79-3.66h-3.8l2.54,5.2Z"/>
          <path class="cls-7" d="M70.13,9.81s4.45.25,8.66,4.32c.59.57,1.26,1.15,2.01,1.71l-2.95-6.03h-7.71Z"/>
          <path class="cls-7" d="M81.64,9.81l4.37,8.92c1.34.51,2.79.89,4.33,1.08l-4.9-10h-3.8Z"/>
          <path class="cls-7" d="M96.86,9.81l4.03,8.23c.23-.1.46-.21.69-.32.83-.41,1.62-.81,2.38-1.19l-3.29-6.72h-3.8Z"/>
          <path class="cls-7" d="M77.84,9.81l2.95,6.03c1.46,1.1,3.22,2.14,5.22,2.89l-4.37-8.92h-3.8Z"/>
          <path class="cls-7" d="M104.47,9.81h-3.8l3.29,6.72c1.08-.54,2.1-1.05,3.06-1.53l-2.54-5.2Z"/>
          <path class="cls-7" d="M93.05,9.81l4.61,9.42c1.05-.29,2.12-.69,3.22-1.19l-4.03-8.23h-3.8Z"/>
          <path class="cls-7" d="M85.44,9.81l4.9,10c1.22.15,2.51.18,3.84.07l-4.93-10.07h-3.8Z"/>
          <path class="cls-7" d="M89.25,9.81l4.93,10.07c1.13-.1,2.29-.31,3.49-.64l-4.61-9.42h-3.8Z"/>
        </g>
        <g>
          <polygon class="cls-2" points="85.4 -9.83 85.44 -9.73 89.25 -9.73 89.2 -9.83 85.4 -9.83"/>
          <polygon class="cls-2" points="81.59 -9.83 81.64 -9.73 85.44 -9.73 85.4 -9.83 81.59 -9.83"/>
          <polygon class="cls-2" points="89.2 -9.83 89.25 -9.73 93.05 -9.73 93.01 -9.83 89.2 -9.83"/>
          <polygon class="cls-2" points="81.59 -9.83 77.79 -9.83 77.84 -9.73 81.64 -9.73 81.59 -9.83"/>
          <polygon class="cls-2" points="100.61 -9.83 100.66 -9.73 104.47 -9.73 104.42 -9.83 100.61 -9.83"/>
          <polygon class="cls-2" points="96.81 -9.83 96.86 -9.73 100.66 -9.73 100.61 -9.83 96.81 -9.83"/>
          <polygon class="cls-2" points="93.01 -9.83 93.05 -9.73 96.86 -9.73 96.81 -9.83 93.01 -9.83"/>
          <polygon class="cls-2" points="104.47 -9.73 108.27 -9.73 108.22 -9.83 104.42 -9.83 104.47 -9.73"/>
          <path class="cls-3" d="M96.81-9.83h3.8l-.03-.06,4.13-7.26c-.91-.55-1.91-1.05-2.97-1.47l-4.96,8.73.03.06Z"/>
          <path class="cls-3" d="M100.61-9.83h3.81l-.03-.06,3.04-5.34c-.8-.66-1.71-1.32-2.71-1.92l-4.13,7.26.03.06Z"/>
          <path class="cls-3" d="M93.01-9.83h3.8l-.03-.06,4.96-8.73c-1.02-.41-2.11-.74-3.25-.98l-5.52,9.71.03.06Z"/>
          <path class="cls-3" d="M104.42-9.83h3.8l-.03-.06,1.77-3.1c-.45-.35-.89-.73-1.33-1.17-.37-.35-.77-.71-1.2-1.07l-3.04,5.34.03.06Z"/>
          <path class="cls-3" d="M108.22-9.83h9.06s-3.56-.2-7.32-3.16l-1.77,3.1.03.06Z"/>
          <path class="cls-3" d="M81.57-9.89l4.54-7.98c-.09.04-.18.08-.27.13-1.83.91-3.51,1.75-5.03,2.51l-3.04,5.34.03.06h3.8l-.03-.06Z"/>
          <path class="cls-3" d="M85.4-9.83h3.8l-.03-.06,5.58-9.8-5.58,9.8.03.06h3.8l-.03-.06,5.52-9.71c-2.33-.48-4.89-.54-7.64.06l-5.49,9.64.03.06Z"/>
          <path class="cls-3" d="M80.8-15.23c-6.94,3.48-10.67,5.4-10.67,5.4h7.66l-.03-.06,3.04-5.34Z"/>
          <path class="cls-3" d="M81.59-9.83h3.8l-.03-.06,5.49-9.64c-1.53.33-3.12.87-4.75,1.66l-4.54,7.98.03.06Z"/>
          <path class="cls-7" d="M117.28-9.73h-9.01l1.79,3.66c4.72-2.38,7.22-3.66,7.22-3.66Z"/>
          <path class="cls-7" d="M107.01-4.53c1.1-.55,2.12-1.07,3.05-1.53l-1.79-3.66h-3.8l2.54,5.2Z"/>
          <path class="cls-7" d="M70.13-9.73s4.45.24,8.66,4.32c.59.57,1.26,1.15,2.01,1.71l-2.95-6.03h-7.71Z"/>
          <path class="cls-7" d="M81.64-9.73l4.37,8.92c1.34.51,2.79.89,4.33,1.08l-4.9-10h-3.8Z"/>
          <path class="cls-7" d="M96.86-9.73l4.03,8.23c.23-.1.46-.21.69-.32.83-.41,1.62-.8,2.38-1.19l-3.29-6.72h-3.8Z"/>
          <path class="cls-7" d="M77.84-9.73l2.95,6.03c1.46,1.1,3.22,2.14,5.22,2.89l-4.37-8.92h-3.8Z"/>
          <path class="cls-7" d="M104.47-9.73h-3.8l3.29,6.72c1.08-.54,2.1-1.05,3.06-1.53l-2.54-5.2Z"/>
          <path class="cls-7" d="M93.05-9.73L97.67-.31c1.05-.29,2.12-.69,3.22-1.19l-4.03-8.23h-3.8Z"/>
          <path class="cls-7" d="M85.44-9.73L90.34.27c1.22.15,2.51.18,3.84.07l-4.93-10.07h-3.8Z"/>
          <path class="cls-7" d="M89.25-9.73L94.18.33c1.13-.1,2.29-.31,3.49-.64l-4.61-9.42h-3.8Z"/>
        </g>
        <g>
          <polygon class="cls-2" points="85.4 50.3 85.44 50.39 89.25 50.39 89.2 50.3 85.4 50.3"/>
          <polygon class="cls-2" points="81.59 50.3 81.64 50.39 85.44 50.39 85.4 50.3 81.59 50.3"/>
          <polygon class="cls-2" points="89.2 50.3 89.25 50.39 93.05 50.39 93.01 50.3 89.2 50.3"/>
          <polygon class="cls-2" points="81.59 50.3 77.79 50.3 77.84 50.39 81.64 50.39 81.59 50.3"/>
          <polygon class="cls-2" points="100.61 50.3 100.66 50.39 104.47 50.39 104.42 50.3 100.61 50.3"/>
          <polygon class="cls-2" points="96.81 50.3 96.86 50.39 100.66 50.39 100.61 50.3 96.81 50.3"/>
          <polygon class="cls-2" points="93.01 50.3 93.05 50.39 96.86 50.39 96.81 50.3 93.01 50.3"/>
          <polygon class="cls-2" points="104.47 50.39 108.27 50.39 108.22 50.3 104.42 50.3 104.47 50.39"/>
          <path class="cls-3" d="M96.81,50.3h3.8l-.03-.06,4.13-7.26c-.91-.55-1.91-1.05-2.97-1.47l-4.96,8.73.03.06Z"/>
          <path class="cls-3" d="M100.61,50.3h3.81l-.03-.06,3.04-5.34c-.8-.67-1.71-1.32-2.71-1.92l-4.13,7.26.03.06Z"/>
          <path class="cls-3" d="M93.01,50.3h3.8l-.03-.06,4.96-8.73c-1.02-.41-2.11-.74-3.25-.98l-5.52,9.7.03.06Z"/>
          <path class="cls-3" d="M104.42,50.3h3.8l-.03-.06,1.77-3.1c-.45-.35-.89-.73-1.33-1.16-.37-.36-.77-.71-1.2-1.07l-3.04,5.34.03.06Z"/>
          <path class="cls-3" d="M108.22,50.3h9.06s-3.56-.2-7.32-3.16l-1.77,3.1.03.06Z"/>
          <path class="cls-3" d="M81.57,50.24l4.54-7.98c-.09.04-.18.08-.27.13-1.83.91-3.51,1.75-5.03,2.51l-3.04,5.34.03.06h3.8l-.03-.06Z"/>
          <path class="cls-3" d="M85.4,50.3h3.8l-.03-.06,5.58-9.8-5.58,9.8.03.06h3.8l-.03-.06,5.52-9.7c-2.33-.48-4.89-.54-7.64.06l-5.49,9.64.03.06Z"/>
          <path class="cls-3" d="M80.8,44.9c-6.94,3.48-10.67,5.4-10.67,5.4h7.66l-.03-.06,3.04-5.34Z"/>
          <path class="cls-3" d="M81.59,50.3h3.8l-.03-.06,5.49-9.64c-1.53.33-3.12.87-4.75,1.66l-4.54,7.98.03.06Z"/>
          <path class="cls-7" d="M117.28,50.39h-9.01l1.79,3.66c4.72-2.38,7.22-3.66,7.22-3.66Z"/>
          <path class="cls-7" d="M107.01,55.59c1.1-.55,2.12-1.06,3.05-1.53l-1.79-3.66h-3.8l2.54,5.2Z"/>
          <path class="cls-7" d="M70.13,50.39s4.45.24,8.66,4.32c.59.57,1.26,1.15,2.01,1.71l-2.95-6.03h-7.71Z"/>
          <path class="cls-7" d="M81.64,50.39l4.37,8.92c1.34.51,2.79.89,4.33,1.08l-4.9-10h-3.8Z"/>
          <path class="cls-7" d="M96.86,50.39l4.03,8.23c.23-.1.46-.21.69-.32.83-.41,1.62-.8,2.38-1.19l-3.29-6.73h-3.8Z"/>
          <path class="cls-7" d="M77.84,50.39l2.95,6.03c1.46,1.1,3.22,2.13,5.22,2.89l-4.37-8.92h-3.8Z"/>
          <path class="cls-7" d="M104.47,50.39h-3.8l3.29,6.73c1.08-.54,2.1-1.05,3.06-1.53l-2.54-5.2Z"/>
          <path class="cls-7" d="M93.05,50.39l4.61,9.42c1.05-.29,2.12-.69,3.22-1.19l-4.03-8.23h-3.8Z"/>
          <path class="cls-7" d="M85.44,50.39l4.9,10c1.22.15,2.51.18,3.84.07l-4.93-10.07h-3.8Z"/>
          <path class="cls-7" d="M89.25,50.39l4.93,10.07c1.13-.1,2.29-.31,3.49-.64l-4.61-9.42h-3.8Z"/>
        </g>
        <g>
          <polygon class="cls-2" points="85.4 30.75 85.44 30.85 89.25 30.85 89.2 30.75 85.4 30.75"/>
          <polygon class="cls-2" points="81.59 30.75 81.64 30.85 85.44 30.85 85.4 30.75 81.59 30.75"/>
          <polygon class="cls-2" points="89.2 30.75 89.25 30.85 93.05 30.85 93.01 30.75 89.2 30.75"/>
          <polygon class="cls-2" points="81.59 30.75 77.79 30.75 77.84 30.85 81.64 30.85 81.59 30.75"/>
          <polygon class="cls-2" points="100.61 30.75 100.66 30.85 104.47 30.85 104.42 30.75 100.61 30.75"/>
          <polygon class="cls-2" points="96.81 30.75 96.86 30.85 100.66 30.85 100.61 30.75 96.81 30.75"/>
          <polygon class="cls-2" points="93.01 30.75 93.05 30.85 96.86 30.85 96.81 30.75 93.01 30.75"/>
          <polygon class="cls-2" points="104.47 30.85 108.27 30.85 108.22 30.75 104.42 30.75 104.47 30.85"/>
          <path class="cls-3" d="M96.81,30.75h3.8l-.03-.06,4.13-7.26c-.91-.55-1.91-1.05-2.97-1.47l-4.96,8.73.03.06Z"/>
          <path class="cls-3" d="M100.61,30.75h3.81l-.03-.06,3.04-5.34c-.8-.66-1.71-1.32-2.71-1.92l-4.13,7.26.03.06Z"/>
          <path class="cls-3" d="M93.01,30.75h3.8l-.03-.06,4.96-8.73c-1.02-.41-2.11-.74-3.25-.98l-5.52,9.71.03.06Z"/>
          <path class="cls-3" d="M104.42,30.75h3.8l-.03-.06,1.77-3.1c-.45-.35-.89-.73-1.33-1.16-.37-.35-.77-.71-1.2-1.07l-3.04,5.34.03.06Z"/>
          <path class="cls-3" d="M108.22,30.75h9.06s-3.56-.2-7.32-3.16l-1.77,3.1.03.06Z"/>
          <path class="cls-3" d="M81.57,30.7l4.54-7.98c-.09.04-.18.08-.27.13-1.83.91-3.51,1.75-5.03,2.51l-3.04,5.34.03.06h3.8l-.03-.06Z"/>
          <path class="cls-3" d="M85.4,30.75h3.8l-.03-.06,5.58-9.8-5.58,9.8.03.06h3.8l-.03-.06,5.52-9.71c-2.33-.48-4.89-.54-7.64.06l-5.49,9.64.03.06Z"/>
          <path class="cls-3" d="M80.8,25.36c-6.94,3.48-10.67,5.4-10.67,5.4h7.66l-.03-.06,3.04-5.34Z"/>
          <path class="cls-3" d="M81.59,30.75h3.8l-.03-.06,5.49-9.64c-1.53.33-3.12.87-4.75,1.66l-4.54,7.98.03.06Z"/>
          <path class="cls-7" d="M117.28,30.85h-9.01l1.79,3.66c4.72-2.38,7.22-3.66,7.22-3.66Z"/>
          <path class="cls-7" d="M107.01,36.05c1.1-.55,2.12-1.07,3.05-1.53l-1.79-3.66h-3.8l2.54,5.2Z"/>
          <path class="cls-7" d="M70.13,30.85s4.45.24,8.66,4.32c.59.57,1.26,1.15,2.01,1.71l-2.95-6.03h-7.71Z"/>
          <path class="cls-7" d="M81.64,30.85l4.37,8.92c1.34.51,2.79.89,4.33,1.08l-4.9-10h-3.8Z"/>
          <path class="cls-7" d="M96.86,30.85l4.03,8.23c.23-.11.46-.21.69-.32.83-.41,1.62-.8,2.38-1.19l-3.29-6.72h-3.8Z"/>
          <path class="cls-7" d="M77.84,30.85l2.95,6.03c1.46,1.1,3.22,2.14,5.22,2.89l-4.37-8.92h-3.8Z"/>
          <path class="cls-7" d="M104.47,30.85h-3.8l3.29,6.72c1.08-.54,2.1-1.05,3.06-1.53l-2.54-5.2Z"/>
          <path class="cls-7" d="M93.05,30.85l4.61,9.42c1.05-.29,2.12-.69,3.22-1.19l-4.03-8.23h-3.8Z"/>
          <path class="cls-7" d="M85.44,30.85l4.9,10c1.22.15,2.51.18,3.84.07l-4.93-10.07h-3.8Z"/>
          <path class="cls-7" d="M89.25,30.85l4.93,10.07c1.13-.1,2.29-.31,3.49-.64l-4.61-9.42h-3.8Z"/>
        </g>
        <g>
          <polygon class="cls-2" points="31.88 .1 31.83 0 28.03 0 28.08 .1 31.88 .1"/>
          <polygon class="cls-2" points="35.68 .1 35.64 0 31.83 0 31.88 .1 35.68 .1"/>
          <polygon class="cls-2" points="28.08 .1 28.03 0 24.23 0 24.27 .1 28.08 .1"/>
          <polygon class="cls-2" points="35.68 .1 39.49 .1 39.44 0 35.64 0 35.68 .1"/>
          <polygon class="cls-2" points="16.67 .1 16.62 0 12.81 0 12.86 .1 16.67 .1"/>
          <polygon class="cls-2" points="20.47 .1 20.42 0 16.62 0 16.67 .1 20.47 .1"/>
          <polygon class="cls-2" points="24.27 .1 24.23 0 20.42 0 20.47 .1 24.27 .1"/>
          <polygon class="cls-2" points="12.81 0 9.01 0 9.06 .1 12.86 .1 12.81 0"/>
          <path class="cls-4" d="M20.47.1h-3.8l.03.06-4.13,7.26c.91.55,1.9,1.05,2.97,1.47L20.5.16l-.03-.06Z"/>
          <path class="cls-4" d="M16.67.1h-3.8l.03.06-3.04,5.33c.8.67,1.71,1.32,2.71,1.92L16.69.16l-.03-.06Z"/>
          <path class="cls-4" d="M24.27.1h-3.8l.03.06-4.97,8.73c1.02.41,2.11.74,3.25.98L24.3.16l-.03-.06Z"/>
          <path class="cls-4" d="M12.86.1h-3.8l.03.06-1.76,3.1c.44.35.89.74,1.33,1.16.37.36.77.72,1.2,1.07L12.89.16l-.03-.06Z"/>
          <path class="cls-4" d="M9.06.1H0s3.56.2,7.32,3.16L9.09.16l-.03-.06Z"/>
          <path class="cls-4" d="M35.71.16l-4.54,7.98c.09-.04.18-.08.27-.13,1.83-.91,3.51-1.75,5.03-2.51L39.52.16l-.03-.06h-3.8l.03.06Z"/>
          <path class="cls-4" d="M31.88.1h-3.8l.03.06-5.57,9.8L28.1.16l-.03-.06h-3.8l.03.06-5.52,9.71c2.33.48,4.89.54,7.64-.06L31.91.16l-.03-.06Z"/>
          <path class="cls-4" d="M36.48,5.49C43.42,2.02,47.15.1,47.15.1h-7.66l.03.06-3.04,5.34Z"/>
          <path class="cls-4" d="M35.68.1h-3.8l.03.06-5.49,9.64c1.53-.33,3.12-.87,4.75-1.66L35.71.16l-.03-.06Z"/>
          <path class="cls-6" d="M0,0h9.01l-1.79-3.67C2.5-1.29,0,0,0,0Z"/>
          <path class="cls-6" d="M10.27-5.2c-1.1.55-2.12,1.06-3.05,1.53l1.79,3.67h3.8l-2.54-5.2Z"/>
          <path class="cls-6" d="M47.15,0s-4.45-.24-8.66-4.32c-.59-.57-1.26-1.15-2-1.71l2.95,6.03h7.71Z"/>
          <path class="cls-6" d="M35.64,0l-4.37-8.92c-1.34-.51-2.79-.89-4.33-1.08L31.83,0h3.8Z"/>
          <path class="cls-6" d="M20.42,0l-4.03-8.24c-.23.1-.46.21-.69.33-.83.41-1.62.8-2.38,1.19l3.29,6.72h3.8Z"/>
          <path class="cls-6" d="M39.44,0l-2.95-6.03c-1.47-1.11-3.22-2.14-5.22-2.89L35.64,0h3.8Z"/>
          <path class="cls-6" d="M12.81,0h3.8l-3.29-6.72c-1.08.54-2.1,1.05-3.06,1.53L12.81,0Z"/>
          <path class="cls-6" d="M24.23,0l-4.61-9.43c-1.05.29-2.12.69-3.22,1.19L20.42,0h3.8Z"/>
          <path class="cls-6" d="M31.83,0l-4.9-10c-1.22-.15-2.5-.18-3.84-.07L28.03,0h3.8Z"/>
          <path class="cls-6" d="M28.03,0l-4.93-10.07c-1.13.1-2.29.31-3.49.64L24.23,0h3.8Z"/>
        </g>
        <g>
          <polygon class="cls-2" points="31.88 40.68 31.83 40.58 28.03 40.58 28.08 40.68 31.88 40.68"/>
          <polygon class="cls-2" points="35.68 40.68 35.64 40.58 31.83 40.58 31.88 40.68 35.68 40.68"/>
          <polygon class="cls-2" points="28.08 40.68 28.03 40.58 24.23 40.58 24.27 40.68 28.08 40.68"/>
          <polygon class="cls-2" points="35.68 40.68 39.49 40.68 39.44 40.58 35.64 40.58 35.68 40.68"/>
          <polygon class="cls-2" points="16.67 40.68 16.62 40.58 12.81 40.58 12.86 40.68 16.67 40.68"/>
          <polygon class="cls-2" points="20.47 40.68 20.42 40.58 16.62 40.58 16.67 40.68 20.47 40.68"/>
          <polygon class="cls-2" points="24.27 40.68 24.23 40.58 20.42 40.58 20.47 40.68 24.27 40.68"/>
          <polygon class="cls-2" points="12.81 40.58 9.01 40.58 9.06 40.68 12.86 40.68 12.81 40.58"/>
          <path class="cls-4" d="M20.47,40.68h-3.8l.03.06-4.13,7.26c.91.54,1.9,1.05,2.97,1.47l4.97-8.73-.03-.06Z"/>
          <path class="cls-4" d="M16.67,40.68h-3.8l.03.06-3.04,5.34c.8.67,1.71,1.32,2.71,1.92l4.13-7.26-.03-.06Z"/>
          <path class="cls-4" d="M24.27,40.68h-3.8l.03.06-4.97,8.73c1.02.41,2.11.74,3.25.98l5.52-9.71-.03-.06Z"/>
          <path class="cls-4" d="M12.86,40.68h-3.8l.03.06-1.76,3.1c.44.35.89.74,1.33,1.17.37.36.77.72,1.2,1.07l3.04-5.34-.03-.06Z"/>
          <path class="cls-4" d="M9.06,40.68H0s3.56.2,7.32,3.16l1.76-3.1-.03-.06Z"/>
          <path class="cls-4" d="M35.71,40.74l-4.54,7.98c.09-.04.18-.08.27-.13,1.83-.91,3.51-1.75,5.03-2.51l3.04-5.34-.03-.06h-3.8l.03.06Z"/>
          <path class="cls-4" d="M31.88,40.68h-3.8l.03.06-5.57,9.8,5.57-9.8-.03-.06h-3.8l.03.06-5.52,9.71c2.33.48,4.89.54,7.64-.06l5.49-9.64-.03-.06Z"/>
          <path class="cls-4" d="M36.48,46.08c6.94-3.48,10.67-5.4,10.67-5.4h-7.66l.03.06-3.04,5.34Z"/>
          <path class="cls-4" d="M35.68,40.68h-3.8l.03.06-5.49,9.64c1.53-.33,3.12-.88,4.75-1.66l4.54-7.98-.03-.06Z"/>
          <path class="cls-6" d="M0,40.58h9.01l-1.79-3.66c-4.72,2.38-7.22,3.66-7.22,3.66Z"/>
          <path class="cls-6" d="M10.27,35.39c-1.1.55-2.12,1.06-3.05,1.53l1.79,3.66h3.8l-2.54-5.2Z"/>
          <path class="cls-6" d="M47.15,40.58s-4.45-.24-8.66-4.32c-.59-.57-1.26-1.15-2-1.71l2.95,6.03h7.71Z"/>
          <path class="cls-6" d="M35.64,40.58l-4.37-8.92c-1.34-.51-2.79-.89-4.33-1.08l4.9,10h3.8Z"/>
          <path class="cls-6" d="M20.42,40.58l-4.03-8.23c-.23.1-.46.21-.69.32-.83.41-1.62.8-2.38,1.19l3.29,6.72h3.8Z"/>
          <path class="cls-6" d="M39.44,40.58l-2.95-6.03c-1.47-1.1-3.22-2.14-5.22-2.89l4.37,8.92h3.8Z"/>
          <path class="cls-6" d="M12.81,40.58h3.8l-3.29-6.72c-1.08.54-2.1,1.05-3.06,1.53l2.54,5.2Z"/>
          <path class="cls-6" d="M24.23,40.58l-4.61-9.42c-1.05.3-2.12.69-3.22,1.19l4.03,8.23h3.8Z"/>
          <path class="cls-6" d="M31.83,40.58l-4.9-10c-1.22-.15-2.5-.18-3.84-.07l4.93,10.07h3.8Z"/>
          <path class="cls-6" d="M28.03,40.58l-4.93-10.07c-1.13.1-2.29.31-3.49.64l4.61,9.42h3.8Z"/>
        </g>
        <g>
          <polygon class="cls-2" points="31.88 20.29 31.83 20.19 28.03 20.19 28.08 20.29 31.88 20.29"/>
          <polygon class="cls-2" points="35.68 20.29 35.64 20.19 31.83 20.19 31.88 20.29 35.68 20.29"/>
          <polygon class="cls-2" points="28.08 20.29 28.03 20.19 24.23 20.19 24.27 20.29 28.08 20.29"/>
          <polygon class="cls-2" points="35.68 20.29 39.49 20.29 39.44 20.19 35.64 20.19 35.68 20.29"/>
          <polygon class="cls-2" points="16.67 20.29 16.62 20.19 12.81 20.19 12.86 20.29 16.67 20.29"/>
          <polygon class="cls-2" points="20.47 20.29 20.42 20.19 16.62 20.19 16.67 20.29 20.47 20.29"/>
          <polygon class="cls-2" points="24.27 20.29 24.23 20.19 20.42 20.19 20.47 20.29 24.27 20.29"/>
          <polygon class="cls-2" points="12.81 20.19 9.01 20.19 9.06 20.29 12.86 20.29 12.81 20.19"/>
          <path class="cls-4" d="M20.47,20.29h-3.8l.03.06-4.13,7.26c.91.55,1.9,1.05,2.97,1.47l4.97-8.73-.03-.06Z"/>
          <path class="cls-4" d="M16.67,20.29h-3.8l.03.06-3.04,5.34c.8.67,1.71,1.32,2.71,1.92l4.13-7.26-.03-.06Z"/>
          <path class="cls-4" d="M24.27,20.29h-3.8l.03.06-4.97,8.73c1.02.41,2.11.74,3.25.98l5.52-9.71-.03-.06Z"/>
          <path class="cls-4" d="M12.86,20.29h-3.8l.03.06-1.76,3.1c.44.35.89.73,1.33,1.16.37.36.77.71,1.2,1.07l3.04-5.34-.03-.06Z"/>
          <path class="cls-4" d="M9.06,20.29H0s3.56.2,7.32,3.16l1.76-3.1-.03-.06Z"/>
          <path class="cls-4" d="M35.71,20.34l-4.54,7.98c.09-.04.18-.08.27-.13,1.83-.91,3.51-1.75,5.03-2.51l3.04-5.34-.03-.06h-3.8l.03.06Z"/>
          <path class="cls-4" d="M31.88,20.29h-3.8l.03.06-5.57,9.8,5.57-9.8-.03-.06h-3.8l.03.06-5.52,9.71c2.33.48,4.89.54,7.64-.06l5.49-9.64-.03-.06Z"/>
          <path class="cls-4" d="M36.48,25.68c6.94-3.48,10.67-5.4,10.67-5.4h-7.66l.03.06-3.04,5.34Z"/>
          <path class="cls-4" d="M35.68,20.29h-3.8l.03.06-5.49,9.64c1.53-.33,3.12-.88,4.75-1.66l4.54-7.98-.03-.06Z"/>
          <path class="cls-6" d="M0,20.19h9.01l-1.79-3.66c-4.72,2.38-7.22,3.66-7.22,3.66Z"/>
          <path class="cls-6" d="M10.27,14.99c-1.1.55-2.12,1.06-3.05,1.53l1.79,3.66h3.8l-2.54-5.2Z"/>
          <path class="cls-6" d="M47.15,20.19s-4.45-.24-8.66-4.32c-.59-.57-1.26-1.15-2-1.71l2.95,6.03h7.71Z"/>
          <path class="cls-6" d="M35.64,20.19l-4.37-8.92c-1.34-.51-2.79-.89-4.33-1.08l4.9,10h3.8Z"/>
          <path class="cls-6" d="M20.42,20.19l-4.03-8.24c-.23.1-.46.21-.69.33-.83.41-1.62.8-2.38,1.19l3.29,6.72h3.8Z"/>
          <path class="cls-6" d="M39.44,20.19l-2.95-6.03c-1.47-1.1-3.22-2.14-5.22-2.89l4.37,8.92h3.8Z"/>
          <path class="cls-6" d="M12.81,20.19h3.8l-3.29-6.72c-1.08.54-2.1,1.05-3.06,1.53l2.54,5.2Z"/>
          <path class="cls-6" d="M24.23,20.19l-4.61-9.42c-1.05.29-2.12.69-3.22,1.19l4.03,8.24h3.8Z"/>
          <path class="cls-6" d="M31.83,20.19l-4.9-10c-1.22-.15-2.5-.18-3.84-.07l4.93,10.07h3.8Z"/>
          <path class="cls-6" d="M28.03,20.19l-4.93-10.07c-1.13.1-2.29.31-3.49.64l4.61,9.42h3.8Z"/>
        </g>
        <g>
          <polygon class="cls-5" points="78.33 .1 78.28 0 74.48 0 74.52 .1 78.33 .1"/>
          <polygon class="cls-5" points="82.13 .1 82.08 0 78.28 0 78.33 .1 82.13 .1"/>
          <polygon class="cls-5" points="74.52 .1 74.48 0 70.67 0 70.72 .1 74.52 .1"/>
          <polygon class="cls-5" points="82.13 .1 85.93 .1 85.89 0 82.08 0 82.13 .1"/>
          <polygon class="cls-5" points="63.11 .1 63.06 0 59.26 0 59.31 .1 63.11 .1"/>
          <polygon class="cls-5" points="66.92 .1 66.87 0 63.06 0 63.11 .1 66.92 .1"/>
          <polygon class="cls-5" points="70.72 .1 70.67 0 66.87 0 66.92 .1 70.72 .1"/>
          <polygon class="cls-5" points="59.26 0 55.46 0 55.5 .1 59.31 .1 59.26 0"/>
          <path class="cls-4" d="M66.92.1h-3.8l.03.06-4.13,7.26c.91.55,1.9,1.05,2.97,1.47L66.94.16l-.03-.06Z"/>
          <path class="cls-4" d="M63.11.1h-3.8l.03.06-3.04,5.33c.8.67,1.71,1.32,2.71,1.92L63.14.16l-.03-.06Z"/>
          <path class="cls-4" d="M70.72.1h-3.8l.03.06-4.97,8.73c1.02.41,2.1.74,3.25.98L70.75.16l-.03-.06Z"/>
          <path class="cls-4" d="M59.31.1h-3.8l.03.06-1.76,3.1c.44.35.89.74,1.33,1.16.37.36.77.72,1.2,1.07L59.34.16l-.03-.06Z"/>
          <path class="cls-4" d="M55.5.1h-9.06s3.56.2,7.32,3.16l1.76-3.1-.03-.06Z"/>
          <path class="cls-4" d="M82.16.16l-4.54,7.98c.09-.04.18-.08.27-.13,1.83-.91,3.51-1.75,5.04-2.51l3.04-5.34-.03-.06h-3.8l.03.06Z"/>
          <path class="cls-4" d="M78.33.1h-3.8l.03.06-5.57,9.8L74.55.16l-.03-.06h-3.8l.03.06-5.52,9.71c2.33.48,4.89.54,7.64-.06L78.35.16l-.03-.06Z"/>
          <path class="cls-4" d="M82.92,5.49C89.87,2.02,93.6.1,93.6.1h-7.66l.03.06-3.04,5.34Z"/>
          <path class="cls-4" d="M82.13.1h-3.8l.03.06-5.48,9.64c1.53-.33,3.12-.87,4.75-1.66L82.16.16l-.03-.06Z"/>
          <path class="cls-6" d="M46.45,0h9.01l-1.79-3.67c-4.72,2.38-7.22,3.67-7.22,3.67Z"/>
          <path class="cls-6" d="M56.72-5.2c-1.1.55-2.12,1.06-3.05,1.53l1.79,3.67h3.8l-2.55-5.2Z"/>
          <path class="cls-6" d="M93.6,0s-4.45-.25-8.66-4.32c-.59-.57-1.26-1.15-2.01-1.71l2.95,6.03h7.71Z"/>
          <path class="cls-6" d="M82.08,0l-4.37-8.92c-1.34-.51-2.79-.89-4.33-1.08l4.89,10h3.8Z"/>
          <path class="cls-6" d="M66.87,0l-4.03-8.24c-.23.1-.45.21-.69.32-.82.41-1.61.8-2.38,1.19l3.29,6.73h3.8Z"/>
          <path class="cls-6" d="M85.89,0l-2.95-6.03c-1.46-1.11-3.22-2.14-5.22-2.89l4.37,8.92h3.8Z"/>
          <path class="cls-6" d="M59.26,0h3.8l-3.29-6.73c-1.08.54-2.1,1.05-3.06,1.53l2.55,5.2Z"/>
          <path class="cls-6" d="M70.67,0l-4.61-9.43c-1.05.29-2.13.69-3.22,1.19l4.03,8.24h3.8Z"/>
          <path class="cls-6" d="M78.28,0l-4.89-10c-1.22-.15-2.51-.18-3.84-.07l4.93,10.07h3.8Z"/>
          <path class="cls-6" d="M74.48,0l-4.93-10.07c-1.13.1-2.29.31-3.49.64l4.61,9.43h3.8Z"/>
        </g>
        <g>
          <polygon class="cls-5" points="78.33 40.68 78.28 40.58 74.48 40.58 74.52 40.68 78.33 40.68"/>
          <polygon class="cls-5" points="82.13 40.68 82.08 40.58 78.28 40.58 78.33 40.68 82.13 40.68"/>
          <polygon class="cls-5" points="74.52 40.68 74.48 40.58 70.67 40.58 70.72 40.68 74.52 40.68"/>
          <polygon class="cls-5" points="82.13 40.68 85.93 40.68 85.89 40.58 82.08 40.58 82.13 40.68"/>
          <polygon class="cls-5" points="63.11 40.68 63.06 40.58 59.26 40.58 59.31 40.68 63.11 40.68"/>
          <polygon class="cls-5" points="66.92 40.68 66.87 40.58 63.06 40.58 63.11 40.68 66.92 40.68"/>
          <polygon class="cls-5" points="70.72 40.68 70.67 40.58 66.87 40.58 66.92 40.68 70.72 40.68"/>
          <polygon class="cls-5" points="59.26 40.58 55.46 40.58 55.5 40.68 59.31 40.68 59.26 40.58"/>
          <path class="cls-4" d="M66.92,40.68h-3.8l.03.06-4.13,7.26c.91.54,1.9,1.05,2.97,1.47l4.97-8.73-.03-.06Z"/>
          <path class="cls-4" d="M63.11,40.68h-3.8l.03.06-3.04,5.34c.8.67,1.71,1.32,2.71,1.92l4.13-7.26-.03-.06Z"/>
          <path class="cls-4" d="M70.72,40.68h-3.8l.03.06-4.97,8.73c1.02.41,2.1.74,3.25.98l5.52-9.71-.03-.06Z"/>
          <path class="cls-4" d="M59.31,40.68h-3.8l.03.06-1.76,3.1c.44.35.89.74,1.33,1.17.37.36.77.72,1.2,1.07l3.04-5.34-.03-.06Z"/>
          <path class="cls-4" d="M55.5,40.68h-9.06s3.56.2,7.32,3.16l1.76-3.1-.03-.06Z"/>
          <path class="cls-4" d="M82.16,40.74l-4.54,7.98c.09-.04.18-.08.27-.13,1.83-.91,3.51-1.75,5.04-2.51l3.04-5.34-.03-.06h-3.8l.03.06Z"/>
          <path class="cls-4" d="M78.33,40.68h-3.8l.03.06-5.57,9.8,5.57-9.8-.03-.06h-3.8l.03.06-5.52,9.71c2.33.48,4.89.54,7.64-.06l5.48-9.64-.03-.06Z"/>
          <path class="cls-4" d="M82.92,46.08c6.94-3.48,10.67-5.4,10.67-5.4h-7.66l.03.06-3.04,5.34Z"/>
          <path class="cls-4" d="M82.13,40.68h-3.8l.03.06-5.48,9.64c1.53-.34,3.12-.88,4.75-1.66l4.54-7.98-.03-.06Z"/>
          <path class="cls-6" d="M46.45,40.58h9.01l-1.79-3.66c-4.72,2.38-7.22,3.66-7.22,3.66Z"/>
          <path class="cls-6" d="M56.72,35.39c-1.1.55-2.12,1.06-3.05,1.53l1.79,3.66h3.8l-2.55-5.2Z"/>
          <path class="cls-6" d="M93.6,40.58s-4.45-.24-8.66-4.32c-.59-.57-1.26-1.15-2.01-1.71l2.95,6.03h7.71Z"/>
          <path class="cls-6" d="M82.08,40.58l-4.37-8.92c-1.34-.51-2.79-.89-4.33-1.08l4.89,10h3.8Z"/>
          <path class="cls-6" d="M66.87,40.58l-4.03-8.23c-.23.1-.45.21-.69.32-.82.41-1.61.8-2.38,1.19l3.29,6.73h3.8Z"/>
          <path class="cls-6" d="M85.89,40.58l-2.95-6.03c-1.46-1.1-3.22-2.14-5.22-2.89l4.37,8.92h3.8Z"/>
          <path class="cls-6" d="M59.26,40.58h3.8l-3.29-6.73c-1.08.54-2.1,1.05-3.06,1.53l2.55,5.2Z"/>
          <path class="cls-6" d="M70.67,40.58l-4.61-9.42c-1.05.3-2.13.69-3.22,1.19l4.03,8.23h3.8Z"/>
          <path class="cls-6" d="M78.28,40.58l-4.89-10c-1.22-.15-2.51-.19-3.84-.07l4.93,10.07h3.8Z"/>
          <path class="cls-6" d="M74.48,40.58l-4.93-10.07c-1.13.1-2.29.31-3.49.64l4.61,9.42h3.8Z"/>
        </g>
        <g>
          <polygon class="cls-5" points="78.33 20.29 78.28 20.19 74.48 20.19 74.52 20.29 78.33 20.29"/>
          <polygon class="cls-5" points="82.13 20.29 82.08 20.19 78.28 20.19 78.33 20.29 82.13 20.29"/>
          <polygon class="cls-5" points="74.52 20.29 74.48 20.19 70.67 20.19 70.72 20.29 74.52 20.29"/>
          <polygon class="cls-5" points="82.13 20.29 85.93 20.29 85.89 20.19 82.08 20.19 82.13 20.29"/>
          <polygon class="cls-5" points="63.11 20.29 63.06 20.19 59.26 20.19 59.31 20.29 63.11 20.29"/>
          <polygon class="cls-5" points="66.92 20.29 66.87 20.19 63.06 20.19 63.11 20.29 66.92 20.29"/>
          <polygon class="cls-5" points="70.72 20.29 70.67 20.19 66.87 20.19 66.92 20.29 70.72 20.29"/>
          <polygon class="cls-5" points="59.26 20.19 55.46 20.19 55.5 20.29 59.31 20.29 59.26 20.19"/>
          <path class="cls-4" d="M66.92,20.29h-3.8l.03.06-4.13,7.26c.91.55,1.9,1.05,2.97,1.47l4.97-8.73-.03-.06Z"/>
          <path class="cls-4" d="M63.11,20.29h-3.8l.03.06-3.04,5.34c.8.67,1.71,1.32,2.71,1.92l4.13-7.26-.03-.06Z"/>
          <path class="cls-4" d="M70.72,20.29h-3.8l.03.06-4.97,8.73c1.02.41,2.1.74,3.25.98l5.52-9.71-.03-.06Z"/>
          <path class="cls-4" d="M59.31,20.29h-3.8l.03.06-1.76,3.1c.44.35.89.73,1.33,1.16.37.35.77.71,1.2,1.07l3.04-5.34-.03-.06Z"/>
          <path class="cls-4" d="M55.5,20.29h-9.06s3.56.2,7.32,3.16l1.76-3.1-.03-.06Z"/>
          <path class="cls-4" d="M82.16,20.34l-4.54,7.98c.09-.04.18-.08.27-.13,1.83-.91,3.51-1.75,5.04-2.51l3.04-5.34-.03-.06h-3.8l.03.06Z"/>
          <path class="cls-4" d="M78.33,20.29h-3.8l.03.06-5.57,9.8,5.57-9.8-.03-.06h-3.8l.03.06-5.52,9.71c2.33.48,4.89.54,7.64-.06l5.48-9.64-.03-.06Z"/>
          <path class="cls-4" d="M82.92,25.68c6.94-3.48,10.67-5.4,10.67-5.4h-7.66l.03.06-3.04,5.34Z"/>
          <path class="cls-4" d="M82.13,20.29h-3.8l.03.06-5.48,9.64c1.53-.34,3.12-.88,4.75-1.66l4.54-7.98-.03-.06Z"/>
          <path class="cls-6" d="M46.45,20.19h9.01l-1.79-3.66c-4.72,2.38-7.22,3.66-7.22,3.66Z"/>
          <path class="cls-6" d="M56.72,14.99c-1.1.55-2.12,1.06-3.05,1.53l1.79,3.66h3.8l-2.55-5.2Z"/>
          <path class="cls-6" d="M93.6,20.19s-4.45-.25-8.66-4.32c-.59-.57-1.26-1.15-2.01-1.71l2.95,6.03h7.71Z"/>
          <path class="cls-6" d="M82.08,20.19l-4.37-8.92c-1.34-.51-2.79-.89-4.33-1.08l4.89,10h3.8Z"/>
          <path class="cls-6" d="M66.87,20.19l-4.03-8.24c-.23.1-.45.21-.69.32-.82.41-1.61.8-2.38,1.19l3.29,6.73h3.8Z"/>
          <path class="cls-6" d="M85.89,20.19l-2.95-6.03c-1.46-1.1-3.22-2.14-5.22-2.89l4.37,8.92h3.8Z"/>
          <path class="cls-6" d="M59.26,20.19h3.8l-3.29-6.73c-1.08.54-2.1,1.05-3.06,1.53l2.55,5.2Z"/>
          <path class="cls-6" d="M70.67,20.19l-4.61-9.42c-1.05.29-2.13.69-3.22,1.19l4.03,8.24h3.8Z"/>
          <path class="cls-6" d="M78.28,20.19l-4.89-10c-1.22-.15-2.51-.19-3.84-.07l4.93,10.07h3.8Z"/>
          <path class="cls-6" d="M74.48,20.19l-4.93-10.07c-1.13.1-2.29.31-3.49.64l4.61,9.42h3.8Z"/>
        </g>
      </g>
    </pattern>
  </defs>
  <g id="_レイヤー_1-2" data-name="レイヤー 1">
    <path class="cls-8" d="M12.99.03h108.33c-.87,1.57-.91,3.48-2.52,4.88-.55.48-.95.1-1.4.75.05-.08-.03,1.14-.03,1.22-.06,1.01,0,1.76.33,2.71-1.32.14-.19,1.34-.33,1.99-.16.75-1.38,1.51-1.71,2.25-.89,1.99.59,3.11,2.96,3.22,1.05,1.37-3.01,2.64.55,3.39-.79.33-2.07.77-1.73,1.76.75.46,1.82.79,2.47,1.29-.31.43.05.46.34.84l-120.25.14c.41-1.01,0-2.2.13-3.2.12-.99.58-2.09.58-3.11,0-.57-.21-.78-.18-1.3.03-.5.36-.94.36-1.51,0-1.08-.64-2.04,0-3.09.63-1.03,2.34-2.18,3.53-2.82.97-.52,2.67-.77,2.88-1.93.18-.96-1.25-2.03-.87-3.08.09-.27.91-1.01,1.16-1.29.64-.73,1.21-1.41,2.35-1.83.62-.23,1.25-.33,1.79-.55.7-.28.65-.88,2.12-.71"/>
  </g>
</svg>