<?xml version="1.0" encoding="UTF-8"?>
<svg id="_レイヤー_2" data-name="レイヤー 2" xmlns="http://www.w3.org/2000/svg" xmlns:xlink="http://www.w3.org/1999/xlink" viewBox="0 0 125.46 24.85">
  <defs>
    <style>
      .cls-1 {
        fill: none;
      }

      .cls-2 {
        fill: #231815;
      }

      .cls-3 {
        fill: url(#_シマウマ);
        opacity: .74;
      }

      .cls-4 {
        fill: #f8f9e8;
      }
    </style>
    <pattern id="_シマウマ" data-name="シマウマ" x="0" y="0" width="124.42" height="124.42" patternTransform="translate(-10.53 78.13)" patternUnits="userSpaceOnUse" viewBox="0 0 124.42 124.42">
      <g>
        <rect class="cls-1" x="0" y="0" width="124.42" height="124.42"/>
        <rect class="cls-4" x="0" y="0" width="124.42" height="124.42"/>
        <g>
          <path class="cls-2" d="M30.62,126.91c-1.12-3.12-3.28-15.49-4.67-21.8-1.46-6.62,0-3.67-.67-12.67s0-11.33,0-14-.67-8,1.33-18,1.21-15.77,4.55-26.11c3.33-10.33,1.67-26,1.67-26l-5.67-15s-1,13.67-1,15.33,1.67,5.33.33,11.33c-1.33,6-1.33,19-2.67,21.67-1.33,2.67-3.33,9.33-3.33,17.33s1,12.33,1,12.33c-3-1.67-4.33-8.33-4.33-12s-1.67-6.67,0-9.67c1.67-3-.55-12.89-.55-15.89s.67-8,0-16c-.23-2.82-.06-7.75-1.72-10.09-1.67-2.33-1.67-9-1.67-10.33S4.35.03,4.35.03c0,0,.79,4.6,3.21,12.99,1.67,5.77-.28,6.42,1.72,14.75s3.55,14.89,3.21,21.23c-.33,6.33,2.33,21,2.33,26s2.33,4.33.67,10.67c-1.67,6.33-6.68,14.41-2.79,21.48.17,3.15-1.83,7.15-3.21,8.9s-7.34,6-4.46,10.12h8.34s-.17-1.13-.12-3.88c.05-2.67,1.12-4.12,2.38-7.12s1.75-6.75,1.25-9c3.12,2.75,5.88,5.75,6.38,11.38s3,5.62,3.38,6.75,3.99,2.62,3.99,2.62Z"/>
          <path class="cls-2" d="M37.38-.21c.37,7.16,5.77,13.9,5.14,18.92-.67,5.33-7.33,11.33-7.33,23.33s3,10.33,4,21c1,10.67-2,4-3.67,15.33-1.67,11.33-3.67,18-2.33,27.67,1.33,9.67,3,11.5,4.33,19,1.34,7.56-.67,14.33,5.33,8,6-6.33,9.83-7.4,9.15-8.65-2.88-5.24-7.48-20.02-4.81-28.35,2.67-8.33-2.9-11.27-.57-20.93,2.33-9.67,10.67-26.33,10.67-29.33s1.24-13.73,2.24-20.07c1-6.33.67-11-4.67-20.33-1.27-2.23-2.17-3.96-2.98-5.65l-14.49.06Z"/>
          <path class="cls-2" d="M59.42-.33c1.05,2.22,3.08,5.76,4.82,15.33,1.91,10.5,2.04,5.77-.63,21.77-2.67,16,6,20,5,40.33-1,20.33-13.04,22.56-12.37,32.56s9,31.67,10,32.67,5,3.33,5-4.33-2-18-.67-24.67c1.33-6.67,6.33-18.67,7.33-24.33,1-5.67,4-6,7-16.67s-4.63-12.23-7.63-21.89c-3-9.67-2.33-16-3.33-19.33s-2.52-10.24-2.7-17.11c-.18-6.67-.53-8.5-.95-14.52l-10.88.19Z"/>
          <path class="cls-2" d="M96.83,103.75c1.04,1.83-1.2,11.22-1.55,21.07l-13.94.1c.27-2,.86-4.11,1.15-6.5.37-3.02,0-9.08,0-9.08-.33-7,7-18.67,10-26.33,3-7.67,6.79-15.23,6.79-24.56s-9.45-20.11-13.79-31.11c-4.33-11-6.33-17.67-3-33.33,0,0,12.92-17.14,14.33-14.67,1.33,2.33-1.48,17.07-2.33,29.33-.49,7.11,4.45,13.11,5.12,16.11.67,3,0,7,1.67,15.67,1.67,8.67,11,19.67,10.33,28.33-.49,6.42,1.12,14.11-7,27-1.5,2.38-7.79,7.98-7.79,7.98Z"/>
          <path class="cls-2" d="M118.33-.62c-.08,6.1-1.62,12.81.92,21.28,3,10,9.58,9,8.92,22.33-.67,13.49-1.48,29.24,1.08,39,1.67,6.33,4.67,14.33,1.33,22.33-6.26,15.01-11.43,9.23-12.33,20.33-1,12.33-3.42,14-3.42,14-3-5-5-6.67-5.33-13.67-.33-7,.08-13,3.08-24.33,3-11.33,6.67-22.33,4-30.67-2.67-8.33-2-13-5.33-21.33-3.33-8.33-.3-6.56-1.96-18.23-2.37-16.57-.54-12.29-.54-21.4,0-3.2.46-5.66.75-9.37l8.83-.28Z"/>
          <path class="cls-2" d="M-2.29,27.27c2.95,4.05,6.1,6.31,5.63,15.73-.67,13.49-1.48,29.24,1.08,39,1.67,6.33,4.67,14.33,1.33,22.33-3.47,8.34-6.61,10.26-8.88,12.23l.83-89.29Z"/>
        </g>
      </g>
    </pattern>
  </defs>
  <g id="_レイヤー_1-2" data-name="レイヤー 1">
    <path class="cls-3" d="M13.96,24.85c-.11-.09-.08-.18-.34-.16.26-1.17-1.07-1.69-.62-2.91-1.53-.17-5.09-.79-5.39-2.1-2.66-.75-1.46-2.46-2.24-3.93-.94-.16-.69-.92-.93-1.54-1.79.01-1.39-1.44-1.87-2.38-.27-.53-.7-.69-.89-1.29-.18-.59.02-1.34-.03-1.94-1.45-.14-.27-2.84-1.48-3.67.9-.67,1.48-1.37,1.67-2.22-1.76-.03-.18-1.83-1.83-2.13l125.46-.56v24.71l-111.84-.02"/>
  </g>
</svg>