<?xml version="1.0" encoding="UTF-8"?>
<svg id="_レイヤー_2" data-name="レイヤー 2" xmlns="http://www.w3.org/2000/svg" xmlns:xlink="http://www.w3.org/1999/xlink" viewBox="0 0 125.46 24.84">
  <defs>
    <style>
      .cls-1 {
        fill: none;
      }

      .cls-2 {
        fill: url(#_10_dpi_40_);
        opacity: .74;
      }

      .cls-3 {
        fill: #231815;
      }
    </style>
    <pattern id="_10_dpi_40_" data-name="10 dpi 40%" x="0" y="0" width="28.8" height="28.8" patternTransform="translate(-10.53 385.97)" patternUnits="userSpaceOnUse" viewBox="0 0 28.8 28.8">
      <g>
        <rect class="cls-1" x="0" y="0" width="28.8" height="28.8"/>
        <circle class="cls-3" cx="28.8" cy="28.8" r="2.88"/>
        <circle class="cls-3" cx="14.4" cy="28.8" r="2.88"/>
        <path class="cls-3" d="M0,31.68c1.59,0,2.88-1.29,2.88-2.88s-1.29-2.88-2.88-2.88-2.88,1.29-2.88,2.88,1.29,2.88,2.88,2.88Z"/>
        <path class="cls-3" d="M28.8,17.28c1.59,0,2.88-1.29,2.88-2.88s-1.29-2.88-2.88-2.88-2.88,1.29-2.88,2.88,1.29,2.88,2.88,2.88Z"/>
        <path class="cls-3" d="M14.4,17.28c1.59,0,2.88-1.29,2.88-2.88s-1.29-2.88-2.88-2.88-2.88,1.29-2.88,2.88,1.29,2.88,2.88,2.88Z"/>
        <path class="cls-3" d="M0,17.28c1.59,0,2.88-1.29,2.88-2.88s-1.29-2.88-2.88-2.88-2.88,1.29-2.88,2.88,1.29,2.88,2.88,2.88Z"/>
        <path class="cls-3" d="M28.8,2.88c1.59,0,2.88-1.29,2.88-2.88s-1.29-2.88-2.88-2.88-2.88,1.29-2.88,2.88,1.29,2.88,2.88,2.88Z"/>
        <path class="cls-3" d="M14.4,2.88c1.59,0,2.88-1.29,2.88-2.88s-1.29-2.88-2.88-2.88-2.88,1.29-2.88,2.88,1.29,2.88,2.88,2.88Z"/>
        <path class="cls-3" d="M0,2.88c1.59,0,2.88-1.29,2.88-2.88S1.59-2.88,0-2.88-2.88-1.59-2.88,0-1.59,2.88,0,2.88Z"/>
        <path class="cls-3" d="M-14.4,2.88c1.59,0,2.88-1.29,2.88-2.88s-1.29-2.88-2.88-2.88-2.88,1.29-2.88,2.88,1.29,2.88,2.88,2.88Z"/>
        <path class="cls-3" d="M-14.4,0"/>
        <path class="cls-3" d="M7.2,24.48c1.59,0,2.88-1.29,2.88-2.88s-1.29-2.88-2.88-2.88-2.88,1.29-2.88,2.88,1.29,2.88,2.88,2.88Z"/>
        <circle class="cls-3" cx="21.6" cy="21.6" r="2.88"/>
        <path class="cls-3" d="M7.2,10.08c1.59,0,2.88-1.29,2.88-2.88s-1.29-2.88-2.88-2.88-2.88,1.29-2.88,2.88,1.29,2.88,2.88,2.88Z"/>
        <circle class="cls-3" cx="21.6" cy="7.2" r="2.88"/>
        <path class="cls-3" d="M-7.2,10.08c1.59,0,2.88-1.29,2.88-2.88s-1.29-2.88-2.88-2.88-2.88,1.29-2.88,2.88,1.29,2.88,2.88,2.88Z"/>
        <path class="cls-3" d="M-7.2,7.2"/>
      </g>
    </pattern>
  </defs>
  <g id="_レイヤー_1-2" data-name="レイヤー 1">
    <path class="cls-2" d="M13.96,24.84c-.11-.08-.08-.18-.34-.16.26-1.17-1.07-1.69-.62-2.91-1.53-.17-5.09-.79-5.39-2.1-2.66-.74-1.46-2.46-2.24-3.93-.94-.16-.69-.92-.93-1.54-1.79.01-1.39-1.44-1.88-2.38-.27-.52-.7-.69-.88-1.29-.18-.59.02-1.34-.03-1.94-1.45-.14-.27-2.85-1.48-3.67.9-.67,1.48-1.37,1.67-2.22-1.76-.03-.18-1.83-1.83-2.13l125.46-.56v24.7l-111.84-.02"/>
  </g>
</svg>