<?xml version="1.0" encoding="UTF-8"?>
<svg id="_レイヤー_2" data-name="レイヤー 2" xmlns="http://www.w3.org/2000/svg" xmlns:xlink="http://www.w3.org/1999/xlink" viewBox="0 0 125.61 24.14">
  <defs>
    <style>
      .cls-1 {
        stroke-width: .4px;
      }

      .cls-1, .cls-2, .cls-3 {
        fill: none;
      }

      .cls-1, .cls-3 {
        stroke: #231815;
        stroke-linecap: square;
      }

      .cls-4 {
        fill: url(#_罫線_3);
      }

      .cls-5 {
        fill: #fff;
      }

      .cls-6 {
        fill: #9ac5e9;
        opacity: .64;
      }

      .cls-7 {
        opacity: .82;
      }

      .cls-3 {
        stroke-width: 9.6px;
      }
    </style>
    <pattern id="_罫線_3" data-name="罫線 3" x="0" y="0" width="82.8" height="72" patternTransform="translate(-707.01 344.87)" patternUnits="userSpaceOnUse" viewBox="0 0 82.8 72">
      <g>
        <rect class="cls-2" x="0" width="82.8" height="72"/>
        <line class="cls-5" x1="-16" y1="66" x2="-10" y2="72"/>
        <line class="cls-5" x1="-16" y1="72" x2="-10" y2="66"/>
        <line class="cls-3" x1="41.4" y1="72" x2="41.4"/>
        <line class="cls-3" x1="-13.8" y1="12" x2="-13.8"/>
        <line class="cls-3" x1="13.8" y1="72" x2="13.8"/>
        <line class="cls-3" x1="69" y1="72" x2="69"/>
        <line class="cls-1" x1="49.8" y1="72" x2="49.8"/>
        <line class="cls-1" x1="-5.4" y1="12" x2="-5.4"/>
        <line class="cls-1" x1="22.2" y1="72" x2="22.2"/>
        <line class="cls-1" x1="77.4" y1="72" x2="77.4"/>
        <line class="cls-1" x1="5.4" y1="72" x2="5.4"/>
        <line class="cls-1" x1="33" y1="72" x2="33"/>
        <line class="cls-1" x1="-22.2" y1="12" x2="-22.2"/>
        <line class="cls-1" x1="60.6" y1="72" x2="60.6"/>
      </g>
    </pattern>
  </defs>
  <g id="_レイヤー_1-2" data-name="レイヤー 1">
    <g class="cls-7">
      <path class="cls-4" d="M125.61,23.86c-1.24-1.2-.18-1.98-2.78-2.25.13-.03.33,0,.48-.02.25-1.21-.2-2.34-1.7-2.64.17-.08.39-.34.75-.45.03-.6-.55-1.04-1.27-1.27.28-.46.93-.75,1.52-.96-.46-.47-.97-.89-1.72-1.01.13-.18.4-.63.59-.79,1.45-.43.27-1.35-.2-1.83.12,0,.22.02.32.06.32-1.37-1.09-2.49-.52-3.7.05-.03.34-.15.38-.17-1.63-1.22-3.14-3.57-3.27-5.31-.49-.06-.57-.3-1.08-.33.19-.98-1.07-1.35-1-2.35-.18-.02-.34,0-.51-.04-.12-.28-.34-.54-.41-.82L0,.28c.11.51.65.87,1.3,1.16-.96,1.02.27,1.78.79,2.62.82,1.33.39,2.01.17,3.24-.08.41.46.47.16,1.11-.22.47-1.29.94-1.44,1.29-.41.9.49,3.02,1.22,3.6-1.3.4-.28,4.26-.3,5.21-.02.73-.54,1.36-.36,1.98.08.28,1.09-.04,1.14.4.03.27-.4.51-.4.56.01.59-.58,1.8-1.48,2.14.04.04.15.15.13.21-.12.08-.29.21-.35.32l125.04-.28Z"/>
      <path class="cls-6" d="M125.61,23.86c-1.24-1.2-.18-1.98-2.78-2.25.13-.03.33,0,.48-.02.25-1.21-.2-2.34-1.7-2.64.17-.08.39-.34.75-.45.03-.6-.55-1.04-1.27-1.27.28-.46.93-.75,1.52-.96-.46-.47-.97-.89-1.72-1.01.13-.18.4-.63.59-.79,1.45-.43.27-1.35-.2-1.83.12,0,.22.02.32.06.32-1.37-1.09-2.49-.52-3.7.05-.03.34-.15.38-.17-1.63-1.22-3.14-3.57-3.27-5.31-.49-.06-.57-.3-1.08-.33.19-.98-1.07-1.35-1-2.35-.18-.02-.34,0-.51-.04-.12-.28-.34-.54-.41-.82L0,.28c.11.51.65.87,1.3,1.16-.96,1.02.27,1.78.79,2.62.82,1.33.39,2.01.17,3.24-.08.41.46.47.16,1.11-.22.47-1.29.94-1.44,1.29-.41.9.49,3.02,1.22,3.6-1.3.4-.28,4.26-.3,5.21-.02.73-.54,1.36-.36,1.98.08.28,1.09-.04,1.14.4.03.27-.4.51-.4.56.01.59-.58,1.8-1.48,2.14.04.04.15.15.13.21-.12.08-.29.21-.35.32l125.04-.28Z"/>
    </g>
  </g>
</svg>