<?xml version="1.0" encoding="UTF-8"?>
<svg id="_レイヤー_2" data-name="レイヤー 2" xmlns="http://www.w3.org/2000/svg" xmlns:xlink="http://www.w3.org/1999/xlink" viewBox="0 0 117.76 24.14">
  <defs>
    <style>
      .cls-1, .cls-2 {
        fill: none;
      }

      .cls-2 {
        stroke: #231815;
        stroke-width: 2.88px;
      }

      .cls-3 {
        fill: url(#_10_lpi_40_);
      }

      .cls-3, .cls-4 {
        opacity: .59;
      }

      .cls-5 {
        opacity: .61;
      }

      .cls-4 {
        fill: #eac5c6;
      }
    </style>
    <pattern id="_10_lpi_40_" data-name="10 lpi 40%" x="0" y="0" width="72" height="72" patternTransform="translate(-153.7 440.34)" patternUnits="userSpaceOnUse" viewBox="0 0 72 72">
      <g>
        <rect class="cls-1" width="72" height="72"/>
        <line class="cls-2" x1="-.25" y1="68.4" x2="72.25" y2="68.4"/>
        <line class="cls-2" x1="-.25" y1="54" x2="72.25" y2="54"/>
        <line class="cls-2" x1="-.25" y1="39.6" x2="72.25" y2="39.6"/>
        <line class="cls-2" x1="-.25" y1="25.2" x2="72.25" y2="25.2"/>
        <line class="cls-2" x1="-.25" y1="10.8" x2="72.25" y2="10.8"/>
        <line class="cls-2" x1="-20" y1="10.8" x2="-6" y2="10.8"/>
        <line class="cls-2" x1="-.25" y1="61.2" x2="72.25" y2="61.2"/>
        <line class="cls-2" x1="-.25" y1="46.8" x2="72.25" y2="46.8"/>
        <line class="cls-2" x1="-.25" y1="32.4" x2="72.25" y2="32.4"/>
        <line class="cls-2" x1="-.25" y1="18" x2="72.25" y2="18"/>
        <line class="cls-2" x1="-.25" y1="3.6" x2="72.25" y2="3.6"/>
        <line class="cls-2" x1="-20" y1="3.6" x2="-6" y2="3.6"/>
      </g>
    </pattern>
  </defs>
  <g id="_レイヤー_1-2" data-name="レイヤー 1">
    <g class="cls-5">
      <path class="cls-4" d="M0,23.86c1.16-1.2.17-1.98,2.61-2.25-.13-.03-.31,0-.45-.02-.23-1.21.19-2.34,1.6-2.64-.16-.08-.37-.34-.7-.45-.03-.6.52-1.04,1.19-1.27-.26-.46-.87-.75-1.42-.95.44-.47.91-.89,1.61-1.01-.13-.18-.38-.63-.55-.79-1.36-.43-.25-1.35.18-1.83-.11,0-.21.02-.3.06-.3-1.37,1.02-2.49.48-3.7-.05-.03-.32-.14-.36-.17,1.53-1.22,2.94-3.57,3.07-5.31.46-.06.53-.3,1.01-.33-.18-.98,1-1.35.94-2.35.16-.03.32,0,.48-.04.11-.28.32-.54.39-.82l107.99.28c-.1.51-.61.87-1.22,1.16.91,1.02-.26,1.78-.74,2.62-.77,1.33-.37,2.01-.16,3.24.07.41-.43.47-.15,1.11.21.47,1.2.94,1.35,1.29.38.9-.46,3.02-1.14,3.6,1.22.4.26,4.26.28,5.21.02.73.5,1.36.33,1.98-.08.28-1.02-.04-1.06.4-.03.27.38.51.38.56,0,.59.55,1.8,1.39,2.14-.04.04-.14.15-.12.21.11.08.28.21.33.32L0,23.86Z"/>
      <path class="cls-3" d="M0,23.86c1.16-1.2.17-1.98,2.61-2.25-.13-.03-.31,0-.45-.02-.23-1.21.19-2.34,1.6-2.64-.16-.08-.37-.34-.7-.45-.03-.6.52-1.04,1.19-1.27-.26-.46-.87-.75-1.42-.95.44-.47.91-.89,1.61-1.01-.13-.18-.38-.63-.55-.79-1.36-.43-.25-1.35.18-1.83-.11,0-.21.02-.3.06-.3-1.37,1.02-2.49.48-3.7-.05-.03-.32-.14-.36-.17,1.53-1.22,2.94-3.57,3.07-5.31.46-.06.53-.3,1.01-.33-.18-.98,1-1.35.94-2.35.16-.03.32,0,.48-.04.11-.28.32-.54.39-.82l107.99.28c-.1.51-.61.87-1.22,1.16.91,1.02-.26,1.78-.74,2.62-.77,1.33-.37,2.01-.16,3.24.07.41-.43.47-.15,1.11.21.47,1.2.94,1.35,1.29.38.9-.46,3.02-1.14,3.6,1.22.4.26,4.26.28,5.21.02.73.5,1.36.33,1.98-.08.28-1.02-.04-1.06.4-.03.27.38.51.38.56,0,.59.55,1.8,1.39,2.14-.04.04-.14.15-.12.21.11.08.28.21.33.32L0,23.86Z"/>
    </g>
  </g>
</svg>