<?xml version="1.0" encoding="UTF-8"?>
<svg id="_レイヤー_2" data-name="レイヤー 2" xmlns="http://www.w3.org/2000/svg" xmlns:xlink="http://www.w3.org/1999/xlink" viewBox="0 0 117.76 24.14">
  <defs>
    <style>
      .cls-1, .cls-2, .cls-3 {
        fill: none;
      }

      .cls-4 {
        fill: url(#_タイル);
        opacity: .65;
      }

      .cls-2 {
        stroke-linejoin: bevel;
      }

      .cls-2, .cls-3 {
        stroke: #fff;
        stroke-width: .5px;
      }

      .cls-5 {
        fill: #231815;
      }
    </style>
    <pattern id="_タイル" data-name="タイル" x="0" y="0" width="31.76" height="31.76" patternTransform="translate(-429.44 557.92)" patternUnits="userSpaceOnUse" viewBox="0 0 31.76 31.76">
      <g>
        <rect class="cls-1" x="0" width="31.76" height="31.76"/>
        <rect class="cls-5" x="0" width="31.76" height="31.76"/>
        <polygon class="cls-2" points="29.05 31.74 15.87 18.57 2.7 31.74 15.87 44.92 29.05 31.74"/>
        <polygon class="cls-2" points="31.74 2.71 18.56 15.89 31.74 29.07 44.92 15.89 31.74 2.71"/>
        <polygon class="cls-2" points="2.71 .02 15.89 13.2 29.06 .02 15.89 -13.16 2.71 .02"/>
        <polygon class="cls-2" points=".02 29.05 13.2 15.88 .02 2.7 -13.16 15.88 .02 29.05"/>
        <path class="cls-3" d="M13,34.68c-2.56.54-5.15-.65-6.33-2.88,1.17-2.23,3.77-3.42,6.33-2.88-.54-2.56.65-5.15,2.88-6.33,2.23,1.17,3.42,3.77,2.88,6.33,2.56-.54,5.15.65,6.33,2.88-1.17,2.23-3.77,3.41-6.33,2.88"/>
        <path class="cls-3" d="M34.62,18.77c.54,2.56-.65,5.15-2.88,6.33-2.23-1.17-3.42-3.77-2.88-6.33-2.56.54-5.15-.65-6.33-2.88,1.17-2.23,3.77-3.42,6.33-2.88-.54-2.56.65-5.15,2.88-6.33,2.23,1.17,3.41,3.77,2.88,6.33"/>
        <path class="cls-3" d="M18.77-2.92c2.56-.53,5.15.65,6.33,2.88-1.17,2.23-3.77,3.42-6.33,2.88.54,2.56-.65,5.15-2.88,6.33-2.23-1.17-3.41-3.77-2.88-6.33-2.56.54-5.15-.65-6.33-2.88,1.17-2.23,3.77-3.41,6.33-2.88"/>
        <path class="cls-3" d="M-2.86,13C-3.4,10.44-2.21,7.84.02,6.67c2.23,1.17,3.42,3.77,2.88,6.33,2.56-.54,5.15.65,6.33,2.88-1.17,2.23-3.77,3.42-6.33,2.88.54,2.56-.65,5.15-2.88,6.33-2.23-1.17-3.41-3.77-2.88-6.33"/>
        <path class="cls-3" d="M11.24,28.9c-.28-.63-.38-1.33-.31-2.02.68-.07,1.37.02,1.99.29"/>
        <path class="cls-3" d="M18.78,27.18c.63-.28,1.33-.38,2.02-.3.07.68-.02,1.37-.29,1.99"/>
        <path class="cls-3" d="M28.83,20.52c-.63.28-1.33.38-2.02.3-.07-.68.02-1.37.29-1.99"/>
        <path class="cls-3" d="M27.11,12.98c-.28-.63-.38-1.33-.3-2.02.68-.07,1.37.02,1.99.29"/>
        <path class="cls-3" d="M20.52,2.87c.28.63.38,1.33.31,2.02-.68.08-1.37-.02-1.99-.29"/>
        <path class="cls-3" d="M12.98,4.59c-.63.28-1.33.38-2.02.3-.08-.68.02-1.37.29-1.99"/>
        <path class="cls-3" d="M2.93,11.24c.63-.28,1.33-.38,2.02-.3.07.68-.02,1.37-.29,1.99"/>
        <path class="cls-3" d="M4.65,18.79c.28.63.38,1.33.31,2.02-.68.08-1.37-.02-1.99-.29"/>
        <line class="cls-3" x1="10.55" y1="31.81" x2="21.2" y2="31.81"/>
        <line class="cls-3" x1="15.87" y1="26.48" x2="15.87" y2="37.13"/>
        <line class="cls-3" x1="13.99" y1="29.92" x2="17.76" y2="33.69"/>
        <line class="cls-3" x1="17.76" y1="29.92" x2="13.99" y2="33.69"/>
        <line class="cls-3" x1="31.74" y1="21.21" x2="31.74" y2="10.57"/>
        <line class="cls-3" x1="26.42" y1="15.89" x2="37.07" y2="15.89"/>
        <line class="cls-3" x1="29.86" y1="17.77" x2="33.62" y2="14.01"/>
        <line class="cls-3" x1="29.86" y1="14.01" x2="33.62" y2="17.77"/>
        <line class="cls-3" x1="21.21" y1="-.04" x2="10.56" y2="-.04"/>
        <line class="cls-3" x1="15.89" y1="5.28" x2="15.89" y2="-5.37"/>
        <line class="cls-3" x1="17.77" y1="1.84" x2="14" y2="-1.92"/>
        <line class="cls-3" x1="14" y1="1.84" x2="17.77" y2="-1.92"/>
        <line class="cls-3" x1=".02" y1="10.55" x2=".02" y2="21.2"/>
        <line class="cls-3" x1="5.34" y1="15.88" x2="-5.3" y2="15.88"/>
        <line class="cls-3" x1="1.9" y1="13.99" x2="-1.86" y2="17.76"/>
        <line class="cls-3" x1="1.9" y1="17.76" x2="-1.86" y2="13.99"/>
        <line class="cls-3" x1="18.6" y1="18.6" x2="29.12" y2="29.12"/>
        <line class="cls-3" x1="2.68" y1="29.01" x2="13.1" y2="18.53"/>
        <line class="cls-3" x1="18.6" y1="13.17" x2="29.12" y2="2.65"/>
        <line class="cls-3" x1="2.68" y1="2.75" x2="13.1" y2="13.24"/>
        <rect class="cls-3" x="13.13" y="13.13" width="5.5" height="5.5"/>
        <rect class="cls-3" x="-2.75" y="-2.75" width="5.5" height="5.5"/>
        <rect class="cls-3" x="-2.75" y="29.01" width="5.5" height="5.5"/>
        <rect class="cls-3" x="29.01" y="29.01" width="5.5" height="5.5"/>
        <rect class="cls-3" x="29.01" y="-2.75" width="5.5" height="5.5"/>
      </g>
    </pattern>
  </defs>
  <g id="_レイヤー_1-2" data-name="レイヤー 1">
    <path class="cls-4" d="M117.76,23.86c-1.16-1.2-.17-1.98-2.61-2.25.13-.03.31,0,.45-.02.23-1.21-.19-2.34-1.6-2.64.16-.08.37-.34.7-.45.03-.6-.52-1.04-1.19-1.27.26-.46.87-.75,1.42-.95-.44-.47-.91-.89-1.61-1.01.12-.18.37-.63.55-.79,1.37-.43.25-1.35-.18-1.83.11,0,.21.02.3.07.3-1.37-1.02-2.49-.48-3.7.05-.03.32-.15.36-.17-1.53-1.22-2.94-3.57-3.07-5.31-.46-.06-.53-.3-1.01-.32.18-.98-1-1.35-.94-2.34-.16-.03-.32,0-.48-.04-.11-.28-.32-.54-.38-.82L0,.28c.11.51.61.87,1.22,1.16-.9,1.02.26,1.78.74,2.62.77,1.33.37,2.01.16,3.24-.07.41.43.47.15,1.11-.2.47-1.2.95-1.35,1.29-.38.9.46,3.01,1.14,3.6-1.22.39-.27,4.26-.29,5.21-.02.73-.5,1.36-.33,1.99.08.28,1.02-.04,1.06.4.03.26-.37.51-.37.57,0,.58-.55,1.8-1.39,2.14.04.04.14.15.12.21-.11.08-.28.21-.33.32l117.23-.28Z"/>
  </g>
</svg>