<?xml version="1.0" encoding="UTF-8"?>
<svg id="_レイヤー_2" data-name="レイヤー 2" xmlns="http://www.w3.org/2000/svg" xmlns:xlink="http://www.w3.org/1999/xlink" viewBox="0 0 125.61 24.14">
  <defs>
    <style>
      .cls-1, .cls-2, .cls-3, .cls-4, .cls-5 {
        fill: none;
      }

      .cls-2 {
        stroke-width: 1.5px;
      }

      .cls-2, .cls-3, .cls-4, .cls-5 {
        stroke: #c4a050;
      }

      .cls-2, .cls-3, .cls-5 {
        stroke-linecap: round;
        stroke-linejoin: round;
      }

      .cls-3, .cls-4 {
        stroke-width: 1.8px;
      }

      .cls-6 {
        fill: #e0cda6;
      }

      .cls-7 {
        fill: url(#_ペルー_カラー_);
        opacity: .82;
      }

      .cls-8 {
        fill: #c03d2b;
      }

      .cls-9 {
        fill: #c4a050;
      }

      .cls-5 {
        stroke-dasharray: .25 10;
        stroke-width: 2.5px;
      }
    </style>
    <pattern id="_ペルー_カラー_" data-name="ペルー (カラー)" x="0" y="0" width="79.2" height="98.3" patternTransform="translate(-707.96 268.54)" patternUnits="userSpaceOnUse" viewBox="0 0 79.2 98.3">
      <g>
        <rect class="cls-1" width="79.2" height="98.3"/>
        <rect class="cls-8" width="79.2" height="98.3"/>
        <path class="cls-5" d="M0-24.58C4.33-22.14,3.44-.17,0,0c-3.31.16-4.51,22.03,0,24.58,4.33,2.44,3.44,24.41,0,24.58-3.31.16-4.51,22.03,0,24.58,4.33,2.44,3.44,24.41,0,24.58-3.31.16-4.51,22.03,0,24.58"/>
        <path class="cls-5" d="M38.52-24.58c4.33,2.44,3.44,24.41,0,24.58-3.31.16-4.51,22.03,0,24.58,4.33,2.44,3.44,24.41,0,24.58-3.31.16-4.51,22.03,0,24.58,4.33,2.44,3.44,24.41,0,24.58-3.31.16-4.51,22.03,0,24.58"/>
        <path class="cls-5" d="M46.95,94.5c-.5,2.61-.67,3.76-1.65,3.8-3.31.16-4.51,22.03,0,24.58"/>
        <path class="cls-5" d="M45.3-24.58c4.33,2.44,3.44,24.41,0,24.58-3.31.16-4.51,22.03,0,24.58,4.33,2.44,3.44,24.41,0,24.58-3.31.16-4.51,22.03,0,24.58,1.01.57,1.74,2.21,2.22,4.38"/>
        <path class="cls-5" d="M50.21,101.22c-1.69,6.08-1.63,19.68,1.87,21.66"/>
        <path class="cls-5" d="M50.45,3.25c-1.94,5.57-2.03,19.26,1.63,21.33,4.33,2.44,3.44,24.41,0,24.58-1.66.08-2.79,5.63-2.94,11.46"/>
        <path class="cls-5" d="M57.08,102.12c-1.68,6.1-1.7,18.79,1.79,20.76"/>
        <path class="cls-5" d="M57.2,3.12c-1.91,5.65-1.98,19.4,1.66,21.45,4.33,2.44,3.44,24.41,0,24.58-1.66.08-2.79,5.63-2.93,11.46"/>
        <path class="cls-5" d="M63.7,102.25c-1.7,6.06-1.57,18.66,1.94,20.63"/>
        <path class="cls-5" d="M64.08,3c-1.98,5.49-2.12,19.5,1.57,21.58,4.33,2.44,3.44,24.41,0,24.58-1.67.08-2.8,5.65-2.94,11.49"/>
        <path class="cls-5" d="M71.08,71.25c.47,1.53.52,2.01,1.35,2.48,4.33,2.44,3.25,26.36-.2,26.53-3.31.16-4.32,20.08.2,22.62"/>
        <path class="cls-5" d="M72.42-24.58c4.33,2.44,3.44,24.41,0,24.58-3.31.16-4.51,22.03,0,24.58,4.33,2.44,3.44,24.41,0,24.58-1.64.08-2.77,5.5-2.93,11.25"/>
        <path class="cls-5" d="M79.2-24.58c4.33,2.44,3.45,24.41,0,24.58-3.31.16-4.51,22.03,0,24.58,4.33,2.44,3.45,24.41,0,24.58-3.31.16-4.51,22.03,0,24.58,4.33,2.44,3.45,24.41,0,24.58-3.31.16-4.51,22.03,0,24.58"/>
        <line class="cls-3" x1="21.18" y1="6.36" x2="21.18" y2="29.93"/>
        <polyline class="cls-4" points="27.09 34.62 27.09 39.3 32.71 39.3 32.71 44.28"/>
        <polyline class="cls-4" points="15.33 34.62 15.33 39.3 9.71 39.3 9.71 44.28"/>
        <path class="cls-2" d="M47.91-38.67s1.46.15,2.25.15c7.5-.04,13.68.16,20.53-.25-.25,13.78.23,27.54-.21,41.31-4.52-.53-9.04-.15-13.56-.16-.35,0-1.22-.3-1.59-.26-2.73.28-4.85.33-7.52,0-.01-2.49-.36-4.99-.38-7.42-.06-11.15-.15-22.03.48-33.37Z"/>
        <path class="cls-2" d="M47.91,60.36s1.46.15,2.25.15c7.5-.04,13.68.16,20.53-.25-.25,13.78.23,27.54-.21,41.31-4.52-.53-9.04-.15-13.56-.16-.35,0-1.22-.3-1.59-.26-2.73.28-4.85.33-7.52,0-.01-2.49-.36-4.99-.38-7.42-.06-11.15-.15-22.03.48-33.37Z"/>
        <path class="cls-9" d="M53.71,71.35c.46.05.89-.05,1.39.07.56.14,1.12-.04,1.69-.02.03.62-.04,1.24-.05,1.85-.56-.21-1.13-.01-1.7-.05-.09.78-.1,1.55,0,2.33-.47-.04-.96.08-1.43-.05.18-1.38-.12-2.76.1-4.13Z"/>
        <path class="cls-9" d="M63.03,85.49h1.38c-.09.17-.1.35-.09.53.07,1.01.19,2.01.17,3.02,0,.21-.07.42-.08.64-.13-.01-.25-.07-.37-.08-.55-.06-1.1.15-1.63.03-.38-.09-.76-.1-1.12-.05.07-.51-.17-1.04.03-1.52.02-.05.18-.02.29-.05.48-.09.99.31,1.33-.02.35-.34.29-.95.16-1.42-.1-.38.03-.72-.06-1.07Z"/>
        <path class="cls-6" d="M59.11,76.75c.49.64,1.26.92,1.8,1.54.72.83,1.45,1.58,2.17,2.38-.26.18-.51.37-.71.6-1.06,1.19-2.33,2.05-3.26,3.31-.27-.32-.65-.51-.93-.82-.78-.83-1.43-1.7-2.25-2.46-.2-.18-.61-.35-.68-.6-.08-.31.28-.61.59-.81.91-.59,1.61-1.25,2.3-2.05.3-.35.48-.79.93-.92.17-.05.04-.12.05-.18Z"/>
        <polygon class="cls-9" points="21.18 29.93 27.43 34.62 14.92 34.62 21.18 29.93"/>
        <polygon class="cls-9" points="21.18 15.04 27.43 10.36 14.92 10.36 21.18 15.04"/>
        <rect class="cls-9" x="16.75" y="5.33" width="8.86" height="2.06"/>
        <polygon class="cls-9" points="32.71 43.94 35.64 46.13 29.78 46.13 32.71 43.94"/>
        <polygon class="cls-9" points="9.71 43.94 12.64 46.13 6.78 46.13 9.71 43.94"/>
        <path class="cls-6" d="M68.3,97.06c-2.09,0-4.16-.02-6.25-.08-.18,0-.35.16-.53.16-3.96.08-7.9-.33-11.86-.19-.05-5.76.04-11.51.05-17.27.01-3.39.27-6.72-.19-10.18-.23-1.71-.05-3.4.35-5.08,6.22-.16,12.43-.06,18.64,0-.16,1.25.14,2.48.15,3.71.1,9.64-.22,19.28-.36,28.92ZM61.28,73.15c.56.11,1.13.1,1.7.11v2.33c.49-.15.99.05,1.48,0-.13-1.41,0-2.83-.11-4.24h-3.07v1.8ZM56.73,88.08c-.57.02-1.13.08-1.7.05-.06-.79-.12-1.58-.05-2.38,0-.05.01-.12.1-.11l-.21.05c-.34.1-.7-.12-1.11-.04-.03,0-.12.1-.11.04-.14,1.38.06,2.75-.05,4.13,1.03.13,2.06-.15,3.07.11.03-.62-.06-1.24.05-1.85ZM67.31,92.19c-.02-.19-.33-.35-.34-.54-.12-1.84-.02-3.62.34-5.51.12-.65-.12-1.28-.11-1.9.01-1.2-.11-2.41.15-3.6h-2.5c-.22-.25-.56-.37-.8-.62-1.68-1.75-3.23-3.48-4.94-5.12-.07.07-.14.14-.21.2,0-.06.01-.11.02-.17,0-.06.32-.06.33-.12.44-3.01-.33-5.92.05-8.89h-8.37c.17,1.23.25,2.47.18,3.71-.08,1.56-.54,3.07-.37,4.66.22,2.15.58,4.24.09,6.36.94-.2,1.88-.23,2.82-.21-.06.07-.12.12-.16.2-.08.16.16.34.29.5.81.92,1.54,1.82,2.45,2.63.3.27.63.49.92.78.53.53,1.06,1.02,1.57,1.55.02,1.04.07,2.09.1,3.12.07,2.05-.2,4.11.16,6.15,2.79-.1,5.58.22,8.37.11,0-1.09.08-2.18-.04-3.28Z"/>
      </g>
    </pattern>
  </defs>
  <g id="_レイヤー_1-2" data-name="レイヤー 1">
    <path class="cls-7" d="M125.61,23.86c-1.24-1.2-.18-1.98-2.78-2.25.13-.03.34,0,.48-.02.24-1.21-.2-2.34-1.7-2.64.17-.08.39-.34.75-.46.03-.6-.55-1.03-1.27-1.27.28-.46.93-.75,1.52-.96-.46-.46-.97-.89-1.72-1.01.14-.18.4-.62.59-.79,1.46-.43.27-1.35-.19-1.83.12,0,.22.02.32.07.33-1.37-1.09-2.49-.52-3.7.05-.04.34-.15.38-.17-1.63-1.22-3.14-3.57-3.27-5.31-.5-.06-.57-.3-1.08-.33.19-.98-1.07-1.35-1-2.34-.18-.02-.34,0-.51-.04-.12-.28-.34-.54-.41-.82L0,.28c.11.52.65.87,1.3,1.16-.97,1.02.27,1.78.79,2.62.82,1.33.39,2.01.17,3.24-.07.41.46.47.16,1.11-.22.47-1.28.95-1.44,1.29-.41.9.49,3.01,1.22,3.6-1.3.39-.28,4.26-.3,5.21-.02.73-.54,1.36-.35,1.99.08.28,1.08-.04,1.13.41.03.26-.4.5-.4.56,0,.58-.59,1.8-1.49,2.14.04.04.15.15.13.21-.11.08-.3.21-.35.32l125.04-.28Z"/>
  </g>
</svg>