<?xml version="1.0" encoding="UTF-8"?>
<svg id="_レイヤー_2" data-name="レイヤー 2" xmlns="http://www.w3.org/2000/svg" xmlns:xlink="http://www.w3.org/1999/xlink" viewBox="0 0 126.21 24.42">
  <defs>
    <style>
      .cls-1, .cls-2 {
        fill: none;
      }

      .cls-3, .cls-4 {
        fill: #231815;
      }

      .cls-5 {
        fill: url(#_柳の枝);
        opacity: .74;
      }

      .cls-4 {
        stroke-width: .6px;
      }

      .cls-4, .cls-2 {
        stroke: #231815;
      }

      .cls-2 {
        stroke-dasharray: 0 4.5;
        stroke-linecap: round;
        stroke-width: 2px;
      }
    </style>
    <pattern id="_柳の枝" data-name="柳の枝" x="0" y="0" width="116" height="175.5" patternTransform="translate(-10.16 270.04)" patternUnits="userSpaceOnUse" viewBox="0 0 116 175.5">
      <g>
        <rect class="cls-1" y="0" width="116" height="175.5"/>
        <line class="cls-2" x1="31" y1="-3.25" x2="31" y2="179.75"/>
        <line class="cls-2" x1="2" y1="-3.25" x2="2" y2="179.75"/>
        <line class="cls-2" x1="60" y1="-3.25" x2="60" y2="179.75"/>
        <line class="cls-2" x1="89" y1="-3.25" x2="89" y2="179.75"/>
        <line class="cls-2" x1="118" y1="-3.25" x2="118" y2="179.75"/>
        <path class="cls-3" d="M74.5,30.72c.11,2.5.9,3.89,1.18,4.35,1.44,2.34-.05,2.9-.65,1.98.42,1.16.53,2.74-.54,2.97-1.06-.23-.95-1.81-.53-2.97-.6.93-2.09.36-.65-1.98.29-.46,1.08-1.85,1.18-4.35Z"/>
        <path class="cls-3" d="M74.5,126.72c.11,2.5.9,3.89,1.18,4.35,1.44,2.34-.05,2.9-.65,1.98.42,1.17.53,2.74-.54,2.97-1.06-.23-.95-1.81-.53-2.97-.6.93-2.09.36-.65-1.98.29-.46,1.08-1.85,1.18-4.35Z"/>
        <path class="cls-3" d="M45.5,78.72c.11,2.5.89,3.89,1.18,4.35,1.45,2.34-.05,2.9-.64,1.98.42,1.17.53,2.74-.54,2.97-1.06-.23-.96-1.81-.54-2.97-.59.93-2.09.36-.65-1.98.29-.46,1.08-1.85,1.18-4.35Z"/>
        <path class="cls-3" d="M16.5,22.72c.11,2.5.89,3.89,1.18,4.35,1.45,2.34-.05,2.9-.64,1.98.42,1.16.53,2.74-.54,2.97-1.06-.23-.96-1.81-.54-2.97-.59.93-2.09.36-.64-1.98.29-.46,1.07-1.85,1.18-4.35Z"/>
        <path class="cls-3" d="M16.5,126.72c.11,2.5.89,3.89,1.18,4.35,1.45,2.34-.05,2.9-.64,1.98.42,1.17.53,2.74-.54,2.97-1.06-.23-.96-1.81-.54-2.97-.59.93-2.09.36-.64-1.98.29-.46,1.07-1.85,1.18-4.35Z"/>
        <path class="cls-3" d="M103.5-9.28c.11,2.5.9,3.89,1.18,4.35,1.44,2.34-.05,2.9-.65,1.98.42,1.16.53,2.74-.54,2.97-1.06-.23-.95-1.81-.53-2.97-.6.93-2.09.36-.65-1.98.29-.46,1.08-1.85,1.18-4.35Z"/>
        <path class="cls-3" d="M103.5,166.22c.11,2.5.9,3.89,1.18,4.35,1.44,2.34-.05,2.9-.65,1.98.42,1.17.53,2.74-.54,2.97-1.06-.23-.95-1.81-.53-2.97-.6.93-2.09.36-.65-1.98.29-.46,1.08-1.85,1.18-4.35Z"/>
        <line class="cls-4" x1="74.5" y1="-.89" x2="74.5" y2="34.37"/>
        <line class="cls-4" x1="74.5" y1="48.12" x2="74.5" y2="130.37"/>
        <line class="cls-4" x1="45.5" y1="-.89" x2="45.5" y2="82.37"/>
        <line class="cls-4" x1="45.5" y1="176.61" x2="45.5" y2="111.62"/>
        <line class="cls-4" x1="16.5" y1="55.87" x2="16.5" y2="130.37"/>
        <line class="cls-4" x1="16.5" y1="-.89" x2="16.5" y2="26.37"/>
        <line class="cls-4" x1="103.5" y1="169.87" x2="103.5" y2="23.62"/>
        <line class="cls-4" x1="74.5" y1="167.37" x2="74.5" y2="177"/>
        <line class="cls-4" x1="16.5" y1="151.62" x2="16.5" y2="177"/>
        <path class="cls-3" d="M69.2,23.35c-.18-2.79,1.18-5.63,3.47-7.24.18,2.79-1.18,5.63-3.47,7.24Z"/>
        <path class="cls-3" d="M79.8,23.35c.17-2.79-1.18-5.63-3.47-7.24-.18,2.79,1.18,5.63,3.47,7.24Z"/>
        <path class="cls-3" d="M69.2,15.35c-.18-2.79,1.18-5.63,3.47-7.24.18,2.79-1.18,5.63-3.47,7.24Z"/>
        <path class="cls-3" d="M79.8,15.35c.17-2.79-1.18-5.63-3.47-7.24-.18,2.79,1.18,5.63,3.47,7.24Z"/>
        <path class="cls-3" d="M69.2,7.35c-.18-2.79,1.18-5.63,3.47-7.24.18,2.79-1.18,5.63-3.47,7.24Z"/>
        <path class="cls-3" d="M79.8,7.35c.17-2.79-1.18-5.63-3.47-7.24-.18,2.79,1.18,5.63,3.47,7.24Z"/>
        <path class="cls-3" d="M69.2,119.35c-.18-2.79,1.18-5.63,3.47-7.24.18,2.79-1.18,5.63-3.47,7.24Z"/>
        <path class="cls-3" d="M79.8,119.35c.17-2.79-1.18-5.63-3.47-7.24-.18,2.79,1.18,5.63,3.47,7.24Z"/>
        <path class="cls-3" d="M69.2,111.35c-.18-2.79,1.18-5.63,3.47-7.24.18,2.79-1.18,5.63-3.47,7.24Z"/>
        <path class="cls-3" d="M79.8,111.35c.17-2.79-1.18-5.63-3.47-7.24-.18,2.79,1.18,5.63,3.47,7.24Z"/>
        <path class="cls-3" d="M69.2,103.35c-.18-2.79,1.18-5.63,3.47-7.24.18,2.79-1.18,5.63-3.47,7.24Z"/>
        <path class="cls-3" d="M79.8,103.35c.17-2.79-1.18-5.63-3.47-7.24-.18,2.79,1.18,5.63,3.47,7.24Z"/>
        <path class="cls-3" d="M69.2,95.35c-.18-2.79,1.18-5.63,3.47-7.24.18,2.79-1.18,5.63-3.47,7.24Z"/>
        <path class="cls-3" d="M79.8,95.35c.17-2.79-1.18-5.63-3.47-7.24-.18,2.79,1.18,5.63,3.47,7.24Z"/>
        <path class="cls-3" d="M69.2,87.35c-.18-2.79,1.18-5.63,3.47-7.24.18,2.79-1.18,5.63-3.47,7.24Z"/>
        <path class="cls-3" d="M79.8,87.35c.17-2.79-1.18-5.63-3.47-7.24-.18,2.79,1.18,5.63,3.47,7.24Z"/>
        <path class="cls-3" d="M40.2,79.35c-.18-2.79,1.18-5.63,3.47-7.24.18,2.79-1.18,5.63-3.47,7.24Z"/>
        <path class="cls-3" d="M50.8,79.35c.18-2.79-1.18-5.63-3.47-7.24-.18,2.79,1.18,5.63,3.47,7.24Z"/>
        <path class="cls-3" d="M40.2,71.35c-.18-2.79,1.18-5.63,3.47-7.24.18,2.79-1.18,5.63-3.47,7.24Z"/>
        <path class="cls-3" d="M50.8,71.35c.18-2.79-1.18-5.63-3.47-7.24-.18,2.79,1.18,5.63,3.47,7.24Z"/>
        <path class="cls-3" d="M40.2,63.35c-.18-2.79,1.18-5.63,3.47-7.24.18,2.79-1.18,5.63-3.47,7.24Z"/>
        <path class="cls-3" d="M50.8,63.35c.18-2.79-1.18-5.63-3.47-7.24-.18,2.79,1.18,5.63,3.47,7.24Z"/>
        <path class="cls-3" d="M40.2,55.35c-.18-2.79,1.18-5.63,3.47-7.24.18,2.79-1.18,5.63-3.47,7.24Z"/>
        <path class="cls-3" d="M50.8,55.35c.18-2.79-1.18-5.63-3.47-7.24-.18,2.79,1.18,5.63,3.47,7.24Z"/>
        <path class="cls-3" d="M40.2,47.35c-.18-2.79,1.18-5.63,3.47-7.24.18,2.79-1.18,5.63-3.47,7.24Z"/>
        <path class="cls-3" d="M50.8,47.35c.18-2.79-1.18-5.63-3.47-7.24-.18,2.79,1.18,5.63,3.47,7.24Z"/>
        <path class="cls-3" d="M40.2,39.35c-.18-2.79,1.18-5.63,3.47-7.24.18,2.79-1.18,5.63-3.47,7.24Z"/>
        <path class="cls-3" d="M50.8,39.35c.18-2.79-1.18-5.63-3.47-7.24-.18,2.79,1.18,5.63,3.47,7.24Z"/>
        <path class="cls-3" d="M40.2,31.35c-.18-2.79,1.18-5.63,3.47-7.24.18,2.79-1.18,5.63-3.47,7.24Z"/>
        <path class="cls-3" d="M50.8,31.35c.18-2.79-1.18-5.63-3.47-7.24-.18,2.79,1.18,5.63,3.47,7.24Z"/>
        <path class="cls-3" d="M40.2,23.35c-.18-2.79,1.18-5.63,3.47-7.24.18,2.79-1.18,5.63-3.47,7.24Z"/>
        <path class="cls-3" d="M50.8,23.35c.18-2.79-1.18-5.63-3.47-7.24-.18,2.79,1.18,5.63,3.47,7.24Z"/>
        <path class="cls-3" d="M40.2,166.85c-.18-2.79,1.18-5.63,3.47-7.24.18,2.79-1.18,5.63-3.47,7.24Z"/>
        <path class="cls-3" d="M50.8,166.85c.18-2.79-1.18-5.63-3.47-7.24-.18,2.79,1.18,5.63,3.47,7.24Z"/>
        <path class="cls-3" d="M40.2,158.85c-.18-2.79,1.18-5.63,3.47-7.24.18,2.79-1.18,5.63-3.47,7.24Z"/>
        <path class="cls-3" d="M50.8,158.85c.18-2.79-1.18-5.63-3.47-7.24-.18,2.79,1.18,5.63,3.47,7.24Z"/>
        <path class="cls-3" d="M40.2,150.85c-.18-2.79,1.18-5.63,3.47-7.24.18,2.79-1.18,5.63-3.47,7.24Z"/>
        <path class="cls-3" d="M50.8,150.85c.18-2.79-1.18-5.63-3.47-7.24-.18,2.79,1.18,5.63,3.47,7.24Z"/>
        <path class="cls-3" d="M40.2,142.85c-.18-2.79,1.18-5.63,3.47-7.24.18,2.79-1.18,5.63-3.47,7.24Z"/>
        <path class="cls-3" d="M50.8,142.85c.18-2.79-1.18-5.63-3.47-7.24-.18,2.79,1.18,5.63,3.47,7.24Z"/>
        <path class="cls-3" d="M40.2,134.85c-.18-2.79,1.18-5.63,3.47-7.24.18,2.79-1.18,5.63-3.47,7.24Z"/>
        <path class="cls-3" d="M50,133.5c.18-2.79-.38-4.28-2.66-5.89-.18,2.79.38,4.28,2.66,5.89Z"/>
        <path class="cls-3" d="M40.2,126.85c-.18-2.79,1.18-5.63,3.47-7.24.18,2.79-1.18,5.63-3.47,7.24Z"/>
        <path class="cls-3" d="M50.8,126.85c.18-2.79-1.18-5.63-3.47-7.24-.18,2.79,1.18,5.63,3.47,7.24Z"/>
        <path class="cls-3" d="M69.2,31.35c-.18-2.79,1.18-5.63,3.47-7.24.18,2.79-1.18,5.63-3.47,7.24Z"/>
        <path class="cls-3" d="M79.8,31.35c.17-2.79-1.18-5.63-3.47-7.24-.18,2.79,1.18,5.63,3.47,7.24Z"/>
        <path class="cls-3" d="M40.2,15.35c-.18-2.79,1.18-5.63,3.47-7.24.18,2.79-1.18,5.63-3.47,7.24Z"/>
        <path class="cls-3" d="M50.8,15.35c.18-2.79-1.18-5.63-3.47-7.24-.18,2.79,1.18,5.63,3.47,7.24Z"/>
        <path class="cls-3" d="M40.2,7.35c-.18-2.79,1.18-5.63,3.47-7.24.18,2.79-1.18,5.63-3.47,7.24Z"/>
        <path class="cls-3" d="M50.8,7.35c.18-2.79-1.18-5.63-3.47-7.24-.18,2.79,1.18,5.63,3.47,7.24Z"/>
        <path class="cls-3" d="M11.2,95.35c-.18-2.79,1.18-5.63,3.47-7.24.18,2.79-1.18,5.63-3.47,7.24Z"/>
        <path class="cls-3" d="M21.8,95.35c.18-2.79-1.18-5.63-3.47-7.24-.18,2.79,1.18,5.63,3.47,7.24Z"/>
        <path class="cls-3" d="M11.2,23.35c-.18-2.79,1.18-5.63,3.47-7.24.18,2.79-1.18,5.63-3.47,7.24Z"/>
        <path class="cls-3" d="M21.8,23.35c.18-2.79-1.18-5.63-3.47-7.24-.18,2.79,1.18,5.63,3.47,7.24Z"/>
        <path class="cls-3" d="M11.2,15.35c-.18-2.79,1.18-5.63,3.47-7.24.18,2.79-1.18,5.63-3.47,7.24Z"/>
        <path class="cls-3" d="M21.8,15.35c.18-2.79-1.18-5.63-3.47-7.24-.18,2.79,1.18,5.63,3.47,7.24Z"/>
        <path class="cls-3" d="M11.2,7.35c-.18-2.79,1.18-5.63,3.47-7.24.18,2.79-1.18,5.63-3.47,7.24Z"/>
        <path class="cls-3" d="M21.8,7.35c.18-2.79-1.18-5.63-3.47-7.24-.18,2.79,1.18,5.63,3.47,7.24Z"/>
        <path class="cls-3" d="M11.2,103.35c-.18-2.79,1.18-5.63,3.47-7.24.18,2.79-1.18,5.63-3.47,7.24Z"/>
        <path class="cls-3" d="M21.8,103.35c.18-2.79-1.18-5.63-3.47-7.24-.18,2.79,1.18,5.63,3.47,7.24Z"/>
        <path class="cls-3" d="M11.2,111.35c-.18-2.79,1.18-5.63,3.47-7.24.18,2.79-1.18,5.63-3.47,7.24Z"/>
        <path class="cls-3" d="M21.8,111.35c.18-2.79-1.18-5.63-3.47-7.24-.18,2.79,1.18,5.63,3.47,7.24Z"/>
        <path class="cls-3" d="M40.2,174.85c-.18-2.79,1.18-5.63,3.47-7.24.18,2.79-1.18,5.63-3.47,7.24Z"/>
        <path class="cls-3" d="M50.8,174.85c.18-2.79-1.18-5.63-3.47-7.24-.18,2.79,1.18,5.63,3.47,7.24Z"/>
        <path class="cls-3" d="M40.2,182.85c-.18-2.79,1.18-5.63,3.47-7.24.18,2.79-1.18,5.63-3.47,7.24Z"/>
        <path class="cls-3" d="M50.8,182.85c.18-2.79-1.18-5.63-3.47-7.24-.18,2.79,1.18,5.63,3.47,7.24Z"/>
        <path class="cls-3" d="M69.2,79.35c-.18-2.79,1.18-5.63,3.47-7.24.18,2.79-1.18,5.63-3.47,7.24Z"/>
        <path class="cls-3" d="M79.8,79.35c.17-2.79-1.18-5.63-3.47-7.24-.18,2.79,1.18,5.63,3.47,7.24Z"/>
        <path class="cls-3" d="M98.2,70.85c-.18-2.79,1.18-5.63,3.47-7.24.18,2.79-1.18,5.63-3.47,7.24Z"/>
        <path class="cls-3" d="M108.8,70.85c.17-2.79-1.18-5.63-3.47-7.24-.18,2.79,1.18,5.63,3.47,7.24Z"/>
        <path class="cls-3" d="M98.2,62.85c-.18-2.79,1.18-5.63,3.47-7.24.18,2.79-1.18,5.63-3.47,7.24Z"/>
        <path class="cls-3" d="M108.8,62.85c.17-2.79-1.18-5.63-3.47-7.24-.18,2.79,1.18,5.63,3.47,7.24Z"/>
        <path class="cls-3" d="M98.2,54.85c-.18-2.79,1.18-5.63,3.47-7.24.18,2.79-1.18,5.63-3.47,7.24Z"/>
        <path class="cls-3" d="M108.8,54.85c.17-2.79-1.18-5.63-3.47-7.24-.18,2.79,1.18,5.63,3.47,7.24Z"/>
        <path class="cls-3" d="M98.2,46.85c-.18-2.79,1.18-5.63,3.47-7.24.18,2.79-1.18,5.63-3.47,7.24Z"/>
        <path class="cls-3" d="M108.8,46.85c.17-2.79-1.18-5.63-3.47-7.24-.18,2.79,1.18,5.63,3.47,7.24Z"/>
        <path class="cls-3" d="M98.2,38.85c-.18-2.79,1.18-5.63,3.47-7.24.18,2.79-1.18,5.63-3.47,7.24Z"/>
        <path class="cls-3" d="M108.8,38.85c.17-2.79-1.18-5.63-3.47-7.24-.18,2.79,1.18,5.63,3.47,7.24Z"/>
        <path class="cls-3" d="M98.2,110.85c-.18-2.79,1.18-5.63,3.47-7.24.18,2.79-1.18,5.63-3.47,7.24Z"/>
        <path class="cls-3" d="M108.8,110.85c.17-2.79-1.18-5.63-3.47-7.24-.18,2.79,1.18,5.63,3.47,7.24Z"/>
        <path class="cls-3" d="M98.2,78.85c-.18-2.79,1.18-5.63,3.47-7.24.18,2.79-1.18,5.63-3.47,7.24Z"/>
        <path class="cls-3" d="M108.8,78.85c.17-2.79-1.18-5.63-3.47-7.24-.18,2.79,1.18,5.63,3.47,7.24Z"/>
        <path class="cls-3" d="M98.2,86.85c-.18-2.79,1.18-5.63,3.47-7.24.18,2.79-1.18,5.63-3.47,7.24Z"/>
        <path class="cls-3" d="M108.8,86.85c.17-2.79-1.18-5.63-3.47-7.24-.18,2.79,1.18,5.63,3.47,7.24Z"/>
        <path class="cls-3" d="M98.2,94.85c-.18-2.79,1.18-5.63,3.47-7.24.18,2.79-1.18,5.63-3.47,7.24Z"/>
        <path class="cls-3" d="M108.8,94.85c.17-2.79-1.18-5.63-3.47-7.24-.18,2.79,1.18,5.63,3.47,7.24Z"/>
        <path class="cls-3" d="M98.2,102.85c-.18-2.79,1.18-5.63,3.47-7.24.18,2.79-1.18,5.63-3.47,7.24Z"/>
        <path class="cls-3" d="M108.8,102.85c.17-2.79-1.18-5.63-3.47-7.24-.18,2.79,1.18,5.63,3.47,7.24Z"/>
        <path class="cls-3" d="M69.2,182.85c-.18-2.79,1.18-5.63,3.47-7.24.18,2.79-1.18,5.63-3.47,7.24Z"/>
        <path class="cls-3" d="M79.8,182.85c.17-2.79-1.18-5.63-3.47-7.24-.18,2.79,1.18,5.63,3.47,7.24Z"/>
        <path class="cls-3" d="M98.2,166.85c-.18-2.79,1.18-5.63,3.47-7.24.18,2.79-1.18,5.63-3.47,7.24Z"/>
        <path class="cls-3" d="M108.8,166.85c.17-2.79-1.18-5.63-3.47-7.24-.18,2.79,1.18,5.63,3.47,7.24Z"/>
        <path class="cls-3" d="M98.2,158.85c-.18-2.79,1.18-5.63,3.47-7.24.18,2.79-1.18,5.63-3.47,7.24Z"/>
        <path class="cls-3" d="M108.8,158.85c.17-2.79-1.18-5.63-3.47-7.24-.18,2.79,1.18,5.63,3.47,7.24Z"/>
        <path class="cls-3" d="M98.2,150.85c-.18-2.79,1.18-5.63,3.47-7.24.18,2.79-1.18,5.63-3.47,7.24Z"/>
        <path class="cls-3" d="M108.8,150.85c.17-2.79-1.18-5.63-3.47-7.24-.18,2.79,1.18,5.63,3.47,7.24Z"/>
        <path class="cls-3" d="M98.2,142.85c-.18-2.79,1.18-5.63,3.47-7.24.18,2.79-1.18,5.63-3.47,7.24Z"/>
        <path class="cls-3" d="M108.8,142.85c.17-2.79-1.18-5.63-3.47-7.24-.18,2.79,1.18,5.63,3.47,7.24Z"/>
        <path class="cls-3" d="M98.2,134.85c-.18-2.79,1.18-5.63,3.47-7.24.18,2.79-1.18,5.63-3.47,7.24Z"/>
        <path class="cls-3" d="M108.8,134.85c.17-2.79-1.18-5.63-3.47-7.24-.18,2.79,1.18,5.63,3.47,7.24Z"/>
        <path class="cls-3" d="M98.2,126.85c-.18-2.79,1.18-5.63,3.47-7.24.18,2.79-1.18,5.63-3.47,7.24Z"/>
        <path class="cls-3" d="M108.8,126.85c.17-2.79-1.18-5.63-3.47-7.24-.18,2.79,1.18,5.63,3.47,7.24Z"/>
        <path class="cls-3" d="M98.2,118.85c-.18-2.79,1.18-5.63,3.47-7.24.18,2.79-1.18,5.63-3.47,7.24Z"/>
        <path class="cls-3" d="M108.8,118.85c.17-2.79-1.18-5.63-3.47-7.24-.18,2.79,1.18,5.63,3.47,7.24Z"/>
        <path class="cls-3" d="M69.2,127.35c-.18-2.79,1.18-5.63,3.47-7.24.18,2.79-1.18,5.63-3.47,7.24Z"/>
        <path class="cls-3" d="M79.8,127.35c.17-2.79-1.18-5.63-3.47-7.24-.18,2.79,1.18,5.63,3.47,7.24Z"/>
        <path class="cls-3" d="M69.2,71.35c-.18-2.79,1.18-5.63,3.47-7.24.18,2.79-1.18,5.63-3.47,7.24Z"/>
        <path class="cls-3" d="M79.8,71.35c.17-2.79-1.18-5.63-3.47-7.24-.18,2.79,1.18,5.63,3.47,7.24Z"/>
        <path class="cls-3" d="M69.2,63.35c-.18-2.79,1.18-5.63,3.47-7.24.18,2.79-1.18,5.63-3.47,7.24Z"/>
        <path class="cls-3" d="M79.8,63.35c.17-2.79-1.18-5.63-3.47-7.24-.18,2.79,1.18,5.63,3.47,7.24Z"/>
        <path class="cls-3" d="M11.2,79.35c-.18-2.79,1.18-5.63,3.47-7.24.18,2.79-1.18,5.63-3.47,7.24Z"/>
        <path class="cls-3" d="M21.8,79.35c.18-2.79-1.18-5.63-3.47-7.24-.18,2.79,1.18,5.63,3.47,7.24Z"/>
        <path class="cls-3" d="M11.2,87.35c-.18-2.79,1.18-5.63,3.47-7.24.18,2.79-1.18,5.63-3.47,7.24Z"/>
        <path class="cls-3" d="M21.8,87.35c.18-2.79-1.18-5.63-3.47-7.24-.18,2.79,1.18,5.63,3.47,7.24Z"/>
        <path class="cls-3" d="M11.2,119.35c-.18-2.79,1.18-5.63,3.47-7.24.18,2.79-1.18,5.63-3.47,7.24Z"/>
        <path class="cls-3" d="M21.8,119.35c.18-2.79-1.18-5.63-3.47-7.24-.18,2.79,1.18,5.63,3.47,7.24Z"/>
        <path class="cls-3" d="M11.2,127.35c-.18-2.79,1.18-5.63,3.47-7.24.18,2.79-1.18,5.63-3.47,7.24Z"/>
        <path class="cls-3" d="M21.8,127.35c.18-2.79-1.18-5.63-3.47-7.24-.18,2.79,1.18,5.63,3.47,7.24Z"/>
        <path class="cls-3" d="M11.2,71.35c-.18-2.79,1.18-5.63,3.47-7.24.18,2.79-1.18,5.63-3.47,7.24Z"/>
        <path class="cls-3" d="M21.8,71.35c.18-2.79-1.18-5.63-3.47-7.24-.18,2.79,1.18,5.63,3.47,7.24Z"/>
        <path class="cls-3" d="M11.2,174.85c-.18-2.79,1.18-5.63,3.47-7.24.18,2.79-1.18,5.63-3.47,7.24Z"/>
        <path class="cls-3" d="M21.8,174.85c.18-2.79-1.18-5.63-3.47-7.24-.18,2.79,1.18,5.63,3.47,7.24Z"/>
        <path class="cls-3" d="M11.2,166.85c-.18-2.79,1.18-5.63,3.47-7.24.18,2.79-1.18,5.63-3.47,7.24Z"/>
        <path class="cls-3" d="M21.8,166.85c.18-2.79-1.18-5.63-3.47-7.24-.18,2.79,1.18,5.63,3.47,7.24Z"/>
      </g>
    </pattern>
  </defs>
  <g id="_レイヤー_1-2" data-name="レイヤー 1">
    <path class="cls-5" d="M0,24.42c.96-.41.51-1.02.59-1.14.08-.12.27-.7.34-.82.1-.18.82-.23.9-.42.5-1.18-.97-1.95,1.86-2.55-.2-.29-.33-.72-.69-.96.72-.4.65-.75-.18-1-.25-2,1.18-1.69,2.6-2.92-.76-.42-1.31-1.02-.74-1.8.93-.12.58-.39.68-.97.01-.08-.28-1.3-.34-1.58-.29-1.41-.87-1.24-1.92-2.21-.21-.19-.49-1-.5-1.15,0-.1-.26-.44-.2-.71.05-.26.84-.31.88-.45.21-.84-.56-1.96-.79-2.79.12-.03.32,0,.46-.01C3.23,2.22,1.45.24.93,0h125.28v11.09c-1.4-.59-2.21.7-.59,1.15.07.61-.22,1.13-.87,1.4.45.73-.22.82-.41,1.38-.54,1.57-.57.81-2.79,1.72.42,1.25,1.92.73,3.33,1.11.08,1.15.33,1.9-1.08,2.36-1.13.37-3-.2-4.2,0-1.15.19-1.95.99-3.25.87-.93,1.19-2.04,2.15-3.17,3.34H0Z"/>
  </g>
</svg>