<?xml version="1.0" encoding="UTF-8"?>
<svg id="_レイヤー_2" data-name="レイヤー 2" xmlns="http://www.w3.org/2000/svg" xmlns:xlink="http://www.w3.org/1999/xlink" viewBox="0 0 117.76 24.14">
  <defs>
    <style>
      .cls-1 {
        fill: none;
      }

      .cls-2 {
        fill: url(#_キルト_2);
        opacity: .73;
      }

      .cls-3 {
        fill: #231815;
      }

      .cls-4 {
        fill: #c9caca;
      }

      .cls-5 {
        fill: #fff;
      }
    </style>
    <pattern id="_キルト_2" data-name="キルト 2" x="0" y="0" width="72" height="72" patternTransform="translate(-572.04 440.57)" patternUnits="userSpaceOnUse" viewBox="0 0 72 72">
      <g>
        <rect class="cls-1" width="72" height="72"/>
        <rect class="cls-5" width="72" height="72"/>
        <rect class="cls-1" x="7.63" y="64.38" width="16.34" height="7.62"/>
        <rect class="cls-1" y="48.03" width="7.63" height="16.35"/>
        <rect class="cls-1" x="31.62" y="64.38" width="16.34" height="7.62"/>
        <rect class="cls-1" x="24" y="48.03" width="7.63" height="16.35"/>
        <rect class="cls-1" x="55.62" y="64.38" width="16.34" height="7.62"/>
        <rect class="cls-1" x="48" y="48.03" width="7.63" height="16.35"/>
        <rect class="cls-1" x="7.63" y="40.38" width="16.34" height="7.62"/>
        <rect class="cls-1" y="24.03" width="7.63" height="16.35"/>
        <rect class="cls-1" x="31.62" y="40.38" width="16.34" height="7.62"/>
        <rect class="cls-1" x="24" y="24.03" width="7.63" height="16.35"/>
        <rect class="cls-1" x="55.62" y="40.38" width="16.34" height="7.62"/>
        <rect class="cls-1" x="48" y="24.03" width="7.63" height="16.35"/>
        <rect class="cls-1" x="7.63" y="16.38" width="16.34" height="7.62"/>
        <rect class="cls-1" y=".03" width="7.63" height="16.35"/>
        <rect class="cls-1" x="31.62" y="16.38" width="16.34" height="7.62"/>
        <rect class="cls-1" x="24" y=".03" width="7.63" height="16.35"/>
        <rect class="cls-1" x="55.62" y="16.38" width="16.34" height="7.62"/>
        <rect class="cls-1" x="48" y=".03" width="7.63" height="16.35"/>
        <rect class="cls-3" x="7.63" y=".03" width="16.34" height="16.35"/>
        <path class="cls-3" d="M15.8,8.2"/>
        <rect class="cls-3" x="31.62" y=".03" width="16.34" height="16.35"/>
        <path class="cls-3" d="M39.8,8.2"/>
        <rect class="cls-3" x="55.62" y=".03" width="16.34" height="16.35"/>
        <path class="cls-3" d="M63.8,8.2"/>
        <rect class="cls-3" x="7.63" y="24.03" width="16.34" height="16.35"/>
        <path class="cls-3" d="M15.8,32.2"/>
        <rect class="cls-3" x="31.62" y="24.03" width="16.34" height="16.35"/>
        <path class="cls-3" d="M39.8,32.2"/>
        <rect class="cls-3" x="55.62" y="24.03" width="16.34" height="16.35"/>
        <path class="cls-3" d="M63.8,32.2"/>
        <rect class="cls-3" x="7.63" y="48.03" width="16.34" height="16.35"/>
        <path class="cls-3" d="M15.8,56.2"/>
        <rect class="cls-3" x="31.62" y="48.03" width="16.34" height="16.35"/>
        <path class="cls-3" d="M39.8,56.2"/>
        <rect class="cls-3" x="55.62" y="48.03" width="16.34" height="16.35"/>
        <path class="cls-3" d="M63.8,56.2"/>
        <rect class="cls-3" y="64.38" width="7.63" height="7.62"/>
        <rect class="cls-3" x="24" y="64.38" width="7.63" height="7.62"/>
        <rect class="cls-3" x="48" y="64.38" width="7.63" height="7.62"/>
        <rect class="cls-3" y="40.38" width="7.63" height="7.62"/>
        <rect class="cls-3" x="24" y="40.38" width="7.63" height="7.62"/>
        <rect class="cls-3" x="48" y="40.38" width="7.63" height="7.62"/>
        <rect class="cls-3" y="16.38" width="7.63" height="7.62"/>
        <rect class="cls-3" x="24" y="16.38" width="7.63" height="7.62"/>
        <rect class="cls-3" x="48" y="16.38" width="7.63" height="7.62"/>
        <polygon class="cls-4" points="15.8 64.38 7.63 56.2 15.8 48.03 23.97 56.2 15.8 64.38"/>
        <polygon class="cls-4" points="39.8 64.38 31.62 56.2 39.8 48.03 47.97 56.2 39.8 64.38"/>
        <polygon class="cls-4" points="63.8 64.38 55.62 56.2 63.8 48.03 71.97 56.2 63.8 64.38"/>
        <polygon class="cls-4" points="15.8 40.38 7.63 32.2 15.8 24.03 23.97 32.2 15.8 40.38"/>
        <polygon class="cls-4" points="39.8 40.38 31.62 32.2 39.8 24.03 47.97 32.2 39.8 40.38"/>
        <polygon class="cls-4" points="63.8 40.38 55.62 32.2 63.8 24.03 71.97 32.2 63.8 40.38"/>
        <polygon class="cls-4" points="15.8 16.38 7.63 8.2 15.8 .03 23.97 8.2 15.8 16.38"/>
        <polygon class="cls-4" points="39.8 16.38 31.62 8.2 39.8 .03 47.97 8.2 39.8 16.38"/>
        <polygon class="cls-4" points="63.8 16.38 55.62 8.2 63.8 .03 71.97 8.2 63.8 16.38"/>
      </g>
    </pattern>
  </defs>
  <g id="_レイヤー_1-2" data-name="レイヤー 1">
    <path class="cls-2" d="M117.76,23.86c-1.16-1.2-.17-1.98-2.61-2.25.13-.03.31,0,.45-.02.23-1.21-.19-2.34-1.6-2.64.16-.08.37-.34.7-.45.03-.6-.52-1.04-1.19-1.27.26-.46.87-.75,1.42-.95-.44-.47-.91-.89-1.61-1.01.12-.18.37-.63.55-.8,1.36-.43.25-1.35-.18-1.83.11,0,.21.02.3.06.3-1.37-1.02-2.5-.48-3.7.04-.03.32-.15.36-.17-1.53-1.22-2.94-3.57-3.07-5.31-.46-.06-.53-.3-1.01-.33.18-.98-1-1.35-.94-2.34-.17-.03-.32,0-.48-.05-.11-.28-.32-.54-.38-.82L0,.28c.1.51.61.87,1.22,1.16-.9,1.02.26,1.78.74,2.62.77,1.33.37,2.01.16,3.24-.07.41.43.46.15,1.11-.2.47-1.2.95-1.35,1.29-.38.9.46,3.01,1.14,3.6-1.22.4-.26,4.26-.28,5.21-.02.73-.5,1.36-.33,1.99.08.28,1.02-.04,1.06.4.03.26-.38.51-.38.56,0,.59-.55,1.8-1.39,2.14.04.04.14.15.12.21-.11.08-.28.21-.33.32l117.23-.28Z"/>
  </g>
</svg>