<?xml version="1.0" encoding="UTF-8"?>
<svg id="_レイヤー_2" data-name="レイヤー 2" xmlns="http://www.w3.org/2000/svg" xmlns:xlink="http://www.w3.org/1999/xlink" viewBox="0 0 127.69 24.84">
  <defs>
    <style>
      .cls-1, .cls-2, .cls-3, .cls-4, .cls-5, .cls-6, .cls-7 {
        fill: none;
      }

      .cls-8 {
        fill: #fffef7;
      }

      .cls-9 {
        fill: #bb3468;
      }

      .cls-10 {
        fill: #ecbc1a;
      }

      .cls-2 {
        stroke: #fff;
      }

      .cls-2, .cls-7 {
        stroke-linecap: round;
        stroke-linejoin: round;
        stroke-width: 1.9px;
      }

      .cls-11 {
        fill: #e1ccd8;
      }

      .cls-12 {
        fill: #985698;
      }

      .cls-13 {
        fill: #231815;
      }

      .cls-3 {
        stroke: #702281;
      }

      .cls-3, .cls-4, .cls-5, .cls-6 {
        stroke-width: .4px;
      }

      .cls-14 {
        fill: #d45c84;
      }

      .cls-4 {
        stroke: #e496b9;
      }

      .cls-5 {
        stroke: #bd717a;
      }

      .cls-15 {
        fill: #712080;
      }

      .cls-16 {
        fill: #821a2d;
      }

      .cls-17 {
        fill: #a4263c;
      }

      .cls-6 {
        stroke: #f9eccf;
      }

      .cls-7 {
        stroke: #118a3c;
      }

      .cls-18 {
        fill: url(#_パンジー_カラー_);
        opacity: .83;
      }
    </style>
    <pattern id="_パンジー_カラー_" data-name="パンジー (カラー)" x="0" y="0" width="54.34" height="77.62" patternTransform="translate(-704.42 382.53)" patternUnits="userSpaceOnUse" viewBox="0 0 54.34 77.62">
      <g>
        <rect class="cls-1" x="0" width="54.34" height="77.62"/>
        <rect class="cls-10" x="0" width="54.34" height="77.62"/>
        <line class="cls-2" x1="1.99" y1="30.81" x2="1.99" y2="30.81"/>
        <line class="cls-2" x1="27.49" y1="34.19" x2="27.49" y2="34.19"/>
        <line class="cls-2" x1="26" y1="64.92" x2="26" y2="64.92"/>
        <line class="cls-2" x1="7.61" y1="51.62" x2="7.61" y2="51.62"/>
        <line class="cls-2" x1="51.96" y1="29.31" x2="51.96" y2="29.31"/>
        <line class="cls-2" x1="52.99" y1="61.94" x2="52.99" y2="61.94"/>
        <line class="cls-2" x1="7.71" y1="29.87" x2="7.71" y2="29.87"/>
        <line class="cls-2" x1="25.99" y1="23.12" x2="25.99" y2="23.12"/>
        <line class="cls-2" x1="5.92" y1="62.69" x2="5.92" y2="62.69"/>
        <line class="cls-2" x1="14.55" y1="30.62" x2="14.55" y2="30.62"/>
        <line class="cls-2" x1="31.99" y1="9.81" x2="31.99" y2="9.81"/>
        <line class="cls-2" x1="22.05" y1="33.06" x2="22.05" y2="33.06"/>
        <line class="cls-2" x1="30.86" y1="55.37" x2="30.86" y2="55.37"/>
        <line class="cls-2" x1="12.86" y1="32.5" x2="12.86" y2="32.5"/>
        <line class="cls-2" x1="24.02" y1="30.16" x2="24.02" y2="30.16"/>
        <line class="cls-2" x1="25.52" y1="25.56" x2="25.52" y2="25.56"/>
        <line class="cls-2" x1="14.36" y1="25.84" x2="14.36" y2="25.84"/>
        <line class="cls-2" x1="11.92" y1="25.47" x2="11.92" y2="25.47"/>
        <line class="cls-2" x1="20.74" y1="23.31" x2="20.74" y2="23.31"/>
        <line class="cls-2" x1="16.05" y1="28.66" x2="16.05" y2="28.66"/>
        <line class="cls-2" x1="12.77" y1="13.28" x2="12.77" y2="13.28"/>
        <line class="cls-2" x1="10.61" y1="12.34" x2="10.61" y2="12.34"/>
        <line class="cls-2" x1="24.58" y1="20.87" x2="24.58" y2="20.87"/>
        <line class="cls-2" x1="22.05" y1="13.94" x2="22.05" y2="13.94"/>
        <line class="cls-2" x1="40.24" y1="24.44" x2="40.24" y2="24.44"/>
        <line class="cls-2" x1="32.36" y1="33.06" x2="32.36" y2="33.06"/>
        <line class="cls-2" x1="29.92" y1="32.5" x2="29.92" y2="32.5"/>
        <line class="cls-2" x1="33.49" y1="26.69" x2="33.49" y2="26.69"/>
        <line class="cls-2" x1="45.96" y1="31.37" x2="45.96" y2="31.37"/>
        <line class="cls-2" x1="54.49" y1="36.25" x2="54.49" y2="36.25"/>
        <line class="cls-2" x1="21.28" y1="69.78" x2="21.28" y2="69.78"/>
        <line class="cls-2" x1="35.55" y1="62.5" x2="35.55" y2="62.5"/>
        <line class="cls-2" x1="15.3" y1="62.69" x2="15.3" y2="62.69"/>
        <line class="cls-2" x1="14.46" y1="50.5" x2="14.46" y2="50.5"/>
        <line class="cls-2" x1="19.42" y1="62.69" x2="19.42" y2="62.69"/>
        <line class="cls-2" x1="10.99" y1="61.56" x2="10.99" y2="61.56"/>
        <line class="cls-2" x1="4.24" y1="57.81" x2="4.24" y2="57.81"/>
        <line class="cls-2" x1="9.39" y1="60.06" x2="9.39" y2="60.06"/>
        <line class="cls-2" x1="6.27" y1="5.89" x2="6.27" y2="5.89"/>
        <line class="cls-2" x1="18.11" y1="37.56" x2="18.11" y2="37.56"/>
        <line class="cls-2" x1="19.42" y1="39.81" x2="19.42" y2="39.81"/>
        <line class="cls-2" x1="26.36" y1="56.31" x2="26.36" y2="56.31"/>
        <line class="cls-2" x1="12.67" y1="41.5" x2="12.67" y2="41.5"/>
        <line class="cls-2" x1="9.3" y1="64.75" x2="9.3" y2="64.75"/>
        <line class="cls-2" x1="11.17" y1="45.06" x2="11.17" y2="45.06"/>
        <line class="cls-2" x1="1.24" y1="57.06" x2="1.24" y2="57.06"/>
        <line class="cls-2" x1="11.74" y1="48.62" x2="11.74" y2="48.62"/>
        <line class="cls-2" x1="25.99" y1="59.5" x2="25.99" y2="59.5"/>
        <line class="cls-2" x1="33.3" y1="50.5" x2="33.3" y2="50.5"/>
        <line class="cls-2" x1="21.3" y1="66.25" x2="21.3" y2="66.25"/>
        <line class="cls-2" x1="22.8" y1="55.19" x2="22.8" y2="55.19"/>
        <line class="cls-2" x1="29.92" y1="53.69" x2="29.92" y2="53.69"/>
        <line class="cls-2" x1="29.55" y1="66.62" x2="29.55" y2="66.62"/>
        <line class="cls-2" x1="49.61" y1="15.06" x2="49.61" y2="15.06"/>
        <line class="cls-2" x1="27.11" y1="53.31" x2="27.11" y2="53.31"/>
        <line class="cls-2" x1="51.3" y1="55.37" x2="51.3" y2="55.37"/>
        <line class="cls-2" x1="37.71" y1="32.31" x2="37.71" y2="32.31"/>
        <line class="cls-2" x1="34.24" y1="30.06" x2="34.24" y2="30.06"/>
        <line class="cls-2" x1="52.24" y1="34.19" x2="52.24" y2="34.19"/>
        <line class="cls-2" x1="41.74" y1="62.12" x2="41.74" y2="62.12"/>
        <line class="cls-2" x1="42.58" y1="31.75" x2="42.58" y2="31.75"/>
        <line class="cls-2" x1="53.92" y1="51.25" x2="53.92" y2="51.25"/>
        <line class="cls-2" x1="44.46" y1="22.37" x2="44.46" y2="22.37"/>
        <line class="cls-2" x1="43.61" y1="18.62" x2="43.61" y2="18.62"/>
        <line class="cls-2" x1="32.83" y1="16" x2="32.83" y2="16"/>
        <line class="cls-2" x1="35.74" y1="21.06" x2="35.74" y2="21.06"/>
        <line class="cls-2" x1="19.14" y1="12.06" x2="19.14" y2="12.06"/>
        <line class="cls-2" x1="40.14" y1="19" x2="40.14" y2="19"/>
        <line class="cls-2" x1="40.24" y1="13.56" x2="40.24" y2="13.56"/>
        <line class="cls-2" x1="11.17" y1="14.87" x2="11.17" y2="14.87"/>
        <line class="cls-2" x1="10.61" y1="20.69" x2="10.61" y2="20.69"/>
        <line class="cls-2" x1="5.27" y1="9.44" x2="5.27" y2="9.44"/>
        <line class="cls-2" x1="20.83" y1="25.75" x2="20.83" y2="25.75"/>
        <line class="cls-2" x1="51.02" y1="66.62" x2="51.02" y2="66.62"/>
        <line class="cls-2" x1="52.42" y1="58.75" x2="52.42" y2="58.75"/>
        <line class="cls-2" x1="48.64" y1="21.44" x2="48.64" y2="21.44"/>
        <line class="cls-2" x1="36.3" y1="51.44" x2="36.3" y2="51.44"/>
        <line class="cls-2" x1="45.39" y1="64.37" x2="45.39" y2="64.37"/>
        <line class="cls-2" x1="34.99" y1="66.81" x2="34.99" y2="66.81"/>
        <line class="cls-2" x1="39.3" y1="49.19" x2="39.3" y2="49.19"/>
        <line class="cls-2" x1="38.08" y1="44.69" x2="38.08" y2="44.69"/>
        <line class="cls-2" x1="15.96" y1="13.94" x2="15.96" y2="13.94"/>
        <line class="cls-2" x1="38.74" y1="64.56" x2="38.74" y2="64.56"/>
        <line class="cls-2" x1="17.27" y1="69.44" x2="17.27" y2="69.44"/>
        <line class="cls-2" x1="26.92" y1="49.75" x2="26.92" y2="49.75"/>
        <line class="cls-2" x1="32.08" y1="60.25" x2="32.08" y2="60.25"/>
        <line class="cls-2" x1="30.21" y1="57.81" x2="30.21" y2="57.81"/>
        <line class="cls-2" x1="46.33" y1="68.69" x2="46.33" y2="68.69"/>
        <line class="cls-2" x1="37.42" y1="22.75" x2="37.42" y2="22.75"/>
        <line class="cls-2" x1="49.99" y1="24.25" x2="49.99" y2="24.25"/>
        <line class="cls-2" x1="1.99" y1="27.81" x2="1.99" y2="27.81"/>
        <line class="cls-2" x1="28.99" y1="62.87" x2="28.99" y2="62.87"/>
        <line class="cls-2" x1="6.86" y1="24.25" x2="6.86" y2="24.25"/>
        <line class="cls-2" x1="43.24" y1="26.31" x2="43.24" y2="26.31"/>
        <line class="cls-2" x1="14.36" y1="16.94" x2="14.36" y2="16.94"/>
        <line class="cls-2" x1="39.49" y1="29.69" x2="39.49" y2="29.69"/>
        <line class="cls-2" x1="34.61" y1="70" x2="34.61" y2="70"/>
        <line class="cls-2" x1="25.99" y1="68.69" x2="25.99" y2="68.69"/>
        <line class="cls-2" x1="23.55" y1="58.56" x2="23.55" y2="58.56"/>
        <line class="cls-2" x1="20.64" y1="31.56" x2="20.64" y2="31.56"/>
        <line class="cls-2" x1="19.71" y1="28.94" x2="19.71" y2="28.94"/>
        <line class="cls-2" x1="1.99" y1="70.94" x2="1.99" y2="70.94"/>
        <line class="cls-2" x1="31.42" y1="69.62" x2="31.42" y2="69.62"/>
        <line class="cls-2" x1="26.74" y1="72.06" x2="26.74" y2="72.06"/>
        <line class="cls-2" x1="23.17" y1="63.06" x2="23.17" y2="63.06"/>
        <line class="cls-2" x1="8.55" y1="17.87" x2="8.55" y2="17.87"/>
        <line class="cls-2" x1="16.24" y1="22" x2="16.24" y2="22"/>
        <line class="cls-2" x1="2.36" y1="8.31" x2="2.36" y2="8.31"/>
        <line class="cls-2" x1="13.61" y1="19.94" x2="13.61" y2="19.94"/>
        <line class="cls-2" x1="17.17" y1="18.25" x2="17.17" y2="18.25"/>
        <line class="cls-2" x1="11.36" y1="1.94" x2="11.36" y2="1.94"/>
        <line class="cls-2" x1="46.8" y1="27.25" x2="46.8" y2="27.25"/>
        <line class="cls-2" x1="37.61" y1="14.69" x2="37.61" y2="14.69"/>
        <line class="cls-2" x1="43.61" y1="14.69" x2="43.61" y2="14.69"/>
        <line class="cls-2" x1="53.55" y1="22.19" x2="53.55" y2="22.19"/>
        <line class="cls-2" x1="50.36" y1="31.37" x2="50.36" y2="31.37"/>
        <line class="cls-2" x1="50.36" y1="63.81" x2="50.36" y2="63.81"/>
        <line class="cls-2" x1="49.61" y1="60.06" x2="49.61" y2="60.06"/>
        <line class="cls-2" x1="49.61" y1="71.69" x2="49.61" y2="71.69"/>
        <line class="cls-2" x1="52.61" y1="74.31" x2="52.61" y2="74.31"/>
        <line class="cls-2" x1="38.36" y1="75.81" x2="38.36" y2="75.81"/>
        <line class="cls-2" x1="1.61" y1="34.19" x2="1.61" y2="34.19"/>
        <line class="cls-2" x1=".67" y1="64.75" x2=".67" y2="64.75"/>
        <line class="cls-2" x1="10.8" y1="71.87" x2="10.8" y2="71.87"/>
        <line class="cls-2" x1="4.24" y1="67.37" x2="4.24" y2="67.37"/>
        <line class="cls-2" x1="8.74" y1="68.31" x2="8.74" y2="68.31"/>
        <line class="cls-2" x1="15.11" y1="74.69" x2="15.11" y2="74.69"/>
        <line class="cls-2" x1="37.05" y1="28.37" x2="37.05" y2="28.37"/>
        <line class="cls-2" x1="29.55" y1="23.31" x2="29.55" y2="23.31"/>
        <line class="cls-2" x1="34.61" y1="18.81" x2="34.61" y2="18.81"/>
        <line class="cls-2" x1="1.52" y1="23.12" x2="1.52" y2="23.12"/>
        <line class="cls-2" x1="37.42" y1="72.25" x2="37.42" y2="72.25"/>
        <line class="cls-2" x1="29.55" y1="18.44" x2="29.55" y2="18.44"/>
        <line class="cls-2" x1="29.55" y1="27.44" x2="29.55" y2="27.44"/>
        <line class="cls-2" x1="2.55" y1="52.94" x2="2.55" y2="52.94"/>
        <line class="cls-2" x1="43.05" y1="70.19" x2="43.05" y2="70.19"/>
        <line class="cls-2" x1="37.99" y1="68.12" x2="37.99" y2="68.12"/>
        <line class="cls-2" x1="11.17" y1="66.81" x2="11.17" y2="66.81"/>
        <line class="cls-2" x1="2.55" y1="61.19" x2="2.55" y2="61.19"/>
        <line class="cls-2" x1="5.36" y1="70.75" x2="5.36" y2="70.75"/>
        <line class="cls-2" x1="1.8" y1="68.69" x2="1.8" y2="68.69"/>
        <line class="cls-2" x1="17.36" y1="65.31" x2="17.36" y2="65.31"/>
        <line class="cls-2" x1="14.17" y1="67" x2="14.17" y2="67"/>
        <line class="cls-2" x1="18.3" y1="72.81" x2="18.3" y2="72.81"/>
        <line class="cls-7" x1="-.08" y1="18.68" x2="-.08" y2="44.02"/>
        <line class="cls-7" x1="27.09" y1="18.68" x2="27.09" y2="44.02"/>
        <line class="cls-7" x1="13.29" y1="57.49" x2="13.29" y2="78.88"/>
        <line class="cls-7" x1="40.46" y1="57.49" x2="40.46" y2="78.88"/>
        <line class="cls-7" x1="13.29" y1="-.88" x2="13.29" y2="5.2"/>
        <line class="cls-7" x1="40.46" y1="-.88" x2="40.46" y2="5.2"/>
        <path class="cls-14" d="M-.52,12.8L12.15,3.26c1.94-2.8-1.51-2.16-.86-3.45.65-1.3-.22-2.8-1.72-2.8-2.62,0-.45-3.09-4.74-1.94-1.97.53-1.71-3.31-5.39-.65-1.94,1.4-3.07,12.99.05,18.38Z"/>
        <path class="cls-4" d="M-.52,12.8L12.15,3.26c1.94-2.8-1.51-2.16-.86-3.45.65-1.3-.22-2.8-1.72-2.8-2.62,0-.45-3.09-4.74-1.94-1.97.53-1.71-3.31-5.39-.65-1.94,1.4-3.07,12.99.05,18.38Z"/>
        <path class="cls-8" d="M26.65,12.8l12.67-9.54c1.94-2.8-1.51-2.16-.86-3.45.65-1.3-.22-2.8-1.72-2.8-2.62,0-.46-3.09-4.74-1.94-1.97.53-1.71-3.31-5.39-.65-1.94,1.4-3.07,12.99.05,18.38Z"/>
        <path class="cls-6" d="M26.65,12.8l12.67-9.54c1.94-2.8-1.51-2.16-.86-3.45.65-1.3-.22-2.8-1.72-2.8-2.62,0-.46-3.09-4.74-1.94-1.97.53-1.71-3.31-5.39-.65-1.94,1.4-3.07,12.99.05,18.38Z"/>
        <path class="cls-14" d="M-.27,12.26C1.46,11.19,7.41,6.07,6.33-.19c-.18-1.04-1.67-.02-1.83-2.37-.15-2.19-3.12-1.17-3.77-2.16-.86-1.29-3.23-2.59-4.53-.65-1.13,1.69-3.49-1.44-4.96,2.16-.6,1.46-2.16-.07-2.48,2.59-.16,1.28-1.51,1.08-.97,3.13L-.27,12.26Z"/>
        <path class="cls-4" d="M-.27,12.26C1.46,11.19,7.41,6.07,6.33-.19c-.18-1.04-1.67-.02-1.83-2.37-.15-2.19-3.12-1.17-3.77-2.16-.86-1.29-3.23-2.59-4.53-.65-1.13,1.69-3.49-1.44-4.96,2.16-.6,1.46-2.16-.07-2.48,2.59-.16,1.28-1.51,1.08-.97,3.13L-.27,12.26Z"/>
        <path class="cls-14" d="M-3.27-1.16C-1.32-2.7-.37-1.02-.79,1.65c-.22,1.41-.65,3.77.86,6.36-1.95.11-1.87,2.08-.73,3.13-1.29.65-3.8,1.83-8.33,1.51-4.53-.32-4.11-5.36-4.1-7.01.02-1.8.65-1.36.75-2.59.28-3.13.91-1.53,1.94-2.91,1.62-2.16,2.14.36,3.66-1.08,1.84-1.73,1.85,1.05,3.45-.22Z"/>
        <path class="cls-4" d="M-3.27-1.16C-1.32-2.7-.37-1.02-.79,1.65c-.22,1.41-.65,3.77.86,6.36-1.95.11-1.87,2.08-.73,3.13-1.29.65-3.8,1.83-8.33,1.51-4.53-.32-4.11-5.36-4.1-7.01.02-1.8.65-1.36.75-2.59.28-3.13.91-1.53,1.94-2.91,1.62-2.16,2.14.36,3.66-1.08,1.84-1.73,1.85,1.05,3.45-.22Z"/>
        <path class="cls-14" d="M11.07,1.86c.07,1.71,2.27.65,1.83,3.02-.37,2.03,1.47,6.74-4.2,8.62-2.59.86-7.33-2.37-7.66-2.8,1.62-.59,1.17-2.95,0-2.7.21-1.72,1.27-5.21.86-6.79C1.26-1.26,3.89-2,4.93-.83c.86.97,2.41-1.27,3.23,1.19.43,1.29,2.84-.23,2.91,1.51Z"/>
        <path class="cls-4" d="M11.07,1.86c.07,1.71,2.27.65,1.83,3.02-.37,2.03,1.47,6.74-4.2,8.62-2.59.86-7.33-2.37-7.66-2.8,1.62-.59,1.17-2.95,0-2.7.21-1.72,1.27-5.21.86-6.79C1.26-1.26,3.89-2,4.93-.83c.86.97,2.41-1.27,3.23,1.19.43,1.29,2.84-.23,2.91,1.51Z"/>
        <path class="cls-10" d="M2.1,9.03c0,1.02-.83,1.84-1.84,1.84s-1.84-.83-1.84-1.84.83-1.84,1.84-1.84,1.84.83,1.84,1.84Z"/>
        <circle class="cls-13" cx=".26" cy="9.03" r=".78"/>
        <path class="cls-14" d="M.26,9.03c-.5,1.57-4.06,2.67-6.12,1.99-4.89-1.61-3.79,14.04,4.2,9.6,1.6-.89,2.1-.67,2.91-.22,7.87,4.42,9.18-10.95,5.07-9.81-4.69,1.3-4.99.06-6.07-1.56Z"/>
        <path class="cls-9" d="M.26,10.61c-.78,1.72-3.79,2.72-6.25,2.39-3.86-.51,2.4.73-.06,3.65-2.7,3.2,4.37-2.84,3.4,2.03-1,5.04,2.12-5.21,4.76.3,2.17,4.54-1.58-4.71,3.56-2.65,4.67,1.87-2.14-1.28.18-2.79,4.21-2.74-4.09,1.37-5.59-2.92Z"/>
        <path class="cls-4" d="M.26,9.03c-.5,1.57-4.06,2.67-6.12,1.99-4.89-1.61-3.79,14.04,4.2,9.6,1.6-.89,2.1-.67,2.91-.22,7.87,4.42,9.18-10.95,5.07-9.81-4.69,1.3-4.99.06-6.07-1.56Z"/>
        <path class="cls-8" d="M26.9,12.26c1.72-1.08,7.68-6.2,6.6-12.45-.18-1.04-1.67-.02-1.83-2.37-.15-2.19-3.12-1.17-3.77-2.16-.86-1.29-3.23-2.59-4.53-.65-1.13,1.69-3.49-1.44-4.96,2.16-.6,1.46-2.16-.07-2.48,2.59-.16,1.28-1.51,1.08-.97,3.13l11.95,9.76Z"/>
        <path class="cls-6" d="M26.9,12.26c1.72-1.08,7.68-6.2,6.6-12.45-.18-1.04-1.67-.02-1.83-2.37-.15-2.19-3.12-1.17-3.77-2.16-.86-1.29-3.23-2.59-4.53-.65-1.13,1.69-3.49-1.44-4.96,2.16-.6,1.46-2.16-.07-2.48,2.59-.16,1.28-1.51,1.08-.97,3.13l11.95,9.76Z"/>
        <path class="cls-8" d="M23.9-1.16c1.95-1.54,2.89.14,2.48,2.8-.22,1.41-.65,3.77.86,6.36-1.95.11-1.87,2.08-.73,3.13-1.29.65-3.8,1.83-8.33,1.51-4.53-.32-4.11-5.36-4.1-7.01.02-1.8.65-1.36.75-2.59.28-3.13.91-1.53,1.94-2.91,1.62-2.16,2.14.36,3.67-1.08,1.84-1.73,1.85,1.05,3.45-.22Z"/>
        <path class="cls-6" d="M23.9-1.16c1.95-1.54,2.89.14,2.48,2.8-.22,1.41-.65,3.77.86,6.36-1.95.11-1.87,2.08-.73,3.13-1.29.65-3.8,1.83-8.33,1.51-4.53-.32-4.11-5.36-4.1-7.01.02-1.8.65-1.36.75-2.59.28-3.13.91-1.53,1.94-2.91,1.62-2.16,2.14.36,3.67-1.08,1.84-1.73,1.85,1.05,3.45-.22Z"/>
        <path class="cls-8" d="M38.24,1.86c.07,1.71,2.27.65,1.83,3.02-.37,2.03,1.47,6.74-4.21,8.62-2.59.86-7.33-2.37-7.66-2.8,1.62-.59,1.18-2.95,0-2.7.22-1.72,1.28-5.21.86-6.79-.65-2.48,1.99-3.21,3.02-2.05.86.97,2.41-1.27,3.24,1.19.43,1.29,2.84-.23,2.91,1.51Z"/>
        <path class="cls-6" d="M38.24,1.86c.07,1.71,2.27.65,1.83,3.02-.37,2.03,1.47,6.74-4.21,8.62-2.59.86-7.33-2.37-7.66-2.8,1.62-.59,1.18-2.95,0-2.7.22-1.72,1.28-5.21.86-6.79-.65-2.48,1.99-3.21,3.02-2.05.86.97,2.41-1.27,3.24,1.19.43,1.29,2.84-.23,2.91,1.51Z"/>
        <path class="cls-10" d="M29.49,9.06c0,1.02-.83,1.84-1.84,1.84s-1.84-.83-1.84-1.84.83-1.84,1.84-1.84,1.84.83,1.84,1.84Z"/>
        <path class="cls-13" d="M28.43,9.06c0,.43-.35.78-.78.78s-.78-.35-.78-.78.35-.78.78-.78.78.35.78.78Z"/>
        <path class="cls-8" d="M27.43,9.03c-.51,1.57-4.06,2.67-6.12,1.99-4.89-1.61-3.79,14.04,4.21,9.6,1.6-.89,2.1-.67,2.91-.22,7.87,4.42,9.17-10.95,5.07-9.81-4.69,1.3-4.99.06-6.06-1.56Z"/>
        <path class="cls-6" d="M27.43,9.03c-.51,1.57-4.06,2.67-6.12,1.99-4.89-1.61-3.79,14.04,4.21,9.6,1.6-.89,2.1-.67,2.91-.22,7.87,4.42,9.17-10.95,5.07-9.81-4.69,1.3-4.99.06-6.06-1.56Z"/>
        <path class="cls-12" d="M12.85,51.62l12.67-9.54c1.94-2.8-1.51-2.16-.86-3.45.65-1.29-.22-2.8-1.72-2.8-2.62,0-.46-3.09-4.74-1.94-1.97.53-1.71-3.31-5.39-.65-1.94,1.4-3.07,12.99.05,18.38Z"/>
        <path class="cls-3" d="M12.85,51.62l12.67-9.54c1.94-2.8-1.51-2.16-.86-3.45.65-1.29-.22-2.8-1.72-2.8-2.62,0-.46-3.09-4.74-1.94-1.97.53-1.71-3.31-5.39-.65-1.94,1.4-3.07,12.99.05,18.38Z"/>
        <path class="cls-17" d="M40.02,51.62l12.67-9.54c1.94-2.8-1.51-2.16-.86-3.45.65-1.29-.21-2.8-1.72-2.8-2.62,0-.46-3.09-4.74-1.94-1.97.53-1.71-3.31-5.39-.65-1.94,1.4-3.07,12.99.05,18.38Z"/>
        <path class="cls-5" d="M40.02,51.62l12.67-9.54c1.94-2.8-1.51-2.16-.86-3.45.65-1.29-.21-2.8-1.72-2.8-2.62,0-.46-3.09-4.74-1.94-1.97.53-1.71-3.31-5.39-.65-1.94,1.4-3.07,12.99.05,18.38Z"/>
        <path class="cls-12" d="M13.1,51.08c1.72-1.08,7.68-6.2,6.6-12.45-.18-1.04-1.67-.02-1.83-2.37-.15-2.19-3.12-1.17-3.77-2.16-.86-1.29-3.23-2.59-4.53-.65-1.13,1.69-3.49-1.44-4.96,2.16-.6,1.46-2.16-.07-2.48,2.59-.16,1.28-1.51,1.08-.97,3.13l11.95,9.76Z"/>
        <path class="cls-3" d="M13.1,51.08c1.72-1.08,7.68-6.2,6.6-12.45-.18-1.04-1.67-.02-1.83-2.37-.15-2.19-3.12-1.17-3.77-2.16-.86-1.29-3.23-2.59-4.53-.65-1.13,1.69-3.49-1.44-4.96,2.16-.6,1.46-2.16-.07-2.48,2.59-.16,1.28-1.51,1.08-.97,3.13l11.95,9.76Z"/>
        <path class="cls-17" d="M40.27,51.08c1.72-1.08,7.68-6.2,6.6-12.45-.18-1.04-1.67-.02-1.83-2.37-.15-2.19-3.12-1.17-3.77-2.16-.86-1.29-3.23-2.59-4.53-.65-1.13,1.69-3.49-1.44-4.96,2.16-.6,1.46-2.16-.07-2.48,2.59-.16,1.28-1.51,1.08-.97,3.13l11.95,9.76Z"/>
        <path class="cls-5" d="M40.27,51.08c1.72-1.08,7.68-6.2,6.6-12.45-.18-1.04-1.67-.02-1.83-2.37-.15-2.19-3.12-1.17-3.77-2.16-.86-1.29-3.23-2.59-4.53-.65-1.13,1.69-3.49-1.44-4.96,2.16-.6,1.46-2.16-.07-2.48,2.59-.16,1.28-1.51,1.08-.97,3.13l11.95,9.76Z"/>
        <path class="cls-12" d="M10.32,37.66c1.95-1.54,2.89.14,2.48,2.8-.22,1.41-.65,3.77.86,6.36-1.95.11-1.87,2.08-.73,3.13-1.3.65-3.8,1.83-8.33,1.51-4.53-.32-4.11-5.36-4.1-7.01.02-1.8.65-1.36.75-2.59.28-3.13.91-1.53,1.94-2.91,1.62-2.16,2.14.36,3.67-1.08,1.84-1.73,1.85,1.05,3.45-.22Z"/>
        <path class="cls-3" d="M10.32,37.66c1.95-1.54,2.89.14,2.48,2.8-.22,1.41-.65,3.77.86,6.36-1.95.11-1.87,2.08-.73,3.13-1.3.65-3.8,1.83-8.33,1.51-4.53-.32-4.11-5.36-4.1-7.01.02-1.8.65-1.36.75-2.59.28-3.13.91-1.53,1.94-2.91,1.62-2.16,2.14.36,3.67-1.08,1.84-1.73,1.85,1.05,3.45-.22Z"/>
        <path class="cls-12" d="M24.66,40.67c.07,1.71,2.27.65,1.83,3.02-.37,2.03,1.47,6.73-4.2,8.62-2.59.86-7.33-2.37-7.66-2.8,1.62-.59,1.17-2.95,0-2.7.21-1.73,1.28-5.21.86-6.79-.65-2.48,1.99-3.21,3.02-2.05.86.97,2.41-1.27,3.23,1.19.43,1.29,2.84-.23,2.91,1.51Z"/>
        <path class="cls-3" d="M24.66,40.67c.07,1.71,2.27.65,1.83,3.02-.37,2.03,1.47,6.73-4.2,8.62-2.59.86-7.33-2.37-7.66-2.8,1.62-.59,1.17-2.95,0-2.7.21-1.73,1.28-5.21.86-6.79-.65-2.48,1.99-3.21,3.02-2.05.86.97,2.41-1.27,3.23,1.19.43,1.29,2.84-.23,2.91,1.51Z"/>
        <circle class="cls-10" cx="13.78" cy="47.64" r="1.84"/>
        <circle class="cls-13" cx="13.78" cy="47.64" r=".78"/>
        <path class="cls-12" d="M13.85,47.84c-.51,1.57-4.06,2.67-6.12,1.99-4.89-1.61-3.79,14.04,4.21,9.59,1.6-.89,2.1-.67,2.91-.22,7.87,4.42,9.18-10.95,5.07-9.81-4.69,1.3-4.99.05-6.06-1.56Z"/>
        <path class="cls-3" d="M13.85,47.84c-.51,1.57-4.06,2.67-6.12,1.99-4.89-1.61-3.79,14.04,4.21,9.59,1.6-.89,2.1-.67,2.91-.22,7.87,4.42,9.18-10.95,5.07-9.81-4.69,1.3-4.99.05-6.06-1.56Z"/>
        <path class="cls-17" d="M37.49,37.66c1.95-1.54,2.89.14,2.48,2.8-.22,1.41-.65,3.77.86,6.36-1.95.11-1.87,2.08-.73,3.13-1.29.65-3.8,1.83-8.33,1.51-4.53-.32-4.11-5.36-4.1-7.01.02-1.8.65-1.36.75-2.59.28-3.13.91-1.53,1.94-2.91,1.62-2.16,2.14.36,3.67-1.08,1.84-1.73,1.85,1.05,3.45-.22Z"/>
        <path class="cls-5" d="M37.49,37.66c1.95-1.54,2.89.14,2.48,2.8-.22,1.41-.65,3.77.86,6.36-1.95.11-1.87,2.08-.73,3.13-1.29.65-3.8,1.83-8.33,1.51-4.53-.32-4.11-5.36-4.1-7.01.02-1.8.65-1.36.75-2.59.28-3.13.91-1.53,1.94-2.91,1.62-2.16,2.14.36,3.67-1.08,1.84-1.73,1.85,1.05,3.45-.22Z"/>
        <path class="cls-17" d="M51.82,40.67c.07,1.71,2.27.65,1.83,3.02-.37,2.03,1.47,6.73-4.2,8.62-2.59.86-7.33-2.37-7.65-2.8,1.62-.59,1.18-2.95,0-2.7.22-1.73,1.27-5.21.86-6.79-.65-2.48,1.99-3.21,3.02-2.05.86.97,2.42-1.27,3.23,1.19.43,1.29,2.84-.23,2.91,1.51Z"/>
        <path class="cls-5" d="M51.82,40.67c.07,1.71,2.27.65,1.83,3.02-.37,2.03,1.47,6.73-4.2,8.62-2.59.86-7.33-2.37-7.65-2.8,1.62-.59,1.18-2.95,0-2.7.22-1.73,1.27-5.21.86-6.79-.65-2.48,1.99-3.21,3.02-2.05.86.97,2.42-1.27,3.23,1.19.43,1.29,2.84-.23,2.91,1.51Z"/>
        <path class="cls-10" d="M42.81,47.64c0,1.02-.83,1.84-1.84,1.84s-1.84-.83-1.84-1.84.83-1.84,1.84-1.84,1.84.83,1.84,1.84Z"/>
        <circle class="cls-13" cx="40.97" cy="47.64" r=".78"/>
        <path class="cls-17" d="M41.02,47.84c-.51,1.57-4.06,2.67-6.12,1.99-4.89-1.61-3.79,14.04,4.2,9.59,1.6-.89,2.1-.67,2.91-.22,7.87,4.42,9.17-10.95,5.07-9.81-4.69,1.3-4.99.05-6.06-1.56Z"/>
        <path class="cls-5" d="M41.02,47.84c-.51,1.57-4.06,2.67-6.12,1.99-4.89-1.61-3.79,14.04,4.2,9.59,1.6-.89,2.1-.67,2.91-.22,7.87,4.42,9.17-10.95,5.07-9.81-4.69,1.3-4.99.05-6.06-1.56Z"/>
        <path class="cls-8" d="M26.65,90.43l12.67-9.54c1.94-2.8-1.51-2.16-.86-3.45.65-1.3-.22-2.8-1.72-2.8-2.62,0-.46-3.09-4.74-1.94-1.97.52-1.71-3.31-5.39-.65-1.94,1.4-3.07,12.99.05,18.38Z"/>
        <path class="cls-6" d="M26.65,90.43l12.67-9.54c1.94-2.8-1.51-2.16-.86-3.45.65-1.3-.22-2.8-1.72-2.8-2.62,0-.46-3.09-4.74-1.94-1.97.52-1.71-3.31-5.39-.65-1.94,1.4-3.07,12.99.05,18.38Z"/>
        <path class="cls-8" d="M26.9,89.89c1.72-1.08,7.68-6.2,6.6-12.45-.18-1.04-1.67-.02-1.83-2.37-.15-2.19-3.12-1.17-3.77-2.16-.86-1.29-3.23-2.59-4.53-.65-1.13,1.69-3.49-1.44-4.96,2.16-.6,1.46-2.16-.07-2.48,2.59-.16,1.28-1.51,1.08-.97,3.12l11.95,9.76Z"/>
        <path class="cls-6" d="M26.9,89.89c1.72-1.08,7.68-6.2,6.6-12.45-.18-1.04-1.67-.02-1.83-2.37-.15-2.19-3.12-1.17-3.77-2.16-.86-1.29-3.23-2.59-4.53-.65-1.13,1.69-3.49-1.44-4.96,2.16-.6,1.46-2.16-.07-2.48,2.59-.16,1.28-1.51,1.08-.97,3.12l11.95,9.76Z"/>
        <path class="cls-8" d="M23.9,76.47c1.95-1.54,2.89.14,2.48,2.8-.22,1.41-.65,3.77.86,6.36-1.95.11-1.87,2.08-.73,3.13-1.29.65-3.8,1.83-8.33,1.51-4.53-.32-4.11-5.36-4.1-7.01.02-1.8.65-1.36.75-2.59.28-3.13.91-1.53,1.94-2.91,1.62-2.16,2.14.36,3.67-1.08,1.84-1.73,1.85,1.04,3.45-.22Z"/>
        <path class="cls-6" d="M23.9,76.47c1.95-1.54,2.89.14,2.48,2.8-.22,1.41-.65,3.77.86,6.36-1.95.11-1.87,2.08-.73,3.13-1.29.65-3.8,1.83-8.33,1.51-4.53-.32-4.11-5.36-4.1-7.01.02-1.8.65-1.36.75-2.59.28-3.13.91-1.53,1.94-2.91,1.62-2.16,2.14.36,3.67-1.08,1.84-1.73,1.85,1.04,3.45-.22Z"/>
        <path class="cls-8" d="M38.24,79.49c.07,1.71,2.27.65,1.83,3.02-.37,2.03,1.47,6.74-4.21,8.62-2.59.86-7.33-2.37-7.66-2.8,1.62-.59,1.18-2.95,0-2.7.22-1.72,1.28-5.21.86-6.79-.65-2.48,1.99-3.21,3.02-2.05.86.97,2.41-1.27,3.24,1.18.43,1.29,2.84-.23,2.91,1.51Z"/>
        <path class="cls-6" d="M38.24,79.49c.07,1.71,2.27.65,1.83,3.02-.37,2.03,1.47,6.74-4.21,8.62-2.59.86-7.33-2.37-7.66-2.8,1.62-.59,1.18-2.95,0-2.7.22-1.72,1.28-5.21.86-6.79-.65-2.48,1.99-3.21,3.02-2.05.86.97,2.41-1.27,3.24,1.18.43,1.29,2.84-.23,2.91,1.51Z"/>
        <path class="cls-11" d="M29.7,6.87c.91.44,1.06,2.08.42,2.96,1.86.17,3.33-.67,4.66-.58,3.4.23,3.64-.68.17-.65-3.94.04,4.16-.21.08-1.33-2.01-.55,6.49-3.1-1.31-1,1.06-.29,5.07-3.48,1.06-1.3-1.95,1.06.85-3.49-1.88-.11-.35.44.77-3.28-.88-.64-.33.53,1.11-4.46-1.18-.06-.32.61-.88,2.06-1.15,2.7Z"/>
        <path class="cls-11" d="M22.51,5.64c-5.77-4.35,0,.83-2.07.21-4.05-1.22,3.18,1.81-.76,1.81s2.9.91.14,1.46c-2.77.56,2.21.98,4.43.56-.28-.91.28-2.3.97-2.23-1.04-1.04-1.45-2.58-1.94-3.62-1.31-2.82-.55.68-.42,1.11.52,1.62-.03.94-.35.7Z"/>
        <path class="cls-13" d="M29.42,7.75c.71.34.82,1.61.33,2.29,1.45.13,2.59-.52,3.64-.45,2.65.18,2.84-.53.13-.5-3.07.03,3.24-.16.06-1.03-1.57-.43,5.06-2.4-1.02-.77.83-.22,3.95-2.7.82-1.01-1.52.82.66-2.7-1.46-.08-.27.34.6-2.54-.68-.5-.26.41.87-3.45-.92-.05-.25.47-.69,1.6-.9,2.09Z"/>
        <path class="cls-13" d="M.26,10.61c-.66,1.46-3.21,2.31-5.3,2.03-3.27-.44,2.03.62-.05,3.1-2.28,2.72,3.7-2.41,2.88,1.72-.84,4.28,1.8-4.43,4.04.26,1.84,3.85-1.34-4,3.01-2.26,3.96,1.59-1.81-1.09.16-2.37,3.56-2.33-3.46,1.17-4.74-2.49Z"/>
        <path class="cls-9" d="M1.88,7.28c.97.48,1.12,2.29.45,3.25,1.98.19,3.53-.74,4.96-.64,3.61.25,3.87-.75.18-.71-4.19.05,4.42-.23.09-1.46-2.14-.61,6.9-3.4-1.39-1.09,1.13-.32,5.39-3.82,1.12-1.43-2.07,1.16.91-3.83-1.99-.12-.37.48.82-3.6-.93-.7-.35.58,1.18-4.89-1.26-.07-.34.66-.94,2.26-1.22,2.96Z"/>
        <path class="cls-13" d="M2.25,7.75c.71.34.82,1.61.33,2.29,1.45.13,2.59-.52,3.64-.45,2.65.18,2.84-.53.13-.5-3.07.03,3.24-.16.06-1.03-1.57-.43,5.06-2.4-1.02-.77.83-.22,3.95-2.7.83-1.01-1.52.82.66-2.7-1.46-.08-.27.34.6-2.54-.68-.5-.26.41.87-3.45-.92-.05-.25.47-.69,1.6-.9,2.09Z"/>
        <line class="cls-2" x1="59.61" y1="9.46" x2="59.61" y2="9.46"/>
        <line class="cls-2" x1="56.7" y1="8.34" x2="56.7" y2="8.34"/>
        <line class="cls-7" x1="54.26" y1="18.7" x2="54.26" y2="44.04"/>
        <path class="cls-14" d="M53.82,12.83l12.67-9.54c1.94-2.8-1.51-2.16-.86-3.45.65-1.29-.22-2.8-1.72-2.8-2.62,0-.45-3.09-4.74-1.94-1.97.53-1.71-3.31-5.39-.65-1.94,1.4-3.07,12.99.05,18.38Z"/>
        <path class="cls-4" d="M53.82,12.83l12.67-9.54c1.94-2.8-1.51-2.16-.86-3.45.65-1.29-.22-2.8-1.72-2.8-2.62,0-.45-3.09-4.74-1.94-1.97.53-1.71-3.31-5.39-.65-1.94,1.4-3.07,12.99.05,18.38Z"/>
        <path class="cls-14" d="M54.07,12.29c1.72-1.08,7.68-6.2,6.6-12.45-.18-1.04-1.67-.02-1.83-2.37-.15-2.19-3.12-1.17-3.77-2.16-.86-1.29-3.23-2.59-4.53-.65-1.13,1.69-3.49-1.44-4.96,2.16-.6,1.46-2.16-.07-2.48,2.59-.16,1.28-1.51,1.08-.97,3.13l11.94,9.76Z"/>
        <path class="cls-4" d="M54.07,12.29c1.72-1.08,7.68-6.2,6.6-12.45-.18-1.04-1.67-.02-1.83-2.37-.15-2.19-3.12-1.17-3.77-2.16-.86-1.29-3.23-2.59-4.53-.65-1.13,1.69-3.49-1.44-4.96,2.16-.6,1.46-2.16-.07-2.48,2.59-.16,1.28-1.51,1.08-.97,3.13l11.94,9.76Z"/>
        <path class="cls-14" d="M51.07-1.13c1.95-1.54,2.89.14,2.48,2.8-.22,1.41-.65,3.77.86,6.36-1.95.11-1.87,2.08-.73,3.13-1.29.65-3.8,1.83-8.33,1.51-4.53-.32-4.11-5.36-4.1-7.01.02-1.8.65-1.36.75-2.59.28-3.13.91-1.53,1.94-2.91,1.62-2.16,2.14.36,3.66-1.08,1.84-1.73,1.85,1.05,3.45-.22Z"/>
        <path class="cls-4" d="M51.07-1.13c1.95-1.54,2.89.14,2.48,2.8-.22,1.41-.65,3.77.86,6.36-1.95.11-1.87,2.08-.73,3.13-1.29.65-3.8,1.83-8.33,1.51-4.53-.32-4.11-5.36-4.1-7.01.02-1.8.65-1.36.75-2.59.28-3.13.91-1.53,1.94-2.91,1.62-2.16,2.14.36,3.66-1.08,1.84-1.73,1.85,1.05,3.45-.22Z"/>
        <path class="cls-14" d="M65.41,1.89c.07,1.71,2.27.65,1.83,3.02-.37,2.03,1.47,6.74-4.2,8.62-2.59.86-7.33-2.37-7.66-2.8,1.62-.59,1.17-2.95,0-2.7.21-1.72,1.27-5.21.86-6.79-.65-2.48,1.99-3.21,3.02-2.05.86.97,2.42-1.27,3.23,1.19.43,1.29,2.84-.23,2.91,1.51Z"/>
        <path class="cls-4" d="M65.41,1.89c.07,1.71,2.27.65,1.83,3.02-.37,2.03,1.47,6.74-4.2,8.62-2.59.86-7.33-2.37-7.66-2.8,1.62-.59,1.17-2.95,0-2.7.21-1.72,1.27-5.21.86-6.79-.65-2.48,1.99-3.21,3.02-2.05.86.97,2.42-1.27,3.23,1.19.43,1.29,2.84-.23,2.91,1.51Z"/>
        <path class="cls-14" d="M-.51,90.42l12.67-9.54c1.94-2.8-1.51-2.16-.86-3.45.65-1.29-.22-2.8-1.72-2.8-2.62,0-.45-3.09-4.74-1.94-1.97.53-1.71-3.31-5.39-.65-1.94,1.4-3.07,12.99.05,18.38Z"/>
        <path class="cls-4" d="M-.51,90.42l12.67-9.54c1.94-2.8-1.51-2.16-.86-3.45.65-1.29-.22-2.8-1.72-2.8-2.62,0-.45-3.09-4.74-1.94-1.97.53-1.71-3.31-5.39-.65-1.94,1.4-3.07,12.99.05,18.38Z"/>
        <path class="cls-14" d="M-.26,89.88c1.72-1.08,7.68-6.2,6.6-12.45-.18-1.04-1.67-.02-1.83-2.37-.15-2.19-3.12-1.17-3.77-2.16-.86-1.29-3.23-2.59-4.53-.65-1.13,1.69-3.49-1.44-4.96,2.16-.6,1.46-2.16-.07-2.48,2.59-.16,1.28-1.51,1.08-.97,3.13L-.26,89.88Z"/>
        <path class="cls-4" d="M-.26,89.88c1.72-1.08,7.68-6.2,6.6-12.45-.18-1.04-1.67-.02-1.83-2.37-.15-2.19-3.12-1.17-3.77-2.16-.86-1.29-3.23-2.59-4.53-.65-1.13,1.69-3.49-1.44-4.96,2.16-.6,1.46-2.16-.07-2.48,2.59-.16,1.28-1.51,1.08-.97,3.13L-.26,89.88Z"/>
        <path class="cls-14" d="M-3.26,76.45c1.95-1.54,2.89.14,2.48,2.8-.22,1.41-.65,3.77.86,6.36-1.95.11-1.87,2.08-.73,3.13-1.29.65-3.8,1.83-8.33,1.51-4.53-.32-4.11-5.36-4.1-7.01.02-1.8.65-1.36.75-2.59.28-3.13.91-1.53,1.94-2.91,1.62-2.16,2.14.36,3.67-1.08,1.84-1.73,1.85,1.05,3.45-.22Z"/>
        <path class="cls-4" d="M-3.26,76.45c1.95-1.54,2.89.14,2.48,2.8-.22,1.41-.65,3.77.86,6.36-1.95.11-1.87,2.08-.73,3.13-1.29.65-3.8,1.83-8.33,1.51-4.53-.32-4.11-5.36-4.1-7.01.02-1.8.65-1.36.75-2.59.28-3.13.91-1.53,1.94-2.91,1.62-2.16,2.14.36,3.67-1.08,1.84-1.73,1.85,1.05,3.45-.22Z"/>
        <path class="cls-14" d="M11.08,79.47c.07,1.71,2.27.65,1.83,3.02-.37,2.03,1.47,6.74-4.2,8.62-2.59.86-7.33-2.37-7.66-2.8,1.62-.59,1.17-2.95,0-2.7.21-1.72,1.27-5.21.86-6.79-.65-2.48,1.99-3.21,3.02-2.05.86.97,2.41-1.27,3.23,1.19.43,1.29,2.84-.23,2.91,1.51Z"/>
        <path class="cls-4" d="M11.08,79.47c.07,1.71,2.27.65,1.83,3.02-.37,2.03,1.47,6.74-4.2,8.62-2.59.86-7.33-2.37-7.66-2.8,1.62-.59,1.17-2.95,0-2.7.21-1.72,1.27-5.21.86-6.79-.65-2.48,1.99-3.21,3.02-2.05.86.97,2.41-1.27,3.23,1.19.43,1.29,2.84-.23,2.91,1.51Z"/>
        <path class="cls-14" d="M53.83,90.44l12.67-9.54c1.94-2.8-1.51-2.16-.86-3.45.65-1.29-.22-2.8-1.72-2.8-2.62,0-.45-3.09-4.74-1.94-1.97.53-1.71-3.31-5.39-.65-1.94,1.4-3.07,12.99.05,18.38Z"/>
        <path class="cls-4" d="M53.83,90.44l12.67-9.54c1.94-2.8-1.51-2.16-.86-3.45.65-1.29-.22-2.8-1.72-2.8-2.62,0-.45-3.09-4.74-1.94-1.97.53-1.71-3.31-5.39-.65-1.94,1.4-3.07,12.99.05,18.38Z"/>
        <path class="cls-14" d="M54.07,89.9c1.72-1.08,7.68-6.2,6.6-12.45-.18-1.04-1.67-.02-1.83-2.37-.15-2.19-3.12-1.17-3.77-2.16-.86-1.29-3.23-2.59-4.53-.65-1.13,1.69-3.49-1.44-4.96,2.16-.6,1.46-2.16-.07-2.48,2.59-.16,1.28-1.51,1.08-.97,3.13l11.94,9.76Z"/>
        <path class="cls-4" d="M54.07,89.9c1.72-1.08,7.68-6.2,6.6-12.45-.18-1.04-1.67-.02-1.83-2.37-.15-2.19-3.12-1.17-3.77-2.16-.86-1.29-3.23-2.59-4.53-.65-1.13,1.69-3.49-1.44-4.96,2.16-.6,1.46-2.16-.07-2.48,2.59-.16,1.28-1.51,1.08-.97,3.13l11.94,9.76Z"/>
        <path class="cls-14" d="M51.08,76.48c1.95-1.54,2.89.14,2.48,2.8-.22,1.41-.65,3.77.86,6.36-1.95.11-1.87,2.08-.73,3.13-1.29.65-3.8,1.83-8.33,1.51-4.53-.32-4.11-5.36-4.1-7.01.02-1.8.65-1.36.75-2.59.28-3.13.91-1.53,1.94-2.91,1.62-2.16,2.14.36,3.66-1.08,1.84-1.73,1.85,1.05,3.45-.22Z"/>
        <path class="cls-4" d="M51.08,76.48c1.95-1.54,2.89.14,2.48,2.8-.22,1.41-.65,3.77.86,6.36-1.95.11-1.87,2.08-.73,3.13-1.29.65-3.8,1.83-8.33,1.51-4.53-.32-4.11-5.36-4.1-7.01.02-1.8.65-1.36.75-2.59.28-3.13.91-1.53,1.94-2.91,1.62-2.16,2.14.36,3.66-1.08,1.84-1.73,1.85,1.05,3.45-.22Z"/>
        <path class="cls-14" d="M65.41,79.5c.07,1.71,2.27.65,1.83,3.02-.37,2.03,1.47,6.74-4.2,8.62-2.59.86-7.33-2.37-7.66-2.8,1.62-.59,1.17-2.95,0-2.7.21-1.72,1.27-5.21.86-6.79-.65-2.48,1.99-3.21,3.02-2.05.86.97,2.41-1.27,3.23,1.19.43,1.29,2.84-.23,2.91,1.51Z"/>
        <path class="cls-4" d="M65.41,79.5c.07,1.71,2.27.65,1.83,3.02-.37,2.03,1.47,6.74-4.2,8.62-2.59.86-7.33-2.37-7.66-2.8,1.62-.59,1.17-2.95,0-2.7.21-1.72,1.27-5.21.86-6.79-.65-2.48,1.99-3.21,3.02-2.05.86.97,2.41-1.27,3.23,1.19.43,1.29,2.84-.23,2.91,1.51Z"/>
        <path class="cls-10" d="M56.44,9.06c0,1.02-.83,1.84-1.84,1.84s-1.84-.83-1.84-1.84.83-1.84,1.84-1.84,1.84.83,1.84,1.84Z"/>
        <path class="cls-13" d="M55.38,9.06c0,.43-.35.78-.78.78s-.78-.35-.78-.78.35-.78.78-.78.78.35.78.78Z"/>
        <path class="cls-14" d="M54.6,9.06c-.5,1.57-4.06,2.67-6.12,1.99-4.89-1.61-3.79,14.04,4.2,9.6,1.6-.89,2.1-.67,2.91-.22,7.87,4.42,9.18-10.95,5.07-9.81-4.69,1.3-4.99.06-6.07-1.56Z"/>
        <path class="cls-9" d="M54.6,10.64c-.78,1.72-3.79,2.72-6.25,2.39-3.86-.51,2.4.73-.06,3.65-2.7,3.2,4.37-2.84,3.4,2.03-1,5.04,2.12-5.21,4.76.3,2.17,4.54-1.58-4.71,3.56-2.65,4.67,1.87-2.14-1.28.18-2.79,4.21-2.74-4.09,1.37-5.59-2.92Z"/>
        <path class="cls-4" d="M54.6,9.06c-.5,1.57-4.06,2.67-6.12,1.99-4.89-1.61-3.79,14.04,4.2,9.6,1.6-.89,2.1-.67,2.91-.22,7.87,4.42,9.18-10.95,5.07-9.81-4.69,1.3-4.99.06-6.07-1.56Z"/>
        <path class="cls-13" d="M54.6,10.64c-.66,1.46-3.21,2.31-5.3,2.03-3.27-.44,2.03.62-.05,3.1-2.28,2.72,3.7-2.41,2.88,1.72-.84,4.28,1.8-4.43,4.04.26,1.84,3.85-1.34-4,3.01-2.26,3.96,1.59-1.81-1.09.16-2.37,3.56-2.33-3.46,1.17-4.74-2.49Z"/>
        <path class="cls-9" d="M56.22,7.3c.97.48,1.12,2.29.45,3.25,1.98.19,3.53-.74,4.96-.64,3.61.25,3.87-.75.18-.71-4.19.05,4.42-.23.09-1.45-2.14-.61,6.9-3.4-1.39-1.09,1.13-.32,5.39-3.82,1.12-1.43-2.07,1.16.91-3.83-1.99-.12-.37.48.82-3.6-.93-.7-.35.58,1.18-4.89-1.26-.07-.34.66-.94,2.26-1.22,2.96Z"/>
        <path class="cls-13" d="M56.59,7.78c.71.34.82,1.61.33,2.29,1.45.13,2.59-.52,3.64-.45,2.65.18,2.84-.53.13-.5-3.07.03,3.24-.16.06-1.03-1.57-.43,5.06-2.4-1.02-.77.83-.22,3.95-2.7.83-1.01-1.52.82.66-2.7-1.46-.08-.27.34.6-2.54-.68-.5-.26.41.87-3.45-.92-.05-.25.47-.69,1.6-.9,2.09Z"/>
        <path class="cls-9" d="M52.58,7.06c-.97.48-1.12,2.29-.45,3.25-1.98.19-3.53-.74-4.96-.64-3.61.25-3.87-.75-.18-.71,4.19.05-4.42-.23-.09-1.46,2.14-.61-6.9-3.4,1.39-1.09-1.13-.32-5.39-3.82-1.12-1.43,2.07,1.16-.91-3.83,1.99-.12.37.48-.82-3.6.93-.7.35.58-1.18-4.89,1.26-.07.34.66.94,2.26,1.22,2.96Z"/>
        <path class="cls-13" d="M52.22,7.53c-.71.34-.82,1.61-.33,2.29-1.45.13-2.59-.52-3.64-.45-2.65.18-2.84-.53-.13-.5,3.07.03-3.24-.16-.06-1.03,1.57-.43-5.06-2.4,1.02-.77-.83-.22-3.95-2.7-.83-1.01,1.52.82-.66-2.7,1.46-.08.27.34-.6-2.54.68-.5.26.41-.87-3.45.92-.05.25.47.69,1.6.9,2.09Z"/>
        <path class="cls-13" d="M23.52,6.66c-4.5-3.37,0,.65-1.62.16-3.15-.95,2.48,1.4-.59,1.4s2.26.7.11,1.13c-2.16.43,1.73.75,3.45.43-.21-.7.22-1.78.75-1.73-.81-.81-1.13-1.99-1.51-2.8-1.02-2.18-.43.53-.32.86.41,1.25-.02.73-.27.54Z"/>
        <path class="cls-15" d="M15.97,45.81c.89.43,1.03,2.07.41,2.95,1.82.17,3.24-.67,4.54-.58,3.31.23,3.55-.68.16-.64-3.84.05,4.05-.21.08-1.32-1.96-.55,6.32-3.09-1.27-.99,1.04-.29,4.94-3.47,1.03-1.3-1.9,1.06.83-3.47-1.83-.1-.34.43.75-3.26-.85-.64-.32.53,1.08-4.44-1.15-.06-.31.61-.86,2.06-1.12,2.69Z"/>
        <path class="cls-15" d="M11.33,45.69c-.89.43-1.03,2.07-.41,2.95-1.82.17-3.24-.67-4.55-.58-3.31.23-3.55-.68-.16-.64,3.84.05-4.05-.21-.08-1.32,1.96-.55-6.32-3.09,1.27-.99-1.04-.29-4.94-3.47-1.03-1.3,1.9,1.06-.83-3.47,1.83-.1.34.43-.75-3.26.85-.64.32.53-1.08-4.44,1.15-.06.31.61.86,2.06,1.12,2.69Z"/>
        <path class="cls-13" d="M15.84,46.57c.71.34.82,1.61.33,2.29,1.45.13,2.59-.52,3.64-.45,2.65.18,2.84-.53.13-.5-3.07.04,3.24-.16.06-1.03-1.57-.43,5.06-2.4-1.02-.77.83-.22,3.95-2.7.83-1.01-1.52.82.66-2.7-1.46-.08-.27.34.6-2.54-.68-.5-.26.41.87-3.45-.92-.05-.25.47-.69,1.6-.9,2.09Z"/>
        <path class="cls-13" d="M9.94,45.47c-4.5-3.37,0,.65-1.62.16-3.15-.94,2.48,1.4-.59,1.4s2.26.7.11,1.13c-2.16.43,1.73.75,3.45.43-.22-.7.21-1.78.75-1.72-.81-.81-1.13-2-1.51-2.8-1.02-2.18-.43.53-.32.86.41,1.25-.02.73-.27.54Z"/>
        <path class="cls-16" d="M42.88,46.23c.96.52,1.12,2.49.44,3.55,1.97.21,3.52-.81,4.94-.7,3.59.27,3.85-.82.18-.77-4.17.05,4.4-.25.08-1.59-2.13-.66,6.86-3.71-1.38-1.19,1.13-.34,5.37-4.17,1.12-1.56-2.06,1.27.9-4.17-1.98-.12-.37.52.82-3.92-.93-.77-.35.64,1.18-5.33-1.25-.07-.33.73-.93,2.47-1.22,3.23Z"/>
        <path class="cls-16" d="M36.26,44.06c-6.15-4.91,0,.94-2.21.23-4.32-1.38,3.39,2.04-.81,2.04s3.1,1.03.15,1.65c-2.95.63,2.36,1.1,4.72.63-.3-1.02.29-2.59,1.03-2.51-1.11-1.18-1.55-2.91-2.07-4.09-1.39-3.19-.59.77-.44,1.26.56,1.82-.03,1.06-.37.79Z"/>
        <path class="cls-13" d="M43,46.57c.71.34.82,1.61.32,2.29,1.45.13,2.59-.52,3.64-.45,2.65.18,2.84-.53.13-.5-3.07.04,3.24-.16.06-1.03-1.57-.43,5.06-2.4-1.02-.77.83-.22,3.95-2.7.83-1.01-1.52.82.66-2.7-1.46-.08-.27.34.6-2.54-.68-.5-.26.41.87-3.45-.92-.05-.25.47-.69,1.6-.9,2.09Z"/>
        <path class="cls-13" d="M37.11,45.47c-4.5-3.37,0,.65-1.62.16-3.15-.94,2.48,1.4-.59,1.4s2.26.7.11,1.13c-2.16.43,1.73.75,3.45.43-.22-.7.21-1.78.75-1.72-.81-.81-1.13-2-1.51-2.8-1.02-2.18-.43.53-.32.86.41,1.25-.02.73-.27.54Z"/>
        <path class="cls-15" d="M13.76,49.31c-.79,1.78-3.8,2.82-6.27,2.48-3.87-.53,2.4.76-.06,3.79-2.7,3.33,4.38-2.95,3.41,2.11-1,5.23,2.13-5.42,4.78.31,2.18,4.71-1.58-4.89,3.57-2.76,4.68,1.94-2.14-1.33.18-2.9,4.21-2.85-4.1,1.43-5.61-3.04Z"/>
        <path class="cls-13" d="M13.63,49.42c-.66,1.46-3.21,2.31-5.3,2.03-3.27-.44,2.03.62-.05,3.1-2.28,2.72,3.7-2.41,2.88,1.73-.84,4.28,1.8-4.43,4.04.26,1.84,3.85-1.34-4,3.02-2.26,3.96,1.59-1.81-1.09.16-2.37,3.56-2.33-3.46,1.17-4.74-2.49Z"/>
        <path class="cls-16" d="M40.8,48.23c-.79,1.95-3.81,3.08-6.29,2.71-3.88-.58,2.41.83-.06,4.14-2.71,3.63,4.39-3.22,3.42,2.3-1,5.71,2.14-5.91,4.79.34,2.18,5.14-1.59-5.34,3.58-3.01,4.7,2.12-2.15-1.45.18-3.17,4.23-3.11-4.11,1.56-5.62-3.32Z"/>
        <path class="cls-13" d="M40.8,49.42c-.63,1.32-3.04,2.09-5.02,1.83-3.1-.39,1.92.56-.05,2.8-2.16,2.46,3.5-2.18,2.73,1.56-.8,3.86,1.7-4,3.82.23,1.74,3.48-1.27-3.62,2.85-2.04,3.75,1.43-1.72-.98.15-2.14,3.37-2.11-3.28,1.05-4.48-2.25Z"/>
        <path class="cls-11" d="M27.41,9.7c-.82,1.81-3.99,2.87-6.58,2.52-4.06-.54,2.52.77-.06,3.85-2.84,3.38,4.59-3,3.58,2.14-1.05,5.31,2.23-5.5,5.01.32,2.28,4.78-1.66-4.97,3.74-2.8,4.91,1.97-2.25-1.35.19-2.95,4.42-2.89-4.3,1.45-5.88-3.09Z"/>
        <path class="cls-13" d="M27.43,10.61c-.66,1.46-3.21,2.31-5.3,2.03-3.27-.44,2.03.62-.05,3.1-2.28,2.72,3.7-2.41,2.88,1.72-.84,4.28,1.8-4.43,4.04.26,1.84,3.85-1.34-4,3.02-2.26,3.96,1.59-1.81-1.09.16-2.37,3.56-2.33-3.46,1.17-4.74-2.49Z"/>
      </g>
    </pattern>
  </defs>
  <g id="_レイヤー_1-2" data-name="レイヤー 1">
    <path class="cls-18" d="M14.21,24.84c-.12-.09-.08-.18-.35-.16.26-1.17-1.09-1.69-.63-2.91-1.56-.17-5.18-.79-5.49-2.1-2.71-.74-1.48-2.46-2.28-3.93-.96-.16-.71-.92-.95-1.54-1.83.01-1.41-1.44-1.91-2.38-.28-.53-.72-.69-.9-1.29-.18-.6.01-1.34-.03-1.94-1.47-.14-.27-2.85-1.51-3.67.91-.67,1.5-1.37,1.7-2.22-1.79-.03-.19-1.83-1.87-2.13l127.69-.56v24.7l-113.83-.02"/>
  </g>
</svg>