<?xml version="1.0" encoding="UTF-8"?>
<svg id="_レイヤー_2" data-name="レイヤー 2" xmlns="http://www.w3.org/2000/svg" xmlns:xlink="http://www.w3.org/1999/xlink" viewBox="0 0 123.42 24.14">
  <defs>
    <style>
      .cls-1 {
        fill: none;
      }

      .cls-2 {
        fill: url(#_6_dpi_40_);
      }

      .cls-2, .cls-3 {
        opacity: .74;
      }

      .cls-3 {
        fill: #d4156e;
      }

      .cls-4 {
        fill: #231815;
      }
    </style>
    <pattern id="_6_dpi_40_" data-name="6 dpi 40%" x="0" y="0" width="48" height="48" patternTransform="translate(-11.56 463.02)" patternUnits="userSpaceOnUse" viewBox="0 0 48 48">
      <g>
        <rect class="cls-1" width="48" height="48"/>
        <path class="cls-4" d="M0,52.8c2.65,0,4.8-2.15,4.8-4.8s-2.15-4.8-4.8-4.8-4.8,2.15-4.8,4.8,2.15,4.8,4.8,4.8Z"/>
        <path class="cls-4" d="M24,52.8c2.65,0,4.8-2.15,4.8-4.8s-2.15-4.8-4.8-4.8-4.8,2.15-4.8,4.8,2.15,4.8,4.8,4.8Z"/>
        <path class="cls-4" d="M48,52.8c2.65,0,4.8-2.15,4.8-4.8s-2.15-4.8-4.8-4.8-4.8,2.15-4.8,4.8,2.15,4.8,4.8,4.8Z"/>
        <path class="cls-4" d="M0,28.8c2.65,0,4.8-2.15,4.8-4.8s-2.15-4.8-4.8-4.8-4.8,2.15-4.8,4.8,2.15,4.8,4.8,4.8Z"/>
        <path class="cls-4" d="M24,28.8c2.65,0,4.8-2.15,4.8-4.8s-2.15-4.8-4.8-4.8-4.8,2.15-4.8,4.8,2.15,4.8,4.8,4.8Z"/>
        <path class="cls-4" d="M48,28.8c2.65,0,4.8-2.15,4.8-4.8s-2.15-4.8-4.8-4.8-4.8,2.15-4.8,4.8,2.15,4.8,4.8,4.8Z"/>
        <path class="cls-4" d="M0,4.8c2.65,0,4.8-2.15,4.8-4.8S2.65-4.8,0-4.8-4.8-2.65-4.8,0-2.65,4.8,0,4.8Z"/>
        <path class="cls-4" d="M24,4.8c2.65,0,4.8-2.15,4.8-4.8s-2.15-4.8-4.8-4.8-4.8,2.15-4.8,4.8,2.15,4.8,4.8,4.8Z"/>
        <path class="cls-4" d="M48,4.8c2.65,0,4.8-2.15,4.8-4.8s-2.15-4.8-4.8-4.8-4.8,2.15-4.8,4.8,2.15,4.8,4.8,4.8Z"/>
        <path class="cls-4" d="M-24,4.8c2.65,0,4.8-2.15,4.8-4.8s-2.15-4.8-4.8-4.8-4.8,2.15-4.8,4.8,2.15,4.8,4.8,4.8Z"/>
        <path class="cls-4" d="M-24,0"/>
        <path class="cls-4" d="M36,40.8c2.65,0,4.8-2.15,4.8-4.8s-2.15-4.8-4.8-4.8-4.8,2.15-4.8,4.8,2.15,4.8,4.8,4.8Z"/>
        <path class="cls-4" d="M12,40.8c2.65,0,4.8-2.15,4.8-4.8s-2.15-4.8-4.8-4.8-4.8,2.15-4.8,4.8,2.15,4.8,4.8,4.8Z"/>
        <path class="cls-4" d="M36,16.8c2.65,0,4.8-2.15,4.8-4.8s-2.15-4.8-4.8-4.8-4.8,2.15-4.8,4.8,2.15,4.8,4.8,4.8Z"/>
        <path class="cls-4" d="M12,16.8c2.65,0,4.8-2.15,4.8-4.8s-2.15-4.8-4.8-4.8-4.8,2.15-4.8,4.8,2.15,4.8,4.8,4.8Z"/>
        <path class="cls-4" d="M-12,16.8c2.65,0,4.8-2.15,4.8-4.8s-2.15-4.8-4.8-4.8-4.8,2.15-4.8,4.8,2.15,4.8,4.8,4.8Z"/>
        <path class="cls-4" d="M-12,12"/>
      </g>
    </pattern>
  </defs>
  <g id="_レイヤー_1-2" data-name="レイヤー 1">
    <g>
      <path class="cls-2" d="M123.42,23.86c-1.21-1.2-.18-1.98-2.73-2.25.13-.02.33,0,.47-.02.24-1.21-.2-2.34-1.67-2.64.17-.08.38-.34.73-.45.03-.6-.54-1.04-1.25-1.27.27-.46.91-.75,1.49-.95-.46-.47-.96-.89-1.69-1.01.13-.18.39-.63.58-.79,1.43-.43.26-1.35-.19-1.83.11,0,.22.02.31.07.32-1.37-1.07-2.5-.51-3.71.05-.03.33-.15.37-.17-1.6-1.22-3.08-3.57-3.22-5.31-.48-.06-.55-.3-1.06-.33.19-.98-1.05-1.35-.98-2.34-.17-.03-.34,0-.5-.04-.12-.28-.33-.54-.4-.82L0,.28c.11.51.64.87,1.28,1.16-.95,1.02.27,1.78.78,2.62.81,1.33.38,2.01.16,3.24-.07.41.45.46.16,1.11-.21.47-1.26.94-1.42,1.29-.4.9.48,3.02,1.2,3.6-1.28.4-.28,4.26-.3,5.21-.02.73-.53,1.36-.35,1.99.08.28,1.07-.04,1.12.4.03.26-.4.5-.4.57.01.58-.58,1.8-1.46,2.14.04.04.15.15.13.21-.11.08-.29.21-.34.32l122.86-.28Z"/>
      <path class="cls-3" d="M123.42,23.86c-1.21-1.2-.18-1.98-2.73-2.25.13-.02.33,0,.47-.02.24-1.21-.2-2.34-1.67-2.64.17-.08.38-.34.73-.45.03-.6-.54-1.04-1.25-1.27.27-.46.91-.75,1.49-.95-.46-.47-.96-.89-1.69-1.01.13-.18.39-.63.58-.79,1.43-.43.26-1.35-.19-1.83.11,0,.22.02.31.07.32-1.37-1.07-2.5-.51-3.71.05-.03.33-.15.37-.17-1.6-1.22-3.08-3.57-3.22-5.31-.48-.06-.55-.3-1.06-.33.19-.98-1.05-1.35-.98-2.34-.17-.03-.34,0-.5-.04-.12-.28-.33-.54-.4-.82L0,.28c.11.51.64.87,1.28,1.16-.95,1.02.27,1.78.78,2.62.81,1.33.38,2.01.16,3.24-.07.41.45.46.16,1.11-.21.47-1.26.94-1.42,1.29-.4.9.48,3.02,1.2,3.6-1.28.4-.28,4.26-.3,5.21-.02.73-.53,1.36-.35,1.99.08.28,1.07-.04,1.12.4.03.26-.4.5-.4.57.01.58-.58,1.8-1.46,2.14.04.04.15.15.13.21-.11.08-.29.21-.34.32l122.86-.28Z"/>
    </g>
  </g>
</svg>