<?xml version="1.0" encoding="UTF-8"?>
<svg id="_レイヤー_2" data-name="レイヤー 2" xmlns="http://www.w3.org/2000/svg" xmlns:xlink="http://www.w3.org/1999/xlink" viewBox="0 0 123.42 24.14">
  <defs>
    <style>
      .cls-1 {
        fill: none;
      }

      .cls-2 {
        fill: #1a3169;
      }

      .cls-3 {
        fill: #004f86;
      }

      .cls-4, .cls-5, .cls-6 {
        fill: #6b7736;
      }

      .cls-7 {
        fill: url(#_クジャク);
        opacity: .74;
      }

      .cls-8 {
        fill: #515c2b;
      }

      .cls-9 {
        fill: #3f4923;
      }

      .cls-10 {
        fill: #07667d;
      }

      .cls-11 {
        fill: #e28424;
      }

      .cls-12 {
        fill: #d8d83d;
      }

      .cls-13 {
        fill: #eab51c;
      }

      .cls-5 {
        opacity: .5;
      }

      .cls-6 {
        opacity: .7;
      }

      .cls-14 {
        fill: #1179a9;
      }

      .cls-15 {
        fill: #218f3e;
      }

      .cls-16 {
        fill: #1ba1cb;
      }

      .cls-17 {
        fill: #899f3a;
      }

      .cls-18 {
        fill: #e59529;
      }
    </style>
    <pattern id="_クジャク" data-name="クジャク" x="0" y="0" width="72" height="72" patternTransform="translate(-11.56 114.72)" patternUnits="userSpaceOnUse" viewBox="0 0 72 72">
      <g>
        <rect class="cls-1" width="72" height="72"/>
        <rect class="cls-17" width="72" height="72"/>
        <g>
          <path class="cls-4" d="M40.28,65.95s5.5-4.17-1.5-9.17-13.17-5.83-9-16.67c-5,3.67-11,13.33-4.17,16.5,6.83,3.17,15.83,4.5,14.67,9.33Z"/>
          <path class="cls-4" d="M54.78,67.28s8.83.5,9.83-8.33c1-8.83-10.83-18-7.17-26.5,2,6.17,3.56,9.42,6.5,12.5,3.5,3.67,16.17,30-9.17,22.33Z"/>
          <path class="cls-4" d="M44.28,6.55s-9.02-6.36-13.02,1.58c-4,7.94,4.82,23.47-1.57,30.16.27-6.48-.07-10.07-1.76-13.98-2.01-4.65-12.32-32.87,16.35-17.76Z"/>
          <path class="cls-4" d="M17.78,70.12s6.5-1.25,7.33-8.42c.83-7.17-14.25-10.83-14.75-16-.5-5.17.75-11.42.75-11.42-4.33,1.17-9,10.5-5.5,14.83,3.5,4.33,23.5,13.17,12.17,21Z"/>
          <path class="cls-4" d="M23.11,44.95s1.67,0,3.5-4.17c1.83-4.17.75-9.83-2.88-12.58s-4.96-4.08-2.96-6.92c-4.33,1.33-2.83,5.5-.83,8.33,2,2.83,8.5,9.83,3.17,15.33Z"/>
          <path class="cls-4" d="M46.78,5.62s-4.08,7.5-.83,13.33c3.25,5.83,10.17,6,9.5,15.5s-8.17,11-8.83,20.67c-2.5-3.33-.83-7,2-11.33,2.83-4.33,5.33-6.83,1.5-11.83-3.83-5-14.25-10.5-11.75-16s8.42-10.33,8.42-10.33Z"/>
        </g>
        <g>
          <path class="cls-4" d="M6.2,2.63S-.58,3.92,3.48,11.51c4.06,7.59,9.21,11.07.67,18.93,6.11-1.07,15.77-7.07,11.05-12.94C10.48,11.63,3.01,6.44,6.2,2.63Z"/>
          <path class="cls-4" d="M71.9,1.66s-1.1-1.25-5.44.12c-4.34,1.37-7.89,5.92-7.57,10.46.32,4.54.2,6.42-3.25,6.78,3.86,2.38,6-1.5,6.81-4.87.81-3.37,1.79-12.87,9.44-12.49Z"/>
        </g>
        <path class="cls-9" d="M66.43,47.67s-7.57-6.72-7.95-10.1c.46,4.03,4.39,9.36,7.95,10.1Z"/>
        <path class="cls-8" d="M66.44,48.53s-8.71-.33-9.33-9.96c1.25,3.75,3.58,8.58,9.33,9.96Z"/>
        <path class="cls-9" d="M66.61,45.82s-13.25-8-4.25-19.62c-3.75,6.62-3.62,12.12,4.25,19.62Z"/>
        <path class="cls-9" d="M23.41,70.38c-1.05-.59-2.07-6.91,1.62-11.68-2.31,4.08-5.3,9.59-1.62,11.68Z"/>
        <path class="cls-8" d="M42.55,58.01s-2.5-2.88.5-4.88,10.88-5,11-11.5-4.25-9.62-4.12-13.25c1.62,2.75,5.5,8,4.75,13.38s-6,9.25-11.13,12.12c-.88,1.25-1.62,2.62-1,4.12Z"/>
        <path class="cls-8" d="M33.28,3.45s-.67,9.67,0,12.5c-.67-2.83-1-11-.83-12.67l.83.17Z"/>
        <path class="cls-8" d="M67.64,43.9s-.03,8.24-1.16,10.93c1.13-2.68,1.89-9.28,2.01-10.95l-.85.03Z"/>
        <path class="cls-8" d="M61.41,21.86s3.37,9.08,3.53,11.99c-.16-2.91-2.15-10.83-2.78-12.38l-.75.39Z"/>
        <path class="cls-12" d="M82.72,65.81c.85-.41,7.5-6.24,3.64-11.79-3.86-5.55-11.82-8.34-14.24-6.71-3.09,2.08-2.65,24.86,10.6,18.5Z"/>
        <path class="cls-15" d="M72.46,48.23l-.14.07-.1.12c-.71.93-.97,3.43-.97,5.29s.25,6.54,2.56,9.65c1.97,2.65,4.76,3.11,8.52,1.41.85-.52,3.75-3.12,4.34-6.02l.11-1.05c0-1.05-.35-2.05-1.03-2.98-3.78-5.16-11.33-7.55-13.3-6.48Z"/>
        <path class="cls-13" d="M72.6,48.7c-.47.6-.84,2.54-.84,4.94,0,3.1.63,6.92,2.5,9.4,1.15,1.52,3.21,3.29,7.89,1.2.72-.44,3.5-2.92,4.06-5.62.07-.31.1-.62.1-.93,0-.92-.3-1.77-.92-2.6-3.9-5.27-11.35-7.17-12.78-6.4Z"/>
        <path class="cls-18" d="M75.43,50.95c-1.28.21-2.03,3.29-2.03,5.12,0,2.37.84,4.61,2.33,6.5.92,1.16,3.01,3.22,6.75,1.62.58-.34,3.38-3.59,3.82-5.65.05-.24.08-.48.08-.71,0-.7-.24-1.36-.74-1.99-3.12-4.03-9.08-5.48-10.22-4.9Z"/>
        <path class="cls-11" d="M75.79,53.33c-.36.38-1.37,2.6-1.37,4.1,0,1.95.24,3.88,1.66,5.44.87.95,2.86,2.64,6.4,1.33.55-.28,3.2-2.95,3.63-4.64.05-.2.07-.39.07-.58,0-.58-.23-1.12-.7-1.63-2.96-3.3-7.25-6.52-9.7-4.02Z"/>
        <path class="cls-12" d="M29.32,9.07c3.3-.99,13.67,9.18,4.2,12.76-9.47,3.58-7.5-11.77-4.2-12.76Z"/>
        <path class="cls-15" d="M29.24,9.9c-.94.91-1.73,3.87-1.73,6.45,0,1.53.26,2.8.78,3.78.56,1.06,1.67,2.33,4.88,1.08,2.22-.87,3.34-2.11,3.34-3.7l-.1-.88c-.69-3.41-4.79-6.75-6.51-6.96l-.37-.04-.27.27Z"/>
        <path class="cls-13" d="M28,16.42c0,1.33.21,2.64.74,3.64.34.64,1.04,1.97,4.2.75,2.6-1,3.05-2.25,3.05-3.14,0-.3-.05-.56-.09-.76-.68-3.35-4.83-6.61-6.29-6.77-.73.7-1.6,3.54-1.6,6.28Z"/>
        <path class="cls-18" d="M28.33,17.45c0,1.02.19,2.02.69,2.79.32.49.97,1.51,3.92.58,2.43-.77,2.85-1.73,2.85-2.41,0-.23-.05-.43-.09-.58-.64-2.56-3.72-6.5-5.88-5.19-.68.54-1.49,2.71-1.49,4.82Z"/>
        <path class="cls-11" d="M28.33,18.23c0,.79.19,1.55.69,2.14.32.38,1.77,1.97,4.47.58,2.22-1.14,2.3-1.47,2.3-1.99,0-.18-.05-.33-.09-.45-.64-1.97-4.52-3.89-5.88-3.99-.68.42-1.49,2.09-1.49,3.7Z"/>
        <path class="cls-12" d="M67.24,22.12c3.93-.45,13.8,19.76,1.35,20.62-11.83.82-6.87-20-1.35-20.62Z"/>
        <path class="cls-15" d="M67.16,23.41c-2.17.46-4.97,5.87-4.97,11l.05,1.22c.24,2.84,1.54,6.17,6.3,5.86,3.27-.21,4.98-1.71,5.25-4.58l.04-.84c0-5.22-4.3-11.96-6.27-12.63l-.19-.07-.2.04Z"/>
        <path class="cls-13" d="M62.8,34.57c0,.41.02.83.05,1.24.49,5.92,4.38,5.66,5.65,5.57,2.99-.21,4.43-1.5,4.68-4.21.02-.27.04-.55.04-.83,0-5.38-4.24-12.24-5.92-12.84-1.62.36-4.5,5.54-4.5,11.06Z"/>
        <path class="cls-18" d="M62.8,36.39c0,.3.02.61.05.91.49,4.35,4.38,4.15,5.65,4.09,2.99-.15,4.43-1.1,4.68-3.08.02-.2.04-.4.04-.61,0-3.95-2.11-9.66-5.92-9.41-1.62.26-4.5,4.06-4.5,8.11Z"/>
        <path class="cls-11" d="M63.06,37.39c0,.24.01.48.05.72.46,3.43,4.16,3.28,5.38,3.22,2.85-.12,4.22-.87,4.45-2.43.02-.16.03-.32.03-.48,0-3.11-1.61-7.97-5.63-7.43-1.54.21-4.28,3.21-4.28,6.4Z"/>
        <path class="cls-12" d="M57.11,47.62c7.19,1.14,10.9,19.4-3.73,16.43-13.71-2.78-1.03-17.19,3.73-16.43Z"/>
        <path class="cls-15" d="M48.61,57.23h0c-.54,2.89,1.15,4.78,5.02,5.6,3.25.69,5.7.21,7.07-1.37,1.52-1.75,1.79-5.03.66-8.17-.97-2.7-2.74-4.64-4.5-4.93-2.06-.34-7.43,4.5-8.26,8.86Z"/>
        <path class="cls-13" d="M49.11,57.52c-.2,1.09-.71,3.97,4.62,5.16h0c2.15.48,5.04.65,6.6-1.23,1.41-1.69,1.62-4.94.55-8.09-.9-2.63-2.54-4.58-4.08-4.85-1.43-.25-6.85,4.31-7.69,9.01Z"/>
        <path class="cls-18" d="M49.36,58.38c-.19.9-.68,3.28,4.39,4.25h0c2.05.39,4.79.54,6.28-1.01,1.33-1.4,1.54-4.08.52-6.68-.86-2.17-2.41-3.78-3.87-4-1.36-.2-6.51,3.56-7.31,7.44Z"/>
        <path class="cls-11" d="M49.88,57.81c-.17.7-.61,2.54,3.96,3.29h0c1.84.3,4.32.42,5.66-.79,1.2-1.08,1.39-3.16.46-5.17-.77-1.68-2.18-2.93-3.49-3.1-1.23-.16-5.87,2.76-6.59,5.76Z"/>
        <path class="cls-12" d="M43.08,27.24c7.29.98,12.13,22.93-4.39,20.74-14.5-1.93-3.37-21.79,4.39-20.74Z"/>
        <path class="cls-15" d="M36.53,31.14h0c-2.86,3.62-4.97,9.28-3.46,13.06.86,2.15,2.73,3.41,5.72,3.84,5.73.83,9.16-1.53,9.93-6.82.84-5.79-2.33-13.53-5.75-14.04-1.83-.27-4.3,1.25-6.44,3.96Z"/>
        <path class="cls-13" d="M36.89,31.5c-2.9,3.52-5.05,8.95-3.56,12.54.79,1.91,2.58,3.04,5.44,3.43,5.64.78,8.88-1.34,9.63-6.3.89-5.86-2.48-13-5.43-13.42-1.63-.23-4.03,1.24-6.09,3.74Z"/>
        <path class="cls-18" d="M37.46,34.28c-2.64,2.9-4.6,7.39-3.24,10.35.72,1.58,2.35,2.51,4.96,2.84,5.14.65,8.09-1.1,8.78-5.2.81-4.84-2.24-11.98-4.93-12.32-1.49-.19-3.68,2.26-5.56,4.33Z"/>
        <path class="cls-11" d="M36.86,36.12c-2.58,2.27-3.86,6.82-2.53,9.13.71,1.24,2.29,1.96,4.85,2.22,5.03.5,7.91-.86,8.59-4.07.79-3.79-2.53-9.85-5.16-10.12-1.46-.15-3.91,1.21-5.75,2.83Z"/>
        <path class="cls-12" d="M32.2-14.31c4.63-.31,12.27,16.87.12,17.04-10.1.14-5.24-16.7-.12-17.04Z"/>
        <path class="cls-15" d="M27.67-3.82v.45c.14,3.26,1.7,4.89,4.63,4.85,3.51-.05,5.25-1.59,5.31-4.72v-.17c0-4.39-3.41-9.54-5.23-9.65-2.03.15-4.71,4.83-4.71,9.25Z"/>
        <path class="cls-13" d="M32.33-12.32h0ZM32.29-12.84c1.25.08,4.73,4.96,4.73,9.55,0,.06,0,.11,0,.17-.05,2.91-1.52,4.23-4.77,4.28-1.05.02-3.86.06-4.03-4.43,0-.15,0-.3,0-.45,0-4.62,2.74-9.01,4.08-9.12Z"/>
        <path class="cls-12" d="M15.74,27.85c3.21-1.26,10.37,12.22,4.15,14.67-6.41,2.52-7.36-13.41-4.15-14.67Z"/>
        <path class="cls-15" d="M15.41,29.45c-.66.78-.9,2.64-.9,4.12,0,1.28.17,3.73,1.3,5.79.99,1.8,2.28,2.41,3.93,1.85.55-.18,2-.67,2-2.92l-.06-.84c-.51-3.82-3.81-7.84-5.53-8.25l-.45-.11-.3.35Z"/>
        <path class="cls-18" d="M14.8,33.48c0,1.84.37,3.99,1.39,5.67,1.19,1.96,2.44,1.89,3.51,1.57.58-.18,1.72-.52,1.72-2.3,0-.23-.02-.49-.06-.78-.58-3.87-4.32-7.65-5.72-7.96-.46.49-.83,1.98-.83,3.8Z"/>
        <path class="cls-13" d="M14.63,33.48c0,1.84.39,3.99,1.46,5.67,1.25,1.96,2.56,1.89,3.68,1.57.61-.18,1.8-.52,1.8-2.3,0-.23-.02-.49-.06-.78-.61-3.87-4.53-7.65-6.01-7.96-.48.49-.87,1.98-.87,3.8Z"/>
        <path class="cls-18" d="M15.48,35.02c0,1.45.33,3.14,1.22,4.46,1.04,1.54,2.14,1.49,3.07,1.24.51-.14,1.5-.41,1.5-1.81,0-.18-.02-.39-.05-.61-.51-3.04-2.61-7.1-5.01-6.26-.4.38-.72,1.56-.72,2.99Z"/>
        <path class="cls-11" d="M16.19,36.23c0,1.14.27,2.47,1.02,3.51.87,1.21,1.78,1.17,2.56.97.42-.11,1.25-.32,1.25-1.43,0-.15-.1-.31-.04-.48.75-2.24-1.87-5.99-4.19-4.93-.34.3-.6,1.23-.6,2.36Z"/>
        <path class="cls-12" d="M17.14-1.7c5.1,2.14,2.09,25.23-7.79,21.07C-.84,15.09,12.05-3.84,17.14-1.7Z"/>
        <path class="cls-15" d="M7.17,9.25h0c-2.28,5.79.04,8.11,2.4,9.04,1.32.52,2.57.53,3.73.03,1.65-.72,3.03-2.45,4.09-5.15,2-5.08,1.61-10.49.72-12.54-.29-.66-.64-1.07-1.08-1.24-2.13-.84-7.58,4.12-9.85,9.87Z"/>
        <path class="cls-13" d="M7.6,9.58c-1.74,4.61-1.04,7.59,2.08,8.87,3.77,1.55,6-1.95,7.22-5.16,2.39-6.31,1.49-13.51.06-14.1-1.47-.6-6.96,4.02-9.36,10.39Z"/>
        <path class="cls-18" d="M7.99,10.21c-.29,4.12-.4,6.14,2.26,7.29,3.22,1.39,5.29-1.33,6.46-3.85,2.3-4.96.56-10.03-1.8-10.46-1.32-.24-6.52,1.43-6.92,7.03Z"/>
        <path class="cls-11" d="M8.23,10.53c-.1,3.17-.12,4.72,2.45,5.51,3.1.95,4.95-1.2,5.95-3.18,1.97-3.88.1-7.71-2.15-7.96-1.26-.14-6.11,1.32-6.25,5.62Z"/>
        <path class="cls-12" d="M49.04,6.24c2.9-12.6,22.41,5.08,16.46,11.44-8.62,9.21-20.1,4.4-16.46-11.44Z"/>
        <path class="cls-15" d="M53.28,2.22h0c-1.42.22-2.38,1.49-2.85,3.78-1.91,9.2.74,14.08,3.58,15.46,3.04,1.48,7.02-.08,10.39-4.07,1.29-1.53,1.03-4.18-.71-7.28-2.62-4.65-7.48-8.34-10.4-7.89Z"/>
        <path class="cls-13" d="M53.14,2.55c-1.14.17-1.93,1.29-2.36,3.33h0c-1.92,9.18.61,13.98,3.35,15.3,2.87,1.38,6.71-.17,10.02-4.06,1.12-1.31.81-3.83-.84-6.72-2.57-4.53-7.42-8.28-10.18-7.85Z"/>
        <path class="cls-18" d="M53.51,5.85c-1.1.14-1.87,1.07-2.28,2.76h0c-1.86,7.59.59,11.57,3.24,12.66,2.77,1.14,6.49-.15,9.69-3.36,1.08-1.09.87-4.48-.72-6.88-2.49-3.75-7.26-5.54-9.93-5.19Z"/>
        <path class="cls-11" d="M55.19,7.62c-1.03.44-3.25,2.76-3.67,3.92l-.33,1c-1.88,5.22,1.01,7.87,3.7,8.62,2.81.79,4.31-.17,7.55-2.38,1.1-.75,2.36-5.27.75-6.92-2.52-2.58-4.08-5.92-8-4.25Z"/>
        <path class="cls-18" d="M28.49-2.71c0,.12,0,.25,0,.38.17,3.71,2.89,3.68,3.91,3.67,3.15-.04,4.57-1.13,4.62-3.54,0-.05,0-.09,0-.14,0-3.81-3.37-7.85-4.59-7.92-1.31.09-3.96,3.73-3.96,7.55Z"/>
        <path class="cls-11" d="M28.44-1.78c0,.1,0,.19,0,.29.17,2.86,2.92,2.83,3.96,2.82,3.18-.03,4.63-.87,4.68-2.73,0-.04,0-.07,0-.11,0-2.93-3.41-6.04-4.64-6.09-1.32.07-4.01,2.87-4.01,5.81Z"/>
        <path class="cls-10" d="M34.05,37.7s6.9-6.17,14.25-.06c0,0-1.26,10.14-7.69,9.73-6.74-.42-6.56-9.67-6.56-9.67Z"/>
        <path class="cls-16" d="M34.56,37.7s5.38-5.75,13.23-.06c0,0-1.12,10.14-7.16,9.73-6.32-.42-6.07-9.67-6.07-9.67Z"/>
        <path class="cls-14" d="M35.31,38.05s5.36-5.18,11.76-.05c0,0-.93,9.17-6.39,8.81-5.72-.38-5.37-8.76-5.37-8.76Z"/>
        <path class="cls-3" d="M35.06,38.12s4.94-3.23,11.39-.18c0,1.32.28,6.19-3.92,7.09.41-.66-.1-1.65-1.13-2.39,0,0-1.12,1.89-.51,2.55-1.74.08-6.14-1.89-5.83-7.08Z"/>
        <path class="cls-2" d="M35.13,37.64s4.97-3.08,11.46-.13c0,1.28-.03,4.11-3.04,5.63.41-.64-1.01-.39-2.03-1.11,0,0-1.99,1.4-1.37,2.04-1.75.08-5.32-1.4-5.01-6.43Z"/>
        <path class="cls-10" d="M50.54,14.6s2.82-9.06,12.03-4.53c0,0,4.17,8.44-3.21,10.06-8.21,1.8-8.82-5.53-8.82-5.53Z"/>
        <path class="cls-16" d="M50.97,14.43s2.38-7.49,11.16-4.21c0,0,3.97,7.35-2.59,9.6-7.14,2.45-8.57-5.39-8.57-5.39Z"/>
        <path class="cls-14" d="M51.72,14.48s3.81-5.51,9.93-3.73c0,0,2.31,7.5-2.43,8.93-4.97,1.5-7.51-5.19-7.51-5.19Z"/>
        <path class="cls-3" d="M51.54,14.61s3.09-4.09,9.57-3.72c.45,1.03,2.33,4.78-.91,6.8.12-.65-.64-1.26-1.76-1.52,0,0-.31,1.84.43,2.17-1.44.61-5.83.44-7.33-3.73Z"/>
        <path class="cls-2" d="M51.44,14.21s2.09-6.09,9.64-3.7c.43,1,1.37,3.23-.67,5.38.13-.63-.98.01-2.09-.23,0,0-1.21,1.72-.47,2.03-1.45.61-4.97.57-6.41-3.48Z"/>
        <path class="cls-10" d="M63.62,32.73s3.94-3.85,8.14,0c4.2,3.85-.83,8.47-3.94,8.07-6.3-.82-4.2-8.07-4.2-8.07Z"/>
        <path class="cls-16" d="M63.86,33.03s3.75-3.5,7.75,0-.79,7.7-3.75,7.33c-6-.75-4-7.33-4-7.33Z"/>
        <path class="cls-14" d="M64.25,34.32s3.85-2.88,7.49,0c2.79,2.21-.76,6.15-3.62,5.88-5.79-.55-3.86-5.88-3.86-5.88Z"/>
        <path class="cls-3" d="M65.61,33.62s4.5-1.67,6.17,1.33-2.17,4.75-3.33,4.75c.17-.75.5-2.5-.17-2.08-.67.42-1,2.08-1,2.08-1.33-1.17-4.75-3.67-1.67-6.08Z"/>
        <path class="cls-2" d="M65.53,33.59s4.5-1.39,6.17,1.11c1.67,2.5-2.17,3.96-3.33,3.96.17-.62.5-2.08-.17-1.74-.67.35-1,1.74-1,1.74-1.33-.97-4.75-3.05-1.67-5.07Z"/>
        <path class="cls-12" d="M-4.76,22.12c3.93-.45,13.81,19.76,1.35,20.62-11.83.82-6.87-20-1.35-20.62Z"/>
        <path class="cls-15" d="M-4.84,23.41c-2.17.46-4.97,5.87-4.97,11l.05,1.22c.25,2.84,1.54,6.17,6.3,5.86,3.26-.21,4.98-1.71,5.25-4.58l.04-.84c0-5.22-4.3-11.96-6.27-12.63l-.19-.07-.2.04Z"/>
        <path class="cls-13" d="M-9.2,34.57c0,.41.02.83.05,1.24.49,5.92,4.38,5.66,5.65,5.57,2.99-.21,4.43-1.5,4.67-4.21.02-.27.04-.55.04-.83,0-5.38-4.24-12.24-5.92-12.84-1.62.36-4.5,5.54-4.5,11.06Z"/>
        <path class="cls-18" d="M-9.2,36.39c0,.3.02.61.05.91.49,4.35,4.38,4.15,5.65,4.09,2.99-.15,4.43-1.1,4.67-3.08.02-.2.04-.4.04-.61,0-3.95-2.11-9.66-5.92-9.41-1.62.26-4.5,4.06-4.5,8.11Z"/>
        <path class="cls-11" d="M-8.94,37.39c0,.24.01.48.05.72.46,3.43,4.16,3.28,5.38,3.22,2.85-.12,4.22-.87,4.45-2.43.02-.16.03-.32.03-.48,0-3.11-1.61-7.97-5.63-7.43-1.54.21-4.28,3.21-4.28,6.4Z"/>
        <path class="cls-10" d="M-8.38,32.73s3.94-3.85,8.14,0c4.2,3.85-.83,8.47-3.94,8.07-6.3-.82-4.2-8.07-4.2-8.07Z"/>
        <path class="cls-16" d="M-8.14,33.03s3.75-3.5,7.75,0-.79,7.7-3.75,7.33c-6-.75-4-7.33-4-7.33Z"/>
        <path class="cls-14" d="M-7.75,34.32s3.85-2.88,7.49,0c2.79,2.21-.76,6.15-3.62,5.88-5.79-.55-3.86-5.88-3.86-5.88Z"/>
        <path class="cls-3" d="M-6.39,33.62s4.5-1.67,6.17,1.33-2.17,4.75-3.33,4.75c.17-.75.5-2.5-.17-2.08-.67.42-1,2.08-1,2.08-1.33-1.17-4.75-3.67-1.67-6.08Z"/>
        <path class="cls-2" d="M-6.48,33.59s4.5-1.39,6.17,1.11c1.67,2.5-2.17,3.96-3.33,3.96.17-.62.5-2.08-.17-1.74s-1,1.74-1,1.74c-1.33-.97-4.75-3.05-1.67-5.07Z"/>
        <path class="cls-10" d="M35.07,15.97s-4.6-4.81-6.34,1.45c-1.74,6.26,9.64,3.72,6.34-1.45Z"/>
        <path class="cls-16" d="M34.85,16.27s-4.29-4-5.9,1.21c-1.62,5.2,8.97,3.09,5.9-1.21Z"/>
        <path class="cls-14" d="M34.55,16.27s-3.84-4-5.28,1.21c-1.45,5.2,7.68,2.23,5.28-1.21Z"/>
        <path class="cls-3" d="M29.36,17.39s.17-3.52,4.67-1.02c.5.83,1.33,2.25-1,3,.25-.5-.83-1-1.17-.75s-.17,1.42-.17,1.42c0,0-2.98.81-2.33-2.65Z"/>
        <path class="cls-2" d="M29.57,17.42s.15-3.06,4.31-.89c.46.72,1.51,1.51-.65,2.17.23-.43-1.38-1.09-1.69-.88-.31.22-.38,1.62-.38,1.62,0,0-2.2.97-1.6-2.03Z"/>
        <path class="cls-10" d="M9.03,7.95s7.02-5.01,7.83,1.75c1.17,9.67-6.75,8.5-6.75,8.5,0,0-6.67-3.08-1.08-10.25Z"/>
        <path class="cls-16" d="M9.11,8.5s7.68-4.3,7.61,1.53c-.11,9.25-6.56,7.44-6.56,7.44,0,0-6.48-2.7-1.05-8.97Z"/>
        <path class="cls-14" d="M9.59,8.64s6.33-4.14,6.27,1.47c-.1,8.51-5.4,7.16-5.4,7.16,0,0-5.33-2.6-.87-8.64Z"/>
        <path class="cls-3" d="M9.69,8.7s3.08-2.67,5.33.92c.83,1.67-.83,6.58-3.17,6.08.25-.5-.33-2-.83-1.75s-.67,1.25-.67,1.25c0,0-4.42-1.67-.67-6.5Z"/>
        <path class="cls-2" d="M9.74,9.26s2.91-1.87,5.03.64c.08.7-.79,4.61-2.99,4.26.24-.35-.31-1.4-.79-1.23-.47.17-.63.88-.63.88,0,0-4.17-1.17-.63-4.55Z"/>
        <path class="cls-10" d="M20.15,35.16s-5.49-.61-4.48,2.48c1.25,3.81,7.54,4.58,4.48-2.48Z"/>
        <path class="cls-16" d="M20.03,35.53s-5.11-.43-4.17,2.17c1.16,3.21,6.96,4.45,4.17-2.17Z"/>
        <path class="cls-14" d="M19.78,35.73s-4.22-.73-3.46,1.97c.95,3.33,5.77,4.21,3.46-1.97Z"/>
        <path class="cls-3" d="M19.78,35.99s-1.42-.92-3,.54c-1.58,1.46,1.54,3.29,2.04,3.38.12-.42.25-1.71.71-1.46s1.33-.12.25-2.46Z"/>
        <path class="cls-2" d="M19.59,36.22s-1.2-.79-2.54.47c-1.34,1.26,1.13,2.56,1.55,2.63.11-.36.32-1.4.71-1.19s1.2.11.28-1.91Z"/>
        <path class="cls-10" d="M51.8,54.76s4.94-3.75,8.75,1.31c.94,4.44-3.69,8.62-8.81,5.12-5.13-3.5-.25-6.19.06-6.44Z"/>
        <path class="cls-16" d="M51.83,55.35s4.89-3.08,8.66,1.08c.93,3.65-3.65,7.09-8.72,4.21-5.07-2.88-.25-5.08.06-5.29Z"/>
        <path class="cls-14" d="M52.17,55.47s4.38-2.95,7.76,1.03c.83,3.49-3.27,6.79-7.82,4.04-4.55-2.76-.22-4.87.06-5.07Z"/>
        <path class="cls-3" d="M51.3,56.7s4.41-3.91,8.31,0c.12,1-1.19,4.12-3.19,3.88.62-1-.25-1.31-1.06-.62s-1,1.19-2.19.38-2.88-2.44-1.88-3.62Z"/>
        <path class="cls-2" d="M51.49,56.9s4.21-2.93,7.94,0c.12.75-1.13,3.09-3.04,2.91.6-.75-.24-.98-1.02-.47-.78.52-.95.89-2.09.28-1.13-.61-2.75-1.83-1.79-2.72Z"/>
        <path class="cls-10" d="M78.61,53.2s-5.13.66-4.86,3.7c.28,3.05,3.2,11.26,8.21,7.15,5.01-4.11,6.04-10.22-3.35-10.86Z"/>
        <path class="cls-16" d="M78.64,54.07s-4.22,1-3.97,3.69,2.88,9.94,7.38,6.31,5.03-9.44-3.41-10Z"/>
        <path class="cls-14" d="M78.67,54.36s-4.25,1.38-4,3.67,2.88,8.46,7.38,5.37c4.5-3.09,5.06-8.56-3.38-9.04Z"/>
        <path class="cls-3" d="M81.98,55.89s-7.69-.19-5.88,4.19,3.44,3.88,4.38,3.38.31-2.7.94-1.94c.81,1,6.12-3.5.56-5.62Z"/>
        <path class="cls-2" d="M81.8,56.92s-6.86-.14-5.24,3.08c1.62,3.22,3.06,2.86,3.9,2.49.84-.37.28-1.99.84-1.43.72.74,5.46-2.58.5-4.14Z"/>
        <path class="cls-12" d="M11.11,65.81c.85-.41,7.5-6.24,3.64-11.79-3.86-5.55-11.82-8.34-14.24-6.71-3.09,2.08-2.65,24.86,10.6,18.5Z"/>
        <path class="cls-15" d="M.86,48.23l-.14.07-.09.12c-.71.93-.97,3.43-.97,5.29s.25,6.54,2.56,9.65c1.97,2.65,4.76,3.11,8.52,1.41.85-.52,3.75-3.12,4.34-6.02l.11-1.05c0-1.05-.35-2.05-1.03-2.98-3.78-5.16-11.33-7.55-13.3-6.48Z"/>
        <path class="cls-13" d="M.99,48.7c-.47.6-.84,2.54-.84,4.94,0,3.1.63,6.92,2.5,9.4,1.15,1.52,3.21,3.29,7.89,1.2.72-.44,3.5-2.92,4.06-5.62.07-.31.1-.62.1-.93,0-.92-.3-1.77-.92-2.6-3.91-5.27-11.35-7.17-12.78-6.4Z"/>
        <path class="cls-18" d="M3.82,50.95c-1.28.21-2.03,3.29-2.03,5.12,0,2.37.84,4.61,2.33,6.5.92,1.16,3.01,3.22,6.75,1.62.58-.34,3.38-3.59,3.82-5.65.05-.24.08-.48.08-.71,0-.7-.24-1.36-.74-1.99-3.12-4.03-9.08-5.48-10.22-4.9Z"/>
        <path class="cls-11" d="M4.18,53.33c-.36.38-1.37,2.6-1.37,4.1,0,1.95.24,3.88,1.66,5.44.87.95,2.86,2.64,6.4,1.33.55-.28,3.2-2.95,3.63-4.64.05-.2.08-.39.08-.58,0-.58-.23-1.12-.7-1.63-2.96-3.3-7.25-6.52-9.7-4.02Z"/>
        <path class="cls-10" d="M7,53.2s-5.13.66-4.86,3.7c.28,3.05,3.2,11.26,8.21,7.15,5.01-4.11,6.04-10.22-3.35-10.86Z"/>
        <path class="cls-16" d="M7.03,54.07s-4.22,1-3.97,3.69,2.88,9.94,7.38,6.31,5.03-9.44-3.41-10Z"/>
        <path class="cls-14" d="M7.06,54.36s-4.25,1.38-4,3.67,2.88,8.46,7.38,5.37c4.5-3.09,5.06-8.56-3.38-9.04Z"/>
        <path class="cls-3" d="M10.38,55.89s-7.69-.19-5.88,4.19,3.44,3.88,4.38,3.38.31-2.7.94-1.94c.81,1,6.12-3.5.56-5.62Z"/>
        <path class="cls-2" d="M10.19,56.92s-6.86-.14-5.24,3.08c1.62,3.22,3.07,2.86,3.9,2.49.84-.37.28-1.99.84-1.43.72.74,5.46-2.58.5-4.14Z"/>
        <path class="cls-10" d="M32.48-6.34s2.33-.75,3.33,1.46c1,2.21,1.96,5.29-1.17,5.71-3.12.42-6.62-.2-6.17-3.54.46-3.34,4-3.63,4-3.63Z"/>
        <path class="cls-16" d="M32.5-5.98s2.23-.68,3.18,1.31c.95,1.99,1.87,4.76-1.11,5.14-2.98.38-6.32-.18-5.89-3.18.44-3.01,3.82-3.27,3.82-3.27Z"/>
        <path class="cls-14" d="M32.53-5.94s1.87-.67,2.68,1.29c.8,1.96,1.57,4.71-.94,5.08-2.51.37-5.32-.17-4.95-3.14.37-2.97,3.21-3.23,3.21-3.23Z"/>
        <path class="cls-3" d="M30.44-4.63s2.94-2.39,4.79.43c1.85,2.81.78,4.44-.41,4.59-.25-.47-1.94-1.25-2.88-.25-.66.38-3.88-.83-1.51-4.77Z"/>
        <path class="cls-2" d="M30.63-3.93s2.74-1.59,4.46.29c1.72,1.88.73,2.96-.38,3.06-.23-.31-1.81-.83-2.68-.17-.61.25-3.62-.55-1.41-3.18Z"/>
        <path class="cls-12" d="M32.2,57.69c4.63-.31,12.27,16.87.12,17.04-10.1.14-5.24-16.7-.12-17.04Z"/>
        <path class="cls-15" d="M27.67,68.18v.45c.14,3.26,1.7,4.89,4.63,4.85,3.51-.05,5.25-1.59,5.31-4.72v-.17c0-4.39-3.41-9.54-5.23-9.65-2.03.15-4.71,4.83-4.71,9.25Z"/>
        <path class="cls-13" d="M32.33,59.68h0ZM32.29,59.16c1.25.08,4.73,4.96,4.73,9.55,0,.06,0,.11,0,.17-.05,2.91-1.52,4.23-4.77,4.28-1.05.02-3.86.06-4.03-4.43,0-.15,0-.3,0-.45,0-4.62,2.74-9.01,4.08-9.12Z"/>
        <path class="cls-18" d="M28.49,69.29c0,.12,0,.25,0,.38.17,3.71,2.89,3.68,3.91,3.67,3.15-.04,4.57-1.13,4.62-3.54,0-.04,0-.09,0-.14,0-3.81-3.37-7.85-4.59-7.92-1.31.09-3.96,3.73-3.96,7.55Z"/>
        <path class="cls-11" d="M28.44,70.22c0,.1,0,.19,0,.29.17,2.86,2.92,2.83,3.96,2.82,3.18-.03,4.63-.87,4.68-2.73,0-.04,0-.07,0-.11,0-2.93-3.41-6.04-4.64-6.09-1.32.07-4.01,2.87-4.01,5.81Z"/>
        <path class="cls-10" d="M32.48,65.66s2.33-.75,3.33,1.46c1,2.21,1.96,5.29-1.17,5.71-3.12.42-6.62-.2-6.17-3.54.46-3.34,4-3.63,4-3.63Z"/>
        <path class="cls-16" d="M32.5,66.02s2.23-.68,3.18,1.31c.95,1.99,1.87,4.76-1.11,5.14-2.98.38-6.32-.18-5.89-3.18.44-3.01,3.82-3.27,3.82-3.27Z"/>
        <path class="cls-14" d="M32.53,66.06s1.87-.67,2.68,1.29c.8,1.96,1.57,4.71-.94,5.08-2.51.37-5.32-.17-4.95-3.14.37-2.97,3.21-3.23,3.21-3.23Z"/>
        <path class="cls-3" d="M30.44,67.37s2.94-2.39,4.79.43c1.85,2.81.78,4.44-.41,4.59-.25-.47-1.94-1.25-2.88-.25-.66.38-3.88-.83-1.51-4.77Z"/>
        <path class="cls-2" d="M30.63,68.07s2.74-1.59,4.46.29c1.72,1.88.73,2.96-.38,3.06-.23-.31-1.81-.83-2.68-.17-.61.25-3.62-.55-1.41-3.18Z"/>
        <path class="cls-8" d="M40.35,49.11s.23,9.69,1.16,12.45c-.93-2.76-2.01-10.86-2-12.54l.84.09Z"/>
        <path class="cls-8" d="M8.66,20.41s-4.14,8.76-4.55,11.64c.41-2.88,3.07-10.61,3.83-12.1l.71.46Z"/>
        <path class="cls-8" d="M19.58,43.69s3.37,9.08,3.53,11.99c-.16-2.91-2.15-10.83-2.78-12.39l-.75.39Z"/>
        <path class="cls-9" d="M41.48,55.7s-.5-2.25,1.5-4,8-3.5,9.5-9.88-6-13.25-3.25-17.75c-2,2-.62,5.62,0,6.75s3.59,8.11,2.62,11c-1.12,3.38-5.88,7.88-9,9.25s-1.38,4.62-1.38,4.62Z"/>
        <path class="cls-8" d="M45.86,36.07s2.13-2.5-.25-9c1.62,2.38,2.25,6.12.25,9Z"/>
        <path class="cls-9" d="M40.73,28.2s-2.12-1.25-1.88-4,1.88-4.38,2.38-7.62,3.38-6.88-.12-12c2,1.5,3.25,5.12.5,12.38s-2.12,10.25-.88,11.25Z"/>
        <path class="cls-9" d="M44.36,27.32s-2.12-1.25-3.38-.5c.5-1,2.38-1,3.38.5Z"/>
        <path class="cls-9" d="M53.86,46.95s3.25-4.12,1.62-8.62-4.5-8.75-3.88-11.12c1.12,4.5,2.29,5.27,3.12,6.75,1.12,2,3.62,9.75-.88,13Z"/>
        <path class="cls-9" d="M60.36,24.32s-3.75,2.62-9.12-1.62c-5.38-4.25-5.63-10.5-4-16.5,1.63-6,3-8.25,1.13-11.25,2.5,2.37,2.38,7.75-.63,12-3,4.25,1.63,14,4,15.5s8.62,1.88,8.62,1.88Z"/>
        <path class="cls-9" d="M60.73,24.7s-6.75,3.25-11-2.25c1,2.88,7.12,6.12,11,2.25Z"/>
        <path class="cls-9" d="M61.11,25.2s-3.88,3.62-9.12.88c3.12,2.75,8,2.5,9.12-.88Z"/>
        <path class="cls-8" d="M64.28,20.78s4.38.38,4.5-5.62-4.75-11.75-9.62-14-6.12-4-5.38-5.87c-1.38,1.37-1.12,2.87,5.25,6.62s13.12,13.25,5.25,18.88Z"/>
        <path class="cls-9" d="M65.15,20.82s5.38,0,5.88-4.75-.5-11.25-6.38-14.12-7-4.38-6.38-5.25c-.62.87-1.25,1.75,6.25,6.37s7.75,16.62.62,17.75Z"/>
        <path class="cls-8" d="M63.11,20.45s7.12-6.62-3.25-15.12c2.88.62,11.38,10,3.25,15.12Z"/>
        <path class="cls-9" d="M38.23,57.32s-1.12-4.75-5.88-7.5-8.38-5.75-3.5-14.62,10.25-14.25,10.25-17.5c.12,4.62-6.88,14.5-9.38,17.75s-3.75,8.75,2.62,13.75,5.62,6.38,5.88,8.12Z"/>
        <path class="cls-9" d="M58.11,37.57s-2.25-5.25,1.38-8.88c-2.88,1.12-4,5.75-1.38,8.88Z"/>
        <path class="cls-9" d="M66.73,49.07s-6.62-.38-9.5-6.25c.62,2.5,2.88,6.75,9.5,6.25Z"/>
        <path class="cls-9" d="M40.86,50.62s.12-1.95,2.25-2c3.58-.08,8-4,7.75-8.62-1.08,3.12-3,7.38-7.25,8s-2.75,2.62-2.75,2.62Z"/>
        <path class="cls-8" d="M38.36,53.07s-.88-1.75-4-3.88-6.62-3.75-5.75-8.12,5.75-8.75,7.38-11.88c-.12,2.62-7,7.88-6.25,12.25s8.12,7.88,8.62,11.62Z"/>
        <path class="cls-9" d="M21.73,42.57s2.88-.5,2.25-4.75-2.38-6.25-6.88-11.62-1.12-5.88-1.12-5.88c-.12,1.75-.25,3.75,1.75,5.75s12.38,14.75,4,16.5Z"/>
        <path class="cls-9" d="M22.48,44.07s4.88-1.75,3.25-8.5-11.25-11-7.38-17.12c-.12,4.12.12,5.12,1.38,6.62s5.88,8.25,6.5,10.5.88,9-3.75,8.5Z"/>
        <path class="cls-9" d="M19.11,44.82s-9.42-3.68-5.62-16.5c2-6.75-1.25-7.12-1.25-7.12,1.12,1.5,2,3.75.75,6.5s-3.88,14.62,6.12,17.12Z"/>
        <path class="cls-8" d="M19.36,47.07s-12-3.5-9-16.5-.62-9.38-.62-9.38c1-2.12,2-1,2.25.38s-.38,7-1,9.5-1.38,11.38,8.38,16Z"/>
        <path class="cls-8" d="M47.61,20.7s-4.12-4.5-2-12.62,3.13-12.87.38-14.5c3,4.5-.35,11.56-.75,12.75-.62,1.88-2.38,13.25,2.38,14.38Z"/>
        <path class="cls-8" d="M45.86,26.7s.62-4-1.5-6.75-.62-4.38-.62-4.38c-1.62,1.5-.62,4.25.12,5.12s1.38,2.88,2,6Z"/>
        <path class="cls-8" d="M42.61,25.7s-1.12-1-1.5-4.62c-.12.75-.5,3.38,1.5,4.62Z"/>
        <path class="cls-8" d="M43.98,25.45s.38-2-.62-3.62-1.88-2.5-1-4.75c-1.12,1.88-1.14,3.27.62,5.25,1,1.12,1,3.12,1,3.12Z"/>
        <path class="cls-9" d="M-.52,45.7s2.12.75,4.38-2.12,1.12-8.5,3.5-10c-1.12,2.38-1.25,4.75-1.25,4.75,0,0,.88,10-6.62,7.38Z"/>
        <path class="cls-9" d="M-1.14,43.95s1,.75,3.25-1.25c2.91-2.58.5-9.38,4.38-11.12-1.5,2-2.25,4.25-2.25,5.62s-1.88,11.5-5.38,6.75Z"/>
        <path class="cls-9" d="M3.73,45.82s4-.38,4.25-5.75.12-10.38,1.75-11.88c-.75,3.25-1.38,3.88-1,5.88s.62,12.25-5,11.75Z"/>
        <path class="cls-8" d="M20.4,47.66s-7.5-.12-10.38-7.38c.12,3,3.62,8.75,10.38,7.38Z"/>
        <path class="cls-8" d="M22.36,45.95s2,.5,3.12-2.38c.12,2-.62,3.25-3.12,2.38Z"/>
        <path class="cls-8" d="M82.73,67.45s-1.12,2.12-4.75.62-9.38-5.75-9.12-11.88,1.12-9.12,1.12-9.12c-2.62,4.88-2,12.25-.75,14.38s10.25,12.62,13.5,6Z"/>
        <path class="cls-8" d="M69.36,44.7s2.38.12,3.88-1.88c-.12,1-1.62,2.88-3.88,1.88Z"/>
        <path class="cls-8" d="M68.86,45.57s3.75,1.12,5.5-1.12c.25,1.38-3.5,2.88-5.5,1.12Z"/>
        <path class="cls-8" d="M80.73,70.7s-12.38-1.62-13-13.12c-1.38,4,1.12,12.88,13,13.12Z"/>
        <path class="cls-8" d="M10.73,67.45s-1.12,2.12-4.75.62-9.38-5.75-9.12-11.88,1.12-9.12,1.12-9.12c-2.62,4.88-2,12.25-.75,14.38s10.25,12.62,13.5,6Z"/>
        <path class="cls-8" d="M8.73,70.7s-12.38-1.62-13-13.12c-1.38,4,1.12,12.88,13,13.12Z"/>
        <path class="cls-8" d="M54.56,64.66s1.71,3.79-.29,5.61c2.71-1.29,1.48-5.28,1.48-5.28l-1.19-.33Z"/>
        <path class="cls-9" d="M56.73,66.2s4.3,1.7,6.58-1.7c2.29-3.4,1.1-10.21,2.83-12.63-2.06,1.28-2.34,10-3.04,11.75-1.13,2.83-6.38,2.59-6.38,2.59Z"/>
        <path class="cls-8" d="M56.61,66.45s8.38,3.25,9.5-3.5c.62,2.75-3.88,7.62-9.5,3.5Z"/>
        <path class="cls-9" d="M57.11,67.28s4.17,4.33,12-1.5c.12,1.62-8.75,7-12,1.5Z"/>
        <path class="cls-9" d="M53.73,64.32s-5.5.88-7.13-3.5c-1.62-4.38.25-7.62,1.38-8.62-2.38,1.5-3.75,5.38-1.88,8.88,1.88,3.5,5.13,5.38,7.63,3.25Z"/>
        <path class="cls-8" d="M53.73,65.95s-9.88,2-9.63-7.75c-1.25,4.38,2.38,11,9.63,7.75Z"/>
        <path class="cls-9" d="M60.36,96.32s-3.75,2.63-9.12-1.62c-5.38-4.25-5.63-10.5-4-16.5,1.63-6,3-8.25,1.13-11.25,2.5,2.38,2.38,7.75-.63,12-3,4.25,1.63,14,4,15.5s8.62,1.88,8.62,1.88Z"/>
        <path class="cls-8" d="M47.61,92.7s-4.12-4.5-2-12.62,3.13-12.88.38-14.5c3,4.5-.35,11.56-.75,12.75-.62,1.88-2.38,13.25,2.38,14.38Z"/>
        <path class="cls-8" d="M6.86,19.57S-1.77,14.7,5.73,5.57C13.23-3.55,14.61-5.68,13.73-6.3c1.62,1.75-.25,3.87-2.12,5.87S-1.77,12.57,6.86,19.57Z"/>
        <path class="cls-8" d="M15.23,19.7s3.25-.38,5-5.5,2-8.38,1.12-11-2-8.12.12-10.37c-1.75,1-2.75,7.37-1.38,10.75s0,13.5-4.88,16.12Z"/>
        <path class="cls-8" d="M19.73,16.2S24.98,7.45,22.11.32c1.5,2.62,3.38,10.75-2.38,15.88Z"/>
        <path class="cls-8" d="M18.98,18.57s11.62-3.62,4.88-17c.88,6.75,3.38,10.38-4.88,17Z"/>
        <path class="cls-8" d="M33.86,23.2s5.12-3.5,4.25-7.88-4.62-5.62-3.88-8.12c1,2.12,2.88,4.38,2.88,4.38,0,0,5.25,7.25-3.25,11.62Z"/>
        <path class="cls-8" d="M39.61,16.2s1-3.25-.88-5-4.12-5.38-1.25-7.38c-2.88,2-2.78,4.38.25,7.62,1.75,1.88,1.88,4.75,1.88,4.75Z"/>
        <polygon class="cls-8" points="32.23 22.95 32.98 23.07 31.98 28.82 32.23 22.95"/>
        <path class="cls-8" d="M31.11,23.82s-9.38-1.38-5.5-8.88c-2,1.5-4,8.75,5.5,8.88Z"/>
        <path class="cls-8" d="M30.73,24.95s-9.88,1-8.62-5.5c1.75,2.88-.88,3.5,8.62,5.5Z"/>
        <path class="cls-8" d="M27.48,35.2s1.88-1.12-.62-4.88-7-6.75-5.88-10.38c-2.38,3.25,1.25,6.62,2.75,8.25s4.75,3.5,3.75,7Z"/>
        <path class="cls-8" d="M30.98,26.32s-5.25.12-6.25-1.12c.38,1.75,3.75,2.5,6.25,1.12Z"/>
        <path class="cls-8" d="M29.11,32.7s1.25-2.88-1.5-4.12c2-.75,3.5,2.75,1.5,4.12Z"/>
        <path class="cls-8" d="M37.73,60.57s-.12-5.12-3.5-6.62-9.12-3.38-8.38-6.75c1.25,2.88,4.62,4.5,6.5,5s6.5,3.5,5.38,8.38Z"/>
        <path class="cls-9" d="M36.73,58.32c-.52-3.69-5.45-3.07-8-3.76-3.05-.83-4.49-3.01-4.5-6.12-.75,2.62.25,5.12,4.38,7s5.62-.5,8.12,2.88Z"/>
        <path class="cls-8" d="M23.23,55.45c.9-1.9,3.77.08,4.23,1.37.76,2.13-.51,4.4-1.48,6.2-1.64,3.04-1.72,5.96.52,8.88,1.56,2.03,3.64,3.65,5.98,4.64-2,.28-5.13-1.97-6.63-4.1s-3.25-7-.88-9.75,1.62-9.38-1.75-7.25Z"/>
        <path class="cls-9" d="M34.36,75.32c1.91-.59,3.8.24,5.15-1.65,1.54-2.17,1.43-4.42.6-6.84-.58-1.68-2.04-3.9-1.16-5.69.94-1.91,3.13-.36,3.53,1.18-1.25-.5-4.25-1-2.62,2s2.62,7.88.5,9.88-6,1.12-6,1.12Z"/>
        <path class="cls-8" d="M23.23-16.55c.9-1.9,3.77.08,4.23,1.37.76,2.13-.51,4.4-1.48,6.2-1.64,3.04-1.72,5.96.52,8.88,1.56,2.03,3.64,3.65,5.98,4.64-2,.28-5.13-1.97-6.63-4.1s-3.25-7-.88-9.75,1.62-9.37-1.75-7.25Z"/>
        <path class="cls-9" d="M34.36,3.32c1.91-.59,3.8.24,5.15-1.65,1.54-2.17,1.43-4.41.6-6.84-.58-1.68-2.04-3.9-1.16-5.69.94-1.91,3.13-.36,3.53,1.18-1.25-.5-4.25-1-2.62,2s2.62,7.87.5,9.87-6,1.12-6,1.12Z"/>
        <polygon class="cls-8" points="13.86 64.57 18.61 69.2 14.86 63.95 13.86 64.57"/>
        <path class="cls-8" d="M13.73,50.2c1.1.5,2.84.99,3.5,1.5,2.04,1.58,2.88,3.37,2.75,6-.08,1.61-.83,5.59-3.13,5.62v.25c2.47-.04,3.67-4.09,3.75-5.78.14-2.71-1.04-5.3-3.15-6.92-.69-.53-1.74-1.01-2.86-1.51-2.66-1.21-5.68-2.58-5.38-5.27l-.25-.03c-.33,2.87,2.01,4.89,4.75,6.14Z"/>
        <path class="cls-9" d="M15.98,61.95c1.87-.92,2.88-3.77,2.47-5.75-.44-2.17-2.68-2.28-3.47-4,.5,2.25,2.75,2.88,2.75,4.25s-.38,4.12-1.75,5.5Z"/>
        <path class="cls-8" d="M16.61,64.07s6.75,1.88,5-8.38c1.62,3.12.5,11.75-5,8.38Z"/>
        <path class="cls-8" d="M6.86,91.57s-8.62-4.88-1.12-14,8.88-11.25,8-11.88c1.62,1.75-.25,3.88-2.12,5.88s-13.38,13-4.75,20Z"/>
        <path class="cls-8" d="M15.23,91.7s3.25-.38,5-5.5,2-8.38,1.12-11-2-8.12.12-10.38c-1.75,1-2.75,7.38-1.38,10.75s0,13.5-4.88,16.12Z"/>
        <path class="cls-8" d="M30.61,6.2s-4.25-1.38-5.75-4.88c.38,1.75,1.25,5.38,5.75,4.88Z"/>
        <path class="cls-8" d="M21.48,49.45s-7.12-.62-9.5-4.38c.5,1.62,4.25,5.12,9.5,4.38Z"/>
        <path class="cls-8" d="M40.86,13.45s1.12-1.88-.12-3.5-3.12-2.88-.5-5.38c-2.25.5-3.6,3.17-.62,5.5,1.75,1.38,1.25,3.38,1.25,3.38Z"/>
        <path class="cls-9" d="M6.98,19.82S-.39,15.45,2.36,9.57,10.03.24,8.28-1.88c-.5,1.12-1.92,4.71-3.67,6.71-1.21,1.39-5.62,7.88-1.62,12.88,1.77,2.21,4,2.12,4,2.12Z"/>
        <path class="cls-9" d="M6.23,20.95s-5.25-.62-5.5-3.75c-.5,3.12,1.88,5.12,5.5,3.75Z"/>
        <path class="cls-9" d="M5.61,22.45s-3.38.75-4.75-1.12c.88,1.75,1.62,2.62,4.75,1.12Z"/>
        <path class="cls-9" d="M3.61,32.2s-.25-2.75-1.25-4.62.5-3.5,2.75-2.38c-.5-1.5-4.75-2-3.12,2.5l1.62,4.5Z"/>
        <path class="cls-8" d="M8.48,22.95s1.38,1.12,2.38.12c0,0-1.12,2.38-2.38-.12Z"/>
        <path class="cls-8" d="M5.98,28.07s4.25-.62,4.62-3.62c-1.25,1-2.75,3-4.62,3.62Z"/>
        <path class="cls-8" d="M74.61-4.55c1.62,2.12,2.02,4.44.53,6.46-1.41,1.91-2.21,2.64-3.17,4.07-1.26,1.88-1.46,6.2.8,7.31-1.54-2.33-.88-5.29-.04-6.58,1.38-2.12,7.71-7.58,1.88-11.25Z"/>
        <path class="cls-8" d="M2.61-4.55C4.23-2.43,4.63-.11,3.14,1.91,1.73,3.82.93,4.55-.03,5.98c-1.26,1.88-1.46,6.2.8,7.31-1.54-2.33-.88-5.29-.04-6.58,1.38-2.12,7.71-7.58,1.88-11.25Z"/>
        <path class="cls-8" d="M65.07-2.18s-.25,2.12,1.25,2.88,4.75-.25,5.12,2.12c.38-1.75,0-3.12-2.88-2.38-2.3.6-3.5-2.62-3.5-2.62Z"/>
        <path class="cls-8" d="M64.28,92.78s4.38.38,4.5-5.62-4.75-11.75-9.62-14-6.12-4-5.38-5.88c-1.38,1.38-1.12,2.88,5.25,6.62s13.12,13.25,5.25,18.88Z"/>
        <path class="cls-9" d="M65.15,92.82s5.38,0,5.88-4.75-.5-11.25-6.38-14.12-7-4.38-6.38-5.25c-.62.88-1.25,1.75,6.25,6.38s7.75,16.62.62,17.75Z"/>
        <path class="cls-8" d="M65.07,69.82s-.25,2.12,1.25,2.88,4.75-.25,5.12,2.12c.38-1.75,0-3.12-2.88-2.38-2.3.6-3.5-2.62-3.5-2.62Z"/>
        <path class="cls-8" d="M43.61,63.45c-3.33,2.5-.09,6.73.18,8.17.38,2.09-.52,3.01-2.34,3.83,1.83.5,4.33-1.91,3.33-3.83-2.67-5.17-1.17-8.17-1.17-8.17Z"/>
        <path class="cls-8" d="M43.61-8.55c-3.33,2.5-.09,6.73.18,8.17.38,2.09-.52,3.01-2.34,3.83,1.83.5,4.33-1.91,3.33-3.83-2.67-5.17-1.17-8.17-1.17-8.17Z"/>
        <path class="cls-8" d="M71.11,17.28s1,4.33-1.17,4.5c.5-1.67,1.17-4.5,1.17-4.5Z"/>
        <path class="cls-9" d="M70.44,67.45s0,4-7.75,2.5c2.25-.25,5.75-1,7.75-2.5Z"/>
        <path class="cls-9" d="M1.61-1.55s1.33,2,.17,3.33C.61,3.12-2.72,4.95-2.22,6.78-2.89,5.45-.56,1.95.61,1.62c1.17-.33,1-3.17,1-3.17Z"/>
        <path class="cls-9" d="M6.98,91.82s-7.38-4.38-4.62-10.25,7.67-9.33,5.92-11.46c-.5,1.12-1.92,4.71-3.67,6.71-1.21,1.39-5.62,7.88-1.62,12.88,1.77,2.21,4,2.12,4,2.12Z"/>
        <path class="cls-8" d="M2.61,67.45c1.62,2.12,2.02,4.44.53,6.46-1.41,1.91-2.21,2.64-3.17,4.07-1.26,1.88-1.46,6.2.8,7.31-1.54-2.33-.88-5.29-.04-6.58,1.38-2.12,7.71-7.58,1.88-11.25Z"/>
        <path class="cls-9" d="M1.61,70.45s1.33,2,.17,3.33c-1.17,1.33-4.5,3.17-4,5-.67-1.33,1.67-4.83,2.83-5.17,1.17-.33,1-3.17,1-3.17Z"/>
        <path class="cls-9" d="M73.61-1.55s1.33,2,.17,3.33c-1.17,1.33-4.5,3.17-4,5-.67-1.33,1.67-4.83,2.83-5.17,1.17-.33,1-3.17,1-3.17Z"/>
        <path class="cls-8" d="M63.94.62s6.67,1,5.5,4c-1-1-1.67-2-5.5-4Z"/>
        <path class="cls-4" d="M52.44,71.28s-1.33-2.33.33-3.83c-2,.33-2.33,2.67-.33,3.83Z"/>
        <path class="cls-5" d="M38.42,28.32s.1,11.63,1.77,13.13c-1.5-.83-2.83-12-2.83-12l1.06-1.13Z"/>
        <path class="cls-5" d="M35.48,31.32l-.71.79s2.67,7.67,4.67,9.17c-.83-2.67-4.17-8.21-3.96-9.96Z"/>
        <polygon class="cls-6" points="39.78 27.78 40.85 27.65 40.94 41.78 39.78 27.78"/>
        <path class="cls-5" d="M41.65,27.32s.67-.62.83-.12l-1.67,13.79.83-13.67Z"/>
        <path class="cls-5" d="M54.78,1.7s7.71,5.12,4.5,15.5c2.5-2.33,2.5-12-4.5-15.5Z"/>
        <path class="cls-6" d="M52.76,1.8s6.47,8.23,5.8,13.9c1-.67.17-7.67-4.83-14l-.97.1Z"/>
        <polygon class="cls-6" points="52.23 1.7 51.36 2.2 53.86 8.45 52.23 1.7"/>
        <path class="cls-5" d="M49.17,5.25s3.31,9.5,8.43,12.75c-4.92.35-9.2-13.51-8.56-11.77l.13-.99Z"/>
        <path class="cls-5" d="M48.38,7.59l.1,1.11s3.5,8.38,11.75,11c-5-2.88-8.22-5.98-11.85-12.11Z"/>
        <path class="cls-5" d="M32.65,21.53c3.62-4.62,0-11.38,0-11.38l-.71-.54s3.54,5.08.71,11.92Z"/>
        <path class="cls-5" d="M31.27,9.37l-.75-.33s1.75,7.58,1.75,12.25c.83-2.33-1-11.92-1-11.92Z"/>
        <polygon class="cls-5" points="29.78 8.95 29.32 9.07 32.44 21.2 29.78 8.95"/>
        <path class="cls-6" d="M28.53,9.45l-.5.92s-.08,7.58,4.25,10.58c-1-1.58-3.29-2.25-3.75-11.5Z"/>
        <path class="cls-6" d="M27.4,11.57l-.5.65s-.08,5.39,4.25,7.52c-1-1.13-2.67-1.66-3.75-8.17Z"/>
        <path class="cls-6" d="M70.11,23.95s2.88,7.25-1.88,18c1.12-6.75,3.38-11.62,1-18.75l.88.75Z"/>
        <polygon class="cls-5" points="66.98 22.2 65.86 22.57 66.61 41.32 66.98 22.2"/>
        <polygon class="cls-6" points="64.36 24.32 65.36 29.57 63.73 25.2 64.36 24.32"/>
        <polygon class="cls-5" points="62.61 26.95 65.36 32.57 62.23 28.32 62.61 26.95"/>
        <polygon class="cls-5" points="69.23 23.2 67.82 40.8 68.48 22.45 69.23 23.2"/>
        <polygon class="cls-5" points="15.86 -1.8 13.73 5.82 14.73 -1.68 15.86 -1.8"/>
        <polygon class="cls-5" points="16.36 -1.93 15.36 2.95 17.14 -1.7 16.36 -1.93"/>
        <polygon class="cls-5" points="17.98 -.93 14.11 9.07 18.61 -.18 17.98 -.93"/>
        <polygon class="cls-5" points="19.11 1.7 12.11 14.95 19.36 3.2 19.11 1.7"/>
        <path class="cls-12" d="M17.14,70.25c5.1,2.14,2.09,25.23-7.79,21.07-10.19-4.28,2.69-23.21,7.79-21.07Z"/>
        <path class="cls-15" d="M7.17,81.2h0c-2.28,5.79.04,8.11,2.4,9.04,1.32.52,2.57.53,3.73.03,1.65-.72,3.03-2.45,4.09-5.15,2-5.08,1.61-10.49.72-12.54-.29-.66-.64-1.07-1.08-1.24-2.13-.84-7.58,4.12-9.85,9.87Z"/>
        <path class="cls-13" d="M7.6,81.53c-1.74,4.61-1.04,7.59,2.08,8.88,3.77,1.55,6-1.95,7.22-5.17,2.39-6.31,1.49-13.51.06-14.1-1.47-.61-6.96,4.02-9.36,10.39Z"/>
        <path class="cls-18" d="M7.99,82.15c-.29,4.12-.4,6.14,2.26,7.29,3.22,1.39,5.29-1.33,6.46-3.85,2.3-4.96.56-10.03-1.8-10.46-1.32-.24-6.52,1.43-6.92,7.03Z"/>
        <path class="cls-11" d="M8.23,82.48c-.1,3.17-.12,4.72,2.45,5.51,3.1.95,4.95-1.2,5.95-3.18,1.97-3.88.1-7.71-2.15-7.96-1.26-.14-6.11,1.32-6.25,5.62Z"/>
        <path class="cls-10" d="M9.03,79.9s7.02-5.01,7.83,1.75c1.17,9.67-6.75,8.5-6.75,8.5,0,0-6.67-3.08-1.08-10.25Z"/>
        <path class="cls-16" d="M9.11,80.45s7.68-4.3,7.61,1.53c-.11,9.25-6.56,7.44-6.56,7.44,0,0-6.48-2.7-1.05-8.97Z"/>
        <path class="cls-14" d="M9.59,80.59s6.33-4.14,6.27,1.47c-.1,8.51-5.4,7.16-5.4,7.16,0,0-5.33-2.6-.87-8.64Z"/>
        <path class="cls-3" d="M9.69,80.65s3.08-2.67,5.33.92c.83,1.67-.83,6.58-3.17,6.08.25-.5-.33-2-.83-1.75s-.67,1.25-.67,1.25c0,0-4.42-1.67-.67-6.5Z"/>
        <path class="cls-2" d="M9.74,81.21s2.91-1.87,5.03.64c.08.7-.79,4.61-2.99,4.26.24-.35-.31-1.4-.79-1.23-.47.18-.63.88-.63.88,0,0-4.17-1.17-.63-4.55Z"/>
        <polygon class="cls-5" points="15.86 70.15 13.73 77.77 14.73 70.27 15.86 70.15"/>
        <polygon class="cls-5" points="16.36 70.02 15.36 74.9 17.14 70.25 16.36 70.02"/>
        <polygon class="cls-5" points="17.98 71.02 14.11 81.02 18.61 71.77 17.98 71.02"/>
        <polygon class="cls-5" points="19.11 73.65 12.11 86.9 19.36 75.15 19.11 73.65"/>
        <polygon class="cls-5" points="61.36 50.57 56.73 60.95 60.48 49.57 61.36 50.57"/>
        <polygon class="cls-5" points="59.23 48.57 58.36 51.82 58.61 48.07 59.23 48.57"/>
        <polygon class="cls-5" points="57.48 47.57 56.48 56.57 56.61 47.57 57.48 47.57"/>
        <polygon class="cls-5" points="55.23 47.95 54.86 51.2 54.61 48.2 55.23 47.95"/>
        <polygon class="cls-5" points="52.86 49.2 55.98 57.2 51.98 49.82 52.86 49.2"/>
        <polygon class="cls-5" points="33.86 58.32 33.23 63.7 34.73 58.82 33.86 58.32"/>
        <polygon class="cls-5" points="33.11 57.7 32.2 57.69 32.36 60.2 33.11 57.7"/>
        <polygon class="cls-5" points="35.73 59.95 36.23 60.7 34.23 66.32 35.73 59.95"/>
        <path class="cls-5" d="M5.48,47.32s4.12,8.12,3.12,11.75c-.62-4.88-1.88-8.75-4.75-12.12l1.62.38Z"/>
        <path class="cls-5" d="M3.11,46.82l-.88-.12s4,4.75,3.5,6.62c.88-1.38-2.25-5.88-2.62-6.5Z"/>
        <polygon class="cls-5" points="1.23 46.82 3.82 50.95 .51 47.31 1.23 46.82"/>
        <polygon class="cls-5" points="7.23 47.95 7.98 48.32 9.61 52.57 7.23 47.95"/>
        <path class="cls-5" d="M15.11,28.2s-.46,5.28,3,7.75c-2.38,0-3.75-5.75-3.75-6.62l.75-1.12Z"/>
        <polygon class="cls-5" points="14.11 31.82 15.23 34.57 13.98 33.07 14.11 31.82"/>
        <path class="cls-5" d="M16.48,27.82l-.74.02s.32,5.14,2.36,6.23c-.75-1.75-1.88-3.62-1.62-6.25Z"/>
      </g>
    </pattern>
  </defs>
  <g id="_レイヤー_1-2" data-name="レイヤー 1">
    <path class="cls-7" d="M123.42,23.86c-1.21-1.2-.18-1.98-2.73-2.25.13-.03.33,0,.47-.02.24-1.21-.2-2.34-1.67-2.64.17-.08.38-.34.73-.45.03-.6-.54-1.04-1.25-1.27.27-.46.91-.75,1.49-.95-.46-.47-.96-.89-1.69-1.01.13-.18.39-.63.58-.79,1.43-.43.26-1.35-.19-1.83.11,0,.22.02.31.06.32-1.37-1.07-2.49-.51-3.7.05-.04.33-.15.37-.17-1.6-1.22-3.08-3.57-3.22-5.31-.48-.06-.55-.3-1.06-.33.19-.98-1.05-1.36-.98-2.35-.17-.02-.34,0-.5-.04-.12-.28-.33-.55-.4-.82L0,.28c.11.52.64.87,1.28,1.16-.95,1.02.27,1.78.78,2.62.81,1.33.38,2.01.16,3.25-.07.41.45.46.16,1.11-.22.47-1.26.94-1.42,1.29-.4.9.48,3.01,1.2,3.6-1.28.4-.28,4.26-.3,5.21-.02.73-.53,1.36-.35,1.99.08.28,1.07-.04,1.12.41.03.26-.4.51-.4.56.01.58-.58,1.8-1.46,2.14.04.04.15.15.13.21-.11.08-.29.21-.34.32l122.86-.28Z"/>
  </g>
</svg>