<?xml version="1.0" encoding="UTF-8"?>
<svg id="_レイヤー_2" data-name="レイヤー 2" xmlns="http://www.w3.org/2000/svg" xmlns:xlink="http://www.w3.org/1999/xlink" viewBox="0 0 123.42 24.14">
  <defs>
    <style>
      .cls-1, .cls-2 {
        fill: none;
      }

      .cls-3 {
        fill: #08548f;
      }

      .cls-4 {
        fill: url(#_ジグザグ_カラー_);
        opacity: .73;
      }

      .cls-2 {
        stroke: #85abd4;
        stroke-width: .5px;
      }
    </style>
    <pattern id="_ジグザグ_カラー_" data-name="ジグザグ (カラー)" x="0" y="0" width="75" height="40.8" patternTransform="translate(-11.56 575.85)" patternUnits="userSpaceOnUse" viewBox="0 0 75 40.8">
      <g>
        <rect class="cls-1" width="75" height="40.8"/>
        <rect class="cls-3" width="75" height="40.8"/>
        <polyline class="cls-2" points="76.84 42.64 75 40.8 67.5 48.3 60 40.8 52.5 48.3 45 40.8 37.5 48.3 30 40.8 22.5 48.3 15 40.8 7.5 48.3 0 40.8 -1.84 42.64"/>
        <polyline class="cls-2" points="76.84 29.04 75 27.2 67.5 34.7 60 27.2 52.5 34.7 45 27.2 37.5 34.7 30 27.2 22.5 34.7 15 27.2 7.5 34.7 0 27.2 -1.84 29.04"/>
        <polyline class="cls-2" points="76.84 15.44 75 13.6 67.5 21.1 60 13.6 52.5 21.1 45 13.6 37.5 21.1 30 13.6 22.5 21.1 15 13.6 7.5 21.1 0 13.6 -1.84 15.44"/>
        <polyline class="cls-2" points="76.84 1.84 75 0 67.5 7.5 60 0 52.5 7.5 45 0 37.5 7.5 30 0 22.5 7.5 15 0 7.5 7.5 0 0 -1.84 1.84"/>
        <polyline class="cls-2" points="76.84 35.84 75 34 67.5 41.5 60 34 52.5 41.5 45 34 37.5 41.5 30 34 22.5 41.5 15 34 7.5 41.5 0 34 -1.84 35.84"/>
        <polyline class="cls-2" points="76.84 22.24 75 20.4 67.5 27.9 60 20.4 52.5 27.9 45 20.4 37.5 27.9 30 20.4 22.5 27.9 15 20.4 7.5 27.9 0 20.4 -1.84 22.24"/>
        <polyline class="cls-2" points="76.84 8.64 75 6.8 67.5 14.3 60 6.8 52.5 14.3 45 6.8 37.5 14.3 30 6.8 22.5 14.3 15 6.8 7.5 14.3 0 6.8 -1.84 8.64"/>
        <polyline class="cls-2" points="76.84 -4.96 75 -6.8 67.5 .7 60 -6.8 52.5 .7 45 -6.8 37.5 .7 30 -6.8 22.5 .7 15 -6.8 7.5 .7 0 -6.8 -1.84 -4.96"/>
      </g>
    </pattern>
  </defs>
  <g id="_レイヤー_1-2" data-name="レイヤー 1">
    <path class="cls-4" d="M0,23.86c1.21-1.2.18-1.98,2.73-2.25-.13-.03-.33,0-.47-.02-.24-1.21.2-2.34,1.67-2.64-.17-.08-.38-.34-.73-.45-.03-.6.54-1.04,1.25-1.27-.27-.46-.92-.75-1.49-.96.46-.47.96-.89,1.69-1.01-.13-.18-.39-.63-.58-.79-1.43-.43-.26-1.35.19-1.83-.11,0-.22.02-.31.06-.32-1.37,1.07-2.49.51-3.7-.05-.03-.33-.15-.38-.17,1.6-1.22,3.08-3.57,3.22-5.31.48-.06.55-.3,1.06-.33-.19-.98,1.05-1.35.99-2.35.17-.03.34,0,.5-.04.12-.28.33-.54.4-.82l113.18.28c-.11.51-.64.87-1.28,1.16.95,1.02-.27,1.78-.78,2.62-.81,1.33-.38,2.01-.16,3.24.07.41-.45.47-.16,1.11.22.47,1.26.95,1.42,1.29.4.9-.48,3.01-1.2,3.6,1.28.4.28,4.26.3,5.21.02.73.52,1.36.35,1.99-.08.28-1.07-.04-1.11.4-.03.27.4.51.39.57,0,.59.58,1.8,1.46,2.14-.04.04-.15.15-.13.21.11.08.29.21.35.32L0,23.86Z"/>
  </g>
</svg>