<?xml version="1.0" encoding="UTF-8"?>
<svg id="_レイヤー_2" data-name="レイヤー 2" xmlns="http://www.w3.org/2000/svg" xmlns:xlink="http://www.w3.org/1999/xlink" viewBox="0 0 121.31 24.45">
  <defs>
    <style>
      .cls-1, .cls-2 {
        fill: none;
      }

      .cls-3 {
        fill: #af5f9b;
        stroke: #7fc5e1;
      }

      .cls-3, .cls-4, .cls-5, .cls-6, .cls-7, .cls-8, .cls-9, .cls-10, .cls-2, .cls-11, .cls-12, .cls-13, .cls-14, .cls-15 {
        stroke-width: .5px;
      }

      .cls-4 {
        fill: #d2d8de;
      }

      .cls-4, .cls-10, .cls-2 {
        stroke: #4e8b52;
      }

      .cls-5 {
        fill: #19973b;
        stroke: #d2df96;
      }

      .cls-16 {
        fill: url(#_菱形_格子_カラー);
        opacity: .8;
      }

      .cls-6 {
        fill: #c81466;
        stroke: #f9e5ee;
      }

      .cls-7 {
        fill: #f1be70;
        stroke: #8e3e23;
      }

      .cls-8 {
        fill: #7fc5e1;
      }

      .cls-8, .cls-9 {
        stroke: #af5f9b;
      }

      .cls-9 {
        fill: #56408f;
      }

      .cls-10 {
        fill: #9bc0c3;
      }

      .cls-11 {
        fill: #6a3c2f;
        stroke: #dacbbe;
      }

      .cls-12 {
        fill: #6a95c7;
        stroke: #0c63aa;
      }

      .cls-13 {
        fill: #f3c91e;
        stroke: #043d79;
      }

      .cls-14 {
        fill: #b8deef;
        stroke: #fbfdff;
      }

      .cls-15 {
        fill: #3c5ea3;
        stroke: #a1b8db;
      }
    </style>
    <pattern id="_菱形_格子_カラー" data-name="菱形 (格子) カラー" x="0" y="0" width="86.97" height="81.17" patternTransform="translate(-428.58 402.66)" patternUnits="userSpaceOnUse" viewBox="0 0 86.97 81.17">
      <g>
        <rect class="cls-1" y="0" width="86.97" height="81.17"/>
        <polygon class="cls-2" points="34.79 89.87 43.49 81.17 34.79 72.48 37.69 69.58 28.99 60.88 20.29 69.58 23.19 72.48 14.5 81.17 23.19 89.87 34.79 89.87"/>
        <polygon class="cls-4" points="28.99 60.88 37.69 69.58 34.79 72.48 43.49 81.17 52.18 72.48 49.28 69.58 57.98 60.88 49.28 52.19 52.18 49.29 43.49 40.59 34.79 49.29 37.69 52.19 28.99 60.88"/>
        <polygon class="cls-2" points="43.48 40.59 52.18 49.29 49.28 52.19 57.98 60.88 66.68 52.19 63.78 49.29 72.48 40.59 63.78 31.89 66.68 28.99 57.98 20.29 49.28 28.99 52.18 31.89 43.48 40.59"/>
        <polygon class="cls-4" points="57.98 20.29 66.68 28.99 63.78 31.89 72.48 40.59 81.17 31.89 78.27 28.99 86.97 20.29 78.27 11.6 81.17 8.7 72.48 0 63.78 8.7 66.68 11.6 57.98 20.29"/>
        <polygon class="cls-10" points="95.64 -8.7 81.17 -8.7 72.47 0 81.17 8.7 78.27 11.6 86.97 20.29 95.67 11.6 95.64 -8.7"/>
        <polygon class="cls-2" points="63.78 89.87 72.48 81.17 63.78 72.48 66.68 69.58 57.98 60.88 49.28 69.58 52.18 72.48 43.49 81.17 52.18 89.87 63.78 89.87"/>
        <polygon class="cls-4" points="57.98 60.88 66.68 69.58 63.78 72.48 72.48 81.17 81.17 72.48 78.27 69.58 86.97 60.88 78.27 52.19 81.17 49.29 72.48 40.59 63.78 49.29 66.68 52.19 57.98 60.88"/>
        <polygon class="cls-10" points="95.67 28.99 86.97 20.29 78.27 28.99 81.17 31.89 72.48 40.59 81.17 49.29 78.27 52.19 86.97 60.88 95.67 52.19 95.67 28.99"/>
        <polygon class="cls-10" points="95.67 69.58 86.97 60.88 78.27 69.58 81.17 72.48 72.48 81.17 81.17 89.87 95.64 89.87 95.67 69.58"/>
        <polygon class="cls-10" points="-8.71 89.87 5.8 89.87 14.5 81.17 5.8 72.48 8.7 69.58 0 60.88 -8.7 69.58 -8.71 89.87"/>
        <polygon class="cls-4" points="0 60.88 8.7 69.58 5.8 72.48 14.5 81.17 23.19 72.48 20.29 69.58 28.99 60.88 20.29 52.19 23.19 49.29 14.5 40.59 5.8 49.29 8.7 52.19 0 60.88"/>
        <polygon class="cls-2" points="14.49 40.59 23.19 49.29 20.29 52.19 28.99 60.88 37.69 52.19 34.79 49.29 43.49 40.59 34.79 31.89 37.69 28.99 28.99 20.29 20.29 28.99 23.19 31.89 14.49 40.59"/>
        <polygon class="cls-4" points="28.99 20.29 37.69 28.99 34.79 31.89 43.48 40.59 52.18 31.89 49.28 28.99 57.98 20.29 49.28 11.6 52.18 8.7 43.48 0 34.79 8.7 37.69 11.6 28.99 20.29"/>
        <polygon class="cls-2" points="52.18 -8.7 43.48 0 52.18 8.7 49.28 11.6 57.98 20.29 66.68 11.6 63.78 8.7 72.48 0 63.78 -8.7 52.18 -8.7"/>
        <polygon class="cls-10" points="-8.7 52.19 0 60.88 8.7 52.19 5.8 49.29 14.5 40.59 5.8 31.89 8.7 28.99 0 20.29 -8.7 28.99 -8.7 52.19"/>
        <polygon class="cls-4" points="0 20.29 8.7 28.99 5.8 31.89 14.5 40.59 23.19 31.89 20.29 28.99 28.99 20.29 20.29 11.6 23.19 8.7 14.5 0 5.8 8.7 8.7 11.6 0 20.29"/>
        <polygon class="cls-2" points="23.19 -8.7 14.49 0 23.19 8.7 20.29 11.6 28.99 20.29 37.69 11.6 34.79 8.7 43.49 0 34.79 -8.7 23.19 -8.7"/>
        <polygon class="cls-10" points="-8.7 11.6 0 20.29 8.7 11.6 5.8 8.7 14.5 0 5.8 -8.7 -8.71 -8.7 -8.7 11.6"/>
        <polygon class="cls-13" points="37.69 81.17 28.99 72.48 20.29 81.17 28.99 89.87 37.69 81.17"/>
        <polygon class="cls-15" points="52.18 60.88 43.49 52.19 34.79 60.88 43.49 69.58 52.18 60.88"/>
        <polygon class="cls-13" points="66.68 40.59 57.98 31.89 49.28 40.59 57.98 49.29 66.68 40.59"/>
        <polygon class="cls-5" points="81.17 20.29 72.47 11.6 63.78 20.29 72.47 28.99 81.17 20.29"/>
        <polygon class="cls-11" points="95.67 0 86.97 -8.7 78.27 0 86.97 8.7 95.67 0"/>
        <polygon class="cls-13" points="66.68 81.17 57.98 72.48 49.28 81.17 57.98 89.87 66.68 81.17"/>
        <polygon class="cls-5" points="81.17 60.88 72.48 52.19 63.78 60.88 72.48 69.58 81.17 60.88"/>
        <polygon class="cls-11" points="95.67 40.59 86.97 31.89 78.27 40.59 86.97 49.29 95.67 40.59"/>
        <polygon class="cls-11" points="95.67 81.17 86.97 72.48 78.27 81.17 86.97 89.87 95.67 81.17"/>
        <polygon class="cls-11" points="8.7 81.17 0 72.48 -8.7 81.17 0 89.87 8.7 81.17"/>
        <polygon class="cls-5" points="23.19 60.88 14.5 52.19 5.8 60.88 14.5 69.58 23.19 60.88"/>
        <polygon class="cls-13" points="37.69 40.59 28.99 31.89 20.29 40.59 28.99 49.29 37.69 40.59"/>
        <polygon class="cls-15" points="52.18 20.29 43.48 11.6 34.79 20.29 43.48 28.99 52.18 20.29"/>
        <polygon class="cls-13" points="66.68 0 57.98 -8.7 49.28 0 57.98 8.7 66.68 0"/>
        <polygon class="cls-11" points="8.7 40.59 0 31.89 -8.7 40.59 0 49.29 8.7 40.59"/>
        <polygon class="cls-5" points="23.19 20.29 14.49 11.6 5.8 20.29 14.49 28.99 23.19 20.29"/>
        <polygon class="cls-13" points="37.69 0 28.99 -8.7 20.29 0 28.99 8.7 37.69 0"/>
        <polygon class="cls-11" points="8.7 0 0 -8.7 -8.7 0 0 8.7 8.7 0"/>
        <polygon class="cls-12" points="31.89 81.17 28.99 78.28 26.09 81.17 28.99 84.07 31.89 81.17"/>
        <polygon class="cls-9" points="31.89 69.58 28.99 66.68 26.09 69.58 28.99 72.48 31.89 69.58"/>
        <polygon class="cls-6" points="46.38 60.88 43.49 57.98 40.59 60.88 43.49 63.78 46.38 60.88"/>
        <polygon class="cls-8" points="46.38 72.48 43.49 69.58 40.59 72.48 43.49 75.38 46.38 72.48"/>
        <polygon class="cls-6" points="89.87 0 86.97 -2.9 84.07 0 86.97 2.9 89.87 0"/>
        <polygon class="cls-12" points="60.88 81.17 57.98 78.28 55.08 81.17 57.98 84.07 60.88 81.17"/>
        <polygon class="cls-9" points="60.88 69.58 57.98 66.68 55.08 69.58 57.98 72.48 60.88 69.58"/>
        <polygon class="cls-14" points="75.38 60.88 72.48 57.98 69.58 60.88 72.48 63.78 75.38 60.88"/>
        <polygon class="cls-3" points="75.38 72.48 72.48 69.58 69.58 72.48 72.48 75.38 75.38 72.48"/>
        <polygon class="cls-6" points="89.87 81.17 86.97 78.28 84.07 81.17 86.97 84.07 89.87 81.17"/>
        <polygon class="cls-7" points="89.87 69.58 86.97 66.68 84.07 69.58 86.97 72.48 89.87 69.58"/>
        <polygon class="cls-6" points="2.9 81.17 0 78.28 -2.9 81.17 0 84.07 2.9 81.17"/>
        <polygon class="cls-3" points="17.39 72.48 14.5 69.58 11.59 72.48 14.5 75.38 17.39 72.48"/>
        <polygon class="cls-8" points="46.38 49.29 43.49 46.38 40.59 49.29 43.49 52.19 46.38 49.29"/>
        <polygon class="cls-12" points="60.88 40.59 57.98 37.69 55.08 40.59 57.98 43.49 60.88 40.59"/>
        <polygon class="cls-9" points="60.88 28.99 57.98 26.09 55.08 28.99 57.98 31.89 60.88 28.99"/>
        <polygon class="cls-9" points="60.88 52.19 57.98 49.29 55.08 52.19 57.98 55.08 60.88 52.19"/>
        <polygon class="cls-14" points="75.38 20.29 72.47 17.39 69.58 20.29 72.47 23.19 75.38 20.29"/>
        <polygon class="cls-3" points="75.38 8.7 72.48 5.8 69.58 8.7 72.47 11.6 75.38 8.7"/>
        <polygon class="cls-3" points="75.38 31.89 72.47 28.99 69.58 31.89 72.47 34.79 75.38 31.89"/>
        <polygon class="cls-7" points="89.87 11.6 86.97 8.7 84.07 11.6 86.97 14.5 89.87 11.6"/>
        <polygon class="cls-3" points="75.38 49.29 72.48 46.38 69.58 49.29 72.48 52.19 75.38 49.29"/>
        <polygon class="cls-6" points="89.87 40.59 86.97 37.69 84.07 40.59 86.97 43.49 89.87 40.59"/>
        <polygon class="cls-7" points="89.87 28.99 86.97 26.09 84.07 28.99 86.97 31.89 89.87 28.99"/>
        <polygon class="cls-7" points="89.87 52.19 86.97 49.29 84.07 52.19 86.97 55.08 89.87 52.19"/>
        <polygon class="cls-7" points="2.9 69.58 0 66.68 -2.9 69.58 0 72.48 2.9 69.58"/>
        <polygon class="cls-14" points="17.39 60.88 14.5 57.98 11.59 60.88 14.5 63.78 17.39 60.88"/>
        <polygon class="cls-3" points="17.39 49.29 14.5 46.38 11.59 49.29 14.5 52.19 17.39 49.29"/>
        <polygon class="cls-12" points="31.89 40.59 28.99 37.69 26.09 40.59 28.99 43.49 31.89 40.59"/>
        <polygon class="cls-9" points="31.89 28.99 28.99 26.09 26.09 28.99 28.99 31.89 31.89 28.99"/>
        <polygon class="cls-9" points="31.89 52.19 28.99 49.29 26.09 52.19 28.99 55.08 31.89 52.19"/>
        <polygon class="cls-6" points="46.38 20.29 43.48 17.39 40.59 20.29 43.48 23.19 46.38 20.29"/>
        <polygon class="cls-8" points="46.38 8.7 43.48 5.8 40.59 8.7 43.48 11.6 46.38 8.7"/>
        <polygon class="cls-8" points="46.38 31.89 43.48 28.99 40.59 31.89 43.48 34.79 46.38 31.89"/>
        <polygon class="cls-12" points="60.88 0 57.98 -2.9 55.08 0 57.98 2.9 60.88 0"/>
        <polygon class="cls-9" points="60.88 11.6 57.98 8.7 55.08 11.6 57.98 14.5 60.88 11.6"/>
        <polygon class="cls-6" points="2.9 40.59 0 37.69 -2.9 40.59 0 43.49 2.9 40.59"/>
        <polygon class="cls-7" points="2.9 28.99 0 26.09 -2.9 28.99 0 31.89 2.9 28.99"/>
        <polygon class="cls-7" points="2.9 52.19 0 49.29 -2.9 52.19 0 55.08 2.9 52.19"/>
        <polygon class="cls-14" points="17.39 20.29 14.49 17.39 11.59 20.29 14.49 23.19 17.39 20.29"/>
        <polygon class="cls-3" points="17.39 8.7 14.5 5.8 11.59 8.7 14.49 11.6 17.39 8.7"/>
        <polygon class="cls-3" points="17.39 31.89 14.49 28.99 11.59 31.89 14.49 34.79 17.39 31.89"/>
        <polygon class="cls-12" points="31.89 0 28.99 -2.9 26.09 0 28.99 2.9 31.89 0"/>
        <polygon class="cls-9" points="31.89 11.6 28.99 8.7 26.09 11.6 28.99 14.5 31.89 11.6"/>
        <polygon class="cls-6" points="2.9 0 0 -2.9 -2.9 0 0 2.9 2.9 0"/>
        <polygon class="cls-7" points="2.9 11.6 0 8.7 -2.9 11.6 0 14.5 2.9 11.6"/>
      </g>
    </pattern>
  </defs>
  <g id="_レイヤー_1-2" data-name="レイヤー 1">
    <path class="cls-16" d="M108.33.03H0c.87,1.57.91,3.48,2.52,4.88.55.48.95.11,1.4.75-.05-.07.03,1.14.03,1.22.06,1.01,0,1.76-.33,2.71,1.32.14.19,1.34.32,1.99.16.74,1.38,1.51,1.71,2.25.9,1.99-.58,3.11-2.96,3.22-1.05,1.37,3.01,2.64-.55,3.38.79.33,2.07.77,1.73,1.76-.75.46-1.82.79-2.47,1.29.31.43-.05.46-.34.84l120.25.14c-.41-1.01,0-2.2-.13-3.2-.12-1-.58-2.09-.58-3.12,0-.56.21-.78.17-1.29-.03-.49-.35-.94-.35-1.51,0-1.09.64-2.05,0-3.09-.63-1.03-2.34-2.17-3.53-2.82-.97-.52-2.67-.77-2.88-1.93-.18-.95,1.25-2.02.87-3.08-.1-.27-.92-1.01-1.16-1.29-.64-.73-1.21-1.41-2.35-1.83-.62-.23-1.25-.33-1.79-.55-.7-.28-.65-.89-2.12-.71"/>
  </g>
</svg>