<?xml version="1.0" encoding="UTF-8"?>
<svg id="_レイヤー_2" data-name="レイヤー 2" xmlns="http://www.w3.org/2000/svg" xmlns:xlink="http://www.w3.org/1999/xlink" viewBox="0 0 121.31 24.45">
  <defs>
    <style>
      .cls-1 {
        fill: none;
      }

      .cls-2 {
        fill: #b4d0a2;
      }

      .cls-3 {
        fill: #ee9155;
      }

      .cls-4 {
        fill: #d6663a;
      }

      .cls-5 {
        fill: #231815;
      }

      .cls-6 {
        fill: #ffea00;
      }

      .cls-7 {
        fill: #f9cf66;
      }

      .cls-8 {
        fill: url(#_六角形_ペルシャ_カラー);
        opacity: .75;
      }
    </style>
    <pattern id="_六角形_ペルシャ_カラー" data-name="六角形 (ペルシャ) カラー" x="0" y="0" width="71.72" height="82.81" patternTransform="translate(-287.49 520.82)" patternUnits="userSpaceOnUse" viewBox="0 0 71.72 82.81">
      <g>
        <rect class="cls-1" x="0" y="0" width="71.72" height="82.81"/>
        <rect class="cls-3" x="0" y="0" width="71.72" height="82.81"/>
        <polygon class="cls-4" points="-4.38 75.23 4.38 75.23 8.75 82.81 4.38 90.39 -4.38 90.39 -8.75 82.81 -4.38 75.23"/>
        <path class="cls-5" d="M0,82.81"/>
        <polygon class="cls-4" points="67.34 90.39 62.97 82.81 67.34 75.23 76.09 75.23 80.47 82.81 76.09 90.39 67.34 90.39"/>
        <path class="cls-5" d="M71.72,82.81"/>
        <polygon class="cls-4" points="40.23 54.53 44.61 62.11 40.23 69.69 31.48 69.69 27.11 62.11 31.48 54.53 40.23 54.53"/>
        <path class="cls-5" d="M35.86,62.11"/>
        <polygon class="cls-4" points="-4.38 33.83 4.38 33.83 8.75 41.41 4.38 48.98 -4.38 48.98 -8.75 41.41 -4.38 33.83"/>
        <path class="cls-6" d="M0,41.41"/>
        <polygon class="cls-4" points="76.09 48.98 67.34 48.98 62.97 41.41 67.34 33.83 76.09 33.83 80.47 41.41 76.09 48.98"/>
        <path class="cls-6" d="M71.72,41.41"/>
        <polygon class="cls-4" points="44.61 20.7 40.23 28.28 31.48 28.28 27.11 20.7 31.48 13.12 40.23 13.12 44.61 20.7"/>
        <path class="cls-5" d="M35.86,20.7"/>
        <polygon class="cls-4" points="-4.38 -7.58 4.38 -7.58 8.75 0 4.38 7.58 -4.38 7.58 -8.75 0 -4.38 -7.58"/>
        <path class="cls-5" d="M0,0"/>
        <polygon class="cls-4" points="76.09 7.58 67.34 7.58 62.97 0 67.34 -7.58 76.09 -7.58 80.47 0 76.09 7.58"/>
        <path class="cls-5" d="M71.72,0"/>
        <polygon class="cls-2" points="19.53 66.48 11.95 70.86 16.33 78.44 23.9 74.06 19.53 66.48"/>
        <rect class="cls-2" x="31.48" y="78.44" width="8.75" height="8.75"/>
        <polygon class="cls-2" points="47.81 74.06 55.39 78.44 59.76 70.86 52.18 66.48 47.81 74.06"/>
        <rect class="cls-2" x="-4.38" y="57.73" width="8.75" height="8.75"/>
        <rect class="cls-2" x="67.34" y="57.73" width="8.75" height="8.75"/>
        <polygon class="cls-2" points="47.81 32.66 55.39 37.03 59.76 29.45 52.18 25.08 47.81 32.66"/>
        <polygon class="cls-2" points="52.18 57.73 59.76 53.36 55.39 45.78 47.81 50.16 52.18 57.73"/>
        <polygon class="cls-2" points="16.33 37.03 23.9 32.66 19.53 25.08 11.95 29.45 16.33 37.03"/>
        <polygon class="cls-2" points="11.95 53.36 19.53 57.73 23.9 50.16 16.33 45.78 11.95 53.36"/>
        <rect class="cls-2" x="31.48" y="37.03" width="8.75" height="8.75"/>
        <rect class="cls-2" x="-4.38" y="16.33" width="8.75" height="8.75"/>
        <rect class="cls-2" x="67.34" y="16.33" width="8.75" height="8.75"/>
        <polygon class="cls-2" points="52.18 16.33 59.76 11.95 55.39 4.38 47.81 8.75 52.18 16.33"/>
        <rect class="cls-2" x="31.48" y="-4.38" width="8.75" height="8.75"/>
        <polygon class="cls-2" points="11.95 11.95 19.53 16.33 23.9 8.75 16.33 4.38 11.95 11.95"/>
        <polygon class="cls-7" points="23.9 74.06 31.48 69.69 31.48 78.44 23.9 74.06"/>
        <polygon class="cls-5" points="16.33 78.44 8.75 82.81 16.33 87.19 16.33 78.44"/>
        <polygon class="cls-5" points="55.39 78.44 62.97 82.81 55.39 87.19 55.39 78.44"/>
        <polygon class="cls-5" points="40.23 78.44 40.23 69.69 47.81 74.06 40.23 78.44"/>
        <polygon class="cls-7" points="11.95 70.86 4.38 75.23 4.38 66.48 11.95 70.86"/>
        <polygon class="cls-5" points="19.53 57.73 27.11 62.11 19.53 66.48 19.53 57.73"/>
        <polygon class="cls-7" points="11.95 53.36 4.38 48.98 4.38 57.73 11.95 53.36"/>
        <polygon class="cls-7" points="59.76 53.36 67.34 48.98 67.34 57.73 59.76 53.36"/>
        <polygon class="cls-7" points="52.18 66.48 44.61 62.11 52.18 57.73 52.18 66.48"/>
        <polygon class="cls-7" points="59.76 70.86 67.34 75.23 67.34 66.48 59.76 70.86"/>
        <polygon class="cls-5" points="40.23 37.03 40.23 28.28 47.81 32.66 40.23 37.03"/>
        <polygon class="cls-5" points="47.81 50.16 40.23 54.53 40.23 45.78 47.81 50.16"/>
        <polygon class="cls-5" points="55.39 45.78 62.97 41.41 55.39 37.03 55.39 45.78"/>
        <polygon class="cls-5" points="16.33 45.78 8.75 41.41 16.33 37.03 16.33 45.78"/>
        <polygon class="cls-7" points="31.48 45.78 31.48 54.53 23.9 50.16 31.48 45.78"/>
        <polygon class="cls-7" points="31.48 37.03 31.48 28.28 23.9 32.66 31.48 37.03"/>
        <polygon class="cls-7" points="11.95 29.45 4.38 33.83 4.38 25.08 11.95 29.45"/>
        <polygon class="cls-5" points="19.53 16.33 27.11 20.7 19.53 25.08 19.53 16.33"/>
        <polygon class="cls-7" points="11.95 11.95 4.38 7.58 4.38 16.33 11.95 11.95"/>
        <polygon class="cls-7" points="59.76 11.95 67.34 7.58 67.34 16.33 59.76 11.95"/>
        <polygon class="cls-7" points="52.18 25.08 44.61 20.7 52.18 16.33 52.18 25.08"/>
        <polygon class="cls-7" points="59.76 29.45 67.34 33.83 67.34 25.08 59.76 29.45"/>
        <polygon class="cls-5" points="47.81 8.75 40.23 13.12 40.23 4.38 47.81 8.75"/>
        <polygon class="cls-5" points="55.39 4.38 62.97 0 55.39 -4.38 55.39 4.38"/>
        <polygon class="cls-5" points="16.33 4.38 8.75 0 16.33 -4.38 16.33 4.38"/>
        <polygon class="cls-7" points="31.48 4.38 31.48 13.12 23.9 8.75 31.48 4.38"/>
      </g>
    </pattern>
  </defs>
  <g id="_レイヤー_1-2" data-name="レイヤー 1">
    <path class="cls-8" d="M12.99.03h108.33c-.87,1.57-.91,3.48-2.52,4.88-.55.48-.95.11-1.4.74.05-.07-.03,1.14-.03,1.22-.06,1.01,0,1.76.33,2.71-1.32.14-.19,1.34-.32,1.99-.16.74-1.38,1.51-1.71,2.25-.9,1.99.59,3.11,2.96,3.22,1.05,1.37-3.01,2.64.55,3.38-.79.33-2.07.77-1.73,1.76.75.46,1.82.79,2.47,1.29-.31.44.05.46.34.84l-120.25.14c.41-1.01,0-2.2.13-3.2.12-1,.58-2.09.58-3.12,0-.56-.21-.78-.18-1.3.03-.49.36-.94.36-1.51,0-1.09-.64-2.04,0-3.09.63-1.03,2.34-2.17,3.53-2.82.97-.52,2.67-.77,2.88-1.93.18-.95-1.25-2.03-.87-3.08.1-.27.91-1.01,1.16-1.29.64-.73,1.22-1.41,2.35-1.83.62-.23,1.25-.33,1.79-.55.7-.28.65-.89,2.12-.71"/>
  </g>
</svg>