<?xml version="1.0" encoding="UTF-8"?>
<svg id="_レイヤー_2" data-name="レイヤー 2" xmlns="http://www.w3.org/2000/svg" xmlns:xlink="http://www.w3.org/1999/xlink" viewBox="0 0 117.76 24.14">
  <defs>
    <style>
      .cls-1, .cls-2, .cls-3 {
        fill: none;
      }

      .cls-2, .cls-3 {
        stroke: #231815;
        stroke-linecap: square;
      }

      .cls-4 {
        fill: url(#_罫線_6);
        opacity: .61;
      }

      .cls-5 {
        fill: #fff;
      }

      .cls-3 {
        stroke-width: 4px;
      }
    </style>
    <pattern id="_罫線_6" data-name="罫線 6" x="0" y="0" width="74.06" height="72" patternTransform="translate(-148.64 209.92)" patternUnits="userSpaceOnUse" viewBox="0 0 74.06 72">
      <g>
        <rect class="cls-1" width="74.06" height="72"/>
        <line class="cls-5" x1="-16" y1="66" x2="-10" y2="72"/>
        <line class="cls-5" x1="-16" y1="72" x2="-10" y2="66"/>
        <line class="cls-3" x1="24.98" y1="72" x2="24.98"/>
        <line class="cls-3" x1="6.49" y1="72" x2="6.49"/>
        <line class="cls-3" x1="43.47" y1="72" x2="43.47"/>
        <line class="cls-3" x1="61.96" y1="72" x2="61.96"/>
        <line class="cls-3" x1="-11.99" y1="10" x2="-11.99"/>
        <line class="cls-2" x1="12.09" y1="72" x2="12.09"/>
        <line class="cls-2" x1="30.58" y1="72" x2="30.58"/>
        <line class="cls-2" x1="49.07" y1="72" x2="49.07"/>
        <line class="cls-2" x1="67.56" y1="72" x2="67.56"/>
        <line class="cls-2" x1="-6.39" y1="10" x2="-6.39"/>
      </g>
    </pattern>
  </defs>
  <g id="_レイヤー_1-2" data-name="レイヤー 1">
    <path class="cls-4" d="M0,23.86c1.16-1.2.17-1.98,2.61-2.25-.13-.03-.31,0-.45-.02-.23-1.21.19-2.34,1.59-2.64-.16-.07-.37-.34-.7-.45-.03-.6.52-1.04,1.19-1.27-.26-.46-.87-.75-1.42-.95.44-.47.91-.89,1.61-1-.13-.18-.38-.63-.55-.8-1.36-.43-.25-1.35.18-1.83-.11,0-.21.02-.3.07-.31-1.37,1.02-2.5.48-3.7-.05-.04-.32-.15-.36-.17,1.53-1.22,2.94-3.57,3.07-5.31.46-.06.53-.3,1.01-.33-.18-.98,1-1.35.94-2.34.16-.03.32,0,.48-.04.11-.28.32-.54.39-.82l107.99.28c-.1.51-.61.87-1.22,1.16.91,1.02-.26,1.78-.74,2.62-.77,1.33-.37,2.01-.16,3.24.07.41-.43.47-.15,1.11.2.47,1.2.95,1.35,1.29.39.9-.46,3.01-1.14,3.6,1.22.4.26,4.26.28,5.21.02.73.5,1.36.33,1.99-.08.28-1.02-.04-1.06.4-.03.27.38.51.38.57,0,.59.55,1.8,1.4,2.14-.04.04-.14.15-.12.21.11.08.28.21.33.32L0,23.86Z"/>
  </g>
</svg>