<?xml version="1.0" encoding="UTF-8"?>
<svg id="_レイヤー_2" data-name="レイヤー 2" xmlns="http://www.w3.org/2000/svg" xmlns:xlink="http://www.w3.org/1999/xlink" viewBox="0 0 125.61 24.14">
  <defs>
    <style>
      .cls-1, .cls-2 {
        fill: none;
      }

      .cls-2 {
        stroke: #231815;
        stroke-width: 3.6px;
      }

      .cls-3 {
        fill: url(#_6_lpi_30_);
      }

      .cls-4 {
        opacity: .81;
      }

      .cls-5 {
        fill: #df1815;
        opacity: .39;
      }
    </style>
    <pattern id="_6_lpi_30_" data-name="6 lpi 30%" x="0" y="0" width="72" height="72" patternTransform="translate(-708.91 305.85)" patternUnits="userSpaceOnUse" viewBox="0 0 72 72">
      <g>
        <rect class="cls-1" width="72" height="72"/>
        <line class="cls-2" x1="-.25" y1="66" x2="72.25" y2="66"/>
        <line class="cls-2" x1="-.25" y1="42" x2="72.25" y2="42"/>
        <line class="cls-2" x1="-.25" y1="18" x2="72.25" y2="18"/>
        <line class="cls-2" x1="-24" y1="18" x2="-7.5" y2="18"/>
        <line class="cls-2" x1="-.25" y1="54" x2="72.25" y2="54"/>
        <line class="cls-2" x1="-.25" y1="30" x2="72.25" y2="30"/>
        <line class="cls-2" x1="-.25" y1="6" x2="72.25" y2="6"/>
        <line class="cls-2" x1="-24" y1="6" x2="-7.5" y2="6"/>
      </g>
    </pattern>
  </defs>
  <g id="_レイヤー_1-2" data-name="レイヤー 1">
    <g class="cls-4">
      <path class="cls-3" d="M125.61,23.86c-1.24-1.2-.18-1.98-2.78-2.25.13-.02.33,0,.48-.02.25-1.21-.2-2.34-1.7-2.64.18-.08.39-.34.75-.45.03-.6-.55-1.04-1.27-1.27.28-.46.93-.75,1.52-.95-.46-.47-.97-.89-1.71-1.01.13-.18.4-.63.58-.79,1.46-.43.27-1.35-.19-1.83.12,0,.22.01.32.06.32-1.37-1.09-2.49-.51-3.7.05-.03.34-.15.38-.17-1.63-1.22-3.14-3.57-3.27-5.31-.49-.06-.56-.3-1.08-.33.19-.98-1.07-1.35-1-2.34-.17-.03-.34,0-.51-.04-.12-.28-.34-.55-.41-.82L0,.28c.11.51.65.87,1.3,1.16-.96,1.02.27,1.78.79,2.62.82,1.33.39,2.01.17,3.24-.08.41.46.46.16,1.11-.22.47-1.29.95-1.44,1.29-.41.9.49,3.02,1.22,3.6-1.3.4-.28,4.26-.3,5.21-.02.73-.54,1.37-.36,1.99.08.28,1.09-.04,1.13.4.03.27-.4.51-.4.57.01.59-.59,1.8-1.49,2.14.04.04.15.15.13.21-.12.08-.3.21-.35.32l125.04-.28Z"/>
      <path class="cls-5" d="M125.61,23.86c-1.24-1.2-.18-1.98-2.78-2.25.13-.02.33,0,.48-.02.25-1.21-.2-2.34-1.7-2.64.18-.08.39-.34.75-.45.03-.6-.55-1.04-1.27-1.27.28-.46.93-.75,1.52-.95-.46-.47-.97-.89-1.71-1,.13-.18.4-.63.58-.79,1.46-.43.27-1.35-.19-1.83.12,0,.22.01.32.06.32-1.37-1.09-2.49-.51-3.7.05-.03.34-.15.38-.17-1.63-1.22-3.14-3.57-3.27-5.31-.49-.06-.56-.3-1.08-.33.19-.98-1.07-1.36-1-2.34-.17-.03-.34,0-.51-.04-.12-.28-.34-.54-.41-.82L0,.28c.11.51.65.87,1.3,1.16-.96,1.02.27,1.78.79,2.62.82,1.33.39,2.01.17,3.24-.08.41.46.46.16,1.11-.22.47-1.29.95-1.44,1.29-.41.9.49,3.02,1.22,3.6-1.3.4-.28,4.26-.3,5.21-.02.73-.54,1.37-.36,1.99.08.28,1.09-.04,1.13.4.03.27-.4.51-.4.57.01.59-.59,1.8-1.49,2.14.04.04.15.15.13.21-.12.08-.3.21-.35.32l125.04-.28Z"/>
    </g>
  </g>
</svg>