<?xml version="1.0" encoding="UTF-8"?>
<svg id="_レイヤー_2" data-name="レイヤー 2" xmlns="http://www.w3.org/2000/svg" xmlns:xlink="http://www.w3.org/1999/xlink" viewBox="0 0 117.76 24.14">
  <defs>
    <style>
      .cls-1, .cls-2, .cls-3 {
        fill: none;
      }

      .cls-4 {
        fill: #231815;
      }

      .cls-5 {
        fill: #947927;
      }

      .cls-6 {
        fill: #a48629;
      }

      .cls-7 {
        fill: url(#_インディアン_葉_カラー);
        opacity: .66;
      }

      .cls-2 {
        stroke-width: .6px;
      }

      .cls-2, .cls-3 {
        stroke: #000;
        stroke-linecap: round;
      }

      .cls-3 {
        stroke-width: .45px;
      }
    </style>
    <pattern id="_インディアン_葉_カラー" data-name="インディアン (葉) カラー" x="0" y="0" width="53.02" height="59.16" patternTransform="translate(-292 288.87)" patternUnits="userSpaceOnUse" viewBox="0 0 53.02 59.16">
      <g>
        <rect class="cls-1" x="0" width="53.02" height="59.16"/>
        <rect class="cls-6" x="0" width="53.02" height="59.16"/>
        <line class="cls-2" x1="5.41" y1="60.74" x2="5.41" y2="-6.46"/>
        <line class="cls-2" x1="21.1" y1="-6.46" x2="21.1" y2="60.74"/>
        <line class="cls-2" x1="3.84" y1="60.74" x2="3.84" y2="-6.46"/>
        <line class="cls-2" x1="22.67" y1="-6.46" x2="22.67" y2="60.74"/>
        <line class="cls-2" x1="31.91" y1="60.74" x2="31.91" y2="-6.46"/>
        <line class="cls-2" x1="47.61" y1="-6.46" x2="47.61" y2="60.74"/>
        <line class="cls-2" x1="30.35" y1="60.74" x2="30.35" y2="-6.46"/>
        <line class="cls-2" x1="49.18" y1="-6.46" x2="49.18" y2="60.74"/>
        <path class="cls-4" d="M42.13,13.52c.24,1.13.03,3,0,4.38-.04,1.81.46,1.62.85,2.12,2.24,2.58,2.39,5.66,1.82,8-.28-.94-1.11-.95-1.77-1.89,2.63,3.78-.05,5.54.56,8.04-.28-.85-1.32-1.88-1.88-3.11-.19,2.63,1.51,4.61,0,6.49-.09-2.16-3.2-3.86-2.54-7.06-.75,1.04-1.69,1.69-1.69,1.69-.38-1.32.05-5.22,1.55-6.82-.57.28-1.55.71-1.84,1.32-.04-2.22.39-3.62,2.78-6.43.28-.19.52-1.13.61-1.65.18-1.02.05-2.13.56-3.68.38-.56.8-.89.99-1.41Z"/>
        <path class="cls-4" d="M35.35,64.18c-.53-1.15-.96-5.16.92-7.92-.69.92-1.52.28-1.83,1.21,0,0-.87-4.16,2.08-7.32.4-.48.49-.94.52-1.49.12-2.21-.59-5.34-.27-6.03.35.72.8,1.33,1.16,1.72.43,1.24.42,3.29.57,4.32.08.52.15,1.09.43,1.29,2.26,1.49,3.45,3.93,2.99,6.36-.56-.11-1.07-.37-1.63-.67,1.45,1.65,1.38,5.36.96,6.67"/>
        <path class="cls-4" d="M15.62,45.64c.24-1.13.03-3,0-4.38-.04-1.81.46-1.62.85-2.12,2.24-2.58,2.39-5.66,1.82-8-.28.94-1.11.95-1.77,1.89,2.63-3.78-.05-5.54.57-8.04-.28.85-1.32,1.88-1.88,3.11-.19-2.63,1.51-4.61,0-6.49-.09,2.16-3.2,3.86-2.54,7.06-.75-1.03-1.69-1.69-1.69-1.69-.38,1.32.05,5.22,1.55,6.82-.56-.28-1.55-.71-1.84-1.32-.04,2.22.39,3.62,2.78,6.43.28.19.52,1.13.61,1.65.18,1.02.05,2.13.56,3.68.38.56.8.89.99,1.41Z"/>
        <path class="cls-4" d="M13.78,62.69c1.45-1.65,1.38-5.36.96-6.67,0,0-.92.69-1.64,1.75.55-3.22-1.9-6.24-3.13-6.39.7,1.29.96,3.36.57,5.91-.6-1.2-1.67-2.11-1.71-3.14-.53,1.15-.96,5.16.92,7.92"/>
        <path class="cls-4" d="M40.29-3.53c1.45,1.65,1.38,5.36.96,6.67,0,0-.92-.69-1.64-1.75.55,3.22-1.9,6.24-3.13,6.39.7-1.29.96-3.36.57-5.91-.6,1.2-1.67,2.11-1.7,3.14-.53-1.15-.96-5.16.92-7.92"/>
        <path class="cls-4" d="M8.84-5.02c-.53,1.15-.96,5.16.92,7.92-.69-.92-1.52-.28-1.83-1.21,0,0-.87,4.16,2.08,7.32.4.48.49.94.52,1.49.12,2.21-.59,5.34-.27,6.03.35-.72.8-1.33,1.16-1.72.43-1.24.42-3.29.57-4.32.08-.52.15-1.09.43-1.29,2.26-1.49,3.45-3.93,2.99-6.36-.56.11-1.07.36-1.63.67,1.45-1.65,1.38-5.36.96-6.67"/>
        <path class="cls-5" d="M41.31,16.22c.07-.39.11-1.21.31-1.81.15-.22.15-.14.22-.34.09.44-.03.87-.04,1.41-.62,6.75.38,6.35-.23,9.08-.19.88-.38,1.73-.71.61-1.08-3.73-.06-1.56.44-8.94Z"/>
        <path class="cls-5" d="M37.81,46.03c.12,1.76.38,3.69.62,5.5.1.71.52,2.54.03,3.58-.35.76-.47.18-.69-.35-.94-3.25.54-1.35-.4-8.72.06-1.06-.41-2.5-.26-2.84.17.34.38.64.55.82.21.59.07,1.52.14,2.01Z"/>
        <path class="cls-5" d="M14.81,42.95c.07.4.11,1.21.31,1.81.15.22.15.15.22.35.09-.44-.03-.87-.04-1.41-.62-6.75.38-6.35-.23-9.08-.19-.88-.38-1.73-.71-.61-1.08,3.73-.06,1.56.44,8.94Z"/>
        <path class="cls-5" d="M11.31,13.13c.12-1.76.38-3.69.62-5.5.1-.71.52-2.54.03-3.58-.35-.76-.47-.18-.69.35-.94,3.25.53,1.35-.4,8.72.06,1.06-.41,2.5-.26,2.84.17-.34.38-.63.55-.82.21-.59.07-1.52.14-2.02Z"/>
        <path class="cls-3" d="M13.09,72.14c7.73-6.84,7.8-22.38,0-29.61-7.72-6.84-7.8-22.34,0-29.57,7.73-6.84,7.8-22.36,0-29.59"/>
        <path class="cls-3" d="M39.59-12.98c7.73,6.84,7.81,22.38,0,29.61-7.72,6.84-7.8,22.34,0,29.57,7.73,6.84,7.81,22.36,0,29.59"/>
      </g>
    </pattern>
  </defs>
  <g id="_レイヤー_1-2" data-name="レイヤー 1">
    <path class="cls-7" d="M117.76,23.86c-1.16-1.2-.17-1.98-2.61-2.25.12-.03.31,0,.45-.02.23-1.21-.19-2.34-1.6-2.64.16-.08.37-.34.7-.45.03-.6-.52-1.04-1.19-1.27.26-.46.87-.75,1.42-.95-.44-.46-.91-.89-1.61-1.01.13-.18.38-.63.55-.79,1.36-.43.25-1.35-.18-1.83.11,0,.21.01.3.06.3-1.37-1.02-2.49-.48-3.7.05-.04.32-.15.36-.17-1.53-1.22-2.94-3.57-3.07-5.31-.46-.06-.53-.3-1.01-.32.18-.98-1-1.36-.94-2.35-.16-.03-.32,0-.48-.04-.11-.28-.32-.54-.39-.82L0,.28c.1.51.61.87,1.22,1.16-.9,1.02.26,1.78.74,2.62.77,1.33.37,2.01.16,3.24-.07.41.43.47.15,1.11-.21.47-1.2.94-1.35,1.29-.39.9.46,3.01,1.14,3.6-1.22.39-.26,4.26-.29,5.21-.01.73-.5,1.36-.33,1.99.08.28,1.02-.04,1.06.4.03.26-.38.5-.38.56,0,.58-.55,1.8-1.39,2.14.03.04.14.15.12.21-.11.08-.28.21-.33.32l117.23-.28Z"/>
  </g>
</svg>