<?xml version="1.0" encoding="UTF-8"?>
<svg id="_レイヤー_2" data-name="レイヤー 2" xmlns="http://www.w3.org/2000/svg" xmlns:xlink="http://www.w3.org/1999/xlink" viewBox="0 0 126.21 24.42">
  <defs>
    <style>
      .cls-1, .cls-2 {
        fill: none;
      }

      .cls-3 {
        fill: url(#_朝顔);
        opacity: .74;
      }

      .cls-4 {
        fill: #fff;
        opacity: .51;
      }

      .cls-5 {
        fill: #231815;
      }

      .cls-2 {
        stroke: #231815;
        stroke-width: .75px;
      }
    </style>
    <pattern id="_朝顔" data-name="朝顔" x="0" y="0" width="160.05" height="139.84" patternTransform="translate(-13.55 538.09)" patternUnits="userSpaceOnUse" viewBox="0 0 160.05 139.84">
      <g>
        <rect class="cls-1" y="0" width="160.05" height="139.84"/>
        <path class="cls-5" d="M10.12,54.36c1.34,0,2.25-2.5,3.17-.55,1.06,2.27.96,5.2.31,7.88-.26-.34-.48-.97-.7-.95-1.02.09-.87,2.08-1.33,1-1.21-2.82-2.91-5.14-5.1-7.18,1.15.14,2.52-.2,3.65-.2Z"/>
        <path class="cls-5" d="M36.09,37.84c-.25-2.1.14-4.19-.57-6.22,1.75.11,3.42.51,5.03,1.32.35.18.88.35,1.37.28-.12.28.27.49.14.69-.93,1.38-1.72,2.58-2.59,3.96-.9,1.43-.57,3.43-2.06,4.32-.22.13-.22-.72-.46-.7-.39.04-.64.59-.9.98-1.46-1.28.24-2.96.04-4.63Z"/>
        <path class="cls-5" d="M107.72,93.66c-1.22.54-3.07-1.36-3.11.79-.05,2.5,1.24,5.13,2.92,7.3.1-.42.04-1.07.26-1.15.97-.34,1.63,1.54,1.62.37-.04-3.07.56-5.86,1.73-8.62-.99.6-2.38.84-3.41,1.3Z"/>
        <path class="cls-5" d="M77.41,89.18c-.62-2.02-1.83-3.77-2.01-5.91-1.55.81-2.92,1.86-4.06,3.26-.25.3-.66.68-1.14.81.22.21-.05.56.15.68,1.41.88,2.62,1.66,3.98,2.57,1.41.94,1.91,2.9,3.64,3.1.25.03-.1-.75.14-.83.37-.12.83.27,1.22.53.81-1.77-1.43-2.61-1.92-4.21Z"/>
        <path class="cls-5" d="M110.93,23.47c-1.22.54-3.07-1.36-3.11.79-.04,2.5,1.24,5.13,2.92,7.3.1-.42.04-1.08.26-1.15.97-.34,1.63,1.54,1.62.37-.04-3.07.56-5.86,1.73-8.62-.99.6-2.38.84-3.41,1.3Z"/>
        <path class="cls-5" d="M80.47,18.99c-.62-2.02-1.83-3.77-2.01-5.91-1.55.81-2.92,1.86-4.05,3.26-.25.3-.66.68-1.14.81.22.21-.05.56.15.68,1.41.88,2.62,1.66,3.98,2.57,1.41.94,1.91,2.9,3.64,3.1.25.03-.1-.75.14-.83.37-.12.83.28,1.22.53.81-1.77-1.43-2.61-1.92-4.21Z"/>
        <path class="cls-5" d="M9.7,123.8c1.33,0,2.25-2.49,3.16-.54,1.06,2.26.96,5.19.31,7.86-.26-.34-.48-.96-.7-.94-1.02.08-.87,2.07-1.32,1-1.21-2.82-2.9-5.13-5.09-7.17,1.15.14,2.52-.2,3.65-.2Z"/>
        <path class="cls-5" d="M35.67,107.27c-.25-2.1.14-4.19-.57-6.22,1.75.11,3.42.51,5.03,1.32.35.18.88.35,1.37.28-.12.28.27.49.14.69-.93,1.38-1.72,2.58-2.59,3.96-.9,1.43-.57,3.43-2.06,4.32-.22.13-.22-.72-.46-.7-.39.04-.64.59-.9.98-1.46-1.29.24-2.97.04-4.63Z"/>
        <path class="cls-2" d="M0,80.27c-.26.41-.41.71-.41.71"/>
        <path class="cls-2" d="M36.95,44.04c-.2,3.03-4.45,10.31-11.32,17.18-5.11,5.11-2.83,3.03-3.84,5.25-1.01,2.22-1.82,4.85-3.03,5.66-1.82,1.21-4.65,13.94-1.62,17.58"/>
        <path class="cls-2" d="M13.1,62.63c1.41,2.63.4,7.88,1.01,10.31.61,2.42.43,2.03.61,3.84.2,2.02.2,15.96,8.69,22.84"/>
        <path class="cls-2" d="M34.32,51.51c2.83,2.02,5.86,2.22,8.69-.81,2.83-3.03,3.44-2.42,5.05-2.42"/>
        <path class="cls-2" d="M16.88,75.99c-.5-5.15-7.01-4.46-9.84-1.43-2.83,3.03-2.83,3.64-4.45,3.64-1.07,0-2.06,1.25-2.6,2.08"/>
        <path class="cls-2" d="M18.17,77.09c1.58-3.1,4.18-4.67,8.09-3.28,3.91,1.39,4.4-.33,5.84-1.07,1.43-.75,3.98.65,3.98.65"/>
        <path class="cls-2" d="M13.71,68.08c-1.52-3.13-4.08-4.76-8.02-3.45"/>
        <path class="cls-2" d="M79.16,95.19c1.42,2.69,8.26,7.6,17.33,11.08,6.74,2.58,3.82,1.62,5.65,3.23,1.83,1.62,3.64,3.69,5.07,3.93,2.15.37,9.93,10.84,8.64,15.4"/>
        <path class="cls-2" d="M108.51,102.45c-.22,2.98,2.84,7.36,3.28,9.82.43,2.46.44,2.03,1.01,3.75.62,1.89,6.09,14.15,1.66,23.8"/>
        <path class="cls-2" d="M84.6,100.95c-1.76,3-4.45,4.42-8.26,2.8-3.82-1.62-4.13-.81-5.6-.16"/>
        <path class="cls-2" d="M110.33,116.47c.03-4.88,4.75-7.21,8.57-5.59,3.82,1.62,4.07,2.17,5.54,1.51,1.48-.66,3.92,1.35,3.92,1.35"/>
        <path class="cls-2" d="M109.77,117.72c-2.71-2.18-5.72-2.56-8.72.3-3,2.86-4.15,1.5-5.77,1.4-1.61-.09-3.36,2.22-3.36,2.22"/>
        <path class="cls-2" d="M110.18,107.68c.11-3.48,1.79-6.01,5.91-6.42"/>
        <path class="cls-2" d="M82.2,25.07c1.42,2.69,8.26,7.6,17.33,11.08,6.74,2.58,3.82,1.62,5.65,3.23,1.83,1.62,3.64,3.69,5.07,3.93,2.16.37,9.93,10.84,8.64,15.4"/>
        <path class="cls-2" d="M111.55,32.33c-.22,2.98,2.84,7.36,3.28,9.82.43,2.46.44,2.03,1.01,3.75.64,1.93,6.32,14.66,1.37,24.4"/>
        <path class="cls-2" d="M87.65,30.83c-1.76,3-4.45,4.42-8.27,2.8-3.82-1.62-4.13-.82-5.6-.16"/>
        <path class="cls-2" d="M113.38,46.35c.03-4.88,4.75-7.21,8.57-5.59,3.82,1.62,4.07,2.17,5.54,1.51,1.48-.66,3.92,1.35,3.92,1.35"/>
        <path class="cls-2" d="M112.81,47.6c-2.7-2.18-5.72-2.56-8.72.3-3,2.86-4.15,1.5-5.77,1.4-1.61-.1-3.36,2.22-3.36,2.22"/>
        <path class="cls-2" d="M113.22,37.56c.11-3.48,1.79-6.01,5.92-6.42"/>
        <path class="cls-2" d="M33.9,120.94c2.83,2.02,5.86,2.22,8.69-.81,2.83-3.03,3.43-2.43,5.05-2.43"/>
        <path class="cls-2" d="M13.29,137.51c-1.03-2.12-4.01-5.07-7.73-3.83"/>
        <path class="cls-2" d="M19.63.07c-.42.83-.69,1.7-.99,2.16-1.21,1.82-4.53,13.59-1.5,17.23"/>
        <path class="cls-2" d="M13.44,0c0,1.02.5,1.94.67,2.63.61,2.43.43,2.03.61,3.84.2,2.02.2,15.96,8.69,22.84"/>
        <path class="cls-2" d="M16.98,5.25c.24-4.65-7.11-4.04-9.94-1.01-2.83,3.03-2.83,3.64-4.45,3.64C1.51,7.88.52,9.15-.02,9.99"/>
        <path class="cls-2" d="M18.17,6.78c1.58-3.1,4.18-4.67,8.09-3.28,3.91,1.39,4.4-.33,5.84-1.07,1.43-.75,3.98.65,3.98.65"/>
        <path class="cls-2" d="M36.53,113.46c-.2,3.03-4.45,10.31-11.32,17.18-5.11,5.11-2.83,3.03-3.84,5.25-.61,1.34-1.14,2.82-1.73,3.96"/>
        <path class="cls-2" d="M12.68,132.06c1.03,1.91.78,5.2.79,7.79"/>
        <path class="cls-5" d="M45.28,38.18c-.61,2.83-1.43,8.28.88,8.89,2.31.61.95.81,1.54,2.42.59,1.62,2.89,4.85,7.88,3.44-.67-1.21-.32-2.83-2.59-3.64,2.67-.2,6.7-.61,11.81-4.24-1.01-1.41-7.41-3.03-15.51-2.02-1.19-1.42-1.69-3.44-4.01-4.85Z"/>
        <path class="cls-5" d="M0,87.41c1.45,1.33,2.86,2.86,5.66,4.01,0-3-.52-8.77-3.9-9.42-.9-.17-1.44-.31-1.76-.46v5.87Z"/>
        <path class="cls-5" d="M29.12,73.38c-2.65-2.27-7.43-6.89-5.93-8.93,1.5-2.04.2-1.37-.52-3.26-.72-1.9-1.2-6.41,4.1-8.26.34,1.57,1.85,2.87.54,5.07,2.41-1.51,6.13-3.7,13.19-3.54.21,1.97-4,7.58-11.62,11.8.05,2.09,1.15,4.31.24,7.12Z"/>
        <path class="cls-5" d="M0,70.43c1.57-.66,3.27-1.41,5.07-2.25,1.61.62,2.63,1.7,5.44,2.14-.04-1.72-.51-4.97-3.11-4.96-2.59.02-1.2-.31-2.22-1.15-.7-.57-2.46-1.98-5.16-2.29v8.5Z"/>
        <path class="cls-5" d="M28.13,81.57c1.47-3.16,4.62-9.02,6.99-8.13,2.37.89,1.37-.18,3-1.38,1.63-1.21,6.9-1.95,10.34,1.29-1.42.75-3.64,2.22-6.01,2.32,2.11,1.92,5.23,4.9,6.98,11.74-1.84.74-8.38-1.8-14.5-8-2,.62-3.84,2.27-6.79,2.16Z"/>
        <path class="cls-5" d="M69.16,93.23c1.71,2.33,4.68,6.99,2.82,8.48-1.86,1.49-.54,1.12-.41,2.84.12,1.72-.66,5.61-5.8,6.35.12-1.38-.86-2.72.88-4.38-2.52.9-6.37,2.18-12.51.93.34-1.7,5.53-5.79,13.34-8.16.51-1.78.15-3.83,1.69-6.06Z"/>
        <path class="cls-5" d="M127.04,125.71c-1.22-2.74-3.1-8.22-.28-10.19,2.82-1.96,1.07-1.42,1.56-3.51.49-2.09,2.89-6.91,9.43-8.19-.66,1.7.04,3.27-2.7,5.42,3.41-1.29,8.57-3.12,15.59-2.04-1.05,2.11-8.9,7.48-19.3,10.95-1.29,2.21-1.6,4.7-4.31,7.55Z"/>
        <path class="cls-5" d="M98.26,118.8c1.49-3.15,3.98-9.32,1.78-10.58-2.2-1.25-.74-1.17-.86-3.19-.12-2.02-1.51-6.34-7.11-5.88.33,1.57-.52,3.38,1.57,4.85-2.82-.4-7.11-.88-13.49,2.14.61,1.89,6.74,5.29,15.42,6.04.81,1.93.71,4.41,2.68,6.61Z"/>
        <path class="cls-5" d="M114.01,108.43c-.66-1.58-1.56-4.75.82-5.79,2.38-1.04.97-.78,1.56-1.95.59-1.17,2.68-4.96,7.86-5.52-.69.95-.05,2.97-2.38,4.12,2.76-.64,7.74-.05,11.95,3.43-1.02,1.17-7.29,1.68-15.71,1.54-1.22,1.22-1.71,2.63-4.09,4.17Z"/>
        <path class="cls-5" d="M102.5,125.87c-2.63-2.29-7.89-6.35-9.7-4.58-1.8,1.78-1.32.39-3.3-.04-1.98-.44-7.1,1.03-8.92,5.39,1.6.11,4.23.55,6.43-.33-1.39,3.15-3.01,4.51-1.53,13.23,1.98-.08,6.86-4.72,9.93-12.88,2.08-.25,4.43.51,7.08-.79Z"/>
        <path class="cls-5" d="M72.2,23.11c1.71,2.33,4.68,6.99,2.82,8.48-1.86,1.49-.54,1.12-.42,2.84.12,1.72-.66,5.61-5.8,6.35.12-1.38-.86-2.71.88-4.37-2.52.9-6.37,2.17-12.51.93.34-1.7,5.53-5.79,13.34-8.17.51-1.78.15-3.83,1.69-6.06Z"/>
        <path class="cls-5" d="M130.09,55.59c-1.22-2.74-3.1-8.22-.28-10.19,2.82-1.96,1.07-1.42,1.56-3.51.49-2.09,2.89-6.91,9.43-8.19-.66,1.7.04,3.27-2.7,5.42,3.41-1.29,8.57-3.12,15.59-2.04-1.05,2.11-8.89,7.48-19.3,10.95-1.29,2.22-1.6,4.7-4.31,7.55Z"/>
        <path class="cls-5" d="M101.3,48.68c1.49-3.15,3.98-9.32,1.78-10.58-2.2-1.25-.74-1.17-.86-3.19-.12-2.02-1.51-6.34-7.11-5.88.33,1.57-.52,3.37,1.57,4.85-2.82-.4-7.11-.88-13.49,2.14.61,1.89,6.74,5.29,15.42,6.04.8,1.93.71,4.41,2.68,6.61Z"/>
        <path class="cls-5" d="M117.06,38.31c-.66-1.58-1.56-4.75.82-5.79,2.38-1.04.97-.78,1.56-1.95.59-1.17,2.68-4.96,7.86-5.52-.69.95-.05,2.97-2.38,4.12,2.76-.64,7.74-.05,11.95,3.43-1.02,1.17-7.29,1.68-15.71,1.54-1.22,1.22-1.71,2.62-4.09,4.17Z"/>
        <path class="cls-5" d="M105.54,55.75c-2.63-2.29-7.89-6.35-9.7-4.57-1.8,1.78-1.32.39-3.3-.04-1.98-.44-7.1,1.03-8.92,5.39,1.6.11,4.23.55,6.43-.33-1.15,2.61-2.78,6.6-1.59,13.56,1.98-.08,6.92-5.06,9.99-13.21,2.08-.25,4.43.51,7.08-.79Z"/>
        <path class="cls-5" d="M44.86,107.6c-.61,2.83-1.43,8.29.88,8.89,2.31.61.95.81,1.54,2.42.59,1.62,2.89,4.85,7.88,3.44-.67-1.21-.32-2.83-2.59-3.64,2.67-.2,6.7-.61,11.81-4.24-1.01-1.41-7.41-3.03-15.51-2.02-1.19-1.41-1.69-3.43-4.01-4.85Z"/>
        <path class="cls-5" d="M25.41,139.84c-2.07-2.18-3.64-4.61-2.64-5.97,1.5-2.04.2-1.37-.52-3.26-.72-1.9-1.2-6.41,4.1-8.26.34,1.57,1.85,2.87.54,5.07,2.42-1.51,6.13-3.7,13.19-3.54.21,1.97-4,7.58-11.62,11.8.03,1.3.47,2.65.58,4.16h-3.62Z"/>
        <path class="cls-5" d="M.01,137.66c1.25-.3,2.56-.64,3.93-1.01,1.48.89,2.3,2.12,4.99,3.04.25-1.7.34-4.99-2.21-5.41-2.56-.43-1.13-.51-1.99-1.51-.59-.68-2.14-2.36-4.71-3.13v8.03Z"/>
        <path class="cls-5" d="M-.02,17.1c1.45,1.33,2.87,2.86,5.67,4.02,0-3-.52-8.77-3.9-9.41-.89-.17-1.42-.31-1.74-.46l-.03,5.85Z"/>
        <path class="cls-5" d="M29.09,0c.08.95.03,1.93-.32,3.03-.91-.78-2.08-1.88-3.15-3.02h3.48Z"/>
        <path class="cls-5" d="M28.13,11.26c1.47-3.16,4.62-9.02,6.99-8.13,2.37.89,1.37-.18,3-1.38,1.63-1.2,6.9-1.95,10.34,1.29-1.42.75-3.64,2.22-6.01,2.32,2.11,1.91,5.23,4.9,6.98,11.74-1.84.74-8.38-1.8-14.5-7.99-2,.62-3.84,2.27-6.79,2.16Z"/>
        <path class="cls-5" d="M160.07,81.55c-.9-.41-.16-.85-1.12-2.12-1.3-1.71-5.46-5.13-11.95-3.64,1.3,1.28,1.3,3,4.68,3.85-3.64.21-9.09.64-15.07,4.49,1.82,1.5,11.17,3.21,22.09,2.14.48.34.92.73,1.36,1.13l.03-5.86Z"/>
        <path class="cls-5" d="M160.04,61.94c-1.23-.14-2.68-.05-4.23.45,1.01.59,1.26,2.69,3.86,2.79-2.78.54-7.09,3.11-9.52,8,1.08.5,4.8-.61,9.91-2.75v-8.5Z"/>
        <path class="cls-5" d="M160.07,129.7c-1.2-.36-2.62-.52-4.26-.29.9.75.78,2.87,3.32,3.41-2.84.05-7.52,1.85-10.74,6.25,1.07.73,5.53.14,11.68-1.35v-8.03Z"/>
        <path class="cls-5" d="M160.05,11.06c-.13-.35-.46-1.08-1.1-1.94-1.3-1.71-5.46-5.13-11.95-3.64,1.3,1.28,1.3,3,4.68,3.85-3.64.21-9.09.64-15.07,4.49,1.82,1.5,11.17,3.21,22.09,2.14.5.36.92.75,1.37,1.16v-6.08Z"/>
        <path class="cls-5" d="M6.59,36.31c3-.86,5.84.05,8.84-.15-3.58,2.24-5.45,6.16-6.01,10.24-.43-3.9-2.46-7.89-5.65-10.16.95-.98,1.83.35,2.82.07Z"/>
        <path class="cls-5" d="M16.88,36.73c1.15-.43,2.46-.22,3.68-.16.57.03.35.61.53,1.14-5.22-.17-6.14,2.65-8.1,6.82-.31.66-.98,1.5-1.96,1.66.37-3.59,2.17-8.08,5.86-9.46Z"/>
        <path class="cls-5" d="M24.17,40.28c.43.66-1.12,1.09-1.4,1.99-2.02-1.6-4.55-.9-6.71-.18,2.16-2.02,5.87-5.21,8.11-1.82Z"/>
        <path class="cls-5" d="M22.01,43.61c.09.29-.29.39-.12.57-1.12.34-1.79,1.3-2.29,2.29-1.04-1.51-2.79-2.34-4.59-2.12,1.43-1.7,4.22-1.88,6.34-1.35.22.06.52.19.66.61Z"/>
        <path class="cls-5" d="M18.38,48.71c-1.34,1.01-2.49,3.3-3.92,2.38-1.02-.66-1.38-2.29-2.63-3.11,1.46-2.07,4.94-2,6.62-.43.12.11.48.75-.07,1.16Z"/>
        <path class="cls-5" d="M11.04,53.14c-1.64.48-2.98.66-4.39.38.47-1.91,1.42-4.64,3.69-4.38,1.32.15,1.73,1.79,2.17,3.02.16.45-.91.83-1.46.98Z"/>
        <path class="cls-5" d="M27.43,26.04c2.01-.44,3.82-.22,5.65.53-2.66-.64-5,.51-7.62.92-.35.05-1.05-.06-1.39-.56,1.1-.35,2.18-.63,3.36-.88Z"/>
        <path class="cls-5" d="M29.14,24.06c-2.03.2-3.7,1.35-5.65,1.65,2.28-1.76,5.07-3.22,7.61-3.3,1.75-.06,4.47,2.01,4.22,4.34-.01.13-1.03.09-1.33-.23-1.31-1.42-2.85-2.65-4.85-2.45Z"/>
        <path class="cls-5" d="M34.66,22.55c-.9-.7-1.79-1.23-2.83-1.58,2.58-1.73,6.41-2.18,7.81-.04.87,1.33-1.31,3.82-1.81,6.04-1.71-1-1.63-3.21-3.17-4.42Z"/>
        <path class="cls-5" d="M43.54,25.88c-.59.4-.65,1-1.03,1.45,0-2.08.26-4.15-.35-6.18,2.17.86,4.37,1.62,6.54,2.47-1.72.74-3.47,1.12-5.15,2.25Z"/>
        <path class="cls-5" d="M46.02,26.34c1.44-.83,2.97-2.01,4.32-1.12,1.62,1.07,4.09.78,4.55,2.97-3.46-1.38-7.17-.37-10.77-.53.59-.51,1.21-.91,1.9-1.31Z"/>
        <path class="cls-5" d="M47.34,28.91c2.18-.47,4.4-.23,6.5.55-2.67,2.53-5.8.27-8.65-.18.52-.91,1.43-.22,2.15-.38Z"/>
        <path class="cls-5" d="M47.01,31.27c.46.16.88.5,1.41.36-1.1,1.98-3.85,1.77-5.36.72-.44-.3-.21-1.74-.83-1.77-.76-.04.46,1.62-.33,1.56-2.5-.21-4.7-1.12-7.26-1.04,2.23-.65,5.28-.72,7.15-1.05,1.74-.31,3.54.64,5.22,1.21Z"/>
        <path class="cls-5" d="M32.23,30.94c-1.79.58-3.2-1.61-4.85-2.54,2.91-1.79,6.52-.31,9.54.53-1.85.07-3.15,1.52-4.68,2.01Z"/>
        <path class="cls-5" d="M108.89,73.64c-1.95.66-.87,8.03.12,11.75,1.47-3.97,4.57-7.75,8.67-9.18-5.52.63-7.1-3.13-8.78-2.56Z"/>
        <path class="cls-5" d="M103.72,75.84c-3.08.44-5.31,2.42-8.13,3.46,4.18.58,7.48,3.41,9.66,6.91-1.2-3.74-.97-8.21,1.02-11.58-1.26-.51-1.53,1.06-2.55,1.21Z"/>
        <path class="cls-5" d="M94.6,80.39c-1.23.08-2.33.8-3.42,1.35-.51.26-.07.7-.02,1.26,4.69-2.28,6.69-.08,10.18,2.92.56.48,1.51.97,2.47.72-1.8-3.13-5.28-6.5-9.2-6.25Z"/>
        <path class="cls-5" d="M89.36,86.52c-.13.78,1.47.54,2.08,1.25,1.19-2.29,3.79-2.67,6.06-2.9-2.79-.96-7.48-2.36-8.14,1.65Z"/>
        <path class="cls-5" d="M92.63,88.72c.03.3.42.24.34.47,1.16-.15,2.16.46,3.03,1.16.34-1.8,1.6-3.27,3.33-3.81-2-.97-4.63,0-6.34,1.35-.18.14-.4.39-.36.82Z"/>
        <path class="cls-5" d="M98,91.86c1.64.38,3.62,2,4.55.58.67-1.02.33-2.65,1.14-3.91-2.18-1.29-5.33.18-6.22,2.3-.06.15-.13.88.54,1.03Z"/>
        <path class="cls-5" d="M106.5,92.96c1.69-.23,2.99-.61,4.16-1.45-1.21-1.55-3.18-3.66-5.15-2.5-1.14.67-.85,2.34-.75,3.64.04.47,1.17.38,1.74.3Z"/>
        <path class="cls-5" d="M114.79,90.58c.56-.41,1.01-.86,1.67-1.06-1.27-1.77-4.17-3.14-5.94-1.6.56.05,1.08.55,1.17.82.59,1.75,1.26,3.2,3.1,1.85Z"/>
        <path class="cls-5" d="M118.32,88.23c.58-.32,1-.79,1.33-1.35-2.04-.54-4.07-1.08-6.2-.91,1.76.45,2.94,3.32,4.87,2.26Z"/>
        <path class="cls-5" d="M122.17,85.98c1.37-.09,3.15-1.46,2.37-2.64-2.12-3.19-6.36-.09-9.11,1.5,2.24.46,4.45,1.28,6.74,1.13Z"/>
        <path class="cls-5" d="M120.9,79.37c.49-2.05-2.1-1.85-3.18-1.44-3.57,1.34-6.81,4.22-7.2,7.95-.04.43,1.01-.34,1.29-.68,2.3-2.81,5.69-4.91,9.5-4.67.14,0-.52-.66-.4-1.17Z"/>
        <path class="cls-5" d="M80.59,74.77c-2.02.42-3.58,1.35-4.95,2.79,2.17-1.66,4.78-1.58,7.33-2.27.34-.09.94-.49,1.04-1.08-1.15.13-2.25.31-3.42.56Z"/>
        <path class="cls-5" d="M78.24,73.67c1.93-.65,3.92-.28,5.83-.8-2.8-.67-5.94-.88-8.29.08-1.62.66-3.26,3.66-2.09,5.69.07.12.98-.34,1.12-.75.62-1.84,1.52-3.58,3.43-4.22Z"/>
        <path class="cls-5" d="M72.61,74.5c.53-1.01,1.13-1.85,1.94-2.6-3.06-.53-6.75.62-7.15,3.15-.25,1.57,2.76,2.96,4.11,4.78,1.16-1.61.18-3.6,1.09-5.33Z"/>
        <path class="cls-5" d="M65.82,81.2c.7.12,1,.65,1.54.91-.85-1.89-1.92-3.68-2.19-5.79-1.63,1.67-3.33,3.26-4.96,4.92,1.87-.03,3.63-.39,5.62-.04Z"/>
        <path class="cls-5" d="M63.79,82.64c-1.66-.17-3.54-.62-4.4.74-1.05,1.63-3.42,2.38-2.95,4.57,2.6-2.66,6.4-3.26,9.62-4.87-.74-.23-1.47-.34-2.27-.43Z"/>
        <path class="cls-5" d="M63.62,85.5c-2.18.46-4.11,1.59-5.71,3.16,3.48,1.22,5.41-2.12,7.83-3.69-.85-.62-1.4.38-2.12.53Z"/>
        <path class="cls-5" d="M64.92,87.54c-.36.33-.6.81-1.14.91,1.81,1.36,4.24.05,5.19-1.53.28-.46-.51-1.68.04-1.95.68-.34.24,1.67.93,1.29,2.2-1.21,3.84-2.94,6.2-3.91-2.3.31-5.11,1.49-6.96,1.96-1.71.43-2.97,2.03-4.27,3.23Z"/>
        <path class="cls-5" d="M78.24,81.26c1.87-.2,2.26-2.78,3.4-4.3-3.39-.45-6.08,2.37-8.49,4.37,1.71-.69,3.5.1,5.1-.07Z"/>
        <path class="cls-5" d="M112.01,3.49c-1.95.66-.87,8.03.12,11.75,1.47-3.97,4.57-7.75,8.67-9.19-5.52.63-7.1-3.13-8.78-2.56Z"/>
        <path class="cls-5" d="M106.85,5.71c-3.08.44-5.31,2.43-8.13,3.46,4.18.58,7.48,3.41,9.66,6.91-1.2-3.74-.97-8.21,1.02-11.58-1.26-.51-1.53,1.06-2.55,1.21Z"/>
        <path class="cls-5" d="M97.58,10.18c-1.23.08-2.33.8-3.42,1.35-.51.26-.07.7-.02,1.26,4.69-2.28,6.69-.08,10.18,2.92.56.48,1.51.97,2.47.72-1.8-3.13-5.28-6.5-9.2-6.25Z"/>
        <path class="cls-5" d="M92.46,16.4c-.13.78,1.47.54,2.08,1.25,1.19-2.29,3.79-2.67,6.06-2.9-2.79-.96-7.48-2.36-8.14,1.65Z"/>
        <path class="cls-5" d="M95.71,18.57c.03.3.42.24.33.47,1.16-.15,2.16.46,3.03,1.16.34-1.8,1.6-3.27,3.33-3.81-1.99-.97-4.62,0-6.34,1.35-.18.14-.4.39-.35.82Z"/>
        <path class="cls-5" d="M101.06,21.78c1.64.38,3.62,2,4.55.58.66-1.02.33-2.65,1.14-3.91-2.18-1.29-5.33.18-6.22,2.3-.06.15-.13.87.53,1.03Z"/>
        <path class="cls-5" d="M109.59,22.83c1.69-.23,2.99-.61,4.16-1.45-1.21-1.55-3.18-3.66-5.15-2.5-1.15.67-.85,2.34-.75,3.65.04.47,1.17.38,1.74.3Z"/>
        <path class="cls-5" d="M117.91,20.46c.56-.41,1.01-.86,1.67-1.06-1.27-1.78-4.17-3.15-5.94-1.61.56.05,1.08.55,1.17.82.59,1.75,1.26,3.2,3.1,1.85Z"/>
        <path class="cls-5" d="M121.44,18.11c.58-.32,1-.79,1.33-1.35-2.04-.54-4.07-1.08-6.21-.91,1.76.45,2.94,3.32,4.88,2.26Z"/>
        <path class="cls-5" d="M125.26,15.84c1.37-.08,3.15-1.46,2.37-2.64-2.12-3.18-6.36-.09-9.11,1.5,2.24.46,4.45,1.28,6.74,1.13Z"/>
        <path class="cls-5" d="M124.1,9.21c.49-2.05-2.1-1.85-3.18-1.44-3.57,1.34-6.81,4.22-7.2,7.95-.04.43,1.01-.34,1.29-.68,2.31-2.81,5.69-4.91,9.5-4.67.14,0-.52-.66-.4-1.17Z"/>
        <path class="cls-5" d="M83.51,4.7c-2.02.42-3.58,1.35-4.95,2.79,2.17-1.66,4.78-1.58,7.33-2.27.34-.09.93-.49,1.04-1.08-1.15.13-2.25.31-3.42.56Z"/>
        <path class="cls-5" d="M81.25,3.6c1.93-.65,3.92-.28,5.83-.8-2.8-.67-5.94-.88-8.29.08-1.62.66-3.26,3.66-2.09,5.69.07.12.98-.34,1.12-.75.62-1.84,1.52-3.58,3.43-4.22Z"/>
        <path class="cls-5" d="M75.61,4.45c.53-1.01,1.13-1.85,1.94-2.6-3.06-.53-6.75.62-7.15,3.15-.25,1.57,2.76,2.95,4.11,4.78,1.16-1.61.18-3.59,1.09-5.33Z"/>
        <path class="cls-5" d="M68.85,11.12c.7.12,1,.65,1.54.91-.85-1.9-1.93-3.68-2.2-5.79-1.63,1.67-3.33,3.26-4.96,4.92,1.87-.03,3.63-.39,5.62-.04Z"/>
        <path class="cls-5" d="M66.77,12.52c-1.66-.17-3.54-.62-4.4.74-1.05,1.63-3.42,2.38-2.95,4.57,2.6-2.67,6.4-3.26,9.62-4.87-.74-.23-1.47-.34-2.27-.43Z"/>
        <path class="cls-5" d="M66.63,15.39c-2.18.46-4.11,1.59-5.71,3.16,3.48,1.22,5.41-2.12,7.83-3.69-.85-.62-1.39.38-2.12.53Z"/>
        <path class="cls-5" d="M67.89,17.4c-.36.33-.6.81-1.14.91,1.81,1.36,4.23.05,5.19-1.53.28-.46-.51-1.68.04-1.95.68-.34.24,1.67.94,1.29,2.2-1.21,3.84-2.94,6.2-3.91-2.3.31-5.11,1.49-6.96,1.96-1.71.43-2.97,2.03-4.27,3.23Z"/>
        <path class="cls-5" d="M81.22,11.16c1.87-.2,2.26-2.78,3.4-4.3-3.39-.45-6.08,2.37-8.49,4.37,1.71-.69,3.5.1,5.1-.07Z"/>
        <path class="cls-5" d="M6.19,105.47c3-.85,5.84.05,8.84-.15-3.58,2.24-5.45,6.16-6.01,10.24-.43-3.9-2.46-7.89-5.65-10.16.95-.98,1.83.35,2.82.07Z"/>
        <path class="cls-5" d="M16.42,105.91c1.15-.43,2.46-.22,3.67-.16.57.03.35.61.53,1.14-5.21-.17-6.14,2.65-8.1,6.82-.31.67-.98,1.5-1.96,1.66.37-3.59,2.17-8.08,5.86-9.46Z"/>
        <path class="cls-5" d="M23.79,109.39c.43.66-1.12,1.09-1.4,1.99-2.02-1.6-4.55-.89-6.71-.18,2.16-2.01,5.87-5.21,8.11-1.81Z"/>
        <path class="cls-5" d="M21.62,112.72c.09.29-.29.39-.12.57-1.12.34-1.79,1.3-2.29,2.3-1.04-1.51-2.79-2.34-4.59-2.12,1.43-1.7,4.22-1.88,6.34-1.35.22.06.52.19.66.61Z"/>
        <path class="cls-5" d="M17.97,117.81c-1.34,1.01-2.49,3.3-3.92,2.38-1.02-.66-1.38-2.29-2.63-3.11,1.46-2.07,4.94-2,6.62-.43.12.11.48.75-.07,1.16Z"/>
        <path class="cls-5" d="M10.68,122.25c-1.64.48-2.98.66-4.39.38.47-1.91,1.42-4.63,3.69-4.38,1.32.15,1.74,1.79,2.17,3.02.16.45-.91.83-1.46.99Z"/>
        <path class="cls-5" d="M27,95.44c2.01-.44,3.82-.23,5.65.53-2.66-.64-5,.51-7.62.92-.35.05-1.05-.06-1.39-.56,1.1-.35,2.18-.63,3.36-.88Z"/>
        <path class="cls-5" d="M28.67,93.47c-2.03.2-3.7,1.35-5.65,1.64,2.28-1.75,5.07-3.22,7.61-3.3,1.75-.06,4.47,2.01,4.22,4.34-.01.14-1.03.09-1.33-.23-1.31-1.42-2.84-2.65-4.85-2.46Z"/>
        <path class="cls-5" d="M34.2,91.97c-.89-.7-1.79-1.23-2.83-1.58,2.58-1.73,6.41-2.18,7.81-.03.87,1.33-1.31,3.82-1.81,6.04-1.71-1-1.63-3.21-3.17-4.42Z"/>
        <path class="cls-5" d="M43.14,95.26c-.59.4-.65,1-1.03,1.45,0-2.08.26-4.15-.35-6.18,2.16.86,4.37,1.62,6.53,2.47-1.72.74-3.47,1.12-5.15,2.25Z"/>
        <path class="cls-5" d="M45.6,95.77c1.44-.84,2.98-2.01,4.32-1.12,1.62,1.07,4.09.78,4.55,2.97-3.46-1.38-7.17-.37-10.77-.53.59-.51,1.21-.91,1.9-1.31Z"/>
        <path class="cls-5" d="M46.92,98.33c2.18-.47,4.4-.23,6.5.56-2.67,2.53-5.8.27-8.65-.18.52-.91,1.43-.22,2.15-.38Z"/>
        <path class="cls-5" d="M46.59,100.64c.46.16.88.5,1.41.36-1.1,1.98-3.85,1.77-5.36.72-.44-.31-.21-1.74-.83-1.77-.76-.04.46,1.62-.33,1.56-2.5-.21-4.7-1.12-7.26-1.04,2.23-.65,5.28-.72,7.15-1.05,1.74-.31,3.54.64,5.22,1.21Z"/>
        <path class="cls-5" d="M31.81,100.37c-1.79.58-3.2-1.61-4.85-2.54,2.91-1.79,6.52-.31,9.54.53-1.85.07-3.15,1.52-4.68,2.01Z"/>
        <path class="cls-5" d="M.38,43.55c2,.88,3.76,2.18,5.25,3.7-.62-3.8-2.63-10.96-4.68-10.77-.21.02-.4.09-.57.22-1.26.89-1.75,4.22-6.41,5.7,2.16-.18,4.41.28,6.41,1.16Z"/>
        <path class="cls-5" d="M2.5,54.38c-.67-.14-1.27-.37-1.96-.29.43-2.14,2.53-4.57,4.77-3.88-.49.27-.76.94-.73,1.22.17,1.83.15,3.43-2.08,2.96Z"/>
        <path class="cls-5" d="M.76,50.12c.35-.17.71-.32,1.09-.46-.47.37-.79.96-1.07,1.57-.56,1.25-.98,2.6-2.46,2.48-.65-.05-1.24-.31-1.77-.7,1.34-1.07,2.67-2.15,4.21-2.9Z"/>
        <path class="cls-5" d="M-7.52,47.86c2.66-1.4,5.67-1.36,8.42-.49.75.24,1.46.53,2.16.88.39.2,1.67.46,1.45.09-.83-1.44-2.12-2.5-3.61-3.21-1.88-.9-4.08-1.25-6.2-1.12"/>
        <path class="cls-5" d="M.48,112.96c1.78.87,3.42,2.06,4.77,3.43-.62-3.8-2.73-10.96-4.77-10.77-1.77.16-1.59,4.24-6.88,5.92,2.38-.19,4.73.37,6.89,1.43Z"/>
        <path class="cls-5" d="M2.26,123.48c-.67-.14-1.27-.37-1.96-.29.43-2.14,2.53-4.57,4.77-3.89-.49.27-.76.94-.73,1.22.18,1.83.15,3.43-2.08,2.96Z"/>
        <path class="cls-5" d="M.79,119.04c.21-.09.42-.17.64-.25-.25.2-.44.45-.62.73-.84,1.37-1.09,3.47-2.91,3.32-.65-.05-1.24-.31-1.77-.69,1.46-1.18,2.92-2.36,4.66-3.11Z"/>
        <path class="cls-5" d="M-7.87,116.99c2.82-1.48,6-1.36,8.87-.33.58.21,1.16.45,1.7.72.39.2,1.67.47,1.45.1-.74-1.29-1.87-2.27-3.16-2.97-1.97-1.07-4.36-1.49-6.66-1.36"/>
        <path class="cls-5" d="M153.93,53.19c-1.29.48-3.48-.05-3.24-1.44.64-3.77,5.77-2.67,8.93-2.34-1.86,1.34-3.54,2.98-5.69,3.78Z"/>
        <path class="cls-5" d="M153.57,122.3c-1.29.48-3.48-.05-3.24-1.44.64-3.77,5.77-2.67,8.93-2.34-1.86,1.34-3.54,2.98-5.69,3.78Z"/>
        <path class="cls-5" d="M160.43,43.55c2,.88,3.77,2.18,5.25,3.7-.62-3.8-2.63-10.96-4.68-10.77-.21.02-.4.09-.57.22-1.26.89-1.74,4.22-6.41,5.7,2.16-.18,4.41.28,6.41,1.16Z"/>
        <path class="cls-5" d="M160.81,50.12c.35-.17.71-.32,1.09-.46-.47.37-.79.96-1.07,1.57-.56,1.25-.98,2.6-2.46,2.48-.66-.05-1.24-.31-1.77-.7,1.34-1.07,2.67-2.15,4.21-2.9Z"/>
        <path class="cls-5" d="M160.94,45.14c-1.88-.9-4.08-1.25-6.2-1.12-1.16.07-3.6.94-2.32,2.61.32.42-.02,1.29.11,1.23,2.66-1.4,5.67-1.36,8.42-.49"/>
        <path class="cls-5" d="M160.53,112.96c1.78.87,3.43,2.06,4.77,3.43-.62-3.8-2.73-10.96-4.77-10.77-1.77.16-1.59,4.24-6.88,5.92,2.38-.19,4.73.37,6.89,1.43Z"/>
        <path class="cls-5" d="M160.84,119.04c.21-.09.42-.17.64-.25-.25.2-.45.45-.62.73-.84,1.37-1.09,3.47-2.91,3.32-.65-.05-1.24-.31-1.77-.69,1.46-1.18,2.92-2.36,4.66-3.11Z"/>
        <path class="cls-5" d="M161.06,114.5c-1.97-1.07-4.36-1.49-6.66-1.36-1.16.07-3.6.94-2.32,2.61.32.42-.02,1.3.11,1.23,2.82-1.48,5.99-1.36,8.87-.33"/>
        <path class="cls-5" d="M39.49,27.32c.4-1.39.99-2.66,1.28-4.05.81,1.48.27,3.05.39,4.59.1,1.21-1.62,1.83-2.04.84-.13-.31.23-.9.37-1.38Z"/>
        <path class="cls-5" d="M8.21,48.13c-1.93-1.96-1.55-5.86-3.04-8.44,1.74,2.46,3.2,5.13,3.63,8.13.02.15-.34.56-.59.3Z"/>
        <path class="cls-5" d="M70.12,80.8c-.93-1.1-1.99-2.02-2.82-3.17-.14,1.68,1,2.89,1.51,4.35.41,1.14,2.23,1.01,2.21-.07,0-.34-.57-.72-.89-1.11Z"/>
        <path class="cls-5" d="M107.06,87.18c.96-2.58-.98-5.98-.66-8.95-.59,2.96-.84,5.99,0,8.91.04.15.54.37.66.04Z"/>
        <path class="cls-5" d="M73.13,10.68c-.93-1.1-1.99-2.02-2.82-3.17-.14,1.68.99,2.89,1.51,4.35.41,1.14,2.23,1.01,2.21-.07,0-.34-.57-.73-.89-1.11Z"/>
        <path class="cls-5" d="M110.19,17.06c.96-2.58-.98-5.98-.66-8.95-.59,2.96-.84,5.99,0,8.91.04.15.54.37.66.04Z"/>
        <path class="cls-5" d="M39.07,96.79c.4-1.38.99-2.66,1.28-4.05.81,1.48.27,3.05.39,4.59.1,1.21-1.62,1.83-2.04.84-.13-.31.23-.89.37-1.38Z"/>
        <path class="cls-5" d="M7.79,117.2c-1.93-1.96-1.54-5.86-3.04-8.44,1.74,2.46,3.2,5.13,3.63,8.14.02.15-.34.56-.59.3Z"/>
      </g>
    </pattern>
  </defs>
  <g id="_レイヤー_1-2" data-name="レイヤー 1">
    <g>
      <path class="cls-3" d="M126.21,24.42c-.96-.41-.51-1.03-.59-1.15-.08-.12-.27-.69-.34-.82-.1-.18-.82-.23-.9-.42-.5-1.18.96-1.95-1.87-2.55.2-.29.33-.72.69-.97-.72-.4-.64-.75.18-1,.25-2-1.18-1.7-2.6-2.92.76-.42,1.31-1.02.74-1.8-.94-.12-.58-.39-.68-.98-.01-.08.28-1.3.33-1.58.29-1.41.87-1.23,1.92-2.21.21-.19.49-1.01.5-1.15,0-.1.25-.44.2-.71-.05-.26-.84-.31-.87-.45-.22-.84.56-1.96.79-2.79-.12-.03-.32,0-.46,0-.27-.7,1.5-2.69,2.02-2.93H0v11.09c1.4-.59,2.21.7.59,1.15-.07.61.21,1.13.87,1.4-.45.73.22.82.41,1.38.54,1.57.57.82,2.79,1.73-.42,1.25-1.92.72-3.33,1.11-.08,1.15-.32,1.9,1.08,2.36,1.13.37,3-.2,4.2,0,1.16.19,1.95.99,3.25.86.93,1.18,2.04,2.15,3.17,3.34h113.18Z"/>
      <path class="cls-4" d="M126.21,24.42c-.96-.41-.51-1.03-.59-1.15-.08-.12-.27-.69-.34-.82-.1-.18-.82-.23-.9-.42-.5-1.18.96-1.95-1.87-2.55.2-.29.33-.72.69-.97-.72-.4-.64-.75.18-1,.25-2-1.18-1.7-2.6-2.92.76-.42,1.31-1.02.74-1.8-.94-.12-.58-.39-.68-.98-.01-.08.28-1.3.33-1.58.29-1.41.87-1.23,1.92-2.21.21-.19.49-1.01.5-1.15,0-.1.25-.44.2-.71-.05-.26-.84-.31-.87-.45-.22-.84.56-1.96.79-2.79-.12-.03-.32,0-.46,0-.27-.7,1.5-2.69,2.02-2.93H0v11.09c1.4-.59,2.21.7.59,1.15-.07.61.21,1.13.87,1.4-.45.73.22.82.41,1.38.54,1.57.57.82,2.79,1.73-.42,1.25-1.92.72-3.33,1.11-.08,1.15-.32,1.9,1.08,2.36,1.13.37,3-.2,4.2,0,1.16.19,1.95.99,3.25.86.93,1.18,2.04,2.15,3.17,3.34h113.18Z"/>
    </g>
  </g>
</svg>