<?xml version="1.0" encoding="UTF-8"?>
<svg id="_レイヤー_2" data-name="レイヤー 2" xmlns="http://www.w3.org/2000/svg" viewBox="0 0 127.69 24.85">
  <defs>
    <style>
      .cls-1 {
        fill: #d31577;
        opacity: .45;
      }
    </style>
  </defs>
  <g id="_レイヤー_1-2" data-name="レイヤー 1">
    <path class="cls-1" d="M14.21,24.85c-.12-.09-.08-.18-.35-.16.26-1.17-1.1-1.69-.63-2.91-1.56-.17-5.18-.79-5.49-2.1-2.71-.74-1.48-2.46-2.28-3.93-.96-.16-.71-.92-.95-1.54-1.83,0-1.42-1.44-1.91-2.38-.28-.53-.71-.69-.9-1.29-.18-.59.02-1.34-.03-1.94-1.47-.14-.27-2.84-1.51-3.67.91-.67,1.5-1.37,1.7-2.22-1.79-.03-.19-1.83-1.87-2.13l127.69-.56v24.7l-113.83-.02"/>
  </g>
</svg>