<?xml version="1.0" encoding="UTF-8"?>
<svg id="_レイヤー_2" data-name="レイヤー 2" xmlns="http://www.w3.org/2000/svg" xmlns:xlink="http://www.w3.org/1999/xlink" viewBox="0 0 117.76 24.14">
  <defs>
    <style>
      .cls-1, .cls-2 {
        fill: none;
      }

      .cls-3 {
        fill: #ddd;
      }

      .cls-4 {
        fill: #231815;
      }

      .cls-5 {
        fill: url(#_ギリシャ_ストライプ_);
        opacity: .65;
      }

      .cls-2 {
        stroke: #231815;
        stroke-width: 1.3px;
      }
    </style>
    <pattern id="_ギリシャ_ストライプ_" data-name="ギリシャ (ストライプ)" x="0" y="0" width="69.1" height="53.59" patternTransform="translate(-153.7 519.79)" patternUnits="userSpaceOnUse" viewBox="0 0 69.1 53.59">
      <g>
        <rect class="cls-1" x="0" y="0" width="69.1" height="53.59"/>
        <rect class="cls-3" y="0" width="69.1" height="53.59"/>
        <line class="cls-2" x1="9.76" y1="53.85" x2="9.76" y2="-.31"/>
        <line class="cls-2" x1="7.53" y1="53.85" x2="7.53" y2="-.31"/>
        <line class="cls-2" x1="24.81" y1="53.85" x2="24.81" y2="-.31"/>
        <line class="cls-2" x1="27.04" y1="53.85" x2="27.04" y2="-.31"/>
        <line class="cls-2" x1="59.34" y1="53.85" x2="59.34" y2="-.31"/>
        <line class="cls-2" x1="61.57" y1="53.85" x2="61.57" y2="-.31"/>
        <line class="cls-2" x1="44.29" y1="53.85" x2="44.29" y2="-.31"/>
        <line class="cls-2" x1="42.05" y1="53.85" x2="42.05" y2="-.31"/>
        <path class="cls-4" d="M17-4.71c0,2.11-.63,3.7-2.16,4.37.05.27.05.69-.34.79.05-.14.08-.29.08-.45,0-.7-.57-1.27-1.27-1.27S12.03-.71,12.03,0s.56,1.34,1.25,1.42c.74.09,2.77-.08,3.71-3.64V1.45s-4.76,7.52-4.76,7.52v12.76c0,.82.66,1.48,1.48,1.48s1.48-.67,1.48-1.48v-12.36l-1.32-2.09,3.12-4.93v19.73c0,2.11-.63,3.7-2.16,4.37.05.27.05.68-.34.79.05-.14.08-.29.08-.45,0-.7-.57-1.27-1.27-1.27s-1.27.57-1.27,1.27.56,1.34,1.25,1.42c.74.09,2.77-.08,3.71-3.64v3.67s-4.76,7.52-4.76,7.52v12.76c0,.82.66,1.48,1.48,1.48s1.48-.67,1.48-1.48v-12.36l-1.32-2.09,3.12-4.93v19.73c0,2.11-.63,3.7-2.16,4.37.05.27.05.68-.34.79.05-.14.08-.29.08-.45,0-.7-.57-1.27-1.27-1.27s-1.27.57-1.27,1.27.56,1.34,1.25,1.42c.74.09,2.77-.08,3.71-3.64v3.67s.58,0,.58,0v-3.68c.94,3.57,2.97,3.74,3.71,3.65.7-.08,1.25-.72,1.25-1.42s-.57-1.27-1.27-1.27-1.27.57-1.27,1.27c0,.16.03.31.08.45-.39-.11-.39-.52-.34-.79-1.53-.67-2.16-2.25-2.16-4.36v-19.74s3.12,4.93,3.12,4.93l-1.32,2.09v12.36c0,.82.66,1.48,1.48,1.48s1.48-.67,1.48-1.48v-12.76s-4.75-7.52-4.75-7.52v-3.68c.94,3.57,2.97,3.74,3.71,3.65.7-.08,1.25-.72,1.25-1.42s-.57-1.27-1.27-1.27-1.27.57-1.27,1.27c0,.16.03.31.08.45-.39-.11-.39-.52-.34-.79-1.53-.67-2.16-2.25-2.16-4.36V2.35s3.12,4.93,3.12,4.93l-1.32,2.09v12.36c0,.82.66,1.48,1.48,1.48s1.48-.67,1.48-1.48v-12.76s-4.75-7.52-4.75-7.52v-3.68c.94,3.57,2.97,3.74,3.71,3.65.7-.09,1.25-.72,1.25-1.42s-.57-1.27-1.27-1.27-1.27.57-1.27,1.27c0,.16.03.31.08.45-.39-.11-.39-.52-.34-.79-1.53-.67-2.16-2.28-2.16-4.38h-.58Z"/>
        <path class="cls-4" d="M52.1-4.71c0,2.11.63,3.7,2.16,4.37-.05.27-.05.69.34.79-.05-.14-.08-.29-.08-.45,0-.7.57-1.27,1.27-1.27s1.27.57,1.27,1.27-.56,1.34-1.26,1.42c-.74.09-2.77-.08-3.71-3.64V1.45s4.76,7.52,4.76,7.52v12.76c0,.82-.66,1.48-1.48,1.48s-1.48-.67-1.48-1.48v-12.36l1.32-2.09-3.12-4.93v19.73c0,2.11.63,3.7,2.16,4.37-.05.27-.05.68.34.79-.05-.14-.08-.29-.08-.45,0-.7.57-1.27,1.27-1.27s1.27.57,1.27,1.27-.56,1.34-1.26,1.42c-.74.09-2.77-.08-3.71-3.64v3.67s4.76,7.52,4.76,7.52v12.76c0,.82-.66,1.48-1.48,1.48s-1.48-.67-1.48-1.48v-12.36l1.32-2.09-3.12-4.93v19.73c0,2.11.63,3.7,2.16,4.37-.05.27-.05.68.34.79-.05-.14-.08-.29-.08-.45,0-.7.57-1.27,1.27-1.27s1.27.57,1.27,1.27-.56,1.34-1.26,1.42c-.74.09-2.77-.08-3.71-3.64v3.67s-.58,0-.58,0v-3.68c-.94,3.57-2.97,3.74-3.71,3.65-.7-.08-1.26-.72-1.26-1.42s.57-1.27,1.27-1.27,1.27.57,1.27,1.27c0,.16-.03.31-.08.45.39-.11.39-.52.34-.79,1.53-.67,2.16-2.25,2.16-4.36v-19.74s-3.12,4.93-3.12,4.93l1.32,2.09v12.36c0,.82-.66,1.48-1.48,1.48s-1.48-.67-1.48-1.48v-12.76s4.75-7.52,4.75-7.52v-3.68c-.94,3.57-2.97,3.74-3.71,3.65-.7-.08-1.26-.72-1.26-1.42s.57-1.27,1.27-1.27,1.27.57,1.27,1.27c0,.16-.03.31-.08.45.39-.11.39-.52.34-.79,1.53-.67,2.16-2.25,2.16-4.36V2.35s-3.12,4.93-3.12,4.93l1.32,2.09v12.36c0,.82-.66,1.48-1.48,1.48s-1.48-.67-1.48-1.48v-12.76s4.75-7.52,4.75-7.52v-3.68c-.94,3.57-2.97,3.74-3.71,3.65-.7-.09-1.26-.72-1.26-1.42s.57-1.27,1.27-1.27,1.27.57,1.27,1.27c0,.16-.03.31-.08.45.39-.11.39-.52.34-.79,1.53-.67,2.16-2.28,2.16-4.38h.58Z"/>
      </g>
    </pattern>
  </defs>
  <g id="_レイヤー_1-2" data-name="レイヤー 1">
    <path class="cls-5" d="M117.76,23.86c-1.16-1.2-.17-1.98-2.61-2.25.13-.03.31,0,.45-.02.23-1.21-.19-2.34-1.59-2.64.16-.08.37-.34.7-.45.03-.6-.52-1.04-1.19-1.27.26-.46.87-.75,1.42-.95-.44-.47-.91-.89-1.61-1.01.13-.18.38-.63.55-.79,1.36-.43.25-1.35-.18-1.83.11,0,.21.02.3.06.3-1.37-1.02-2.49-.48-3.7.05-.03.32-.15.36-.17-1.53-1.22-2.94-3.57-3.07-5.31-.46-.06-.53-.3-1.02-.32.18-.98-1-1.36-.94-2.34-.16-.03-.32,0-.48-.04-.11-.28-.32-.54-.39-.82L0,.28c.1.51.61.87,1.22,1.16-.91,1.02.26,1.78.74,2.62.77,1.33.37,2.01.16,3.24-.07.41.43.47.15,1.11-.2.47-1.2.95-1.35,1.29-.38.9.46,3.01,1.14,3.6-1.22.4-.26,4.26-.28,5.21-.01.73-.5,1.36-.33,1.99.08.28,1.02-.04,1.06.41.03.26-.38.5-.38.56,0,.59-.55,1.8-1.39,2.14.03.04.14.15.12.21-.11.08-.28.21-.33.32l117.23-.28Z"/>
  </g>
</svg>