<?xml version="1.0" encoding="UTF-8"?>
<svg id="_レイヤー_2" data-name="レイヤー 2" xmlns="http://www.w3.org/2000/svg" xmlns:xlink="http://www.w3.org/1999/xlink" viewBox="0 0 128.45 24.42">
  <defs>
    <style>
      .cls-1, .cls-2 {
        fill: none;
      }

      .cls-2 {
        stroke: #fff;
        stroke-linecap: square;
        stroke-width: .3px;
      }

      .cls-3 {
        fill: url(#_チェック_1_カラー);
        opacity: .71;
      }

      .cls-4 {
        fill: #ecb3b6;
      }
    </style>
    <pattern id="_チェック_1_カラー" data-name="チェック 1 カラー" x="0" y="0" width="72" height="72" patternTransform="translate(-706.54 537.12)" patternUnits="userSpaceOnUse" viewBox="0 0 72 72">
      <g>
        <rect class="cls-1" width="72" height="72"/>
        <rect class="cls-4" width="72" height="72"/>
        <line class="cls-2" x1="72" y1="16" y2="16"/>
        <line class="cls-2" x1="72" y1="52" y2="52"/>
        <line class="cls-2" x1="72" y1="22" y2="22"/>
        <line class="cls-2" x1="72" y1="58" y2="58"/>
        <line class="cls-2" x1="72" y1="20" y2="20"/>
        <line class="cls-2" x1="72" y1="56" y2="56"/>
        <line class="cls-2" x1="72" y1="14" y2="14"/>
        <line class="cls-2" x1="72" y1="50" y2="50"/>
        <line class="cls-2" x1="16" x2="16" y2="72"/>
        <line class="cls-2" x1="52" x2="52" y2="72"/>
        <line class="cls-2" x1="22" x2="22" y2="72"/>
        <line class="cls-2" x1="58" x2="58" y2="72"/>
        <line class="cls-2" x1="14" x2="14" y2="72"/>
        <line class="cls-2" x1="50" x2="50" y2="72"/>
        <line class="cls-2" x1="20" x2="20" y2="72"/>
        <line class="cls-2" x1="56" x2="56" y2="72"/>
      </g>
    </pattern>
  </defs>
  <g id="_レイヤー_1-2" data-name="レイヤー 1">
    <path class="cls-3" d="M0,24.42c.98-.41.52-1.03.6-1.15.09-.12.28-.7.35-.82.1-.18.83-.23.91-.42.51-1.18-.98-1.95,1.9-2.55-.2-.29-.33-.72-.7-.97.73-.4.66-.75-.18-1-.25-2,1.21-1.7,2.65-2.92-.77-.42-1.33-1.02-.75-1.8.95-.12.59-.39.69-.98.01-.08-.28-1.3-.34-1.58-.29-1.41-.88-1.24-1.96-2.21-.21-.19-.5-1-.51-1.15,0-.1-.26-.44-.2-.71.05-.26.85-.31.89-.45.22-.84-.57-1.96-.81-2.79.13-.03.33,0,.47-.01C3.28,2.22,1.47.24.95,0h127.5v11.09c-1.43-.59-2.25.7-.6,1.15.07.61-.22,1.13-.89,1.4.46.73-.22.82-.42,1.38-.55,1.57-.58.82-2.84,1.73.43,1.25,1.96.72,3.39,1.11.08,1.15.33,1.9-1.1,2.37-1.15.37-3.05-.2-4.27,0-1.18.19-1.98.99-3.31.87-.95,1.18-2.08,2.15-3.22,3.34H0Z"/>
  </g>
</svg>