<?xml version="1.0" encoding="UTF-8"?>
<svg id="_レイヤー_2" data-name="レイヤー 2" xmlns="http://www.w3.org/2000/svg" xmlns:xlink="http://www.w3.org/1999/xlink" viewBox="0 0 125.46 24.85">
  <defs>
    <style>
      .cls-1 {
        fill: none;
      }

      .cls-2 {
        fill: url(#_10_dpi_60_);
        opacity: .74;
      }

      .cls-3 {
        fill: #231815;
      }
    </style>
    <pattern id="_10_dpi_60_" data-name="10 dpi 60%" x="0" y="0" width="28.8" height="28.8" patternTransform="translate(-10.53 347.27)" patternUnits="userSpaceOnUse" viewBox="0 0 28.8 28.8">
      <g>
        <rect class="cls-1" x="0" width="28.8" height="28.8"/>
        <path class="cls-3" d="M28.8,33.12c2.38,0,4.32-1.93,4.32-4.32s-1.93-4.32-4.32-4.32-4.32,1.93-4.32,4.32,1.93,4.32,4.32,4.32Z"/>
        <path class="cls-3" d="M14.4,33.12c2.38,0,4.32-1.93,4.32-4.32s-1.94-4.32-4.32-4.32-4.32,1.93-4.32,4.32,1.93,4.32,4.32,4.32Z"/>
        <path class="cls-3" d="M0,33.12c2.39,0,4.32-1.93,4.32-4.32s-1.93-4.32-4.32-4.32-4.32,1.93-4.32,4.32,1.93,4.32,4.32,4.32Z"/>
        <path class="cls-3" d="M28.8,18.72c2.38,0,4.32-1.93,4.32-4.32s-1.93-4.32-4.32-4.32-4.32,1.93-4.32,4.32,1.93,4.32,4.32,4.32Z"/>
        <path class="cls-3" d="M14.4,18.72c2.38,0,4.32-1.93,4.32-4.32s-1.94-4.32-4.32-4.32-4.32,1.93-4.32,4.32,1.93,4.32,4.32,4.32Z"/>
        <path class="cls-3" d="M0,18.72c2.39,0,4.32-1.93,4.32-4.32s-1.93-4.32-4.32-4.32-4.32,1.93-4.32,4.32,1.93,4.32,4.32,4.32Z"/>
        <path class="cls-3" d="M28.8,4.32c2.38,0,4.32-1.93,4.32-4.32s-1.93-4.32-4.32-4.32-4.32,1.93-4.32,4.32,1.93,4.32,4.32,4.32Z"/>
        <circle class="cls-3" cx="14.4" r="4.32"/>
        <path class="cls-3" d="M0,4.32c2.39,0,4.32-1.93,4.32-4.32S2.39-4.32,0-4.32-4.32-2.39-4.32,0-2.39,4.32,0,4.32Z"/>
        <path class="cls-3" d="M-28.8,4.32c2.39,0,4.32-1.93,4.32-4.32s-1.93-4.32-4.32-4.32-4.32,1.93-4.32,4.32,1.93,4.32,4.32,4.32Z"/>
        <path class="cls-3" d="M-28.8,0"/>
        <path class="cls-3" d="M7.2,25.92c2.38,0,4.32-1.94,4.32-4.32s-1.94-4.32-4.32-4.32-4.32,1.93-4.32,4.32,1.93,4.32,4.32,4.32Z"/>
        <path class="cls-3" d="M21.6,25.92c2.38,0,4.32-1.94,4.32-4.32s-1.93-4.32-4.32-4.32-4.32,1.93-4.32,4.32,1.93,4.32,4.32,4.32Z"/>
        <path class="cls-3" d="M36,17.28c-2.39,0-4.32,1.93-4.32,4.32s1.93,4.32,4.32,4.32v-8.64Z"/>
        <path class="cls-3" d="M7.2,11.52c2.38,0,4.32-1.94,4.32-4.32s-1.94-4.32-4.32-4.32-4.32,1.93-4.32,4.32,1.93,4.32,4.32,4.32Z"/>
        <path class="cls-3" d="M21.6,11.52c2.38,0,4.32-1.94,4.32-4.32s-1.93-4.32-4.32-4.32-4.32,1.93-4.32,4.32,1.93,4.32,4.32,4.32Z"/>
        <path class="cls-3" d="M36,2.88c-2.39,0-4.32,1.93-4.32,4.32s1.93,4.32,4.32,4.32V2.88Z"/>
        <path class="cls-3" d="M2.88-7.2c0,2.39,1.93,4.32,4.32,4.32s4.32-1.93,4.32-4.32H2.88Z"/>
        <path class="cls-3" d="M17.28-7.2c0,2.39,1.93,4.32,4.32,4.32s4.32-1.93,4.32-4.32h-8.64Z"/>
        <path class="cls-3" d="M11.52,36c0-2.39-1.94-4.32-4.32-4.32s-4.32,1.93-4.32,4.32h8.64Z"/>
        <path class="cls-3" d="M25.92,36c0-2.39-1.93-4.32-4.32-4.32s-4.32,1.93-4.32,4.32h8.64Z"/>
        <path class="cls-3" d="M-7.2,25.92c2.38,0,4.32-1.94,4.32-4.32s-1.93-4.32-4.32-4.32v8.64Z"/>
        <path class="cls-3" d="M-7.2,11.52c2.38,0,4.32-1.94,4.32-4.32s-1.93-4.32-4.32-4.32v8.64Z"/>
        <path class="cls-3" d="M-21.6,11.52c2.38,0,4.32-1.94,4.32-4.32s-1.94-4.32-4.32-4.32-4.32,1.93-4.32,4.32,1.93,4.32,4.32,4.32Z"/>
        <path class="cls-3" d="M-21.6,7.2"/>
      </g>
    </pattern>
  </defs>
  <g id="_レイヤー_1-2" data-name="レイヤー 1">
    <path class="cls-2" d="M111.5,24.85c.12-.09.08-.18.34-.16-.25-1.17,1.07-1.69.62-2.91,1.53-.17,5.09-.79,5.39-2.1,2.66-.74,1.46-2.46,2.24-3.93.94-.16.69-.92.93-1.54,1.8.01,1.39-1.44,1.88-2.38.27-.53.7-.69.88-1.29.18-.59-.02-1.34.03-1.94,1.45-.14.27-2.85,1.48-3.67-.89-.67-1.48-1.37-1.67-2.22,1.76-.03.18-1.83,1.83-2.13L0,0v24.7l111.84-.02"/>
  </g>
</svg>