<?xml version="1.0" encoding="UTF-8"?>
<svg id="_レイヤー_2" data-name="レイヤー 2" xmlns="http://www.w3.org/2000/svg" xmlns:xlink="http://www.w3.org/1999/xlink" viewBox="0 0 127.14 24.45">
  <defs>
    <style>
      .cls-1, .cls-2 {
        fill: none;
      }

      .cls-3 {
        fill: #fdf5e2;
      }

      .cls-4 {
        fill: #dae6b0;
      }

      .cls-2 {
        stroke: #dae6b0;
        stroke-width: .6px;
      }

      .cls-5 {
        fill: #4bb6e1;
      }

      .cls-6 {
        fill: #c8deac;
      }

      .cls-7 {
        fill: url(#_スイレン_カラー_);
        opacity: .74;
      }
    </style>
    <pattern id="_スイレン_カラー_" data-name="スイレン (カラー)" x="0" y="0" width="50.76" height="58.86" patternTransform="translate(-9.7 192.27)" patternUnits="userSpaceOnUse" viewBox="0 0 50.76 58.86">
      <g>
        <rect class="cls-1" y="0" width="50.76" height="58.86"/>
        <rect class="cls-5" y="0" width="50.76" height="58.86"/>
        <path class="cls-6" d="M16.38,27.87c0,1.18-1.75,1.18-1.75,0s1.75-1.18,1.75,0Z"/>
        <path class="cls-6" d="M37.65,28.2c0,1.17-1.75,1.17-1.75,0s1.75-1.18,1.75,0Z"/>
        <path class="cls-6" d="M26.56,32.22c0,1.17-1.75,1.17-1.75,0s1.75-1.18,1.75,0Z"/>
        <path class="cls-6" d="M26.83,29.49c0,1.17-1.75,1.17-1.75,0s1.75-1.18,1.75,0Z"/>
        <path class="cls-6" d="M24.37,30.2c0,1.18-1.75,1.18-1.75,0s1.75-1.18,1.75,0Z"/>
        <path class="cls-6" d="M28.97,30.42c0,1.17-1.75,1.17-1.75,0s1.75-1.18,1.75,0Z"/>
        <path class="cls-4" d="M25.13,60.7c-.02-1.21-.04-2.74-.04-4.48.71-.1,1.5-.24,1.97-.41-.01,1.83-.01,3.5,0,4.88h-1.92Z"/>
        <path class="cls-4" d="M31.83-3.41c-1.6,1.75-3.15,3.47-4.28,4.81l-.04-2.98c.69-.73,1.39-1.48,2.09-2.25l2.22.42Z"/>
        <path class="cls-4" d="M24.69,3.49c-1.72,2.08-3.24,3.71-4.33,5.19-.47,0-.99-.14-2.14.1,1.57-2.18,3.85-4.83,6.44-8.01l.03,2.72Z"/>
        <path class="cls-4" d="M27.04,49.78c0,.55,0,.6-.02,1.25-.5.51-1.28.91-1.95,1.05-.07-4.58-.15-8.48-.7-9.08-.77-.82-.93-1.62.4-1.35,1.35.27,1.35.4,2.02.13.67-.27,1.89-.54,1.21,1.08-.42,1-.94.95-.94,2.57,0,.42-.01.92-.02,2.5-2.16.64-1.59,1.18,0,1.86Z"/>
        <path class="cls-4" d="M27.06-3.04c-.03,3.92,0,7.15,0,8.24,0,3.11-.04,5.38-3.04,8.84-2.36,2.73-5.41,3.5-8.4,4.43v-1.54c2.4-.41,7.74-3.19,8.94-6.88-2.91,1.99-10.86-1.46-11.42,5.14.93-1.19,2.15-2.04,3.11-3.26.74-.37,2.06-.5,2.4-.5-1.51,1.9-3.09,3.23-4.56,5.1-.21.41.75.52,1.52.39v1.54c-1.71.54-3.76,1.13-4.75,2.19-2.06,2.64-4.62,5.02-6.91,7.91-.08-.94-.29-.99-.43-1.89,2.1-2.65,5.1-5.7,7.08-8.23,2-3.22,0-6.79,4.22-8.57,1.55-.65,5.56-.69,8.12-.84,1.62-.09,2.23-2.36,2.23-4.39,0-.61-.08-3.44-.09-7.29.71-.1,1.5-.24,1.97-.41Z"/>
        <path class="cls-4" d="M18.38,60.48c-.07-1.21-1.34-2.34-3.82-2.15-.69.05-.17.13.27.54,1.34,1.24.64,2.09-2.7,1.55l6.25.06Z"/>
        <path class="cls-4" d="M-.83,57.82c6.13-2.03,21.16-1.55,26.48-2.2,6.33-.78,7.32-8.88,1.08-7.09-.66.19-.57.42.2.68,1.42.47,1.29,3.25-3.44,3.71-6.75.67-19.02.26-24.72,1.42l.4,3.48Z"/>
        <path class="cls-4" d="M-1.03,51.04c5.98-.81,12.88-.29,16.69-.28,8.89.03,8.34-7.34,2.02-6.07-.67.13-.54.34.2.67.74.34.63,3.15-4.12,2.43-4.24-.64-9.9-.62-14.81.05v3.2Z"/>
        <path class="cls-4" d="M41.12,61.25c.86-2.82,3.28-4.86,6.4-6.31,1.02-.47,2.7-.79,4.77-1.01v3.3c-1.61.31-2.94.71-3.82,1.22-1.51.88-2.63,1.8-3.42,2.76l-3.93.04Z"/>
        <path class="cls-4" d="M34.08,61.15c.16-4.73,2.95-9.2,8.17-11.47,2.45-1.07,6.07-1.77,9.92-2.12l.11,3.21c-5.03.39-9.83,1.49-12.19,4.31-1.84,2.19-2.83,4.12-3.19,5.92l-2.82.15Z"/>
        <path class="cls-4" d="M-.66,42.4c4.08-2.79,6.53-7.55,2.55-18.37C-3.91,8.23-.22,2.17,15.03,4.19c4.6-.18,4.49-5.1-.47-4.73-.69.05-.17.13.27.54,1.34,1.24.64,2.09-2.7,1.55C8.73,1.01,4.58.19-.67,3.85c-7.6,5.29,3.74,21.56,2.29,24.77-.71-3.14-2.08-6.1-3.54-8.87l-.03,2.38c.94,2.02,1.69,4.04,2.08,6.09-.58-1.42-1.21-2.74-1.89-3.99l-.02,2.15c2.85,5.35,3.36,9.9.81,13.03l.31,2.99Z"/>
        <path class="cls-4" d="M52.92,5.74c-3.82,2.82-3.76,8.8-.27,18.29,7.95,21.63-9.79,19.02-14.92,24.95-2.61,2.97-7.53,8.15-10.18,11.28l-.04-2.97c7.8-8.33,17.3-19.43,22.45-26.27.17.78.47,1.51.45,2.37-.91,1.53-5.17,6.93-7.74,9.81,14.27-3.22,9.88-15.99-4.34-30.5-4.59-4.68-5.41-11.01-2.76-15.92l4.52-.55c-9.79,11.67,4.32,16.06,10.8,31.99-1.08-5.58-4.73-10.93-7.96-16.6-4.61-8.08-1.21-12.83,4.59-15.53l.95,3.51c-12.09,7.05,1.12,16.6,3.91,29.03,1.45-3.21-9.9-19.48-2.29-24.77.88-.62,1.74-1.1,2.56-1.49l.27,3.38Z"/>
        <path class="cls-3" d="M25.99,35.23c-1.42-2.08-5.44-7.16-6.21-8.47-.51-.87-.55-1.61-1.47-1.04-.6.37-.99.3-1.2.16-.44-.27-1.2-.4-.82.99.55,1.97.77,8.53.33,9.84,1.42,1.86,5.24,5.39,8.53,5.14.36-.03.49-.27.55-.44.3-.89.41-4.21.3-6.18Z"/>
        <path class="cls-2" d="M25.99,35.23c-1.42-2.08-5.44-7.16-6.21-8.47-.51-.87-.55-1.61-1.47-1.04-.6.37-.99.3-1.2.16-.44-.27-1.2-.4-.82.99.55,1.97.77,8.53.33,9.84,1.42,1.86,5.24,5.39,8.53,5.14.36-.03.49-.27.55-.44.3-.89.41-4.21.3-6.18Z"/>
        <path class="cls-3" d="M26.04,35.23c1.42-2.08,5.44-7.16,6.21-8.47.51-.87.55-1.61,1.48-1.04.6.37.99.3,1.2.16.44-.27,1.21-.4.82.99-.55,1.97-.77,8.53-.33,9.84-1.42,1.86-5.24,5.39-8.53,5.14-.35-.03-.49-.27-.55-.44-.3-.89-.41-4.21-.3-6.18Z"/>
        <path class="cls-2" d="M26.04,35.23c1.42-2.08,5.44-7.16,6.21-8.47.51-.87.55-1.61,1.48-1.04.6.37.99.3,1.2.16.44-.27,1.21-.4.82.99-.55,1.97-.77,8.53-.33,9.84-1.42,1.86-5.24,5.39-8.53,5.14-.35-.03-.49-.27-.55-.44-.3-.89-.41-4.21-.3-6.18Z"/>
        <path class="cls-3" d="M26.77,41.83c1.82.26,5.35-1.07,8.65-5.14-.24-.71-.28-2.91-.2-5.13,5.01-9.04,8.02-6.79,8.53-4.23-.11-.91.25,2.04-.89.51-.94-.88-1.95-.29-2.59,1.68-.86,2.62-4.72,14.25-13.45,12.77-.34-.38-1.11-.23-1.74,0-9.26,1.48-12.07-10.58-13.14-12.57-1.21-2.25-1.79-2.75-2.79-1.88-1.48,1.32-.91-1.42-1.02-.51.51-2.56,4.18-4.55,8.65,4.49.08,2.22.04,4.18-.2,4.89,2.61,3.17,6.18,5.41,8.57,5.11.65-.08.97-.09,1.61,0Z"/>
        <path class="cls-2" d="M26.77,41.83c1.82.26,5.35-1.07,8.65-5.14-.24-.71-.28-2.91-.2-5.13,5.01-9.04,8.02-6.79,8.53-4.23-.11-.91.25,2.04-.89.51-.94-.88-1.95-.29-2.59,1.68-.86,2.62-4.72,14.25-13.45,12.77-.34-.38-1.11-.23-1.74,0-9.26,1.48-12.07-10.58-13.14-12.57-1.21-2.25-1.79-2.75-2.79-1.88-1.48,1.32-.91-1.42-1.02-.51.51-2.56,4.18-4.55,8.65,4.49.08,2.22.04,4.18-.2,4.89,2.61,3.17,6.18,5.41,8.57,5.11.65-.08.97-.09,1.61,0Z"/>
        <path class="cls-2" d="M17.48,28.07c1.2,1.2,2.19,11.7,6.78,13.56"/>
        <path class="cls-2" d="M17.81,27.08c1.75-.66,1.86,11.15,6.89,14.54"/>
        <path class="cls-2" d="M25.08,41.46c-2.3-2.19-4.65-9.35-5.2-12.85"/>
        <path class="cls-2" d="M34.54,28.07c-1.2,1.2-2.19,11.7-6.78,13.56"/>
        <path class="cls-2" d="M34.21,27.08c-1.75-.66-1.86,11.15-6.89,14.54"/>
        <path class="cls-2" d="M26.94,41.46c2.3-2.19,4.65-9.35,5.19-12.85"/>
      </g>
    </pattern>
  </defs>
  <g id="_レイヤー_1-2" data-name="レイヤー 1">
    <path class="cls-7" d="M113.53.03H0c.91,1.57.95,3.48,2.64,4.88.58.48.99.11,1.47.75-.06-.07.03,1.14.03,1.22.06,1,0,1.75-.35,2.71,1.38.14.2,1.34.34,1.99.16.75,1.45,1.51,1.79,2.25.94,1.99-.61,3.11-3.1,3.22-1.1,1.37,3.15,2.64-.58,3.38.83.33,2.17.78,1.81,1.76-.79.46-1.9.79-2.59,1.29.33.43-.05.46-.35.84l126.02.14c-.43-1.01,0-2.2-.14-3.2-.13-1-.61-2.09-.61-3.12,0-.56.22-.78.19-1.3-.04-.49-.37-.94-.37-1.51,0-1.09.67-2.05,0-3.09-.66-1.03-2.45-2.17-3.7-2.82-1.01-.52-2.8-.77-3.02-1.93-.19-.95,1.31-2.03.91-3.08-.1-.26-.96-1.01-1.22-1.29-.67-.73-1.27-1.41-2.46-1.83-.65-.23-1.31-.33-1.88-.55-.73-.28-.68-.88-2.22-.71"/>
  </g>
</svg>