<?xml version="1.0" encoding="UTF-8"?>
<svg id="_レイヤー_2" data-name="レイヤー 2" xmlns="http://www.w3.org/2000/svg" xmlns:xlink="http://www.w3.org/1999/xlink" viewBox="0 0 125.46 24.84">
  <defs>
    <style>
      .cls-1 {
        fill: none;
      }

      .cls-2 {
        fill: #d5a949;
      }

      .cls-3 {
        fill: #b98537;
      }

      .cls-4 {
        fill: #e2ba52;
      }

      .cls-5 {
        fill: #f0ca5c;
      }

      .cls-6 {
        fill: #c5933d;
      }

      .cls-7 {
        fill: #e7bf55;
      }

      .cls-8 {
        fill: url(#_ジャガー);
        opacity: .74;
      }

      .cls-9 {
        fill: #35240d;
      }

      .cls-10 {
        fill: #ce9e43;
      }

      .cls-11 {
        fill: #daaf4b;
      }

      .cls-12 {
        fill: #f5dba0;
      }

      .cls-13 {
        fill: #f4d05f;
      }

      .cls-14 {
        fill: #c18e3b;
      }

      .cls-15 {
        fill: #b57f34;
      }

      .cls-16 {
        fill: #c9993f;
      }

      .cls-17 {
        fill: #d1a446;
      }

      .cls-18 {
        fill: #ecc558;
      }

      .cls-19 {
        fill: #bc8939;
      }

      .cls-20 {
        fill: #463115;
      }

      .cls-21 {
        fill: #ddb44e;
      }
    </style>
    <pattern id="_ジャガー" data-name="ジャガー" x="0" y="0" width="124.42" height="124.42" patternTransform="translate(-4.09 151.92)" patternUnits="userSpaceOnUse" viewBox="0 0 124.42 124.42">
      <g>
        <rect class="cls-1" y="0" width="124.42" height="124.42"/>
        <rect class="cls-12" y="0" width="124.42" height="124.42"/>
        <g>
          <g>
            <path class="cls-15" d="M26.71-14.21c-1.12.75-7.25,5.75-7,7.5s3,9.25,5.25,10.75,6.75,4.25,11,4.25,6,0,7.5-1.25,8.5-4.25,8-10-4-6.25-7.75-7.5-5.75-2.5-9.5-4-5.25-1.25-7.5.25Z"/>
            <path class="cls-3" d="M27.1-13.69c-1.06.71-6.87,5.46-6.63,7.12.24,1.66,2.84,8.78,4.98,10.2,2.13,1.42,6.4,4.03,10.42,4.03s5.69,0,7.11-1.19c1.42-1.19,8.06-4.03,7.58-9.49-.47-5.46-3.79-5.93-7.34-7.12-3.55-1.19-5.45-2.37-9-3.8-3.55-1.42-4.98-1.19-7.11.24Z"/>
            <path class="cls-19" d="M27.49-13.16c-1,.67-6.49,5.16-6.27,6.73.22,1.57,2.69,8.31,4.7,9.65,2.01,1.35,6.04,3.82,9.85,3.82s5.37,0,6.71-1.12c1.34-1.12,7.61-3.82,7.16-8.98-.45-5.16-3.58-5.61-6.94-6.73-3.36-1.12-5.15-2.24-8.5-3.59-3.36-1.35-4.7-1.12-6.71.22Z"/>
            <path class="cls-14" d="M27.89-12.64c-.94.63-6.11,4.87-5.9,6.35.21,1.48,2.53,7.83,4.43,9.1s5.69,3.6,9.27,3.6,5.06,0,6.32-1.06c1.26-1.06,7.16-3.6,6.74-8.47-.42-4.87-3.37-5.29-6.53-6.35-3.16-1.06-4.85-2.12-8.01-3.39-3.16-1.27-4.43-1.06-6.32.21Z"/>
            <path class="cls-6" d="M28.28-12.12c-.89.59-5.73,4.58-5.53,5.97.2,1.39,2.37,7.36,4.15,8.56,1.78,1.19,5.34,3.38,8.7,3.38s4.74,0,5.93-1c1.19-1,6.72-3.38,6.32-7.96-.4-4.58-3.16-4.97-6.13-5.97-2.96-1-4.54-1.99-7.51-3.18-2.96-1.19-4.15-.99-5.93.2Z"/>
            <path class="cls-16" d="M28.67-11.59c-.83.56-5.35,4.28-5.17,5.59.18,1.3,2.21,6.89,3.88,8.01,1.66,1.12,4.98,3.17,8.12,3.17s4.43,0,5.54-.93c1.11-.93,6.27-3.17,5.9-7.45-.37-4.28-2.95-4.66-5.72-5.59-2.77-.93-4.24-1.86-7.01-2.98-2.77-1.12-3.88-.93-5.54.19Z"/>
            <path class="cls-10" d="M29.07-11.07c-.77.52-4.97,3.99-4.8,5.2.17,1.21,2.06,6.42,3.6,7.46,1.54,1.04,4.63,2.95,7.54,2.95s4.11,0,5.14-.87c1.03-.87,5.83-2.95,5.49-6.94-.34-3.99-2.74-4.34-5.31-5.2-2.57-.87-3.94-1.73-6.51-2.78-2.57-1.04-3.6-.87-5.14.17Z"/>
            <path class="cls-17" d="M29.46-10.55c-.71.48-4.59,3.7-4.43,4.82.16,1.12,1.9,5.95,3.32,6.91,1.43.96,4.28,2.73,6.97,2.73s3.8,0,4.75-.8c.95-.8,5.38-2.73,5.07-6.43-.32-3.7-2.53-4.02-4.91-4.82-2.38-.8-3.64-1.61-6.02-2.57-2.38-.96-3.33-.8-4.75.16Z"/>
            <path class="cls-2" d="M29.85-10.02c-.65.44-4.21,3.4-4.07,4.44.14,1.04,1.74,5.47,3.05,6.36,1.31.89,3.92,2.52,6.39,2.52s3.49,0,4.36-.74c.87-.74,4.94-2.52,4.65-5.92-.29-3.4-2.32-3.7-4.5-4.44-2.18-.74-3.34-1.48-5.52-2.37-2.18-.89-3.05-.74-4.36.15Z"/>
            <path class="cls-11" d="M30.24-9.5c-.59.4-3.83,3.11-3.7,4.06.13.95,1.59,5,2.78,5.81,1.19.81,3.57,2.3,5.81,2.3s3.17,0,3.96-.68c.79-.68,4.49-2.3,4.23-5.41-.26-3.11-2.11-3.38-4.1-4.06-1.98-.68-3.04-1.35-5.02-2.16-1.98-.81-2.77-.68-3.96.14Z"/>
            <path class="cls-21" d="M30.64-8.98c-.53.37-3.45,2.82-3.33,3.67.12.86,1.43,4.53,2.5,5.26,1.07.74,3.21,2.08,5.24,2.08s2.86,0,3.57-.61c.71-.61,4.05-2.08,3.81-4.9-.24-2.82-1.9-3.06-3.69-3.67-1.79-.61-2.74-1.22-4.52-1.96-1.79-.73-2.5-.61-3.57.12Z"/>
            <path class="cls-4" d="M31.03-8.45c-.48.33-3.07,2.52-2.97,3.29.11.77,1.27,4.06,2.23,4.72.95.66,2.86,1.87,4.66,1.87s2.54,0,3.18-.55c.64-.55,3.6-1.86,3.39-4.39-.21-2.52-1.7-2.74-3.28-3.29-1.59-.55-2.44-1.1-4.03-1.75-1.59-.66-2.23-.55-3.18.11Z"/>
            <path class="cls-7" d="M31.42-7.93c-.42.29-2.69,2.23-2.6,2.91.09.68,1.11,3.59,1.95,4.17.84.58,2.51,1.65,4.09,1.65s2.23,0,2.79-.49c.56-.48,3.16-1.65,2.97-3.88-.19-2.23-1.49-2.42-2.88-2.91-1.39-.48-2.14-.97-3.53-1.55-1.39-.58-1.95-.49-2.79.1Z"/>
            <path class="cls-18" d="M31.81-7.41c-.36.25-2.31,1.94-2.23,2.52.08.59.96,3.11,1.67,3.62.72.51,2.15,1.43,3.51,1.43s1.91,0,2.39-.42c.48-.42,2.71-1.43,2.55-3.37-.16-1.94-1.28-2.1-2.47-2.52-1.2-.42-1.83-.84-3.03-1.35-1.2-.51-1.68-.42-2.39.08Z"/>
            <path class="cls-5" d="M32.21-6.89c-.3.21-1.93,1.64-1.87,2.14.07.5.8,2.64,1.4,3.07.6.43,1.8,1.21,2.93,1.21s1.6,0,2-.36c.4-.36,2.27-1.21,2.13-2.86-.13-1.64-1.07-1.78-2.07-2.14-1-.36-1.53-.71-2.53-1.14-1-.43-1.4-.36-2,.07Z"/>
            <path class="cls-13" d="M32.6-6.36c-.24.17-1.55,1.35-1.5,1.76.05.41.64,2.17,1.12,2.52.48.35,1.45,1,2.36,1s1.29,0,1.61-.29c.32-.29,1.82-1,1.71-2.35-.11-1.35-.86-1.47-1.66-1.76-.8-.29-1.23-.59-2.04-.94-.8-.35-1.12-.29-1.61.06Z"/>
          </g>
          <g>
            <path class="cls-15" d="M77.71,3.29c2.72.45,8.5.5,14-5.25s8.5-9.5,4.75-14-5.75-11.25-11.75-12.5-7.75-2.75-13-2.5c-5.25.25-13.25,1.25-11.75,7S61.96-2.46,66.21.29s10,2.75,11.5,3Z"/>
            <path class="cls-3" d="M77.67,2.29c2.58.43,8.06.47,13.28-4.97,5.22-5.44,8.06-8.99,4.51-13.25-3.56-4.26-5.45-10.65-11.15-11.83-5.69-1.18-7.35-2.6-12.33-2.37-4.98.24-12.57,1.18-11.15,6.63,1.42,5.44,1.9,20.35,5.93,22.96,4.03,2.6,9.49,2.6,10.91,2.84Z"/>
            <path class="cls-19" d="M77.63,1.29c2.44.41,7.63.45,12.56-4.69,4.93-5.14,7.63-8.49,4.26-12.51-3.36-4.02-5.16-10.05-10.54-11.17-5.38-1.12-6.95-2.46-11.66-2.23-4.71.22-11.89,1.12-10.54,6.25s1.79,19.21,5.61,21.66c3.81,2.46,8.97,2.46,10.32,2.68Z"/>
            <path class="cls-14" d="M77.59.29c2.3.38,7.19.42,11.84-4.41,4.65-4.83,7.19-7.98,4.02-11.76-3.17-3.78-4.86-9.45-9.94-10.5-5.08-1.05-6.56-2.31-11-2.1-4.44.21-11.21,1.05-9.94,5.88,1.27,4.83,1.69,18.06,5.29,20.37C71.46.08,76.32.08,77.59.29Z"/>
            <path class="cls-6" d="M77.55-.71c2.16.36,6.75.39,11.12-4.13,4.37-4.52,6.75-7.47,3.77-11.01-2.98-3.54-4.57-8.85-9.33-9.83-4.77-.98-6.16-2.16-10.33-1.97-4.17.2-10.53.98-9.33,5.51,1.19,4.52,1.59,16.91,4.97,19.08,3.38,2.16,7.94,2.16,9.14,2.36Z"/>
            <path class="cls-16" d="M77.52-1.71c2.02.33,6.32.37,10.4-3.85,4.09-4.22,6.32-6.97,3.53-10.27-2.79-3.3-4.27-8.25-8.73-9.17-4.46-.92-5.76-2.02-9.66-1.83-3.9.18-9.84.92-8.73,5.13,1.11,4.22,1.49,15.77,4.64,17.78,3.16,2.02,7.43,2.02,8.55,2.2Z"/>
            <path class="cls-10" d="M77.48-2.71c1.88.31,5.88.34,9.68-3.57,3.8-3.91,5.88-6.46,3.29-9.52-2.59-3.06-3.98-7.65-8.13-8.5-4.15-.85-5.36-1.87-8.99-1.7-3.63.17-9.16.85-8.13,4.76,1.04,3.91,1.38,14.62,4.32,16.49,2.94,1.87,6.92,1.87,7.95,2.04Z"/>
            <path class="cls-17" d="M77.44-3.71c1.74.29,5.44.31,8.96-3.29,3.52-3.6,5.44-5.95,3.04-8.77-2.4-2.82-3.68-7.05-7.52-7.83-3.84-.78-4.96-1.72-8.32-1.57-3.36.16-8.48.78-7.52,4.39.96,3.6,1.28,13.47,4,15.2,2.72,1.72,6.4,1.72,7.36,1.88Z"/>
            <path class="cls-2" d="M77.4-4.71c1.6.26,5.01.29,8.24-3.01,3.24-3.3,5.01-5.45,2.8-8.03-2.21-2.58-3.39-6.45-6.92-7.17-3.53-.72-4.56-1.58-7.66-1.43-3.09.14-7.8.72-6.92,4.01.88,3.3,1.18,12.33,3.68,13.9,2.5,1.58,5.89,1.58,6.77,1.72Z"/>
            <path class="cls-11" d="M77.36-5.71c1.46.24,4.57.26,7.53-2.73,2.96-2.99,4.57-4.94,2.55-7.28-2.02-2.34-3.09-5.85-6.31-6.5-3.23-.65-4.17-1.43-6.99-1.3-2.82.13-7.12.65-6.32,3.64.81,2.99,1.08,11.18,3.36,12.61,2.28,1.43,5.38,1.43,6.18,1.56Z"/>
            <path class="cls-21" d="M77.32-6.71c1.32.21,4.13.23,6.81-2.45,2.67-2.68,4.13-4.43,2.31-6.53-1.82-2.1-2.79-5.25-5.71-5.83-2.92-.58-3.77-1.28-6.32-1.17-2.55.12-6.44.58-5.71,3.27.73,2.68.97,10.03,3.04,11.32,2.07,1.28,4.86,1.28,5.59,1.4Z"/>
            <path class="cls-4" d="M77.28-7.71c1.18.19,3.7.21,6.09-2.17,2.39-2.38,3.69-3.93,2.06-5.79-1.63-1.86-2.5-4.65-5.11-5.17-2.61-.52-3.37-1.14-5.65-1.03-2.28.1-5.76.52-5.11,2.89.65,2.38.87,8.89,2.72,10.02,1.85,1.14,4.35,1.14,5,1.24Z"/>
            <path class="cls-7" d="M77.25-8.71c1.04.16,3.26.18,5.37-1.89,2.11-2.07,3.26-3.42,1.82-5.04s-2.2-4.05-4.5-4.5c-2.3-.45-2.97-.99-4.98-.9-2.01.09-5.08.45-4.5,2.52.58,2.07.77,7.74,2.4,8.73,1.63.99,3.83.99,4.41,1.08Z"/>
            <path class="cls-18" d="M77.21-9.71c.9.14,2.82.15,4.65-1.61,1.83-1.76,2.82-2.91,1.58-4.29-1.24-1.38-1.91-3.45-3.9-3.83-1.99-.38-2.57-.84-4.32-.77-1.74.08-4.4.38-3.9,2.15.5,1.76.66,6.59,2.07,7.44,1.41.84,3.32.84,3.82.92Z"/>
            <path class="cls-5" d="M77.17-10.71c.77.12,2.39.13,3.93-1.33,1.54-1.46,2.38-2.41,1.33-3.55-1.05-1.14-1.61-2.85-3.3-3.17-1.68-.32-2.17-.7-3.65-.63-1.47.06-3.72.32-3.3,1.77.42,1.46.56,5.45,1.75,6.14,1.19.7,2.8.7,3.23.76Z"/>
            <path class="cls-13" d="M77.13-11.71c.62.09,1.95.1,3.21-1.05,1.26-1.15,1.95-1.9,1.09-2.8s-1.32-2.25-2.69-2.5c-1.37-.25-1.78-.55-2.98-.5-1.2.05-3.04.25-2.69,1.4.34,1.15.46,4.3,1.43,4.85.97.55,2.29.55,2.63.6Z"/>
          </g>
          <g>
            <path class="cls-15" d="M59.46,16.79c-2.18,1.58-7.25,8-5.5,11.5s7.25,13.25,12.25,15,15,5.5,10.75-7c-4.25-12.5-12-23.5-17.5-19.5Z"/>
            <path class="cls-3" d="M59.55,17.18c-2.08,1.52-6.93,7.7-5.26,11.06,1.67,3.37,6.93,12.75,11.72,14.43,4.78,1.68,14.35,5.29,10.28-6.74-4.06-12.03-11.48-22.61-16.74-18.76Z"/>
            <path class="cls-19" d="M59.63,17.57c-1.99,1.46-6.62,7.39-5.02,10.63,1.6,3.24,6.62,12.25,11.18,13.86,4.56,1.62,13.69,5.08,9.81-6.47-3.88-11.55-10.95-21.72-15.97-18.02Z"/>
            <path class="cls-14" d="M59.72,17.96c-1.89,1.4-6.3,7.09-4.78,10.19,1.52,3.1,6.3,11.75,10.65,13.3,4.35,1.55,13.04,4.88,9.34-6.21-3.69-11.08-10.43-20.83-15.21-17.29Z"/>
            <path class="cls-6" d="M59.81,18.34c-1.8,1.34-5.98,6.79-4.54,9.76,1.44,2.97,5.98,11.24,10.11,12.73,4.13,1.48,12.38,4.67,8.87-5.94-3.51-10.61-9.91-19.94-14.45-16.55Z"/>
            <path class="cls-16" d="M59.89,18.73c-1.7,1.28-5.67,6.49-4.3,9.32,1.37,2.84,5.67,10.74,9.58,12.16,3.91,1.42,11.73,4.46,8.41-5.67-3.32-10.13-9.38-19.05-13.68-15.81Z"/>
            <path class="cls-10" d="M59.98,19.12c-1.61,1.22-5.35,6.18-4.06,8.89,1.29,2.71,5.35,10.24,9.04,11.59,3.69,1.35,11.07,4.25,7.94-5.41-3.14-9.66-8.86-18.16-12.92-15.07Z"/>
            <path class="cls-17" d="M60.07,19.51c-1.51,1.16-5.04,5.88-3.82,8.45,1.22,2.57,5.04,9.74,8.51,11.02,3.47,1.29,10.42,4.04,7.47-5.14-2.95-9.19-8.33-17.27-12.15-14.33Z"/>
            <path class="cls-2" d="M60.16,19.9c-1.42,1.1-4.72,5.58-3.58,8.02,1.14,2.44,4.72,9.24,7.97,10.46,3.25,1.22,9.76,3.83,7-4.88-2.77-8.71-7.81-16.38-11.39-13.59Z"/>
            <path class="cls-11" d="M60.24,20.29c-1.32,1.04-4.4,5.27-3.34,7.58,1.06,2.31,4.4,8.73,7.44,9.89,3.04,1.15,9.11,3.63,6.53-4.61-2.58-8.24-7.29-15.49-10.63-12.85Z"/>
            <path class="cls-21" d="M60.33,20.67c-1.23.98-4.09,4.97-3.1,7.15.99,2.17,4.09,8.23,6.9,9.32,2.82,1.09,8.45,3.42,6.06-4.35-2.4-7.77-6.76-14.6-9.86-12.12Z"/>
            <path class="cls-4" d="M60.42,21.06c-1.13.92-3.77,4.67-2.86,6.71s3.77,7.73,6.37,8.75c2.6,1.02,7.8,3.21,5.59-4.08-2.21-7.29-6.24-13.71-9.1-11.38Z"/>
            <path class="cls-7" d="M60.5,21.45c-1.04.86-3.45,4.37-2.62,6.27.83,1.91,3.45,7.23,5.84,8.18,2.38.96,7.15,3,5.12-3.82-2.02-6.82-5.72-12.82-8.34-10.64Z"/>
            <path class="cls-18" d="M60.59,21.84c-.94.8-3.14,4.06-2.38,5.84.76,1.78,3.14,6.73,5.3,7.62,2.16.89,6.49,2.79,4.65-3.55-1.84-6.35-5.19-11.93-7.57-9.9Z"/>
            <path class="cls-5" d="M60.68,22.23c-.85.74-2.82,3.76-2.14,5.4.68,1.64,2.82,6.23,4.77,7.05,1.95.82,5.84,2.58,4.18-3.29-1.65-5.87-4.67-11.04-6.81-9.16Z"/>
            <path class="cls-13" d="M60.77,22.61c-.75.68-2.5,3.46-1.9,4.97s2.5,5.72,4.23,6.48c1.73.76,5.18,2.37,3.71-3.02-1.47-5.4-4.15-10.15-6.05-8.42Z"/>
          </g>
          <g>
            <path class="cls-15" d="M96.21,16.04c4.1,1.88,14,9.5,14,9.5,0,0-.25,5.25.25,7.25s-1.25,9.75-3,11-7.25,3.5-11.25,1.25-10.5-3.5-9.5-9c1-5.5-3.75-16-2.5-19.5s6-3.25,12-.5Z"/>
            <path class="cls-3" d="M96.36,16.56c3.89,1.78,13.29,9,13.29,9,0,0-.24,4.98.24,6.87s-1.19,9.24-2.85,10.43c-1.66,1.18-6.88,3.32-10.68,1.18-3.8-2.13-9.97-3.32-9.02-8.53.95-5.21-3.56-15.17-2.37-18.48,1.19-3.32,5.7-3.08,11.39-.47Z"/>
            <path class="cls-19" d="M96.51,17.09c3.68,1.68,12.58,8.51,12.58,8.51,0,0-.23,4.7.22,6.49.45,1.79-1.12,8.73-2.7,9.85-1.57,1.12-6.52,3.14-10.11,1.12-3.59-2.02-9.44-3.13-8.54-8.06.9-4.93-3.37-14.33-2.25-17.47,1.12-3.13,5.39-2.91,10.78-.45Z"/>
            <path class="cls-14" d="M96.66,17.61c3.47,1.58,11.87,8.01,11.87,8.01,0,0-.21,4.43.21,6.12.42,1.69-1.06,8.22-2.54,9.28-1.48,1.05-6.15,2.95-9.54,1.05-3.39-1.9-8.9-2.95-8.06-7.59.85-4.64-3.18-13.5-2.12-16.45,1.06-2.95,5.09-2.74,10.18-.42Z"/>
            <path class="cls-6" d="M96.82,18.13c3.27,1.49,11.16,7.52,11.16,7.52,0,0-.2,4.15.2,5.74.4,1.58-1,7.72-2.39,8.71-1.4.99-5.78,2.77-8.97.99-3.19-1.78-8.37-2.77-7.57-7.12.8-4.35-2.99-12.66-1.99-15.43,1-2.77,4.78-2.57,9.57-.4Z"/>
            <path class="cls-16" d="M96.97,18.65c3.06,1.39,10.45,7.02,10.45,7.02,0,0-.19,3.88.19,5.36.37,1.48-.93,7.21-2.24,8.13-1.31.92-5.41,2.59-8.4.92-2.99-1.66-7.84-2.59-7.09-6.65.75-4.07-2.8-11.83-1.87-14.41.93-2.59,4.48-2.4,8.96-.37Z"/>
            <path class="cls-10" d="M97.12,19.17c2.85,1.29,9.74,6.53,9.74,6.53,0,0-.17,3.61.17,4.98.35,1.37-.87,6.7-2.09,7.56-1.22.86-5.05,2.4-7.83.86-2.78-1.54-7.31-2.4-6.61-6.18.7-3.78-2.61-10.99-1.74-13.4.87-2.4,4.18-2.23,8.35-.34Z"/>
            <path class="cls-17" d="M97.27,19.69c2.64,1.19,9.03,6.03,9.03,6.03,0,0-.16,3.33.16,4.6.32,1.27-.81,6.19-1.94,6.98-1.13.79-4.68,2.22-7.26.79-2.58-1.43-6.78-2.22-6.13-5.71.64-3.49-2.42-10.16-1.61-12.38.81-2.22,3.87-2.06,7.74-.32Z"/>
            <path class="cls-2" d="M97.42,20.22c2.44,1.09,8.32,5.54,8.32,5.54,0,0-.15,3.06.15,4.22.3,1.16-.74,5.68-1.78,6.41-1.04.73-4.31,2.04-6.69.73-2.38-1.31-6.25-2.04-5.65-5.24.59-3.2-2.23-9.32-1.49-11.36.74-2.04,3.57-1.89,7.14-.29Z"/>
            <path class="cls-11" d="M97.58,20.74c2.23,1,7.62,5.04,7.62,5.04,0,0-.14,2.78.14,3.85.27,1.06-.68,5.17-1.63,5.83-.95.66-3.94,1.86-6.12.66-2.18-1.19-5.71-1.86-5.17-4.77.54-2.92-2.04-8.49-1.36-10.34.68-1.86,3.26-1.72,6.53-.27Z"/>
            <path class="cls-21" d="M97.73,21.26c2.02.9,6.91,4.54,6.91,4.54,0,0-.12,2.51.12,3.47.25.96-.62,4.66-1.48,5.26-.86.6-3.58,1.67-5.55.6-1.97-1.08-5.18-1.67-4.69-4.3.49-2.63-1.85-7.65-1.23-9.33.62-1.67,2.96-1.55,5.92-.24Z"/>
            <path class="cls-4" d="M97.88,21.78c1.81.8,6.2,4.05,6.2,4.05,0,0-.11,2.24.11,3.09.22.85-.55,4.15-1.33,4.69-.77.53-3.21,1.49-4.98.53-1.77-.96-4.65-1.49-4.2-3.83.44-2.34-1.66-6.82-1.11-8.31.55-1.49,2.66-1.38,5.31-.21Z"/>
            <path class="cls-7" d="M98.03,22.3c1.61.7,5.49,3.55,5.49,3.55,0,0-.1,1.96.1,2.71.2.75-.49,3.65-1.18,4.11-.69.47-2.84,1.31-4.41.47-1.57-.84-4.12-1.31-3.72-3.36.39-2.06-1.47-5.98-.98-7.29.49-1.31,2.35-1.21,4.7-.19Z"/>
            <path class="cls-18" d="M98.18,22.82c1.4.6,4.78,3.06,4.78,3.06,0,0-.09,1.69.09,2.33.17.64-.43,3.14-1.02,3.54-.6.4-2.47,1.13-3.84.4-1.37-.72-3.58-1.12-3.24-2.9.34-1.77-1.28-5.15-.85-6.27.43-1.13,2.05-1.04,4.1-.16Z"/>
            <path class="cls-5" d="M98.34,23.35c1.19.51,4.07,2.56,4.07,2.56,0,0-.07,1.41.07,1.96.15.54-.36,2.63-.87,2.96-.51.34-2.11.94-3.27.34-1.16-.61-3.05-.94-2.76-2.43.29-1.48-1.09-4.31-.73-5.26.36-.94,1.74-.87,3.49-.13Z"/>
            <path class="cls-13" d="M98.49,23.87c.98.41,3.36,2.07,3.36,2.07,0,0-.06,1.14.06,1.58.12.43-.3,2.12-.72,2.39-.42.27-1.74.76-2.7.27-.96-.49-2.52-.76-2.28-1.96.24-1.2-.9-3.48-.6-4.24.3-.76,1.44-.71,2.88-.11Z"/>
          </g>
          <g>
            <path class="cls-15" d="M136.46,9.29c1.25,5,2.25,12.5,1,13.5s-4.25,5.25-6.75,6.75-9.25.5-12.25-6.25-7.75-13-2.75-15.25,6-7.25,12.25-3.75,8.5,5,8.5,5Z"/>
            <path class="cls-3" d="M135.99,9.62c1.19,4.79,2.14,11.97.95,12.93-1.19.96-4.04,5.03-6.42,6.46-2.38,1.44-8.8.48-11.65-5.99-2.85-6.46-7.37-12.45-2.61-14.6,4.75-2.16,5.71-6.94,11.65-3.59,5.94,3.35,8.08,4.79,8.08,4.79Z"/>
            <path class="cls-19" d="M135.53,9.94c1.13,4.58,2.03,11.44.9,12.36-1.13.91-3.83,4.8-6.09,6.18-2.25,1.37-8.34.46-11.05-5.72-2.71-6.18-6.99-11.9-2.48-13.96,4.51-2.06,5.41-6.64,11.05-3.43,5.64,3.2,7.67,4.58,7.67,4.58Z"/>
            <path class="cls-14" d="M135.06,10.27c1.07,4.36,1.92,10.91.85,11.78-1.07.87-3.63,4.58-5.76,5.89-2.13,1.31-7.89.44-10.45-5.46-2.56-5.89-6.61-11.35-2.35-13.31,4.26-1.96,5.12-6.33,10.45-3.27,5.33,3.05,7.25,4.36,7.25,4.36Z"/>
            <path class="cls-6" d="M134.6,10.59c1.01,4.15,1.81,10.38.8,11.21-1,.83-3.42,4.36-5.43,5.61-2.01,1.25-7.44.41-9.85-5.19-2.41-5.61-6.23-10.8-2.21-12.67,4.02-1.87,4.82-6.02,9.85-3.11,5.02,2.91,6.83,4.15,6.83,4.15Z"/>
            <path class="cls-16" d="M134.13,10.92c.94,3.94,1.7,9.85.75,10.64-.94.79-3.21,4.14-5.1,5.32-1.89,1.18-6.98.39-9.25-4.93-2.26-5.32-5.85-10.25-2.08-12.02,3.77-1.77,4.53-5.71,9.25-2.96,4.72,2.76,6.42,3.94,6.42,3.94Z"/>
            <path class="cls-10" d="M133.67,11.25c.88,3.73,1.59,9.32.71,10.07-.88.75-3,3.92-4.77,5.03-1.76,1.12-6.53.37-8.65-4.66-2.12-5.03-5.47-9.7-1.94-11.37,3.53-1.68,4.24-5.41,8.65-2.8,4.41,2.61,6,3.73,6,3.73Z"/>
            <path class="cls-17" d="M133.2,11.57c.82,3.52,1.48,8.79.66,9.5-.82.7-2.79,3.69-4.44,4.75-1.64,1.06-6.08.35-8.05-4.4s-5.09-9.14-1.81-10.73c3.28-1.58,3.94-5.1,8.05-2.64,4.11,2.46,5.58,3.52,5.58,3.52Z"/>
            <path class="cls-2" d="M132.74,11.9c.76,3.31,1.37,8.26.61,8.92-.76.66-2.58,3.47-4.11,4.46-1.52.99-5.62.33-7.45-4.13-1.82-4.46-4.71-8.59-1.67-10.08,3.04-1.49,3.65-4.79,7.45-2.48,3.8,2.31,5.17,3.3,5.17,3.3Z"/>
            <path class="cls-11" d="M132.27,12.22c.7,3.09,1.26,7.73.56,8.35-.7.62-2.38,3.25-3.77,4.18-1.4.93-5.17.31-6.85-3.87-1.68-4.18-4.33-8.04-1.54-9.43,2.79-1.39,3.35-4.49,6.85-2.32,3.49,2.16,4.75,3.09,4.75,3.09Z"/>
            <path class="cls-21" d="M131.8,12.55c.64,2.88,1.15,7.2.51,7.78-.64.58-2.17,3.03-3.44,3.89-1.27.86-4.72.29-6.25-3.6-1.53-3.89-3.95-7.49-1.4-8.79,2.55-1.3,3.06-4.18,6.25-2.16,3.19,2.02,4.34,2.88,4.34,2.88Z"/>
            <path class="cls-4" d="M131.34,12.87c.58,2.67,1.04,6.67.46,7.21-.58.53-1.96,2.8-3.11,3.6-1.15.8-4.26.27-5.65-3.34-1.38-3.6-3.57-6.94-1.27-8.14,2.3-1.2,2.77-3.87,5.65-2,2.88,1.87,3.92,2.67,3.92,2.67Z"/>
            <path class="cls-7" d="M130.87,13.2c.52,2.46.93,6.14.41,6.64-.52.49-1.75,2.58-2.78,3.32-1.03.74-3.81.25-5.05-3.07-1.24-3.32-3.19-6.39-1.13-7.5,2.06-1.11,2.47-3.56,5.05-1.84,2.58,1.72,3.5,2.46,3.5,2.46Z"/>
            <path class="cls-18" d="M130.41,13.53c.46,2.25.82,5.62.36,6.06-.46.45-1.54,2.36-2.45,3.03-.91.67-3.36.22-4.45-2.81-1.09-3.03-2.81-5.84-1-6.85,1.81-1.01,2.18-3.26,4.45-1.68,2.27,1.57,3.09,2.25,3.09,2.25Z"/>
            <path class="cls-5" d="M129.94,13.85c.39,2.03.71,5.09.31,5.49-.39.41-1.33,2.14-2.12,2.75-.78.61-2.9.2-3.85-2.54-.94-2.75-2.43-5.29-.86-6.2,1.57-.91,1.88-2.95,3.85-1.52,1.96,1.42,2.67,2.03,2.67,2.03Z"/>
            <path class="cls-13" d="M129.48,14.18c.33,1.82.6,4.56.27,4.92-.33.37-1.13,1.91-1.79,2.46-.66.55-2.45.18-3.25-2.28-.79-2.46-2.05-4.74-.73-5.56,1.32-.82,1.59-2.64,3.25-1.37,1.66,1.28,2.25,1.82,2.25,1.82Z"/>
          </g>
          <g>
            <path class="cls-15" d="M115.21,50.04s2.25-13.75,12.75-6.5c10.5,7.25,13.75,10,14.5,13s-4.75,1.5-6.5,6.5-1.25,14-10.75,11.5-11.25.75-12-3.75-5.75-10,2-20.75Z"/>
            <path class="cls-3" d="M115.7,50.47s2.15-13.03,12.15-6.16c10.01,6.87,13.11,9.48,13.82,12.32.72,2.84-4.53,1.42-6.2,6.16-1.67,4.74-1.19,13.27-10.25,10.9-9.05-2.37-10.72.71-11.44-3.55-.72-4.26-5.48-9.48,1.91-19.67Z"/>
            <path class="cls-19" d="M116.19,50.9s2.04-12.31,11.56-5.82c9.52,6.49,12.46,8.95,13.14,11.64.68,2.69-4.3,1.34-5.89,5.82-1.59,4.48-1.13,12.54-9.74,10.3-8.61-2.24-10.2.67-10.88-3.36-.68-4.03-5.21-8.95,1.81-18.58Z"/>
            <path class="cls-14" d="M116.68,51.33s1.93-11.59,10.96-5.48c9.03,6.11,11.82,8.43,12.46,10.96.64,2.53-4.08,1.26-5.59,5.48-1.5,4.22-1.07,11.81-9.24,9.7-8.17-2.11-9.67.63-10.31-3.16-.64-3.79-4.94-8.43,1.72-17.5Z"/>
            <path class="cls-6" d="M117.18,51.77s1.83-10.88,10.36-5.14c8.53,5.73,11.17,7.91,11.78,10.28.61,2.37-3.86,1.19-5.28,5.14-1.42,3.96-1.02,11.07-8.74,9.1-7.72-1.98-9.14.59-9.75-2.97-.61-3.56-4.67-7.91,1.63-16.41Z"/>
            <path class="cls-16" d="M117.67,52.2s1.72-10.16,9.76-4.8c8.04,5.35,10.53,7.39,11.1,9.6.57,2.22-3.64,1.11-4.98,4.8-1.34,3.69-.96,10.34-8.23,8.5-7.28-1.85-8.62.55-9.19-2.77-.57-3.32-4.4-7.39,1.53-15.33Z"/>
            <path class="cls-10" d="M118.16,52.63s1.62-9.44,9.17-4.46c7.55,4.98,9.89,6.86,10.43,8.92.54,2.06-3.42,1.03-4.67,4.46-1.26,3.43-.9,9.61-7.73,7.9-6.83-1.72-8.09.51-8.63-2.58-.54-3.09-4.13-6.86,1.44-14.24Z"/>
            <path class="cls-17" d="M118.65,53.06s1.51-8.72,8.57-4.12c7.06,4.6,9.24,6.34,9.75,8.24.5,1.9-3.19.95-4.37,4.12-1.18,3.17-.84,8.88-7.23,7.29-6.39-1.59-7.56.48-8.07-2.38-.5-2.85-3.86-6.34,1.35-13.16Z"/>
            <path class="cls-2" d="M119.14,53.49s1.41-8,7.97-3.78c6.57,4.22,8.6,5.82,9.07,7.57.47,1.75-2.97.87-4.06,3.78-1.09,2.91-.78,8.15-6.72,6.69-5.94-1.46-7.03.44-7.5-2.18-.47-2.62-3.6-5.82,1.25-12.08Z"/>
            <path class="cls-11" d="M119.63,53.92s1.3-7.28,7.38-3.44c6.08,3.84,7.95,5.3,8.39,6.89.43,1.59-2.75.79-3.76,3.44-1.01,2.65-.72,7.42-6.22,6.09-5.5-1.32-6.51.4-6.94-1.99-.43-2.38-3.33-5.3,1.16-10.99Z"/>
            <path class="cls-21" d="M120.13,54.35s1.2-6.57,6.78-3.1c5.58,3.46,7.31,4.77,7.71,6.21.4,1.43-2.53.72-3.46,3.1-.93,2.39-.66,6.68-5.72,5.49-5.05-1.19-5.98.36-6.38-1.79-.4-2.15-3.06-4.77,1.06-9.91Z"/>
            <path class="cls-4" d="M120.62,54.78s1.09-5.85,6.18-2.76c5.09,3.08,6.67,4.25,7.03,5.53s-2.3.64-3.15,2.76c-.85,2.13-.61,5.95-5.21,4.89-4.61-1.06-5.45.32-5.82-1.6-.36-1.91-2.79-4.25.97-8.82Z"/>
            <path class="cls-7" d="M121.11,55.21s.99-5.13,5.58-2.42c4.6,2.7,6.02,3.73,6.35,4.85.33,1.12-2.08.56-2.85,2.42-.77,1.87-.55,5.22-4.71,4.29-4.16-.93-4.93.28-5.26-1.4-.33-1.68-2.52-3.73.88-7.74Z"/>
            <path class="cls-18" d="M121.6,55.65s.88-4.41,4.99-2.08c4.11,2.32,5.38,3.21,5.67,4.17.29.96-1.86.48-2.54,2.08-.68,1.6-.49,4.49-4.21,3.69-3.72-.8-4.4.24-4.69-1.2-.29-1.44-2.25-3.21.78-6.66Z"/>
            <path class="cls-5" d="M122.09,56.08s.77-3.69,4.39-1.74c3.62,1.95,4.74,2.68,4.99,3.49.26.81-1.63.4-2.24,1.74-.6,1.34-.43,3.76-3.7,3.09-3.27-.67-3.87.2-4.13-1.01-.26-1.21-1.98-2.68.69-5.57Z"/>
            <path class="cls-13" d="M122.58,56.51s.67-2.97,3.79-1.4c3.12,1.57,4.09,2.16,4.31,2.81.22.65-1.41.32-1.93,1.4-.52,1.08-.37,3.03-3.2,2.49-2.83-.54-3.35.16-3.57-.81-.22-.97-1.71-2.16.6-4.49Z"/>
          </g>
          <g>
            <path class="cls-15" d="M13.96,11.54s1,3.5-.75,10-3.75,10.25-5.5,11-4,1-6.75-.5-4.75-4.25-8.75-10.5-10.25-10.5-3.25-13S-1.54,2.29,4.46,5.54s8.5,3.75,9.5,6Z"/>
            <path class="cls-3" d="M13.4,11.76s.95,3.34-.71,9.54c-1.67,6.2-3.57,9.78-5.24,10.49-1.67.72-3.81.95-6.43-.48-2.62-1.43-4.52-4.05-8.33-10.01-3.81-5.96-9.76-10.02-3.1-12.4C-3.74,6.52-1.36,2.94,4.35,6.04c5.72,3.1,8.1,3.58,9.05,5.72Z"/>
            <path class="cls-19" d="M12.85,11.99s.9,3.18-.68,9.08c-1.58,5.9-3.39,9.3-4.98,9.98-1.58.68-3.62.91-6.11-.45-2.49-1.36-4.3-3.86-7.92-9.53-3.62-5.67-9.28-9.53-2.94-11.8C-3.44,7-1.18,3.59,4.25,6.54c5.43,2.95,7.69,3.4,8.6,5.45Z"/>
            <path class="cls-14" d="M12.3,12.21s.86,3.01-.64,8.61c-1.5,5.6-3.22,8.83-4.72,9.48-1.5.65-3.43.86-5.79-.43-2.36-1.29-4.07-3.66-7.5-9.04-3.43-5.38-8.79-9.04-2.79-11.2C-3.14,7.47-1,4.24,4.15,7.04c5.15,2.8,7.29,3.23,8.15,5.17Z"/>
            <path class="cls-6" d="M11.74,12.43s.81,2.85-.61,8.15c-1.42,5.3-3.04,8.36-4.46,8.97-1.42.61-3.24.82-5.47-.41-2.23-1.22-3.85-3.46-7.09-8.56-3.24-5.09-8.31-8.56-2.63-10.6C-2.84,7.95-.82,4.89,4.04,7.54s6.89,3.06,7.7,4.89Z"/>
            <path class="cls-16" d="M11.19,12.65s.76,2.69-.57,7.69c-1.33,5-2.86,7.88-4.2,8.46-1.33.58-3.05.77-5.15-.38-2.1-1.15-3.62-3.27-6.68-8.07-3.05-4.81-7.82-8.07-2.48-10C-2.55,8.42-.64,5.54,3.94,8.04c4.58,2.5,6.48,2.88,7.25,4.61Z"/>
            <path class="cls-10" d="M10.63,12.88s.72,2.53-.54,7.23c-1.25,4.7-2.68,7.41-3.94,7.95-1.25.54-2.86.72-4.83-.36-1.97-1.08-3.4-3.07-6.26-7.59-2.86-4.52-7.33-7.59-2.33-9.4C-2.25,8.9-.46,6.19,3.84,8.54c4.29,2.35,6.08,2.71,6.8,4.34Z"/>
            <path class="cls-17" d="M10.08,13.1s.67,2.37-.5,6.77c-1.17,4.4-2.5,6.94-3.67,7.44-1.17.51-2.67.68-4.51-.34-1.84-1.01-3.17-2.87-5.85-7.1-2.67-4.23-6.85-7.1-2.17-8.8C-1.95,9.38-.28,6.84,3.73,9.04c4.01,2.2,5.68,2.54,6.35,4.06Z"/>
            <path class="cls-2" d="M9.52,13.32s.62,2.21-.47,6.3c-1.09,4.1-2.33,6.46-3.41,6.93-1.09.47-2.48.63-4.19-.32-1.71-.95-2.95-2.68-5.43-6.62-2.48-3.94-6.36-6.62-2.02-8.2C-1.65,9.85-.1,7.49,3.63,9.54c3.72,2.05,5.28,2.36,5.9,3.78Z"/>
            <path class="cls-11" d="M8.97,13.54s.57,2.04-.43,5.84c-1,3.8-2.15,5.99-3.15,6.43-1,.44-2.29.58-3.87-.29-1.58-.88-2.72-2.48-5.02-6.13-2.29-3.65-5.88-6.13-1.86-7.59C-1.35,10.33.09,8.14,3.52,10.04c3.44,1.9,4.87,2.19,5.45,3.5Z"/>
            <path class="cls-21" d="M8.42,13.77s.53,1.88-.39,5.38-1.97,5.51-2.89,5.92c-.92.4-2.1.54-3.55-.27-1.45-.81-2.5-2.29-4.6-5.65-2.1-3.36-5.39-5.65-1.71-6.99,3.68-1.34,5-3.36,8.15-1.61,3.15,1.75,4.47,2.02,5,3.23Z"/>
            <path class="cls-4" d="M7.86,13.99s.48,1.72-.36,4.92c-.84,3.2-1.79,5.04-2.63,5.41-.84.37-1.91.49-3.23-.25-1.32-.74-2.27-2.09-4.19-5.16-1.91-3.07-4.9-5.16-1.55-6.39,3.35-1.23,4.54-3.07,7.41-1.48,2.87,1.6,4.07,1.84,4.54,2.95Z"/>
            <path class="cls-7" d="M7.31,14.21s.43,1.56-.32,4.46-1.62,4.57-2.37,4.9c-.75.33-1.72.45-2.91-.22-1.19-.67-2.05-1.89-3.77-4.68-1.72-2.79-4.42-4.68-1.4-5.79,3.02-1.11,4.09-2.79,6.68-1.34,2.59,1.45,3.66,1.67,4.09,2.67Z"/>
            <path class="cls-18" d="M6.75,14.43s.38,1.4-.29,3.99c-.67,2.6-1.44,4.09-2.11,4.39-.67.3-1.53.4-2.59-.2-1.05-.6-1.82-1.7-3.36-4.19-1.53-2.5-3.93-4.19-1.25-5.19,2.69-1,3.64-2.5,5.94-1.2,2.3,1.3,3.26,1.5,3.64,2.4Z"/>
            <path class="cls-5" d="M6.2,14.65s.34,1.24-.25,3.53-1.26,3.62-1.85,3.89c-.59.26-1.34.35-2.27-.18-.92-.53-1.6-1.5-2.94-3.71-1.34-2.21-3.45-3.71-1.09-4.59,2.35-.88,3.19-2.21,5.21-1.06,2.02,1.15,2.86,1.33,3.19,2.12Z"/>
            <path class="cls-13" d="M5.64,14.88s.29,1.07-.22,3.07c-.5,2-1.08,3.15-1.59,3.38-.5.23-1.15.31-1.95-.15-.79-.46-1.37-1.3-2.53-3.22-1.15-1.92-2.96-3.22-.94-3.99,2.02-.77,2.74-1.92,4.47-.92,1.73,1,2.45,1.15,2.74,1.84Z"/>
          </g>
          <g>
            <path class="cls-15" d="M23.71,20.79c-1.75,3.25-7.75,9.5-6.5,14,1.25,4.5,5.25,11,8.75,11.75s16,12,18-9.25c2-21.25-10.19-12.72-11.25-15-1.75-3.75-9-1.5-9-1.5Z"/>
            <path class="cls-3" d="M24.05,21.34c-1.67,3.1-7.4,9.07-6.2,13.36,1.19,4.29,5.01,10.5,8.35,11.21,3.34.72,15.27,11.45,17.18-8.83,1.91-20.28-9.72-12.14-10.74-14.32-1.67-3.58-8.59-1.43-8.59-1.43Z"/>
            <path class="cls-19" d="M24.39,21.89c-1.59,2.95-7.04,8.63-5.91,12.72,1.14,4.09,4.77,10,7.95,10.68,3.18.68,14.54,10.9,16.36-8.41,1.82-19.31-9.26-11.56-10.22-13.63-1.59-3.41-8.18-1.36-8.18-1.36Z"/>
            <path class="cls-14" d="M24.73,22.43c-1.51,2.81-6.69,8.2-5.61,12.08,1.08,3.88,4.53,9.49,7.55,10.14,3.02.65,13.81,10.36,15.54-7.98,1.73-18.34-8.79-10.98-9.71-12.95-1.51-3.24-7.77-1.29-7.77-1.29Z"/>
            <path class="cls-6" d="M25.08,22.98c-1.43,2.66-6.34,7.77-5.31,11.44,1.02,3.68,4.29,8.99,7.15,9.61,2.86.61,13.08,9.81,14.71-7.56,1.63-17.37-8.33-10.4-9.2-12.26-1.43-3.07-7.36-1.23-7.36-1.23Z"/>
            <path class="cls-16" d="M25.42,23.53c-1.35,2.51-5.98,7.33-5.02,10.81.96,3.47,4.05,8.49,6.75,9.07,2.7.58,12.35,9.26,13.89-7.14,1.54-16.4-7.86-9.82-8.68-11.58-1.35-2.89-6.95-1.16-6.95-1.16Z"/>
            <path class="cls-10" d="M25.76,24.08c-1.27,2.36-5.63,6.9-4.72,10.17s3.81,7.99,6.35,8.53c2.54.55,11.62,8.71,13.07-6.72,1.45-15.43-7.4-9.24-8.17-10.89-1.27-2.72-6.54-1.09-6.54-1.09Z"/>
            <path class="cls-17" d="M26.1,24.62c-1.19,2.21-5.27,6.47-4.42,9.53.85,3.06,3.57,7.49,5.96,8,2.38.51,10.89,8.17,12.25-6.29,1.36-14.46-6.93-8.66-7.66-10.21-1.19-2.55-6.12-1.02-6.12-1.02Z"/>
            <path class="cls-2" d="M26.45,25.17c-1.11,2.06-4.92,6.03-4.13,8.89.79,2.86,3.33,6.98,5.56,7.46,2.22.48,10.16,7.62,11.43-5.87,1.27-13.49-6.47-8.08-7.14-9.52-1.11-2.38-5.71-.95-5.71-.95Z"/>
            <path class="cls-11" d="M26.79,25.72c-1.03,1.91-4.57,5.6-3.83,8.25.74,2.65,3.09,6.48,5.16,6.92,2.06.44,9.43,7.07,10.61-5.45,1.18-12.52-6-7.5-6.63-8.84-1.03-2.21-5.3-.88-5.3-.88Z"/>
            <path class="cls-21" d="M27.13,26.27c-.95,1.77-4.21,5.17-3.53,7.61.68,2.45,2.85,5.98,4.76,6.39,1.9.41,8.7,6.52,9.79-5.03,1.09-11.55-5.54-6.92-6.12-8.15-.95-2.04-4.89-.82-4.89-.82Z"/>
            <path class="cls-4" d="M27.47,26.82c-.87,1.62-3.86,4.73-3.24,6.97.62,2.24,2.61,5.48,4.36,5.85,1.74.37,7.97,5.98,8.96-4.61s-5.07-6.34-5.6-7.47c-.87-1.87-4.48-.75-4.48-.75Z"/>
            <path class="cls-7" d="M27.81,27.36c-.79,1.47-3.51,4.3-2.94,6.33.56,2.04,2.37,4.98,3.96,5.32,1.58.34,7.24,5.43,8.14-4.18.9-9.61-4.61-5.75-5.09-6.78-.79-1.7-4.07-.68-4.07-.68Z"/>
            <path class="cls-18" d="M28.16,27.91c-.71,1.32-3.15,3.86-2.64,5.69.51,1.83,2.13,4.47,3.56,4.78,1.42.3,6.51,4.88,7.32-3.76.81-8.64-4.14-5.17-4.58-6.1-.71-1.53-3.66-.61-3.66-.61Z"/>
            <path class="cls-5" d="M28.5,28.46c-.63,1.17-2.8,3.43-2.35,5.05.45,1.62,1.9,3.97,3.16,4.24,1.26.27,5.78,4.33,6.5-3.34.72-7.67-3.68-4.59-4.06-5.41-.63-1.35-3.25-.54-3.25-.54Z"/>
            <path class="cls-13" d="M28.84,29.01c-.55,1.02-2.44,3-2.05,4.42.39,1.42,1.66,3.47,2.76,3.71,1.1.24,5.05,3.79,5.68-2.92.63-6.7-3.21-4.01-3.55-4.73-.55-1.18-2.84-.47-2.84-.47Z"/>
          </g>
          <g>
            <path class="cls-15" d="M49.21,51.79c-.78.67-8.75,4.5-10.75,7.25s2,7.25,4.25,9.25,6.75,5.25,13.5.25,9-13.75,3.5-15.75c-5.5-2-8.75-2.5-10.5-1Z"/>
            <path class="cls-3" d="M49.28,52.16c-.74.64-8.28,4.31-10.17,6.94-1.89,2.63,1.89,6.94,4.02,8.86,2.13,1.92,6.39,5.03,12.77.24,6.39-4.79,8.51-13.17,3.31-15.08-5.2-1.92-8.28-2.39-9.93-.96Z"/>
            <path class="cls-19" d="M49.34,52.54c-.7.61-7.81,4.12-9.59,6.63-1.78,2.52,1.78,6.63,3.79,8.46,2.01,1.83,6.02,4.8,12.04.23,6.02-4.57,8.03-12.58,3.12-14.41-4.91-1.83-7.81-2.29-9.37-.91Z"/>
            <path class="cls-14" d="M49.41,52.91c-.66.58-7.33,3.92-9.01,6.32-1.68,2.4,1.68,6.33,3.56,8.07,1.89,1.75,5.66,4.58,11.31.22,5.66-4.36,7.54-12,2.93-13.74-4.61-1.75-7.33-2.18-8.8-.87Z"/>
            <path class="cls-6" d="M49.48,53.28c-.61.56-6.86,3.73-8.43,6.02-1.57,2.28,1.57,6.02,3.33,7.68,1.76,1.66,5.29,4.36,10.59.21,5.29-4.15,7.06-11.41,2.75-13.07-4.31-1.66-6.86-2.07-8.23-.83Z"/>
            <path class="cls-16" d="M49.54,53.65c-.57.53-6.39,3.54-7.85,5.71-1.46,2.17,1.46,5.71,3.1,7.28,1.64,1.58,4.93,4.13,9.86.2,4.93-3.94,6.57-10.83,2.56-12.4-4.02-1.58-6.39-1.97-7.67-.79Z"/>
            <path class="cls-10" d="M49.61,54.02c-.53.5-5.92,3.35-7.27,5.4-1.35,2.05,1.35,5.4,2.87,6.89,1.52,1.49,4.56,3.91,9.13.19,4.56-3.72,6.09-10.24,2.37-11.73-3.72-1.49-5.92-1.86-7.1-.75Z"/>
            <path class="cls-17" d="M49.68,54.4c-.49.47-5.44,3.16-6.69,5.09-1.24,1.93,1.24,5.09,2.64,6.5,1.4,1.4,4.2,3.69,8.4.17,4.2-3.51,5.6-9.66,2.18-11.06-3.42-1.4-5.45-1.76-6.53-.7Z"/>
            <path class="cls-2" d="M49.75,54.77c-.45.44-4.97,2.97-6.11,4.78-1.14,1.81,1.14,4.78,2.41,6.1,1.28,1.32,3.84,3.46,7.67.17,3.84-3.3,5.11-9.07,1.99-10.39-3.13-1.32-4.97-1.65-5.97-.66Z"/>
            <path class="cls-11" d="M49.81,55.14c-.4.42-4.5,2.78-5.53,4.48-1.03,1.7,1.03,4.48,2.19,5.71,1.16,1.24,3.47,3.24,6.94.15,3.47-3.09,4.63-8.49,1.8-9.72-2.83-1.23-4.5-1.54-5.4-.62Z"/>
            <path class="cls-21" d="M49.88,55.51c-.36.39-4.03,2.59-4.95,4.17-.92,1.58.92,4.17,1.96,5.32,1.04,1.15,3.11,3.02,6.21.14,3.11-2.87,4.14-7.9,1.61-9.05-2.53-1.15-4.03-1.44-4.83-.58Z"/>
            <path class="cls-4" d="M49.95,55.88c-.32.36-3.56,2.4-4.37,3.86-.81,1.46.81,3.86,1.73,4.92.91,1.07,2.74,2.79,5.49.13,2.74-2.66,3.66-7.32,1.42-8.38-2.24-1.06-3.56-1.33-4.27-.53Z"/>
            <path class="cls-7" d="M50.02,56.25c-.28.33-3.08,2.2-3.79,3.55s.7,3.55,1.5,4.53c.79.98,2.38,2.57,4.76.12,2.38-2.45,3.17-6.73,1.23-7.71-1.94-.98-3.08-1.23-3.7-.49Z"/>
            <path class="cls-18" d="M50.09,56.63c-.23.3-2.61,2.01-3.21,3.24-.6,1.23.6,3.24,1.27,4.14.67.89,2.01,2.35,4.03.11,2.01-2.24,2.69-6.15,1.05-7.04-1.64-.89-2.61-1.12-3.13-.45Z"/>
            <path class="cls-5" d="M50.15,57c-.19.27-2.14,1.82-2.63,2.94-.49,1.11.49,2.93,1.04,3.74.55.81,1.65,2.13,3.3.1,1.65-2.02,2.2-5.56.86-6.37-1.34-.81-2.14-1.01-2.57-.41Z"/>
            <path class="cls-13" d="M50.22,57.37c-.15.24-1.67,1.63-2.05,2.63-.38,1,.38,2.63.81,3.35.43.72,1.29,1.9,2.57.09,1.29-1.81,1.71-4.98.67-5.7-1.05-.72-1.67-.91-2-.36Z"/>
          </g>
          <g>
            <path class="cls-15" d="M75.46,58.04s-5.5,6.25-4.25,10,0,5,6.75,10.5c6.75,5.5,12.25,10,15,10s18,4,14.75-8.25-15.25-26.25-18.25-26.75-7.5,1.25-14,4.5Z"/>
            <path class="cls-3" d="M76.22,58.62s-5.21,5.99-4.02,9.58,0,4.79,6.39,10.06c6.39,5.27,11.59,9.58,14.2,9.58s17.04,3.83,13.96-7.9c-3.08-11.74-14.43-25.15-17.27-25.63-2.84-.48-7.1,1.2-13.25,4.31Z"/>
            <path class="cls-19" d="M76.99,59.19s-4.91,5.73-3.79,9.16c1.12,3.44,0,4.58,6.03,9.62,6.03,5.04,10.94,9.16,13.39,9.16s16.07,3.66,13.17-7.56c-2.9-11.22-13.62-24.05-16.29-24.51-2.68-.46-6.7,1.15-12.5,4.12Z"/>
            <path class="cls-14" d="M77.75,59.77s-4.62,5.46-3.57,8.74c1.05,3.28,0,4.37,5.66,9.18,5.67,4.81,10.28,8.74,12.59,8.74s15.11,3.5,12.38-7.21c-2.73-10.71-12.8-22.95-15.31-23.39-2.52-.44-6.29,1.09-11.75,3.93Z"/>
            <path class="cls-6" d="M78.51,60.35s-4.32,5.2-3.34,8.32c.98,3.12,0,4.16,5.3,8.74,5.3,4.58,9.62,8.32,11.78,8.32s14.14,3.33,11.59-6.87-11.98-21.85-14.34-22.27c-2.36-.42-5.89,1.04-11,3.75Z"/>
            <path class="cls-16" d="M79.28,60.92s-4.03,4.94-3.11,7.9c.91,2.96,0,3.95,4.94,8.3,4.94,4.35,8.97,7.91,10.98,7.91s13.18,3.16,10.8-6.52c-2.38-9.68-11.16-20.75-13.36-21.15-2.2-.4-5.49.99-10.25,3.56Z"/>
            <path class="cls-10" d="M80.04,61.5s-3.73,4.68-2.88,7.48c.85,2.81,0,3.74,4.58,7.86,4.58,4.12,8.31,7.49,10.18,7.49s12.21,2.99,10.01-6.18c-2.2-9.17-10.35-19.65-12.38-20.02-2.03-.37-5.09.94-9.5,3.37Z"/>
            <path class="cls-17" d="M80.81,62.08s-3.44,4.42-2.66,7.07c.78,2.65,0,3.53,4.22,7.42,4.22,3.89,7.65,7.07,9.37,7.07s11.24,2.83,9.21-5.83c-2.03-8.66-9.53-18.55-11.4-18.9-1.87-.35-4.69.88-8.75,3.18Z"/>
            <path class="cls-2" d="M81.57,62.65s-3.14,4.15-2.43,6.65c.71,2.49,0,3.32,3.86,6.98,3.85,3.66,7,6.65,8.57,6.65s10.28,2.66,8.42-5.48c-1.86-8.14-8.71-17.45-10.42-17.78-1.71-.33-4.28.83-8,2.99Z"/>
            <path class="cls-11" d="M82.33,63.23s-2.85,3.89-2.2,6.23c.65,2.34,0,3.12,3.49,6.54,3.49,3.43,6.34,6.23,7.76,6.23s9.32,2.49,7.63-5.14c-1.68-7.63-7.89-16.35-9.45-16.66s-3.88.78-7.25,2.8Z"/>
            <path class="cls-21" d="M83.1,63.8s-2.55,3.63-1.97,5.81c.58,2.18,0,2.91,3.13,6.1,3.13,3.2,5.68,5.81,6.96,5.81s8.35,2.32,6.84-4.79c-1.51-7.12-7.08-15.25-8.47-15.54-1.39-.29-3.48.73-6.49,2.61Z"/>
            <path class="cls-4" d="M83.86,64.38s-2.26,3.37-1.74,5.39c.51,2.02,0,2.7,2.77,5.66,2.77,2.96,5.03,5.39,6.16,5.39s7.39,2.16,6.05-4.45c-1.33-6.6-6.26-14.15-7.49-14.42-1.23-.27-3.08.67-5.74,2.43Z"/>
            <path class="cls-7" d="M84.62,64.96s-1.96,3.11-1.52,4.97c.45,1.86,0,2.49,2.41,5.22,2.41,2.73,4.37,4.97,5.35,4.97s6.42,1.99,5.26-4.1c-1.16-6.09-5.44-13.05-6.51-13.3-1.07-.25-2.67.62-4.99,2.24Z"/>
            <path class="cls-18" d="M85.39,65.53s-1.67,2.84-1.29,4.55c.38,1.71,0,2.28,2.05,4.78,2.05,2.5,3.71,4.55,4.55,4.55s5.46,1.82,4.47-3.76c-.99-5.58-4.62-11.95-5.53-12.18-.91-.23-2.27.57-4.24,2.05Z"/>
            <path class="cls-5" d="M86.15,66.11s-1.37,2.58-1.06,4.13c.31,1.55,0,2.07,1.68,4.34,1.68,2.27,3.06,4.13,3.74,4.13s4.49,1.65,3.68-3.41c-.81-5.06-3.81-10.85-4.55-11.06-.75-.21-1.87.52-3.49,1.86Z"/>
            <path class="cls-13" d="M86.92,66.69s-1.08,2.32-.83,3.71c.24,1.39,0,1.86,1.32,3.9,1.32,2.04,2.4,3.71,2.94,3.71s3.53,1.48,2.89-3.06c-.64-4.55-2.99-9.75-3.58-9.94-.59-.19-1.47.46-2.74,1.67Z"/>
          </g>
          <g>
            <path class="cls-15" d="M115.21,91.04c.2,1.67-5.5,12.25-6,15s2,17.75,14.5,13.5,13.5-24.75,13.5-24.75c0,0,2.25-7.5-4.25-9.25s-18.5-.75-17.75,5.5Z"/>
            <path class="cls-3" d="M115.66,91.63c.19,1.58-5.23,11.64-5.7,14.25-.48,2.61,1.9,16.87,13.78,12.83,11.88-4.04,12.83-23.52,12.83-23.52,0,0,2.14-7.13-4.04-8.79-6.18-1.66-17.59-.71-16.87,5.23Z"/>
            <path class="cls-19" d="M116.12,92.21c.18,1.5-4.96,11.03-5.41,13.5-.45,2.48,1.8,15.98,13.07,12.15,11.27-3.83,12.17-22.28,12.17-22.28,0,0,2.03-6.75-3.83-8.33s-16.67-.67-16,4.95Z"/>
            <path class="cls-14" d="M116.57,92.8c.17,1.42-4.68,10.42-5.11,12.76-.43,2.34,1.7,15.1,12.35,11.48,10.65-3.61,11.5-21.05,11.5-21.05,0,0,1.92-6.38-3.62-7.87-5.54-1.49-15.76-.64-15.12,4.68Z"/>
            <path class="cls-6" d="M117.02,93.38c.16,1.33-4.41,9.81-4.82,12.01-.4,2.2,1.6,14.21,11.64,10.81,10.03-3.4,10.83-19.81,10.83-19.81,0,0,1.81-6-3.41-7.41-5.22-1.4-14.85-.6-14.24,4.4Z"/>
            <path class="cls-16" d="M117.48,93.97c.15,1.25-4.14,9.2-4.52,11.26-.38,2.06,1.51,13.33,10.92,10.14,9.42-3.19,10.17-18.58,10.17-18.58,0,0,1.7-5.63-3.2-6.94-4.9-1.31-13.93-.56-13.37,4.13Z"/>
            <path class="cls-10" d="M117.93,94.56c.14,1.17-3.87,8.59-4.22,10.51-.35,1.93,1.41,12.44,10.2,9.46,8.8-2.98,9.5-17.35,9.5-17.35,0,0,1.58-5.26-2.99-6.48-4.58-1.23-13.02-.53-12.49,3.86Z"/>
            <path class="cls-17" d="M118.38,95.14c.13,1.09-3.6,7.98-3.93,9.77-.33,1.79,1.31,11.56,9.49,8.79,8.18-2.77,8.83-16.11,8.83-16.11,0,0,1.47-4.88-2.78-6.02-4.25-1.14-12.11-.49-11.62,3.58Z"/>
            <path class="cls-2" d="M118.84,95.73c.12,1-3.33,7.37-3.63,9.02-.3,1.65,1.21,10.67,8.77,8.12,7.56-2.56,8.17-14.88,8.17-14.88,0,0,1.36-4.51-2.57-5.56-3.93-1.05-11.19-.45-10.74,3.31Z"/>
            <path class="cls-11" d="M119.29,96.31c.11.92-3.06,6.75-3.33,8.27-.28,1.52,1.11,9.79,8.06,7.44,6.95-2.34,7.5-13.65,7.5-13.65,0,0,1.25-4.14-2.36-5.1-3.61-.96-10.28-.41-9.86,3.03Z"/>
            <path class="cls-21" d="M119.74,96.9c.1.84-2.79,6.14-3.04,7.52-.25,1.38,1.01,8.9,7.34,6.77,6.33-2.13,6.84-12.41,6.84-12.41,0,0,1.14-3.76-2.15-4.64-3.29-.88-9.37-.38-8.99,2.76Z"/>
            <path class="cls-4" d="M120.2,97.48c.09.75-2.51,5.53-2.74,6.78-.23,1.24.91,8.02,6.62,6.1,5.71-1.92,6.17-11.18,6.17-11.18,0,0,1.03-3.39-1.94-4.18-2.97-.79-8.45-.34-8.11,2.48Z"/>
            <path class="cls-7" d="M120.65,98.07c.08.67-2.24,4.92-2.45,6.03-.21,1.11.82,7.13,5.91,5.42,5.1-1.71,5.5-9.95,5.5-9.95,0,0,.92-3.01-1.73-3.72-2.65-.7-7.54-.3-7.23,2.21Z"/>
            <path class="cls-18" d="M121.1,98.66c.07.59-1.97,4.31-2.15,5.28-.18.97.72,6.25,5.19,4.75,4.48-1.5,4.84-8.71,4.84-8.71,0,0,.81-2.64-1.52-3.26s-6.63-.26-6.36,1.94Z"/>
            <path class="cls-5" d="M121.56,99.24c.06.5-1.7,3.7-1.85,4.53-.16.83.62,5.36,4.48,4.08,3.86-1.28,4.17-7.48,4.17-7.48,0,0,.69-2.27-1.31-2.8-2.01-.53-5.71-.23-5.48,1.66Z"/>
            <path class="cls-13" d="M122.01,99.83c.05.42-1.43,3.09-1.56,3.79-.13.7.52,4.48,3.76,3.41,3.24-1.07,3.5-6.24,3.5-6.24,0,0,.58-1.89-1.1-2.33s-4.8-.19-4.61,1.39Z"/>
          </g>
          <g>
            <path class="cls-15" d="M81.71,97.29s8.75,5.25,10.25,6.25,5.25,1.75,5.5,6.25,2.25,7.5-1,10.5-5,7-10.25,7-12.25,2.25-16,.75c-3.75-1.5-6-6.5-6.75-11s-1.75-7.75-1.75-13.25-2.25-12,6.5-11c8.75,1,13.5,4.5,13.5,4.5Z"/>
            <path class="cls-3" d="M81.54,97.86s8.35,5.02,9.79,5.98c1.43.96,5.01,1.67,5.25,5.98.24,4.3,2.15,7.17-.95,10.04-3.1,2.87-4.77,6.69-9.79,6.69s-11.69,2.15-15.28.72c-3.58-1.43-5.73-6.22-6.44-10.52-.72-4.3-1.67-7.41-1.67-12.67s-2.15-11.47,6.21-10.52c8.35.96,12.89,4.3,12.89,4.3Z"/>
            <path class="cls-19" d="M81.37,98.43s7.96,4.79,9.32,5.7c1.36.91,4.77,1.6,5,5.7.23,4.11,2.05,6.84-.91,9.58-2.96,2.74-4.55,6.39-9.32,6.39s-11.14,2.05-14.55.68c-3.41-1.37-5.46-5.93-6.14-10.04-.68-4.11-1.59-7.07-1.59-12.09s-2.05-10.95,5.91-10.04c7.96.91,12.28,4.11,12.28,4.11Z"/>
            <path class="cls-14" d="M81.2,99s7.56,4.56,8.86,5.43c1.3.87,4.54,1.52,4.75,5.43.22,3.91,1.94,6.52-.86,9.12-2.81,2.61-4.32,6.08-8.86,6.08s-10.59,1.95-13.83.65c-3.24-1.3-5.18-5.65-5.83-9.56-.65-3.91-1.51-6.73-1.51-11.51s-1.94-10.43,5.62-9.56c7.56.87,11.67,3.91,11.67,3.91Z"/>
            <path class="cls-6" d="M81.03,99.57s7.17,4.33,8.39,5.16c1.23.83,4.3,1.44,4.5,5.16.2,3.71,1.84,6.19-.82,8.66-2.66,2.48-4.09,5.78-8.39,5.78s-10.03,1.86-13.1.62c-3.07-1.24-4.91-5.36-5.53-9.08-.61-3.71-1.43-6.39-1.43-10.93s-1.84-9.9,5.32-9.08,11.06,3.71,11.06,3.71Z"/>
            <path class="cls-16" d="M80.86,100.13s6.77,4.1,7.93,4.88c1.16.78,4.06,1.37,4.25,4.88.19,3.52,1.74,5.86-.77,8.2-2.51,2.34-3.87,5.47-7.93,5.47s-9.48,1.76-12.38.59c-2.9-1.17-4.64-5.08-5.22-8.59-.58-3.52-1.35-6.05-1.35-10.35s-1.74-9.38,5.03-8.59c6.77.78,10.44,3.52,10.44,3.52Z"/>
            <path class="cls-10" d="M80.69,100.7s6.37,3.87,7.47,4.61c1.09.74,3.82,1.29,4.01,4.61.18,3.32,1.64,5.53-.73,7.74-2.37,2.21-3.64,5.16-7.47,5.16s-8.92,1.66-11.65.55c-2.73-1.11-4.37-4.79-4.92-8.11-.55-3.32-1.27-5.72-1.27-9.77s-1.64-8.85,4.73-8.11c6.37.74,9.83,3.32,9.83,3.32Z"/>
            <path class="cls-17" d="M80.52,101.27s5.98,3.64,7,4.34c1.03.69,3.59,1.21,3.76,4.34.17,3.12,1.54,5.2-.68,7.28-2.22,2.08-3.42,4.86-7,4.86s-8.37,1.56-10.93.52c-2.56-1.04-4.1-4.51-4.61-7.63-.51-3.12-1.2-5.38-1.2-9.19s-1.54-8.32,4.44-7.63c5.98.69,9.22,3.12,9.22,3.12Z"/>
            <path class="cls-2" d="M80.35,101.84s5.58,3.41,6.54,4.06c.96.65,3.35,1.14,3.51,4.06.16,2.92,1.44,4.88-.64,6.83-2.07,1.95-3.19,4.55-6.54,4.55s-7.81,1.46-10.21.49c-2.39-.97-3.83-4.22-4.31-7.15s-1.12-5.04-1.12-8.61-1.44-7.8,4.15-7.15c5.58.65,8.61,2.92,8.61,2.92Z"/>
            <path class="cls-11" d="M80.18,102.41s5.18,3.18,6.07,3.79c.89.61,3.11,1.06,3.26,3.79.15,2.73,1.33,4.55-.59,6.37s-2.96,4.24-6.07,4.24-7.26,1.36-9.48.45c-2.22-.91-3.56-3.94-4-6.67-.44-2.73-1.04-4.7-1.04-8.03s-1.33-7.28,3.85-6.67c5.19.61,8,2.73,8,2.73Z"/>
            <path class="cls-21" d="M80.01,102.98s4.79,2.95,5.61,3.52c.82.56,2.87.98,3.01,3.52.14,2.53,1.23,4.22-.55,5.91s-2.74,3.94-5.61,3.94-6.7,1.27-8.76.42c-2.05-.84-3.28-3.66-3.69-6.19-.41-2.53-.96-4.36-.96-7.45s-1.23-6.75,3.56-6.19c4.79.56,7.39,2.53,7.39,2.53Z"/>
            <path class="cls-4" d="M79.84,103.55s4.39,2.72,5.14,3.24c.75.52,2.64.91,2.76,3.24.13,2.33,1.13,3.89-.5,5.45-1.63,1.56-2.51,3.63-5.15,3.63s-6.15,1.17-8.03.39c-1.88-.78-3.01-3.37-3.39-5.71-.38-2.33-.88-4.02-.88-6.87s-1.13-6.22,3.26-5.71c4.39.52,6.78,2.33,6.78,2.33Z"/>
            <path class="cls-7" d="M79.67,104.12s4,2.49,4.68,2.97c.69.47,2.4.83,2.51,2.97.11,2.14,1.03,3.56-.46,4.99s-2.28,3.33-4.68,3.33-5.6,1.07-7.31.36c-1.71-.71-2.74-3.09-3.08-5.23-.34-2.14-.8-3.68-.8-6.29s-1.03-5.7,2.97-5.22c4,.47,6.17,2.14,6.17,2.14Z"/>
            <path class="cls-18" d="M79.5,104.68s3.6,2.26,4.22,2.7c.62.43,2.16.75,2.26,2.7.1,1.94.93,3.23-.41,4.53-1.34,1.29-2.06,3.02-4.22,3.02s-5.04.97-6.58.32c-1.54-.65-2.47-2.8-2.78-4.74-.31-1.94-.72-3.34-.72-5.71s-.93-5.18,2.67-4.74c3.6.43,5.56,1.94,5.56,1.94Z"/>
            <path class="cls-5" d="M79.33,105.25s3.2,2.03,3.75,2.42c.55.39,1.92.68,2.01,2.42.09,1.74.82,2.91-.37,4.07-1.19,1.16-1.83,2.71-3.75,2.71s-4.49.87-5.86.29c-1.37-.58-2.2-2.52-2.47-4.26-.28-1.74-.64-3-.64-5.13s-.82-4.65,2.38-4.26c3.2.39,4.95,1.74,4.95,1.74Z"/>
            <path class="cls-13" d="M79.16,105.82s2.81,1.8,3.29,2.15c.48.34,1.69.6,1.77,2.15s.72,2.58-.32,3.61c-1.04,1.03-1.61,2.41-3.29,2.41s-3.93.77-5.13.26c-1.2-.52-1.93-2.23-2.17-3.78s-.56-2.66-.56-4.55-.72-4.12,2.09-3.78c2.81.34,4.33,1.55,4.33,1.55Z"/>
          </g>
          <g>
            <path class="cls-15" d="M38.96,110.04c1.68,0,6.5,5,8,5.5s7.75,2,5.25,8.5-3,11-7.75,11.5-11.75-4.5-15.25-5.75-7.5-2-8.5-6.5-3-10,4-11,10.5-2.25,14.25-2.25Z"/>
            <path class="cls-3" d="M38.72,110.59c1.59,0,6.15,4.73,7.57,5.2,1.42.47,7.33,1.89,4.97,8.04-2.37,6.15-2.84,10.41-7.33,10.88-4.5.47-11.12-4.26-14.43-5.44-3.31-1.18-7.1-1.89-8.04-6.15s-2.84-9.46,3.79-10.41c6.62-.95,9.94-2.13,13.48-2.13Z"/>
            <path class="cls-19" d="M38.47,111.15c1.5,0,5.8,4.46,7.14,4.91,1.34.45,6.92,1.78,4.69,7.58-2.23,5.8-2.68,9.81-6.92,10.26-4.24.45-10.49-4.01-13.61-5.13-3.12-1.12-6.69-1.78-7.59-5.8-.89-4.01-2.68-8.92,3.57-9.81,6.25-.89,9.37-2.01,12.72-2.01Z"/>
            <path class="cls-14" d="M38.23,111.7c1.41,0,5.45,4.19,6.71,4.61,1.26.42,6.5,1.68,4.4,7.12-2.1,5.45-2.52,9.22-6.5,9.64-3.98.42-9.86-3.77-12.79-4.82-2.94-1.05-6.29-1.68-7.13-5.45-.84-3.77-2.52-8.38,3.36-9.22s8.81-1.88,11.95-1.88Z"/>
            <path class="cls-6" d="M37.99,112.26c1.32,0,5.1,3.92,6.28,4.31,1.18.39,6.09,1.57,4.12,6.66-1.96,5.1-2.36,8.62-6.09,9.01-3.73.39-9.23-3.53-11.97-4.51-2.75-.98-5.89-1.57-6.67-5.1-.79-3.53-2.36-7.84,3.14-8.62,5.5-.78,8.24-1.76,11.19-1.76Z"/>
            <path class="cls-16" d="M37.75,112.81c1.23,0,4.75,3.65,5.85,4.01,1.1.36,5.67,1.46,3.84,6.2-1.83,4.74-2.19,8.03-5.67,8.39-3.47.37-8.6-3.28-11.16-4.2-2.56-.91-5.49-1.46-6.22-4.74-.73-3.28-2.19-7.3,2.93-8.03,5.12-.73,7.68-1.64,10.42-1.64Z"/>
            <path class="cls-10" d="M37.51,113.36c1.14,0,4.41,3.38,5.42,3.72s5.25,1.35,3.56,5.74c-1.69,4.39-2.03,7.43-5.25,7.77-3.22.34-7.96-3.04-10.34-3.88-2.37-.84-5.08-1.35-5.76-4.39-.68-3.04-2.03-6.76,2.71-7.43,4.74-.68,7.12-1.52,9.66-1.52Z"/>
            <path class="cls-17" d="M37.27,113.92c1.05,0,4.06,3.11,4.99,3.42.94.31,4.84,1.24,3.28,5.29-1.56,4.04-1.87,6.84-4.84,7.15-2.96.31-7.33-2.8-9.52-3.58-2.18-.78-4.68-1.24-5.3-4.04-.62-2.8-1.87-6.22,2.5-6.84,4.37-.62,6.55-1.4,8.89-1.4Z"/>
            <path class="cls-2" d="M37.02,114.47c.96,0,3.71,2.84,4.56,3.12s4.42,1.14,2.99,4.83c-1.43,3.69-1.71,6.25-4.42,6.53-2.71.28-6.7-2.55-8.7-3.26-2-.71-4.28-1.13-4.85-3.69-.57-2.55-1.71-5.68,2.28-6.25,3.99-.57,5.99-1.28,8.13-1.28Z"/>
            <path class="cls-11" d="M36.78,115.03c.87,0,3.36,2.57,4.13,2.83.77.26,4,1.03,2.71,4.37-1.29,3.34-1.55,5.65-4,5.91-2.45.26-6.07-2.31-7.88-2.95-1.81-.64-3.88-1.03-4.39-3.34-.52-2.31-1.55-5.14,2.07-5.65,3.62-.51,5.43-1.16,7.36-1.16Z"/>
            <path class="cls-21" d="M36.54,115.58c.78,0,3.01,2.3,3.7,2.53.69.23,3.59.92,2.43,3.91-1.16,2.99-1.39,5.06-3.59,5.29-2.2.23-5.44-2.07-7.06-2.64-1.62-.57-3.47-.92-3.94-2.99-.46-2.07-1.39-4.6,1.85-5.06,3.24-.46,4.86-1.03,6.6-1.03Z"/>
            <path class="cls-4" d="M36.3,116.13c.69,0,2.66,2.03,3.27,2.23.61.2,3.17.81,2.15,3.45-1.02,2.64-1.23,4.46-3.17,4.66-1.94.2-4.81-1.83-6.24-2.33-1.43-.51-3.07-.81-3.48-2.64-.41-1.82-1.23-4.06,1.64-4.46,2.86-.41,4.3-.91,5.83-.91Z"/>
            <path class="cls-7" d="M36.06,116.69c.6,0,2.31,1.76,2.84,1.93.53.17,2.76.7,1.87,2.99-.89,2.29-1.07,3.87-2.76,4.04-1.69.17-4.18-1.58-5.42-2.02-1.24-.44-2.67-.7-3.02-2.29-.36-1.58-1.07-3.52,1.42-3.87,2.49-.35,3.73-.79,5.07-.79Z"/>
            <path class="cls-18" d="M35.82,117.24c.51,0,1.96,1.49,2.41,1.64.45.15,2.34.59,1.58,2.53-.75,1.93-.91,3.27-2.34,3.42-1.43.15-3.55-1.34-4.6-1.71-1.06-.37-2.26-.59-2.57-1.93-.3-1.34-.91-2.98,1.21-3.27,2.11-.3,3.17-.67,4.3-.67Z"/>
            <path class="cls-5" d="M35.57,117.8c.42,0,1.61,1.22,1.99,1.34.37.12,1.92.49,1.3,2.07-.62,1.58-.74,2.68-1.92,2.8-1.18.12-2.92-1.1-3.78-1.4-.87-.3-1.86-.49-2.11-1.58-.25-1.09-.74-2.43.99-2.68,1.74-.24,2.61-.55,3.54-.55Z"/>
            <path class="cls-13" d="M35.33,118.35c.33,0,1.26.95,1.56,1.04.29.09,1.51.38,1.02,1.61-.49,1.23-.58,2.08-1.51,2.18-.92.09-2.29-.85-2.97-1.09-.68-.24-1.46-.38-1.65-1.23-.19-.85-.58-1.89.78-2.08,1.36-.19,2.04-.43,2.77-.43Z"/>
          </g>
          <g>
            <path class="cls-15" d="M49.96,78.79l-1.5,4-2.75,5.5s-3.5,9,0,10.75,5.5,8,9.75-2.5,9.25-11.25,6-14.5-6.75-6-11.5-3.25Z"/>
            <path class="cls-3" d="M50.13,79.4l-1.43,3.79-2.61,5.21s-3.33,8.52,0,10.18c3.33,1.66,5.23,7.58,9.27-2.37,4.04-9.94,8.79-10.65,5.7-13.73-3.09-3.08-6.41-5.68-10.93-3.08Z"/>
            <path class="cls-19" d="M50.3,80l-1.35,3.58-2.48,4.92s-3.15,8.05,0,9.61c3.15,1.56,4.95,7.15,8.78-2.24,3.83-9.39,8.33-10.06,5.4-12.96-2.93-2.91-6.08-5.36-10.36-2.91Z"/>
            <path class="cls-14" d="M50.47,80.61l-1.28,3.36-2.34,4.63s-2.98,7.57,0,9.04c2.98,1.47,4.68,6.73,8.3-2.1,3.62-8.83,7.87-9.46,5.1-12.19-2.77-2.73-5.74-5.05-9.78-2.73Z"/>
            <path class="cls-6" d="M50.64,81.21l-1.2,3.15-2.2,4.33s-2.8,7.09,0,8.47c2.8,1.38,4.41,6.3,7.81-1.97,3.4-8.27,7.41-8.86,4.81-11.43-2.6-2.56-5.41-4.73-9.21-2.56Z"/>
            <path class="cls-16" d="M50.81,81.82l-1.13,2.94-2.07,4.04s-2.63,6.61,0,7.9c2.63,1.29,4.13,5.88,7.33-1.84,3.19-7.72,6.95-8.27,4.51-10.66-2.44-2.39-5.07-4.41-8.64-2.39Z"/>
            <path class="cls-10" d="M50.98,82.42l-1.05,2.73-1.93,3.75s-2.46,6.14,0,7.33c2.46,1.19,3.86,5.46,6.84-1.7,2.98-7.16,6.49-7.67,4.21-9.89-2.28-2.22-4.74-4.09-8.07-2.22Z"/>
            <path class="cls-17" d="M51.15,83.03l-.98,2.52-1.79,3.46s-2.28,5.66,0,6.76c2.28,1.1,3.58,5.03,6.36-1.57,2.77-6.6,6.03-7.08,3.91-9.12-2.12-2.04-4.4-3.77-7.5-2.04Z"/>
            <path class="cls-2" d="M51.32,83.63l-.9,2.3-1.66,3.17s-2.11,5.18,0,6.19c2.11,1.01,3.31,4.61,5.87-1.44,2.56-6.05,5.57-6.48,3.61-8.35-1.96-1.87-4.06-3.46-6.92-1.87Z"/>
            <path class="cls-11" d="M51.49,84.24l-.83,2.09-1.52,2.88s-1.93,4.71,0,5.62c1.93.92,3.04,4.18,5.39-1.31,2.35-5.49,5.11-5.88,3.31-7.58-1.8-1.7-3.73-3.14-6.35-1.7Z"/>
            <path class="cls-21" d="M51.66,84.84l-.75,1.88-1.38,2.58s-1.76,4.23,0,5.05c1.76.82,2.76,3.76,4.9-1.17,2.14-4.93,4.65-5.29,3.02-6.81-1.63-1.53-3.39-2.82-5.78-1.53Z"/>
            <path class="cls-4" d="M51.83,85.45l-.68,1.67-1.25,2.29s-1.58,3.75,0,4.48c1.59.73,2.49,3.34,4.42-1.04,1.92-4.38,4.19-4.69,2.72-6.04-1.47-1.36-3.06-2.5-5.21-1.36Z"/>
            <path class="cls-7" d="M52,86.05l-.6,1.46-1.11,2s-1.41,3.27,0,3.91c1.41.64,2.22,2.91,3.93-.91,1.71-3.82,3.73-4.09,2.42-5.28-1.31-1.18-2.72-2.18-4.64-1.18Z"/>
            <path class="cls-18" d="M52.17,86.66l-.53,1.24-.97,1.71s-1.24,2.8,0,3.34c1.24.54,1.94,2.49,3.45-.78,1.5-3.26,3.27-3.5,2.12-4.51-1.15-1.01-2.39-1.86-4.06-1.01Z"/>
            <path class="cls-5" d="M52.34,87.26l-.46,1.03-.83,1.42s-1.06,2.32,0,2.77c1.06.45,1.67,2.06,2.96-.64,1.29-2.71,2.81-2.9,1.82-3.74-.99-.84-2.05-1.55-3.49-.84Z"/>
            <path class="cls-13" d="M52.51,87.87l-.38.82-.7,1.13s-.89,1.84,0,2.2c.89.36,1.4,1.64,2.48-.51s2.35-2.3,1.52-2.97c-.83-.67-1.71-1.23-2.92-.67Z"/>
          </g>
          <g>
            <path class="cls-15" d="M22.71,71.04c1.25-.5,8.5.25,9.75,2s2.25,9.75,3,11.5,5,2.5,3,6.5-16.75,12.75-15.25,2.75c0,0-.5-5-1.25-5.75s-4.25-8.75-3.25-11.5,2.75-5,4-5.5Z"/>
            <path class="cls-3" d="M23,71.63c1.19-.48,8.07.24,9.25,1.91,1.19,1.67,2.14,9.28,2.85,10.95s4.74,2.38,2.85,6.19c-1.9,3.81-15.89,12.14-14.47,2.62,0,0-.47-4.76-1.19-5.48-.71-.71-4.03-8.33-3.08-10.95.95-2.62,2.61-4.76,3.8-5.24Z"/>
            <path class="cls-19" d="M23.3,72.21c1.12-.45,7.63.23,8.75,1.81,1.12,1.58,2.02,8.82,2.69,10.4.67,1.58,4.49,2.26,2.69,5.88-1.8,3.62-15.04,11.53-13.69,2.49,0,0-.45-4.52-1.12-5.2-.67-.68-3.82-7.91-2.92-10.4.9-2.49,2.47-4.52,3.59-4.97Z"/>
            <path class="cls-14" d="M23.59,72.8c1.06-.43,7.2.21,8.26,1.71,1.06,1.5,1.9,8.35,2.54,9.85.64,1.5,4.23,2.14,2.54,5.57-1.69,3.43-14.18,10.92-12.91,2.36,0,0-.42-4.28-1.06-4.93-.63-.64-3.6-7.5-2.75-9.85.85-2.36,2.33-4.28,3.39-4.71Z"/>
            <path class="cls-6" d="M23.88,73.38c.99-.4,6.76.2,7.76,1.62.99,1.41,1.79,7.89,2.39,9.3.6,1.42,3.98,2.02,2.39,5.26-1.59,3.24-13.33,10.31-12.13,2.22,0,0-.4-4.04-.99-4.65-.6-.61-3.38-7.08-2.59-9.3s2.19-4.04,3.18-4.45Z"/>
            <path class="cls-16" d="M24.18,73.97c.93-.38,6.33.19,7.26,1.52.93,1.33,1.68,7.42,2.23,8.75.56,1.33,3.72,1.9,2.23,4.95-1.49,3.04-12.47,9.7-11.35,2.09,0,0-.37-3.81-.93-4.38-.56-.57-3.16-6.66-2.42-8.75.74-2.09,2.05-3.8,2.98-4.19Z"/>
            <path class="cls-10" d="M24.47,74.55c.87-.36,5.89.18,6.76,1.43.87,1.25,1.56,6.96,2.08,8.2.52,1.25,3.47,1.78,2.08,4.64-1.39,2.85-11.61,9.09-10.57,1.96,0,0-.35-3.57-.87-4.1-.52-.53-2.95-6.24-2.25-8.2.69-1.96,1.91-3.57,2.77-3.92Z"/>
            <path class="cls-17" d="M24.77,75.14c.8-.33,5.46.17,6.26,1.33.8,1.17,1.45,6.49,1.93,7.65.48,1.17,3.21,1.66,1.93,4.33-1.28,2.66-10.76,8.48-9.79,1.83,0,0-.32-3.33-.8-3.83-.48-.5-2.73-5.82-2.09-7.65.64-1.83,1.77-3.33,2.57-3.66Z"/>
            <path class="cls-2" d="M25.06,75.72c.74-.31,5.02.16,5.76,1.24.74,1.08,1.33,6.02,1.77,7.11.44,1.08,2.96,1.54,1.77,4.01-1.18,2.47-9.9,7.88-9.01,1.7,0,0-.3-3.09-.74-3.55-.44-.46-2.51-5.41-1.92-7.1.59-1.7,1.63-3.09,2.36-3.4Z"/>
            <path class="cls-11" d="M25.35,76.31c.67-.28,4.59.14,5.26,1.14.68,1,1.22,5.56,1.62,6.56.41,1,2.7,1.42,1.62,3.71-1.08,2.28-9.04,7.27-8.24,1.57,0,0-.27-2.85-.67-3.28-.41-.43-2.3-4.99-1.75-6.55.54-1.57,1.48-2.85,2.16-3.14Z"/>
            <path class="cls-21" d="M25.65,76.89c.61-.26,4.16.13,4.77,1.05.61.91,1.1,5.09,1.47,6.01.37.91,2.44,1.3,1.47,3.39-.98,2.09-8.19,6.66-7.46,1.44,0,0-.24-2.61-.61-3-.37-.39-2.08-4.57-1.59-6,.49-1.44,1.34-2.61,1.96-2.87Z"/>
            <path class="cls-4" d="M25.94,77.48c.55-.24,3.72.12,4.27.95.55.83.99,4.63,1.31,5.46.33.83,2.19,1.19,1.31,3.08-.88,1.9-7.33,6.05-6.68,1.3,0,0-.22-2.37-.55-2.73-.33-.36-1.86-4.15-1.42-5.46.44-1.3,1.2-2.37,1.75-2.61Z"/>
            <path class="cls-7" d="M26.23,78.06c.48-.21,3.29.11,3.77.85.48.75.87,4.16,1.16,4.91.29.75,1.93,1.07,1.16,2.77-.77,1.71-6.48,5.44-5.9,1.17,0,0-.19-2.14-.48-2.45-.29-.32-1.64-3.73-1.26-4.91.39-1.17,1.06-2.13,1.55-2.35Z"/>
            <path class="cls-18" d="M26.53,78.65c.42-.19,2.85.1,3.27.76.42.66.76,3.7,1.01,4.36.25.66,1.68.95,1.01,2.46-.67,1.52-5.62,4.83-5.12,1.04,0,0-.17-1.9-.42-2.18-.25-.28-1.43-3.31-1.09-4.36.34-1.04.92-1.89,1.34-2.08Z"/>
            <path class="cls-5" d="M26.82,79.24c.36-.16,2.42.08,2.77.66.36.58.64,3.23.85,3.81.21.58,1.42.83.85,2.15-.57,1.32-4.76,4.22-4.34.91,0,0-.14-1.66-.35-1.91-.21-.25-1.21-2.9-.93-3.81.28-.91.78-1.66,1.14-1.82Z"/>
            <path class="cls-13" d="M27.12,79.82c.29-.14,1.98.07,2.27.57.29.5.53,2.76.7,3.26.18.5,1.17.71.7,1.84-.47,1.13-3.91,3.61-3.56.78,0,0-.12-1.42-.29-1.63-.18-.21-.99-2.48-.76-3.26s.64-1.42.93-1.56Z"/>
          </g>
          <g>
            <path class="cls-15" d="M-8.54,51.79s-4.75,8.25-5,11.25.75,6,1.5,6.75,3,2.25,5.25,2.5,12.25,3.25,16.5-1.25-2-8,6.75-7.75-1.25-12.25-7-16.5-18.25-7.75-18,5Z"/>
            <path class="cls-3" d="M-8.01,52.13s-4.52,7.84-4.76,10.69c-.24,2.85.71,5.7,1.43,6.41.71.71,2.85,2.14,5,2.38,2.14.24,11.66,3.09,15.7-1.19,4.04-4.28-1.9-7.6,6.42-7.37,8.33.24-1.19-11.64-6.66-15.68-5.47-4.04-17.36-7.37-17.13,4.75Z"/>
            <path class="cls-19" d="M-7.48,52.46s-4.29,7.43-4.52,10.13c-.23,2.7.68,5.4,1.36,6.08.68.68,2.71,2.03,4.74,2.25,2.03.23,11.06,2.93,14.9-1.13s-1.81-7.21,6.1-6.98c7.9.22-1.13-11.03-6.32-14.86s-16.48-6.98-16.25,4.5Z"/>
            <path class="cls-14" d="M-6.94,52.8s-4.06,7.02-4.27,9.57c-.21,2.55.64,5.11,1.28,5.75.64.64,2.56,1.92,4.49,2.13,1.92.21,10.47,2.77,14.1-1.06,3.63-3.83-1.71-6.81,5.77-6.6,7.48.21-1.07-10.43-5.98-14.04-4.91-3.62-15.59-6.6-15.38,4.26Z"/>
            <path class="cls-6" d="M-6.41,53.13s-3.83,6.61-4.03,9.02c-.2,2.4.6,4.81,1.21,5.41.6.6,2.42,1.8,4.23,2,1.81.2,9.87,2.6,13.3-1,3.43-3.61-1.61-6.41,5.44-6.21,7.05.2-1.01-9.82-5.64-13.22-4.64-3.41-14.71-6.21-14.51,4.01Z"/>
            <path class="cls-16" d="M-5.88,53.47s-3.6,6.2-3.79,8.46c-.19,2.26.57,4.51,1.14,5.08.57.56,2.27,1.69,3.98,1.88,1.7.19,9.28,2.44,12.5-.94,3.22-3.38-1.52-6.02,5.11-5.83,6.63.19-.95-9.21-5.3-12.41-4.36-3.2-13.83-5.83-13.64,3.76Z"/>
            <path class="cls-10" d="M-5.34,53.8s-3.37,5.79-3.55,7.9c-.18,2.11.53,4.21,1.06,4.74.53.53,2.13,1.58,3.72,1.76,1.6.17,8.69,2.28,11.7-.88,3.01-3.16-1.42-5.62,4.79-5.44,6.2.17-.89-8.6-4.96-11.59-4.08-2.99-12.94-5.44-12.76,3.51Z"/>
            <path class="cls-17" d="M-4.81,54.14s-3.14,5.38-3.3,7.34c-.17,1.96.5,3.92.99,4.41.5.49,1.98,1.47,3.47,1.63,1.49.16,8.09,2.12,10.9-.82,2.81-2.94-1.32-5.22,4.46-5.06,5.78.16-.83-8-4.62-10.77-3.8-2.77-12.06-5.06-11.89,3.26Z"/>
            <path class="cls-2" d="M-4.28,54.47s-2.91,4.98-3.06,6.79c-.15,1.81.46,3.62.92,4.07.46.45,1.84,1.36,3.21,1.51,1.38.15,7.5,1.96,10.1-.75,2.6-2.71-1.22-4.83,4.13-4.67,5.36.15-.77-7.39-4.28-9.95-3.52-2.56-11.17-4.67-11.02,3.01Z"/>
            <path class="cls-11" d="M-3.74,54.81s-2.68,4.57-2.82,6.23c-.14,1.66.42,3.32.85,3.74.42.42,1.69,1.25,2.96,1.38,1.27.14,6.9,1.8,9.3-.69,2.4-2.49-1.13-4.43,3.8-4.29,4.93.14-.7-6.78-3.94-9.13-3.24-2.35-10.29-4.29-10.15,2.77Z"/>
            <path class="cls-21" d="M-3.21,55.14s-2.45,4.16-2.58,5.67c-.13,1.51.39,3.02.77,3.4.39.38,1.55,1.13,2.71,1.26,1.16.12,6.31,1.64,8.5-.63,2.19-2.27-1.03-4.03,3.48-3.91,4.51.12-.64-6.17-3.61-8.31-2.96-2.14-9.4-3.91-9.27,2.52Z"/>
            <path class="cls-4" d="M-2.68,55.48s-2.22,3.75-2.33,5.11c-.12,1.36.35,2.73.7,3.07.35.34,1.4,1.02,2.45,1.14,1.05.11,5.72,1.47,7.7-.57,1.98-2.04-.93-3.63,3.15-3.52,4.08.11-.58-5.57-3.27-7.5-2.68-1.93-8.52-3.52-8.4,2.27Z"/>
            <path class="cls-7" d="M-2.14,55.81s-1.99,3.34-2.09,4.55c-.11,1.21.31,2.43.63,2.73.31.3,1.25.91,2.2,1.01.94.1,5.12,1.31,6.9-.51,1.78-1.82-.84-3.24,2.82-3.14,3.66.1-.52-4.96-2.93-6.68-2.4-1.72-7.63-3.14-7.53,2.02Z"/>
            <path class="cls-18" d="M-1.61,56.14s-1.76,2.93-1.85,4c-.09,1.07.28,2.13.55,2.4.28.27,1.11.8,1.94.89.83.09,4.53,1.15,6.1-.44,1.57-1.6-.74-2.84,2.5-2.75,3.24.09-.46-4.35-2.59-5.86-2.13-1.51-6.75-2.75-6.65,1.77Z"/>
            <path class="cls-5" d="M-1.08,56.48s-1.53,2.52-1.61,3.44c-.08.92.24,1.83.48,2.06.24.23.96.69,1.69.76.72.08,3.94.99,5.3-.38,1.37-1.38-.64-2.44,2.17-2.37,2.81.08-.4-3.74-2.25-5.04-1.85-1.3-5.86-2.37-5.78,1.53Z"/>
            <path class="cls-13" d="M-.54,56.81s-1.3,2.11-1.36,2.88c-.07.77.2,1.54.41,1.73.21.19.82.58,1.43.64.61.06,3.34.83,4.5-.32,1.16-1.15-.54-2.05,1.84-1.98,2.39.06-.34-3.13-1.91-4.22-1.57-1.09-4.98-1.98-4.91,1.28Z"/>
          </g>
          <g>
            <path class="cls-15" d="M-7.79,89.29s10-7.25,13.75-3.5,8,4.75,6.75,14.25-6,11.5-8.25,14.75-4.5,6.5-7.5,6-7.5,1-11.25-3.5-1.5-10.5,1.75-16,1.75-13.5,4.75-12Z"/>
            <path class="cls-3" d="M-7.52,89.92s9.56-6.91,13.14-3.34c3.58,3.57,7.65,4.53,6.45,13.58-1.19,9.05-5.73,10.96-7.89,14.06-2.15,3.1-4.3,6.2-7.17,5.72-2.87-.48-7.17.95-10.75-3.34-3.58-4.29-1.43-10.01,1.67-15.25,3.11-5.24,1.67-12.87,4.54-11.44Z"/>
            <path class="cls-19" d="M-7.24,90.55s9.12-6.57,12.54-3.17c3.42,3.4,7.29,4.31,6.15,12.92-1.14,8.61-5.47,10.42-7.52,13.37-2.05,2.95-4.1,5.89-6.84,5.44-2.74-.45-6.84.91-10.26-3.17-3.42-4.08-1.37-9.52,1.6-14.5,2.96-4.99,1.6-12.24,4.33-10.88Z"/>
            <path class="cls-14" d="M-6.96,91.19s8.67-6.23,11.93-3.01c3.25,3.22,6.94,4.08,5.86,12.25-1.08,8.17-5.21,9.89-7.16,12.68-1.95,2.79-3.9,5.59-6.51,5.16-2.6-.43-6.51.86-9.76-3.01-3.25-3.87-1.3-9.03,1.52-13.75,2.82-4.73,1.52-11.6,4.12-10.32Z"/>
            <path class="cls-6" d="M-6.69,91.82s8.23-5.89,11.32-2.84c3.09,3.05,6.59,3.86,5.56,11.58-1.03,7.72-4.94,9.35-6.79,11.99-1.85,2.64-3.71,5.28-6.18,4.88-2.47-.41-6.18.81-9.26-2.84-3.09-3.66-1.23-8.53,1.44-13s1.44-10.97,3.91-9.75Z"/>
            <path class="cls-16" d="M-6.41,92.45s7.79-5.55,10.71-2.68c2.92,2.87,6.23,3.64,5.26,10.92-.97,7.28-4.68,8.81-6.43,11.3-1.75,2.49-3.51,4.98-5.84,4.6-2.34-.38-5.84.77-8.77-2.68-2.92-3.45-1.17-8.04,1.36-12.26,2.53-4.21,1.36-10.34,3.7-9.19Z"/>
            <path class="cls-10" d="M-6.14,93.08s7.35-5.21,10.11-2.52c2.76,2.7,5.88,3.42,4.96,10.25-.92,6.83-4.41,8.27-6.06,10.61-1.65,2.34-3.31,4.67-5.51,4.32-2.21-.36-5.51.72-8.27-2.52-2.76-3.24-1.1-7.55,1.29-11.51,2.39-3.96,1.29-9.71,3.49-8.63Z"/>
            <path class="cls-17" d="M-5.86,93.71s6.91-4.87,9.5-2.35c2.59,2.52,5.53,3.19,4.66,9.58-.86,6.39-4.15,7.73-5.7,9.92-1.55,2.19-3.11,4.37-5.18,4.04-2.07-.34-5.18.67-7.77-2.35-2.59-3.02-1.04-7.06,1.21-10.76,2.25-3.7,1.21-9.08,3.28-8.07Z"/>
            <path class="cls-2" d="M-5.58,94.34s6.47-4.54,8.89-2.19c2.43,2.35,5.17,2.97,4.37,8.92-.81,5.94-3.88,7.19-5.34,9.23-1.46,2.03-2.91,4.07-4.85,3.75-1.94-.31-4.85.62-7.28-2.19-2.42-2.81-.97-6.57,1.13-10.01,2.1-3.44,1.13-8.45,3.07-7.51Z"/>
            <path class="cls-11" d="M-5.31,94.98s6.03-4.2,8.29-2.03c2.26,2.17,4.82,2.75,4.07,8.25-.75,5.5-3.62,6.66-4.97,8.54-1.36,1.88-2.71,3.76-4.52,3.47-1.81-.29-4.52.58-6.78-2.03-2.26-2.6-.9-6.08,1.05-9.26,1.96-3.18,1.05-7.81,2.86-6.95Z"/>
            <path class="cls-21" d="M-5.03,95.61s5.58-3.86,7.68-1.86c2.09,1.99,4.47,2.53,3.77,7.58-.7,5.05-3.35,6.12-4.61,7.85-1.26,1.73-2.51,3.46-4.19,3.19-1.68-.27-4.19.53-6.28-1.86-2.09-2.39-.84-5.59.98-8.51,1.81-2.93.98-7.18,2.65-6.38Z"/>
            <path class="cls-4" d="M-4.76,96.24s5.14-3.52,7.07-1.7c1.93,1.82,4.11,2.31,3.47,6.91-.64,4.61-3.09,5.58-4.24,7.16-1.16,1.58-2.31,3.15-3.86,2.91-1.54-.24-3.86.48-5.79-1.7-1.93-2.18-.77-5.09.9-7.76,1.67-2.67.9-6.55,2.44-5.82Z"/>
            <path class="cls-7" d="M-4.48,96.87s4.7-3.18,6.46-1.53c1.76,1.64,3.76,2.08,3.17,6.25-.59,4.17-2.82,5.04-3.88,6.47s-2.12,2.85-3.53,2.63c-1.41-.22-3.53.44-5.29-1.54-1.76-1.97-.7-4.6.82-7.02,1.53-2.41.82-5.92,2.23-5.26Z"/>
            <path class="cls-18" d="M-4.2,97.5s4.26-2.84,5.86-1.37c1.6,1.47,3.41,1.86,2.88,5.58-.53,3.72-2.56,4.5-3.51,5.78-.96,1.27-1.92,2.55-3.19,2.35-1.28-.2-3.19.39-4.79-1.37-1.6-1.76-.64-4.11.75-6.27,1.38-2.15.75-5.29,2.02-4.7Z"/>
            <path class="cls-5" d="M-3.93,98.14s3.82-2.5,5.25-1.21c1.43,1.29,3.05,1.64,2.58,4.92-.48,3.28-2.29,3.97-3.15,5.09-.86,1.12-1.72,2.24-2.86,2.07-1.15-.17-2.86.34-4.3-1.21-1.43-1.55-.57-3.62.67-5.52,1.24-1.9.67-4.66,1.81-4.14Z"/>
            <path class="cls-13" d="M-3.65,98.77s3.38-2.16,4.64-1.04,2.7,1.42,2.28,4.25c-.42,2.83-2.03,3.43-2.79,4.4-.76.97-1.52,1.94-2.53,1.79-1.01-.15-2.53.3-3.8-1.04-1.27-1.34-.51-3.13.59-4.77,1.1-1.64.59-4.02,1.6-3.58Z"/>
          </g>
        </g>
        <g>
          <path class="cls-9" d="M69.26,14.32s.25,7.84,4.29,11.64c4.05,3.8,8.2,9.64,6.16,13.33-2.04,3.69-5.51-.33-7.83-2.46-2.32-2.12.22-3.01-4.19-4.84-4.41-1.83,0-7.07-2.59-11.66-1.28-2.27-6.02-.43-7.04,1.41-1.02,1.85-1.68,5.45-.2,8.44,1.48,2.99-2.99,5.21-4.6,2.88-1.6-2.33-5.65-6.13-4.12-8.9,1.53-2.77,3.82-11.5,7.87-11.43,4.05.07,8.06-3.26,12.25,1.58Z"/>
          <path class="cls-9" d="M60.84,36.04s-.16,2.68,4.05,3.8c4.2,1.11,7.39.35,8.32.86.92.51,6.92,4.38,3.76,6.85-3.17,2.47-9,1.34-13.02-.76-4.02-2.1-4.55-2.87-5.77-5.47-1.22-2.6-2.65-11.34,2.67-5.27Z"/>
        </g>
        <path class="cls-9" d="M17.34,108.47c-3.42,2-6.49,7.17-6.49,7.17,0,0-1.3,5.9,3.03,10.12,4.32,4.22,4.76,7.59,10.38,7.59s9.51,5.9,13.84,5.48c4.32-.42,8.21.42,9.94-5.48,1.73-5.9-5.62-8.85-9.51-5.48-3.89,3.37-4.32,1.26-8.65,0-4.32-1.27-9.08-6.32-8.21-8.85.87-2.53,5.62-7.17,9.51-5.9,3.89,1.26,6.92,5.06,12.54,5.06s1.3,10.96,9.08,6.32c7.78-4.64,4.69-8.53.37-11.48-4.32-2.95-.94-3.94-10.45-6.47-9.51-2.53-8.02-4.56-17.59-4.4-2.2.04-5.62,5.06-7.78,6.32Z"/>
        <path class="cls-9" d="M17.34-15.91c-3.42,2-6.49,7.17-6.49,7.17,0,0-1.3,5.9,3.03,10.12,4.32,4.21,4.76,7.59,10.38,7.59s9.51,5.9,13.84,5.48c4.32-.42,8.21.42,9.94-5.48,1.73-5.9-5.62-8.85-9.51-5.48-3.89,3.37-4.32,1.26-8.65,0-4.32-1.26-9.08-6.32-8.21-8.85.87-2.53,5.62-7.17,9.51-5.9,3.89,1.26,6.92,5.06,12.54,5.06s1.3,10.96,9.08,6.32c7.78-4.64,4.69-8.53.37-11.48-4.32-2.95-4.54-.5-14.06-3.03-9.51-2.53-4.41-7.99-13.98-7.83-2.2.04-5.62,5.06-7.78,6.32Z"/>
        <g>
          <path class="cls-9" d="M34.46,54.04c-3.07.68-4.92-2.91-8.25-5.5-3.33-2.59-8.12-6.6-9.19-11.57-1.07-4.97-.05-8.86,2.59-9.34,2.64-.48,5.84-2.53,4.62.93-1.22,3.46-2.13,7.03.79,8.76,2.92,1.74,9.19,5.01,11.68,6.96,2.5,1.94-2.25,9.76-2.25,9.76Z"/>
          <path class="cls-9" d="M39.58,43.17s4.25-2.03,1.37-5.88c-2.88-3.85-2.18-1.83-5.56-7.27-3.38-5.44-4.71-7.67-7.36-7.2-2.64.48-7.75,2.92-8.12-.04-.37-2.96-.92-7.4,3.83-7.84,4.75-.44,11.61,5.16,11.61,5.16,0,0,7.49-.18,9.69,6.6,2.2,6.79,1.4,10.04.62,12.24-.78,2.2-.13,7.38-6.09,4.21Z"/>
        </g>
        <g>
          <path class="cls-9" d="M64.29,61.83c2.11,2.85-.73,7.57-4.46,9.09-3.73,1.52-7.42,4.45-8.44,1.65-1.02-2.8-3-6.04,2.14-7.61,5.14-1.56,7.33-7.75,10.76-3.13Z"/>
          <path class="cls-9" d="M64.31,57.36c.76-2.98-2.57-7.47-5.19-8.58s-7.24-5.93-11.38-2.04c-4.13,3.89-5.47,6.76-4.23,8.84,1.24,2.09,1.96,2.77,5.66-.16,3.69-2.93,8.16-3.3,8.95-.25.79,3.04,5.34,5.51,6.19,2.18Z"/>
          <path class="cls-9" d="M48.56,72.65c-.29,2.22-6.11.64-9.27-2.8-3.16-3.45-9.35-6.66-7.08-9.55,2.28-2.89,5.75-4.08,7.39-4.37,1.64-.28,3.61,2.49,2.95,4.16-.66,1.67,6.99,5.22,6.01,12.56Z"/>
        </g>
        <g>
          <path class="cls-9" d="M75.74,61.89c-.61-1.69-1.89-5.5-.37-7,1.53-1.49,7.73-6.47,10.51-5.41,2.79,1.06,5.84-1.92,8.92,2.12,3.08,4.05,7.03,6.67,7.26,12.34.23,5.67,5.57,8.82,8.33,12.9,2.75,4.08.56,8.99-4.31,7.13-4.87-1.86-3.35-6.7-8.66-12.87-5.31-6.17-5.57-8.82-9.29-9.12-3.71-.3-3.88-1.96-7.06-.3-3.18,1.66-4.41,2.79-5.34.2Z"/>
          <path class="cls-9" d="M69.47,62.85c-1.52,1.86-3.91,7.76-2.75,12.67,1.16,4.91.96,6.27,6.96,9.35,6,3.08,14.53,7.93,18.08,6.57,3.55-1.36,9.12.76,8.76-2.88-.36-3.65-3.98-6.3-8.03-6.57-4.05-.26-8.26-2.19-10.45-7.33-2.19-5.14-9.88-15.09-12.57-11.81Z"/>
        </g>
        <g>
          <path class="cls-9" d="M85.57,41.06c-3-3.43-4.11-5.19-2.33-7.28,1.79-2.09-2.85-8.74-5.34-13.88-2.49-5.13,3.6-7.78,7.3-10.49,3.2-2.34,10.68.34,14.39.82,3.71.48,2.51,4.71,7.11,7.55,4.59,2.84,2.67,4.19-1.25,4.75-3.93.56-7.68-2.67-12.38-4.99-4.7-2.32-3.04,2.92-2.8,7.05.25,4.13,2.39,5.66,1.49,8.74-.9,3.08,1.21,5.51,3.85,5.14,2.38-.33,4.8,2.44,6.84.81,2.03-1.63,13.75-1,5,8.5-6.39,6.94-19.35-3.83-21.89-6.73Z"/>
          <path class="cls-9" d="M107.44,25.11s6.31-1.73,6.06,3.81c-.25,5.54,1.83,7.8-1.56,8.61-3.39.81-7.29-1.94-4.95-5.22,2.34-3.28-1.86-5.86.45-7.2Z"/>
        </g>
        <g>
          <path class="cls-9" d="M136.5,85.24c-1.91-2.89-3.42-4.25-5.63-4.01-2.22.23-7.64-1.2-8.32,3.91-.68,5.1,5.01,2.14,6.99,5.93,1.97,3.79,12.01,1.83,6.96-5.82Z"/>
          <path class="cls-9" d="M139.84,96.83c4.34,3.38-2.13,10.89-5.62,13.99-3.49,3.1-2.88,11.21-8.05,11.64-5.17.42-8.14.98-7.53-3.03.61-4,9.07-4.23,9.29-7.89.22-3.66-3.63-6.83-.89-9.61,2.74-2.77,6.13-10.28,12.8-5.1Z"/>
          <path class="cls-9" d="M119.38,82.74s-5.86-.36-8.34,4.27c-2.48,4.63-4.61,3.39-4.99,9.62-.37,6.22-6.01,14.33-.76,18.69,5.25,4.36,9.62,4.99,9.43,2.04-.19-2.95-2.86-1.28-3.7-5.73-.83-4.46,1.15-6.91,2.71-8.29,1.55-1.38,8.41-5.37,7.51-8.73-.9-3.36,1.09-5.81-1.85-11.87Z"/>
        </g>
        <g>
          <path class="cls-9" d="M12.04,85.24c-1.91-2.89-3.42-4.25-5.64-4.01-2.22.23-7.64-1.2-8.32,3.91-.68,5.1,5.01,2.14,6.99,5.93,1.97,3.79,12.01,1.83,6.96-5.82Z"/>
          <path class="cls-9" d="M15.38,96.83c4.34,3.38-2.13,10.89-5.62,13.99-3.49,3.1-2.88,11.21-8.05,11.64-5.17.42-8.14.98-7.53-3.03.61-4,9.07-4.23,9.29-7.89.22-3.66-3.63-6.83-.89-9.61,2.74-2.77,6.13-10.28,12.8-5.1Z"/>
          <path class="cls-9" d="M-5.07,82.74s-5.86-.36-8.34,4.27c-2.48,4.63-4.61,3.39-4.99,9.62-.38,6.22-6.01,14.33-.76,18.69,5.25,4.36,9.62,4.99,9.43,2.04-.19-2.95-2.86-1.28-3.69-5.73-.83-4.46,1.15-6.91,2.7-8.29,1.55-1.38,8.41-5.37,7.51-8.73-.9-3.36,1.09-5.81-1.85-11.87Z"/>
        </g>
        <g>
          <path class="cls-9" d="M-13.58,57.25s-2.68,4.48-2.63,6.42c.05,1.94-.61,7.11,1.87,7.9,2.48.79,6.7,6.79,8.95,5.36,2.25-1.43,5.42,1.68,7.11.61,1.69-1.08,3.67-7.88-.19-8.97-3.86-1.1-9.12,3.05-10.92.24-1.79-2.81,8.63-6.3-4.2-11.55Z"/>
          <path class="cls-9" d="M7.38,75.74c5.89-5.09,3.79-8.66,8.02-9.8,3.31-.89,11.15-3.19,10.31-6.89-.84-3.71-4.53-11.21-11.99-14.73-7.46-3.52-8.42-6.03-14.26-5.21-5.84.82-12.6,9.07-11.75,12.78.84,3.71,2.95,5.86,5.25,5.16,2.3-.7-1.38-11.47,5.14-12.59,6.52-1.12,5.78,5.64,9.86,7.09,15.5,5.5-3.32,8.6-3.93,11.98-.61,3.38,4.62,1.2,3.35,12.22Z"/>
        </g>
        <g>
          <path class="cls-9" d="M110.84,57.25s-2.68,4.48-2.63,6.42c.05,1.94-.61,7.11,1.87,7.9,2.48.79,6.71,6.79,8.95,5.36,2.25-1.43,5.42,1.68,7.11.61,1.69-1.08,3.67-7.88-.19-8.97-3.86-1.1-9.12,3.05-10.92.24-1.79-2.81,8.63-6.3-4.2-11.55Z"/>
          <path class="cls-9" d="M131.79,75.74c5.89-5.09,3.79-8.66,8.02-9.8,3.31-.89,11.15-3.19,10.31-6.89-.85-3.71-4.54-11.21-11.99-14.73-7.46-3.52-8.42-6.03-14.26-5.21-5.84.82-12.6,9.07-11.75,12.78.85,3.71,2.96,5.86,5.25,5.16,2.3-.7-1.38-11.47,5.14-12.59,6.52-1.12,5.78,5.64,9.86,7.09,15.5,5.5-3.32,8.6-3.93,11.98-.61,3.38,4.62,1.2,3.35,12.22Z"/>
        </g>
        <path class="cls-9" d="M64.21,91.04c-4.47,4.02-10.67,12.61-6.33,16.61,4.33,4-.17,19.39,5.5,22.39,5.67,3,8.5,2.94,15.5,1.94,7-1,10.33,2.67,15.33-4.67s9.33-9.33,6-16c-3.33-6.67-5-14.33-9.33-12.33s-6,7.33,1.67,9c6.49,1.41-4.58,11.06-7.58,12.06s-10.58,4-13.58,2.33c-3-1.67-4.17-4.67-5.17-10.33-1-5.67-5.17-11.17,1.5-15.5,2.53-1.64,12.5,6.44,14.83,4.11s7-3,2.33-5.33-4.67-5.67-9.33-4.33c-4.67,1.33-8-2.94-11.33.06Z"/>
        <path class="cls-9" d="M64.21-33.33c-4.47,4.02-10.67,12.6-6.33,16.6,4.33,4-.17,19.4,5.5,22.4,5.67,3,8.5,2.94,15.5,1.94,7-1,10.33,2.67,15.33-4.67,5-7.33,9.33-9.33,6-16-3.33-6.67-5-14.33-9.33-12.33s-6,7.33,1.67,9c6.49,1.41-4.58,11.06-7.58,12.06s-10.58,4-13.58,2.33c-3-1.67-4.17-4.67-5.17-10.33-1-5.67-5.17-11.17,1.5-15.5,2.53-1.65,12.5,6.44,14.83,4.1,2.33-2.33,7-3,2.33-5.33-4.67-2.33-4.67-5.67-9.33-4.33-4.67,1.33-8-2.94-11.33.06Z"/>
        <g>
          <path class="cls-9" d="M25.18,95.54c-2.92.89-5.75-.82-6.06-5.67-.31-4.84-1.49-2.12-2.45-5.73-.96-3.61-4.32-6.22-2.26-9.45,2.05-3.22,3.92-8.99,11.54-7.67,7.62,1.31,11.59,3.48,10.94,8.36-.65,4.88,1.88,6.18,1.11,8.76-.77,2.57-3.56,5.76-5.28-.73-1.72-6.49-5.85-10.17-8.28-10.21-2.43-.04-4.81,1.98-3.56,7.58,1.24,5.6,11.04,12.71,4.31,14.76Z"/>
          <path class="cls-9" d="M22.07,96.71s5.44.83,6.99-1.17,3.42-3.33,6.22-4.17c2.8-.83,2.49-7,3.58-4.67,1.09,2.33,1.86,4.17.78,5.17s-.47,6.67-4.97,6c-4.51-.67-9.64,6.17-12.59-1.17Z"/>
        </g>
        <g>
          <path class="cls-9" d="M47.71,91.04c1.92-.74,2.5-9,5.17-10.5,3.25-1.83,5,2,5.33,4.83.33,2.83-5,3.83-4.83,4.83.17,1,.33,6-.5,7.67-.83,1.67-1,3,.33,3.67,1.33.67,3-1.17,3.17-3.17.17-2,1.17-4.67,2-6,.83-1.33,2.83-2,5-3.5,2.17-1.5.5-7.83.5-7.83,0,0-2.67-2.67-5.67-3.83-3-1.17-10.17-.67-10.17-.67-4.67,4.83.64,5.93-3.33,9.33-1.17,1,.83,6,3,5.17Z"/>
          <path class="cls-9" d="M44.71,91.21s1,2.17,2.67,2.33c1.67.17,1.83,1.33,2,3,.17,1.67,2.83,4.33,1.67,5.5-1.17,1.17-1.67,3.83-4.17,2.17-2.5-1.67-4.17-3.67-3.67-5.33s-2.83-7.17,1.5-7.67Z"/>
        </g>
        <g>
          <path class="cls-9" d="M134.49,12.31c1.16,1.47,5.16,1.55,5.65,0,.49-1.55-.25-8.37-5.65-7.75-5.4.62-5.4-3.1-7.37-2.79-1.96.31-5.4-1.24-8.35,0-2.83,1.19-12.2,2.86-10.73,6.27,1.47,3.41,8.03,6.44,10.98,3.96,2.95-2.48,5.89-10.23,10.31-4.34,2.35,3.13,2.95,1.86,5.16,4.65Z"/>
          <path class="cls-9" d="M111.98,15.75c-3.1-.27,3.1,7.29,5.06,9.14,1.96,1.86,4.1,1.11,3.93-.93-.17-2.04-1.33-7.55-8.99-8.21Z"/>
          <path class="cls-9" d="M121.97,32.46c1.46,3.7,4.42,4.03,7.86,1.86,3.44-2.17,3.69.93,6.88-2.79,3.19-3.72,3.68-15.19,0-12.4-3.68,2.79-3.19,8.68-5.4,8.99-2.21.31-12.53-3.72-9.33,4.34Z"/>
        </g>
        <g>
          <path class="cls-9" d="M10.08,12.31c1.16,1.47,5.16,1.55,5.65,0,.49-1.55-.25-8.37-5.65-7.75-5.4.62-5.4-3.1-7.37-2.79-1.96.31-5.4-1.24-8.35,0-2.83,1.19-12.21,2.86-10.73,6.27,1.47,3.41,8.03,6.44,10.98,3.96C-2.45,9.52.5,1.77,4.92,7.66c2.35,3.13,2.95,1.86,5.16,4.65Z"/>
          <path class="cls-9" d="M-12.44,15.75c-3.1-.27,3.1,7.29,5.06,9.14,1.96,1.86,4.1,1.11,3.93-.93-.17-2.04-1.33-7.55-8.99-8.21Z"/>
          <path class="cls-9" d="M-2.45,32.46c1.47,3.7,4.42,4.03,7.86,1.86,3.44-2.17,3.68.93,6.88-2.79,3.19-3.72,3.68-15.19,0-12.4-3.68,2.79-3.19,8.68-5.4,8.99-2.21.31-12.53-3.72-9.33,4.34Z"/>
        </g>
        <path class="cls-20" d="M127.12,20.06c1.43.15-.85-6.8-2.76-4.95-1.91,1.85-.19,4.64,2.76,4.95Z"/>
        <path class="cls-20" d="M2.71,20.06c1.43.15-.85-6.8-2.76-4.95-1.91,1.85-.19,4.64,2.76,4.95Z"/>
        <path class="cls-9" d="M98.37,27.37c-.5-.17-.5,1.67-.17,2.5.33.83,1.5.83,2.17.83s1,.67,2.33.33c1.33-.33-1.33-2.67-4.33-3.67Z"/>
        <path class="cls-20" d="M85.71,69.29s1.75,4.25,3.25,4.25,1.75,1.5,3.25.75-6-7.5-6.5-5Z"/>
        <path class="cls-20" d="M75.21,107.79c-1.32-.75-.75,4,.25,4.75s1.75,2.5,4.25.5c2.5-2,5-5,1-5.5-4-.5.25,3.5-5.5.25Z"/>
        <path class="cls-20" d="M27.46,81.04c-.93,1.4,1.9,5.14.5,4.5-1.4-.64-3.16-4.78-2-5.25s2,0,1.5.75Z"/>
        <path class="cls-20" d="M28.96,31.29c-1.26,1.24,1.75,5.25,2.5,5.75s2.5,1.25,3.25.5-.75-2.5-2-3.25-1.58-5.13-3.75-3Z"/>
      </g>
    </pattern>
  </defs>
  <g id="_レイヤー_1-2" data-name="レイヤー 1">
    <path class="cls-8" d="M13.96,24.84c-.11-.09-.08-.18-.34-.16.26-1.17-1.08-1.69-.62-2.91-1.53-.17-5.09-.79-5.39-2.1-2.66-.74-1.46-2.46-2.24-3.93-.94-.16-.69-.92-.93-1.54-1.79.01-1.39-1.44-1.88-2.38-.27-.53-.7-.69-.88-1.3-.18-.59.01-1.34-.03-1.94-1.45-.14-.27-2.84-1.48-3.67.9-.67,1.48-1.37,1.67-2.22-1.76-.04-.18-1.83-1.83-2.13l125.46-.56v24.7l-111.84-.02"/>
  </g>
</svg>