<?xml version="1.0" encoding="UTF-8"?>
<svg id="_レイヤー_2" data-name="レイヤー 2" xmlns="http://www.w3.org/2000/svg" xmlns:xlink="http://www.w3.org/1999/xlink" viewBox="0 0 126.21 24.42">
  <defs>
    <style>
      .cls-1 {
        fill: none;
      }

      .cls-2 {
        fill: #e95644;
      }

      .cls-3 {
        fill: #231815;
      }

      .cls-4 {
        fill: url(#_ハイダ_矢_カラー);
        opacity: .74;
      }

      .cls-5 {
        fill: #f3e6c9;
      }
    </style>
    <pattern id="_ハイダ_矢_カラー" data-name="ハイダ (矢) カラー" x="0" y="0" width="76.05" height="77.4" patternTransform="translate(-10.16 424.05)" patternUnits="userSpaceOnUse" viewBox="0 0 76.05 77.4">
      <g>
        <rect class="cls-1" x="0" y="0" width="76.05" height="77.4"/>
        <rect class="cls-2" x="0" y="0" width="76.05" height="77.4"/>
        <rect class="cls-5" x="0" y="76.5" width="76.05" height=".9"/>
        <polygon class="cls-3" points="52.28 51.98 45.45 58.05 52.28 64.12 62.86 64.12 56.02 58.05 62.86 51.98 52.28 51.98"/>
        <polygon class="cls-3" points="68.62 58.05 75.46 64.12 76.05 64.12 76.05 51.98 75.46 51.98 68.62 58.05"/>
        <polygon class="cls-3" points="37.43 51.98 30.6 58.05 37.43 64.12 45.45 64.12 45.45 58.05 45.45 51.98 37.43 51.98"/>
        <polygon class="cls-3" points="75.46 66.38 68.62 72.45 56.02 72.45 62.86 66.38 52.28 66.38 45.45 72.45 45.45 66.38 37.43 66.38 30.6 72.45 18 72.45 24.83 66.38 14.26 66.38 7.42 72.45 7.42 66.38 0 66.38 0 74.7 76.05 74.7 76.05 66.38 75.46 66.38"/>
        <polygon class="cls-3" points="14.26 51.98 7.42 58.05 14.26 64.12 24.83 64.12 18 58.05 24.83 51.98 14.26 51.98"/>
        <polygon class="cls-3" points="0 51.98 0 64.12 7.42 64.12 7.42 58.05 7.42 51.98 0 51.98"/>
        <polygon class="cls-3" points="0 41.4 0 49.73 7.42 49.73 7.42 43.65 14.26 49.73 24.83 49.73 18 43.65 30.6 43.65 37.43 49.73 45.45 49.73 45.45 43.65 52.28 49.73 62.86 49.73 56.02 43.65 68.62 43.65 75.46 49.73 76.05 49.73 76.05 41.4 0 41.4"/>
        <polygon class="cls-3" points="76.05 25.43 76.05 13.28 69.3 13.28 69.3 19.35 69.3 25.43 76.05 25.43"/>
        <polygon class="cls-3" points="51.89 13.28 58.72 19.35 51.89 25.43 62.46 25.43 69.3 19.35 62.46 13.28 51.89 13.28"/>
        <polygon class="cls-3" points="13.86 13.28 20.7 19.35 13.86 25.43 24.44 25.43 31.27 19.35 24.44 13.28 13.86 13.28"/>
        <polygon class="cls-3" points="0 13.28 0 25.43 1.27 25.43 8.1 19.35 1.27 13.28 0 13.28"/>
        <polygon class="cls-3" points="39.29 25.43 46.12 19.35 39.29 13.28 31.27 13.28 31.27 19.35 31.27 25.43 39.29 25.43"/>
        <polygon class="cls-3" points="76.05 36 76.05 27.68 69.3 27.68 69.3 33.75 62.46 27.68 51.89 27.68 58.72 33.75 46.12 33.75 39.29 27.68 31.27 27.68 31.27 33.75 24.44 27.68 13.86 27.68 20.7 33.75 8.1 33.75 1.27 27.68 0 27.68 0 36 76.05 36"/>
        <rect class="cls-5" x="0" y="37.8" width="76.05" height="1.8"/>
        <rect class="cls-5" y="0" width="76.05" height=".9"/>
        <polygon class="cls-3" points="0 2.7 0 11.03 1.27 11.03 8.1 4.95 20.7 4.95 13.86 11.03 24.44 11.03 31.27 4.95 31.27 11.03 39.29 11.03 46.12 4.95 58.72 4.95 51.89 11.03 62.46 11.03 69.3 4.95 69.3 11.03 76.05 11.03 76.05 2.7 0 2.7"/>
      </g>
    </pattern>
  </defs>
  <g id="_レイヤー_1-2" data-name="レイヤー 1">
    <path class="cls-4" d="M126.21,24.42c-.96-.42-.51-1.03-.59-1.15-.08-.12-.27-.69-.34-.82-.1-.18-.82-.23-.9-.42-.5-1.18.96-1.95-1.87-2.55.2-.29.33-.72.69-.97-.72-.4-.65-.75.18-1,.25-2-1.19-1.7-2.6-2.92.75-.42,1.31-1.02.74-1.8-.94-.12-.58-.39-.68-.97-.01-.08.28-1.3.34-1.58.29-1.41.87-1.24,1.92-2.21.21-.19.49-1,.5-1.15,0-.1.25-.44.2-.71-.05-.26-.84-.31-.87-.45-.22-.84.56-1.96.79-2.79-.12-.03-.32,0-.46-.01-.27-.7,1.5-2.69,2.02-2.93H0v11.09c1.4-.59,2.21.7.59,1.15-.07.61.21,1.13.87,1.4-.45.73.22.82.41,1.38.54,1.57.57.82,2.79,1.73-.42,1.25-1.92.72-3.33,1.11-.08,1.15-.32,1.9,1.08,2.37,1.13.37,3-.2,4.2,0,1.16.19,1.95.99,3.25.87.93,1.18,2.04,2.15,3.17,3.34h113.18Z"/>
  </g>
</svg>