<?xml version="1.0" encoding="UTF-8"?>
<svg id="_レイヤー_2" data-name="レイヤー 2" xmlns="http://www.w3.org/2000/svg" xmlns:xlink="http://www.w3.org/1999/xlink" viewBox="0 0 120.42 24.42">
  <defs>
    <style>
      .cls-1, .cls-2 {
        fill: none;
      }

      .cls-2 {
        stroke: #231815;
        stroke-linecap: round;
        stroke-linejoin: round;
        stroke-width: .5px;
      }

      .cls-3 {
        fill: #231815;
      }

      .cls-4 {
        fill: url(#_花);
        opacity: .75;
      }
    </style>
    <pattern id="_花" data-name="花" x="0" y="0" width="44" height="29" patternTransform="translate(-568.93 285.91)" patternUnits="userSpaceOnUse" viewBox="0 0 44 29">
      <g>
        <rect class="cls-1" width="44" height="29"/>
        <path class="cls-3" d="M1.75-.26c3.02-.67,5.7-.85,5.7.26S4.77.93,1.75.26c.03-.16.03-.36,0-.52Z"/>
        <path class="cls-3" d="M.31,1.69C.97,4.5,1.14,6.36.03,6.36S-.91,4.5-.25,1.68c.22,0,.33,0,.55,0Z"/>
        <path class="cls-3" d="M42.31.26c-3.02.67-5.7.85-5.7-.26s2.68-.93,5.7-.26c-.03.16-.03.36,0,.52Z"/>
        <path class="cls-3" d="M44.31,1.69c.66,2.82.83,4.67-.28,4.67s-.94-1.86-.27-4.68c.22,0,.33,0,.55,0Z"/>
        <path class="cls-3" d="M.27,27.31c.66-2.82.83-4.67-.27-4.67s-.94,1.86-.28,4.68c.22,0,.33,0,.55,0Z"/>
        <path class="cls-3" d="M1.75,28.74c3.02-.67,5.7-.85,5.7.26s-2.68.93-5.7.26c.03-.16.03-.36,0-.52Z"/>
        <path class="cls-3" d="M44.27,27.31c.66-2.82.83-4.67-.27-4.67s-.94,1.86-.28,4.68c.22,0,.33,0,.55,0Z"/>
        <path class="cls-3" d="M42.31,29.26c-3.02.67-5.7.85-5.7-.26s2.68-.93,5.7-.26c-.03.16-.03.36,0,.52Z"/>
        <path class="cls-3" d="M22.27,12.81c.66-2.82.83-4.67-.27-4.67s-.94,1.86-.28,4.68c.22,0,.33,0,.55,0Z"/>
        <path class="cls-3" d="M20.31,14.76c-3.02.67-5.7.85-5.7-.26s2.68-.93,5.7-.26c-.03.16-.03.36,0,.52Z"/>
        <path class="cls-3" d="M23.75,14.24c3.02-.67,5.7-.85,5.7.26s-2.68.93-5.7.26c.03-.16.03-.36,0-.52Z"/>
        <path class="cls-3" d="M22.31,16.19c.66,2.82.83,4.67-.28,4.67s-.94-1.86-.27-4.68c.22,0,.33,0,.55,0Z"/>
        <path class="cls-2" d="M-1.72,0C-1.72-2.28,1.72-2.28,1.72,0S-1.72,2.28-1.72,0Z"/>
        <path class="cls-2" d="M42.28,0c0-2.28,3.44-2.28,3.44,0s-3.44,2.28-3.44,0Z"/>
        <path class="cls-2" d="M-1.72,29c0-2.28,3.44-2.28,3.44,0s-3.44,2.28-3.44,0Z"/>
        <path class="cls-2" d="M42.28,29c0-2.28,3.44-2.28,3.44,0s-3.44,2.28-3.44,0Z"/>
        <path class="cls-2" d="M20.28,14.5c0-2.28,3.44-2.28,3.44,0s-3.44,2.28-3.44,0Z"/>
        <path class="cls-2" d="M-2.71,10.22c.05,2.02,1.02,3.21,2.74,3.21s2.68-1.19,2.74-3.21c3.38.77,5.69-2.26,3.17-4.57C4.62,4.44,3.15,3.47.79,1.57c-.51.2-1.01.25-1.52,0"/>
        <path class="cls-2" d="M13.41-2.47c3.06-.51,5.66.69,5.66,2.47s-2.6,2.98-5.66,2.47c.58,2.09-2.58,3.87-6.05,1.72-1.9-1.18-2.66-1.6-5.77-3.48.2-.46.25-.91,0-1.41"/>
        <path class="cls-2" d="M42.43-.7c-.2.46-.25.91,0,1.41-3.11,1.88-3.86,2.31-5.77,3.48-3.47,2.15-6.62.38-6.05-1.72-3.06.51-5.66-.69-5.66-2.47s2.6-2.98,5.66-2.47"/>
        <path class="cls-2" d="M44.79,1.57c-.51.2-1.01.25-1.52,0-2.36,1.9-3.83,2.88-5.15,4.08-2.52,2.31-.21,5.34,3.17,4.57.05,2.02,1.02,3.21,2.74,3.21s2.68-1.19,2.74-3.21"/>
        <path class="cls-2" d="M-.76,27.43c.51-.2,1.02-.25,1.52,0,2.36-1.9,3.83-2.88,5.15-4.08,2.52-2.31.21-5.34-3.17-4.57-.05-2.02-1.02-3.21-2.74-3.21s-2.68,1.19-2.74,3.21"/>
        <path class="cls-2" d="M1.59,29.7c.2-.46.25-.91,0-1.41,3.11-1.88,3.87-2.3,5.77-3.48,3.47-2.15,6.62-.38,6.05,1.72,3.06-.51,5.66.69,5.66,2.47s-2.6,2.98-5.66,2.47"/>
        <path class="cls-2" d="M46.74,18.78c-.05-2.02-1.02-3.21-2.74-3.21s-2.68,1.19-2.74,3.21c-3.38-.77-5.69,2.26-3.17,4.57,1.31,1.21,2.78,2.18,5.14,4.08.51-.2,1.02-.25,1.52,0"/>
        <path class="cls-2" d="M30.62,31.47c-3.06.51-5.66-.69-5.66-2.47s2.6-2.98,5.66-2.47c-.57-2.09,2.58-3.87,6.05-1.72,1.9,1.18,2.66,1.6,5.77,3.48-.2.46-.25.91,0,1.41"/>
        <path class="cls-2" d="M22.76,12.93c2.36-1.9,3.83-2.88,5.15-4.08,2.52-2.31.21-5.34-3.17-4.57-.05-2.02-1.02-3.21-2.74-3.21s-2.68,1.19-2.74,3.21c-3.38-.77-5.69,2.26-3.17,4.57,1.31,1.21,2.78,2.18,5.14,4.08.51-.2,1.02-.25,1.52,0Z"/>
        <path class="cls-2" d="M20.43,15.21c-3.11,1.88-3.86,2.31-5.77,3.48-3.47,2.15-6.62.38-6.05-1.72-3.06.51-5.66-.69-5.66-2.47s2.6-2.98,5.66-2.47c-.57-2.09,2.58-3.87,6.05-1.72,1.9,1.18,2.66,1.6,5.77,3.48-.2.46-.25.91,0,1.41Z"/>
        <path class="cls-2" d="M21.27,16.07c-2.36,1.9-3.83,2.88-5.15,4.08-2.52,2.31-.21,5.34,3.17,4.57.05,2.02,1.02,3.21,2.74,3.21s2.68-1.19,2.74-3.21c3.38.77,5.69-2.26,3.17-4.57-1.31-1.21-2.78-2.18-5.15-4.08-.51.2-1.01.25-1.52,0Z"/>
        <path class="cls-2" d="M23.59,13.79c3.11-1.88,3.87-2.3,5.77-3.48,3.47-2.15,6.62-.38,6.05,1.72,3.06-.51,5.66.69,5.66,2.47s-2.6,2.98-5.66,2.47c.58,2.09-2.58,3.87-6.05,1.72-1.9-1.18-2.66-1.6-5.77-3.48.2-.46.25-.91,0-1.41Z"/>
      </g>
    </pattern>
  </defs>
  <g id="_レイヤー_1-2" data-name="レイヤー 1">
    <path class="cls-4" d="M0,24.42c.92-.42.48-1.03.56-1.15.08-.12.26-.7.33-.82.09-.18.78-.23.86-.42.47-1.18-.92-1.95,1.78-2.55-.19-.29-.31-.72-.66-.96.69-.4.62-.75-.17-1-.24-2,1.13-1.7,2.48-2.92-.72-.42-1.25-1.02-.7-1.8.89-.12.56-.39.64-.97.01-.07-.27-1.3-.32-1.58-.28-1.41-.83-1.24-1.83-2.21-.2-.19-.46-1.01-.48-1.15,0-.1-.24-.44-.19-.71.05-.26.8-.3.83-.45.21-.84-.54-1.96-.76-2.79.12-.03.31,0,.44,0C3.08,2.22,1.38.23.89,0h119.54v11.09c-1.34-.59-2.11.7-.56,1.15.07.61-.21,1.13-.83,1.4.43.73-.21.82-.39,1.38-.52,1.57-.54.81-2.66,1.72.4,1.25,1.83.72,3.18,1.11.07,1.15.31,1.9-1.04,2.36-1.08.37-2.87-.2-4.01,0-1.1.19-1.86.98-3.1.86-.89,1.18-1.95,2.15-3.02,3.35H0Z"/>
  </g>
</svg>