<?xml version="1.0" encoding="UTF-8"?>
<svg id="_レイヤー_2" data-name="レイヤー 2" xmlns="http://www.w3.org/2000/svg" xmlns:xlink="http://www.w3.org/1999/xlink" viewBox="0 0 121.31 24.45">
  <defs>
    <style>
      .cls-1, .cls-2, .cls-3, .cls-4 {
        fill: none;
      }

      .cls-5 {
        fill: #e9989b;
      }

      .cls-2 {
        stroke-width: 2.5px;
      }

      .cls-2, .cls-3 {
        stroke: #d73664;
      }

      .cls-2, .cls-3, .cls-4 {
        stroke-linecap: round;
      }

      .cls-3 {
        stroke-width: 2.7px;
      }

      .cls-6 {
        fill: url(#_ハス_四角形_カラー);
        opacity: .74;
      }

      .cls-7 {
        fill: #f9ddda;
      }

      .cls-4 {
        stroke: #e0727e;
        stroke-width: 2px;
      }
    </style>
    <pattern id="_ハス_四角形_カラー" data-name="ハス (四角形) カラー" x="0" y="0" width="42.5" height="42.5" patternTransform="translate(-289.55 363.96)" patternUnits="userSpaceOnUse" viewBox="0 0 42.5 42.5">
      <g>
        <rect class="cls-1" width="42.5" height="42.5"/>
        <rect class="cls-5" width="42.5" height="42.5"/>
        <line class="cls-4" x1="3.38" y1="24.61" x2="17.53" y2="38.75"/>
        <line class="cls-4" x1="38.95" y1="24.82" x2="24.81" y2="38.96"/>
        <line class="cls-4" x1="17.67" y1="3.54" x2="3.52" y2="17.68"/>
        <line class="cls-4" x1="24.63" y1="3.36" x2="38.78" y2="17.5"/>
        <path class="cls-7" d="M21.25,14.94c1.5,0,1.64.66,2.75,1.7,2.19-1.93-.33-6.3-2.75-7.38-2.42,1.08-4.94,5.45-2.75,7.38,1.11-1.04,1.25-1.7,2.75-1.7Z"/>
        <path class="cls-7" d="M14.94,21.25c0-1.5.66-1.64,1.7-2.75-1.93-2.19-6.3.33-7.38,2.75,1.08,2.42,5.45,4.94,7.38,2.75-1.04-1.11-1.7-1.25-1.7-2.75Z"/>
        <path class="cls-7" d="M21.25,27.56c-1.5,0-1.64-.66-2.75-1.7-2.19,1.93.33,6.3,2.75,7.38,2.42-1.08,4.94-5.46,2.75-7.38-1.11,1.04-1.25,1.7-2.75,1.7Z"/>
        <path class="cls-7" d="M27.56,21.25c0,1.5-.66,1.64-1.7,2.75,1.93,2.19,6.3-.32,7.38-2.75-1.08-2.42-5.45-4.94-7.38-2.75,1.04,1.11,1.7,1.25,1.7,2.75Z"/>
        <path class="cls-7" d="M-.25,36.44c1.5,0,1.64.66,2.75,1.7,2.19-1.93-.33-6.3-2.75-7.38-2.42,1.08-4.94,5.45-2.75,7.38,1.11-1.04,1.25-1.7,2.75-1.7Z"/>
        <path class="cls-7" d="M6.06,42.75c0,1.5-.66,1.64-1.7,2.75,1.93,2.19,6.3-.32,7.38-2.75-1.08-2.42-5.45-4.94-7.38-2.75,1.04,1.11,1.7,1.25,1.7,2.75Z"/>
        <path class="cls-7" d="M-.25,6.06c1.5,0,1.64-.66,2.75-1.7,2.19,1.93-.33,6.3-2.75,7.38-2.42-1.08-4.94-5.45-2.75-7.38,1.11,1.04,1.25,1.7,2.75,1.7Z"/>
        <path class="cls-7" d="M6.06-.25c0-1.5-.66-1.64-1.7-2.75,1.93-2.19,6.3.32,7.38,2.75-1.08,2.42-5.45,4.94-7.38,2.75,1.04-1.11,1.7-1.25,1.7-2.75Z"/>
        <path class="cls-7" d="M42.75,36.44c-1.5,0-1.64.66-2.75,1.7-2.19-1.93.32-6.3,2.75-7.38,2.42,1.08,4.94,5.45,2.75,7.38-1.11-1.04-1.25-1.7-2.75-1.7Z"/>
        <path class="cls-7" d="M36.44,42.75c0,1.5.66,1.64,1.7,2.75-1.93,2.19-6.3-.32-7.38-2.75,1.08-2.42,5.45-4.94,7.38-2.75-1.04,1.11-1.7,1.25-1.7,2.75Z"/>
        <path class="cls-7" d="M42.75,6.06c-1.5,0-1.64-.66-2.75-1.7-2.19,1.93.32,6.3,2.75,7.38,2.42-1.08,4.94-5.45,2.75-7.38-1.11,1.04-1.25,1.7-2.75,1.7Z"/>
        <path class="cls-7" d="M36.44-.25c0-1.5.66-1.64,1.7-2.75-1.93-2.19-6.3.32-7.38,2.75,1.08,2.42,5.45,4.94,7.38,2.75-1.04-1.11-1.7-1.25-1.7-2.75Z"/>
        <line class="cls-3" x1="21.25" y1="21.25" x2="21.25" y2="21.25"/>
        <line class="cls-2"/>
        <line class="cls-2" x1="42.5" x2="42.5"/>
        <line class="cls-2" y1="42.5" y2="42.5"/>
        <line class="cls-2" x1="42.5" y1="42.5" x2="42.5" y2="42.5"/>
        <line class="cls-3" x1="21.25" y1="42.44" x2="21.25" y2="42.44"/>
        <line class="cls-3" x1="21.25" y1="-.06" x2="21.25" y2="-.06"/>
        <line class="cls-3" y1="21.19" y2="21.19"/>
        <line class="cls-3" x1="42.5" y1="21.19" x2="42.5" y2="21.19"/>
      </g>
    </pattern>
  </defs>
  <g id="_レイヤー_1-2" data-name="レイヤー 1">
    <path class="cls-6" d="M108.33.03H0c.87,1.57.91,3.48,2.52,4.88.55.48.95.11,1.4.74-.05-.07.03,1.14.03,1.22.06,1.01,0,1.76-.33,2.71,1.32.14.19,1.34.33,1.99.16.74,1.38,1.51,1.71,2.24.89,1.99-.59,3.11-2.96,3.22-1.05,1.37,3.01,2.64-.55,3.38.79.33,2.07.78,1.73,1.76-.75.46-1.82.79-2.47,1.29.31.44-.05.47-.34.84l120.25.14c-.41-1.01,0-2.2-.13-3.2-.12-1-.58-2.09-.58-3.12,0-.56.21-.78.18-1.29-.03-.5-.36-.94-.35-1.51,0-1.09.64-2.05,0-3.09-.63-1.03-2.34-2.17-3.53-2.82-.97-.52-2.67-.77-2.88-1.93-.18-.96,1.25-2.02.87-3.09-.1-.27-.92-1.01-1.16-1.29-.64-.73-1.22-1.41-2.35-1.83-.62-.23-1.25-.33-1.79-.55-.7-.28-.65-.88-2.12-.71"/>
  </g>
</svg>