<?xml version="1.0" encoding="UTF-8"?>
<svg id="_レイヤー_2" data-name="レイヤー 2" xmlns="http://www.w3.org/2000/svg" xmlns:xlink="http://www.w3.org/1999/xlink" viewBox="0 0 119.71 24.84">
  <defs>
    <style>
      .cls-1, .cls-2 {
        fill: none;
      }

      .cls-3 {
        fill: url(#_6_lpi_10_);
      }

      .cls-4 {
        opacity: .61;
      }

      .cls-2 {
        stroke: #231815;
        stroke-width: 1.2px;
      }

      .cls-5 {
        fill: #e7d35d;
      }
    </style>
    <pattern id="_6_lpi_10_" data-name="6 lpi 10 %" x="0" y="0" width="72" height="72" patternTransform="translate(-429.38 289.22)" patternUnits="userSpaceOnUse" viewBox="0 0 72 72">
      <g>
        <rect class="cls-1" width="72" height="72"/>
        <line class="cls-2" x1="-.25" y1="66" x2="72.25" y2="66"/>
        <line class="cls-2" x1="-.25" y1="42" x2="72.25" y2="42"/>
        <line class="cls-2" x1="-.25" y1="18" x2="72.25" y2="18"/>
        <line class="cls-2" x1="-24" y1="18" x2="-7.5" y2="18"/>
        <line class="cls-2" x1="-.25" y1="54" x2="72.25" y2="54"/>
        <line class="cls-2" x1="-.25" y1="30" x2="72.25" y2="30"/>
        <line class="cls-2" x1="-.25" y1="6" x2="72.25" y2="6"/>
        <line class="cls-2" x1="-24" y1="6" x2="-7.5" y2="6"/>
      </g>
    </pattern>
  </defs>
  <g id="_レイヤー_1-2" data-name="レイヤー 1">
    <g class="cls-4">
      <path class="cls-5" d="M13.32,24.84c-.11-.09-.08-.18-.33-.16.24-1.17-1.02-1.69-.59-2.91-1.46-.17-4.86-.79-5.15-2.1-2.54-.74-1.39-2.46-2.14-3.93-.9-.16-.66-.92-.89-1.54-1.71.01-1.33-1.44-1.79-2.38-.26-.53-.67-.69-.85-1.3-.17-.59.02-1.34-.03-1.95-1.38-.14-.25-2.85-1.42-3.67.86-.67,1.41-1.37,1.59-2.22-1.68-.03-.18-1.83-1.75-2.13l119.71-.56v24.7l-106.72-.02"/>
      <path class="cls-3" d="M13.32,24.84c-.11-.09-.08-.18-.33-.16.24-1.17-1.02-1.69-.59-2.91-1.46-.17-4.86-.79-5.15-2.1-2.54-.74-1.39-2.46-2.14-3.93-.9-.16-.66-.92-.89-1.54-1.71.01-1.33-1.44-1.79-2.38-.26-.53-.67-.69-.85-1.3-.17-.59.02-1.34-.03-1.95-1.38-.14-.25-2.85-1.42-3.67.86-.67,1.41-1.37,1.59-2.22-1.68-.03-.18-1.83-1.75-2.13l119.71-.56v24.7l-106.72-.02"/>
    </g>
  </g>
</svg>