<?xml version="1.0" encoding="UTF-8"?>
<svg id="_レイヤー_2" data-name="レイヤー 2" xmlns="http://www.w3.org/2000/svg" xmlns:xlink="http://www.w3.org/1999/xlink" viewBox="0 0 117.76 24.14">
  <defs>
    <style>
      .cls-1 {
        fill: none;
      }

      .cls-2 {
        fill: #231815;
      }

      .cls-3 {
        fill: url(#_コンゴ_ストライプ_カラー);
        opacity: .82;
      }

      .cls-4 {
        fill: #d7bd89;
      }
    </style>
    <pattern id="_コンゴ_ストライプ_カラー" data-name="コンゴ (ストライプ) カラー" x="0" y="0" width="53.6" height="70.4" patternTransform="translate(-153.7 479.04)" patternUnits="userSpaceOnUse" viewBox="0 0 53.6 70.4">
      <g>
        <rect class="cls-1" x="0" y="0" width="53.6" height="70.4"/>
        <rect class="cls-4" x="0" y="0" width="53.6" height="70.4"/>
        <polygon class="cls-2" points="2.21 46.25 2.11 38.56 3.5 45.33 7.5 45.33 7.41 38.56 8.8 45.33 12.8 45.33 12.71 38.56 14.1 45.33 18.1 45.33 18 38.56 19.4 45.33 23.4 45.33 23.31 38.56 25 46.73 22.3 46.62 22.4 53.39 21 46.63 16.93 46.5 17.02 53.27 15.62 46.51 11.45 46.4 11.55 53.17 10.15 46.41 6 46.28 6.1 53.05 4.7 46.28 2.21 46.25"/>
        <polygon class="cls-2" points="2.21 11.05 2.11 3.36 3.5 10.13 7.5 10.13 7.41 3.36 8.8 10.13 12.8 10.13 12.71 3.36 14.1 10.13 18.1 10.13 18 3.36 19.4 10.13 23.4 10.13 23.31 3.36 25 11.53 22.3 11.42 22.4 18.19 21 11.43 16.93 11.3 17.02 18.07 15.62 11.31 11.45 11.2 11.55 17.97 10.15 11.2 6 11.08 6.1 17.85 4.7 11.08 2.21 11.05"/>
        <path class="cls-2" d="M53.6,0v70.4h-26.9V0h26.9ZM51.7,58.77l-2.7.1.1-6.77-1.4,6.76-4.08.12.1-6.77-1.4,6.76-4.17.1.1-6.77-1.4,6.77-4.15.13.1-6.77-1.4,6.77-2.49.03-.11,7.69,1.4-6.77h4s-.1,6.77-.1,6.77l1.4-6.77h4s-.1,6.77-.1,6.77l1.4-6.77h4s-.1,6.77-.1,6.77l1.4-6.77h4s-.1,6.77-.1,6.77l1.7-8.17ZM51.7,23.57l-2.7.1.1-6.77-1.4,6.77-4.08.12.1-6.77-1.4,6.77-4.17.1.1-6.77-1.4,6.77-4.15.13.1-6.77-1.4,6.77-2.49.03-.11,7.69,1.4-6.76h4s-.1,6.76-.1,6.76l1.4-6.76h4s-.1,6.76-.1,6.76l1.4-6.76h4s-.1,6.76-.1,6.76l1.4-6.76h4s-.1,6.76-.1,6.76l1.7-8.17Z"/>
        <polygon class="cls-1" points="49.1 52.11 47.7 58.87 43.62 59 43.72 52.23 42.33 58.99 38.15 59.1 38.25 52.33 36.85 59.09 32.7 59.22 32.8 52.45 31.4 59.22 28.91 59.25 28.8 66.94 30.2 60.17 34.2 60.17 34.1 66.94 35.5 60.17 39.5 60.17 39.4 66.94 40.8 60.17 44.8 60.17 44.71 66.94 46.1 60.17 50.1 60.17 50 66.94 51.7 58.77 49 58.88 49.1 52.11"/>
        <polygon class="cls-1" points="49.1 16.91 47.7 23.67 43.62 23.8 43.72 17.03 42.33 23.79 38.15 23.9 38.25 17.13 36.85 23.89 32.7 24.02 32.8 17.25 31.4 24.02 28.91 24.05 28.8 31.74 30.2 24.97 34.2 24.97 34.1 31.74 35.5 24.97 39.5 24.97 39.4 31.74 40.8 24.97 44.8 24.97 44.71 31.74 46.1 24.97 50.1 24.97 50 31.74 51.7 23.57 49 23.68 49.1 16.91"/>
      </g>
    </pattern>
  </defs>
  <g id="_レイヤー_1-2" data-name="レイヤー 1">
    <path class="cls-3" d="M0,23.86c1.16-1.2.17-1.98,2.61-2.25-.12-.03-.31,0-.45-.02-.23-1.21.19-2.34,1.59-2.64-.16-.08-.37-.34-.7-.45-.03-.6.52-1.04,1.19-1.27-.26-.46-.87-.75-1.42-.95.44-.47.91-.89,1.61-1.01-.13-.18-.38-.63-.55-.79-1.36-.43-.25-1.35.18-1.83-.11,0-.21.01-.3.06-.31-1.37,1.02-2.5.48-3.71-.05-.03-.32-.15-.36-.17,1.53-1.22,2.94-3.57,3.07-5.31.46-.06.53-.3,1.01-.33-.18-.98,1-1.35.94-2.34.16-.03.32,0,.48-.04.11-.28.32-.54.39-.82l107.99.28c-.1.51-.61.87-1.22,1.16.91,1.02-.26,1.78-.74,2.62-.77,1.33-.37,2.01-.16,3.24.07.41-.43.47-.15,1.11.2.47,1.2.95,1.35,1.29.38.9-.46,3.02-1.14,3.6,1.22.4.26,4.26.28,5.21.02.73.5,1.36.33,1.99-.08.28-1.02-.04-1.06.4-.03.26.38.51.38.57,0,.59.55,1.8,1.39,2.14-.04.04-.14.15-.12.21.11.08.28.21.33.32L0,23.86Z"/>
  </g>
</svg>