<?xml version="1.0" encoding="UTF-8"?>
<svg id="_レイヤー_2" data-name="レイヤー 2" xmlns="http://www.w3.org/2000/svg" xmlns:xlink="http://www.w3.org/1999/xlink" viewBox="0 0 127.69 24.84">
  <defs>
    <style>
      .cls-1, .cls-2 {
        fill: none;
      }

      .cls-3 {
        fill: url(#_緩やかな波_カラー_);
        opacity: .73;
      }

      .cls-2 {
        stroke: #7dc3ce;
        stroke-linecap: square;
        stroke-width: 1.5px;
      }

      .cls-4 {
        fill: #23adbb;
      }
    </style>
    <pattern id="_緩やかな波_カラー_" data-name="緩やかな波 (カラー)" x="0" y="0" width="109.12" height="25.8" patternTransform="translate(-704.42 501.09)" patternUnits="userSpaceOnUse" viewBox="0 0 109.12 25.8">
      <g>
        <rect class="cls-1" y="0" width="109.12" height="25.8"/>
        <rect class="cls-4" y="0" width="109.12" height="25.8"/>
        <path class="cls-2" d="M109.12,19.09c-6.18,0-10.82-1.31-13.64-2.13-2.82-.82-7.47-2.13-13.64-2.13s-10.82,1.31-13.64,2.13c-2.82.82-7.47,2.13-13.64,2.13s-10.82-1.31-13.64-2.13c-2.82-.82-7.47-2.13-13.64-2.13s-10.82,1.31-13.64,2.13c-2.82.82-7.47,2.13-13.64,2.13"/>
        <path class="cls-2" d="M109.12,23.39c-6.18,0-10.82-1.31-13.64-2.13-2.82-.82-7.47-2.13-13.64-2.13s-10.82,1.3-13.64,2.13c-2.82.82-7.47,2.13-13.64,2.13s-10.82-1.31-13.64-2.13c-2.82-.82-7.47-2.13-13.64-2.13s-10.82,1.3-13.64,2.13c-2.82.82-7.47,2.13-13.64,2.13"/>
        <path class="cls-2" d="M109.12,27.69c-6.18,0-10.82-1.3-13.64-2.13-2.82-.82-7.47-2.13-13.64-2.13s-10.82,1.3-13.64,2.13c-2.82.82-7.47,2.13-13.64,2.13s-10.82-1.3-13.64-2.13c-2.82-.82-7.47-2.13-13.64-2.13s-10.82,1.3-13.64,2.13c-2.82.82-7.47,2.13-13.64,2.13"/>
        <path class="cls-2" d="M109.12,1.89c-6.18,0-10.82-1.31-13.64-2.13-2.82-.82-7.47-2.13-13.64-2.13s-10.82,1.3-13.64,2.13c-2.82.82-7.47,2.13-13.64,2.13S43.74.58,40.92-.24c-2.82-.82-7.47-2.13-13.64-2.13S16.46-1.06,13.64-.24C10.82.58,6.17,1.89,0,1.89"/>
        <path class="cls-2" d="M109.12,6.19c-6.18,0-10.82-1.3-13.64-2.13-2.82-.82-7.47-2.13-13.64-2.13s-10.82,1.3-13.64,2.13c-2.82.82-7.47,2.13-13.64,2.13s-10.82-1.3-13.64-2.13c-2.82-.82-7.47-2.13-13.64-2.13s-10.82,1.3-13.64,2.13c-2.82.82-7.47,2.13-13.64,2.13"/>
        <path class="cls-2" d="M109.12,10.49c-6.18,0-10.82-1.3-13.64-2.13-2.82-.82-7.47-2.13-13.64-2.13s-10.82,1.3-13.64,2.13c-2.82.82-7.47,2.13-13.64,2.13s-10.82-1.3-13.64-2.13c-2.82-.82-7.47-2.13-13.64-2.13s-10.82,1.3-13.64,2.13c-2.82.82-7.47,2.13-13.64,2.13"/>
        <path class="cls-2" d="M109.12,14.79c-6.18,0-10.82-1.3-13.64-2.13-2.82-.82-7.47-2.13-13.64-2.13s-10.82,1.31-13.64,2.13c-2.82.82-7.47,2.13-13.64,2.13s-10.82-1.3-13.64-2.13c-2.82-.82-7.47-2.13-13.64-2.13s-10.82,1.31-13.64,2.13c-2.82.82-7.47,2.13-13.64,2.13"/>
      </g>
    </pattern>
  </defs>
  <g id="_レイヤー_1-2" data-name="レイヤー 1">
    <path class="cls-3" d="M14.21,24.84c-.12-.09-.08-.18-.35-.16.26-1.17-1.09-1.69-.63-2.91-1.56-.17-5.18-.79-5.49-2.1-2.71-.74-1.48-2.46-2.28-3.93-.96-.16-.71-.92-.95-1.54-1.83,0-1.41-1.44-1.91-2.38-.28-.53-.72-.69-.9-1.29-.18-.6.01-1.34-.03-1.95-1.47-.14-.27-2.84-1.51-3.67.91-.67,1.5-1.37,1.7-2.22-1.79-.03-.19-1.83-1.87-2.13l127.69-.56v24.7l-113.83-.02"/>
  </g>
</svg>