<?xml version="1.0" encoding="UTF-8"?>
<svg id="_レイヤー_2" data-name="レイヤー 2" xmlns="http://www.w3.org/2000/svg" xmlns:xlink="http://www.w3.org/1999/xlink" viewBox="0 0 129.4 24.45">
  <defs>
    <style>
      .cls-1, .cls-2, .cls-3 {
        fill: none;
      }

      .cls-4 {
        fill: url(#_チェック_4_カラー);
        opacity: .71;
      }

      .cls-5 {
        fill: #129141;
      }

      .cls-5, .cls-6, .cls-7 {
        opacity: .75;
      }

      .cls-2 {
        stroke: #a21f24;
      }

      .cls-2, .cls-3 {
        stroke-linecap: square;
        stroke-width: .95px;
      }

      .cls-8 {
        opacity: .5;
      }

      .cls-8, .cls-9 {
        fill: #fff;
      }

      .cls-9 {
        opacity: .33;
      }

      .cls-10 {
        fill: #231815;
        opacity: .6;
      }

      .cls-11 {
        opacity: .9;
      }

      .cls-3 {
        stroke: #871b20;
      }

      .cls-12 {
        fill: #cb191d;
      }

      .cls-6 {
        fill: #1682c3;
      }

      .cls-7 {
        fill: #f0c829;
      }
    </style>
    <pattern id="_チェック_4_カラー" data-name="チェック 4 カラー" x="0" y="0" width="82.08" height="82.08" patternTransform="translate(-705.12 575.42)" patternUnits="userSpaceOnUse" viewBox="0 0 82.08 82.08">
      <g>
        <rect class="cls-1" x="0" y="0" width="82.08" height="82.08"/>
        <rect class="cls-12" x="0" y="0" width="82.08" height="82.08"/>
        <line class="cls-3" x1="-.81" y1="51.3" x2="82.84" y2="51.3"/>
        <line class="cls-3" x1="-.81" y1="78.66" x2="82.84" y2="78.66"/>
        <line class="cls-3" x1="-.81" y1="23.94" x2="82.84" y2="23.94"/>
        <line class="cls-2" x1="30.78" y1="-.76" x2="30.78" y2="82.88"/>
        <line class="cls-3" x1="58.14" y1="-.76" x2="58.14" y2="82.88"/>
        <line class="cls-3" x1="3.42" y1="-.76" x2="3.42" y2="82.88"/>
        <rect class="cls-5" x="-5.7" y="39.9" width="91.2" height="4.56"/>
        <rect class="cls-6" x="-5.7" y="67.26" width="91.2" height="4.56"/>
        <rect class="cls-7" x="-5.7" y="12.54" width="91.2" height="4.56"/>
        <rect class="cls-6" x="-5.7" y="30.78" width="91.2" height="4.56"/>
        <rect class="cls-7" x="-5.7" y="58.14" width="91.2" height="4.56"/>
        <rect class="cls-5" x="-5.7" y="3.42" width="91.2" height="4.56"/>
        <rect class="cls-8" x="37.62" y="-3.42" width="4.56" height="91.2"/>
        <rect class="cls-7" x="64.98" y="-3.42" width="4.56" height="91.2"/>
        <rect class="cls-5" x="10.26" y="-3.42" width="4.56" height="91.2"/>
        <rect class="cls-6" x="46.74" y="-3.42" width="4.56" height="91.2"/>
        <rect class="cls-6" x="74.1" y="-3.42" width="4.56" height="91.2"/>
        <rect class="cls-10" x="19.38" y="-3.42" width="4.56" height="91.2"/>
        <rect class="cls-9" x="10.26" y="12.54" width="4.56" height="4.56"/>
        <rect class="cls-9" x="19.38" y="3.42" width="4.56" height="4.56"/>
        <rect class="cls-9" x="19.38" y="12.54" width="4.56" height="4.56"/>
        <rect class="cls-9" x="10.26" y="3.42" width="4.56" height="4.56"/>
        <rect class="cls-9" x="37.62" y="12.54" width="4.56" height="4.56"/>
        <rect class="cls-9" x="46.74" y="3.42" width="4.56" height="4.56"/>
        <rect class="cls-9" x="46.74" y="12.54" width="4.56" height="4.56"/>
        <rect class="cls-9" x="37.62" y="3.42" width="4.56" height="4.56"/>
        <rect class="cls-9" x="64.98" y="12.54" width="4.56" height="4.56"/>
        <rect class="cls-9" x="74.1" y="3.42" width="4.56" height="4.56"/>
        <rect class="cls-9" x="74.1" y="12.54" width="4.56" height="4.56"/>
        <rect class="cls-9" x="64.98" y="3.42" width="4.56" height="4.56"/>
        <rect class="cls-9" x="10.26" y="39.9" width="4.56" height="4.56"/>
        <rect class="cls-9" x="19.38" y="30.78" width="4.56" height="4.56"/>
        <rect class="cls-9" x="19.38" y="39.9" width="4.56" height="4.56"/>
        <rect class="cls-9" x="10.26" y="30.78" width="4.56" height="4.56"/>
        <rect class="cls-9" x="37.62" y="39.9" width="4.56" height="4.56"/>
        <rect class="cls-9" x="46.74" y="30.78" width="4.56" height="4.56"/>
        <rect class="cls-9" x="46.74" y="39.9" width="4.56" height="4.56"/>
        <rect class="cls-9" x="37.62" y="30.78" width="4.56" height="4.56"/>
        <rect class="cls-9" x="64.98" y="39.9" width="4.56" height="4.56"/>
        <rect class="cls-9" x="74.1" y="30.78" width="4.56" height="4.56"/>
        <rect class="cls-9" x="74.1" y="39.9" width="4.56" height="4.56"/>
        <rect class="cls-9" x="64.98" y="30.78" width="4.56" height="4.56"/>
        <rect class="cls-9" x="10.26" y="67.26" width="4.56" height="4.56"/>
        <rect class="cls-9" x="19.38" y="58.14" width="4.56" height="4.56"/>
        <rect class="cls-9" x="19.38" y="67.26" width="4.56" height="4.56"/>
        <rect class="cls-9" x="10.26" y="58.14" width="4.56" height="4.56"/>
        <rect class="cls-9" x="37.62" y="67.26" width="4.56" height="4.56"/>
        <rect class="cls-9" x="46.74" y="58.14" width="4.56" height="4.56"/>
        <rect class="cls-9" x="46.74" y="67.26" width="4.56" height="4.56"/>
        <rect class="cls-9" x="37.62" y="58.14" width="4.56" height="4.56"/>
        <rect class="cls-9" x="64.98" y="67.26" width="4.56" height="4.56"/>
        <rect class="cls-9" x="74.1" y="58.14" width="4.56" height="4.56"/>
        <rect class="cls-9" x="74.1" y="67.26" width="4.56" height="4.56"/>
        <rect class="cls-9" x="64.98" y="58.14" width="4.56" height="4.56"/>
      </g>
    </pattern>
  </defs>
  <g id="_レイヤー_1-2" data-name="レイヤー 1">
    <g class="cls-11">
      <path class="cls-4" d="M13.85.03h115.54c-.93,1.57-.97,3.48-2.69,4.88-.59.48-1.01.11-1.49.74.06-.07-.03,1.14-.03,1.22-.06,1.01,0,1.76.36,2.71-1.41.14-.2,1.34-.35,1.99-.17.74-1.47,1.51-1.82,2.25-.96,1.99.62,3.11,3.15,3.22,1.12,1.37-3.21,2.64.59,3.38-.84.33-2.21.78-1.85,1.76.8.46,1.94.79,2.64,1.29-.33.44.05.46.36.84L0,24.45c.43-1.01,0-2.2.14-3.2.13-1,.62-2.09.62-3.11,0-.56-.23-.78-.19-1.3.04-.49.38-.94.38-1.51,0-1.09-.69-2.04,0-3.09.67-1.03,2.49-2.17,3.76-2.82,1.03-.52,2.85-.77,3.08-1.93.19-.95-1.33-2.02-.92-3.08.1-.27.97-1.01,1.24-1.29.68-.73,1.3-1.41,2.51-1.83.66-.23,1.33-.33,1.91-.55.74-.28.69-.89,2.26-.71"/>
    </g>
  </g>
</svg>