<?xml version="1.0" encoding="UTF-8"?>
<svg id="_レイヤー_2" data-name="レイヤー 2" xmlns="http://www.w3.org/2000/svg" xmlns:xlink="http://www.w3.org/1999/xlink" viewBox="0 0 120.43 24.42">
  <defs>
    <style>
      .cls-1 {
        fill: none;
      }

      .cls-2 {
        fill: #f8e399;
      }

      .cls-3 {
        fill: #f5cf71;
      }

      .cls-4 {
        fill: url(#_チェック_3_カラー);
        opacity: .86;
      }
    </style>
    <pattern id="_チェック_3_カラー" data-name="チェック 3 カラー" x="0" y="0" width="72" height="72" patternTransform="translate(-570.71 208.51)" patternUnits="userSpaceOnUse" viewBox="0 0 72 72">
      <g>
        <rect class="cls-1" width="72" height="72"/>
        <rect class="cls-2" x="-3" y="32" width="78" height="8"/>
        <rect class="cls-2" x="-3" y="14" width="78" height="8"/>
        <rect class="cls-2" x="-3" y="-4" width="78" height="8"/>
        <rect class="cls-2" x="-3" y="50" width="78" height="8"/>
        <rect class="cls-2" x="-3" y="68" width="78" height="8"/>
        <rect class="cls-2" x="32" y="-3" width="8" height="78"/>
        <rect class="cls-2" x="50" y="-3" width="8" height="78"/>
        <rect class="cls-2" x="68" y="-3" width="8" height="78"/>
        <rect class="cls-2" x="14" y="-3" width="8" height="78"/>
        <rect class="cls-2" x="-4" y="-3" width="8" height="78"/>
        <rect class="cls-3" x="-4" y="-4" width="8" height="8"/>
        <rect class="cls-3" x="14" y="-4" width="8" height="8"/>
        <rect class="cls-3" x="32" y="-4" width="8" height="8"/>
        <rect class="cls-3" x="50" y="-4" width="8" height="8"/>
        <rect class="cls-3" x="68" y="-4" width="8" height="8"/>
        <rect class="cls-3" x="-4" y="14" width="8" height="8"/>
        <rect class="cls-3" x="14" y="14" width="8" height="8"/>
        <rect class="cls-3" x="32" y="14" width="8" height="8"/>
        <rect class="cls-3" x="50" y="14" width="8" height="8"/>
        <rect class="cls-3" x="68" y="14" width="8" height="8"/>
        <rect class="cls-3" x="-4" y="32" width="8" height="8"/>
        <rect class="cls-3" x="14" y="32" width="8" height="8"/>
        <rect class="cls-3" x="32" y="32" width="8" height="8"/>
        <rect class="cls-3" x="50" y="32" width="8" height="8"/>
        <rect class="cls-3" x="68" y="32" width="8" height="8"/>
        <rect class="cls-3" x="-4" y="50" width="8" height="8"/>
        <rect class="cls-3" x="14" y="50" width="8" height="8"/>
        <rect class="cls-3" x="32" y="50" width="8" height="8"/>
        <rect class="cls-3" x="50" y="50" width="8" height="8"/>
        <rect class="cls-3" x="68" y="50" width="8" height="8"/>
        <rect class="cls-3" x="-4" y="68" width="8" height="8"/>
        <rect class="cls-3" x="14" y="68" width="8" height="8"/>
        <rect class="cls-3" x="32" y="68" width="8" height="8"/>
        <rect class="cls-3" x="50" y="68" width="8" height="8"/>
        <rect class="cls-3" x="68" y="68" width="8" height="8"/>
      </g>
    </pattern>
  </defs>
  <g id="_レイヤー_1-2" data-name="レイヤー 1">
    <path class="cls-4" d="M0,24.42c.92-.42.48-1.03.56-1.15.08-.12.26-.69.32-.82.09-.18.78-.23.86-.42.47-1.18-.92-1.95,1.78-2.55-.19-.29-.31-.72-.66-.96.69-.4.62-.75-.17-1-.24-2,1.13-1.7,2.48-2.92-.72-.42-1.25-1.02-.7-1.8.89-.12.56-.39.64-.97,0-.08-.26-1.3-.32-1.58-.27-1.41-.83-1.23-1.83-2.21-.2-.19-.46-1.01-.48-1.15,0-.1-.24-.44-.19-.71.05-.26.8-.31.84-.45.21-.84-.54-1.96-.76-2.78.12-.03.31,0,.44-.01C3.08,2.22,1.38.23.89,0h119.54v11.09c-1.34-.59-2.11.7-.56,1.14.07.61-.21,1.13-.83,1.4.43.73-.21.82-.39,1.38-.52,1.57-.54.82-2.66,1.73.4,1.25,1.83.73,3.18,1.11.08,1.15.31,1.9-1.03,2.37-1.08.37-2.86-.2-4.01,0-1.1.19-1.86.99-3.1.87-.89,1.18-1.95,2.15-3.02,3.34H0Z"/>
  </g>
</svg>