<?xml version="1.0" encoding="UTF-8"?>
<svg id="_レイヤー_2" data-name="レイヤー 2" xmlns="http://www.w3.org/2000/svg" xmlns:xlink="http://www.w3.org/1999/xlink" viewBox="0 0 121.31 24.45">
  <defs>
    <style>
      .cls-1 {
        fill: none;
      }

      .cls-2 {
        fill: url(#_落葉);
        opacity: .75;
      }

      .cls-3 {
        fill: #231815;
      }
    </style>
    <pattern id="_落葉" data-name="落葉" x="0" y="0" width="51.73" height="88.82" patternTransform="translate(-568.48 479.43)" patternUnits="userSpaceOnUse" viewBox="0 0 51.73 88.82">
      <g>
        <rect class="cls-1" x="0" width="51.73" height="88.82"/>
        <path class="cls-3" d="M28.63,79.14c-1.38-.6-3.83.02-5.09.99-.1-1.91-1.01-2.95-2.2-3.8,1.6,0,3.29-1.31,4.01-2.06.49.99,2.18,1.74,3.03,1.89,0-1.04-1.27-2.24-2.53-2.73.87-1.28,1.44-2.48,1.44-4.31,1.37,1.26,2.61,1.8,4.06,2.29-.35,1.98.06,2.8.63,3.55.38-.49,1.01-2.3.75-3.72,1.66.06,3.21-1.26,4.86-2.58-.17,2.59-.02,4.75.23,5.61-.73-.05-2.98.49-3.49,1.6.53.29,2.72.14,3.76-.43.5,1.46.99,2.2,2.08,2.89-1.26.52-2.63,1.49-3.15,2.29-1.47-.9-2.87-1.83-3.89-1.66.76,1.45,1.43,2.92,2.35,3.32-.83.38-2.4,3.32-2.46,4.01-.76-1.29-2.95-2.67-3.79-2.54.68-1.34.56-3.87-.04-4.09-.92.74-5.37,5.02-3.9,7.73-.29.15-.97.35-.97.35-.06-1.32-.52-4.36,4.32-8.59Z"/>
        <path class="cls-3" d="M10.93,65.74c1.5-.05,3.73-1.72,4.44-3.14.91,1.69,1.89,2.79,3.33,3.04-1.45.69-2.34,2.1-2.67,3.08-.87-.93-3.13-.87-3.96-.65,1.03,1.49,2.59,1.7,4.44,1.56-.32,1.7-.32,3.3.14,4.96-1.5-.9-2.63-.97-4.35-.69-.17-2-1.2-2.44-1.95-2.98-.4,1.48-.57,2.35.57,3.91-1.23.93-2.4,2.17-3.2,4.1-.96-2.42-1.98-3.95-2.58-4.62,1.02-.4,2.59-2.49,2.58-3.85-.91-.05-2.94,1.06-3.61,2.63-.86-1.03-2-1.72-3.32-1.66.84-1.18,1.66-2.92,1.66-4.29,1.92.66,3.74.82,4.58,0-1.31-.98-2.66-1.7-3.66-1.66.8-.8,1.2-2.75.63-3.83,1.6.29,3.27.41,4.4-.35-.04,1.5,1.37,4.24,2.01,4.18.51-1.06,2.77-6.89.28-8.71.2-.26.72-.73.72-.73,1.52,2.69,1.52,5.61-.48,9.67Z"/>
        <path class="cls-3" d="M39.14,56.93c.33,1.47-.5,3.48-1.69,4.54,1.86.44,2.73,1.75,3.35,3.07.46-1.72,1.71-3.09,2.58-3.66-.88-.67-1.15-2.91-1.15-3.78,1.15.4,1.99,2,2.24,3.33,1.5-.39,3.6-.88,5.32-.87-1.25-1.21-1.72-2.35-1.72-3.89-2.01-.01-3.35-.56-4.06-1.14.97-.56,3.14-.5,4.29-.06.58-1.43.94-3.42,2.65-4.5-2.58-.31-4.14-.99-5.01-1.76-.12,1.09-1.69,3.81-3.02,4.14-.28-.86.5-3.04,1.66-4.46-1.34-.76-2.35-1.43-2.8-2.75-.46,1.26-1.57,2.19-2.8,2.69.91,1.6,1.61,3.72,1.26,4.69-1.29-1.01-2.47-2.28-2.69-3.26-.52.74-2.67,2.1-4.41,2,1.2,1.04,2.1,3,1.66,4.29,1.72-1.03,3.84.11,3.95.74-.89.77-5.7,4.08-8.1,2.14-.2.26-.52.88-.52.88,1.29.3,3.96,1.59,9.02-2.39Z"/>
        <path class="cls-3" d="M28.63,34.73c-1.38-.6-3.83.02-5.09.99-.1-1.91-1.01-2.95-2.2-3.8,1.6,0,3.29-1.31,4.01-2.06.49.99,2.18,1.74,3.03,1.89,0-1.04-1.27-2.24-2.53-2.73.87-1.28,1.44-2.48,1.44-4.31,1.37,1.26,2.61,1.8,4.06,2.29-.35,1.98.06,2.81.63,3.55.38-.49,1.01-2.3.75-3.72,1.66.06,3.21-1.26,4.86-2.58-.17,2.59-.02,4.75.23,5.61-.73-.05-2.98.49-3.49,1.6.53.29,2.72.14,3.76-.43.5,1.46.99,2.2,2.08,2.89-1.26.51-2.63,1.49-3.15,2.29-1.47-.91-2.87-1.83-3.89-1.66.76,1.45,1.43,2.92,2.35,3.32-.83.38-2.4,3.32-2.46,4.01-.76-1.29-2.95-2.67-3.79-2.54.68-1.34.56-3.87-.04-4.09-.92.74-5.37,5.02-3.9,7.73-.29.15-.97.35-.97.35-.06-1.32-.52-4.35,4.32-8.59Z"/>
        <path class="cls-3" d="M10.93,21.33c1.5-.05,3.73-1.72,4.44-3.13.91,1.69,1.89,2.79,3.33,3.04-1.45.69-2.34,2.1-2.67,3.08-.87-.93-3.13-.87-3.96-.65,1.03,1.49,2.59,1.7,4.44,1.56-.32,1.7-.32,3.3.14,4.96-1.5-.9-2.63-.97-4.35-.69-.17-2-1.2-2.44-1.95-2.98-.4,1.48-.57,2.35.57,3.91-1.23.93-2.4,2.17-3.2,4.1-.96-2.42-1.98-3.95-2.58-4.62,1.02-.4,2.59-2.49,2.58-3.85-.91-.05-2.94,1.06-3.61,2.63-.86-1.03-2-1.72-3.32-1.66.84-1.18,1.66-2.92,1.66-4.29,1.92.66,3.74.82,4.58,0-1.31-.98-2.66-1.7-3.66-1.66.8-.8,1.2-2.75.63-3.83,1.6.29,3.27.41,4.4-.35-.04,1.5,1.37,4.24,2.01,4.18.51-1.06,2.77-6.89.28-8.71.2-.26.72-.73.72-.73,1.52,2.69,1.52,5.61-.48,9.67Z"/>
        <path class="cls-3" d="M39.14,12.52c.33,1.47-.5,3.48-1.69,4.54,1.86.44,2.73,1.75,3.35,3.08.46-1.72,1.71-3.1,2.58-3.66-.88-.67-1.15-2.91-1.15-3.78,1.15.4,1.99,2,2.24,3.33,1.5-.39,3.6-.88,5.32-.87-1.25-1.21-1.72-2.35-1.72-3.89-2.01-.02-3.35-.57-4.06-1.14.97-.56,3.14-.5,4.29-.06.58-1.43.94-3.42,2.65-4.5-2.58-.31-4.14-.99-5.01-1.76-.12,1.09-1.69,3.81-3.02,4.14-.28-.86.5-3.04,1.66-4.46-1.34-.76-2.35-1.43-2.8-2.75-.46,1.26-1.57,2.19-2.8,2.69.91,1.6,1.61,3.72,1.26,4.69-1.29-1.01-2.47-2.29-2.69-3.26-.52.74-2.67,2.1-4.41,2,1.2,1.04,2.1,3,1.66,4.29,1.72-1.03,3.84.11,3.95.74-.89.77-5.7,4.08-8.1,2.13-.2.26-.52.89-.52.89,1.29.3,3.96,1.59,9.02-2.39Z"/>
      </g>
    </pattern>
  </defs>
  <g id="_レイヤー_1-2" data-name="レイヤー 1">
    <path class="cls-2" d="M12.98.03h108.33c-.87,1.57-.91,3.48-2.52,4.88-.55.48-.95.11-1.4.75.05-.07-.03,1.14-.03,1.22-.06,1.01,0,1.76.33,2.71-1.32.14-.19,1.34-.32,1.99-.16.75-1.38,1.51-1.71,2.25-.89,1.99.58,3.11,2.96,3.22,1.05,1.37-3.01,2.64.55,3.38-.79.33-2.07.78-1.73,1.76.75.46,1.82.79,2.47,1.29-.31.44.05.46.34.84l-120.25.14c.41-1.01,0-2.2.13-3.2.12-.99.58-2.09.58-3.11,0-.56-.21-.78-.18-1.29.03-.5.36-.94.35-1.51,0-1.09-.64-2.05,0-3.09.63-1.03,2.34-2.17,3.53-2.82.97-.52,2.67-.77,2.89-1.93.18-.96-1.25-2.03-.87-3.09.1-.27.92-1.01,1.17-1.29.64-.73,1.21-1.41,2.35-1.83.62-.23,1.25-.33,1.79-.55.7-.28.64-.88,2.12-.71"/>
  </g>
</svg>