<?xml version="1.0" encoding="UTF-8"?>
<svg id="_レイヤー_2" data-name="レイヤー 2" xmlns="http://www.w3.org/2000/svg" xmlns:xlink="http://www.w3.org/1999/xlink" viewBox="0 0 117.76 24.14">
  <defs>
    <style>
      .cls-1 {
        fill: none;
      }

      .cls-2 {
        fill: url(#_10_dpi_80_);
        opacity: .74;
      }

      .cls-3 {
        fill: #231815;
      }
    </style>
    <pattern id="_10_dpi_80_" data-name="10 dpi 80%" x="0" y="0" width="28.8" height="28.8" patternTransform="translate(-291.32 557.3)" patternUnits="userSpaceOnUse" viewBox="0 0 28.8 28.8">
      <g>
        <rect class="cls-1" x="0" width="28.8" height="28.8"/>
        <path class="cls-3" d="M7.2,27.36c3.18,0,5.76-2.58,5.76-5.76s-2.58-5.76-5.76-5.76-5.76,2.58-5.76,5.76,2.58,5.76,5.76,5.76Z"/>
        <path class="cls-3" d="M21.6,27.36c3.18,0,5.76-2.58,5.76-5.76s-2.58-5.76-5.76-5.76-5.76,2.58-5.76,5.76,2.58,5.76,5.76,5.76Z"/>
        <path class="cls-3" d="M36,15.84c-3.18,0-5.76,2.58-5.76,5.76s2.58,5.76,5.76,5.76v-11.52Z"/>
        <path class="cls-3" d="M7.2,12.96c3.18,0,5.76-2.58,5.76-5.76S10.38,1.44,7.2,1.44,1.44,4.02,1.44,7.2s2.58,5.76,5.76,5.76Z"/>
        <path class="cls-3" d="M21.6,12.96c3.18,0,5.76-2.58,5.76-5.76s-2.58-5.76-5.76-5.76-5.76,2.58-5.76,5.76,2.58,5.76,5.76,5.76Z"/>
        <path class="cls-3" d="M36,1.44c-3.18,0-5.76,2.58-5.76,5.76s2.58,5.76,5.76,5.76V1.44Z"/>
        <path class="cls-3" d="M1.44-7.2C1.44-4.02,4.02-1.44,7.2-1.44s5.76-2.58,5.76-5.76H1.44Z"/>
        <path class="cls-3" d="M15.84-7.2c0,3.18,2.58,5.76,5.76,5.76s5.76-2.58,5.76-5.76h-11.52Z"/>
        <path class="cls-3" d="M12.96,36c0-3.18-2.58-5.76-5.76-5.76s-5.76,2.58-5.76,5.76h11.52Z"/>
        <path class="cls-3" d="M27.36,36c0-3.18-2.58-5.76-5.76-5.76s-5.76,2.58-5.76,5.76h11.52Z"/>
        <path class="cls-3" d="M28.8,34.56c3.18,0,5.76-2.58,5.76-5.76s-2.58-5.76-5.76-5.76-5.76,2.58-5.76,5.76,2.58,5.76,5.76,5.76Z"/>
        <path class="cls-3" d="M14.4,34.56c3.18,0,5.76-2.58,5.76-5.76s-2.58-5.76-5.76-5.76-5.76,2.58-5.76,5.76,2.58,5.76,5.76,5.76Z"/>
        <path class="cls-3" d="M0,34.56c3.18,0,5.76-2.58,5.76-5.76s-2.58-5.76-5.76-5.76-5.76,2.58-5.76,5.76,2.58,5.76,5.76,5.76Z"/>
        <path class="cls-3" d="M28.8,20.16c3.18,0,5.76-2.58,5.76-5.76s-2.58-5.76-5.76-5.76-5.76,2.58-5.76,5.76,2.58,5.76,5.76,5.76Z"/>
        <path class="cls-3" d="M14.4,20.16c3.18,0,5.76-2.58,5.76-5.76s-2.58-5.76-5.76-5.76-5.76,2.58-5.76,5.76,2.58,5.76,5.76,5.76Z"/>
        <path class="cls-3" d="M0,20.16c3.18,0,5.76-2.58,5.76-5.76S3.18,8.64,0,8.64s-5.76,2.58-5.76,5.76,2.58,5.76,5.76,5.76Z"/>
        <path class="cls-3" d="M28.8,5.76c3.18,0,5.76-2.58,5.76-5.76s-2.58-5.76-5.76-5.76-5.76,2.58-5.76,5.76,2.58,5.76,5.76,5.76Z"/>
        <path class="cls-3" d="M14.4,5.76c3.18,0,5.76-2.58,5.76-5.76s-2.58-5.76-5.76-5.76S8.64-3.18,8.64,0s2.58,5.76,5.76,5.76Z"/>
        <path class="cls-3" d="M0,5.76c3.18,0,5.76-2.58,5.76-5.76S3.18-5.76,0-5.76-5.76-3.18-5.76,0-3.18,5.76,0,5.76Z"/>
      </g>
    </pattern>
  </defs>
  <g id="_レイヤー_1-2" data-name="レイヤー 1">
    <path class="cls-2" d="M117.76,23.86c-1.16-1.2-.17-1.98-2.61-2.25.12-.03.31,0,.45-.02.23-1.21-.19-2.34-1.59-2.64.16-.08.37-.34.7-.45.03-.6-.52-1.04-1.19-1.27.26-.46.87-.75,1.42-.95-.44-.47-.91-.89-1.61-1.01.13-.18.38-.63.55-.79,1.36-.43.25-1.35-.18-1.83.11,0,.21.01.3.06.3-1.37-1.02-2.5-.48-3.7.05-.03.32-.15.36-.17-1.53-1.22-2.94-3.57-3.07-5.31-.46-.06-.53-.3-1.01-.33.18-.98-1-1.36-.94-2.35-.16-.03-.32,0-.48-.04-.11-.28-.32-.54-.39-.82L0,.28c.1.51.61.87,1.22,1.16-.91,1.02.26,1.78.74,2.62.77,1.33.37,2.01.16,3.24-.07.41.43.46.15,1.11-.21.47-1.2.95-1.35,1.29-.38.9.46,3.01,1.14,3.6-1.22.4-.27,4.26-.28,5.21-.02.73-.5,1.36-.33,1.99.08.28,1.02-.04,1.06.4.03.26-.38.51-.38.57,0,.58-.55,1.8-1.39,2.14.03.04.14.15.12.21-.11.08-.28.21-.33.32l117.23-.28Z"/>
  </g>
</svg>