<?xml version="1.0" encoding="UTF-8"?>
<svg id="_レイヤー_2" data-name="レイヤー 2" xmlns="http://www.w3.org/2000/svg" xmlns:xlink="http://www.w3.org/1999/xlink" viewBox="0 0 117.76 24.14">
  <defs>
    <style>
      .cls-1 {
        fill: none;
      }

      .cls-2 {
        fill: url(#_キルト_1);
        opacity: .73;
      }

      .cls-3 {
        fill: #231815;
      }

      .cls-4 {
        fill: #fff;
      }

      .cls-5 {
        opacity: .86;
      }
    </style>
    <pattern id="_キルト_1" data-name="キルト 1" x="0" y="0" width="48.73" height="48.73" patternTransform="translate(-572.04 517.97)" patternUnits="userSpaceOnUse" viewBox="0 0 48.73 48.73">
      <g>
        <rect class="cls-1" x="0" y="0" width="48.73" height="48.73"/>
        <polygon class="cls-3" points="0 24.37 0 36.55 12.18 36.55 0 24.37"/>
        <polygon class="cls-3" points="24.37 0 12.18 0 12.18 12.18 24.37 0"/>
        <polygon class="cls-3" points="0 12.18 0 24.37 12.18 12.18 0 12.18"/>
        <polygon class="cls-3" points="36.55 24.37 36.55 12.18 24.37 12.18 36.55 24.37"/>
        <polygon class="cls-3" points="12.18 36.55 24.37 36.55 12.18 24.37 12.18 36.55"/>
        <polygon class="cls-3" points="12.18 12.18 12.18 24.37 24.37 12.18 12.18 12.18"/>
        <polygon class="cls-3" points="36.55 0 24.37 0 36.55 12.18 36.55 0"/>
        <polygon class="cls-3" points="36.55 36.55 36.55 24.37 24.37 36.55 36.55 36.55"/>
        <polygon class="cls-3" points="24.37 48.73 36.55 48.73 36.55 36.55 24.37 48.73"/>
        <polygon class="cls-3" points="48.73 36.55 48.73 24.37 36.55 36.55 48.73 36.55"/>
        <polygon class="cls-3" points="12.18 48.73 24.37 48.73 12.18 36.55 12.18 48.73"/>
        <polygon class="cls-3" points="48.73 24.37 48.73 12.18 36.55 12.18 48.73 24.37"/>
        <rect class="cls-1" y="0" width="12.18" height="12.18"/>
        <rect class="cls-1" y="36.55" width="12.18" height="12.18"/>
        <rect class="cls-1" x="36.55" y="0" width="12.18" height="12.18"/>
        <rect class="cls-1" x="36.55" y="36.55" width="12.18" height="12.18"/>
        <polygon class="cls-1" points="24.37 12.18 36.55 12.18 24.37 0 12.18 12.18 24.37 12.18"/>
        <polygon class="cls-1" points="12.18 24.37 12.18 12.18 0 24.37 12.18 36.55 12.18 24.37"/>
        <polygon class="cls-1" points="36.55 24.37 36.55 36.55 48.73 24.37 36.55 12.18 36.55 24.37"/>
        <polygon class="cls-1" points="24.37 36.55 12.18 36.55 24.37 48.73 36.55 36.55 24.37 36.55"/>
        <polygon class="cls-1" points="12.18 24.37 24.37 36.55 36.55 24.37 24.37 12.18 12.18 24.37"/>
        <path class="cls-4" d="M24.37,24.37"/>
        <polygon class="cls-3" points="12.18 .9 .9 .9 .9 12.18 0 12.18 0 0 12.18 0 12.18 .9"/>
        <polygon class="cls-3" points="47.83 12.18 47.83 .9 36.55 .9 36.55 0 48.73 0 48.73 12.18 47.83 12.18"/>
        <polygon class="cls-3" points="36.55 47.83 47.83 47.83 47.83 36.55 48.73 36.55 48.73 48.73 36.55 48.73 36.55 47.83"/>
        <polygon class="cls-3" points=".9 36.55 .9 47.83 12.18 47.83 12.18 48.73 0 48.73 0 36.55 .9 36.55"/>
      </g>
    </pattern>
  </defs>
  <g id="_レイヤー_1-2" data-name="レイヤー 1">
    <g class="cls-5">
      <path class="cls-2" d="M117.76,23.86c-1.16-1.2-.17-1.98-2.61-2.25.12-.02.31,0,.45-.02.23-1.21-.19-2.34-1.59-2.64.16-.08.37-.34.7-.45.03-.6-.52-1.04-1.19-1.27.26-.46.87-.75,1.42-.95-.43-.47-.91-.89-1.61-1.01.13-.18.37-.63.55-.8,1.37-.43.25-1.35-.18-1.83.11,0,.21.02.3.07.3-1.37-1.02-2.49-.48-3.7.05-.03.32-.15.36-.17-1.53-1.22-2.94-3.57-3.07-5.31-.46-.06-.53-.3-1.01-.33.18-.98-1-1.35-.94-2.34-.16-.03-.32,0-.48-.05-.11-.28-.32-.54-.38-.82L0,.28c.1.51.61.87,1.22,1.16-.91,1.02.26,1.78.74,2.62.77,1.33.37,2.01.16,3.24-.07.41.43.46.15,1.11-.2.47-1.2.95-1.35,1.29-.38.9.46,3.01,1.14,3.6-1.22.4-.27,4.26-.28,5.21-.02.73-.5,1.36-.33,1.99.07.28,1.02-.04,1.06.4.03.26-.38.51-.38.56,0,.59-.55,1.8-1.4,2.14.04.04.14.15.12.21-.11.08-.28.21-.33.32l117.23-.28Z"/>
    </g>
  </g>
</svg>