<?xml version="1.0" encoding="UTF-8"?>
<svg id="_レイヤー_2" data-name="レイヤー 2" xmlns="http://www.w3.org/2000/svg" xmlns:xlink="http://www.w3.org/1999/xlink" viewBox="0 0 119.72 24.85">
  <defs>
    <style>
      .cls-1 {
        fill: none;
      }

      .cls-2 {
        fill: #40a564;
      }

      .cls-3 {
        fill: #751e7f;
      }

      .cls-4 {
        fill: url(#_キルト_1_カラー);
        opacity: .73;
      }

      .cls-5 {
        fill: #fff;
      }

      .cls-6 {
        fill: #f1e98f;
      }
    </style>
    <pattern id="_キルト_1_カラー" data-name="キルト 1 カラー" x="0" y="0" width="48.73" height="48.73" patternTransform="translate(-569.28 322.35)" patternUnits="userSpaceOnUse" viewBox="0 0 48.73 48.73">
      <g>
        <rect class="cls-1" x="0" y="0" width="48.73" height="48.73"/>
        <rect class="cls-3" x="0" y="0" width="48.73" height="48.73"/>
        <polygon class="cls-2" points="0 24.37 0 36.55 12.18 36.55 0 24.37"/>
        <polygon class="cls-2" points="24.37 0 12.18 0 12.18 12.18 24.37 0"/>
        <polygon class="cls-2" points="0 12.18 0 24.37 12.18 12.18 0 12.18"/>
        <polygon class="cls-6" points="36.55 24.37 36.55 12.18 24.37 12.18 36.55 24.37"/>
        <polygon class="cls-6" points="12.18 36.55 24.37 36.55 12.18 24.37 12.18 36.55"/>
        <polygon class="cls-6" points="12.18 12.18 12.18 24.37 24.37 12.18 12.18 12.18"/>
        <polygon class="cls-2" points="36.55 0 24.37 0 36.55 12.18 36.55 0"/>
        <polygon class="cls-6" points="36.55 36.55 36.55 24.37 24.37 36.55 36.55 36.55"/>
        <polygon class="cls-2" points="24.37 48.73 36.55 48.73 36.55 36.55 24.37 48.73"/>
        <polygon class="cls-2" points="48.73 36.55 48.73 24.37 36.55 36.55 48.73 36.55"/>
        <polygon class="cls-2" points="12.18 48.73 24.37 48.73 12.18 36.55 12.18 48.73"/>
        <polygon class="cls-2" points="48.73 24.37 48.73 12.18 36.55 12.18 48.73 24.37"/>
        <rect class="cls-1" y="0" width="12.18" height="12.18"/>
        <rect class="cls-1" y="36.55" width="12.18" height="12.18"/>
        <rect class="cls-1" x="36.55" y="0" width="12.18" height="12.18"/>
        <rect class="cls-1" x="36.55" y="36.55" width="12.18" height="12.18"/>
        <polygon class="cls-1" points="24.37 12.18 36.55 12.18 24.37 0 12.18 12.18 24.37 12.18"/>
        <polygon class="cls-1" points="12.18 24.37 12.18 12.18 0 24.37 12.18 36.55 12.18 24.37"/>
        <polygon class="cls-1" points="36.55 24.37 36.55 36.55 48.73 24.37 36.55 12.18 36.55 24.37"/>
        <polygon class="cls-1" points="24.37 36.55 12.18 36.55 24.37 48.73 36.55 36.55 24.37 36.55"/>
        <polygon class="cls-1" points="12.18 24.37 24.37 36.55 36.55 24.37 24.37 12.18 12.18 24.37"/>
        <path class="cls-5" d="M24.37,24.37"/>
        <polygon class="cls-6" points="12.18 .9 .9 .9 .9 12.18 0 12.18 0 0 12.18 0 12.18 .9"/>
        <polygon class="cls-6" points="47.83 12.18 47.83 .9 36.55 .9 36.55 0 48.73 0 48.73 12.18 47.83 12.18"/>
        <polygon class="cls-6" points="36.55 47.83 47.83 47.83 47.83 36.55 48.73 36.55 48.73 48.73 36.55 48.73 36.55 47.83"/>
        <polygon class="cls-6" points=".9 36.55 .9 47.83 12.18 47.83 12.18 48.73 0 48.73 0 36.55 .9 36.55"/>
      </g>
    </pattern>
  </defs>
  <g id="_レイヤー_1-2" data-name="レイヤー 1">
    <path class="cls-4" d="M13.32,24.85c-.11-.09-.08-.18-.33-.16.24-1.17-1.02-1.69-.59-2.91-1.46-.17-4.86-.79-5.14-2.1-2.54-.74-1.39-2.46-2.14-3.93-.9-.16-.66-.92-.89-1.54-1.71,0-1.33-1.44-1.79-2.38-.26-.53-.67-.69-.84-1.29-.17-.59.02-1.34-.03-1.94-1.38-.14-.25-2.84-1.42-3.67.85-.67,1.41-1.37,1.59-2.22-1.68-.03-.17-1.83-1.75-2.13l119.72-.56v24.7l-106.72-.02"/>
  </g>
</svg>