<?xml version="1.0" encoding="UTF-8"?>
<svg id="_レイヤー_2" data-name="レイヤー 2" xmlns="http://www.w3.org/2000/svg" xmlns:xlink="http://www.w3.org/1999/xlink" viewBox="0 0 117.76 24.14">
  <defs>
    <style>
      .cls-1, .cls-2, .cls-3 {
        fill: none;
      }

      .cls-4 {
        fill: #cd482e;
      }

      .cls-5 {
        fill: #f0d060;
      }

      .cls-6 {
        fill: #9bb679;
      }

      .cls-7 {
        fill: url(#_チャイニーズ_うずまき_カラー);
        opacity: .66;
      }

      .cls-8 {
        fill: #c36c4e;
      }

      .cls-2, .cls-3 {
        stroke: #fff;
      }

      .cls-3 {
        stroke-linecap: round;
      }
    </style>
    <pattern id="_チャイニーズ_うずまき_カラー" data-name="チャイニーズ うずまき カラー" x="0" y="0" width="63" height="63" patternTransform="translate(-286.58 325.1)" patternUnits="userSpaceOnUse" viewBox="0 0 63 63">
      <g>
        <g>
          <rect class="cls-1" width="63" height="63"/>
          <rect class="cls-8" width="63" height="63"/>
          <path class="cls-6" d="M57.97,37.5c0,7.29-4.33,9.75-11.62,9.75s-13.14-1.14-13.14-8.43,5.91-13.2,13.2-13.2,11.56,4.59,11.56,11.88Z"/>
          <ellipse class="cls-4" cx="40.14" cy="15.7" rx="11.67" ry="11.86"/>
          <circle class="cls-6" cx="19.47" cy="52.42" r="9.62"/>
          <path class="cls-3" d="M19.47,52.42c-1.68.56.29,1.81.9,1.55,2.14-.9,1.36-4.03-1.01-3.58-4.88.93-4.73,6.52,0,6.28,7.12,0,6.94-9.21.12-8.9"/>
          <path class="cls-3" d="M12.92,54.34c.49,2.85,2.98,4.62,6.9,4.58,10.88-.11,9.55-13.92.09-13.65"/>
          <path class="cls-3" d="M3.86,58.81c-.8.56.4,1.92,1.48,1.06,1.99-1.59-.28-4.11-2.26-3.06-3.96,2.11-.51,7.19,3.17,4.99,5-2.66.83-9.47-3.99-7.42-7.29,3.1-.73,15.19,6.73,8.33,1.85-1.71,2.4-3.52,1.95-5.68"/>
          <path class="cls-3" d="M2.37,51.66c-.91.25-1.85.69-2.79,1.35-8.5,5.94,0,19.57,10.5,11.94,1.74-1.26,2.72-3.18,3.17-5.08"/>
          <path class="cls-3" d="M13.35,3.15c-.88.62.44,2.11,1.63,1.17,2.19-1.75.37-5.09-2.49-3.37-4.24,2.55-.56,7.93,3.49,5.51,5-2.65,2.04-9.58-2.82-8.71"/>
          <path class="cls-3" d="M7.75,3.26c-.27,4.68,5.5,9.61,11.26,4.2,2.94-2.77,2.93-6.4,1.24-9.03"/>
          <path class="cls-3" d="M67.13,39.51c-8.76,5.96-.1,21.86,11.57,13.17"/>
          <path class="cls-4" d="M71.68,55.66c-6,0-10.86-4.44-10.86-9.92s4.86-9.92,10.86-9.92v19.84Z"/>
          <path class="cls-3" d="M10.44,55.09c.62,3.7,3.86,7.02,9.36,6.47,1.25-.12,2.37-.36,3.38-.68"/>
          <circle class="cls-4" cx="38.4" cy="49.85" r="9.52" transform="translate(-12.4 86.99) rotate(-88.57)"/>
          <path class="cls-4" d="M20.22,45.31c0,5.48-4.86,9.92-10.86,9.92S-1.5,50.78-1.5,45.31s4.86-9.92,10.86-9.92,10.86,4.44,10.86,9.92Z"/>
          <path class="cls-3" d="M37.29,50.2c-1.53-.21-1.49,2.76.71,1.96,2.94-1.07.74-5.18-2.22-4.18-4.24,1.43-2.05,8.11,2.86,6.3,6.8-2.64,3.07-10.6-3.71-8.63-4.47,1.3-5.55,5.42-3.98,8.35"/>
          <path class="cls-3" d="M39.82,56.57c9-3.08,5.8-16.64-5.4-13.13"/>
          <path class="cls-3" d="M65.26,54.39c-7.29,3.1-.73,15.19,6.73,8.33"/>
          <path class="cls-3" d="M65.37,51.66c-.91.25-1.85.69-2.8,1.35-8.5,5.94,0,19.57,10.5,11.94"/>
          <path class="cls-3" d="M46.43,55.92c-1.4.65-3.35,1.97-4.38,3.46"/>
          <path class="cls-3" d="M65.26-8.61c-7.29,3.1-.73,15.19,6.73,8.33"/>
          <path class="cls-3" d="M62.57-9.99c-8.5,5.94,0,19.57,10.5,11.94"/>
          <ellipse class="cls-5" cx="27.56" cy="36.22" rx="10.38" ry="10.08"/>
          <path class="cls-3" d="M27.68,36.21c.27,1.45,2.5,1.29,2.11-.61-.49-2.42-4.28-1.82-4.23.65.11,5.62,6.93,4.12,6.59-.59-.15-6.5-8.9-5.06-9.23.78-.51,9.27,14.59,7.45,11.81-3.26-1.98-7.65-15.53-5.27-14.47,4.91,1.02,9.87,20.3,9.47,17.33-5.21-2.18-10.77-22.74-8.03-20.15,5.92"/>
          <path class="cls-6" d="M29.44,10.34s-3.08-2.97-6.84-2.47c-1.51,1.88-3.26,3-3.26,3,0,0,.75,7.38-8.25,9.38,2,1,7.12,4.38,7.12,11.12,1.62-2.12,8.25-8.12,16.88-2.88l.25-2.25s-10.94-4.32-5.91-15.91Z"/>
          <path class="cls-3" d="M22.58,23.06c-1.11.74-.06,2.12.95,1.73,3.22-1.24.71-5.66-2.15-4.04-4.31,2.43-.67,7.81,3.15,6.18,6.19-3.27,1.59-10.51-3.83-8.52-5.72,2.11-4.98,8.64-.45,10.8"/>
          <path class="cls-3" d="M22.16,7.99c1.12-.22,3.71.11,4.95.67"/>
          <path class="cls-3" d="M31.92,26.87c.37-.81.45-1.46.58-2.28"/>
          <path class="cls-5" d="M45.99,56.04c1.79,1.61,4.69,5.44,8.52,5.44,1.63,0,4.63-.74,4.53-1.06-.66-2.14,2.01-6.66,3.5-8.14-2.04-2.16-1.67-7.16-1.3-8.64-.03-.03-4.19-2.54-6.73-2.54-3.39,0-6.09.49-7.91,2.9,1.98,2.37,1.42,9.39-.62,12.04Z"/>
          <path class="cls-3" d="M52.94,51.14c-.86,1.2,1.58,2.92,2.69,1.33,1.64-2.37-2.3-4.99-4.19-2.83-3.75,4.31,3.18,8.08,6.34,4.57,3.69-5.06-3.56-11.2-8.3-6.34-6.81,6.99,6.75,15.6,11.36,6.7,4.09-7.91-6.91-15.4-13.32-8.59"/>
          <path class="cls-3" d="M46.08,55.25c2.21,4.58,7.94,7.63,13,4.63"/>
          <path class="cls-3" d="M45.75,39.15c-.88.62.32,1.93,1.63,1.17,2.14-1.24.09-5.22-3.17-3.08-3.26,2.14.12,7.36,4.17,5.11,5.63-3.38.89-10.38-4.39-8.07-3.19,1.4-4.18,3.85-3.75,6.22"/>
          <path class="cls-3" d="M53.14,41.12c2.67-5.77-3.87-13.19-11.88-8.48-3.32,1.95-3.87,4.84-3.58,7.77"/>
          <circle class="cls-5" cx="33.42" cy=".94" r="9.74" transform="translate(.28 5.37) rotate(-9.22)"/>
          <path class="cls-5" d="M42.94,63.7c0,5.38-4.36,9.74-9.74,9.74s-9.31-4.38-9.74-9.74c-.5-6.21,4.36-9.74,9.74-9.74s9.74,4.36,9.74,9.74Z"/>
          <path class="cls-5" d="M69.49,19.5c.11,4.5-5.17,10.2-11.44,9.64-5.71-.52-12.96-3.77-11.33-9.64,1.52-5.51,5.1-10.35,11.38-10.35s11.24,4.63,11.38,10.35Z"/>
          <path class="cls-3" d="M20.21,72.93c4.51-3.31,4.8-8.11,2.96-12.06.67-1.69,1.02-3.04,2.82-4.28,10.57-9.11,24.28,6.48,13.34,14.77-11.6,8.79-20.34-7.21-11.57-13.17,8.78-5.98,16.62,4.96,10.38,10.7-8.23,7.56-16.25-5.31-7.42-9.18,5.29-2.32,9.91,5.25,4.39,8.18-4.05,2.42-7.86-3.18-3.49-5.51,2.19-1.16,4.69,1.62,2.49,3.37"/>
          <path class="cls-3" d="M48.14-4.8c-3.66,1.56-5.25,4.2-4.64,9.25"/>
          <path class="cls-3" d="M50.74,10.64c4.92.05,11.94-4.54,8.84-11.78"/>
          <path class="cls-3" d="M36.45,30.15c1-1.14,1.79-1.87,3.05-2.56"/>
          <path class="cls-2" d="M34.59,28.37c.83-.59-.2-1.65.75-2.12"/>
          <path class="cls-3" d="M57.9,19.8c-.88.62.45,2.11,1.63,1.17,2.2-1.75-.3-4.53-2.49-3.37-4.37,2.32-.56,7.93,3.49,5.51,5.52-2.93.89-10.5-4.39-8.18-8.83,3.87-.81,16.74,7.42,9.18,6.24-5.74-1.6-16.67-10.38-10.7-8.76,5.96-.1,21.86,11.57,13.17,11.28-8.4-1.88-22.93-13.46-15.21-5.4,3.6-5.29,11.03-2.81,14.51"/>
          <path class="cls-5" d="M6.29,19.5c.18,4.62-5.57,9.37-11.38,10.35-6.2,1.04-11.38-4.63-11.38-10.35s5.1-10.35,11.38-10.35,11.17,4.64,11.38,10.35Z"/>
          <path class="cls-3" d="M-2.47,23.11c5.51-2.93.89-10.5-4.39-8.18-8.83,3.87-.81,16.74,7.42,9.18,6.24-5.74-1.6-16.67-10.38-10.7-8.76,5.96-.1,21.86,11.57,13.17C13.03,18.17-.12,3.64-11.7,11.36"/>
          <path class="cls-3" d="M39.71,15.05c-.93.66.46,2.22,1.71,1.23,2.31-1.84-.32-4.76-2.61-3.54-4.59,2.44-.59,8.32,3.67,5.78,5.79-3.08.94-11.02-4.62-8.59-9.27,4.06-.85,17.58,7.79,9.64,4.91-4.52,1.51-12.1-4.38-12.97"/>
          <path class="cls-3" d="M32.31,10.96c-4.44,7.23,3.68,19.25,14.82,11.54"/>
          <path class="cls-3" d="M51,11.61c-1.23-3.49-4.39-6.47-8.24-7.39"/>
          <path class="cls-3" d="M59.98,9.35c1.13-.96,3.26-4.01,2.91-6.31"/>
          <path class="cls-3" d="M28.86,26.36c.96-1.62,1.3-2.84,1.13-4.39"/>
          <path class="cls-3" d="M8.85,45.9c-.88.62.44,2.11,1.63,1.17,2.19-1.75-.31-4.53-2.49-3.37-4.37,2.32-.56,7.93,3.49,5.51,5.51-2.93.89-10.5-4.4-8.18-8.83,3.87-.81,16.74,7.42,9.18,6.24-5.74-1.59-16.67-10.38-10.7-8.76,5.96-.1,21.86,11.58,13.17,11.28-8.4-1.88-22.93-13.46-15.21-5.4,3.6-5.17,12.26-2.25,15.19"/>
          <path class="cls-3" d="M7.7,31.08c-1.53-.21-1.49,2.76.72,1.96,2.94-1.07.74-5.18-2.22-4.18-4.24,1.43-2.05,8.11,2.86,6.3,6.81-2.64,2.96-11.05-3.82-9.08-5.73,1.66-5.82,8.19-1.97,10.82"/>
          <path class="cls-3" d="M12.92,35.88c5.18-4.71.86-15.19-8.09-12.68"/>
          <path class="cls-3" d="M-1.59,28.46c-1.5,3.47-.56,7.68,2.48,10.14"/>
          <path class="cls-3" d="M15.74,37.45c5.62-6.11,1.26-18.78-9.66-17.2"/>
          <path class="cls-8" d="M57.59,41.75s-5.38-8.75-2-13.38l2.75.75s-3.25,5.12,3.62,11.75l-1.12,2.88-3.25-2Z"/>
          <path class="cls-3" d="M58.05,29.14c-1.24,2.92.34,10.35,4.39,11.59"/>
          <path class="cls-3" d="M55.12,28.65c-1.91,4.5.79,12.52,4.28,14.21"/>
          <path class="cls-3" d="M56.02,41.51c.25-.67.35-1.16.43-1.84"/>
          <path class="cls-3" d="M54.48,32.47c-3.33-4.55-10.26-6.43-17.02.27"/>
          <path class="cls-3" d="M54.72,29c-2.12-1.75-4.47-3.08-7.25-3.26"/>
          <path class="cls-3" d="M9.23,11.69c.22,1.16,1.62,1.41,2,.45"/>
          <path class="cls-4" d="M1.64,3.98S-.21,5.86-1.1,7.64c-.1.2.34,2.44.34,2.44,0,0,6.69,1.76,6.98,9.71,3.32.63,11.66,2.34,13.22-9.13-1.02.39-10.93,6.59-14.25-6.44l-3.56-.24Z"/>
          <path class="cls-3" d="M7.84,10.18c-.48.37-.96,1.06-1.02,1.8-.35,4.43,5.97,4.22,6.74.5"/>
          <path class="cls-3" d="M6.29,8.19c-1,.31-2.06,1.58-2.15,3.17-.46,8.28,11.86,8.28,12.47.44"/>
          <path class="cls-3" d="M5.19,5.15c-2.4,1.59-3.34,3.19-3.69,5.87"/>
          <path class="cls-3" d="M6.05,19.4c5.25,2.42,13.45-.26,13.36-8.94"/>
          <path class="cls-3" d="M28.69,11.7c-2.71-1.45-5.96-2.18-9.25-1.22"/>
          <path class="cls-3" d="M28.11,17.45c-2.29-2.36-6.51-3.32-10.93-.21-1.64,1.15-2.69,3.02-2.74,5.16"/>
          <path class="cls-3" d="M28.1,14.21c-2.4-1.57-5.51-2.09-8.79-1.05"/>
          <path class="cls-3" d="M23.17,6.86c0,.9.56.79.68,1.12"/>
          <path class="cls-3" d="M68.23,26.08c-5.73,1.66-5.82,8.19-1.97,10.82"/>
          <path class="cls-3" d="M61.41,28.46c-1.5,3.47-.56,7.68,2.48,10.14"/>
          <path class="cls-4" d="M62.72,5.87l-1.25,3.62,3.88,1.75s0-2.5-2.62-5.38Z"/>
          <path class="cls-3" d="M64.69,3.45c-1.83,1.34-2.66,3.37-3.17,5.83"/>
          <path class="cls-3" d="M1.81,3.95C-.02,5.29-.85,7.32-1.36,9.78"/>
          <path class="cls-3" d="M50.25,1.96c.3,1.36,2.41,1.15,1.99-.64-.54-2.29-4.12-1.6-4,.75.28,5.33,6.71,3.7,6.24-.76-.34-6.17-8.72-4.75-8.74,1.03-.02,8.83,15.13,6.62,11.01-4.5"/>
          <path class="cls-3" d="M3.86-4.19c-.8.57.4,1.92,1.48,1.06,1.99-1.59-.28-4.11-2.26-3.06C-.89-4.08,2.57,1,6.24-1.19c5-2.66.83-9.47-3.99-7.42C-5.04-5.51,1.52,6.57,8.99-.29c1.85-1.71,2.4-3.52,1.95-5.68"/>
          <path class="cls-3" d="M2.37-11.34c-.91.25-1.85.69-2.79,1.35-8.5,5.94,0,19.57,10.5,11.94,1.74-1.26,2.72-3.18,3.17-5.08"/>
          <path class="cls-3" d="M50.25,64.96c.3,1.36,2.41,1.15,1.99-.64-.54-2.29-4.12-1.6-4,.75.28,5.33,6.71,3.7,6.24-.76-.34-6.17-8.72-4.75-8.74,1.03-.02,8.82,15.13,6.62,11.01-4.5"/>
          <path class="cls-3" d="M48.14,58.2c-3.66,1.56-5.25,4.21-4.64,9.25"/>
          <path class="cls-3" d="M50.74,73.64c4.92.05,11.94-4.54,8.84-11.78"/>
          <path class="cls-3" d="M14.98,67.32c2.19-1.75.37-5.09-2.49-3.37-4.24,2.55-.56,7.93,3.49,5.51,5-2.65,2.04-9.58-2.82-8.71"/>
          <path class="cls-3" d="M7.75,66.26c-.27,4.68,5.5,9.61,11.26,4.19,2.94-2.77,2.93-6.4,1.24-9.03"/>
          <path class="cls-3" d="M-3.02,9.35C-1.89,8.39.24,5.34-.11,3.04"/>
        </g>
        <path class="cls-3" d="M29.44,10.34c-5.74,9.79,6.67,22.62,18.71,14.97"/>
        <path class="cls-3" d="M65.25,37.46c-5.4,3.6-5.17,12.26-2.25,15.19"/>
        <path class="cls-3" d="M5.08,4.21c.5,6.05,7.05,11.63,15.12,5.72,4.51-3.31,4.8-8.11,2.96-12.06.67-1.69,1.02-3.04,2.82-4.28C36.56-15.53,50.27.06,39.33,8.35c-11.6,8.79-20.34-7.21-11.57-13.17,8.78-5.98,16.62,4.96,10.38,10.7C29.91,13.45,21.89.57,30.71-3.3c5.29-2.32,9.91,5.25,4.39,8.18-4.05,2.42-7.86-3.18-3.49-5.51,2.19-1.16,4.69,1.62,2.49,3.37-1.19.95-2.51-.54-1.63-1.17"/>
        <path class="cls-3" d="M41.72,58.64c8.66-3.11,9.31-19.71-5.04-18.03"/>
        <path class="cls-3" d="M61.23,44.11c-3.9-3.46-10.62-4.2-15.02-.47"/>
      </g>
    </pattern>
  </defs>
  <g id="_レイヤー_1-2" data-name="レイヤー 1">
    <path class="cls-7" d="M0,23.86c1.16-1.2.17-1.98,2.61-2.25-.13-.02-.31,0-.45-.02-.23-1.21.19-2.34,1.59-2.64-.16-.08-.37-.34-.7-.45-.03-.6.52-1.04,1.19-1.27-.26-.46-.87-.75-1.42-.95.44-.47.91-.89,1.61-1.01-.13-.18-.38-.63-.55-.8-1.36-.43-.25-1.35.18-1.83-.11,0-.21.02-.3.06-.31-1.37,1.02-2.49.48-3.7-.05-.03-.32-.15-.36-.17,1.53-1.22,2.94-3.57,3.07-5.31.46-.06.53-.3,1.01-.33-.18-.98,1-1.35.94-2.34.16-.03.32,0,.48-.04.11-.28.32-.55.39-.82l107.99.28c-.1.51-.61.87-1.22,1.16.91,1.02-.26,1.78-.74,2.62-.77,1.33-.37,2.01-.16,3.24.07.41-.43.47-.15,1.11.21.47,1.2.95,1.35,1.29.38.9-.46,3.02-1.14,3.6,1.22.39.26,4.26.28,5.21.02.73.5,1.36.33,1.99-.08.28-1.02-.04-1.06.4-.03.26.38.51.38.56,0,.59.55,1.8,1.39,2.14-.04.04-.14.15-.13.21.11.08.28.21.33.32L0,23.86Z"/>
  </g>
</svg>