<?xml version="1.0" encoding="UTF-8"?>
<svg id="_レイヤー_2" data-name="レイヤー 2" xmlns="http://www.w3.org/2000/svg" xmlns:xlink="http://www.w3.org/1999/xlink" viewBox="0 0 119.71 24.84">
  <defs>
    <style>
      .cls-1, .cls-2 {
        fill: none;
      }

      .cls-3 {
        fill: url(#_ギリシャ_ストライプ_カラー);
        opacity: .65;
      }

      .cls-4 {
        fill: #96ac77;
      }

      .cls-2 {
        stroke: #e89e7f;
        stroke-width: 1.3px;
      }

      .cls-5 {
        fill: #e8d7ac;
      }
    </style>
    <pattern id="_ギリシャ_ストライプ_カラー" data-name="ギリシャ (ストライプ) カラー" x="0" y="0" width="69.1" height="53.59" patternTransform="translate(-429.38 250.52)" patternUnits="userSpaceOnUse" viewBox="0 0 69.1 53.59">
      <g>
        <rect class="cls-1" x="0" y="0" width="69.1" height="53.59"/>
        <rect class="cls-5" y="0" width="69.1" height="53.59"/>
        <line class="cls-2" x1="9.76" y1="53.85" x2="9.76" y2="-.31"/>
        <line class="cls-2" x1="7.53" y1="53.85" x2="7.53" y2="-.31"/>
        <line class="cls-2" x1="24.81" y1="53.85" x2="24.81" y2="-.31"/>
        <line class="cls-2" x1="27.04" y1="53.85" x2="27.04" y2="-.31"/>
        <line class="cls-2" x1="59.34" y1="53.85" x2="59.34" y2="-.31"/>
        <line class="cls-2" x1="61.57" y1="53.85" x2="61.57" y2="-.31"/>
        <line class="cls-2" x1="44.29" y1="53.85" x2="44.29" y2="-.31"/>
        <line class="cls-2" x1="42.05" y1="53.85" x2="42.05" y2="-.31"/>
        <path class="cls-4" d="M17-4.71c0,2.11-.63,3.7-2.16,4.37.05.27.05.69-.34.79.05-.14.08-.29.08-.45,0-.7-.57-1.27-1.27-1.27S12.03-.71,12.03,0s.56,1.34,1.25,1.42c.74.09,2.77-.08,3.71-3.64V1.45s-4.76,7.52-4.76,7.52v12.76c0,.82.66,1.48,1.48,1.48s1.48-.67,1.48-1.48v-12.36l-1.32-2.09,3.12-4.93v19.73c0,2.11-.63,3.7-2.16,4.37.05.27.05.68-.34.79.05-.14.08-.29.08-.45,0-.7-.57-1.27-1.27-1.27s-1.27.57-1.27,1.27.56,1.34,1.25,1.42c.74.09,2.77-.08,3.71-3.64v3.67s-4.76,7.52-4.76,7.52v12.76c0,.82.66,1.48,1.48,1.48s1.48-.67,1.48-1.48v-12.36l-1.32-2.09,3.12-4.93v19.73c0,2.11-.63,3.7-2.16,4.37.05.27.05.68-.34.79.05-.14.08-.29.08-.45,0-.7-.57-1.27-1.27-1.27s-1.27.57-1.27,1.27.56,1.34,1.25,1.42c.74.09,2.77-.08,3.71-3.64v3.67s.58,0,.58,0v-3.68c.94,3.57,2.97,3.74,3.71,3.65.7-.08,1.25-.72,1.25-1.42s-.57-1.27-1.27-1.27-1.27.57-1.27,1.27c0,.16.03.31.08.45-.39-.11-.39-.52-.34-.79-1.53-.67-2.16-2.25-2.16-4.36v-19.74s3.12,4.93,3.12,4.93l-1.32,2.09v12.36c0,.82.66,1.48,1.48,1.48s1.48-.67,1.48-1.48v-12.76s-4.75-7.52-4.75-7.52v-3.68c.94,3.57,2.97,3.74,3.71,3.65.7-.08,1.25-.72,1.25-1.42s-.57-1.27-1.27-1.27-1.27.57-1.27,1.27c0,.16.03.31.08.45-.39-.11-.39-.52-.34-.79-1.53-.67-2.16-2.25-2.16-4.36V2.35s3.12,4.93,3.12,4.93l-1.32,2.09v12.36c0,.82.66,1.48,1.48,1.48s1.48-.67,1.48-1.48v-12.76s-4.75-7.52-4.75-7.52v-3.68c.94,3.57,2.97,3.74,3.71,3.65.7-.09,1.25-.72,1.25-1.42s-.57-1.27-1.27-1.27-1.27.57-1.27,1.27c0,.16.03.31.08.45-.39-.11-.39-.52-.34-.79-1.53-.67-2.16-2.28-2.16-4.38h-.58Z"/>
        <path class="cls-4" d="M52.1-4.71c0,2.11.63,3.7,2.16,4.37-.05.27-.05.69.34.79-.05-.14-.08-.29-.08-.45,0-.7.57-1.27,1.27-1.27s1.27.57,1.27,1.27-.56,1.34-1.26,1.42c-.74.09-2.77-.08-3.71-3.64V1.45s4.76,7.52,4.76,7.52v12.76c0,.82-.66,1.48-1.48,1.48s-1.48-.67-1.48-1.48v-12.36l1.32-2.09-3.12-4.93v19.73c0,2.11.63,3.7,2.16,4.37-.05.27-.05.68.34.79-.05-.14-.08-.29-.08-.45,0-.7.57-1.27,1.27-1.27s1.27.57,1.27,1.27-.56,1.34-1.26,1.42c-.74.09-2.77-.08-3.71-3.64v3.67s4.76,7.52,4.76,7.52v12.76c0,.82-.66,1.48-1.48,1.48s-1.48-.67-1.48-1.48v-12.36l1.32-2.09-3.12-4.93v19.73c0,2.11.63,3.7,2.16,4.37-.05.27-.05.68.34.79-.05-.14-.08-.29-.08-.45,0-.7.57-1.27,1.27-1.27s1.27.57,1.27,1.27-.56,1.34-1.26,1.42c-.74.09-2.77-.08-3.71-3.64v3.67s-.58,0-.58,0v-3.68c-.94,3.57-2.97,3.74-3.71,3.65-.7-.08-1.26-.72-1.26-1.42s.57-1.27,1.27-1.27,1.27.57,1.27,1.27c0,.16-.03.31-.08.45.39-.11.39-.52.34-.79,1.53-.67,2.16-2.25,2.16-4.36v-19.74s-3.12,4.93-3.12,4.93l1.32,2.09v12.36c0,.82-.66,1.48-1.48,1.48s-1.48-.67-1.48-1.48v-12.76s4.75-7.52,4.75-7.52v-3.68c-.94,3.57-2.97,3.74-3.71,3.65-.7-.08-1.26-.72-1.26-1.42s.57-1.27,1.27-1.27,1.27.57,1.27,1.27c0,.16-.03.31-.08.45.39-.11.39-.52.34-.79,1.53-.67,2.16-2.25,2.16-4.36V2.35s-3.12,4.93-3.12,4.93l1.32,2.09v12.36c0,.82-.66,1.48-1.48,1.48s-1.48-.67-1.48-1.48v-12.76s4.75-7.52,4.75-7.52v-3.68c-.94,3.57-2.97,3.74-3.71,3.65-.7-.09-1.26-.72-1.26-1.42s.57-1.27,1.27-1.27,1.27.57,1.27,1.27c0,.16-.03.31-.08.45.39-.11.39-.52.34-.79,1.53-.67,2.16-2.28,2.16-4.38h.58Z"/>
      </g>
    </pattern>
  </defs>
  <g id="_レイヤー_1-2" data-name="レイヤー 1">
    <path class="cls-3" d="M106.39,24.84c.11-.08.07-.18.32-.16-.25-1.17,1.02-1.69.59-2.91,1.46-.17,4.86-.79,5.15-2.1,2.54-.75,1.39-2.46,2.14-3.93.9-.16.66-.92.89-1.54,1.71.01,1.33-1.44,1.79-2.38.26-.53.67-.69.84-1.29.17-.6-.01-1.34.03-1.95,1.38-.14.25-2.84,1.42-3.67-.85-.67-1.41-1.37-1.59-2.22,1.68-.03.18-1.83,1.75-2.13L0,0v24.7l106.72-.02"/>
  </g>
</svg>