<?xml version="1.0" encoding="UTF-8"?>
<svg id="_レイヤー_2" data-name="レイヤー 2" xmlns="http://www.w3.org/2000/svg" xmlns:xlink="http://www.w3.org/1999/xlink" viewBox="0 0 119.72 24.84">
  <defs>
    <style>
      .cls-1 {
        fill: none;
      }

      .cls-2 {
        fill: #f3cd2a;
      }

      .cls-3 {
        fill: #231815;
      }

      .cls-4 {
        fill: #a31d7d;
      }

      .cls-5 {
        fill: #1e99d5;
      }

      .cls-6 {
        fill: #da4c22;
      }

      .cls-7 {
        fill: url(#_マヤ_レンガ_カラー);
        opacity: .83;
      }
    </style>
    <pattern id="_マヤ_レンガ_カラー" data-name="マヤ (レンガ) カラー" x="0" y="0" width="90" height="54" patternTransform="translate(-291.02 482.72)" patternUnits="userSpaceOnUse" viewBox="0 0 90 54">
      <g>
        <rect class="cls-1" width="90" height="54"/>
        <rect class="cls-4" width="90" height="54"/>
        <polygon class="cls-6" points="15.75 51.75 15.75 47.25 11.25 47.25 11.25 42.75 6.75 42.75 6.75 38.25 2.25 38.25 2.25 33.75 -2.25 33.75 -2.25 38.25 -6.75 38.25 -6.75 47.25 -2.25 47.25 -2.25 42.75 2.25 42.75 2.25 47.25 6.75 47.25 6.75 51.75 11.25 51.75 11.25 56.25 6.75 56.25 6.75 60.75 15.75 60.75 15.75 56.25 20.25 56.25 20.25 51.75 15.75 51.75"/>
        <path class="cls-5" d="M6.75,56.25v4.5H-6.75v-13.5H-2.25v-4.5H2.25v4.5h4.5v4.5h4.5v4.5h-4.5ZM2.25,51.75H-2.25v4.5H2.25v-4.5Z"/>
        <rect class="cls-3" x="-2.25" y="51.75" width="4.5" height="4.5"/>
        <polygon class="cls-2" points="60.75 51.75 60.75 47.25 56.25 47.25 56.25 42.75 51.75 42.75 51.75 38.25 47.25 38.25 47.25 33.75 42.75 33.75 42.75 38.25 38.25 38.25 38.25 42.75 33.75 42.75 33.75 47.25 29.25 47.25 29.25 51.75 24.75 51.75 24.75 56.25 29.25 56.25 29.25 60.75 38.25 60.75 38.25 56.25 33.75 56.25 33.75 51.75 38.25 51.75 38.25 47.25 42.75 47.25 42.75 42.75 47.25 42.75 47.25 47.25 51.75 47.25 51.75 51.75 56.25 51.75 56.25 56.25 51.75 56.25 51.75 60.75 60.75 60.75 60.75 56.25 65.25 56.25 65.25 51.75 60.75 51.75"/>
        <path class="cls-6" d="M51.75,56.25v4.5h-13.5v-4.5h-4.5v-4.5h4.5v-4.5h4.5v-4.5h4.5v4.5h4.5v4.5h4.5v4.5h-4.5ZM47.25,51.75h-4.5v4.5h4.5v-4.5Z"/>
        <rect class="cls-3" x="42.75" y="51.75" width="4.5" height="4.5"/>
        <path class="cls-5" d="M42.75,24.75v4.5h-4.5v4.5h-4.5v4.5h-4.5v4.5h-4.5v4.5h-4.5v-4.5h-4.5v-4.5h-4.5v-4.5h-4.5v-4.5H2.25v-4.5h4.5v-4.5h4.5v-4.5h4.5v-4.5h4.5v-4.5h4.5v4.5h4.5v4.5h4.5v4.5h4.5v4.5h4.5ZM33.75,24.75h-4.5v-4.5h-4.5v-4.5h-4.5v4.5h-4.5v4.5h-4.5v4.5h4.5v4.5h4.5v4.5h4.5v-4.5h4.5v-4.5h4.5v-4.5Z"/>
        <path class="cls-2" d="M29.25,24.75h4.5v4.5h-4.5v4.5h-4.5v4.5h-4.5v-4.5h-4.5v-4.5h-4.5v-4.5h4.5v-4.5h4.5v-4.5h4.5v4.5h4.5v4.5ZM24.75,24.75h-4.5v4.5h4.5v-4.5Z"/>
        <rect class="cls-3" x="20.25" y="24.75" width="4.5" height="4.5"/>
        <polygon class="cls-6" points="15.75 -2.25 15.75 -6.75 6.75 -6.75 6.75 -2.25 11.25 -2.25 11.25 2.25 6.75 2.25 6.75 6.75 2.25 6.75 2.25 11.25 -2.25 11.25 -2.25 6.75 -6.75 6.75 -6.75 15.75 -2.25 15.75 -2.25 20.25 2.25 20.25 2.25 15.75 6.75 15.75 6.75 11.25 11.25 11.25 11.25 6.75 15.75 6.75 15.75 2.25 20.25 2.25 20.25 -2.25 15.75 -2.25"/>
        <path class="cls-5" d="M-2.25,6.75h-4.5V-6.75H6.75V-2.25h4.5V2.25h-4.5v4.5H2.25v4.5H-2.25v-4.5ZM-2.25,2.25H2.25V-2.25H-2.25V2.25Z"/>
        <rect class="cls-3" x="-2.25" y="-2.25" width="4.5" height="4.5"/>
        <polygon class="cls-2" points="60.75 -2.25 60.75 -6.75 51.75 -6.75 51.75 -2.25 56.25 -2.25 56.25 2.25 51.75 2.25 51.75 6.75 47.25 6.75 47.25 11.25 42.75 11.25 42.75 6.75 38.25 6.75 38.25 2.25 33.75 2.25 33.75 -2.25 38.25 -2.25 38.25 -6.75 29.25 -6.75 29.25 -2.25 24.75 -2.25 24.75 2.25 29.25 2.25 29.25 6.75 33.75 6.75 33.75 11.25 38.25 11.25 38.25 15.75 42.75 15.75 42.75 20.25 47.25 20.25 47.25 15.75 51.75 15.75 51.75 11.25 56.25 11.25 56.25 6.75 60.75 6.75 60.75 2.25 65.25 2.25 65.25 -2.25 60.75 -2.25"/>
        <path class="cls-6" d="M38.25-2.25v-4.5h13.5V-2.25h4.5V2.25h-4.5v4.5h-4.5v4.5h-4.5v-4.5h-4.5V2.25h-4.5V-2.25h4.5ZM42.75,2.25h4.5V-2.25h-4.5V2.25Z"/>
        <rect class="cls-3" x="42.75" y="-2.25" width="4.5" height="4.5"/>
        <path class="cls-5" d="M87.75,24.75v4.5h-4.5v4.5h-4.5v4.5h-4.5v4.5h-4.5v4.5h-4.5v-4.5h-4.5v-4.5h-4.5v-4.5h-4.5v-4.5h-4.5v-4.5h4.5v-4.5h4.5v-4.5h4.5v-4.5h4.5v-4.5h4.5v4.5h4.5v4.5h4.5v4.5h4.5v4.5h4.5ZM78.75,24.75h-4.5v-4.5h-4.5v-4.5h-4.5v4.5h-4.5v4.5h-4.5v4.5h4.5v4.5h4.5v4.5h4.5v-4.5h4.5v-4.5h4.5v-4.5Z"/>
        <path class="cls-2" d="M74.25,24.75h4.5v4.5h-4.5v4.5h-4.5v4.5h-4.5v-4.5h-4.5v-4.5h-4.5v-4.5h4.5v-4.5h4.5v-4.5h4.5v4.5h4.5v4.5ZM69.75,24.75h-4.5v4.5h4.5v-4.5Z"/>
        <rect class="cls-3" x="65.25" y="24.75" width="4.5" height="4.5"/>
        <polygon class="cls-6" points="92.25 38.25 92.25 33.75 87.75 33.75 87.75 38.25 83.25 38.25 83.25 42.75 78.75 42.75 78.75 47.25 74.25 47.25 74.25 51.75 69.75 51.75 69.75 56.25 74.25 56.25 74.25 60.75 83.25 60.75 83.25 56.25 78.75 56.25 78.75 51.75 83.25 51.75 83.25 47.25 87.75 47.25 87.75 42.75 92.25 42.75 92.25 47.25 96.75 47.25 96.75 38.25 92.25 38.25"/>
        <path class="cls-5" d="M92.25,47.25h4.5v13.5h-13.5v-4.5h-4.5v-4.5h4.5v-4.5h4.5v-4.5h4.5v4.5ZM92.25,51.75h-4.5v4.5h4.5v-4.5Z"/>
        <rect class="cls-3" x="87.75" y="51.75" width="4.5" height="4.5"/>
        <polygon class="cls-6" points="92.25 11.25 87.75 11.25 87.75 6.75 83.25 6.75 83.25 2.25 78.75 2.25 78.75 -2.25 83.25 -2.25 83.25 -6.75 74.25 -6.75 74.25 -2.25 69.75 -2.25 69.75 2.25 74.25 2.25 74.25 6.75 78.75 6.75 78.75 11.25 83.25 11.25 83.25 15.75 87.75 15.75 87.75 20.25 92.25 20.25 92.25 15.75 96.75 15.75 96.75 6.75 92.25 6.75 92.25 11.25"/>
        <path class="cls-5" d="M96.75-6.75V6.75h-4.5v4.5h-4.5v-4.5h-4.5V2.25h-4.5V-2.25h4.5v-4.5h13.5ZM92.25-2.25h-4.5V2.25h4.5V-2.25Z"/>
        <rect class="cls-3" x="87.75" y="-2.25" width="4.5" height="4.5"/>
      </g>
    </pattern>
  </defs>
  <g id="_レイヤー_1-2" data-name="レイヤー 1">
    <path class="cls-7" d="M106.39,24.84c.11-.09.08-.18.33-.16-.25-1.17,1.03-1.69.59-2.91,1.46-.17,4.86-.79,5.15-2.1,2.54-.74,1.39-2.46,2.14-3.93.9-.16.66-.92.89-1.54,1.71.01,1.33-1.44,1.79-2.38.26-.53.67-.69.84-1.3.17-.59-.01-1.34.03-1.94,1.38-.14.25-2.84,1.42-3.67-.85-.67-1.41-1.37-1.59-2.22,1.68-.03.18-1.83,1.75-2.13L0,0v24.7l106.72-.02"/>
  </g>
</svg>