<?xml version="1.0" encoding="UTF-8"?>
<svg id="_レイヤー_2" data-name="レイヤー 2" xmlns="http://www.w3.org/2000/svg" xmlns:xlink="http://www.w3.org/1999/xlink" viewBox="0 0 119.71 24.84">
  <defs>
    <style>
      .cls-1 {
        fill: none;
      }

      .cls-2 {
        fill: url(#_中世_菱形_);
        opacity: .65;
      }

      .cls-3 {
        fill: #231815;
      }
    </style>
    <pattern id="_中世_菱形_" data-name="中世 (菱形)" x="0" y="0" width="28.68" height="38.88" patternTransform="translate(-152.72 404.05)" patternUnits="userSpaceOnUse" viewBox="0 0 28.68 38.88">
      <g>
        <rect class="cls-1" y="0" width="28.68" height="38.88"/>
        <path class="cls-3" d="M25.26,19.44l-10.92,16.86L3.42,19.44,14.34,2.58l10.92,16.86ZM23.94,19.44c-1.02,0-1.15-2.25-3.61-2.25.19-.44.28-.9.28-1.41,0-2.04-1.65-3.69-3.69-3.69-.08,0-.16-.02-.24,0,0-2.64-2.34-3.74-2.34-5.24,0,1.5-2.34,2.6-2.34,5.24-.08,0-.16,0-.24,0-2.04,0-3.69,1.65-3.69,3.69,0,.51.09.97.28,1.41-2.46,0-2.59,2.25-3.61,2.25,1.02,0,1.15,2.25,3.61,2.25-.19.44-.28.9-.28,1.41,0,2.04,1.65,3.69,3.69,3.69.08,0,.16.02.24.01,0,2.64,2.34,3.74,2.34,5.24,0-1.5,2.34-2.6,2.34-5.24.08,0,.16-.01.24-.01,2.04,0,3.69-1.65,3.69-3.69,0-.51-.1-.97-.28-1.41,2.46,0,2.59-2.25,3.61-2.25Z"/>
        <path class="cls-1" d="M23.94,19.44c-1.02,0-1.15,2.25-3.61,2.25.19.44.28.9.28,1.41,0,2.04-1.65,3.69-3.69,3.69-.08,0-.16.02-.24.01,0,2.64-2.34,3.74-2.34,5.24,0-1.5-2.34-2.6-2.34-5.24-.08,0-.16-.01-.24-.01-2.04,0-3.69-1.65-3.69-3.69,0-.51.09-.97.28-1.41-2.46,0-2.59-2.25-3.61-2.25,1.02,0,1.15-2.25,3.61-2.25-.19-.44-.28-.9-.28-1.41,0-2.04,1.65-3.69,3.69-3.69.08,0,.16-.02.24,0,0-2.64,2.34-3.74,2.34-5.24,0,1.5,2.34,2.6,2.34,5.24.08,0,.16,0,.24,0,2.04,0,3.69,1.65,3.69,3.69,0,.51-.1.97-.28,1.41,2.46,0,2.59,2.25,3.61,2.25ZM14.34,18.44c.03-1.81,2.78-5.74,0-5.7-2.78.04-.03,3.89,0,5.7ZM13.34,19.44c-1.81-.04-5.74-2.79-5.7,0,.04,2.79,3.89.04,5.7,0ZM14.34,20.44c-.04,1.81-2.79,5.74,0,5.7,2.78-.04.03-3.89,0-5.7ZM21.04,19.44c-.04-2.79-3.89-.04-5.7,0,1.8.04,5.74,2.79,5.7,0Z"/>
        <path class="cls-3" d="M14.34,12.74c-2.78.04-.03,3.89,0,5.7.03-1.81,2.78-5.74,0-5.7Z"/>
        <path class="cls-3" d="M7.64,19.44c.04,2.79,3.89.04,5.7,0-1.81-.04-5.74-2.79-5.7,0Z"/>
        <path class="cls-3" d="M14.34,26.14c2.78-.04.03-3.89,0-5.7-.04,1.81-2.79,5.74,0,5.7Z"/>
        <path class="cls-3" d="M15.34,19.44c1.8.04,5.74,2.79,5.7,0-.04-2.79-3.89-.04-5.7,0Z"/>
        <path class="cls-3" d="M39.6,0l-10.92,16.86L17.76,0l10.92-16.86L39.6,0ZM31.02,7.36V-2.25h-8.33c-2.46,0-2.59,2.25-3.61,2.25,1.02,0,1.15,2.25,3.61,2.25-.18.44-.28.9-.28,1.41,0,2.04,1.65,3.69,3.69,3.69.08,0,.16.02.24.01,0,2.64,2.34,3.74,2.34,5.24,0-1.5,2.34-2.6,2.34-5.24Z"/>
        <path class="cls-1" d="M31.02-2.25V7.36c0,2.64-2.34,3.74-2.34,5.24,0-1.5-2.34-2.6-2.34-5.24-.08,0-.16-.01-.24-.01-2.04,0-3.69-1.65-3.69-3.69,0-.51.1-.97.28-1.41-2.46,0-2.59-2.25-3.61-2.25,1.02,0,1.15-2.25,3.61-2.25h8.33ZM27.68,0c-1.81-.04-5.74-2.79-5.7,0,.04,2.79,3.89.04,5.7,0ZM28.68,1c-.03,1.81-2.78,5.74,0,5.7,2.78-.04.03-3.89,0-5.7Z"/>
        <path class="cls-3" d="M21.98,0c.04,2.79,3.89.04,5.7,0-1.81-.04-5.74-2.79-5.7,0Z"/>
        <path class="cls-3" d="M28.68,6.7c2.78-.04.03-3.89,0-5.7-.03,1.81-2.78,5.74,0,5.7Z"/>
        <path class="cls-3" d="M10.92,0L0,16.86-10.92,0,0-16.86,10.92,0ZM9.6,0c-1.02,0-1.15-2.25-3.61-2.25H-2.34V7.36c0,2.64,2.34,3.74,2.34,5.24,0-1.5,2.34-2.6,2.34-5.24.08,0,.16-.01.24-.01,2.04,0,3.69-1.65,3.69-3.69,0-.51-.09-.97-.28-1.41,2.46,0,2.59-2.25,3.61-2.25Z"/>
        <path class="cls-1" d="M9.6,0c-1.02,0-1.15,2.25-3.61,2.25.19.44.28.9.28,1.41,0,2.04-1.65,3.69-3.69,3.69-.08,0-.16.02-.24.01,0,2.64-2.34,3.74-2.34,5.24,0-1.5-2.34-2.6-2.34-5.24V-2.25H5.99c2.46,0,2.59,2.25,3.61,2.25ZM0,1c-.04,1.81-2.79,5.74,0,5.7,2.78-.04.03-3.89,0-5.7ZM6.7,0c-.04-2.79-3.89-.04-5.7,0,1.81.04,5.74,2.79,5.7,0Z"/>
        <path class="cls-3" d="M0,6.7c2.78-.04.03-3.89,0-5.7-.04,1.81-2.79,5.74,0,5.7Z"/>
        <path class="cls-3" d="M1,0c1.81.04,5.74,2.79,5.7,0-.04-2.79-3.89-.04-5.7,0Z"/>
        <path class="cls-3" d="M10.92,38.88L0,55.74l-10.92-16.86L0,22.02l10.92,16.86ZM9.6,38.88c-1.02,0-1.15-2.25-3.61-2.25.19-.44.28-.9.28-1.41,0-2.04-1.65-3.69-3.69-3.69-.08,0-.16-.02-.24-.01,0-2.64-2.34-3.74-2.34-5.24,0,1.5-2.34,2.6-2.34,5.24v9.61H5.99c2.46,0,2.59-2.25,3.61-2.25Z"/>
        <path class="cls-1" d="M9.6,38.88c-1.02,0-1.15,2.25-3.61,2.25H-2.34v-9.61c0-2.64,2.34-3.74,2.34-5.24,0,1.5,2.34,2.6,2.34,5.24.08,0,.16.01.24.01,2.04,0,3.69,1.65,3.69,3.69,0,.51-.09.97-.28,1.41,2.46,0,2.59,2.25,3.61,2.25ZM0,37.88c.04-1.81,2.79-5.74,0-5.7-2.78.04-.03,3.89,0,5.7ZM6.7,38.88c-.04-2.78-3.89-.03-5.7,0,1.81.04,5.74,2.79,5.7,0Z"/>
        <path class="cls-3" d="M0,32.18c-2.78.04-.03,3.89,0,5.7.04-1.81,2.79-5.74,0-5.7Z"/>
        <path class="cls-3" d="M1,38.88c1.81.04,5.74,2.79,5.7,0-.04-2.78-3.89-.03-5.7,0Z"/>
        <path class="cls-3" d="M39.6,38.88l-10.92,16.86-10.92-16.86,10.92-16.86,10.92,16.86ZM31.02,41.13v-9.61c0-2.64-2.34-3.74-2.34-5.24,0,1.5-2.34,2.6-2.34,5.24-.08,0-.16.01-.24.01-2.04,0-3.69,1.65-3.69,3.69,0,.51.1.97.28,1.41-2.46,0-2.59,2.25-3.61,2.25,1.02,0,1.15,2.25,3.61,2.25h8.33Z"/>
        <path class="cls-1" d="M31.02,31.52v9.61h-8.33c-2.46,0-2.59-2.25-3.61-2.25,1.02,0,1.15-2.25,3.61-2.25-.18-.44-.28-.9-.28-1.41,0-2.04,1.65-3.69,3.69-3.69.08,0,.16-.02.24-.01,0-2.64,2.34-3.74,2.34-5.24,0,1.5,2.34,2.6,2.34,5.24ZM27.68,38.88c-1.81-.03-5.74-2.78-5.7,0,.04,2.79,3.89.04,5.7,0ZM28.68,32.18c-2.78.04-.03,3.89,0,5.7.04-1.81,2.79-5.74,0-5.7Z"/>
        <path class="cls-3" d="M28.68,32.18c-2.78.04-.03,3.89,0,5.7.04-1.81,2.79-5.74,0-5.7Z"/>
        <path class="cls-3" d="M21.98,38.88c.04,2.79,3.89.04,5.7,0-1.81-.03-5.74-2.78-5.7,0Z"/>
      </g>
    </pattern>
  </defs>
  <g id="_レイヤー_1-2" data-name="レイヤー 1">
    <path class="cls-2" d="M106.39,24.84c.11-.09.08-.18.33-.16-.25-1.17,1.03-1.69.59-2.91,1.46-.17,4.86-.79,5.15-2.1,2.54-.75,1.39-2.46,2.14-3.93.9-.16.66-.92.89-1.54,1.71.01,1.33-1.44,1.79-2.38.26-.53.67-.69.84-1.29.17-.6-.01-1.34.03-1.95,1.38-.14.25-2.84,1.42-3.67-.85-.67-1.41-1.37-1.59-2.22,1.68-.03.18-1.83,1.75-2.13L0,0v24.7l106.72-.02"/>
  </g>
</svg>