<svg width="341" height="269" viewBox="0 0 341 269" fill="none" xmlns="http://www.w3.org/2000/svg">
<path d="M24.256 75.088C19.9467 75.088 16.128 74.1067 12.8 72.144C9.51467 70.1813 6.93333 67.4507 5.056 63.952C3.17867 60.4533 2.24 56.4 2.24 51.792C2.24 47.312 3.17867 43.3653 5.056 39.952C6.93333 36.496 9.51467 33.808 12.8 31.888C16.128 29.9253 19.9467 28.944 24.256 28.944C28.5227 28.944 32.2987 29.9253 35.584 31.888C38.8693 33.808 41.4293 36.496 43.264 39.952C45.1413 43.3653 46.08 47.312 46.08 51.792C46.08 56.4 45.1413 60.4533 43.264 63.952C41.4293 67.4507 38.8693 70.1813 35.584 72.144C32.2987 74.1067 28.5227 75.088 24.256 75.088ZM24.256 74C28.3093 73.9573 31.8933 72.9973 35.008 71.12C38.1227 69.2427 40.5547 66.64 42.304 63.312C44.0533 59.984 44.928 56.144 44.928 51.792C44.928 47.5253 44.0533 43.7707 42.304 40.528C40.5547 37.2427 38.1227 34.6827 35.008 32.848C31.8933 30.9707 28.3093 30.032 24.256 30.032C20.2027 30.032 16.5973 30.9707 13.44 32.848C10.2827 34.6827 7.808 37.2427 6.016 40.528C4.26667 43.7707 3.392 47.5253 3.392 51.792C3.392 56.144 4.26667 59.984 6.016 63.312C7.808 66.64 10.2827 69.2427 13.44 71.12C16.5973 72.9973 20.2027 73.9573 24.256 74ZM60.1525 74V72.912H62.5205C63.2032 72.912 63.6725 72.784 63.9285 72.528C64.1845 72.2293 64.3125 71.76 64.3125 71.12V32.912C64.3125 32.272 64.1845 31.824 63.9285 31.568C63.6725 31.2693 63.2032 31.12 62.5205 31.12H60.1525V30.032H65.4645V52.496C66.2752 50.832 67.6192 49.488 69.4965 48.464C71.4165 47.3973 73.4645 46.864 75.6405 46.864C78.9258 46.864 81.5925 47.824 83.6405 49.744C85.6885 51.6213 86.7125 54.352 86.7125 57.936V72.912H90.1685V74H81.4005V72.912H83.7685C84.4512 72.912 84.9205 72.784 85.1765 72.528C85.4325 72.2293 85.5605 71.76 85.5605 71.12V57.936C85.5605 54.6933 84.6218 52.24 82.7445 50.576C80.9098 48.8693 78.5418 48.016 75.6405 48.016C73.7205 48.016 71.9925 48.4213 70.4565 49.232C68.9205 50 67.7045 51.1093 66.8085 52.56C65.9125 53.968 65.4645 55.6533 65.4645 57.616V72.912H68.9205V74H60.1525ZM106.899 63.184V26.256H108.051V63.184H106.899ZM107.475 73.872C106.835 73.872 106.28 73.6587 105.811 73.232C105.384 72.7627 105.171 72.208 105.171 71.568C105.171 70.928 105.384 70.3947 105.811 69.968C106.28 69.4987 106.835 69.264 107.475 69.264C108.115 69.264 108.648 69.4987 109.075 69.968C109.544 70.3947 109.779 70.928 109.779 71.568C109.779 72.208 109.544 72.7627 109.075 73.232C108.648 73.6587 108.115 73.872 107.475 73.872Z" fill="black"/>
<path d="M2.016 200V199.388H3.6C4.272 199.388 4.608 199.04 4.608 198.344V176.924C4.608 176.228 4.284 175.88 3.636 175.88H1.8V175.268H18.684V178.256H18.036V175.88H5.256V186.248H14.976V184.304H15.624V188.804H14.976V186.86H5.256V199.388H18.036V197.336H18.684V200H2.016ZM27.1561 200V199.388H28.4881C28.8721 199.388 29.1361 199.316 29.2801 199.172C29.4241 199.004 29.4961 198.74 29.4961 198.38V186.968C29.4961 186.608 29.4241 186.356 29.2801 186.212C29.1361 186.044 28.8721 185.96 28.4881 185.96H27.1561V185.348H30.1441V187.94C30.5041 186.98 31.1281 186.212 32.0161 185.636C32.9281 185.036 33.9361 184.736 35.0401 184.736C36.0961 184.736 36.9601 184.964 37.6321 185.42C38.3041 185.852 38.7601 186.356 39.0001 186.932C39.2401 187.508 39.2401 187.976 39.0001 188.336C38.8321 188.576 38.6161 188.648 38.3521 188.552C38.1121 188.456 37.9681 188.3 37.9201 188.084C37.8961 187.82 37.9321 187.64 38.0281 187.544C38.1481 187.448 38.2321 187.352 38.2801 187.256C38.3521 187.136 38.3041 186.944 38.1361 186.68C37.8961 186.272 37.4761 185.948 36.8761 185.708C36.2761 185.468 35.6641 185.348 35.0401 185.348C33.8641 185.348 32.9161 185.636 32.1961 186.212C31.4761 186.788 30.9481 187.484 30.6121 188.3C30.3001 189.092 30.1441 189.824 30.1441 190.496V199.388H32.0881V200H27.1561ZM47.6733 200V199.388H49.0053C49.3893 199.388 49.6533 199.316 49.7973 199.172C49.9413 199.004 50.0133 198.74 50.0133 198.38V186.968C50.0133 186.608 49.9413 186.356 49.7973 186.212C49.6533 186.044 49.3893 185.96 49.0053 185.96H47.6733V185.348H50.6613V187.94C51.0213 186.98 51.6453 186.212 52.5333 185.636C53.4453 185.036 54.4533 184.736 55.5573 184.736C56.6133 184.736 57.4773 184.964 58.1493 185.42C58.8213 185.852 59.2773 186.356 59.5173 186.932C59.7573 187.508 59.7573 187.976 59.5173 188.336C59.3493 188.576 59.1333 188.648 58.8693 188.552C58.6293 188.456 58.4853 188.3 58.4373 188.084C58.4133 187.82 58.4493 187.64 58.5453 187.544C58.6653 187.448 58.7493 187.352 58.7973 187.256C58.8693 187.136 58.8213 186.944 58.6533 186.68C58.4133 186.272 57.9933 185.948 57.3933 185.708C56.7933 185.468 56.1813 185.348 55.5573 185.348C54.3813 185.348 53.4333 185.636 52.7133 186.212C51.9933 186.788 51.4653 187.484 51.1293 188.3C50.8173 189.092 50.6613 189.824 50.6613 190.496V199.388H52.6053V200H47.6733ZM74.8673 200.648C73.4033 200.648 72.1073 200.312 70.9793 199.64C69.8513 198.968 68.9633 198.032 68.3153 196.832C67.6673 195.632 67.3313 194.252 67.3073 192.692C67.3073 191.132 67.6193 189.752 68.2433 188.552C68.8913 187.352 69.7793 186.416 70.9073 185.744C72.0593 185.072 73.3793 184.736 74.8673 184.736C76.3553 184.736 77.6633 185.072 78.7913 185.744C79.9193 186.416 80.7953 187.352 81.4193 188.552C82.0673 189.752 82.3913 191.132 82.3913 192.692C82.3913 194.252 82.0673 195.632 81.4193 196.832C80.7953 198.032 79.9193 198.968 78.7913 199.64C77.6633 200.312 76.3553 200.648 74.8673 200.648ZM74.8673 200C76.2113 200 77.3993 199.7 78.4313 199.1C79.4633 198.476 80.2673 197.612 80.8433 196.508C81.4433 195.404 81.7433 194.132 81.7433 192.692C81.7433 191.252 81.4433 189.98 80.8433 188.876C80.2673 187.772 79.4633 186.908 78.4313 186.284C77.3993 185.66 76.2113 185.36 74.8673 185.384C73.5233 185.384 72.3233 185.708 71.2673 186.356C70.2353 186.98 69.4193 187.844 68.8193 188.948C68.2433 190.028 67.9553 191.276 67.9553 192.692C67.9553 194.108 68.2433 195.368 68.8193 196.472C69.4193 197.552 70.2353 198.404 71.2673 199.028C72.3233 199.652 73.5233 199.976 74.8673 200ZM89.4108 200V199.388H90.7428C91.1268 199.388 91.3908 199.316 91.5348 199.172C91.6788 199.004 91.7508 198.74 91.7508 198.38V186.968C91.7508 186.608 91.6788 186.356 91.5348 186.212C91.3908 186.044 91.1268 185.96 90.7428 185.96H89.4108V185.348H92.3988V187.94C92.7588 186.98 93.3828 186.212 94.2708 185.636C95.1828 185.036 96.1908 184.736 97.2948 184.736C98.3508 184.736 99.2148 184.964 99.8868 185.42C100.559 185.852 101.015 186.356 101.255 186.932C101.495 187.508 101.495 187.976 101.255 188.336C101.087 188.576 100.871 188.648 100.607 188.552C100.367 188.456 100.223 188.3 100.175 188.084C100.151 187.82 100.187 187.64 100.283 187.544C100.403 187.448 100.487 187.352 100.535 187.256C100.607 187.136 100.559 186.944 100.391 186.68C100.151 186.272 99.7308 185.948 99.1308 185.708C98.5308 185.468 97.9188 185.348 97.2948 185.348C96.1188 185.348 95.1708 185.636 94.4508 186.212C93.7308 186.788 93.2028 187.484 92.8668 188.3C92.5548 189.092 92.3988 189.824 92.3988 190.496V199.388H94.3428V200H89.4108Z" fill="black"/>
<path d="M132.056 198.208H143.448V177.6H106.968C110.125 170.773 113.112 164.501 115.928 158.784C118.829 153.067 121.432 148.075 123.736 143.808C126.125 139.456 128.131 135.872 129.752 133.056C131.459 130.24 132.653 128.32 133.336 127.296C136.408 122.432 138.883 118.677 140.76 116.032C142.723 113.301 144.387 111.253 145.752 109.888C147.117 108.523 148.269 107.712 149.208 107.456C150.232 107.115 151.384 106.944 152.664 106.944C154.883 106.944 156.291 107.285 156.888 107.968C157.571 108.565 157.912 109.248 157.912 110.016C157.912 110.443 157.656 110.955 157.144 111.552C156.717 112.149 155.565 113.344 153.688 115.136C151.725 117.013 149.891 118.805 148.184 120.512C146.563 122.219 145.027 123.925 143.576 125.632C142.125 127.253 140.675 128.917 139.224 130.624C137.859 132.245 136.451 133.909 135 135.616C129.88 141.675 125.272 148.245 121.176 155.328C117.165 162.325 113.368 169.024 109.784 175.424H143.448V141.248H154.456V175.424H165.848V177.6H154.456V198.208H165.848V200H132.056V198.208ZM204.828 154.304C204.828 162.24 205.041 169.109 205.468 174.912C205.98 180.629 206.833 185.365 208.028 189.12C209.308 192.789 211.057 195.52 213.276 197.312C215.495 199.104 218.396 200 221.98 200C225.564 200 228.465 199.104 230.684 197.312C232.903 195.52 234.609 192.789 235.804 189.12C237.084 185.365 237.937 180.629 238.364 174.912C238.876 169.109 239.132 162.24 239.132 154.304C239.132 146.368 238.876 139.541 238.364 133.824C237.937 128.107 237.084 123.413 235.804 119.744C234.609 115.989 232.903 113.216 230.684 111.424C228.465 109.632 225.564 108.736 221.98 108.736C218.396 108.736 215.495 109.632 213.276 111.424C211.057 113.216 209.308 115.989 208.028 119.744C206.833 123.413 205.98 128.107 205.468 133.824C205.041 139.541 204.828 146.368 204.828 154.304ZM192.028 154.304C192.028 149.184 192.412 143.851 193.18 138.304C194.033 132.672 195.569 127.552 197.788 122.944C200.007 118.251 203.036 114.411 206.876 111.424C210.801 108.437 215.836 106.944 221.98 106.944C228.124 106.944 233.116 108.437 236.956 111.424C240.881 114.411 243.953 118.251 246.172 122.944C248.391 127.552 249.884 132.672 250.652 138.304C251.505 143.851 251.932 149.184 251.932 154.304C251.932 159.509 251.505 164.928 250.652 170.56C249.884 176.107 248.391 181.227 246.172 185.92C243.953 190.528 240.881 194.325 236.956 197.312C233.116 200.299 228.124 201.792 221.98 201.792C215.836 201.792 210.801 200.299 206.876 197.312C203.036 194.325 200.007 190.528 197.788 185.92C195.569 181.227 194.033 176.107 193.18 170.56C192.412 164.928 192.028 159.509 192.028 154.304ZM303.456 198.208H314.848V177.6H278.368C281.525 170.773 284.512 164.501 287.328 158.784C290.229 153.067 292.832 148.075 295.136 143.808C297.525 139.456 299.531 135.872 301.152 133.056C302.859 130.24 304.053 128.32 304.736 127.296C307.808 122.432 310.283 118.677 312.16 116.032C314.123 113.301 315.787 111.253 317.152 109.888C318.517 108.523 319.669 107.712 320.608 107.456C321.632 107.115 322.784 106.944 324.064 106.944C326.283 106.944 327.691 107.285 328.288 107.968C328.971 108.565 329.312 109.248 329.312 110.016C329.312 110.443 329.056 110.955 328.544 111.552C328.117 112.149 326.965 113.344 325.088 115.136C323.125 117.013 321.291 118.805 319.584 120.512C317.963 122.219 316.427 123.925 314.976 125.632C313.525 127.253 312.075 128.917 310.624 130.624C309.259 132.245 307.851 133.909 306.4 135.616C301.28 141.675 296.672 148.245 292.576 155.328C288.565 162.325 284.768 169.024 281.184 175.424H314.848V141.248H325.856V175.424H337.248V177.6H325.856V198.208H337.248V200H303.456V198.208Z" fill="black"/>
<path d="M61.84 263V262.66H62.58C62.7933 262.66 62.94 262.62 63.02 262.54C63.1 262.447 63.14 262.3 63.14 262.1V258.7H56.4V258.36H57.66L62.8 249.26L63.12 249.42L58.06 258.36H63.14V252.88H63.5V258.36H65.26C65.4333 258.36 65.5467 258.32 65.6 258.24C65.6533 258.147 65.7067 258.06 65.76 257.98C65.8133 257.887 65.92 257.84 66.08 257.84C66.1867 257.84 66.28 257.88 66.36 257.96C66.4533 258.04 66.5 258.14 66.5 258.26C66.5 258.38 66.4533 258.487 66.36 258.58C66.28 258.66 66.1867 258.7 66.08 258.7H63.5V262.66H64.58V263H61.84ZM76.0008 263.3C75.0408 263.3 74.2141 263 73.5208 262.4C72.8274 261.787 72.2941 260.947 71.9208 259.88C71.5474 258.8 71.3541 257.567 71.3408 256.18C71.3408 254.753 71.5208 253.493 71.8808 252.4C72.2541 251.307 72.7874 250.453 73.4808 249.84C74.1874 249.213 75.0274 248.9 76.0008 248.9C76.9741 248.9 77.8074 249.213 78.5008 249.84C79.1941 250.453 79.7274 251.307 80.1008 252.4C80.4741 253.493 80.6608 254.753 80.6608 256.18C80.6608 257.567 80.4741 258.8 80.1008 259.88C79.7274 260.947 79.1941 261.787 78.5008 262.4C77.8074 263 76.9741 263.3 76.0008 263.3ZM76.0008 262.94C76.8941 262.94 77.6608 262.653 78.3008 262.08C78.9408 261.507 79.4274 260.713 79.7608 259.7C80.1074 258.673 80.2808 257.5 80.2808 256.18C80.2808 254.833 80.1074 253.647 79.7608 252.62C79.4274 251.58 78.9408 250.76 78.3008 250.16C77.6608 249.56 76.8941 249.26 76.0008 249.26C75.1074 249.247 74.3408 249.54 73.7008 250.14C73.0608 250.74 72.5674 251.56 72.2208 252.6C71.8741 253.64 71.7008 254.833 71.7008 256.18C71.7008 257.487 71.8741 258.647 72.2208 259.66C72.5674 260.673 73.0608 261.473 73.7008 262.06C74.3408 262.633 75.1074 262.927 76.0008 262.94ZM90.633 263V262.66H91.373C91.5863 262.66 91.733 262.62 91.813 262.54C91.893 262.447 91.933 262.3 91.933 262.1V258.7H85.193V258.36H86.453L91.593 249.26L91.913 249.42L86.853 258.36H91.933V252.88H92.293V258.36H94.053C94.2263 258.36 94.3396 258.32 94.393 258.24C94.4463 258.147 94.4996 258.06 94.553 257.98C94.6063 257.887 94.713 257.84 94.873 257.84C94.9796 257.84 95.073 257.88 95.153 257.96C95.2463 258.04 95.293 258.14 95.293 258.26C95.293 258.38 95.2463 258.487 95.153 258.58C95.073 258.66 94.9796 258.7 94.873 258.7H92.293V262.66H93.373V263H90.633ZM108.92 267.84V267.5H110V255.78C110 255.58 109.96 255.44 109.88 255.36C109.8 255.267 109.653 255.22 109.44 255.22H108.7V254.88H110.36V257.16C110.667 256.373 111.16 255.74 111.84 255.26C112.52 254.767 113.32 254.52 114.24 254.52C115.067 254.52 115.793 254.713 116.42 255.1C117.047 255.487 117.533 256.013 117.88 256.68C118.24 257.333 118.42 258.087 118.42 258.94C118.42 259.78 118.24 260.533 117.88 261.2C117.533 261.867 117.047 262.393 116.42 262.78C115.793 263.167 115.067 263.36 114.24 263.36C113.32 263.36 112.52 263.12 111.84 262.64C111.16 262.147 110.667 261.507 110.36 260.72V266.94C110.36 267.14 110.4 267.28 110.48 267.36C110.56 267.453 110.707 267.5 110.92 267.5H111.66V267.84H108.92ZM114.24 263C114.987 262.987 115.647 262.807 116.22 262.46C116.793 262.113 117.24 261.64 117.56 261.04C117.893 260.427 118.06 259.727 118.06 258.94C118.06 258.153 117.893 257.46 117.56 256.86C117.24 256.247 116.793 255.767 116.22 255.42C115.647 255.06 114.987 254.88 114.24 254.88C113.48 254.88 112.813 255.06 112.24 255.42C111.667 255.767 111.213 256.247 110.88 256.86C110.56 257.46 110.4 258.153 110.4 258.94C110.4 259.727 110.56 260.427 110.88 261.04C111.213 261.64 111.667 262.113 112.24 262.46C112.813 262.807 113.48 262.987 114.24 263ZM126.236 263.34C125.662 263.34 125.142 263.227 124.676 263C124.222 262.773 123.856 262.46 123.576 262.06C123.309 261.647 123.176 261.173 123.176 260.64C123.176 259.88 123.469 259.253 124.056 258.76C124.656 258.253 125.449 257.98 126.436 257.94C127.102 257.913 127.682 257.96 128.176 258.08C128.682 258.187 129.142 258.313 129.556 258.46V257.5C129.556 256.727 129.289 256.08 128.756 255.56C128.236 255.04 127.462 254.807 126.436 254.86C125.996 254.873 125.576 254.98 125.176 255.18C124.789 255.38 124.502 255.633 124.316 255.94C124.249 256.06 124.229 256.167 124.256 256.26C124.296 256.34 124.329 256.427 124.356 256.52C124.396 256.6 124.382 256.707 124.316 256.84C124.262 256.933 124.176 256.993 124.056 257.02C123.936 257.033 123.829 257.007 123.736 256.94C123.549 256.793 123.509 256.593 123.616 256.34C123.816 255.807 124.182 255.373 124.716 255.04C125.249 254.707 125.822 254.527 126.436 254.5C127.556 254.447 128.416 254.713 129.016 255.3C129.616 255.887 129.916 256.613 129.916 257.48V260.7C129.916 261.273 130.089 261.747 130.436 262.12C130.782 262.48 131.222 262.66 131.756 262.66V263C131.196 263 130.729 262.847 130.356 262.54C129.996 262.22 129.769 261.853 129.676 261.44C129.502 261.853 129.229 262.2 128.856 262.48C128.496 262.76 128.082 262.973 127.616 263.12C127.149 263.267 126.689 263.34 126.236 263.34ZM126.236 263C126.716 263 127.209 262.907 127.716 262.72C128.236 262.52 128.669 262.227 129.016 261.84C129.376 261.44 129.556 260.94 129.556 260.34V258.88C129.222 258.707 128.796 258.56 128.276 258.44C127.756 258.32 127.142 258.273 126.436 258.3C125.556 258.313 124.849 258.54 124.316 258.98C123.796 259.42 123.536 259.973 123.536 260.64C123.536 261.333 123.789 261.9 124.296 262.34C124.816 262.767 125.462 262.987 126.236 263ZM140.172 268.26C139.426 268.26 138.746 268.107 138.132 267.8C137.532 267.507 137.099 267.093 136.832 266.56C136.646 266.187 136.552 265.9 136.552 265.7C136.552 265.513 136.599 265.38 136.692 265.3C136.812 265.193 136.946 265.167 137.092 265.22C137.239 265.273 137.326 265.387 137.352 265.56C137.379 265.72 137.359 265.833 137.292 265.9C137.226 265.967 137.172 266.033 137.132 266.1C137.092 266.167 137.119 266.293 137.212 266.48C137.399 266.853 137.746 267.187 138.252 267.48C138.772 267.773 139.412 267.913 140.172 267.9C141.319 267.887 142.206 267.513 142.832 266.78C143.472 266.06 143.792 265.08 143.792 263.84V260.82C143.486 261.593 142.992 262.213 142.312 262.68C141.646 263.133 140.859 263.36 139.952 263.36C139.126 263.36 138.392 263.173 137.752 262.8C137.126 262.427 136.632 261.907 136.272 261.24C135.926 260.573 135.752 259.807 135.752 258.94C135.752 258.073 135.926 257.307 136.272 256.64C136.632 255.973 137.126 255.453 137.752 255.08C138.392 254.707 139.126 254.52 139.952 254.52C140.859 254.52 141.646 254.747 142.312 255.2C142.992 255.653 143.486 256.273 143.792 257.06V254.88H145.472V255.22H144.732C144.346 255.22 144.152 255.407 144.152 255.78V263.84C144.152 265.2 143.792 266.273 143.072 267.06C142.366 267.86 141.399 268.26 140.172 268.26ZM139.952 263C140.699 262.987 141.359 262.807 141.932 262.46C142.506 262.113 142.952 261.64 143.272 261.04C143.606 260.427 143.772 259.727 143.772 258.94C143.772 258.153 143.606 257.46 143.272 256.86C142.952 256.247 142.506 255.767 141.932 255.42C141.359 255.06 140.699 254.88 139.952 254.88C139.206 254.88 138.539 255.06 137.952 255.42C137.379 255.767 136.926 256.247 136.592 256.86C136.272 257.46 136.112 258.153 136.112 258.94C136.112 259.727 136.272 260.427 136.592 261.04C136.926 261.64 137.379 262.113 137.952 262.46C138.539 262.807 139.206 262.987 139.952 263ZM156.895 258.18C156.908 257.54 156.768 256.973 156.475 256.48C156.182 255.973 155.775 255.58 155.255 255.3C154.748 255.007 154.155 254.86 153.475 254.86C152.528 254.873 151.728 255.187 151.075 255.8C150.435 256.4 150.042 257.187 149.895 258.16L156.895 258.18ZM153.475 263.34C152.715 263.34 152.028 263.153 151.415 262.78C150.815 262.407 150.342 261.893 149.995 261.24C149.648 260.573 149.475 259.807 149.475 258.94C149.488 258.073 149.662 257.307 149.995 256.64C150.342 255.973 150.815 255.453 151.415 255.08C152.015 254.693 152.702 254.5 153.475 254.5C154.222 254.5 154.875 254.66 155.435 254.98C156.008 255.287 156.455 255.72 156.775 256.28C157.108 256.827 157.275 257.46 157.275 258.18V258.52L149.855 258.5L149.835 258.94C149.808 259.673 149.948 260.347 150.255 260.96C150.562 261.573 150.995 262.067 151.555 262.44C152.128 262.8 152.768 262.987 153.475 263C154.222 262.987 154.848 262.867 155.355 262.64C155.862 262.4 156.235 262.093 156.475 261.72L156.755 261.94C156.475 262.353 156.055 262.693 155.495 262.96C154.935 263.213 154.262 263.34 153.475 263.34ZM171.591 263V262.66H172.331C172.544 262.66 172.691 262.62 172.771 262.54C172.851 262.447 172.891 262.3 172.891 262.1V255.76C172.891 255.56 172.851 255.42 172.771 255.34C172.691 255.247 172.544 255.2 172.331 255.2H171.591V254.86H173.251V256.36C173.504 255.853 173.904 255.42 174.451 255.06C174.997 254.7 175.657 254.52 176.431 254.52C177.457 254.52 178.291 254.82 178.931 255.42C179.571 256.007 179.891 256.86 179.891 257.98V262.66H180.971V263H178.231V262.66H178.971C179.184 262.66 179.331 262.62 179.411 262.54C179.491 262.447 179.531 262.3 179.531 262.1V257.98C179.531 256.967 179.237 256.2 178.651 255.68C178.077 255.147 177.337 254.88 176.431 254.88C175.844 254.88 175.304 255.007 174.811 255.26C174.331 255.5 173.951 255.847 173.671 256.3C173.391 256.74 173.251 257.26 173.251 257.86V262.66H174.331V263H171.591ZM189.179 263.36C188.366 263.36 187.646 263.173 187.019 262.8C186.392 262.427 185.899 261.907 185.539 261.24C185.179 260.573 184.992 259.807 184.979 258.94C184.979 258.073 185.152 257.307 185.499 256.64C185.859 255.973 186.352 255.453 186.979 255.08C187.619 254.707 188.352 254.52 189.179 254.52C190.006 254.52 190.732 254.707 191.359 255.08C191.986 255.453 192.472 255.973 192.819 256.64C193.179 257.307 193.359 258.073 193.359 258.94C193.359 259.807 193.179 260.573 192.819 261.24C192.472 261.907 191.986 262.427 191.359 262.8C190.732 263.173 190.006 263.36 189.179 263.36ZM189.179 263C189.926 263 190.586 262.833 191.159 262.5C191.732 262.153 192.179 261.673 192.499 261.06C192.832 260.447 192.999 259.74 192.999 258.94C192.999 258.14 192.832 257.433 192.499 256.82C192.179 256.207 191.732 255.727 191.159 255.38C190.586 255.033 189.926 254.867 189.179 254.88C188.432 254.88 187.766 255.06 187.179 255.42C186.606 255.767 186.152 256.247 185.819 256.86C185.499 257.46 185.339 258.153 185.339 258.94C185.339 259.727 185.499 260.427 185.819 261.04C186.152 261.64 186.606 262.113 187.179 262.46C187.766 262.807 188.432 262.987 189.179 263ZM202.439 263.34C201.532 263.34 200.839 263.227 200.359 263C199.879 262.76 199.552 262.427 199.379 262C199.219 261.56 199.139 261.04 199.139 260.44V255.78C199.139 255.553 199.099 255.4 199.019 255.32C198.939 255.24 198.799 255.2 198.599 255.2H196.959V254.86H199.139V252.42C199.139 252.22 199.099 252.08 199.019 252C198.939 251.907 198.792 251.86 198.579 251.86H197.839V251.52H199.499V254.86H201.879V255.2H199.499V260.44C199.499 260.987 199.559 261.453 199.679 261.84C199.812 262.213 200.085 262.5 200.499 262.7C200.925 262.887 201.572 262.987 202.439 263V263.34ZM215.537 263V262.66H216.977C217.19 262.66 217.337 262.62 217.417 262.54C217.497 262.447 217.537 262.3 217.537 262.1L217.557 255.64C217.517 255.347 217.337 255.2 217.017 255.2H215.537V254.86H217.557V253.66C217.557 252.033 217.863 250.833 218.477 250.06C219.103 249.287 219.903 248.9 220.877 248.9C221.103 248.9 221.337 248.933 221.577 249C221.83 249.067 222.043 249.167 222.217 249.3C222.39 249.42 222.47 249.573 222.457 249.76C222.457 249.893 222.403 250 222.297 250.08C222.19 250.147 222.063 250.153 221.917 250.1C221.77 250.007 221.703 249.913 221.717 249.82C221.73 249.727 221.737 249.64 221.737 249.56C221.75 249.48 221.677 249.413 221.517 249.36C221.437 249.333 221.33 249.313 221.197 249.3C221.077 249.273 220.97 249.26 220.877 249.26C220.01 249.26 219.297 249.613 218.737 250.32C218.19 251.027 217.917 252.14 217.917 253.66V254.86H220.277C220.45 254.86 220.563 254.82 220.617 254.74C220.67 254.66 220.723 254.58 220.777 254.5C220.843 254.407 220.957 254.36 221.117 254.36C221.223 254.36 221.317 254.4 221.397 254.48C221.49 254.56 221.537 254.653 221.537 254.76C221.537 254.893 221.49 255 221.397 255.08C221.317 255.16 221.223 255.2 221.117 255.2H217.917L217.897 262.66H219.777V263H215.537ZM229.46 263.36C228.647 263.36 227.927 263.173 227.3 262.8C226.673 262.427 226.18 261.907 225.82 261.24C225.46 260.573 225.273 259.807 225.26 258.94C225.26 258.073 225.433 257.307 225.78 256.64C226.14 255.973 226.633 255.453 227.26 255.08C227.9 254.707 228.633 254.52 229.46 254.52C230.287 254.52 231.013 254.707 231.64 255.08C232.267 255.453 232.753 255.973 233.1 256.64C233.46 257.307 233.64 258.073 233.64 258.94C233.64 259.807 233.46 260.573 233.1 261.24C232.753 261.907 232.267 262.427 231.64 262.8C231.013 263.173 230.287 263.36 229.46 263.36ZM229.46 263C230.207 263 230.867 262.833 231.44 262.5C232.013 262.153 232.46 261.673 232.78 261.06C233.113 260.447 233.28 259.74 233.28 258.94C233.28 258.14 233.113 257.433 232.78 256.82C232.46 256.207 232.013 255.727 231.44 255.38C230.867 255.033 230.207 254.867 229.46 254.88C228.713 254.88 228.047 255.06 227.46 255.42C226.887 255.767 226.433 256.247 226.1 256.86C225.78 257.46 225.62 258.153 225.62 258.94C225.62 259.727 225.78 260.427 226.1 261.04C226.433 261.64 226.887 262.113 227.46 262.46C228.047 262.807 228.713 262.987 229.46 263ZM242.41 263.34C241.397 263.34 240.597 263.04 240.01 262.44C239.424 261.827 239.13 260.96 239.13 259.84V255.76C239.13 255.56 239.09 255.42 239.01 255.34C238.93 255.247 238.784 255.2 238.57 255.2H237.83V254.86H239.49V259.84C239.49 260.853 239.744 261.633 240.25 262.18C240.77 262.727 241.49 263 242.41 263C243.29 263 243.997 262.72 244.53 262.16C245.064 261.587 245.33 260.813 245.33 259.84V255.76C245.33 255.56 245.29 255.42 245.21 255.34C245.13 255.247 244.984 255.2 244.77 255.2H244.03V254.86H245.69V260.64C245.69 261.293 245.864 261.793 246.21 262.14C246.557 262.487 246.997 262.66 247.53 262.66V263C247.01 263 246.557 262.847 246.17 262.54C245.784 262.233 245.53 261.833 245.41 261.34C245.21 261.927 244.837 262.407 244.29 262.78C243.757 263.153 243.13 263.34 242.41 263.34ZM251.438 263V262.66H252.178C252.392 262.66 252.538 262.62 252.618 262.54C252.698 262.447 252.738 262.3 252.738 262.1V255.76C252.738 255.56 252.698 255.42 252.618 255.34C252.538 255.247 252.392 255.2 252.178 255.2H251.438V254.86H253.098V256.36C253.352 255.853 253.752 255.42 254.298 255.06C254.845 254.7 255.505 254.52 256.278 254.52C257.305 254.52 258.138 254.82 258.778 255.42C259.418 256.007 259.738 256.86 259.738 257.98V262.66H260.818V263H258.078V262.66H258.818C259.032 262.66 259.178 262.62 259.258 262.54C259.338 262.447 259.378 262.3 259.378 262.1V257.98C259.378 256.967 259.085 256.2 258.498 255.68C257.925 255.147 257.185 254.88 256.278 254.88C255.692 254.88 255.152 255.007 254.658 255.26C254.178 255.5 253.798 255.847 253.518 256.3C253.238 256.74 253.098 257.26 253.098 257.86V262.66H254.178V263H251.438ZM269.397 263.36C268.584 263.36 267.857 263.173 267.217 262.8C266.591 262.427 266.097 261.907 265.737 261.24C265.391 260.573 265.217 259.807 265.217 258.94C265.217 258.073 265.391 257.307 265.737 256.64C266.097 255.973 266.591 255.453 267.217 255.08C267.857 254.707 268.584 254.52 269.397 254.52C270.304 254.52 271.091 254.747 271.757 255.2C272.424 255.64 272.917 256.24 273.237 257V250.16C273.237 249.96 273.197 249.82 273.117 249.74C273.037 249.647 272.891 249.6 272.677 249.6H271.937V249.26H273.597V262.1C273.597 262.3 273.637 262.447 273.717 262.54C273.797 262.62 273.944 262.66 274.157 262.66H274.897V263H273.237V260.88C272.917 261.64 272.424 262.247 271.757 262.7C271.091 263.14 270.304 263.36 269.397 263.36ZM269.397 263C270.157 262.987 270.824 262.807 271.397 262.46C271.971 262.113 272.417 261.64 272.737 261.04C273.071 260.427 273.237 259.727 273.237 258.94C273.237 258.153 273.071 257.46 272.737 256.86C272.417 256.247 271.971 255.767 271.397 255.42C270.824 255.06 270.157 254.88 269.397 254.88C268.651 254.88 267.991 255.06 267.417 255.42C266.844 255.767 266.391 256.247 266.057 256.86C265.737 257.46 265.577 258.153 265.577 258.94C265.577 259.727 265.737 260.427 266.057 261.04C266.391 261.64 266.844 262.113 267.417 262.46C267.991 262.807 268.651 262.987 269.397 263ZM280.301 262.96C280.101 262.96 279.927 262.893 279.781 262.76C279.647 262.613 279.581 262.44 279.581 262.24C279.581 262.04 279.647 261.873 279.781 261.74C279.927 261.593 280.101 261.52 280.301 261.52C280.501 261.52 280.667 261.593 280.801 261.74C280.947 261.873 281.021 262.04 281.021 262.24C281.021 262.44 280.947 262.613 280.801 262.76C280.667 262.893 280.501 262.96 280.301 262.96Z" fill="black"/>
</svg>
