<?xml version="1.0" encoding="UTF-8"?>
<svg id="_レイヤー_1" xmlns="http://www.w3.org/2000/svg" version="1.1" viewBox="0 0 780 36">
  <!-- Generator: Adobe Illustrator 29.7.1, SVG Export Plug-In . SVG Version: 2.1.1 Build 8)  -->
  <path d="M99.92,35.14c-3.69-.05,8.61-.02.45-.08,1.7,0,3.42,0,5.11,0,.43.02.88.05,1.31.07-2.29,0-4.57,0-6.87.02h0ZM96.79,35.44c2.1-.07,8.75-.09,1.56-.16-.57.02-1.16.05-1.73.07-2.5-.02-5-.04-7.5-.06-.9,0-1.8.02-2.7.03-1.14-.04-2.28-.08-3.42-.13,1.02,0,2.05,0,3.06.02,4.02-.03,7.58-.04,13.03-.05-.48,0-.96-.02-1.44-.03,2.77.02,5.53.03,8.28.05-2.39.02-5.06.04-7.28.05,3.55.07,9.8.03,13.05.02,4.43-.02,3.44,0,6.72,0,.53,0,.58-.03,1.62-.03,5.24,0,15.41,0,9.47.07-8.62,0-15.98.04-24.44.02,2.24.07-2.22.09-8.3.12h0ZM255.21,35.22c-2.62.03-7.94.02-11.55,0h0c-.79,0-2.59-.05,0-.05,4.23,0,6.26.07,8.48.02.99,0,2.04.02,3.08.02h0ZM264.39,35.22c2.59.02,1.42.07-1.83.05h0c-1.36,0,1.31-.05-3.55,0-.99-.03-1.97-.06-2.95-.09h3.52c-.84.05,2.22.03,4.8.04ZM133.91,35.27c.41-.05-1.3-.05-4.21-.08h8.21c-1.34.03-2.67.05-4.01.08ZM69.5,35.26h0c-.9,0-1.8,0-2.69.02-.54-.02-1.07-.03-1.61-.05-3.18.02-6.36.03-9.54.05.39-.05,6.08-.04,9.22-.08,4.66.02,6.91.05,7.22.09-.86,0-1.73-.02-2.6-.03ZM762.34.43c-1.06,0-2.11.03-3.18.04,1.41,0,2.82,0,4.24.02,3.73-.06,4.08,0,8.95,0,3.14,0,5.44,0,7.24-.02l-.1-.1c.03,6.65.06,6.42-.05,16.85,0-10.59-.06-6.52-.11-12.91.04-1.33.13,5.01.15.71,0-1.56-.02-3.1-.03-4.66l.14.14c-5.91.03-11.84.06-18.46.08.25,0,.49,0,.73.02,1.33,0,2.65,0,3.98,0-1.44.02-2.84.04-4.29.05,1.85-.04-2.86-.02-2.23-.07.28-.02,2.36-.05,3.59-.07-3.17,0-6.4-.02-9.6-.03,1.66-.02,3.32-.03,4.95-.05h4.09ZM81.84.65c4.02-.05,11.31-.06,15.15,0h-15.15ZM72.4,35.33c-.46,0-.9-.02-1.35-.02,2.01-.02,4.03-.03,6.03-.05.39.02.78.05,1.18.07h-5.86ZM200.78,35.3h-3.43c-.72,0-6.79-.02-6.11-.03h9.3c.09,0,.11.02.23.04h0ZM165.34,35.29h-3.28c4.08-.03,4.71.02,8.41,0,3.7,0,5.98-.04,9.12.03-1.17,0-2.43.03-3.63.04-5.25-.03-6.66,0-10.88.03.08-.03.16-.06.24-.09h0ZM766.27,35.32c-1,.04-2.12,0-2.24,0h0c-8.89.03,1.16-.02-7.23-.02,1.25,0,2.48-.02,3.72-.03,1.92.02,3.89.04,5.75.05ZM477.48,35.32c-.08,0-.18-.02-.26-.03,5.04,0,6.32-.04,10.52,0-3.42,0-6.83.02-10.26.03h0ZM226.19,35.37c-5.59.02-9.73.03-15.09,0h0c-.31,0,1.19-.02.79-.03-1.11,0-2.25,0-3.38,0-.15-.02-.3-.03-.45-.05,3.15,0,6.3,0,9.46,0-.47,0-.95-.02-1.41-.03,2.69,0,5.35,0,8.04-.02-.93.03-1.87.06-2.79.08,1.61,0,3.23,0,4.83.02h0ZM561.4,35.43c-.89,0,.76-.03-.62-.04-1.38,0-3.92,0-3.32-.02,1.86,0,3.8,0,5.69,0-6.08-.06-12.15,0-12.24-.08,5.83.02,10.64,0,16.28,0-.23.06-5.88.1-2.33.16h-3.48ZM.02,25.97C.02,22.59,0,14.86.03,10.59.03,9.53.14,6.04.16,6.06c.05.11.05,4.37.08-.21v4.56c.03-.27.06-.55.09-.81,0-1.86,0-3.72,0-5.59,0-.09.02-.19.03-.27,0,6.69.04,2.73.08,6.21.02-3.19.04-6.41.06-9.59v5.62c.05.21.04-3.65.05-4.31.05-3.73.03,15.26.1,16.81,0-3.04.02-6.22.03-9.31,0,.89.02,1.79.03,2.69-.05,7.04-.07,14.93-.1,23.13v.54l-.07-.07h1.72c-.22-.02-.43-.05-.65-.07h3.45c-3.38.08,1.3.08,6.93.12-3,.03-6.7,0-6.44.06,10.29-.04,22.34.02,32.35-.03,2.49,0,2.48-.08,8.32-.07-.2,0-.23.02-.36.03,10.11-.03,16.24-.05,26.74-.02-.61-.02-1.2-.05-1.81-.07-2.23,0-4.46.02-6.68.04-1.52-.04.73-.06-5.92-.06-5.45,0-2.21.02-3.69.03-2.01.02-3.77-.02-5.92,0-1.67,0,.14.05-4.22.04,1.75-.04,3.54-.08,5.29-.13,1.06,0,2.12.02,3.18.03-1.07,0-2.13.02-3.21.03,3.78-.02,7.35-.04,11.26-.06-1.27.06,2.77.04,4.96.03,3.42,0,.49.03,2.73.02,2.24,0,4.65-.05,8.71-.04-2.17.03.78.05.21.08-.57.02-4.85.03-.74.06,7.91-.02-.67-.12,4.67-.13,6.41-.02,7.94.14,6.03.17-1.51.03-6.68.02-8.2.05,9.28.05,9.36-.05,10.95-.06,5.76-.07,1.89.11,8.72.05-.13.03-.23.06-.36.09,1.18,0,1.96,0,3.39-.02-4.2-.06-.76-.06,1-.06,2.78,0-1.51-.03-.78-.04,1.99-.02,5.12,0,3.2-.04.86,0,1.8.03,2.69.04,3.25-.02,10.87-.15,3.62-.13.68-.05,3.03-.03,4.85-.02,1.83,0,1.8-.02,3.41-.02,6.4.02,2.22.08,1.2.12,8.46-.03.18-.05,12.37-.07,1.18-.04-4.45-.07.24-.09.87.06,4.31.11,11.05.13.65,0,1.31-.03,1.96-.04,3.68.06,1.8.12,8.6.05-3.66.13-1.14.05,4.95.1,1.24,0-1.62.04.11.05.78,0,2.69,0,4.59,0,.93,0,5.29.06,8.32.03-2.22-.06,3.53-.12-1.4-.17,9.1,0,15.47-.02,5.27.07,2.31.02,4.62.04,6.93.06,1.61,0,3.24-.03,4.85-.04.25.05,0,.07,6.34.06-2.76,0-5.49.02-8.26.04-.09,0-.48.02-.39.03,3.39-.02,12.91-.03,15.23-.04,2.31,0-2.15-.02-1.49-.03,5.54-.11,5.1-.03,9.08-.05,2.34,0-3.24-.02-1.99-.03,4.63-.02,6.78.04,10.89.04-1.46-.03-2.91-.07-4.32-.1h13.1c1.57,0,.39-.03.64-.03,1.27,0,6.45-.02,7-.02,4.13,0,4.25.03,8.26.04h-4.59c-.7.06-1.42.11-2.12.17,3.94,0,7.86,0,11.81,0-2.88-.02-5.77-.04-8.66-.06,4.5-.04,9.01-.09,13.51-.13,2.35.03,4.68.06,7.03.08,6.37,0,5.08-.12,8.11-.02,1.88,0,3.76-.02,5.63-.02-.27,0-.53.03-.8.04,2.27,0,4.52-.02,6.79-.03-2.38-.05-4.71-.1-7.07-.15,4.45,0,4.54.03,5.2.04,1.76.03,5.26,0,6.66.02.47,0-3.9.04-2.39.07.29,0,6.14.12,9.87.1-.07-.02-.36-.05-.51-.07,5.01,0,7.57.1,6.91.13,2.68-.02,6.58-.02,7.13-.06h4.09c-1.42.08,4.27.07,4.64,0h-7.04c1.78-.09-5.35-.14,9.48-.06,2.84.05-5.04,0-2.73.03,4.02.02,7.78,0,11.6.03,4.74.04-1.1.08,9.97.03-24.4-.13,3.35-.08,14.8-.12,3.15.12,12.82.16,26.15.13-1.39-.03-5.58-.02-8-.03s.2-.03-2.81-.05-9.4-.04-12.45-.06c2.58-.02,15.31-.07,6.89,0,6.28.03,9.24.07,17.03.08,2.34-.05,2.16-.09,9.76-.09-4.49.07,4.14.13,2.24.2-5.38-.02-2.38-.09-5.49-.13-.32,0-5.33.02-6.5,0,5.06.07,6.81.09,3.7.17,3.59,0,5.81,0,6.13-.04.75.02,1.5.03,2.23.05h3.46c-1.7-.06,1.6-.02,3.95-.05s-.8-.07,5.64-.07c-2.15,0-4.12-.03-6.18-.04,4.16,0,8.32-.03,12.48-.04-2.92-.04-9.24-.09-9.07-.13,1.92.02,8.47,0,9.19,0,2.78,0,1.26.02,1.48.03,4.36,0,7.96,0,9.61.05,3.28-.02,5.75,0,9.23,0,1.92,0,1.54-.03,2.67-.03,7.44.04.35.08,14.71,0-1.74-.02-3.46-.05-5.19-.07,1.62,0,3.24-.02,4.85-.03,1.09,0,2.16,0,3.25,0-.02.05-.05.1-.07.15h3.58c-2.04,0-4.09,0-6.13,0-.19,0-.36.02-.55.03,3.04,0,6.05.03,9.09.04.06-.02.12-.03.17-.05,6.84.02,7,.04,13.5,0,5,0,9.08-.07,11.98-.1,1.04,0,2.08.02,3.13.03.67,0,1.34-.03,2-.04,1.32.02,2.66.04,3.98.06.73-.05,1.12-.06-4.04-.08,1.76-.06,10.82-.03,14.5,0,2.8,0-.31.06.04.07,1.17.02,5.78,0,6.75,0,4.1,0,6.96,0,10.67.02.72,0,2.74.03,2.91.03,1.33,0,4.61.02,4.98.02,19.26.02-1.32-.11,16.59-.09-.54-.02-1.03-.03-1.56-.05h4.08c1.72,0-.36.04,3.05.02-.22.02-.45.04-.68.06,1.48,0,2.91-.02,4.42-.03,2.38.07,11.07.09,10.46.17-.21.03-6.37.06-3.12.09,2.65,0,.86-.03,1.94-.03,7.79,0,7.34.04,10.53.02.5-.02,1.03-.04,1.54-.06,1.2,0,2.41,0,3.62.02.28,0,.57-.03.85-.04h-3.45c1.45-.05,14.75-.08,9.68-.03-2.07.02-5.84,0-3.46.07,3.56,0,7.6-.02,11.35-.03.12,0,.23.03.34.04,5.04,0,.46-.06.47-.09h3.48c.49,0,.96.03,1.47.04.05-.02.69-.07,4.14-.05,2.21,0-1.27.07,2.95.06-.32-.03-1.84-.07,2.86-.08.47.03,1.11.07,1.47.1,5.84-.03,8.51.02,15.36-.02,4.35-.02,10.32-.11,13.12.02,3.19,0,2.17-.03,3.12-.04,4.44-.04,7.75.03,8.58.03,5.28.02,7.65,0,11.96.03-.23-.02-.36-.05-.55-.07-3.95.04-5.94.04-11.48.03,1.86,0,3.71,0,5.56,0-.3-.02-.61-.04-.9-.06-17.11.08-13.11-.05,1.23-.07,1.24.04,2.52.07,3.75.11,8.28-.06,12.19,0,21.55,0,1.11,0,5.17-.02,6.91-.02h-.09c1.09-.04-.39-.05-.56-.08.95,0,1.89,0,2.84,0,2.11.02,1.37.04,5.52.04-.56-.02-1.11-.05-1.67-.07,4.55,0,7.53.03,11.77,0-.71,0-1.42.02-2.13.03,9.22.02,1.88.16,8.85.09.44,0,.88.02,1.32.04h-8.6c-.06.02-.12.03-.17.05,3.07,0,6.15,0,9.22-.02-2.24,0-4.49.02-6.73.03,3.56,0,7.12.02,10.68.02-3.78-.06,1.12-.07.2-.13,6.3.05,11.25.12,21.02.08,1.94,0,.89-.05,6.38,0-1.33-.07,5.55-.1,4.66-.17h-5.75c2.11.02,2.46.09-.75.11-4.1.02-10.07-.02-9.83.05h-4.73c.65-.02,1.29-.03,1.94-.05-4.51.03-7.35.02-9.52-.03,5.38,0,10.75-.02,16.12-.03h-2.39c4.08-.05-.13-.09,7.47-.1-.05.02-.09.04-.13.06,2.77-.06,10.34-.05,7.92-.12,2.29.02,2.76.03,4.05,0,6.03.05,9.91.11,7.76.18,2.24,0,4.48-.02,6.71-.03-1.3-.02-2.59-.04-3.89-.06h11.71c.37.06-7.5.02-5.23.07.46,0,2.55,0,3.11,0,5.81.06-3.32.02-1.6.07,6.08,0,4.47.05,7.11.06h.05v-.05c0-1.09,0-2.93-.03-6.4.02-.31.03-.63.05-.93,0-4.04-.04-3.72-.05-7.2,0-2.18.06-4.91.02-7.32,0-.43-.09,3.62-.09-4.89,0-6.6.06-3.86.08-7.42V.41h-.05c-4.01,0-11.19.06-13.44-.03,1.92,0,4.35.02,6.47.03.86-.02,1.71-.04,2.56-.05-4.85.02-9.87,0-13.14.04-6.47-.06-13.71,0-11.76.07,2.13,0-.19-.04,2.78-.02.3.02.62.03.93.05-5.04,0-8.54,0-6.24-.05h-2.34c-.14.04-.27.08-.4.11-.93,0-1.87,0-2.81,0-1.04,0-2.08-.02-3.13-.03,1.41-.06,3.82-.06-4.15-.09-.02.02-.06.04-.08.06-6.66-.03-6.84-.08-15.2-.07,6.41-.07,9.93.06,9.91-.09,1.61,0,3.24.02,4.84.03.24-.02.49-.04.72-.06-8.65,0-23,.15-28.8.06-.7,0-1.41.02-2.12.03-5.67-.05-8.12.07-13.87,0-.59,0,.65-.12-6.84-.12.19.02.28.04.43.06-1.62,0-3.24-.02-4.84-.03-.29,0-.6.03-.89.04,2.77,0,5.52,0,8.29.02-2.3,0-4.61,0-6.91,0,3,.02,4.35.02,2.55.06h-7.81c-.27,0-.53.02-.8.03,1.26.03,2.54.05,3.8.08-6.78-.02-12.68-.02-17.88-.08-.89,0,2.25-.05-3.8,0-.09-.02-.26-.03-.36-.05-7.4.05-9.83.04-17.54,0,4.99.04.54,0-.73.03-.87,0,2.53,0,2.15.03-.39,0-4.8.07-1.03.08,9.27-.11,11.79.02,23.69-.03-1.84,0-3.68.03-5.51.04.86,0,1.64.02,2.57.03-6.64-.02-3.41,0-6.13,0-2.73.02-7.69.03-11.02.04-1.05,0,.06-.02-2.31-.03-1.61,0-6.01.04-7.03,0-.67-.03,6.4-.11-3.37-.11-1.84-.03,2.85-.02,2.95-.02.85-.03-5.15-.06-7.93-.03-.22,0,1.97.03-.42.04-5.66.02-8.93,0-12.6-.05-.4.05-5.15.11-11.09.09-.3,0-.59.03-.9.04.92,0,1.84,0,2.76-.02,1,0,2.07.02,3.05.03-5.96,0-6.8.08-9.66.1-9.78.08-3.86-.09-2.09-.12,1.27,0,2.5.03,3.77.04-.14-.02-.28-.03-.41-.05-14.64,0-2.23-.11-9.66-.14-1.92.08-7.37.09-14.32.04h-2.32c-.13,0-.13.03-.34.04-8.38,0-9.87-.11-10.67-.13-3.53-.05-6.27.02-7.31.02-4.37,0-5.64-.03-9.81-.02-4.48.02-1.42.04-2.78.06-1.09.02-4.62.02-6.08.04.58-.02,1.23-.03,1.81-.05-4.64-.02-8.44-.04-13.71-.05-5.95.11-11.02-.08-8.96.08,4.99,0,7.79.03,10.46.07-3.28,0-6.56,0-9.84,0-.96-.02-1.64-.03-2.77-.05-2.45.04-8.13.02-10.36.03-10.45.05-7.21.11-16.75,0,6.87,0,6.86-.06,13.67-.05-1.47-.04-4.93-.03-2.69-.07-6.59,0-4.46.05-7.03.08-2.22.03-6.67.03-6.42.07-.46-.02-.81-.04-1.26-.06h-12.8c1.82-.02,3.64-.04,5.46-.06-1.38,0-2.76-.02-4.13-.02-10.51.07-28.62-.06-25.72.11-5.06,0-5.69-.02-8.45-.05-.3,0-.6.02-.9.04-3.27,0-5.77.03-8.66.02-2.88,0-3.6-.06-4.02.02-1.87-.02-3.73-.04-5.57-.06-1.12.02-2.24.03-3.35.05-1.75,0-3.51-.02-5.25-.03-.94.04-7.82.02-10.85.05-2.88-.04-2.8-.16-9.58-.14.18.03.35.06.52.09-1.55,0-3.11,0-4.67-.02-.09,0-.17-.02-.27-.03h2.37c-.69-.02-1.36-.03-2.04-.05-2.37.03-4.73.05-7.12.08,3.21.02,6.41.04,9.63.06-4.03.02-6.83,0-10.33.03-3.05-.04-1.92-.07-.68-.11-1.13,0-2.28,0-3.41,0,.75-.05-1.17-.07,5.44-.07-.46,0-.92-.03-1.36-.04h-2.98c-3.25,0-5.73.09-5.51.12.12,0,3.32,0,3.19,0-.32.05-7.65.03,2.93.08-3.52.03-4.29,0-8.17,0,.3.02.6.03.89.05-1.8,0-3.6-.02-5.39-.02,2.5-.09-10.75-.12,1.18-.2-3.53,0-7.03,0-10.55,0,.72,0,1.45-.02,2.17-.03,1.59,0,3.17,0,4.75,0-1.87-.02-3.74-.03-5.6-.05-4.41.02-6.14.05-8.16.09,5.13.03,3.46,0,7.45-.02-.14.02.04.05-.3.07-2.07-.05-8.81,0-10.37,0-4.75,0-1.03-.04-4.21-.04s-6.94.03-9.55-.02c.05.03.25.06.44.08-4.96,0-3.98-.02-4.48-.03-8.19-.07-12.64,0-22,0,1.19,0,2.39.02,3.6.02-7.07.06-2.31.04,3.83.06-5.75,0-9.05.04-13.1.06-4.07,0-11.03,0-13.56-.03,5.82-.03,12.11,0,18.57-.02-.74-.03-1.45-.05-2.21-.08-3.94.06-6.21.02-7.5,0-3.81-.02-3.69.03-5.98-.03.09.02.16.03.26.05-7.85,0-16.32-.04-21.43.03-.47-.05-.82-.09-1.36-.13-3.33.03-6.17,0-8.97,0s-1.73.04-5,.06c-.61,0-1.87-.02-3.37,0-1.51.02-7.07.14-7.74.03h-8.23c2.69,0,5.36,0,8.04-.02-2.29-.03-4.56-.05-6.85-.08-.29.02-.58.05-.86.07-6.16.03-10.64,0-16.85,0-1.04,0,1.41.05-3.2.04-4.61,0-8.03-.1-15.88-.07-.4,0-2.73.07-5.53.02-.64,0,2.06-.03.59-.04-1.47,0-8.03-.03-8.54-.06.07,0,.48.02.68.04-1.12,0-2.25,0-3.39.02-.1-.02-.22-.04-.32-.06-6.44.05-9.77.13-19.32.1,2.69.03,5.37.06,8.04.09.74-.02,1.47-.04,2.2-.06,4.39,0,8.81.02,13.2.03.72-.02,1.44-.05,2.16-.07h3.49c-.29.02-.59.03-.89.05,2.31,0,4.62,0,6.92,0-4.67.1-13.06,0-12.47.08-1.04,0-2.08-.03-3.12-.04-.46.04-2.57.03-6.28.02.85.02,1.79.04,2.58.06-3.62-.03-10.04-.03-13.78-.04-1.65,0,0-.03-.49-.04-2.51-.02-7.3.03-8.31.03-6-.02-9.9-.12-16.44-.06,6.75.02,3.08,0,5.48.05.75,0,9.48.04-1.45.02-1.28,0-21.12-.07-14.59-.12-3.21.02-5.72.04-8.66.05-7.19-.14-4.7,0-2.61.06h-3.52c2.58-.08-10.56-.08-15.01-.04-1.5,0,2.69.04-.77.05-1.65,0-3.51,0-5.24-.02,2.52.05-2.43.07-2.36.11-3.17-.04-5.58-.13-3.85-.18-2.62.02-5.24.04-7.85.06,1.22,0,2.45.02,3.66.03-8.54-.03-19.53.04-21.3-.06h-3.41c-.35.02-.69.03-1.04.05-5.12,0-10.23-.03-15.35-.04,4.56,0,5.64-.04,10.43-.02-1.84-.02-3.72-.04-5.52-.06-7.2.05-8.18.09-19.02.07-.49,0-8.68-.05-8.96-.05-1.28-.02.67-.05.09-.06-1.59-.03-11.23-.1-11.05-.11C2.9.11,35.35.11,44.13.1,135.14.03,224.15.12,314.6.1c.93,0,.53-.02.92-.02,2.46,0,4.88.03,5.79.03,1.95,0,.88-.03,2.3-.03,14.68,0,28.54.02,43.22,0,.96,0-.02.02,1.66.02.87,0,3.59-.04,5.54-.04h34.07c1.95,0,3.98-.02,5.9-.02,2.73,0,2.17.03,2.6.03,1.85,0,2.1-.03,3.85-.03,3.26,0,3.43.02,7.56.02,2.96,0,9.71-.02,13.43-.03,8.7.03,19.68.02,27.8,0,4.8,0,5.25.03,7.21.03,6.91,0,12.15-.04,18.64-.04,8.61,0,16.24.03,24.58.03,1.35,0,1.04-.03,2.37-.03h15.57c4.87,0,6.67.05,11.45.04,1.4,0,1.81-.04,4.16-.05,3.75,0,7.85.03,10.47.03,3.59,0,.47-.03,5.29-.03.2,0,.92.03,1.96.03,3.02,0,2.72-.03,7.14-.02.42,0,6.28.03,6.87.03h12.37c7.26-.02,1.55-.06,7.72.03,2.72-.02,5.41-.04,8.29-.07-1.93.02,5.88.05,6.43.05,4.53-.02,1.84-.05,7.58-.04-7.59.08,7.42,0,10.77,0,16.12,0,30.78,0,46.99,0,5.42,0,12.7-.02,18.44-.02,1.34,0,.33.02,1.51.02s-.13-.02,1.21-.02c8.34,0,14.88.05,22.52,0,.37,0,.36,0,.98.02,6.25-.05,18.3.02,22.82.02,7.08,0,8.89-.02,14.03,0,4.73,0,11.11.04,13.02.02h.33v.32c0,.69.02.79.04,0V.02h-.37c-.16,0-.34,0-.57,0h.95v13.38c0,.52-.03.16-.03.36,0,1.3.02,1.73.02,2.6,0,2.38-.02-1.5-.02,1.89,0,1.79.02,2.81.02,7.78v9.88h-86.05c-2.16,0-.74.02-3.45.02-9.41,0-26.24-.05-34.35-.04-8.11,0-6.28.04-11.36.06-.98,0-.18-.02-1.07-.02-5.96,0-13.07-.03-17.9-.04-3.2,0-2.94.03-5.15.03-3.31,0-6.7-.03-8.46-.03-8.28,0-13.97.02-21.71,0,.3,0,.5,0,.76.02h-27.47c.43,0,.85,0,1.28.02-10.75,0-9.52-.07-8.57.07-.78,0-1.61,0-2.36.02.3-.08-6.19-.13-14.47-.15-.61,0-4.67.07-4.24,0-1.06.02-1.7.04-2.6.05-1.75-.03-3.53-.05-5.27-.08-.95,0-1.9,0-2.85,0-.14.02-.03.03-.34.05-4.38,0-13.38-.02-16.85-.02-8.61,0-17.38.05-24.08,0-3.27,0-.02.04-4.87.03-.55-.02-1.07-.03-1.64-.05-3.97.08-4.79.03-10.23,0-3.68,0-6.08,0-9.58,0-.89,0-.76-.02-1.37-.02-2.04,0-7.83.03-9.27.03h-36.55c-1.33,0,.39.02-.98.02-2.22,0-.91-.04-2.2-.04-3.58,0-3.61.03-8.6.03-16.44,0-35.35-.02-52.52-.02-.54,0-.51.02-1.09.02-3.81,0-7.65-.03-11.11-.03-5.73,0-10.04.03-15.69.03-11.07,0-20.95-.02-32.32-.02h-27.61c-44.6,0-90.1.07-135.01.03-1.14,0-.68-.02-1.03-.02-3.32,0-3.61.03-4.78-.02-4.23,0-5.55.05-10.65.05-2.72,0-.69-.06-5.28-.03-4.16.03.43.06-11.92.03-.33,0-1.94-.04-4.5-.03-2.58,0,.41.04-5.8.04-14.57.02-33.02,0-49.96,0-1.06,0-11.29.02-13.3.03-3.91.02-3.09.05-8.16.05-2.4,0-4.53,0-6.89,0H.07v-5.22c0-.53-.03-1.41-.03-4.79h-.02ZM745.42.49c-.96.03-2.69.15-8.47.11-.55,0,2.41-.08-.79-.1,3.13,0,6.17,0,9.25-.02h0ZM.76,1.46c0,4.23,0,8.48-.02,12.71,0-2.92-.03-5.85-.04-8.75.02-1.32.04-2.64.06-3.95h0ZM504.58,35.34h0c4.55,0,9.11-.03,13.65-.04-.48,0-.96.02-1.44.03-3.6.02-7.19.03-10.77.05-.48,0-.96-.03-1.44-.04ZM468.63,35.46c-2.91,0-2.2-.04-3.8-.06h0c-.42,0-2.39,0-3.15,0,.28,0,.64.03.95.04-6.78.03-20.04-.09-2.88-.13-.26.02-.5.03-.76.05,8.53,0,18.04.03,9.63.11h0ZM676.83.54c-7.28.06-9.62.07-18.45.03,1.25-.02,2.5-.03,3.75-.05,1.46.02,2.91.03,4.36.05h0c.29-.02.59-.03.87-.05,3.15,0,6.31,0,9.46.02ZM189.9,35.42c-2.03-.11-1.45-.05,4.35-.07,2.01,0,.05-.03,1.3-.03,6.74-.02,7.28.06,5.77.1h-11.43ZM14.96,35.44h0c-.18-.03,2.55-.04-.52-.06h7.01-2.08c.61,0,1.22.02,1.82.03.83-.03,1.6,0,4.05,0-.68-.03-1.35-.07-2.03-.1,2.85,0,5.7.02,8.55.03.03,0,.07.02.11.03,1.07,0,2.14-.02,3.21-.03.29,0,.57.02.87.03,1.3,0,2.59-.02,3.89-.02.39.02-2.46.04,2.6.03-1.55.03-3.1.05-4.66.08H14.96v-.02ZM242.63,35.38c-8.37,0-6.01,0-4.08-.07,1.35.02,2.72.05,4.08.07ZM673.67,35.43c2.43-.04,4.86-.08,7.35-.11,4.94-.02,9.9.05,6.17.08-4.48.03-9.16,0-13.52.04h0ZM779.49,28.92c-.02,5.92-.06.35-.09-.99.04-1.64.04-3.92.04-7.59,0,3.45.05,7.6.05,8.57h0ZM576.25,35.39c-2.43,0-4.83,0-7.01,0,.65-.04,4.99,0,1.89-.06h4.64c-.98.02.34.04.47.06h0ZM323.7,35.34c4.76.04,5.66.02,10.46,0,.68.04-5.04.09-8.63.11-.61-.03-1.22-.07-1.84-.1h0ZM145.36.54c1.14-.05,9.58-.05,13.76-.04-.5,0-1,0-1.5.02-4.09,0-8.18,0-12.27.02ZM779.44,18.61v1.75-1.75ZM544.77.34c2-.04-3.94-.06,3.27-.04h0c4.76,0,5.81,0,10.22.02-1.59.05-10.54.07,1.8.09.16,0-.16-.03,1.81-.03.61,0,2.56.03,5.51.04.96,0,8.15,0-1.66,0,.29.04-.23.08-.21.11-3.83,0-6.76-.06-10.82-.06-6.01,0-9.07.08-10.22-.02,5.05-.02,13.73-.02,14.86.03,4.88,0,6.29-.05,2.35-.07-16.89.03-4.63-.07-19.42-.03-.18,0-.78.03-.69.04-4.51-.05,2.48-.07,3.19-.08h0ZM580.08.43c-2.92.03-5.82.06-8.73.09,0-.05,1.6-.09,6.2-.12.84,0,1.69.02,2.53.03h0ZM334.67.45c-.42.03-1.54.05-2.36.07-.89-.02-21.89-.04-11.21-.06,1.55,0,11.02.04,13.56,0ZM290.64,35.38c2.48.02,4.93.03,7.4.05-3.79,0-7.58.02-11.38.03,1.33-.03,2.65-.06,3.98-.09h0ZM713.94,35.48c-1.05,0,2.43-.04-1.69-.03,3.07-.02,5.94-.04,8.94-.06.9.02,1.81.03,2.71.05.7,0,1.42-.02,2.12-.03-.42.02-.79.05-1.24.07-5.05-.05-6.21,0-10.83,0h0ZM563.71,35.57c-.91-.05,6.41-.08-.79-.09,1.37-.03,3.56-.05,7.77-.06.68,0,1.35.03,2.03.04.09-.04,1.18-.05,3.55-.07h0c6.4,0,6.02,0,7.56.07-6.78-.03-6.98.02-11.61.05-3.18.02-7.32,0-8.52.06h0ZM357.06.45c-4.79.04-.49.09-9,.04.55,0,1.1-.02,1.65-.03h7.35ZM540.04,35.39c.55.08,5.06.15,5.83,0-4.39-.03-2.25.05-5.83,0ZM779.61,30.94c0,2.15,0,3.62-.02,4.59-2.29-.03-1.69-.07,0-.11l-.1.11c0-.38-.02-.81-.02-1.28.02-.53.03-1.04.05-1.56,0-1.45-.02-2.9-.02-4.34.04.87.08,1.74.11,2.6h0ZM390.91,35.48c6.46-.06-6.98-.03-2.46-.07,3.61-.03,8.36.03,6.56.07h-4.11ZM428.31,35.47c-1.06-.06.47-.04-4.63-.03-1.46,0-13.04-.02-8.18.03h12.82,0ZM713.08.44c-.08-.03,8.85-.09,9.99-.07h0c3.1.04-6.32.05-2.24.1-9.04-.05-11.75.07-11.12-.09,5.32,0,2.81.03,3.37.06ZM34.62.42h0c.6,0,5.53.04,4.93.06-5.94,0-4.88-.04-10.41,0-.3,0-.56-.03-.89-.04,2.2,0,3.41-.03,6.37-.02ZM311.97.4c2.19,0,6.16.02,8.65.02-7.91.11-17.37,0-8.65-.02ZM96.77,35.44h.02-.02ZM481.06.46c-.28,0-.44,0-.5-.02h0c.15,0,.31,0,.5.02ZM694.53.45c-3.72-.04,8.67-.1,12.68-.08-.28.02-.32.03-.98.05-3.24-.05-11.08.04-11.7.03ZM618.25,35.46c9.79,0-2.96.15-3.48.03.02,0,3.23-.03,3.48-.03ZM771.74.44c2.5-.05-2.52-.06,5.49-.05.47,0,.93.02,1.4.04-2.3,0-4.59,0-6.89,0ZM682.39,35.65c12.33-.03,24.11-.07,16.08-.2-.93,0-1.88,0-2.81,0-.14.06-3.59.03-8.62.03-.72.02-3.52.03-4.04.05-1.02.04,2.2.07-.62.11ZM162.18,35.56c.2,0,.39-.02.59-.03,1.95,0,3.91-.02,5.85-.04-.32.02-.63.04-.95.06h-5.49ZM592.08.31c-1.12.12,2.8.09,10.73.04-3.57,0-7.15-.02-10.73-.04ZM484.39,35.6c-.26-.03-.51-.07-.78-.1-4.22.03-3.43.07-1.41.11.74,0,1.46,0,2.19-.02h0ZM423.71,35.61c1.75,0,.86-.02,1.04-.02,4.42,0,5.04.03,10.47,0,.67,0,1.32,0,1.99-.02-2.51-.07-4.33-.03-9.64-.07.96.02,1.91.05,2.87.07-2.96,0-5.89,0-8.84,0-.35,0-.7,0-1.05.02,1.05,0,2.14.02,3.17.03h0ZM139.64,35.53h-8.63c-.1.02-.21.03-.31.05,2.98,0,5.96-.03,8.94-.04h0ZM533.14.37c-.23,0-.45,0-.65.02.02,0,.27,0,.65-.02ZM27.05.33c-3.26,0-7.95,0-11.52,0,.28.04,9.36.03,12.55.06.51,0,.35-.04-1.03-.05h0ZM772.59,35.54c-.82.02-1.63.04-2.44.06h-5.93c-.06.02-.12.03-.18.05,8.74-.02,6.72.03,11.05.08-.84-.06-1.67-.12-2.51-.18h0ZM48.3,35.63c6.31,0,8.55-.03,4.99-.09-2.23,0-4.46.02-6.69.04.57.02,1.15.03,1.71.05h0ZM418.18.33c-5.28.02-5.37-.05-10.54,0,2.77,0,5.53.03,8.28.04.74,0,1.51-.02,2.25-.03h0ZM677.26.14c-2.23-.02-6.39.09-12.66,0-1.49.03-2.43.05-3.72.07-.75-.03-1.6-.05-2.31-.08h0c-5.68,0-2,.04-2.13.07-.06,0-4.28,0-2.96.02,2.28.04,10.78.02,10.8.07-2.99-.02-8.82,0-7.09.03,1.89.04,7.39-.03,10.89,0-5.01-.09,5.34-.06,6.52,0,6.08-.05.49-.07-5.74-.07,3.81-.05-1.8-.02-2.72-.07,3.93-.03,17.38,0,11.12-.07v.03ZM631.07,35.67c4.21,0,10.77.03,13.64-.02,1.68-.03-4.9-.04-.37-.08-4.1,0-5.02.02-4.32.05-.93,0-1.88,0-2.81,0-.43,0-.88,0-1.31-.02-.49,0-.98.03-1.46.04h-2.99c-.12,0-.32,0-.39.02h0ZM266.5.33h3.49c-.13,0-.28-.02-.43-.03-.11,0-.21,0-.32-.02.68.02,6.23.06,8.57.04,1.18,0-1.5-.06,3.49-.07-3.62,0-6.96,0-10.48,0,.32,0,.62-.03.93-.04h-3.52c-.58.04-1.16.08-1.74.11h0ZM487.81,35.66c3.98-.03,5.31-.04,3.44-.08h0c-1.48.02-2.97.04-4.44.06.34,0,.68.02,1.03.03h0ZM498.87.22c-8.46.17,10.59.06,6.96,0-.16,0-6.17,0-6.96,0ZM779.67,29.41v6.18h-.81c.24,0,.49.02.74.03h.1v-.1c0-.29.02-.59.03-.87-.02-1.75-.04-3.5-.07-5.24h0ZM75.79,35.7c2.45.05,8.72.06,11.79,0-1.61,0-3.23,0-4.83-.02,3.05,0,6.05,0,9.12-.02.16-.06-3.38-.03-8.69-.04-.82,0-6.09-.08-7.91-.02-.37,0,5.23.02,1.34.06h4.78c.12.02.23.03.36.05-1.99,0-3.97,0-5.95-.02ZM655.53,35.66c5.77,0,6.48-.02,7.69-.07-2.69,0-5.37,0-8.05.02.13.02.24.03.37.05h0ZM127.38,35.72c3.16,0,1.81-.03,3.08-.04,4.8-.03,8.09,0,12.83-.02-.32,0-.6,0-.91.02h0c22.48.03,10.68-.05-2.78-.04-.31,0-.62-.03-.93-.04-6.02.02-11.58.05-11.31.11h0ZM574.03.22c-.26,0,1.93-.06-2.17-.04-3.25.08,2.08.04,3.41.07-1.11,0-2.24,0-3.34.02,6.63.02,7.59,0,5.18-.05h-3.09ZM530.48.18c-.91.12,7.45.06,7.15.03-1.16,0-2.05.02-3.28,0-1.24,0-1.55-.04-3.88-.04h0ZM770.11.21c-.24,0-2.71-.05-2.47,0,3.05.09,9.18.03,8.11,0-2.03,0-3.39.02-5.64,0h0ZM37.72,35.73c.12,0,6.26.02,7.05,0,.65-.02.98-.04,1.47-.06-3.39.02-10.24,0-8.51.06h0Z"/>
</svg>