<?xml version="1.0" encoding="UTF-8"?>
<svg id="_レイヤー_1" data-name="レイヤー_1" xmlns="http://www.w3.org/2000/svg" version="1.1" viewBox="0 0 341 25">
  <!-- Generator: Adobe Illustrator 30.4.0, SVG Export Plug-In . SVG Version: 2.1.4 Build 226)  -->
  <path d="M37,24c-1.6,0,3.8,0,.2,0,.8,0,1.5,0,2.3,0,.2,0,.4,0,.6,0-1,0-2,0-3.1,0h0ZM35.6,24.3c.9,0,3.9,0,.7-.2-.3,0-.5,0-.8,0-1.1,0-2.2,0-3.4,0-.4,0-.8,0-1.2,0-.5,0-1,0-1.5-.1.5,0,.9,0,1.4,0,1.8,0,3.4,0,5.8,0-.2,0-.4,0-.6,0,1.2,0,2.5,0,3.7,0-1.1,0-2.3,0-3.3,0,1.6,0,4.4,0,5.8,0,2,0,1.5,0,3,0,.2,0,.3,0,.7,0,2.3,0,6.9,0,4.2,0-3.9,0-7.1,0-10.9,0,1,0-1,0-3.7.1ZM106.3,24.1c-1.2,0-3.5,0-5.2,0h0c-.4,0-1.2,0,0,0,1.9,0,2.8,0,3.8,0,.4,0,.9,0,1.4,0ZM110.4,24.1c1.2,0,.6,0-.8,0h0c-.6,0,.6,0-1.6,0-.4,0-.9,0-1.3,0,.5,0,1,0,1.6,0-.4,0,1,0,2.1,0ZM52.1,24.1c.2,0-.6,0-1.9,0,1.2,0,2.4,0,3.7,0-.6,0-1.2,0-1.8,0ZM23.4,24.1h0c-.4,0-.8,0-1.2,0-.2,0-.5,0-.7,0-1.4,0-2.8,0-4.3,0,.2,0,2.7,0,4.1,0,2.1,0,3.1,0,3.2,0-.4,0-.8,0-1.2,0ZM340.4.6c0,0,0-.2,0-.2h0c-.4,0-.8,0-1.2.1.4,0,.8,0,1.2,0h-.1c0,.1,0,.4,0,.6,0,1.7,0,1.8,0,4,0,6.7.1,4.9,0,10.9,0-4.8,0-3-.1-5.9,0-.6.1,2.3.1.3,0-3.3,0-6.4-.1-10.1l.2.2c-.1,0-.2,0-.3,0,.1,0,.2,0,.3,0l-.2-.2s0,0,0,0c0,.6,0,1.2,0,1.8,0-.6,0-1.2,0-1.8l.3.3s0,0-.1,0c0,0,0,0,.1,0l-.3-.3c0,.1,0,0,0,0l.3.3c-.3,0-1.3,0-1.1,0,0,0,.6,0,1.1,0l-.2-.2c0,.2,0,.3,0,.5,0-.2,0-.3,0-.5h.1c-1.3.1-2.5.1-3.8.1.7,0,1.5,0,2.2,0,.5,0,1.1,0,1.6,0h0v.2h0ZM36.8.7c1.8,0,5.1,0,6.8,0-2.3,0-4.5,0-6.8,0ZM24.7,24.2c-.2,0-.4,0-.6,0,.9,0,1.8,0,2.7,0,.2,0,.3,0,.5,0-.9,0-1.7,0-2.6,0ZM82,24.2c-.7,0-.7,0-1.5,0,0,0,0,0,0,0-.3,0-3,0-2.7,0,1.3,0,2.8,0,4.2,0,0,0,0,0,.1,0ZM66.2,24.1s0,0,0,0c-.5,0-1,0-1.5,0,1.8,0,2.1,0,3.8,0,1.7,0,2.7,0,4.1,0-.5,0-1.1,0-1.6,0-2.3,0-3,0-4.9,0,0,0,0,0,.1,0ZM334.5,24.2c-.4,0-.9,0-1,0,0,0,0,0,0,0-4,0,.5,0-3.2,0,.6,0,1.1,0,1.7,0,.9,0,1.7,0,2.6,0ZM205.6,24.2s0,0-.1,0c2.3,0,2.8,0,4.7,0-1.5,0-3.1,0-4.6,0h0ZM93.3,24.2c-2.5,0-4.3,0-6.7,0,0,0,0,0,0,0-.1,0,.5,0,.3,0-.5,0-1,0-1.5,0,0,0-.1,0-.2,0,1.4,0,2.8,0,4.2,0-.2,0-.4,0-.6,0,1.2,0,2.4,0,3.6,0-.4,0-.8,0-1.2,0,.7,0,1.4,0,2.2,0ZM243,24.3c-.4,0,.3,0-.3,0-.6,0-1.7,0-1.5,0,.8,0,1.7,0,2.5,0-2.7,0-5.4,0-5.5,0,2.6,0,4.7,0,7.3,0-.1,0-2.6.1-1,.2-.5,0-1,0-1.5,0,0,0,0,0,0,0ZM0,12.1c0-1.5,0-5.1,0-7,0-.5.1-2.1.1-2.1,0,0,0,2,0,0,0,.7,0,1.4,0,2.1,0-.1,0-.2,0-.4,0-.8,0-1.7,0-2.5,0,0,0,0,0-.1,0,3.1,0,1.3,0,2.8,0-1.5,0-2.9,0-4.4,0,.8,0,1.8,0,2.6,0,0,0-1.7,0-2,0-1.7,0,7,.1,7.7,0-1.4,0-2.8,0-4.3,0,.4,0,.8,0,1.2,0,3.2,0,6.8-.1,10.6,0,.3,0,.7,0,1,0,0,0-.2,0-.3,0,.5,0,1,0,1.5,0-1.5,0,.6-.1,3.1,0-1.3,0-3,0-2.9,0,1.8,0,3.8,0,5.7h0s0,0,0,0c3,0,6,0,8.7,0,1.1,0,1.1,0,3.7,0,0,0-.1,0-.2,0,4.5,0,7.3,0,11.9,0-.3,0-.5,0-.8,0-1,0-2,0-3,0-.7,0,.3,0-2.6,0-2.4,0-1,0-1.6,0-.9,0-1.7,0-2.6,0-.7,0,0,0-1.9,0,.8,0,1.6,0,2.4-.1.5,0,.9,0,1.4,0-.5,0-1,0-1.4,0,1.7,0,3.3,0,5,0-.6,0,1.2,0,2.2,0,1.5,0,.2,0,1.2,0,1,0,2.1,0,3.9,0-1,0,.3,0,0,0-.3,0-2.2,0-.3,0,3.5,0-.3-.1,2.1-.1,2.9,0,3.5.1,2.7.2-.7,0-3,0-3.7,0,4.1,0,4.2,0,4.9,0,2.6,0,.8.1,3.9,0,0,0-.1,0-.2,0,.5,0,.9,0,1.5,0-1.9,0-.3,0,.4,0,1.2,0-.7,0-.3,0,.9,0,2.3,0,1.4,0,.4,0,.8,0,1.2,0,1.4,0,4.9-.2,1.6-.1.3,0,1.4,0,2.2,0,.8,0,.8,0,1.5,0,2.9,0,1,0,.5.1,3.8,0,0,0,5.5,0,.5,0-2,0,.1,0,.4,0,1.9.1,4.9.1.3,0,.6,0,.9,0,1.6,0,.8.1,3.8,0-1.6.1-.5,0,2.2,0,.6,0-.7,0,0,0,.3,0,1.2,0,2.1,0,.4,0,2.4,0,3.7,0-1,0,1.6-.1-.6-.2,4.1,0,6.9,0,2.4,0,1,0,2.1,0,3.1,0,.7,0,1.4,0,2.2,0,.1,0,0,0,2.8,0-1.2,0-2.5,0-3.7,0,0,0-.2,0-.2,0,1.5,0,5.8,0,6.8,0,1,0-1,0-.7,0,2.5-.1,2.3,0,4.1,0,1,0-1.4,0-.9,0,2.1,0,3,0,4.9,0-.7,0-1.3,0-1.9-.1,1.9,0,4.1,0,5.9,0,.7,0,.2,0,.3,0,.6,0,2.9,0,3.1,0,1.8,0,1.9,0,3.7,0-.7,0-1.4,0-2.1,0-.3,0-.6.1-.9.2,1.8,0,3.5,0,5.3,0-1.3,0-2.6,0-3.9,0,2,0,4,0,6-.1,1,0,2.1,0,3.1,0,2.8,0,2.3-.1,3.6,0,.8,0,1.7,0,2.5,0-.1,0-.2,0-.4,0,1,0,2,0,3,0-1.1,0-2.1-.1-3.2-.1,2,0,2,0,2.3,0,.8,0,2.3,0,3,0,.2,0-1.7,0-1.1,0,.1,0,2.7.1,4.4,0,0,0-.2,0-.2,0,2.2,0,3.4,0,3.1.1,1.2,0,2.9,0,3.2,0,.6,0,1.2,0,1.8,0-.6,0,1.9,0,2.1,0-1,0-2.1,0-3.1,0,.8,0-2.4-.1,4.2,0,1.3,0-2.3,0-1.2,0,1.8,0,3.5,0,5.2,0,2.1,0-.5,0,4.5,0-10.9-.1,1.5,0,6.6-.1,1.4.1,5.7.2,11.7.1-.6,0-2.5,0-3.6,0-1.1,0,0,0-1.3,0-1.3,0-4.2,0-5.6,0,1.2,0,6.8,0,3.1,0,2.8,0,4.1,0,7.6,0,1,0,1,0,4.4,0-2,0,1.8.1,1,.2-2.4,0-1.1,0-2.5-.1-.1,0-2.4,0-2.9,0,2.3,0,3,0,1.7.2,1.6,0,2.6,0,2.7,0,.3,0,.7,0,1,0,.5,0,1,0,1.5,0-.8,0,.7,0,1.8,0,1,0-.4,0,2.5,0-1,0-1.8,0-2.8,0,1.9,0,3.7,0,5.6,0-1.3,0-4.1,0-4-.1.9,0,3.8,0,4.1,0,1.2,0,.6,0,.7,0,1.9,0,3.6,0,4.3,0,1.5,0,2.6,0,4.1,0,.9,0,.7,0,1.2,0,3.3,0,.2,0,6.6,0-.8,0-1.5,0-2.3,0,.7,0,1.4,0,2.2,0,.5,0,1,0,1.4,0,0,0,0,0,0,.1.5,0,1.1,0,1.6,0-.9,0-1.8,0-2.7,0,0,0-.2,0-.2,0,1.4,0,2.7,0,4.1,0,0,0,0,0,0,0,3.1,0,3.1,0,6,0,2.2,0,4.1,0,5.3-.1.5,0,.9,0,1.4,0,.3,0,.6,0,.9,0,.6,0,1.2,0,1.8,0,.3,0,.5,0-1.8,0,.8,0,4.8,0,6.5,0,1.2,0-.1,0,0,0,.5,0,2.6,0,3,0,1.8,0,3.1,0,4.8,0,.3,0,1.2,0,1.3,0,.6,0,2.1,0,2.2,0,8.6,0-.6-.1,7.4,0-.2,0-.5,0-.7,0,.6,0,1.2,0,1.8,0,.8,0-.2,0,1.4,0,0,0-.2,0-.3,0,.7,0,1.3,0,2,0,1.1,0,4.9,0,4.7.2,0,0-2.8,0-1.4,0,1.2,0,.4,0,.9,0,3.5,0,3.3,0,4.7,0,.2,0,.5,0,.7,0,.5,0,1.1,0,1.6,0,.1,0,.3,0,.4,0-.5,0-1.1,0-1.5,0,.6,0,6.6,0,4.3,0-.9,0-2.6,0-1.5,0,1.6,0,3.4,0,5.1,0,0,0,.1,0,.2,0,2.3,0,.2,0,.2,0,.5,0,1,0,1.6,0,.2,0,.4,0,.7,0,0,0,.3,0,1.8,0,1,0-.6,0,1.3,0-.1,0-.8,0,1.3,0,.2,0,.5,0,.7.1,2.6,0,3.8,0,6.9,0,1.9,0,4.6-.1,5.9,0,1.4,0,1,0,1.4,0,2,0,3.5,0,3.8,0,2.4,0,3.4,0,5.3,0-.1,0-.2,0-.2,0-1.8,0-2.7,0-5.1,0,.8,0,1.7,0,2.5,0-.1,0-.3,0-.4,0-7.6,0-5.9,0,.5,0,.6,0,1.1,0,1.7.1,3.7,0,5.4,0,9.6,0,.5,0,2.3,0,3.1,0,0,0,0,0,0,0,.5,0-.2,0-.2,0,.4,0,.8,0,1.3,0,.9,0,.6,0,2.5,0-.2,0-.5,0-.7,0,2,0,3.4,0,5.3,0-.3,0-.6,0-.9,0,4.1,0,.8.2,4,0,.2,0,.4,0,.6,0-1.3,0-2.6,0-3.8,0,0,0,0,0,0,0,1.4,0,2.7,0,4.1,0-1,0-2,0-3,0,1.6,0,3.2,0,4.8,0-1.7,0,.5,0,0-.1,2.8,0,5,.1,9.4,0,.9,0,.4,0,2.8,0-.6,0,2.5-.1,2.1-.2-.9,0-1.7,0-2.6,0,.9,0,1.1,0-.3.1-1.8,0-4.5,0-4.4,0-.7,0-1.4,0-2.1,0,.3,0,.6,0,.9,0-2,0-3.3,0-4.3,0,2.4,0,4.8,0,7.2,0-.4,0-.7,0-1.1,0,1.8,0,0,0,3.3,0,0,0,0,0,0,0,1.2,0,4.6,0,3.5-.1,1,0,1.2,0,1.8,0,2.7,0,4.4.1,3.5.2,1,0,2,0,3,0-.6,0-1.2,0-1.7,0,1.7,0,3.5,0,5.2,0,.2,0-3.4,0-2.3,0,.2,0,1.1,0,1.4,0,2.6,0-1.5,0-.7,0,2.7,0,2,0,3.2,0h0c0-.6,0-1.4,0-3,0-.1,0-.3,0-.4,0-1.8,0-1.7,0-3.3,0-1,0-2.2,0-3.3,0-.2,0,1.7,0-2.2,0-3,0-1.8,0-3.4,0-1.6,0-5.4,0-6.5,0,.9,0,1.9,0,2.9,0,.4,0,.8,0,1.1,0-2.2,0-4.4,0-5.9,0,0,0,0,0-.1h0c0,0,0,0,0,0-2.9,0-6,0-5.1,0,1,0,0,0,1.2,0,.1,0,.3,0,.4,0-2.3,0-3.8,0-2.8,0-.3,0-.7,0-1,0,0,0-.1,0-.2.1-.4,0-.8,0-1.3,0-.5,0-.9,0-1.4,0,.6,0,1.7,0-1.8,0,0,0,0,0,0,0-3,0-3.1,0-6.8,0,2.9,0,4.4,0,4.4,0,.7,0,1.4,0,2.2,0,.1,0,.2,0,.3,0-3.9,0-10.3.1-12.9,0-.3,0-.6,0-.9,0-2.5,0-3.6,0-6.2,0-.3,0,.3-.1-3.1-.1,0,0,.1,0,.2,0-.7,0-1.4,0-2.2,0-.1,0-.3,0-.4,0,1.2,0,2.5,0,3.7,0-1,0-2.1,0-3.1,0,1.3,0,1.9,0,1.1,0-1.2,0-2.3,0-3.5,0-.1,0-.2,0-.4,0,.6,0,1.1,0,1.7,0-3,0-5.7,0-8,0-.4,0,1,0-1.7,0,0,0-.1,0-.2,0-3.3,0-4.4,0-7.8,0,2.2,0,.2,0-.3,0-.4,0,1.1,0,1,0-.2,0-2.1,0-.5,0,4.1-.1,5.3,0,10.6,0-.8,0-1.6,0-2.5,0,.4,0,.7,0,1.1,0-3,0-1.5,0-2.7,0-1.2,0-3.4,0-4.9,0-.5,0,0,0-1,0-.7,0-2.7,0-3.1,0-.3,0,2.9-.1-1.5-.1-.8,0,1.3,0,1.3,0,.4,0-2.3,0-3.5,0-.1,0,.9,0-.2,0-2.5,0-4,0-5.6,0-.2,0-2.3.1-5,0-.1,0-.3,0-.4,0,.4,0,.8,0,1.2,0,.4,0,.9,0,1.4,0-2.7,0-3,0-4.3.1-4.4,0-1.7,0-.9-.1.6,0,1.1,0,1.7,0,0,0-.1,0-.2,0-6.5,0-1-.1-4.3-.1-.9,0-3.3,0-6.4,0-.3,0-.7,0-1,0,0,0,0,0-.2,0-3.7,0-4.4-.1-4.8-.1-1.6,0-2.8,0-3.3,0-2,0-2.5,0-4.4,0-2,0-.6,0-1.2,0-.5,0-2.1,0-2.7,0,.3,0,.5,0,.8,0-2.1,0-3.8,0-6.1,0-2.7.1-4.9,0-4,0,2.2,0,3.5,0,4.7,0-1.5,0-2.9,0-4.4,0-.4,0-.7,0-1.2,0-1.1,0-3.6,0-4.6,0-4.7,0-3.2.1-7.5,0,3.1,0,3.1,0,6.1,0-.7,0-2.2,0-1.2,0-2.9,0-2,0-3.1,0-1,0-3,0-2.9,0-.2,0-.4,0-.6,0-1.9,0-3.8,0-5.7,0,.8,0,1.6,0,2.4,0-.6,0-1.2,0-1.8,0-4.7,0-12.8,0-11.5.1-2.3,0-2.5,0-3.8,0-.1,0-.3,0-.4,0-1.5,0-2.6,0-3.9,0-1.3,0-1.6,0-1.8,0-.8,0-1.7,0-2.5,0-.5,0-1,0-1.5,0-.8,0-1.6,0-2.3,0-.4,0-3.5,0-4.8,0-1.3,0-1.3-.2-4.3-.1,0,0,.2,0,.2,0-.7,0-1.4,0-2.1,0,0,0,0,0-.1,0,.4,0,.7,0,1.1,0-.3,0-.6,0-.9,0-1.1,0-2.1,0-3.2,0,1.4,0,2.9,0,4.3,0-1.8,0-3,0-4.6,0-1.4,0-.9,0-.3-.1-.5,0-1,0-1.5,0,.3,0-.5,0,2.4,0-.2,0-.4,0-.6,0-.5,0-.8,0-1.3,0-1.4,0-2.6,0-2.5.1,0,0,1.5,0,1.4,0-.1,0-3.4,0,1.3,0-1.6,0-1.9,0-3.6,0,.1,0,.3,0,.4,0-.8,0-1.6,0-2.4,0,1.1,0-4.8-.1.5-.2-1.6,0-3.1,0-4.7,0,.3,0,.6,0,1,0,.7,0,1.4,0,2.1,0-.8,0-1.7,0-2.5,0-2,0-2.7,0-3.6,0,2.3,0,1.5,0,3.3,0,0,0,0,0-.1,0-.9,0-3.9,0-4.6,0-2.1,0-.5,0-1.9,0-1.4,0-3.1,0-4.3,0,0,0,.1,0,.2,0-2.2,0-1.8,0-2,0-3.7,0-5.6,0-9.8,0,.5,0,1.1,0,1.6,0-3.2,0-1,0,1.7,0-2.6,0-4,0-5.9,0-1.8,0-4.9,0-6.1,0,2.6,0,5.4,0,8.3,0-.3,0-.6,0-1,0-1.8,0-2.8,0-3.4,0-1.7,0-1.6,0-2.7,0,0,0,0,0,.1,0-3.5,0-7.3,0-9.6,0-.2,0-.4,0-.6-.1-1.5,0-2.8,0-4,0-1.2,0-.8,0-2.2,0-.3,0-.8,0-1.5,0-.7,0-3.2.1-3.5,0-1.3,0-2.4,0-3.7,0,1.2,0,2.4,0,3.6,0-1,0-2,0-3.1,0-.1,0-.3,0-.4,0-2.8,0-4.7,0-7.5,0-.5,0,.6,0-1.4,0-2.1,0-3.6,0-7.1,0-.2,0-1.2,0-2.5,0-.3,0,.9,0,.3,0-.7,0-3.6,0-3.8,0,0,0,.2,0,.3,0-.5,0-1,0-1.5,0,0,0,0,0-.1,0-2.9,0-4.4.1-8.6.1,1.2,0,2.4,0,3.6,0,.3,0,.7,0,1,0,2,0,3.9,0,5.9,0,.3,0,.6,0,1,0,.5,0,1,0,1.6,0-.1,0-.3,0-.4,0,1,0,2.1,0,3.1,0-2.1.1-5.8,0-5.6,0-.5,0-.9,0-1.4,0-.2,0-1.1,0-2.8,0,.4,0,.8,0,1.1,0-1.6,0-4.5,0-6.2,0-.7,0,0,0-.2,0-1.1,0-3.3,0-3.7,0-2.7,0-4.4-.1-7.3,0,3,0,1.4,0,2.4,0,.3,0,4.2,0-.6,0-.6,0-9.4,0-6.5-.1-1.4,0-2.6,0-3.9,0-3.2-.1-2.1,0-1.2,0-.5,0-1,0-1.6,0,1.2,0-4.7,0-6.7,0-.7,0,1.2,0-.3,0-.7,0-1.6,0-2.3,0,1.1,0-1.1,0-1.1.1-1.4,0-2.5-.1-1.7-.2-1.2,0-2.3,0-3.5,0,.5,0,1.1,0,1.6,0-3.8,0-8.7,0-9.5,0-.5,0-1,0-1.5,0-.2,0-.3,0-.5,0-2.3,0-4.6,0-6.9,0,2,0,2.5,0,4.7,0-.8,0-1.7,0-2.5,0-3.2,0-3.7,0-8.5,0-.2,0-3.9,0-4,0-.6,0,.3,0,0,0-.7,0-5,0-4.9-.1C1.6,0,16,0,20,0c40.6,0,80.4,0,120.8,0,.4,0,.2,0,.4,0,1.1,0,2.2,0,2.6,0,.9,0,.4,0,1,0,6.6,0,12.7,0,19.3,0,.4,0,0,0,.7,0,.4,0,1.6,0,2.5,0,3.1,0,5.6,0,8.8,0,1.8,0,4.4,0,6.4,0,.9,0,1.8,0,2.6,0,1.2,0,1,0,1.2,0,.8,0,.9,0,1.7,0,1.5,0,1.5,0,3.4,0,1.3,0,4.3,0,6,0,3.9,0,8.8,0,12.4,0,2.1,0,2.3,0,3.2,0,3.1,0,5.4,0,8.3,0,3.8,0,7.3,0,11,0,.6,0,.5,0,1.1,0,2.2,0,5,0,7,0,2.2,0,3,0,5.1,0,.6,0,.8,0,1.9,0,1.7,0,3.5,0,4.7,0,1.6,0,.2,0,2.4,0,0,0,.4,0,.9,0,1.3,0,1.2,0,3.2,0,.2,0,2.8,0,3.1,0,1.5,0,4.6,0,5.5,0,3.2,0,.7,0,3.4,0,1.2,0,2.4,0,3.7,0-.9,0,2.6,0,2.9,0,2,0,.8,0,3.4,0-3.4,0,3.3,0,4.8,0,7.2,0,13.7,0,21,0,2.4,0,5.7,0,8.2,0,.6,0,.1,0,.7,0,.5,0,0,0,.5,0,3.7,0,6.6,0,10.1,0,.2,0,.2,0,.4,0,2.8,0,8.2,0,10.2,0,2,0,3.1,0,4.1,0h.3s0,.3,0,.3c0,.6,0,1.3,0,2.1,0,3,0,7.6,0,5.6,0,2.1,0,4.1,0,6.2,0,.2,0,0,0,.2,0,.6,0,.8,0,1.2,0,1.1,0-.7,0,.9,0,.8,0,1.3,0,3.6,0,1.4,0,2.9,0,4.3v.4h-.4c-12.5,0-25.7,0-38.3,0-1,0-.3,0-1.5,0-4.2,0-11.7,0-15.3,0-3.6,0-2.8,0-5.1,0-.4,0,0,0-.5,0-2.7,0-5.8,0-8,0-1.4,0-1.3,0-2.3,0-1.5,0-3,0-3.8,0-3.7,0-6.2,0-9.7,0,.1,0,.2,0,.3,0-4.1,0-8.2,0-12.3,0,.2,0,.4,0,.6,0-4.8,0-4.3,0-3.8,0-.3,0-.7,0-1.1,0,.1,0-2.8-.1-6.5-.2-.3,0-2.1,0-1.9,0-.5,0-.8,0-1.2,0-.8,0-1.6,0-2.4,0-.4,0-.8,0-1.3,0,0,0,0,0-.1,0-2,0-6,0-7.5,0-3.8,0-7.8,0-10.8,0-1.5,0,0,0-2.2,0-.2,0-.5,0-.7,0-1.8,0-2.1,0-4.6,0-1.6,0-2.7,0-4.3,0-.4,0-.3,0-.6,0-.9,0-3.5,0-4.1,0-5.8,0-10.8,0-16.3,0-.6,0,.2,0-.4,0-1,0-.4,0-1,0-1.6,0-1.6,0-3.8,0-7.3,0-15.8,0-23.5,0-.2,0-.2,0-.5,0-1.7,0-3.4,0-5,0-2.6,0-4.5,0-7,0-4.9,0-9.4,0-14.4,0-4.2,0-7.8,0-12.3,0-19.9,0-40.2,0-60.3,0-.5,0-.3,0-.5,0-1.5,0-1.6,0-2.1,0-1.9,0-2.5,0-4.8,0-1.2,0-.3,0-2.4,0-1.9,0,.2,0-5.3,0-.1,0-.9,0-2,0-1.2,0,.2,0-2.6,0-6.5,0-14.7,0-22.3,0-.4,0-3,0-4.7,0H0s0-.4,0-.4c0-.6,0-1,0-1.2,0-1.7,0-1.4,0-3.6,0-1.8,0-3.2,0-5.3,0-.2,0-.6,0-2.2ZM333.2.5c-.4,0-1.2.1-3.8.1-.2,0,1.1,0-.3,0,1.4,0,2.8,0,4.1,0h0ZM.7.9c0,1.9,0,3.9,0,5.8,0-1.3,0-2.7,0-4,0-.6,0-1.2,0-1.8ZM217.7,24.2h0c2,0,4.1,0,6.1,0-.2,0-.4,0-.6,0-1.6,0-3.2,0-4.8,0-.2,0-.4,0-.6,0ZM201.6,24.3c-1.3,0-1,0-1.7,0h0c-.2,0-1.1,0-1.4,0,.1,0,.3,0,.4,0-3,0-8.9,0-1.3-.1-.1,0-.2,0-.3,0,3.8,0,8.1,0,4.3.1ZM302.5.6c-3.3,0-4.3,0-8.2,0,.6,0,1.1,0,1.7,0,.7,0,1.3,0,1.9,0h0c.1,0,.3,0,.4,0,1.4,0,2.8,0,4.2,0ZM77.1,24.3c-.9-.1-.6,0,1.9,0,.9,0,0,0,.6,0,3,0,3.3,0,2.6,0-1.7,0-3.4,0-5.1,0h0ZM.6,22.9h0c0,0,0,1.1,0-.2,0,.6,0,1.2,0,1.7h-.1c.5-.1.9-.1,1.4-.1-.3,0-.6,0-.9,0,.3,0,.5,0,.8,0,.4,0,.7,0,1.8,0-.3,0-.6,0-.9-.1,1.3,0,2.5,0,3.8,0,0,0,0,0,0,0,.5,0,1,0,1.4,0,.1,0,.3,0,.4,0,.6,0,1.2,0,1.7,0,.2,0-1.1,0,1.2,0-.7,0-1.4,0-2.1,0-2.9,0-5.8,0-8.7,0h0c0-.4,0-.9,0-1.4ZM100.7,24.2c-3.7,0-2.7,0-1.8,0,.6,0,1.2,0,1.8,0ZM293.2,24.3c1.1,0,2.2,0,3.3-.1,2.2,0,4.4,0,2.8,0-2,0-4.1,0-6,0ZM340.4,21.4c0,2.7,0,.2,0-.4,0-.7,0-1.8,0-3.5,0,1.6,0,3.5,0,3.9h0ZM249.7,24.2c-1.1,0-2.2,0-3.1,0,.3,0,2.2,0,.8,0,.7,0,1.4,0,2.1,0-.4,0,.1,0,.2,0,0,0,0,0,0,0ZM136.9,24.2c2.1,0,2.5,0,4.7,0,.3,0-2.3,0-3.9.1-.3,0-.5,0-.8-.1ZM65.2.6c.5,0,4.3,0,6.1,0-.2,0-.4,0-.7,0-1.8,0-3.7,0-5.5,0ZM340.3,16.7c0,.3,0,.5,0,.8,0-.3,0-.5,0-.8ZM243.6.3c.9,0-1.8,0,1.5,0h0c2.1,0,2.6,0,4.6,0-.7,0-4.7,0,.8,0,0,0,0,0,.8,0,.3,0,1.1,0,2.5,0,.4,0,3.6,0-.7,0,.1,0-.1,0,0,.1-1.7,0-3,0-4.8,0-2.7,0-4,0-4.6,0,2.3,0,6.1,0,6.6,0,2.2,0,2.8,0,1,0-7.5,0-2.1,0-8.7,0,0,0-.3,0-.3,0-2,0,1.1,0,1.4,0ZM259.3.4c-1.3,0-2.6,0-3.9,0,0,0,.7,0,2.8-.1.4,0,.8,0,1.1,0ZM149.7.5c-.2,0-.7,0-1.1,0-.4,0-9.8,0-5,0,.7,0,4.9,0,6.1,0ZM122.1,24.2c1.1,0,2.2,0,3.3,0-1.7,0-3.4,0-5.1,0,.6,0,1.2,0,1.8,0ZM311.2,24.3c-.5,0,1.1,0-.8,0,1.4,0,2.7,0,4,0,.4,0,.8,0,1.2,0,.3,0,.6,0,.9,0-.2,0-.4,0-.6,0-2.3,0-2.8,0-4.8,0ZM244.1,24.4c-.4,0,2.9,0-.4,0,.6,0,1.6,0,3.5,0,.3,0,.6,0,.9,0,0,0,.5,0,1.6,0,0,0,0,0,0,0,2.9,0,2.7,0,3.4,0-3,0-3.1,0-5.2,0-1.4,0-3.3,0-3.8,0ZM159.7.5c-2.1,0-.2,0-4,0,.2,0,.5,0,.7,0,1.1,0,2.2,0,3.3,0ZM233.5,24.2c.2,0,2.3.1,2.6,0-2,0-1,0-2.6,0ZM340.5,22.3c0,1,0,1.7,0,2.1-1,0-.8,0,0-.1h-.1c0,0,0-.3,0-.5,0-.2,0-.5,0-.7,0-.7,0-1.3,0-2,0,.4,0,.8.1,1.2ZM166.9,24.3c2.9,0-3.1,0-1.1,0,1.6,0,3.7,0,2.9,0-.6,0-1.2,0-1.8,0h0ZM183.6,24.3c-.5,0,.2,0-2.1,0-.7,0-5.8,0-3.7,0,1.8,0,3.8,0,5.7,0ZM318.7.5s4,0,4.5,0h0c1.4,0-2.8,0-1,.1-4,0-5.2,0-5,0,2.4,0,1.3,0,1.5,0ZM15.7.4h0c.3,0,2.5,0,2.2,0-2.7,0-2.2,0-4.6,0-.1,0-.3,0-.4,0,1,0,1.5,0,2.8,0ZM139.6.4c1,0,2.8,0,3.9,0-3.5.1-7.8,0-3.9,0ZM35.5,24.3s0,0,0,0c0,0,0,0,0,0,0,0,0,0,0,0ZM215.1.5c-.1,0-.2,0-.2,0h0c0,0,.1,0,.2,0ZM310.5.5c-1.7,0,3.9,0,5.7,0-.1,0-.1,0-.4,0-1.4,0-4.9,0-5.2,0ZM268.4,24.3c4.4,0-1.3.2-1.6,0,0,0,1.4,0,1.6,0ZM340.4,4.8c0,1.1,0-1.1,0,2.5,0,.2,0,.4,0,.6,0-1,0-2.1,0-3.1ZM297.1,24.5c5.5,0,10.8,0,7.2-.2-.4,0-.8,0-1.3,0,0,0-1.6,0-3.8,0-.3,0-1.6,0-1.8,0-.5,0,1,0-.3.1ZM64.8,24.4c0,0,.2,0,.3,0,.9,0,1.7,0,2.6,0-.1,0-.3,0-.4,0-.8,0-1.6,0-2.4,0,0,0,0,0,0,0ZM264.7.3c-.5.1,1.2,0,4.8,0-1.6,0-3.2,0-4.8,0ZM208.7,24.5c-.1,0-.2,0-.3,0-1.9,0-1.5,0-.6.1.3,0,.6,0,1,0ZM181.6,24.5c.8,0,.4,0,.5,0,2,0,2.3,0,4.7,0,.3,0,.6,0,.9,0-1.1,0-1.9,0-4.3,0,.4,0,.9,0,1.3,0-1.3,0-2.6,0-3.9,0-.2,0-.3,0-.5,0,.5,0,1,0,1.4,0ZM54.7,24.4c-1.3,0-2.6,0-3.9,0,0,0,0,0-.1,0,1.3,0,2.7,0,4,0ZM238.4.4c-.1,0-.2,0-.3,0,0,0,.1,0,.3,0ZM12.3.3c-1.5,0-3.5,0-5.1,0,.1,0,4.2,0,5.6,0,.2,0,.2,0-.5,0ZM337.4,24.4c-.4,0-.7,0-1.1,0-.9,0-1.8,0-2.6,0,0,0,0,0,0,0,3.9,0,3,0,4.9,0-.4,0-.7-.1-1.1-.2ZM13.9,24.5c2.8,0,3.8,0,2.2,0-1,0-2,0-3,0,.3,0,.5,0,.8,0ZM187,.3c-2.4,0-2.4,0-4.7,0,1.2,0,2.5,0,3.7,0,.3,0,.7,0,1,0ZM302.7.1c-1,0-2.9,0-5.7,0-.7,0-1.1,0-1.7,0-.3,0-.7,0-1,0h0c-2.5,0-.9,0-1,0,0,0-1.9,0-1.3,0,1,0,4.8,0,4.8,0-1.3,0-3.9,0-3.2,0,.8,0,3.3,0,4.9,0-2.2,0,2.4,0,2.9,0,2.7,0,.2,0-2.6,0,1.7,0-.8,0-1.2,0,1.8,0,7.8,0,5,0ZM274.2,24.5c1.9,0,4.8,0,6.1,0,.7,0-2.2,0-.2,0-1.8,0-2.2,0-1.9,0-.4,0-.8,0-1.3,0-.2,0-.4,0-.6,0-.2,0-.4,0-.7,0-.4,0-.9,0-1.3,0,0,0-.1,0-.2,0ZM119.3.3c.5,0,1,0,1.6,0,0,0-.1,0-.2,0,0,0,0,0-.1,0,.3,0,2.8,0,3.8,0,.5,0-.7,0,1.6,0-1.6,0-3.1,0-4.7,0,.1,0,.3,0,.4,0,0,0,0,0,0,0-.5,0-1,0-1.6,0-.3,0-.5,0-.8.1ZM210.2,24.5c1.8,0,2.4,0,1.5,0,0,0,0,0,0,0-.7,0-1.3,0-2,0,.2,0,.3,0,.5,0ZM223.1.2c-3.8.2,4.7,0,3.1,0,0,0-2.8,0-3.1,0ZM340.6,21.6c0,.9,0,1.9,0,2.8h0c0,0,0,0,0,0-.1,0-.2,0-.3,0,.1,0,.2,0,.3,0h0c0-.2,0-.4,0-.5,0-.8,0-1.6,0-2.4ZM26.2,24.6c1.1,0,3.9,0,5.3,0-.7,0-1.4,0-2.2,0,1.4,0,2.7,0,4.1,0,0,0-1.5,0-3.9,0-.4,0-2.7,0-3.5,0-.2,0,2.3,0,.6,0,.8,0,1.4,0,2.1,0,0,0,.1,0,.2,0-.9,0-1.8,0-2.7,0ZM285.1,24.5c2.6,0,2.9,0,3.4,0-1.2,0-2.4,0-3.6,0,0,0,.1,0,.2,0ZM49.2,24.6c1.4,0,.8,0,1.4,0,2.1,0,3.6,0,5.7,0-.1,0-.3,0-.4,0h0c10,0,4.8,0-1.2,0-.1,0-.3,0-.4,0-2.7,0-5.2,0-5,.1ZM256.6.2c-.1,0,.9,0-1,0-1.4,0,.9,0,1.5,0-.5,0-1,0-1.5,0,3,0,3.4,0,2.3,0,0,0-1.3,0-1.4,0ZM237.2.2c-.4.1,3.3,0,3.2,0-.5,0-.9,0-1.5,0-.6,0-.7,0-1.7,0ZM340.7,4.1c0-.1,0-1.2,0-1.1,0,1.4,0,4.1,0,3.6,0-.9,0-1.5,0-2.5h0ZM9.2,24.6c0,0,2.8,0,3.1,0,.3,0,.4,0,.7,0-1.5,0-4.6,0-3.8,0h0Z"/>
</svg>