<svg width="404" height="504" viewBox="0 0 404 504" fill="none" xmlns="http://www.w3.org/2000/svg">
<path d="M3.20998 144.335C3.34526 140.307 3.25658 153.753 3.45862 144.824C3.47227 146.686 3.48635 148.56 3.5 150.422C3.42517 150.894 3.35053 151.378 3.27571 151.85C3.25367 149.349 3.23164 146.848 3.20961 144.335C3.20973 144.335 3.20985 144.335 3.20998 144.335ZM2.27289 140.921C2.48631 143.212 2.54321 150.493 2.74015 142.628C2.66691 142.003 2.59368 141.362 2.52043 140.737C2.57724 138.006 2.63403 135.259 2.69053 132.528C2.66261 131.546 2.63465 130.566 2.60704 129.583C2.73432 128.333 2.86194 127.093 2.98953 125.843C2.9709 126.953 2.95195 128.079 2.93332 129.189C3.03667 133.579 3.06494 137.484 3.08419 143.444C3.1143 142.921 3.14416 142.396 3.17427 141.873C3.12305 144.897 3.07169 147.92 3.02047 150.932C2.97019 148.316 2.91427 145.392 2.8674 142.968C2.66784 146.847 2.77891 153.689 2.82053 157.25C2.87734 162.099 2.78245 161.003 2.82218 164.602C2.82839 165.176 2.90276 165.241 2.90402 166.377C2.90992 172.107 2.8705 183.237 2.69694 176.728C2.71929 167.296 2.57992 159.253 2.63084 150C2.43016 152.448 2.36187 147.573 2.27289 140.921ZM2.91189 314.182C2.81443 311.324 2.85376 305.503 2.92142 301.559C2.92142 301.555 2.92142 301.55 2.92142 301.546C2.93632 300.678 3.06585 298.713 3.06057 301.546C3.05152 306.165 2.84763 308.398 2.98605 310.822C2.96028 311.907 2.93735 313.046 2.91189 314.182ZM2.92398 324.22C2.87399 327.053 2.72036 325.768 2.76194 322.221C2.76182 322.221 2.76169 322.221 2.76157 322.221C2.77896 320.74 2.9004 323.647 2.77714 318.337C2.87303 317.253 2.96027 316.185 3.05306 315.114C3.05461 316.414 3.05713 317.599 3.05837 318.963C2.90075 318.045 2.97357 321.388 2.92398 324.22ZM2.78373 181.516C2.92553 181.961 2.92463 180.095 3.02303 176.918C3.01838 179.917 3.01341 182.916 3.00875 185.902C2.93365 184.435 2.85883 182.983 2.78373 181.516ZM2.8057 111.064C2.8057 111.06 2.8057 111.055 2.8057 111.051C2.78335 110.068 2.76091 109.083 2.73887 108.113C2.78948 107.526 2.83986 106.945 2.89047 106.358C2.84297 102.887 2.79547 99.3968 2.74766 95.9255C2.90225 96.3473 2.87709 102.578 2.98513 106.011C2.93856 111.116 2.84883 113.575 2.71781 113.907C2.74698 112.963 2.77653 112.021 2.8057 111.064ZM401.811 449.507C401.768 448.346 401.725 447.2 401.682 446.039C401.663 447.583 401.648 449.114 401.625 450.67C401.811 454.741 401.646 455.124 401.658 460.457C401.693 476.805 401.983 472.468 401.559 487.232C401.579 475.378 401.38 479.934 401.227 472.787C401.343 471.307 401.607 478.388 401.661 473.59C401.538 465.321 401.423 457.369 401.343 448.195C401.323 448.463 401.302 448.729 401.282 448.997C401.295 450.452 401.308 451.895 401.32 453.35C401.266 451.78 401.213 450.246 401.158 448.65C401.281 450.667 401.212 445.528 401.353 446.216C401.416 446.522 401.503 448.793 401.563 450.133C401.595 446.675 401.625 443.129 401.657 439.632C401.707 441.444 401.757 443.254 401.807 445.053C401.808 446.532 401.81 448.001 401.811 449.48C401.811 449.489 401.811 449.498 401.811 449.507ZM100.946 2.8414C105.336 2.69548 113.314 2.67133 117.513 2.83371C111.987 2.8362 106.472 2.83892 100.946 2.8414ZM2.60979 114.241C2.63459 113.743 2.65913 113.262 2.68394 112.765C2.72988 114.959 2.7755 117.167 2.82144 119.362C2.74976 119.783 2.67805 120.213 2.60667 120.647C2.6076 118.516 2.60885 116.371 2.60979 114.241ZM2.68962 254.653C2.68528 253.048 2.68763 252.905 2.69785 250.906C2.69779 250.908 2.69773 250.91 2.69767 250.913C2.70149 250.12 2.74336 243.488 2.79856 244.227C2.79949 247.52 2.79856 251.032 2.79856 254.402C2.76225 254.504 2.72623 254.526 2.68962 254.653ZM2.72184 215.894C2.72196 215.89 2.72208 215.885 2.72221 215.881C2.73059 214.682 2.74766 213.547 2.75077 212.31C2.83764 216.763 2.68179 217.467 2.72587 221.512C2.77026 225.557 2.85626 228.057 2.64274 231.489C2.61076 230.213 2.56501 228.839 2.52776 227.524C2.61313 221.782 2.53279 220.235 2.44866 215.629C2.53993 215.719 2.63057 215.805 2.72184 215.894ZM377.417 501.379C376.32 501.484 375.096 501.381 374.969 501.379C374.971 501.379 374.973 501.379 374.976 501.379C365.255 501.477 376.241 501.321 367.066 501.304C368.431 501.278 369.774 501.25 371.126 501.223C373.219 501.274 375.376 501.332 377.417 501.379ZM61.5602 501.369C61.4708 501.338 61.3639 501.307 61.2745 501.277C66.7878 501.284 68.1937 501.163 72.775 501.273C69.0363 501.305 65.2988 501.337 61.5602 501.369C61.5602 501.369 61.5602 501.369 61.5602 501.369ZM2.46605 282.442C2.40737 276.329 2.38152 271.807 2.47466 265.936C2.47478 265.931 2.4749 265.927 2.47503 265.922C2.48076 265.584 2.54507 267.221 2.56126 266.779C2.55165 265.568 2.53686 264.317 2.52538 263.093C2.57687 262.927 2.62836 262.769 2.67955 262.603C2.66495 266.049 2.65038 269.496 2.63579 272.955C2.6659 272.444 2.69575 271.921 2.72587 271.411C2.74139 274.346 2.75685 277.27 2.77237 280.204C2.68796 279.184 2.60352 278.165 2.51879 277.158C2.5011 278.918 2.48405 280.681 2.46605 282.442ZM153.346 501.705C152.376 501.672 154.172 501.615 152.666 501.586C151.16 501.558 148.383 501.621 149.034 501.526C151.062 501.513 153.191 501.499 155.257 501.485C148.608 501.315 141.975 501.469 141.873 501.258C148.254 501.313 153.501 501.287 159.678 501.229C159.422 501.396 153.244 501.541 157.134 501.698C155.884 501.7 154.571 501.704 153.36 501.705C153.355 501.705 153.35 501.705 153.346 501.705ZM0.511501 24.9303C0.520976 22.1184 0.485564 16.6042 0.507039 12C0.508945 10.1813 0.975392 8.50758 1.58223 7.25132C1.85987 6.63871 2.65566 5.40081 3.57376 4.52357C4.47578 3.62819 5.41904 3.07586 5.41864 3.09766C5.3096 3.21371 1.59154 6.79573 5.76236 3.15388C4.2422 4.23086 3.04318 5.65999 2.2443 7.32729C2.47145 7.06833 2.70774 6.82594 2.94568 6.60785C4.0546 4.71604 5.77142 3.18102 7.78757 2.293C7.89926 2.27799 8.0097 2.2654 8.12063 2.25429C4.54043 3.91461 4.34795 5.04308 4.10214 5.21323C3.9507 5.50899 3.95472 5.36231 2.98545 7.10277C4.76639 3.88108 8.39219 1.81124 12 1.91036C9.91494 1.85944 7.51341 2.71654 6.05123 3.82501C6.001 3.96434 6.83145 3.35136 7.88237 2.89866C8.92487 2.42305 10.1741 2.17465 10.5415 2.14546C12.104 2.12989 10.0457 1.88698 7.29628 3.3421C4.48307 4.70621 2.01106 8.73495 2.22438 12C2.2516 14.3237 2.29017 16.1166 2.35015 16.5719C2.36139 15.0731 2.37251 13.5418 2.38359 12C2.39172 10.1218 2.97511 8.246 4.0185 6.70984C3.51411 7.51905 3.12972 8.41234 2.89207 9.32638C2.62337 10.1756 2.47393 11.0772 2.45798 12C2.33843 19.1281 2.28468 26.9416 2.198 35.0229C2.20452 35.8517 2.2112 36.6824 2.21741 37.4984C2.28848 37.2561 2.35928 37.0267 2.43035 36.7843C2.43873 38.0351 2.44705 39.3013 2.45544 40.5521C2.22136 36.8645 2.22455 41.971 2.08174 48.1351C1.99947 44.8559 2.04935 40.8103 1.89608 41.0894C2.014 52.3446 1.84735 65.5258 1.98048 76.4747C2.01339 79.1927 2.21111 79.184 2.19287 85.5744C2.17114 85.3574 2.1319 85.3203 2.10334 85.18C2.19804 96.2323 2.25465 102.938 2.15809 114.424C2.22915 113.761 2.30051 113.108 2.37158 112.445C2.33618 110.007 2.30023 107.566 2.26483 105.141C2.38218 103.482 2.43397 105.934 2.43273 98.6595C2.4318 92.6994 2.37998 96.2474 2.34521 94.6265C2.29774 92.4319 2.39113 90.5057 2.33807 88.1452C2.2974 86.3202 2.20057 88.2945 2.2251 83.5341C2.35053 85.4486 2.48005 87.4014 2.60704 89.3286C2.57879 90.4899 2.5501 91.6425 2.52153 92.8039C2.488 91.6298 2.45491 90.4755 2.42138 89.3013C2.48161 93.4361 2.53841 97.3429 2.60081 101.618C2.41949 100.227 2.48748 104.646 2.5089 107.045C2.54239 110.783 2.41761 107.581 2.43841 110.031C2.45953 112.481 2.59894 115.124 2.56914 119.552C2.48843 117.179 2.41605 120.407 2.34155 119.783C2.26705 119.158 2.25055 114.474 2.16926 118.974C2.23104 127.627 2.51475 118.237 2.56072 124.081C2.61598 131.1 2.1535 132.77 2.05409 130.678C1.97585 129.032 1.99158 123.367 1.91365 121.708C1.77301 131.854 2.05066 131.942 2.10499 133.678C2.30275 139.982 1.77492 135.747 1.96584 143.213C1.86713 143.072 1.77835 142.958 1.68368 142.818C1.70169 144.106 1.72562 144.961 1.73989 146.518C1.93222 141.928 1.92397 145.685 1.92427 147.613C1.92489 150.65 2.0187 145.959 2.04292 146.763C2.10772 148.932 2.0783 152.363 2.16303 150.258C2.1236 151.203 2.08405 152.226 2.04493 153.196C2.09406 156.745 2.50604 165.085 2.42284 157.148C2.57591 157.888 2.50234 160.456 2.47905 162.459C2.45579 164.463 2.55327 164.425 2.53527 166.186C2.46323 173.192 2.29648 168.609 2.16578 167.499C2.25581 176.751 2.31538 167.693 2.37561 181.026C2.4821 182.315 2.59573 176.154 2.65721 181.284C2.4722 182.229 2.3393 186.007 2.27783 193.37C2.32037 194.084 2.36328 194.797 2.40582 195.512C2.23505 199.532 2.05748 197.477 2.26923 204.918C1.87959 200.923 2.12886 203.67 1.97023 210.331C1.93825 211.684 1.85741 208.558 1.81643 210.447C1.79795 211.303 1.85897 213.382 1.81185 215.473C1.78857 216.494 1.63833 221.267 1.70968 224.573C1.89845 222.148 2.05904 228.428 2.21521 223.042C2.17671 232.997 2.26735 239.964 2.00996 228.81C1.95283 231.337 1.89595 233.866 1.83913 236.393C1.88415 238.154 1.92882 239.93 1.97353 241.704C1.81838 241.972 1.77486 241.703 1.80215 248.641C1.76553 245.631 1.7283 242.633 1.69137 239.609C1.66004 239.507 1.62748 239.087 1.59708 239.188C1.65667 242.891 1.68231 253.317 1.7236 255.843C1.76489 258.37 1.77619 253.49 1.81625 254.218C2.14652 260.279 1.90293 259.798 1.95961 264.147C1.99314 266.7 2.02955 260.605 2.04383 261.971C2.09618 267.034 1.92065 269.383 1.91841 273.873C2.01805 272.278 2.11923 270.696 2.21979 269.139C2.21451 273.849 2.21363 279.098 2.24561 283.476C2.25809 285.194 2.33219 283.895 2.33715 284.176C2.36261 285.568 2.40294 291.234 2.40325 291.834C2.40384 296.349 2.30121 296.478 2.29559 300.866C2.2869 299.143 2.27907 297.524 2.27069 295.84C2.1043 295.074 1.93791 294.293 1.7712 293.527C1.7591 297.828 1.74724 302.13 1.73513 306.442C1.7907 303.291 1.846 300.127 1.90157 296.976C2.036 301.902 2.17074 306.828 2.30548 311.754C2.2229 314.319 2.14033 316.874 2.05775 319.439C2.07953 326.405 2.41476 325.003 2.1211 328.308C2.14593 330.361 2.17074 332.415 2.19526 334.469C2.15335 334.176 2.11137 333.885 2.06947 333.592C2.09524 336.068 2.12084 338.543 2.14692 341.019C2.29531 338.415 2.45146 335.864 2.5955 333.286C2.62775 338.158 2.50186 338.252 2.47045 338.978C2.38724 340.905 2.49948 344.731 2.42248 346.262C2.39604 346.78 2.31317 342.005 2.21759 343.651C2.19907 343.972 1.84773 350.365 1.92885 354.444C1.9925 354.367 2.07054 354.052 2.13978 353.886C2.17844 359.372 1.8462 362.169 1.75308 361.442C1.81827 364.364 1.82372 368.636 1.92555 369.236C1.92804 370.729 1.93039 372.211 1.93288 373.704C1.68486 372.148 1.73021 378.376 1.9435 378.784C1.94878 376.219 1.95433 373.651 1.95961 371.086C2.22103 373.026 2.37882 365.23 2.13666 381.45C2.00067 384.552 2.15519 375.938 2.05336 378.465C1.99408 382.854 2.04368 386.976 1.94899 391.148C1.83071 396.341 1.71694 389.952 1.86751 402.05C2.24473 375.365 2.12234 405.71 2.23938 418.243C1.86681 421.689 1.7488 432.274 1.85964 446.848C1.96333 445.33 1.90991 440.744 1.94405 438.102C1.97819 435.461 2.03971 438.319 2.08814 435.028C2.13656 431.737 2.20239 424.745 2.27563 421.413C2.33432 424.235 2.47307 438.166 2.30639 428.955C2.20365 435.831 2.09807 439.06 2.07881 447.583C2.24056 450.135 2.34128 449.946 2.34594 458.254C2.12118 453.34 1.96496 462.78 1.73275 460.702C1.78684 454.811 2.01253 458.104 2.12055 454.697C2.13135 454.347 2.07477 448.858 2.07881 447.583C1.87607 453.122 1.8006 455.037 1.55936 451.629C1.58047 455.548 1.55019 457.985 1.66537 458.342C1.6154 459.159 1.56539 459.98 1.51542 460.784C1.51666 462.059 1.52129 463.206 1.52036 464.558C1.69412 462.696 1.58715 466.305 1.66592 468.87C1.74478 471.435 1.88195 467.993 1.88381 475.038C1.92448 472.69 1.95938 470.543 1.99788 468.271C2.04258 472.814 2.08757 477.371 2.13227 481.914C2.23844 478.723 2.39613 471.809 2.53581 471.998C2.48308 474.091 2.57576 481.259 2.57957 482.043C2.59386 485.081 2.50576 483.425 2.50359 483.655C2.47363 486.995 2.47933 489.922 2.43969 492C2.42288 492.854 2.50853 493.557 2.5814 494.077C3.45982 497.385 5.35018 499.722 8.75103 501.051C10.6758 501.636 10.3345 501.376 11.489 501.519C11.6662 501.531 11.8361 501.538 12 501.541C19.2626 501.662 12.2096 501.777 27.5554 501.542C25.6539 501.474 23.778 501.404 21.8766 501.335C23.6505 501.309 25.4141 501.283 27.1881 501.257C28.375 501.27 29.5513 501.282 30.7382 501.295C30.7127 501.443 30.6821 501.591 30.6566 501.739C31.9584 501.747 33.2654 501.755 34.5672 501.763C32.3337 501.778 30.0949 501.792 27.8614 501.807C27.6573 501.833 27.4669 501.859 27.2629 501.885C30.5812 501.925 33.8877 501.966 37.2059 502.007C37.2697 501.955 37.3326 501.903 37.3964 501.852C44.8749 501.924 45.0531 501.967 52.1612 501.825C57.6364 501.827 62.0948 501.612 65.2599 501.521C66.3955 501.55 67.5324 501.579 68.6808 501.608C69.4083 501.565 70.1432 501.522 70.8707 501.48C72.3127 501.539 73.7745 501.599 75.2165 501.658C76.0202 501.523 76.4364 501.481 70.8095 501.433C72.7368 501.265 82.6433 501.339 86.6761 501.396C89.7357 501.438 86.3409 501.579 86.7237 501.596C88.0012 501.654 93.0437 501.604 94.1028 501.613C98.5822 501.653 101.721 501.646 105.766 501.677C106.554 501.684 108.756 501.773 108.942 501.775C110.397 501.791 113.988 501.834 114.397 501.835C135.463 501.902 112.953 501.516 132.542 501.556C131.955 501.505 131.416 501.455 130.842 501.404C132.321 501.401 133.817 501.398 135.296 501.395C137.172 501.437 134.903 501.515 138.629 501.452C138.386 501.515 138.143 501.578 137.887 501.64C139.508 501.606 141.07 501.573 142.73 501.539C145.333 501.757 154.838 501.806 154.162 502.061C153.932 502.148 147.194 502.238 150.755 502.33C153.648 502.349 151.69 502.245 152.87 502.239C161.395 502.202 160.9 502.347 164.384 502.308C164.932 502.246 165.509 502.182 166.071 502.119C167.384 502.138 168.702 502.156 170.029 502.174C170.335 502.132 170.654 502.09 170.96 502.048C169.723 502.046 168.329 502.043 167.193 502.04C168.777 501.878 183.322 501.805 177.775 501.943C175.516 501.999 171.379 501.975 173.994 502.167C177.886 502.14 182.302 502.111 186.399 502.084C186.526 502.125 186.645 502.166 186.773 502.208C192.294 502.181 187.273 502.016 187.283 501.927C188.546 501.925 189.822 501.923 191.084 501.92C191.62 501.96 192.129 502.002 192.69 502.041C192.741 501.977 193.448 501.829 197.212 501.884C199.632 501.92 195.821 502.081 200.436 502.058C200.091 501.959 198.424 501.838 203.564 501.806C204.075 501.91 204.781 502.005 205.176 502.114C211.569 502.014 214.478 502.174 221.981 502.058C226.742 501.985 233.262 501.725 236.338 502.126C239.82 502.136 238.715 502.036 239.745 502.014C244.608 501.908 248.225 502.098 249.131 502.109C254.91 502.181 257.501 502.115 262.209 502.205C261.954 502.13 261.815 502.06 261.61 501.988C257.297 502.099 255.112 502.094 249.063 502.07C251.091 502.055 253.121 502.04 255.15 502.025C254.818 501.965 254.489 501.904 254.17 501.844C235.46 502.082 239.825 501.707 255.51 501.625C256.863 501.736 258.264 501.848 259.604 501.959C268.665 501.79 272.929 501.937 283.176 501.972C284.395 501.976 288.832 501.912 290.739 501.909C290.707 501.908 290.676 501.908 290.644 501.907C291.83 501.802 290.223 501.754 290.032 501.66C291.065 501.648 292.099 501.636 293.133 501.624C295.441 501.696 294.63 501.755 299.172 501.738C298.56 501.667 297.955 501.595 297.343 501.524C302.32 501.521 305.577 501.599 310.21 501.565C309.432 501.592 308.663 501.619 307.884 501.646C317.967 501.715 309.943 502.135 317.562 501.926C318.047 501.963 318.519 502 319.004 502.036C315.865 502.045 312.724 502.054 309.598 502.063C309.534 502.115 309.465 502.167 309.414 502.218C312.771 502.203 316.144 502.187 319.5 502.171C317.05 502.206 314.585 502.241 312.135 502.276C316.027 502.301 319.92 502.325 323.812 502.35C319.679 502.16 325.037 502.136 324.03 501.948C330.921 502.105 336.335 502.312 347.017 502.179C349.135 502.153 347.984 502.021 353.995 502.181C352.54 501.972 360.07 501.873 359.102 501.673C357.01 501.683 354.84 501.689 352.811 501.701C355.121 501.77 355.504 501.961 351.995 502.017C347.516 502.089 340.982 501.957 341.25 502.169C339.464 502.159 337.802 502.153 336.067 502.144C336.782 502.092 337.481 502.039 338.182 501.987C333.246 502.069 330.144 502.042 327.77 501.91C333.653 501.88 339.523 501.85 345.405 501.819C344.539 501.81 343.66 501.801 342.794 501.793C347.248 501.658 342.653 501.53 350.962 501.501C350.91 501.563 350.87 501.624 350.819 501.686C353.843 501.521 362.125 501.522 359.483 501.332C361.984 501.391 362.494 501.427 363.911 501.325C370.509 501.469 374.746 501.652 372.398 501.87C374.848 501.835 377.299 501.8 379.736 501.765C378.32 501.705 376.902 501.646 375.486 501.586C379.748 501.59 384.042 501.594 388.292 501.597C388.7 501.773 380.087 501.65 382.572 501.808C383.07 501.84 385.364 501.772 385.966 501.79C392.321 501.983 382.345 501.843 384.218 501.991C390.874 502.023 389.108 502.155 392 502.158C393.175 502.1 395.587 502.169 398.608 499.607C398.904 499.418 399.21 499.193 399.47 498.989C400.951 497.345 401.289 496.266 401.598 495.39C401.862 494.492 402.086 493.687 402.1 492C402.098 491.832 402.097 491.656 402.096 491.469C402.082 489.032 402.284 485.973 402.147 483.281C402.121 482.801 401.875 487.329 401.885 477.813C401.894 470.427 402.068 473.501 402.13 469.509C402.192 465.514 401.95 456.376 402.224 453.683C402.188 455.776 402.168 458.441 402.139 460.763C402.192 461.707 402.245 462.627 402.298 463.558C402.229 458.249 402.31 452.761 402.183 449.188C402.378 442.105 402.197 434.183 401.977 436.327C402.009 438.659 402.105 436.122 402.044 439.36C401.992 439.692 401.941 440.042 401.89 440.374C401.896 434.86 401.895 431.031 402.051 433.546C402.055 432.69 402.058 431.843 402.062 430.988C401.949 430.835 401.836 430.699 401.723 430.546C401.71 429.525 401.697 428.5 401.685 427.479C401.709 426.344 401.735 425.206 401.76 424.058C401.939 425.602 401.944 428.233 402.044 419.529C401.983 419.503 401.921 419.466 401.859 419.44C401.938 412.153 402.088 411.961 402.082 402.812C402.296 409.831 401.916 413.671 402.347 413.646C402.318 415.407 402.29 417.183 402.261 418.944C402.324 419.212 402.386 419.478 402.449 419.733C402.416 410.277 402.005 394.569 402.277 388.238C402.244 387.472 402.215 386.703 402.18 385.925C402.344 379.723 401.975 377.044 402.188 370.752C402.21 370.103 402.556 371.461 402.544 363.271C402.499 363.475 402.423 363.581 402.366 363.747C402.394 361.974 402.423 360.21 402.451 358.449C402.409 358.13 402.368 357.796 402.326 357.477C402.31 360.501 402.293 363.518 402.277 366.542C402.263 364.029 402.249 361.5 402.234 358.987C402.167 362.266 402.166 363.745 402.057 361.768C402.05 358.922 402.043 356.072 402.037 353.226C402.009 352.933 401.981 352.642 401.953 352.349C401.87 353.727 401.788 355.119 401.704 356.497C401.772 349.083 401.776 342.636 401.939 336.945C401.967 335.975 402.075 339.405 401.977 332.796C402.035 332.694 402.081 332.516 402.135 332.402C401.974 324.31 402.022 321.652 402.138 313.216C402.029 318.678 402.1 313.805 402.042 312.414C402.002 311.46 402.008 315.181 401.966 314.76C401.924 314.339 401.756 309.505 401.736 313.638C402.08 323.771 401.669 326.532 401.834 339.549C401.79 337.546 401.745 335.528 401.701 333.524C401.671 334.467 401.644 335.312 401.612 336.333C401.679 329.072 401.635 332.603 401.582 329.62C401.529 326.634 401.484 321.206 401.469 317.569C401.465 316.423 401.542 317.631 401.549 315.046C401.554 313.285 401.44 308.472 401.575 307.36C401.662 306.633 401.904 314.365 401.904 303.674C401.99 301.662 401.963 306.788 401.974 306.898C402.076 307.83 402.153 301.257 402.075 298.22C402.068 297.974 401.988 300.373 401.957 297.764C401.882 291.575 401.974 288 402.098 283.992C401.952 283.558 401.779 278.35 401.832 271.866C401.791 271.535 401.749 271.219 401.707 270.887C401.729 271.894 401.751 272.9 401.773 273.907C401.747 275.004 401.728 276.167 401.697 277.239C401.661 270.719 401.461 269.797 401.388 266.67C401.137 255.971 401.667 262.456 401.758 264.385C401.721 265.776 401.68 267.121 401.641 268.5C401.692 268.347 401.743 268.191 401.794 268.051C401.792 252.035 402.122 265.612 402.216 257.482C401.967 255.389 401.943 249.419 402.101 241.813C402.1 240.971 402.1 240.125 402.098 239.283C402.062 239.143 402.006 239.145 401.982 238.916C401.94 229.752 402.324 228.12 402.36 227.252C402.521 223.398 402.298 220.397 402.296 219.261C402.288 214.475 402.387 213.084 402.345 208.529C402.299 203.629 402.223 206.979 402.155 205.489C402.101 204.293 402.091 200.428 402.035 198.831C402.081 199.465 402.126 200.17 402.172 200.803C402.234 195.725 402.295 191.574 402.31 185.807C401.976 179.299 402.54 173.761 402.082 176.007C402.051 181.469 401.999 184.523 401.882 187.446C401.867 183.86 401.853 180.272 401.838 176.687C401.888 175.641 401.937 174.898 401.988 173.66C401.881 170.981 401.927 164.769 401.896 162.33C401.749 150.908 401.567 154.441 401.873 144.015C401.903 151.53 402.052 151.518 402.031 158.97C402.137 157.362 402.115 153.575 402.243 156.025C402.211 148.816 402.098 151.146 401.997 148.34C401.91 145.92 401.905 141.046 401.792 141.322C401.854 140.824 401.914 140.438 401.976 139.941C401.976 135.271 401.975 130.601 401.975 125.931C402.04 127.922 402.105 129.912 402.169 131.902C402.194 130.398 402.218 128.891 402.243 127.387C402.041 115.901 402.411 96.0938 401.904 99.2579C401.888 93.7194 401.951 93.0266 402.047 90.0153C402.009 89.6836 401.977 89.361 401.934 89.0292C401.974 85.4566 401.83 82.714 401.867 79.5623C401.904 76.4107 402.041 75.6282 401.812 75.1688C401.877 73.1271 401.932 71.0973 401.993 69.0684C401.941 67.8441 401.89 66.621 401.838 65.4095C401.865 63.4953 401.892 61.5768 401.92 59.6626C401.81 58.6396 401.857 51.113 401.784 47.795C401.902 44.6452 402.273 44.7317 402.207 37.3215C402.115 37.5129 402.023 37.7014 401.931 37.8928C401.95 36.1957 401.969 34.4951 401.988 32.7852C402.018 32.6832 402.048 32.5948 402.078 32.4928C402.069 33.3604 402.06 34.2163 402.05 35.084C402.101 34.331 402.152 33.5935 402.203 32.8533C402.127 30.2629 402.052 27.6693 401.976 25.0662C401.919 28.575 401.862 32.0852 401.805 35.594C401.737 31.191 401.805 28.1264 401.729 24.2976C401.857 20.9672 401.93 22.197 402.068 23.5495C402.056 22.3121 402.045 21.0601 402.033 19.8226C402.171 20.6389 402.254 18.5458 402.243 25.7803C402.282 25.2829 402.319 24.7755 402.36 24.2908C402.354 23.1041 402.388 22.3345 402.372 21.0332C402.331 17.4852 402.088 14.765 402.003 15.0075C401.958 15.1383 402.044 18.6367 401.981 18.4964C401.827 18.1502 401.896 10.1253 401.742 21.6997C401.644 17.8582 401.718 17.0002 401.746 12.7632C401.695 13.0948 401.644 13.4169 401.593 13.7358C401.6 13.1574 401.607 12.5787 401.614 12C401.631 10.6653 401.369 9.32499 400.841 8.09359C402.78 10.1905 394.592 -1.84034 401.837 9.09092C400.757 5.26848 397.278 2.27758 393.333 1.79439C394.144 1.87193 394.949 2.04723 395.725 2.31713C397.401 2.9764 398.884 4.07446 400.006 5.47244C398.714 3.80548 396.886 2.53358 394.836 1.91116C393.783 1.63022 392.833 1.55123 392 1.56654C389.088 1.62526 387.55 1.70279 385.818 1.79391C390.322 1.86189 390.032 1.80083 392 1.76215C392.497 1.75478 393.138 1.7709 394.011 1.93689C393.844 1.98023 394.032 2.08118 393.639 2.09143C393.244 1.9989 392.676 1.91201 392 1.89981C388.925 1.84229 383.699 1.91815 382.295 1.92427C377.091 1.9469 381.172 1.79724 377.691 1.79409C374.206 1.79099 370.097 1.88006 367.251 1.73166C367.302 1.81484 367.53 1.9009 367.734 1.97664C362.31 2.00396 363.392 1.90569 362.831 1.89296C353.871 1.68371 349.01 1.86037 338.762 1.88179C340.064 1.90756 341.379 1.93082 342.693 1.95503C334.961 2.13164 340.17 2.07757 346.882 2.13593C340.59 2.11823 336.987 2.26864 332.546 2.31335C328.105 2.35798 320.489 2.28074 317.706 2.22052C324.075 2.12365 330.943 2.18753 338.014 2.16083C337.21 2.0761 336.429 2.00438 335.599 1.91127C331.299 2.08912 328.807 1.9702 327.391 1.94661C323.231 1.87741 323.362 2.03006 320.848 1.86586C320.95 1.92235 321.025 1.96984 321.127 2.0226C312.538 1.999 303.274 1.89914 297.684 2.10774C297.174 1.97207 296.789 1.84137 296.202 1.70291C292.565 1.80503 289.45 1.70045 286.388 1.72433C283.338 1.74824 284.499 1.85788 280.913 1.9001C280.249 1.90787 278.867 1.83924 277.234 1.88985C275.584 1.94073 269.501 2.319 268.773 1.98854C265.698 1.98699 262.787 1.9749 259.776 1.96931C262.711 1.95069 265.647 1.93265 268.569 1.91402C266.068 1.83393 263.583 1.75407 261.081 1.67398C260.762 1.74539 260.442 1.81809 260.136 1.88857C253.398 1.9755 248.508 1.85875 241.705 1.88637C240.57 1.89103 243.249 2.03221 238.21 1.99623C233.169 1.96022 229.428 1.6967 220.84 1.79849C220.406 1.80376 217.863 2.00558 214.787 1.86586C214.087 1.8342 217.033 1.78734 215.427 1.74575C213.818 1.70415 206.644 1.66994 206.082 1.5709C206.159 1.60597 206.606 1.64231 206.823 1.67801C205.598 1.69477 204.361 1.71154 203.124 1.72799C203.009 1.66622 202.885 1.60435 202.77 1.54288C195.725 1.68663 192.085 1.92111 181.646 1.84353C184.581 1.93325 187.517 2.02333 190.44 2.11304C191.244 2.05002 192.049 1.98657 192.841 1.92354C197.651 1.94868 202.475 1.97365 207.286 1.99879C208.077 1.92707 208.854 1.85556 209.646 1.78384C210.922 1.79315 212.185 1.80217 213.461 1.81149C213.142 1.86333 212.82 1.9149 212.488 1.96675C215.015 1.95402 217.544 1.94103 220.058 1.9283C214.941 2.23434 205.767 1.90227 206.429 2.15827C205.294 2.11855 204.157 2.07855 203.022 2.03852C202.524 2.16266 200.215 2.12693 196.146 2.10737C197.077 2.16853 198.106 2.22886 198.961 2.29065C195.005 2.20435 187.987 2.21273 183.89 2.17951C182.091 2.16492 183.888 2.07492 183.353 2.06434C180.609 2.00908 175.365 2.16611 174.267 2.15369C167.708 2.07979 163.445 1.78207 156.285 1.97829C163.675 2.02672 159.655 2.00626 162.284 2.11524C163.107 2.14941 172.653 2.22069 160.699 2.18903C159.298 2.18507 137.607 1.97937 144.737 1.82174C141.228 1.87204 138.48 1.93019 135.264 1.9836C127.402 1.56818 130.123 1.95843 132.407 2.17328C131.118 2.17421 129.892 2.1764 128.565 2.1764C131.385 1.95068 117.016 1.93666 112.14 2.05061C110.507 2.08849 115.074 2.16074 111.297 2.19489C109.498 2.17906 107.458 2.15856 105.557 2.14088C108.313 2.28368 102.904 2.33872 102.979 2.484C99.5211 2.35454 96.8758 2.08014 98.7764 1.93141C95.9182 1.99163 93.045 2.05178 90.1868 2.11231C91.514 2.14677 92.8585 2.18093 94.1858 2.2154C84.8436 2.12412 72.8315 2.33182 70.8789 2.02662C69.6409 2.0288 68.3899 2.03068 67.1519 2.03285C66.7691 2.08439 66.399 2.13603 66.0162 2.18757C60.4148 2.14287 54.826 2.09787 49.2246 2.05317C54.2121 2.02119 55.3994 1.94783 60.6298 2.0074C58.6142 1.94812 56.5611 1.88852 54.5837 1.82925C46.7095 1.98883 45.6353 2.09371 33.7796 2.04621C33.2436 2.04404 24.2857 1.91021 23.9794 1.89717C22.5761 1.83757 24.7063 1.75097 24.0814 1.72085C22.3457 1.6364 11.7987 1.42436 12.0029 1.39238C14.581 0.999934 50.0667 0.994733 59.6641 0.974552C159.21 0.765301 256.565 1.04525 355.486 0.997439C356.502 0.996699 356.059 0.938766 356.492 0.936284C359.184 0.921734 361.828 1.01202 362.824 1.01575C364.951 1.02343 363.779 0.940006 365.333 0.939946C374.401 0.940472 383.181 0.95635 392 0.967497C397.825 0.834209 403.15 6.05699 403.022 12C403.022 13.6245 403.023 15.2565 403.024 16.8982C403.025 17.9447 402.959 16.8763 402.97 18.7141C402.977 19.6627 403.079 22.6325 403.081 24.7737C403.086 32.2522 403.053 38.5342 403.055 46.4212C403.056 50.7349 403.047 57.2063 403.049 62.0294C403.049 64.1596 403.096 66.3789 403.098 68.4835C403.1 71.4699 403.005 70.8601 402.999 71.3195C402.973 73.3358 403.077 73.615 403.075 75.5293C403.07 79.09 403 79.2816 403.006 83.7993C403.011 87.0282 403.066 94.4181 403.082 98.4893C403.001 108.01 403.033 120.007 403.06 128.89C403.076 134.147 402.978 134.635 402.978 136.779C402.98 144.333 403.105 150.066 403.109 157.161C403.114 166.578 403.032 174.923 403.026 184.045C403.025 185.525 403.114 185.185 403.116 186.637C403.125 192.01 403.141 198.88 403.128 203.666C403.114 209 402.985 210.967 403.011 216.187C403.019 217.717 403.133 218.166 403.147 220.73C403.17 224.826 403.07 229.317 403.059 232.176C403.044 236.094 403.16 232.687 403.144 237.97C403.143 238.187 403.061 238.978 403.065 240.113C403.076 243.418 403.141 243.09 403.135 247.927C403.134 248.391 403.055 254.804 403.055 255.442C403.054 259.194 403.026 266.748 403.043 268.969C403.102 276.907 403.227 270.658 402.957 277.409C403.023 280.382 403.09 283.33 403.154 286.482C403.094 284.378 403.008 292.914 403.013 293.514C403.058 298.475 403.163 295.52 403.146 301.811C402.903 293.503 403.115 309.927 403.121 313.59C403.151 331.227 403.09 347.259 403.092 364.985C403.093 370.919 403.144 378.872 403.143 385.15C403.143 386.613 403.085 385.508 403.084 386.796C403.083 388.081 403.148 386.655 403.144 388.122C403.122 397.246 403 404.396 403.152 412.755C403.13 413.162 403.113 413.149 403.089 413.823C403.225 420.663 403.042 433.837 403.016 438.789C402.977 446.534 403.07 448.512 403.051 454.139C403.026 461.579 402.846 472.75 403.143 467.761C403.152 472.865 403.155 477.779 403.127 482.934C403.124 483.508 403.049 483.112 403.047 483.342C403.036 484.797 403.104 485.27 403.107 486.253C403.115 488.917 403.035 484.569 403.057 488.368C403.064 489.527 403.087 490.396 403.105 492C403.1 493.279 402.982 495.101 401.729 497.409C399.85 500.85 395.997 503.17 392 503.131C361.485 503.132 329.08 503.114 298.302 503.105C295.941 503.104 297.495 503.177 294.534 503.173C284.248 503.156 265.835 503.034 256.965 503.05C248.096 503.067 250.097 503.174 244.547 503.219C243.475 503.227 244.354 503.166 243.384 503.166C236.862 503.16 229.087 503.065 223.804 503.051C220.31 503.041 220.59 503.137 218.166 503.144C214.554 503.154 210.837 503.057 208.91 503.054C199.85 503.04 193.621 503.118 185.161 503.078C185.492 503.099 185.71 503.119 185.991 503.14C175.973 503.136 165.968 503.133 155.951 503.129C156.423 503.149 156.879 503.168 157.352 503.188C145.598 503.177 146.939 502.968 147.973 503.409C147.118 503.425 146.212 503.443 145.396 503.457C145.727 503.23 138.618 503.064 129.57 503.006C128.906 503.002 124.453 503.223 124.938 502.962C123.777 503.026 123.085 503.07 122.102 503.126C120.188 503.047 118.249 502.968 116.335 502.89C115.302 502.901 114.254 502.913 113.22 502.925C113.067 502.976 113.185 503.029 112.853 503.079C108.055 503.087 98.2139 503.024 94.4224 503.03C85.0037 503.047 75.4147 503.185 68.0891 503.036C64.5207 503.051 68.0643 503.151 62.7571 503.139C62.1575 503.088 61.5936 503.039 60.9685 502.986C56.6311 503.214 55.7248 503.076 49.7809 503.028C45.7611 502.996 43.1287 503.051 39.3006 503.04C38.3306 503.038 38.4681 502.971 37.8044 502.973C35.5818 502.98 29.2402 503.072 27.671 503.074C22.215 503.084 17.0541 503.088 12 503.088C6.04836 503.209 0.791885 497.921 0.922629 492C0.926388 489.176 0.931007 486.324 0.936284 483.41C0.938768 481.955 0.872885 483.842 0.87568 482.336C0.880066 479.913 0.981303 481.339 0.98627 479.935C0.999554 476.02 0.892802 475.99 0.887215 470.529C0.868908 452.548 0.949101 431.874 0.956242 413.088C0.956242 412.501 0.893695 412.536 0.893074 411.898C0.890015 407.739 0.974564 403.528 0.973636 399.752C0.972394 393.485 0.884524 388.776 0.884834 382.586C0.885145 370.487 0.930137 359.678 0.932623 347.235C0.934796 337.05 0.926453 328.205 0.926763 317.038C0.928005 268.26 0.72947 218.486 0.835032 169.376C0.837824 168.126 0.893087 168.635 0.890693 168.254C0.866788 164.629 0.792224 164.306 0.948369 163.017C0.917595 158.4 0.800285 156.943 0.808666 151.367C0.81306 148.395 0.994882 150.614 0.90113 145.586C0.816378 141.046 0.716732 146.056 0.818553 132.555C0.821352 132.198 0.93218 130.439 0.903327 127.632C0.874763 124.811 0.795404 128.076 0.771498 121.286C0.715618 105.347 0.811418 85.1708 0.781934 66.6406C0.780071 65.4792 0.720821 54.2943 0.693499 52.0865C0.640409 47.8137 0.558051 48.7064 0.537867 43.1568C0.522343 38.8687 0.615635 35.3307 0.597007 30.2894C0.594743 29.7021 0.49878 28.7188 0.511501 24.9303ZM401.625 431.002C401.53 429.955 401.184 428.067 401.289 421.739C401.299 421.139 401.538 424.377 401.576 420.882C401.601 424.302 401.609 427.633 401.625 431.002C401.625 431.002 401.625 431.002 401.625 431.002ZM10.8779 2.78838C6.45794 3.22062 2.72462 7.2698 2.67283 11.7403C2.68776 8.68119 4.35047 5.67649 6.94633 4.00541C8.16097 3.30563 9.50715 2.89314 10.8779 2.78838ZM91.2056 501.443C91.201 501.443 91.1965 501.443 91.192 501.443C96.1693 501.399 101.15 501.354 106.127 501.309C105.604 501.342 105.079 501.375 104.556 501.408C100.626 501.46 96.6939 501.512 92.7766 501.563C92.2534 501.523 91.7287 501.483 91.2056 501.443ZM51.8824 501.792C48.7045 501.753 49.4823 501.687 47.7338 501.622C47.7338 501.623 47.7338 501.623 47.7338 501.623C47.2723 501.606 45.1231 501.591 44.2925 501.589C44.5988 501.63 44.9944 501.671 45.3263 501.712C37.9113 501.812 23.4106 501.457 42.1842 501.313C41.9035 501.366 41.6352 501.418 41.3545 501.47C50.6839 501.455 61.0841 501.568 51.8824 501.792ZM401.474 355.987C401.304 348.024 401.268 345.47 401.385 335.809C401.433 337.174 401.482 338.538 401.53 339.903C401.481 341.498 401.432 343.082 401.382 344.677C401.382 344.682 401.382 344.686 401.382 344.691C401.434 345.01 401.486 345.33 401.538 345.636C401.517 349.082 401.496 352.542 401.474 355.987ZM2.33166 242.745C2.67271 240.525 2.47447 241.165 2.55138 247.505C2.57808 249.7 2.63775 247.561 2.64769 248.927C2.70195 256.301 2.47345 256.891 2.35455 255.245C2.34648 251.071 2.33911 246.855 2.33166 242.758C2.33166 242.754 2.33166 242.749 2.33166 242.745ZM2.2608 51.4132C2.2608 51.4087 2.2608 51.4041 2.2608 51.3996C2.34399 51.2082 2.36637 54.181 2.44518 50.8283C2.44487 53.379 2.44421 55.9296 2.4439 58.493C2.43615 57.7411 2.42876 56.9734 2.42101 56.2215C2.39245 56.885 2.36352 57.5506 2.33496 58.2142C2.43058 59.1201 2.37499 59.9621 2.34301 62.6416C2.44516 61.9014 2.54737 61.1646 2.64952 60.4245C2.6191 63.5379 2.58857 66.6624 2.55815 69.7758C2.53241 69.814 2.50663 69.8532 2.48089 69.8914C2.51378 71.0652 2.54704 72.227 2.57994 73.4007C2.54921 73.7198 2.51876 74.027 2.48803 74.3461C2.5113 75.7621 2.53456 77.1806 2.55815 78.5967C2.48371 79.0276 2.45154 75.9066 2.47045 81.4395C2.39408 79.7423 2.31795 78.0487 2.24158 76.3387C2.24779 68.0306 2.25428 59.7213 2.2608 51.4132ZM2.43658 300.424C2.4223 291.273 2.47625 293.85 2.64512 295.969C2.5756 297.449 2.5061 298.944 2.43658 300.424ZM276.144 501.714C278.799 501.599 281.465 501.485 284.183 501.373C289.594 501.309 295.007 501.519 290.936 501.601C286.035 501.7 280.917 501.59 276.144 501.714ZM398.509 499.142C393.143 502.583 398.356 499.499 399.052 498.204C400.109 497.138 401.463 495.245 401.52 492C401.521 491.593 401.523 491.17 401.524 490.728C401.525 491.145 401.528 491.57 401.531 492C401.695 495.488 399.248 498.612 398.509 499.142C398.509 499.142 398.509 499.142 398.509 499.142ZM169.6 501.584C166.947 501.588 164.308 501.62 161.936 501.581C162.651 501.471 167.397 501.571 164.003 501.408C165.7 501.405 167.399 501.402 169.083 501.399C168.013 501.467 169.453 501.517 169.593 501.584C169.596 501.584 169.598 501.584 169.6 501.584ZM2.56639 389.081C2.43599 394.288 2.49179 395.275 2.58214 400.52C2.47597 401.259 2.29812 395.005 2.25897 391.087C2.36142 390.424 2.46394 389.757 2.56639 389.081ZM170.411 2.51201C171.661 2.37668 180.885 2.35903 185.468 2.39904C184.923 2.41911 184.375 2.43945 183.829 2.45983C179.362 2.47722 174.878 2.49463 170.411 2.51201ZM401.533 488.776C401.529 489.463 401.526 490.114 401.524 490.728C401.523 490.045 401.525 489.386 401.533 488.776ZM402.121 211.542C402.248 213.723 402.291 207.239 402.241 215.112C402.241 215.112 402.241 215.112 402.242 215.112C402.209 220.319 402.2 221.469 402.19 226.293C402.026 224.556 401.967 214.769 401.934 228.259C401.933 228.436 402.031 228.082 402.018 230.238C402.014 230.903 401.933 233.032 401.91 236.27C401.903 237.317 401.878 245.181 401.877 234.461C401.762 234.78 401.647 234.204 401.536 234.23C401.504 230.045 401.727 226.829 401.722 222.403C401.713 215.83 401.487 212.486 401.784 211.222C401.857 216.749 401.858 226.239 401.68 227.476C401.678 232.823 401.824 234.358 401.896 230.047C401.804 211.58 402.113 224.978 401.997 208.808C401.955 208.616 401.911 207.951 401.872 208.053C402.017 203.117 402.075 210.763 402.121 211.542ZM401.805 250.158C401.718 246.967 401.63 243.787 401.542 240.609C401.685 240.609 401.812 242.361 401.892 247.39C401.863 248.308 401.834 249.239 401.805 250.158ZM377.473 2.23224C377.014 2.30955 375.789 2.38039 374.895 2.45397C373.926 2.38877 350.953 2.32622 362.64 2.26227C364.338 2.25295 374.691 2.38965 377.473 2.23224ZM2.44994 352.927C2.39809 355.633 2.34616 358.327 2.29431 361.02C2.26142 356.875 2.22767 352.726 2.19416 348.581C2.2794 350.034 2.3647 351.474 2.44994 352.927ZM320.187 501.849C319.044 501.847 322.84 501.74 318.337 501.757C321.694 501.689 324.837 501.631 328.117 501.567C329.1 501.618 330.093 501.668 331.075 501.718C331.841 501.686 332.622 501.654 333.388 501.621C332.928 501.695 332.519 501.766 332.034 501.841C326.508 501.684 325.241 501.862 320.187 501.849ZM155.869 502.136C154.875 501.977 162.877 501.882 155.005 501.857C156.499 501.752 158.899 501.697 163.507 501.688C164.246 501.728 164.984 501.767 165.724 501.807C165.826 501.7 167.011 501.661 169.6 501.584C169.603 501.584 169.605 501.585 169.607 501.585C176.611 501.577 176.193 501.613 177.877 501.789C170.462 501.689 170.24 501.85 165.186 501.946C161.715 502.011 157.183 501.982 155.869 502.136ZM400.195 6.67946C398.644 4.63647 398.315 4.77719 397.853 4.38124C397.306 4.19871 396.617 2.75594 392.105 2.34797C392.685 2.3199 393.273 2.34399 393.854 2.42111C396.427 2.90002 398.769 4.48065 400.195 6.67946ZM129.991 501.59C130.591 501.837 135.528 502.029 136.371 501.628C131.559 501.546 133.909 501.773 129.991 501.59ZM396.935 500.755C394.811 501.93 393.059 502.012 392 501.993C389.499 501.919 390.152 501.786 392 501.684C392.412 501.661 392.877 501.613 393.375 501.522C393.942 501.492 394.509 501.411 395.058 501.283C396.555 500.768 397.916 499.879 398.99 498.729C398.42 499.487 397.727 500.175 396.935 500.755ZM2.13904 462.593C2.31509 469.663 2.23695 454.96 2.34686 459.899C2.43471 463.843 2.25733 469.04 2.14619 467.074C2.14308 465.709 2.14091 464.189 2.13904 462.606C2.13904 462.602 2.13904 462.597 2.13904 462.593ZM7.99747 500.96C7.52169 500.635 7.65321 500.658 7.29312 500.458C6.97962 500.215 5.94825 499.942 4.22941 497.826C3.75049 497.314 2.18981 494.581 2.29662 492C2.29614 488.97 2.27788 486.619 2.19397 489.484C2.19397 490.314 2.19388 491.154 2.19372 492C2.13335 495.715 4.51328 499.449 7.99747 500.96ZM401.773 395.63C401.855 395.545 402.035 405.306 401.99 406.559C401.99 406.559 401.99 406.559 401.99 406.559C401.868 409.941 401.85 399.645 401.682 404.111C401.83 394.221 401.472 391.262 401.944 391.951C401.965 397.777 401.867 395.019 401.773 395.63ZM49.2994 2.12641C49.2949 2.12641 49.2903 2.12641 49.2858 2.12641C49.9413 2.13026 55.3426 2.25047 54.6858 2.29211C48.1904 2.25641 49.348 2.17728 43.301 2.30731C42.9694 2.26543 42.6854 2.22481 42.3284 2.18262C44.7278 2.15778 46.0577 2.10747 49.2994 2.12641ZM352.636 2.06709C355.023 2.04566 359.378 2.13444 362.096 2.12916C353.443 2.47006 343.103 2.15217 352.636 2.06709ZM2.27252 140.9C2.27264 140.907 2.27277 140.914 2.27289 140.921C2.2727 140.919 2.27252 140.916 2.27234 140.914C2.2724 140.909 2.27246 140.905 2.27252 140.9ZM401.728 141.866C401.751 141.558 401.77 141.384 401.787 141.322C401.788 141.322 401.79 141.322 401.791 141.322C401.771 141.488 401.75 141.665 401.728 141.866ZM401.749 375.343C401.863 371.277 402.044 384.823 402.001 389.203C401.949 388.897 401.902 388.849 401.842 388.136C401.977 384.6 401.729 376.019 401.749 375.343ZM215.534 501.79C226.242 501.794 212.307 502.245 211.732 501.885C211.754 501.878 215.257 501.791 215.534 501.79ZM401.796 459.784C401.932 462.512 401.969 457.029 401.945 465.796C401.91 466.306 401.874 466.816 401.839 467.326C401.825 464.812 401.81 462.297 401.796 459.784ZM285.679 502.383C299.156 502.307 312.045 502.172 303.266 501.796C302.246 501.808 301.212 501.82 300.192 501.832C300.039 502.015 296.275 501.915 290.766 501.909C289.981 501.982 286.926 501.999 286.352 502.061C285.244 502.181 288.754 502.265 285.679 502.383ZM1.9164 212.426C1.94776 212.643 1.97928 212.855 2.01033 213.072C2.04572 215.203 2.08095 217.34 2.11634 219.472C2.05616 219.128 1.99599 218.782 1.93581 218.438C1.92929 216.435 1.92273 214.442 1.91622 212.44C1.91628 212.435 1.91634 212.431 1.9164 212.426ZM402.193 263.29C401.848 262.066 401.911 266.344 402.086 275.022C402.121 271.117 402.157 267.195 402.193 263.29ZM69.1228 502.243C68.8422 502.145 68.5661 502.047 68.2727 501.949C63.6655 502.051 64.521 502.163 66.7289 502.293C67.5322 502.276 68.3196 502.259 69.1228 502.243ZM3.79205 498.198C5.03076 499.725 4.46386 498.885 4.58904 499.048C7.34508 501.663 8.8566 502.098 12 502.273C12.9175 502.268 13.9965 502.259 15.3476 502.246C16.075 502.225 16.7898 502.203 17.5171 502.182C15.7672 502.051 14.3231 502.049 12 502.033C10.6869 502.018 9.02862 501.782 7.19952 500.737C8.07892 501.302 9.05438 501.732 10.0879 502C6.84907 501.388 4.01721 499.098 2.72267 496.086C2.54613 495.739 2.38927 495.381 2.25304 495.014C2.56994 496.143 3.10607 497.252 3.79205 498.198ZM2.00557 187.779C2.01364 184.64 2.02203 181.486 2.0301 178.346C1.9795 178.232 1.92855 178.121 1.87795 178.006C1.92047 181.26 1.96304 184.526 2.00557 187.779ZM402.035 198.831C402.017 198.582 401.999 198.339 401.981 198.123C402.003 198.144 402.021 198.416 402.035 198.831ZM41.0158 1.84884C37.4557 1.81345 32.3255 1.83668 28.4204 1.82925C28.7274 1.9562 38.6527 1.9211 42.138 1.99806C42.698 1.97528 42.5207 1.86373 41.0158 1.84884ZM384.334 502.037C383.441 502.101 382.548 502.164 381.668 502.227C379.511 502.22 377.349 502.213 375.18 502.206C375.116 502.258 375.053 502.31 374.989 502.362C384.547 502.295 382.343 502.444 387.075 502.592C386.156 502.407 385.253 502.222 384.334 502.037ZM1.67673 87.8868C1.71181 94.7911 1.77734 97.2401 1.93288 93.3479C1.89719 90.9112 1.86146 88.4601 1.82577 86.0233C1.7761 86.6484 1.72639 87.2744 1.67673 87.8868ZM402.153 73.0877C402.095 67.3101 402.303 67.2141 402.187 61.5669C402.148 64.5909 402.109 67.6146 402.071 70.6258C402.098 71.4394 402.125 72.274 402.153 73.0877ZM402.726 356.457C402.799 354.019 402.453 349.463 402.708 342.61C402.632 340.977 402.559 339.953 402.485 338.55C402.566 337.733 402.648 336.805 402.728 336.027C402.728 336.022 402.728 336.017 402.728 336.013C402.701 329.798 402.6 333.827 402.514 333.687C402.478 333.621 402.537 329.008 402.46 330.45C402.327 332.938 402.403 342.237 402.241 342.263C402.294 338.996 402.25 332.616 402.141 334.503C402.022 336.57 402.222 342.583 402.123 346.412C402.382 340.925 402.302 352.257 402.103 353.546C402.256 360.195 402.319 354.083 402.311 347.269C402.464 351.429 402.382 345.305 402.509 344.297C402.585 348.587 402.521 363.309 402.726 356.457ZM229.551 502.444C234.146 502.435 241.326 502.522 244.472 502.393C246.305 502.318 239.108 502.26 244.071 502.142C239.593 502.153 238.572 502.199 239.337 502.303C238.317 502.315 237.284 502.327 236.263 502.339C235.791 502.319 235.307 502.299 234.835 502.279C234.299 502.322 233.76 502.364 233.237 502.406C232.153 502.398 231.056 502.39 229.972 502.381C229.845 502.402 229.628 502.421 229.551 502.444ZM302.9 1.85378C304.176 1.85254 305.44 1.8513 306.716 1.84975C306.575 1.82458 306.408 1.79836 306.247 1.77249C306.131 1.75204 306.015 1.73159 305.9 1.71115C306.639 1.7842 312.718 1.90561 315.278 1.8276C316.566 1.78846 313.636 1.64953 319.094 1.62528C315.138 1.63242 311.474 1.65138 307.634 1.66318C307.979 1.62188 308.31 1.58015 308.654 1.53885C308.652 1.53879 308.65 1.53873 308.647 1.53867C307.371 1.52936 306.081 1.5196 304.805 1.51029C304.167 1.62486 303.539 1.73921 302.9 1.85378ZM72.8634 502.437C77.2153 502.356 78.6722 502.313 76.6175 502.182C76.613 502.182 76.6084 502.182 76.6039 502.182C74.9834 502.24 73.3618 502.298 71.7412 502.356C72.1114 502.383 72.4805 502.41 72.8634 502.437ZM402.468 161.344C401.97 152.091 402.275 172.928 402.445 168.961C402.453 168.782 402.413 162.212 402.468 161.344ZM398.441 499.911C396.649 501.385 394.334 502.217 392 502.212C391.732 502.212 391.464 502.213 391.196 502.213C391.462 502.241 391.731 502.269 392 502.296C392.336 502.33 392.673 502.347 393.008 502.348C395.025 502.093 396.941 501.223 398.441 499.911ZM1.45079 117.947C1.31417 120.62 1.26468 127.482 1.41325 130.835C1.43064 129.074 1.44805 127.312 1.46543 125.551C1.4825 128.88 1.50129 132.172 1.51743 135.527C1.70776 135.706 1.59734 131.839 1.64981 126.02C1.65827 125.119 1.89452 119.358 1.71646 117.369C1.67986 116.969 1.65497 123.097 1.54856 118.838C1.54018 120.7 1.54204 122.308 1.53739 124.068C1.49206 124.196 1.44668 124.322 1.40135 124.462C1.41776 122.286 1.43437 120.124 1.45079 117.947ZM256.306 502.43C262.618 502.44 263.398 502.364 264.712 502.23C261.776 502.245 258.84 502.26 255.904 502.275C256.045 502.327 256.166 502.378 256.306 502.43ZM1.40721 174.368C1.38523 177.824 1.49462 176.343 1.51542 177.734C1.59365 182.992 1.51546 186.578 1.56449 191.771C1.54338 191.427 1.52364 191.11 1.50315 190.779C1.50315 190.783 1.50315 190.788 1.50315 190.792C1.41095 215.384 1.65905 202.467 1.61868 187.752C1.65936 187.407 1.70008 187.077 1.74044 186.732C1.66935 180.147 1.60094 174.074 1.40721 174.368ZM402.485 243.547C402.51 243.266 402.672 245.653 402.596 241.174C402.36 237.626 402.477 243.444 402.387 244.9C402.364 243.688 402.342 242.448 402.319 241.248C402.252 248.497 402.309 249.555 402.481 246.914C402.493 246.725 402.46 243.828 402.485 243.547ZM402.601 195.906C402.253 194.911 402.41 204.059 402.518 203.727C402.522 202.465 402.463 201.483 402.489 200.143C402.515 198.791 402.597 198.445 402.601 195.906ZM402.516 458.009C402.518 457.741 402.664 455.048 402.55 455.315C402.279 458.646 402.453 465.358 402.547 464.184C402.543 461.964 402.502 460.484 402.517 458.009C402.517 458.009 402.516 458.009 402.516 458.009ZM1.36876 76.3115C1.35905 76.439 1.30025 83.1568 1.35484 84.0238C1.41631 84.7382 1.48218 85.0929 1.54581 85.6288C1.48682 81.9277 1.53176 74.4363 1.36876 76.3251C1.36876 76.3206 1.36876 76.3161 1.36876 76.3115Z" fill="black"/>
</svg>
