<svg width="7" height="502" viewBox="0 0 7 502" fill="none" xmlns="http://www.w3.org/2000/svg">
<path d="M1 1H6V501H1V1Z" fill="white"/>
<path d="M1.40333 84.8686C1.44842 82.5867 1.41886 90.2044 1.48621 85.146C1.49076 86.2008 1.49545 87.2621 1.5 88.3169C1.47506 88.5844 1.45018 88.8584 1.42524 89.1259C1.41789 87.7095 1.41055 86.2923 1.4032 84.8686C1.40324 84.8686 1.40328 84.8686 1.40333 84.8686ZM1.09096 82.9345C1.1621 84.2326 1.18107 88.3571 1.24672 83.9015C1.2223 83.5473 1.19789 83.1846 1.17348 82.8304C1.19241 81.2834 1.21134 79.727 1.23018 78.1801C1.22087 77.6237 1.21155 77.0681 1.20235 76.5118C1.24477 75.8033 1.28731 75.1011 1.32984 74.3927C1.32363 75.0218 1.31732 75.6592 1.31111 76.2883C1.34556 78.7751 1.35498 80.9878 1.3614 84.3639C1.37143 84.0674 1.38139 83.7703 1.39142 83.4738C1.37435 85.1872 1.35723 86.8997 1.34016 88.6058C1.3234 87.1241 1.30476 85.4674 1.28913 84.0941C1.22261 86.2917 1.25964 90.1675 1.27351 92.1851C1.29245 94.9325 1.26082 94.3115 1.27406 96.35C1.27613 96.6754 1.30092 96.7123 1.30134 97.3556C1.30331 100.602 1.29017 106.907 1.23231 103.22C1.23976 97.8766 1.19331 93.3199 1.21028 88.078C1.14339 89.4647 1.12062 86.7031 1.09096 82.9345ZM1.30396 181.089C1.27148 179.47 1.28459 176.173 1.30714 173.938C1.30714 173.936 1.30714 173.933 1.30714 173.931C1.31211 173.439 1.35528 172.326 1.35352 173.931C1.35051 176.547 1.28254 177.813 1.32868 179.186C1.32009 179.801 1.31245 180.446 1.30396 181.089ZM1.30799 186.776C1.29133 188.381 1.24012 187.653 1.25398 185.643C1.25394 185.643 1.2539 185.643 1.25386 185.643C1.25965 184.805 1.30013 186.451 1.25905 183.443C1.29101 182.829 1.32009 182.224 1.35102 181.617C1.35154 182.354 1.35238 183.025 1.35279 183.798C1.30025 183.278 1.32452 185.171 1.30799 186.776ZM1.26124 105.932C1.30851 106.185 1.30821 105.127 1.34101 103.328C1.33946 105.026 1.3378 106.726 1.33625 108.417C1.31122 107.586 1.28628 106.763 1.26124 105.932ZM1.26857 66.0205C1.26857 66.0179 1.26857 66.0154 1.26857 66.0128C1.26112 65.4561 1.25364 64.8978 1.24629 64.3484C1.26316 64.0157 1.27995 63.6869 1.29682 63.3543C1.28099 61.3877 1.26516 59.4107 1.24922 57.444C1.30075 57.683 1.29236 61.2131 1.32838 63.1578C1.31285 66.0496 1.28294 67.443 1.23927 67.631C1.24899 67.0961 1.25884 66.5626 1.26857 66.0205ZM5.93687 468.028C5.92259 467.37 5.9083 466.721 5.89402 466.063C5.88751 466.938 5.88253 467.805 5.87498 468.687C5.93707 470.993 5.88215 471.21 5.88597 474.231C5.89776 483.493 5.9942 481.036 5.85295 489.4C5.85967 482.684 5.7933 485.265 5.74218 481.217C5.78109 480.378 5.86885 484.39 5.88707 481.671C5.84588 476.987 5.80753 472.482 5.78093 467.285C5.7742 467.436 5.76746 467.587 5.76073 467.739C5.76497 468.563 5.76924 469.381 5.77348 470.205C5.75548 469.316 5.73763 468.447 5.71941 467.543C5.76029 468.685 5.73745 465.774 5.78441 466.163C5.80532 466.337 5.83432 467.623 5.85429 468.383C5.86516 466.424 5.87511 464.415 5.88566 462.434C5.90232 463.46 5.91899 464.486 5.93565 465.505C5.93616 466.343 5.93653 467.175 5.93705 468.013C5.93699 468.018 5.93693 468.023 5.93687 468.028ZM5.71953 46.3891C5.76817 48.8762 5.77622 53.3959 5.7221 55.7746C5.72127 52.644 5.72036 49.5197 5.71953 46.3891ZM1.20326 67.8198C1.21153 67.5381 1.21971 67.2653 1.22798 66.9837C1.24329 68.227 1.2585 69.4777 1.27381 70.721C1.24992 70.9594 1.22602 71.2035 1.20222 71.4491C1.20253 70.242 1.20295 69.0268 1.20326 67.8198ZM1.22987 147.365C1.22843 146.456 1.22921 146.375 1.23262 145.243C1.2326 145.244 1.23258 145.245 1.23256 145.246C1.23383 144.797 1.24779 141.04 1.26619 141.459C1.2665 143.324 1.26619 145.314 1.26619 147.223C1.25408 147.281 1.24208 147.293 1.22987 147.365ZM1.24061 125.408C1.24065 125.406 1.24069 125.403 1.24074 125.4C1.24353 124.721 1.24922 124.078 1.25026 123.378C1.27921 125.9 1.22726 126.299 1.24196 128.591C1.25675 130.882 1.28542 132.298 1.21425 134.243C1.20359 133.52 1.18834 132.741 1.17592 131.996C1.20438 128.743 1.1776 127.867 1.14955 125.258C1.17998 125.309 1.21019 125.358 1.24061 125.408ZM1.20711 497.739C1.17192 497.117 1.20645 496.424 1.20686 496.352C1.2069 496.353 1.20694 496.354 1.20698 496.356C1.1744 490.848 1.22646 497.072 1.23195 491.875C1.24074 492.648 1.25003 493.409 1.25892 494.175C1.24196 495.36 1.22273 496.582 1.20711 497.739ZM1.2104 318.801C1.22065 318.751 1.23092 318.69 1.24116 318.64C1.23878 321.763 1.27912 322.559 1.24238 325.155C1.23162 323.037 1.22094 320.919 1.21028 318.801C1.21032 318.801 1.21036 318.801 1.2104 318.801ZM1.15535 163.108C1.13579 159.645 1.12717 157.083 1.15822 153.757C1.15826 153.755 1.1583 153.752 1.15834 153.75C1.16025 153.558 1.18169 154.485 1.18709 154.235C1.18388 153.549 1.17895 152.84 1.17513 152.147C1.19229 152.053 1.20945 151.963 1.22652 151.869C1.22165 153.821 1.21679 155.774 1.21193 157.733C1.22197 157.444 1.23192 157.148 1.24196 156.859C1.24713 158.521 1.25228 160.178 1.25746 161.841C1.22932 161.262 1.20117 160.685 1.17293 160.115C1.16703 161.112 1.16135 162.111 1.15535 163.108ZM1.09829 370.799C1.10946 370.25 1.12821 371.267 1.13784 370.414C1.14734 369.561 1.12648 367.988 1.15804 368.357C1.16228 369.505 1.16714 370.712 1.17159 371.882C1.22849 368.115 1.177 364.357 1.24727 364.299C1.22905 367.914 1.23751 370.887 1.25697 374.386C1.20119 374.242 1.15297 370.741 1.10061 372.945C1.09988 372.237 1.09882 371.493 1.09841 370.807C1.09837 370.804 1.09833 370.802 1.09829 370.799ZM0.503834 17.2243C0.508077 15.0842 0.485313 10.1808 0.51781 7.47661C0.525818 6.81139 0.629557 4.59496 0.643231 4.60626C0.689284 4.67138 0.695552 7.37802 0.725563 4.47912C0.725875 5.45433 0.727604 6.4007 0.728432 7.36876C0.759376 7.19519 0.790238 7.02259 0.821079 6.85634C0.816421 5.67781 0.811741 4.49787 0.80698 3.3194C0.817226 3.26161 0.827495 3.20388 0.83774 3.14604C0.837947 7.38291 0.877492 4.88179 0.914336 7.07976C0.93296 5.0558 0.951495 3.01676 0.970119 1C0.967843 2.16393 0.966156 3.53722 0.963467 4.56388C1.01593 4.70122 1.00342 2.25196 1.01315 1.8322C1.0681 -0.531839 1.04036 11.5043 1.11672 12.4892C1.1252 10.5664 1.13348 8.54895 1.14186 6.58275C1.15128 7.14666 1.1607 7.71796 1.17012 8.28187C1.11746 12.7423 1.0988 17.7442 1.066 22.9419C1.06817 23.4115 1.0704 23.882 1.07247 24.3443C1.09616 24.2071 1.11976 24.0771 1.14345 23.9398C1.14624 24.6484 1.14902 25.3657 1.15181 26.0743C1.07379 23.9852 1.07485 26.8781 1.02725 30.3702C0.999825 28.5124 1.01645 26.2206 0.965359 26.3786C1.00467 32.7549 0.949115 40.2222 0.993494 46.425C1.00446 47.9647 1.07037 47.9598 1.06429 51.5801C1.05705 51.4571 1.04397 51.4361 1.03445 51.3566C1.06601 57.6179 1.08488 61.4167 1.0527 67.9238C1.07638 67.548 1.10017 67.1784 1.12386 66.8026C1.11206 65.4217 1.10008 64.0384 1.08828 62.6647C1.12739 61.725 1.14466 63.1138 1.14424 58.9929C1.14393 55.6164 1.12666 57.6265 1.11507 56.7082C1.09925 55.4649 1.13038 54.3737 1.11269 53.0364C1.09913 52.0026 1.06686 53.121 1.07503 50.4242C1.11684 51.5087 1.16002 52.6151 1.20235 53.7068C1.19293 54.3648 1.18337 55.0176 1.17384 55.6756C1.16267 55.0105 1.15164 54.3565 1.14046 53.6914C1.16054 56.0337 1.17947 58.247 1.20027 60.6689C1.13983 59.8808 1.16249 62.3842 1.16963 63.7435C1.1808 65.8608 1.1392 64.0468 1.14614 65.4349C1.15318 66.823 1.19965 68.3201 1.18971 70.8288C1.16281 69.4843 1.13868 71.3133 1.11385 70.9598C1.08902 70.6056 1.08352 67.952 1.05642 70.5013C1.07701 75.4032 1.17158 70.0841 1.18691 73.3948C1.20533 77.371 1.05117 78.3172 1.01803 77.1321C0.991949 76.1994 0.997194 72.9901 0.971218 72.0502C0.924338 77.798 1.01689 77.8479 1.035 78.8312C1.10092 82.4027 0.924973 80.0035 0.988612 84.2328C0.95571 84.1533 0.926118 84.0889 0.894561 84.0094C0.900563 84.7391 0.908539 85.2236 0.913298 86.1054C0.977405 83.5052 0.974657 85.6335 0.974758 86.7256C0.974965 88.4464 1.00623 85.7885 1.01431 86.2441C1.03591 87.4732 1.0261 89.417 1.05434 88.2244C1.0412 88.7594 1.02802 89.3393 1.01498 89.8888C1.03135 91.8991 1.16868 96.624 1.14095 92.1273C1.19197 92.5467 1.16745 94.0012 1.15968 95.1364C1.15193 96.2712 1.18442 96.2501 1.17842 97.2477C1.15441 101.217 1.09883 98.6203 1.05526 97.9913C1.08527 103.233 1.10513 98.1014 1.1252 105.655C1.1607 106.385 1.19858 102.895 1.21907 105.801C1.1574 106.336 1.1131 108.476 1.09261 112.648C1.10679 113.052 1.12109 113.456 1.13527 113.861C1.07835 116.139 1.01916 114.975 1.08974 119.19C0.959862 116.927 1.04295 118.483 0.990077 122.257C0.979417 123.023 0.952471 121.252 0.93881 122.322C0.932649 122.807 0.952989 123.985 0.937284 125.169C0.929523 125.748 0.879443 128.452 0.903228 130.324C0.966151 128.951 1.01968 132.509 1.07174 129.457C1.0589 135.097 1.08912 139.044 1.00332 132.725C0.984278 134.156 0.965317 135.589 0.946378 137.021C0.961384 138.018 0.976272 139.025 0.991175 140.03C0.93946 140.181 0.924952 140.029 0.934049 143.96C0.921843 142.254 0.909434 140.556 0.897125 138.843C0.886682 138.785 0.875827 138.547 0.865693 138.604C0.885556 140.702 0.894105 146.608 0.907866 148.04C0.921631 149.471 0.925398 146.707 0.938749 147.119C1.04884 150.552 0.967643 150.28 0.986537 152.744C0.997714 154.19 1.00985 150.737 1.01461 151.511C1.03206 154.38 0.973551 155.71 0.972804 158.254C1.00602 157.35 1.03974 156.454 1.07326 155.572C1.0715 158.24 1.07121 161.214 1.08187 163.694C1.08603 164.667 1.11073 163.932 1.11238 164.091C1.12087 164.879 1.13431 168.089 1.13442 168.429C1.13461 170.987 1.1004 171.06 1.09853 173.545C1.09563 172.57 1.09302 171.652 1.09023 170.698C1.03477 170.265 0.979303 169.822 0.923735 169.388C0.919699 171.824 0.915747 174.262 0.911711 176.705C0.930233 174.919 0.948667 173.127 0.96719 171.342C1.012 174.132 1.05691 176.923 1.10183 179.714C1.0743 181.167 1.04678 182.614 1.01925 184.068C1.02651 188.014 1.13825 187.219 1.04037 189.092C1.04864 190.255 1.05691 191.419 1.06509 192.582C1.05112 192.416 1.03712 192.251 1.02316 192.085C1.03175 193.488 1.04028 194.89 1.04897 196.293C1.09844 194.818 1.15049 193.372 1.1985 191.912C1.20925 194.672 1.16729 194.725 1.15682 195.137C1.12908 196.229 1.16649 198.396 1.14083 199.263C1.13201 199.556 1.10439 196.851 1.07253 197.784C1.06636 197.966 0.949242 201.587 0.976283 203.898C0.997499 203.855 1.02351 203.676 1.04659 203.582C1.05948 206.69 0.948734 208.275 0.917692 207.863C0.939424 209.518 0.94124 211.938 0.975185 212.278C0.976013 213.124 0.976798 213.963 0.977626 214.809C0.894955 213.928 0.910071 217.456 0.981166 217.687C0.982925 216.234 0.984777 214.779 0.986537 213.326C1.07368 214.425 1.12627 210.009 1.04555 219.198C1.00022 220.955 1.05173 216.075 1.01779 217.506C0.998028 219.993 1.01456 222.328 0.982997 224.692C0.943569 227.633 0.905647 224.014 0.955838 230.868C1.08158 215.75 1.04078 232.941 1.07979 240.042C0.955603 241.994 0.916266 247.99 0.953213 256.247C0.987777 255.386 0.96997 252.789 0.981349 251.292C0.992732 249.795 1.01324 251.415 1.02938 249.55C1.04552 247.686 1.06746 243.725 1.09188 241.837C1.11144 243.436 1.15769 251.328 1.10213 246.11C1.06788 250.005 1.03269 251.835 1.02627 256.663C1.08019 258.109 1.11376 258.002 1.11531 262.708C1.04039 259.924 0.98832 265.272 0.910918 264.095C0.928946 260.758 1.00418 262.623 1.04018 260.693C1.04378 260.495 1.02492 257.385 1.02627 256.663C0.958688 259.801 0.933534 260.886 0.85312 258.955C0.860158 261.175 0.850062 262.556 0.888458 262.758C0.871801 263.221 0.85513 263.686 0.838473 264.141C0.838888 264.863 0.84043 265.514 0.840121 266.279C0.898038 265.225 0.862384 267.269 0.888641 268.722C0.914928 270.175 0.960648 268.226 0.961269 272.217C0.974827 270.886 0.986459 269.67 0.999292 268.383C1.01419 270.957 1.02919 273.538 1.04409 276.112C1.07948 274.304 1.13204 270.387 1.1786 270.494C1.16103 271.68 1.19192 275.741 1.19319 276.185C1.19795 277.906 1.16859 276.968 1.16786 277.098C1.15359 279.802 1.16359 282.028 1.1191 283.055C1.13917 285.086 1.12773 286.618 1.12886 288.772C1.12948 289.958 1.16216 289.727 1.15596 290.421C1.11457 295.034 1.07234 290.639 1.15273 299.537C1.17549 298.46 1.19878 297.397 1.22175 296.32C1.23034 297.325 1.23898 298.324 1.24757 299.329C1.24343 300.001 1.23926 300.668 1.23512 301.34C1.18576 301.326 1.1363 301.308 1.08693 301.294C1.08424 302.031 1.08163 302.772 1.07894 303.509C1.07408 302.244 1.06922 300.976 1.06435 299.711C1.05567 299.595 1.04698 299.487 1.03829 299.371C1.02484 301.251 1.01126 303.124 0.997706 305.004C1.01488 305.04 1.03217 305.076 1.04934 305.112C1.02543 309.349 1.0109 309.45 1.05819 313.477C1.05767 316.578 1.12947 319.104 1.15968 320.897C1.15006 321.541 1.14032 322.185 1.13069 322.835C1.14498 323.247 1.1592 323.664 1.17348 324.076C1.15361 324.893 1.13374 325.721 1.11397 326.538C1.15907 326.993 1.17315 327.229 1.18898 324.041C1.24507 325.133 1.22033 330.745 1.20149 333.03C1.1872 334.763 1.14041 332.84 1.13472 333.057C1.11539 333.781 1.13207 336.637 1.12886 337.237C1.11551 339.775 1.11785 341.553 1.1075 343.845C1.10543 344.291 1.07578 345.538 1.07485 345.644C1.06978 346.468 1.05537 348.503 1.05495 348.734C1.03282 360.668 1.16146 347.916 1.14791 359.013C1.16487 358.681 1.18172 358.375 1.19868 358.05C1.19972 358.888 1.2007 359.736 1.20174 360.574C1.18756 361.637 1.16177 360.351 1.18257 362.462C1.16167 362.324 1.14075 362.186 1.11995 362.042C1.13123 362.96 1.14242 363.845 1.1537 364.785C1.08116 366.26 1.06468 371.644 0.979518 371.262C0.95054 371.131 0.920806 367.314 0.889862 369.331C0.88377 370.97 0.918379 369.861 0.920195 370.53C0.932821 375.359 0.884311 375.079 0.897247 377.052C0.918037 377.363 0.939235 377.69 0.960232 378.008C0.954129 378.752 0.948025 379.499 0.941922 380.25C0.955894 380.424 0.96988 380.605 0.983851 380.778C0.984783 380.077 0.985727 379.287 0.986659 378.644C1.04077 379.541 1.06508 387.781 1.01894 384.639C1.00022 383.359 1.00817 381.015 0.944241 382.496C0.953452 384.701 0.962862 387.203 0.972072 389.524C0.958308 389.596 0.944518 389.664 0.930753 389.736C0.939663 392.864 0.994697 390.019 1.02419 390.025C1.02502 390.74 1.02575 391.463 1.02657 392.179C1.01324 392.482 0.999277 392.77 0.986354 393.088C1.00758 393.117 1.05691 393.518 1.0386 395.65C1.02668 397.021 0.97313 394.862 0.980556 397.476C1.01367 397.281 1.05399 396.337 1.06466 399.249C1.0301 399.538 0.998442 399.938 0.962124 400.162C0.995323 403.783 0.941957 405.431 0.980556 409.682C1.00498 412.379 1.09168 416.073 0.958096 417.815C0.954579 419.788 0.987846 419.162 0.995325 419.746C1.03072 422.5 0.967375 424.549 0.96365 425.063C0.939767 428.336 0.961694 429.804 0.931791 432.472C0.956526 432.327 0.979939 432.248 1.00405 432.133C0.967003 429.689 0.968742 428.451 0.976711 425.024C0.981677 426.173 0.986758 427.323 0.991724 428.472C1.0118 428.284 1.03187 428.098 1.05184 427.918C0.972773 417.318 1.0977 419.791 1.12502 428.677C1.08787 429.443 1.05082 430.237 1.01357 430.996C1.06987 436.129 1.021 438.545 1.0093 444.35C1.00796 445.04 1.02936 447.554 1.03042 448.634C1.03056 448.616 1.0307 448.598 1.03085 448.58C1.06592 449.252 1.08207 448.342 1.11342 448.234C1.11735 448.819 1.12127 449.405 1.1252 449.99C1.1013 451.298 1.08167 450.838 1.08736 453.412C1.11116 453.065 1.13497 452.722 1.15877 452.375C1.1596 455.195 1.13374 457.04 1.14492 459.665C1.13591 459.224 1.12688 458.788 1.11788 458.347C1.0949 464.059 0.95497 459.513 1.02462 463.83C1.01241 464.104 1.00009 464.372 0.987879 464.647C0.984879 462.868 0.981969 461.089 0.978969 459.318C0.961692 459.282 0.94449 459.243 0.927213 459.214C0.932388 461.116 0.937724 463.026 0.942899 464.928C0.931308 463.54 0.919702 462.143 0.90811 460.755C0.899832 462.96 0.891549 465.166 0.88327 467.371C0.946799 465.029 0.954568 468.065 1.01748 467.494C0.965113 471.398 0.896083 474.465 0.940274 480.516C0.949078 481.716 0.993041 481.064 0.939542 484.469C1.00949 483.645 1.04232 487.911 1.10885 487.363C1.10564 486.178 1.10362 484.948 1.09969 483.799C1.07661 485.108 1.01313 485.325 0.994288 483.337C0.970279 480.799 1.01428 477.098 0.943814 477.249C0.947125 476.237 0.949078 475.296 0.95187 474.313C0.96935 474.718 0.98694 475.114 1.00442 475.512C0.977015 472.715 0.985927 470.957 1.02999 469.613C1.04013 472.945 1.05017 476.271 1.0602 479.603C1.0632 479.112 1.06622 478.615 1.06911 478.124C1.11413 480.647 1.15677 478.044 1.1664 482.751C1.14581 482.722 1.1252 482.699 1.10451 482.67C1.15957 484.384 1.15927 489.075 1.22261 487.579C1.20315 488.996 1.19085 489.285 1.22499 490.087C1.17687 493.825 1.11601 496.226 1.04336 494.895C1.05505 496.283 1.06676 497.672 1.07845 499.052C1.09832 498.25 1.11809 497.447 1.13796 496.644C1.13721 498.093 1.13648 499.548 1.13576 501L1 500.864C1.96862 500.865 2.93597 500.865 3.89936 500.866C4.04987 500.904 2.03723 500.9 1 500.907L1.09306 501C1.08929 500.443 1.08234 500.167 1.06399 500.659C1.06151 500.725 1.06086 500.847 1.06124 501L1 500.939C1.49791 500.938 2.32044 500.925 2.58169 500.93C6.18196 500.994 0.530054 500.948 1.59151 500.997C5.36217 501.008 4.36177 501.052 6 501.053L6.05276 501.053L6.0527 501C6.05317 500.307 6.04597 499.143 6.02536 496.948C6.04233 496.752 6.05964 496.543 6.07651 496.362C6.07753 493.797 6.0392 494.005 6.03196 491.8C6.02745 490.42 6.09476 488.686 6.04892 487.161C6.04047 486.89 5.95821 489.455 5.96183 484.064C5.96464 479.88 6.02277 481.621 6.04337 479.359C6.06396 477.096 5.98336 471.919 6.07474 470.394C6.06264 471.579 6.05611 473.089 6.04618 474.405C6.06397 474.94 6.08158 475.46 6.09927 475.988C6.0763 472.981 6.10338 469.872 6.06095 467.847C6.12584 463.835 6.06562 459.347 5.99235 460.561C6.00291 461.882 6.03486 460.445 6.0145 462.28C5.99742 462.468 5.98043 462.666 5.96336 462.854C5.96543 459.731 5.96495 457.561 6.017 458.986C6.01825 458.501 6.01948 458.021 6.02073 457.537C5.98305 457.45 5.94524 457.373 5.90757 457.287C5.90333 456.708 5.89912 456.127 5.89488 455.549C5.90315 454.906 5.91152 454.261 5.9199 453.611C5.97951 454.486 5.98148 455.976 6.01481 451.045C5.99421 451.03 5.9737 451.009 5.9531 450.995C5.97928 446.867 6.02917 446.758 6.02732 441.575C6.09882 445.551 5.97207 447.727 6.11551 447.712C6.10609 448.71 6.09655 449.716 6.08713 450.714C6.10793 450.865 6.12876 451.016 6.14956 451.161C6.13859 445.803 6.00179 436.905 6.0925 433.318C6.08143 432.884 6.07181 432.449 6.05991 432.008C6.11466 428.494 5.99174 426.977 6.06253 423.412C6.06996 423.045 6.18544 423.814 6.1813 419.174C6.16629 419.29 6.14103 419.35 6.1221 419.444C6.13131 418.439 6.14094 417.44 6.15036 416.443C6.1365 416.262 6.12264 416.072 6.10867 415.892C6.10329 417.605 6.09782 419.314 6.09244 421.027C6.08768 419.604 6.08292 418.171 6.07816 416.747C6.0555 418.605 6.05526 419.442 6.01896 418.323C6.01678 416.71 6.01448 415.096 6.0123 413.484C6.003 413.318 5.99359 413.153 5.98429 412.987C5.95656 413.767 5.92943 414.556 5.90129 415.337C5.92395 411.136 5.92518 407.484 5.97971 404.26C5.98892 403.71 6.02505 405.654 5.99247 401.91C6.0116 401.852 6.02714 401.751 6.04483 401.686C5.99122 397.102 6.00723 395.596 6.04593 390.817C6.00981 393.912 6.0333 391.151 6.01395 390.363C6.00062 389.823 6.00259 391.93 5.98862 391.692C5.97476 391.453 5.91876 388.715 5.91203 391.056C6.0268 396.797 5.88958 398.361 5.94474 405.736C5.92994 404.6 5.91511 403.457 5.90031 402.322C5.89028 402.857 5.88118 403.335 5.87053 403.913C5.89298 399.8 5.87839 401.8 5.8607 400.11C5.843 398.419 5.82797 395.344 5.8231 393.283C5.82158 392.634 5.84732 393.319 5.84971 391.854C5.85137 390.856 5.81321 388.13 5.8582 387.5C5.88748 387.088 5.96813 391.468 5.96793 385.412C5.99664 384.272 5.98773 387.176 5.99119 387.238C6.02534 387.766 6.05102 384.043 6.02494 382.322C6.02269 382.182 5.99607 383.541 5.98563 382.064C5.96069 378.557 5.99121 376.532 6.03251 374.262C5.98407 374.016 5.92623 371.065 5.94413 367.392C5.93027 367.204 5.91629 367.025 5.90232 366.837C5.90966 367.408 5.9169 367.978 5.92423 368.548C5.91554 369.17 5.90921 369.828 5.89897 370.436C5.88706 366.742 5.82031 366.22 5.79588 364.449C5.71246 358.387 5.88893 362.061 5.91935 363.154C5.90704 363.942 5.89329 364.704 5.88035 365.485C5.89722 365.398 5.91422 365.31 5.93119 365.231C5.93068 356.157 6.0407 363.849 6.07205 359.243C5.98906 358.058 5.98106 354.675 6.03373 350.366C6.03331 349.889 6.03321 349.41 6.03269 348.933C6.02059 348.854 6.00209 348.855 5.99412 348.725C5.98004 343.534 6.10786 342.609 6.11996 342.118C6.17367 339.934 6.09936 338.234 6.09873 337.59C6.09614 334.879 6.12913 334.091 6.11496 331.511C6.09965 328.735 6.07433 330.633 6.05167 329.788C6.03367 329.111 6.03047 326.921 6.01182 326.016C6.02707 326.376 6.04203 326.775 6.05735 327.134C6.07814 324.257 6.09842 321.906 6.10349 318.638C5.99186 314.951 6.18016 311.814 6.02744 313.086C6.01699 316.181 5.99958 317.911 5.96067 319.567C5.9557 317.536 5.95087 315.503 5.9459 313.472C5.96266 312.879 5.979 312.458 5.99607 311.757C5.96047 310.239 5.97575 306.72 5.96531 305.338C5.91636 298.868 5.85564 300.869 5.95768 294.963C5.96762 299.22 6.01718 299.213 6.01035 303.435C6.04574 302.524 6.03841 300.378 6.08084 301.767C6.07039 297.682 6.03251 299.003 5.99888 297.413C5.96988 296.042 5.96826 293.281 5.93058 293.437C5.9513 293.155 5.97135 292.936 5.99204 292.655C5.99183 290.009 5.99182 287.364 5.99161 284.718C6.01324 285.846 6.03491 286.973 6.05643 288.101C6.0646 287.248 6.07274 286.395 6.0809 285.542C6.01363 279.035 6.13692 267.815 5.96793 269.607C5.96255 266.469 5.98375 266.077 6.01572 264.371C6.00289 264.183 5.99222 264 5.97794 263.812C5.99137 261.788 5.94321 260.235 5.95573 258.449C5.96815 256.664 6.01365 256.221 5.93717 255.96C5.95911 254.804 5.97733 253.654 5.99772 252.504C5.98034 251.811 5.96317 251.118 5.9459 250.432C5.95501 249.347 5.96408 248.26 5.97318 247.176C5.93668 246.596 5.95241 242.332 5.9279 240.453C5.96725 238.668 6.09114 238.717 6.06894 234.519C6.03821 234.628 6.00757 234.735 5.97684 234.843C5.98326 233.882 5.98965 232.918 5.99607 231.949C6.0061 231.892 6.01613 231.842 6.02616 231.784C6.02305 232.275 6.01997 232.76 6.01676 233.252C6.03373 232.825 6.05063 232.407 6.0676 231.988C6.04245 230.52 6.01731 229.051 5.99216 227.576C5.97313 229.564 5.95407 231.553 5.93504 233.541C5.91248 231.046 5.93498 229.31 5.90983 227.141C5.95226 225.254 5.9767 225.951 6.02274 226.717C6.01881 226.016 6.01501 225.307 6.01108 224.606C6.05713 225.068 6.08456 223.883 6.08084 227.981C6.09398 227.699 6.1065 227.412 6.12015 227.137C6.11808 226.465 6.12918 226.029 6.12411 225.292C6.11025 223.282 6.02937 221.741 6.00101 221.878C5.98616 221.952 6.01457 223.934 5.99357 223.855C5.94236 223.659 5.96535 219.112 5.91392 225.669C5.88132 223.493 5.90591 223.007 5.91532 220.607C5.89826 220.795 5.8813 220.977 5.86424 221.158C5.8721 220.045 5.87994 218.93 5.8878 217.817C5.97545 219.364 6.00837 211.158 6.08505 218.545C6.08899 216.362 6.09294 214.187 6.09708 212.011C6.10608 212.459 6.11499 212.907 6.12399 213.356C6.11923 214.339 6.11455 215.316 6.10989 216.299C6.12634 215.143 6.1427 213.984 6.15915 212.828C6.13876 210.095 6.1074 209.024 6.0687 207.773C6.04045 210.953 6.07903 209.914 6.0867 212.392C6.06219 212.306 6.03964 212.42 6.01389 212.204C6.06466 210.923 6.02773 206.746 6.02524 205.777C6.0177 202.829 6.06759 205.141 6.06864 203.169C6.06967 201.195 6.03998 198.867 6.08945 197.255C6.06172 197.284 6.03303 197.413 6.00779 197.528C5.99868 194.455 6.03144 195.068 6.03568 194.75C6.10543 189.675 6.04654 186.921 6.0394 181.115C6.03081 181.852 6.02306 182.597 6.01499 183.342C5.95612 178.962 5.97414 181.913 5.95469 185.715C5.96059 182.151 5.91045 180.11 5.89555 177.594C5.88067 175.078 5.90642 170.763 5.92649 169.187C5.95878 172.795 5.93749 176.686 5.94639 180.691C5.97463 180.236 5.99854 179.793 6.02958 179.324C5.97029 176.887 6.00993 175.476 6.0178 174.673C6.04086 172.317 5.98998 172.391 6.04471 170.967C6.02588 171.025 6.01005 171.067 5.99247 171.125C6.00033 166.259 6.03362 161.011 5.96409 157.844C6.00931 157.555 6.05288 157.337 6.09903 157.004C6.06499 154.944 6.09985 153.179 6.09189 151.444C6.08392 149.716 6.04737 150.374 6.0333 148.343C6.03071 147.967 6.05359 147.184 6.03672 146.258C6.01976 145.324 5.89367 141.878 6.00382 141.466C6.00434 139.723 6.00837 138.074 6.01023 136.368C6.01644 138.031 6.02245 139.694 6.02866 141.35C6.05536 139.933 6.08198 138.525 6.10867 137.108C6.08487 136.927 6.06064 136.746 6.03714 136.572C6.00817 132.755 6.04708 129.985 6.03788 126.131C6.03632 125.488 5.98926 127.006 6.00126 124.151C6.01326 121.295 6.1011 119.176 6.06717 114.311C6.06541 114.065 5.99814 112.624 6.04471 110.882C6.05527 110.485 6.07089 112.154 6.08475 111.244C6.09862 110.333 6.11002 106.268 6.14303 105.95C6.13134 105.993 6.11923 106.247 6.10733 106.37C6.10174 105.676 6.09615 104.975 6.09067 104.274C6.11126 104.209 6.13188 104.139 6.15237 104.074C6.10446 100.083 6.0263 98.0205 6.05216 92.1068C6.02225 93.7696 5.99222 95.433 5.96232 97.0886C5.98333 97.5441 6.00448 98.0003 6.02549 98.4486C6.01711 101.174 6.00878 103.907 6.0004 106.632C6.02431 107.08 6.04815 107.521 6.07205 107.969C6.06895 108.692 6.06594 109.408 6.06284 110.13C6.04556 109.95 6.02837 109.767 6.01108 109.579C6.01533 111.011 6.01966 112.444 6.0239 113.868C5.92189 110.969 6.03258 105.772 5.94724 106.147C5.96048 105.503 5.97382 104.859 5.98716 104.216C5.94578 103.934 5.95769 102.626 5.96421 100.321C5.94382 100.849 5.92371 101.432 5.90312 101.916C5.93188 99.6748 5.92909 95.6991 5.94016 93.3783C5.94503 92.359 5.97503 93.3771 5.97855 93.0739C5.99697 91.5194 5.94463 88.5483 5.94877 87.9265C5.9734 84.2104 6.07264 81.7956 6.00724 77.7396C5.99109 81.9258 5.99791 79.6484 5.96159 81.1378C5.9502 81.6041 5.92644 87.0122 5.93699 80.2401C5.93831 79.4462 6.00688 67.1582 6.05942 71.1975C6.04265 69.2092 6.02327 67.6525 6.00547 65.8305C6.14394 61.3767 6.01386 62.9181 5.94224 64.2123C5.94193 63.4821 5.9412 62.7874 5.9412 62.0354C6.01644 63.6333 6.02111 55.4927 5.98313 52.7308C5.9705 51.8055 5.94642 54.393 5.93504 52.2531C5.94031 51.2341 5.94715 50.078 5.95304 49.0013C5.90544 50.5629 5.88709 47.4982 5.83867 47.5411C5.88182 45.5819 5.97329 44.0833 6.02286 45.16C6.00279 43.5408 5.98274 41.9131 5.96256 40.2939C5.95108 41.0458 5.93969 41.8074 5.9282 42.5594C5.95863 37.2669 5.88939 30.4619 5.99113 29.3557C5.9904 28.6544 5.98977 27.9456 5.98905 27.2443C5.97187 27.0274 5.95466 26.8178 5.93748 26.6009C5.95238 23.4276 5.96738 20.2615 5.98228 17.0882C5.99294 19.9137 6.01739 20.5864 5.99753 23.5494C6.01729 22.4076 6.03716 21.2445 6.05692 20.1243C6.00372 15.6634 5.96876 15.0548 5.9846 8.33844C5.98532 8.03478 6.02993 2.96003 6.03428 2.7865C6.05414 1.99153 6.08301 3.19828 6.09305 2.8443C6.10121 2.55917 6.11295 1.85434 6.12576 1L6.12564 0.874111L6 0.874235C3.90799 0.842857 0.91952 0.805028 1.00166 0.797459C1.41675 0.76028 3.33777 0.733527 6 0.714123L6.28559 0.713841L6.28588 1C6.33474 7.7047 6.337 19.1106 6.34182 23.0023C6.41157 79.3967 6.31825 134.549 6.33419 190.589C6.33443 191.165 6.35374 190.914 6.35457 191.159C6.35942 192.685 6.32933 194.183 6.32808 194.746C6.32552 195.951 6.35333 195.288 6.35335 196.168C6.35304 205.264 6.33669 213.847 6.34145 222.949C6.34176 223.542 6.31951 222.937 6.32345 223.978C6.3256 224.515 6.35973 226.198 6.36025 227.411C6.36201 231.647 6.35106 235.206 6.35158 239.674C6.35189 242.118 6.34899 245.784 6.34951 248.517C6.34973 249.723 6.36534 250.981 6.36586 252.173C6.36659 253.865 6.33493 253.519 6.33297 253.78C6.32438 254.922 6.35912 255.08 6.35829 256.165C6.35664 258.182 6.33344 258.29 6.33541 260.85C6.33686 262.679 6.35517 266.865 6.36055 269.172C6.33365 274.565 6.34433 281.362 6.35323 286.394C6.35851 289.373 6.32603 289.649 6.32613 290.863C6.32676 295.143 6.36824 298.391 6.36959 302.41C6.37134 307.745 6.34391 312.472 6.34194 317.64C6.34163 318.479 6.37139 318.286 6.37215 319.108C6.37494 322.152 6.38036 326.045 6.37612 328.756C6.37145 331.777 6.32826 332.892 6.33706 335.849C6.33967 336.716 6.37754 336.97 6.3824 338.423C6.39005 340.743 6.35665 343.288 6.35292 344.907C6.34796 347.127 6.38654 345.196 6.38136 348.19C6.38114 348.313 6.35356 348.76 6.35488 349.403C6.3586 351.276 6.38032 351.09 6.37825 353.83C6.37797 354.093 6.35169 357.726 6.35158 358.087C6.35117 360.213 6.34197 364.492 6.34755 365.751C6.36742 370.248 6.40891 366.707 6.31887 370.532C6.34091 372.216 6.36324 373.886 6.38466 375.672C6.36469 374.48 6.33586 379.316 6.33773 379.656C6.35274 382.467 6.38777 380.792 6.38198 384.356C6.30104 379.649 6.37154 388.954 6.37361 391.029C6.38365 401.021 6.36345 410.103 6.36397 420.145C6.36418 423.507 6.38129 428.012 6.38088 431.569C6.38085 432.398 6.3617 431.771 6.36129 432.501C6.361 433.229 6.3825 432.422 6.38136 433.252C6.37391 438.422 6.33334 442.472 6.38405 447.207C6.37672 447.438 6.37093 447.431 6.36287 447.812C6.4083 451.688 6.34721 459.151 6.33883 461.956C6.32579 466.344 6.3565 467.465 6.3503 470.652C6.34202 474.867 6.28203 481.196 6.38106 478.369C6.38416 481.261 6.38502 484.044 6.37581 486.965C6.37477 487.29 6.3496 487.066 6.34908 487.196C6.34547 488.02 6.368 488.288 6.36904 488.845C6.37182 490.354 6.34484 487.891 6.35237 490.043C6.35641 491.178 6.37607 491.823 6.37648 494.975C6.37671 496.967 6.37684 498.976 6.37688 501L6.37725 501.377L6 501.377C4.34259 501.377 2.67534 501.377 1 501.377L0.623563 501.377L0.623189 501C0.623893 485.201 0.629016 468.683 0.631696 452.919C0.631903 451.581 0.607562 452.462 0.609114 450.784C0.614501 444.957 0.655465 434.526 0.649883 429.501C0.644295 424.476 0.6087 425.61 0.593795 422.466C0.590897 421.858 0.611184 422.356 0.611494 421.807C0.613359 418.112 0.645001 413.708 0.649761 410.715C0.652951 408.735 0.621037 408.894 0.618757 407.521C0.615445 405.475 0.647689 403.369 0.648724 402.277C0.65327 397.144 0.6273 393.616 0.640546 388.823C0.633522 389.01 0.62702 389.134 0.6201 389.293C0.621238 383.618 0.622379 377.95 0.623518 372.275C0.617101 372.542 0.610629 372.801 0.604109 373.069C0.607631 366.41 0.677175 367.17 0.530322 367.755C0.525148 367.271 0.519151 366.758 0.514392 366.295C0.59004 366.483 0.6454 362.455 0.664653 357.33C0.666102 356.954 0.592343 354.431 0.679484 354.706C0.658165 354.048 0.64347 353.656 0.624738 353.099C0.651121 352.015 0.677191 350.916 0.70347 349.832C0.699538 349.247 0.695744 348.653 0.691813 348.067C0.674736 347.981 0.657006 348.047 0.64024 347.859C0.637653 345.141 0.658764 339.566 0.656597 337.418C0.651112 332.082 0.604944 326.65 0.654827 322.5C0.649741 320.479 0.616226 322.486 0.620466 319.479C0.637435 319.14 0.653698 318.82 0.671184 318.466C0.595368 316.009 0.641489 315.496 0.657329 312.128C0.668092 309.851 0.649562 308.36 0.653179 306.191C0.654111 305.641 0.676363 305.719 0.675639 305.343C0.673344 304.084 0.642716 300.492 0.641888 299.603C0.633818 291.549 0.637253 284.63 0.645428 276.96C0.646256 276.135 0.624295 277.204 0.625227 276.351C0.626689 274.978 0.660434 275.786 0.66209 274.991C0.666518 272.773 0.630934 272.756 0.629072 269.662C0.622969 259.475 0.6497 247.763 0.652081 237.121C0.652081 236.789 0.631232 236.808 0.631025 236.447C0.630005 234.091 0.658188 231.705 0.657879 229.566C0.657465 226.016 0.628175 223.348 0.628278 219.841C0.628382 212.987 0.643379 206.863 0.644208 199.814C0.644932 194.045 0.642151 189.034 0.642254 182.708C0.642668 155.074 0.57649 126.876 0.611677 99.0547C0.612608 98.3467 0.631029 98.6349 0.630231 98.419C0.622263 96.3657 0.597408 96.1824 0.649456 95.4523C0.639198 92.8366 0.600095 92.0112 0.602889 88.8524C0.604353 87.1688 0.664961 88.4259 0.63371 85.5775C0.605459 83.0056 0.572244 85.8438 0.606184 78.1955C0.607117 77.9931 0.64406 76.9963 0.634442 75.406C0.624921 73.8082 0.598468 75.6576 0.590499 71.8113C0.571873 62.7813 0.603806 51.3515 0.593978 40.8538C0.593357 40.1958 0.573607 33.8594 0.5645 32.6087C0.546803 30.1881 0.51935 30.6939 0.512622 27.5499C0.507448 25.1206 0.538545 23.1163 0.532336 20.2603C0.531581 19.9276 0.499593 19.3706 0.503834 17.2243ZM5.87486 457.545C5.84347 456.952 5.72795 455.882 5.76311 452.297C5.76642 451.957 5.84586 453.792 5.8585 451.812C5.86689 453.749 5.8696 455.636 5.87498 457.545C5.87494 457.545 5.8749 457.545 5.87486 457.545ZM1.24043 1.68578C1.23463 4.3682 1.22889 7.05973 1.2231 9.74209C1.20913 7.89122 1.19518 6.03767 1.18111 4.194C1.20087 3.35544 1.22067 2.52435 1.24043 1.68578ZM1.18556 335.596C1.18556 335.593 1.18556 335.591 1.18556 335.588C1.20047 338.408 1.2154 341.229 1.2303 344.049C1.21933 343.753 1.20831 343.455 1.19734 343.159C1.18006 340.933 1.16281 338.705 1.14553 336.486C1.15887 336.189 1.17222 335.892 1.18556 335.596ZM1.06942 313.319C1.08246 311.518 1.10445 311.959 1.12587 310.969C1.12583 310.969 1.12579 310.969 1.12575 310.969C1.13133 310.707 1.13621 309.489 1.13704 309.019C1.12328 309.192 1.10969 309.417 1.09603 309.605C1.0627 305.404 1.18112 297.189 1.22883 307.825C1.21145 307.666 1.19416 307.514 1.17677 307.355C1.18164 312.64 1.14393 318.532 1.06942 313.319ZM5.82481 415.048C5.76789 410.536 5.75589 409.09 5.79491 403.616C5.81104 404.39 5.82717 405.163 5.84331 405.936C5.82685 406.84 5.81051 407.737 5.79405 408.641C5.79405 408.643 5.79405 408.646 5.79405 408.648C5.81134 408.829 5.82865 409.01 5.84593 409.184C5.83889 411.136 5.83185 413.096 5.82481 415.048ZM1.11055 140.619C1.22424 139.362 1.15816 139.724 1.18379 143.316C1.19269 144.56 1.21258 143.348 1.2159 144.121C1.23398 148.299 1.15782 148.633 1.11818 147.701C1.11549 145.336 1.11304 142.948 1.11055 140.627C1.11055 140.624 1.11055 140.622 1.11055 140.619ZM1.08693 32.2273C1.08693 32.2247 1.08693 32.2221 1.08693 32.2195C1.11466 32.1111 1.12212 33.7952 1.14839 31.8959C1.14829 33.3409 1.14807 34.7859 1.14797 36.2381C1.14538 35.8121 1.14292 35.3772 1.14034 34.9512C1.13082 35.3272 1.12117 35.7042 1.11165 36.0801C1.14353 36.5934 1.125 37.0703 1.11434 38.5883C1.14839 38.1689 1.18246 37.7516 1.21651 37.3323C1.20637 39.096 1.19619 40.8662 1.18605 42.6299C1.17747 42.6516 1.16888 42.6737 1.1603 42.6954C1.17126 43.3603 1.18235 44.0186 1.19331 44.6835C1.18307 44.8643 1.17292 45.0382 1.16268 45.219C1.17043 46.0213 1.17819 46.8248 1.18605 47.627C1.16124 47.8711 1.15051 46.1031 1.15682 49.2375C1.13136 48.2761 1.10598 47.3166 1.08053 46.3479C1.0826 41.6413 1.08476 36.9339 1.08693 32.2273ZM1.14553 173.295C1.14077 168.111 1.15875 169.571 1.21504 170.771C1.19187 171.61 1.1687 172.457 1.14553 173.295ZM1.09542 440.366C1.13381 441.87 1.17183 443.38 1.20888 444.92C1.2303 447.986 1.16032 451.052 1.13289 448.746C1.09998 445.97 1.13681 443.07 1.09542 440.366ZM5.88749 496.813C5.86969 500.563 5.82407 497.034 5.79747 496.189C5.84021 495.151 5.83644 493.704 5.84141 491.38C5.84418 493.562 5.89052 496.193 5.88762 496.813C5.88757 496.813 5.88753 496.813 5.88749 496.813ZM1.13857 380.008C1.13742 378.505 1.1267 377.009 1.13973 375.665C1.17644 376.071 1.14304 378.759 1.19746 376.837C1.19839 377.798 1.1993 378.761 1.20033 379.715C1.17778 379.108 1.16093 379.924 1.13869 380.004C1.13865 380.005 1.13861 380.006 1.13857 380.008ZM1.1888 223.521C1.14533 226.471 1.16393 227.03 1.19405 230.001C1.15866 230.42 1.09937 226.877 1.08632 224.657C1.12047 224.281 1.15465 223.904 1.1888 223.521ZM5.82933 85.742C5.87444 86.4503 5.88032 91.6758 5.86699 94.2721C5.8603 93.963 5.85352 93.6528 5.84672 93.3436C5.84093 90.8131 5.83512 88.2725 5.82933 85.742ZM5.84447 490.275C5.84314 490.664 5.84216 491.032 5.84141 491.38C5.84092 490.993 5.84169 490.62 5.84447 490.275ZM6.04026 333.217C6.08279 334.453 6.09708 330.78 6.08042 335.24C6.08046 335.24 6.0805 335.24 6.08054 335.24C6.06957 338.19 6.06664 338.841 6.06333 341.574C6.00869 340.59 5.98916 335.046 5.97788 342.688C5.97783 342.788 6.01034 342.588 6.0059 343.809C6.00451 344.186 5.97783 345.392 5.97007 347.226C5.96759 347.819 5.95936 352.274 5.95884 346.202C5.92075 346.382 5.88221 346.056 5.84526 346.07C5.83452 343.7 5.9091 341.878 5.90727 339.37C5.90437 335.647 5.82896 333.752 5.9279 333.036C5.9522 336.167 5.95279 341.543 5.89329 342.245C5.89257 345.274 5.94131 346.143 5.96543 343.701C5.9348 333.239 6.03779 340.829 5.99888 331.669C5.98512 331.56 5.97031 331.183 5.95737 331.241C6.0058 328.445 6.02504 332.776 6.04026 333.217ZM5.93504 355.094C5.90596 353.286 5.87664 351.485 5.84746 349.684C5.89485 349.685 5.93739 350.677 5.96409 353.526C5.95437 354.046 5.94465 354.574 5.93504 355.094ZM5.92259 203.045C5.89682 202.785 5.8732 202.091 5.84868 201.585C5.87041 201.036 5.89126 188.021 5.91258 194.642C5.91568 195.604 5.87012 201.469 5.92259 203.045ZM1.14998 203.039C1.1327 204.572 1.11539 206.098 1.0981 207.624C1.08714 205.275 1.07589 202.925 1.06472 200.577C1.09313 201.4 1.12157 202.216 1.14998 203.039ZM1.05019 465.317C1.05116 464.67 1.0866 466.82 1.08101 464.269C1.10368 466.171 1.12286 467.951 1.14418 469.809C1.12742 470.366 1.11072 470.929 1.09395 471.485C1.10472 471.919 1.11541 472.362 1.12618 472.795C1.10175 472.535 1.0779 472.303 1.05306 472.029C1.10543 468.898 1.04605 468.18 1.05019 465.317ZM0.954678 372.229C1.00776 371.666 1.03933 376.199 1.04781 371.739C1.08269 372.585 1.10098 373.945 1.10408 376.555C1.09075 376.974 1.07751 377.392 1.06417 377.811C1.09986 377.869 1.11313 378.541 1.13857 380.008C1.13853 380.009 1.13849 380.01 1.13845 380.011C1.14103 383.979 1.12913 383.742 1.07046 384.696C1.10357 380.496 1.04997 380.37 1.01809 377.507C0.996171 375.541 1.0061 372.973 0.954678 372.229ZM5.9232 216.912C5.87839 213.941 5.83659 216.607 5.8842 211.337C5.89558 211.677 5.90687 212.018 5.91825 212.358C5.92001 213.876 5.92164 215.394 5.9232 216.912ZM1.13661 357.569C1.05445 357.908 0.990486 360.705 1.12416 361.183C1.15138 358.457 1.07566 359.788 1.13661 357.569ZM6.01615 498.092C6.01515 499.451 6.00819 500.391 5.9976 501C4.58309 500.973 4.9531 500.929 6 500.895L5.8947 501C5.88689 500.76 5.87961 500.485 5.87321 500.188C5.89008 499.855 5.90698 499.523 5.92375 499.198C5.91609 498.279 5.90841 497.361 5.90086 496.443C5.93925 496.992 5.97775 497.542 6.01615 498.092ZM1.04635 265.166C1.10503 269.171 1.07898 260.842 1.11562 263.64C1.1449 265.874 1.08578 268.818 1.04873 267.705C1.04769 266.931 1.04697 266.07 1.04635 265.174C1.04635 265.171 1.04635 265.169 1.04635 265.166ZM1.06313 288.345C1.12583 287.687 1.10755 288.635 1.09627 285.47C1.09306 284.567 1.11661 277.385 1.06466 280.4C1.06466 282.966 1.06375 285.677 1.06313 288.345ZM5.92442 437.506C5.95172 437.458 6.01167 442.988 5.99668 443.698C5.99672 443.698 5.99676 443.698 5.9968 443.698C5.95592 445.614 5.95011 439.78 5.89402 442.311C5.94338 436.707 5.82399 435.031 5.9813 435.422C5.9882 438.722 5.95577 437.16 5.92442 437.506ZM5.95786 17.1306C5.95786 17.1281 5.95786 17.1255 5.95786 17.1229C5.95658 17.4943 5.91651 20.5542 5.90263 20.1821C5.91453 16.5024 5.94091 17.1581 5.89756 13.7324C5.91152 13.5446 5.92506 13.3837 5.93913 13.1815C5.94741 14.5407 5.96418 15.2942 5.95786 17.1306ZM5.97764 188.975C5.98478 190.327 5.95519 192.794 5.95695 194.334C5.84331 189.432 5.94928 183.574 5.97764 188.975ZM1.09084 82.9229C1.09088 82.9267 1.09092 82.9306 1.09096 82.9345C1.0909 82.9333 1.09084 82.9318 1.09078 82.9306C1.0908 82.928 1.09082 82.9254 1.09084 82.9229ZM5.90946 293.745C5.91684 293.571 5.92325 293.472 5.92887 293.437C5.9294 293.437 5.92993 293.437 5.93046 293.437C5.92355 293.531 5.91657 293.631 5.90946 293.745ZM5.91618 426.013C5.95426 423.71 6.01479 431.384 6.00034 433.865C5.98296 433.692 5.96721 433.665 5.94724 433.26C5.99225 431.257 5.90976 426.396 5.91618 426.013ZM1.06985 406.03C1.06881 412.096 0.918466 404.201 1.03841 403.876C1.04074 403.888 1.06964 405.873 1.06985 406.03ZM5.93192 473.85C5.97744 475.395 5.98953 472.289 5.98167 477.256C5.96988 477.545 5.95806 477.834 5.94627 478.123C5.94151 476.699 5.93668 475.274 5.93192 473.85ZM0.872468 445.768C0.897822 453.402 0.942552 460.704 1.06808 455.731C1.06404 455.153 1.06015 454.567 1.05611 453.99C0.994874 453.903 1.0283 451.771 1.0303 448.65C1.00598 448.205 1.00036 446.474 0.979701 446.149C0.939763 445.521 0.911685 447.51 0.872468 445.768ZM0.972133 123.443C0.982586 123.566 0.993093 123.686 1.00344 123.809C1.01524 125.017 1.02698 126.227 1.03878 127.435C1.01872 127.24 0.998662 127.044 0.978603 126.849C0.97643 125.714 0.974244 124.586 0.972072 123.451C0.972092 123.448 0.972113 123.446 0.972133 123.443ZM6.06424 362.534C5.94919 361.84 5.97038 364.264 6.02854 369.18C6.04044 366.967 6.05234 364.746 6.06424 362.534ZM0.919096 323.086C0.951782 322.927 0.984367 322.77 1.01705 322.604C0.983004 319.994 0.945572 320.479 0.902312 321.729C0.907895 322.185 0.913513 322.631 0.919096 323.086ZM0.905181 285.49C0.898362 286.572 0.924753 286.02 0.924223 286.133C0.910355 288.873 0.898249 289.259 0.91812 292.621C0.925052 293.033 0.932342 293.438 0.939481 293.85C1.00797 292.296 0.970642 291.168 1.01089 287.878C0.987396 288.471 0.963871 289.062 0.940274 289.655C0.945241 287.826 0.950139 286.005 0.955105 284.176C0.947861 283.959 0.940683 283.742 0.933439 283.525C0.924127 284.175 0.913664 284.847 0.905181 285.49ZM1.00186 109.481C1.00455 107.702 1.00734 105.915 1.01003 104.137C0.993166 104.072 0.976184 104.009 0.959316 103.944C0.973491 105.787 0.987681 107.637 1.00186 109.481ZM6.01182 326.016C6.00583 325.875 5.99981 325.738 5.99369 325.616C6.00115 325.628 6.00698 325.782 6.01182 326.016ZM6.05039 12.4379C6.06218 10.421 6.05444 7.51468 6.05692 5.30241C6.0146 5.47633 6.0263 11.0991 6.00065 13.0736C6.00824 13.3909 6.04542 13.2904 6.05039 12.4379ZM1.65701 501.012C1.43773 501.022 1.21856 501.031 1 501.04L0.960212 501.04L0.960173 501C0.948238 500.714 0.936307 500.429 0.924345 500.147C0.926622 498.925 0.929026 497.7 0.931303 496.471C0.914019 496.435 0.896587 496.399 0.879303 496.363C0.89158 499.323 0.882247 500.292 0.863231 501L0.863367 501.137L1 501.137C1.58694 501.153 1.99472 501.175 3.2097 501.197C2.68921 501.136 2.1775 501.074 1.65701 501.012ZM0.892242 52.89C0.903936 56.8014 0.925779 58.1888 0.977626 55.9839C0.965728 54.6034 0.95382 53.2148 0.941922 51.8344C0.925368 52.1885 0.908797 52.5431 0.892242 52.89ZM6.05088 254.781C6.0315 251.508 6.10109 251.454 6.06223 248.255C6.0494 249.968 6.03642 251.681 6.02359 253.387C6.03267 253.848 6.0418 254.32 6.05088 254.781ZM6.24197 415.314C6.26617 413.933 6.15111 411.351 6.23605 407.469C6.2107 406.544 6.18648 405.964 6.16165 405.169C6.18866 404.706 6.21602 404.181 6.24282 403.74C6.24282 403.737 6.24282 403.735 6.24282 403.732C6.23371 400.211 6.19984 402.494 6.17117 402.414C6.15929 402.377 6.17915 399.764 6.15329 400.58C6.10889 401.99 6.13442 407.258 6.08029 407.273C6.09798 405.422 6.0832 401.808 6.04709 402.877C6.00746 404.048 6.07388 407.454 6.04099 409.623C6.1275 406.515 6.10078 412.934 6.03434 413.665C6.08536 417.432 6.10617 413.969 6.10379 410.109C6.15471 412.465 6.1272 408.996 6.16952 408.425C6.19507 410.855 6.17377 419.196 6.24197 415.314ZM0.851839 413.97C0.855122 416.574 0.826019 420.641 0.868989 422.423C0.894024 423.462 0.91341 419.385 0.952725 422.196C0.948892 419.66 0.933534 419.081 0.899078 419.515C0.894941 418.936 0.890905 418.351 0.886871 417.773C0.893594 417.506 0.900228 417.231 0.906951 416.964C0.892774 416.66 0.87871 416.355 0.864533 416.059C0.867326 415.444 0.870122 414.823 0.873017 414.209C0.865889 414.137 0.859685 414.014 0.851839 413.97ZM6.04874 160.799C6.04915 161.522 6.04957 162.238 6.05008 162.961C6.05847 162.881 6.06721 162.786 6.07584 162.695C6.08265 162.629 6.08947 162.564 6.09628 162.498C6.07193 162.917 6.03146 166.361 6.05747 167.811C6.07051 168.541 6.11682 166.881 6.12491 169.973C6.12253 167.732 6.11621 165.656 6.11227 163.481C6.12604 163.676 6.13995 163.863 6.15372 164.059C6.15374 164.057 6.15376 164.056 6.15378 164.055C6.15688 163.332 6.16013 162.601 6.16324 161.878C6.12505 161.516 6.08693 161.161 6.04874 160.799ZM0.854463 325.205C0.881475 327.67 0.895502 328.496 0.939176 327.332C0.939196 327.329 0.939216 327.326 0.939237 327.324C0.919887 326.406 0.900545 325.487 0.881195 324.569C0.872295 324.779 0.863364 324.988 0.854463 325.205ZM6.15597 304.78C5.99008 299.538 6.09178 311.342 6.14828 309.095C6.15087 308.994 6.13766 305.271 6.15597 304.78ZM6.06717 497.129C6.06838 498.416 6.06948 499.707 6.07066 501L6.07073 501.071L6 501.071C5.84822 501.071 5.69639 501.071 5.54452 501.071C5.69523 501.08 5.84754 501.09 6 501.099L6.09886 501.099L6.09876 501C6.10989 500.816 6.12102 500.632 6.13217 500.45C6.11054 499.344 6.0888 498.235 6.06717 497.129ZM0.816928 69.9196C0.771391 71.4339 0.754893 75.321 0.804417 77.2207C0.810212 76.223 0.816015 75.2248 0.821811 74.227C0.827501 76.1133 0.833764 77.9785 0.839144 79.8791C0.902585 79.9803 0.86578 77.7898 0.88327 74.4929C0.886091 73.9824 0.964839 70.719 0.905486 69.5921C0.893287 69.3654 0.884992 72.8371 0.84952 70.4243C0.846728 71.4793 0.847347 72.3898 0.845797 73.3871C0.830687 73.4594 0.81556 73.531 0.80045 73.6106C0.805921 72.3775 0.811458 71.1526 0.816928 69.9196ZM0.856782 429.127C0.853282 432.703 0.87863 433.145 0.92343 433.889C0.918358 432.227 0.913365 430.563 0.908294 428.9C0.891159 428.979 0.87402 429.048 0.856782 429.127ZM0.802403 101.883C0.795075 103.84 0.83154 103.002 0.838473 103.79C0.864548 106.768 0.838487 108.8 0.854829 111.742C0.847792 111.547 0.841214 111.368 0.834384 111.18C0.834384 111.182 0.834384 111.185 0.834384 111.187C0.80365 125.119 0.886349 117.801 0.872895 109.465C0.886452 109.27 0.900027 109.082 0.913481 108.887C0.889783 105.157 0.866979 101.716 0.802403 101.883ZM6.16165 351.349C6.17014 351.19 6.22407 352.542 6.19882 350.004C6.12008 347.995 6.15916 351.29 6.12888 352.116C6.12132 351.429 6.11397 350.726 6.10642 350.047C6.08416 354.153 6.10289 354.753 6.16043 353.256C6.1643 353.149 6.15319 351.508 6.16165 351.349ZM6.20047 324.36C6.08445 323.796 6.13662 328.978 6.17264 328.791C6.17407 328.075 6.15443 327.519 6.16311 326.76C6.17181 325.994 6.19891 325.798 6.20047 324.36ZM6.17209 472.844C6.1726 472.693 6.22136 471.167 6.18319 471.319C6.09284 473.206 6.151 477.008 6.18246 476.343C6.18091 475.085 6.16735 474.246 6.17221 472.844C6.17217 472.844 6.17213 472.844 6.17209 472.844ZM0.789586 46.3325C0.786349 46.4047 0.766751 50.2104 0.784948 50.7016C0.805435 51.1063 0.827393 51.3073 0.848604 51.6109C0.828941 49.5141 0.84392 45.2701 0.789586 46.3402C0.789586 46.3376 0.789586 46.335 0.789586 46.3325Z" fill="black"/>
</svg>
