<svg width="480" height="118" viewBox="0 0 480 118" fill="none" xmlns="http://www.w3.org/2000/svg">
<path d="M7.64002 87.31C3.76002 92.59 1.82002 97.54 1.82002 101.89C1.82002 109.98 9.11002 115.6 19.74 115.6C28.5 115.6 38.19 112.79 45.62 108.18C52.77 103.77 57.12 98.08 57.92 92C59.06 83.3101 50.63 76.89 43.48 70C38.73 65.39 34.45 60.5 34.65 54.75C34.92 45.72 48.36 37.3 62.13 37.3C72.43 37.3 80.85 42.31 80.85 48.6C80.85 51.07 79.45 53.68 76.84 56.2201L75.64 54.9501C77.98 52.7401 79.12 50.6 79.12 48.6C79.12 43.38 71.36 39.0401 62.14 39.0401C49.3 39.0401 36.6 46.8 36.4 54.82C36.2 59.9 40.01 64.1801 44.69 68.7301C51.78 75.5501 60.94 82.57 59.67 92.27C58.8 98.82 54.12 104.97 46.5 109.65C38.88 114.46 28.85 117.34 19.75 117.34C8.17002 117.33 0.0800171 111.05 0.0800171 101.88C0.0800171 97.2001 2.15002 91.8501 6.23002 86.3001L7.63002 87.3001L7.64002 87.31Z" fill="white"/>
<path d="M85.81 97.54C88.89 94.8 88.69 93.26 85.54 93.26C80.26 93.26 74.91 99.75 77.65 103.02C80.73 106.7 100.79 104.22 113.56 98.47L114.23 100.08C100.39 106.3 80.06 108.57 76.32 104.09C72.58 99.68 78.73 91.52 85.55 91.52C90.43 91.52 91.17 95.13 86.95 98.81L85.81 97.54Z" fill="white"/>
<path d="M159.5 100.08C159.5 100.08 139.44 108.77 131.42 108.77C126 108.77 125.27 105.76 129.41 99.7402C133.09 94.7202 133.62 93.5902 132.29 93.5902C128.01 93.5902 120.52 99.4102 115.11 107.03L114.71 107.63L114.64 107.7L113.17 106.76L113.57 106.16L137.11 70.9202L138.58 71.8602L121.6 97.2702C125.48 93.9302 129.42 91.8502 132.3 91.8502C136.31 91.8502 134.97 95.0602 130.9 100.81C127.49 105.62 127.69 107.03 131.44 107.03C139.06 107.03 158.85 98.4702 158.85 98.4702L159.52 100.08H159.5Z" fill="white"/>
<path d="M196.94 100.08C189.32 103.29 178.69 107.3 174.14 107.3C171.2 107.3 169.46 105.96 169.46 103.62C169.46 102.35 169.93 100.81 170.53 99.4099C167.39 102.35 163.11 105.76 160.43 105.76C159.09 105.76 158.29 104.29 158.29 102.62C158.29 98.6099 162.77 93.9299 166.78 93.9299C168.72 93.9299 170.39 94.9299 171.06 96.5399L173.2 94.3999L174 95.1999L174.54 95.5299C173.8 96.6699 171.2 101.08 171.2 103.62C171.2 104.96 172.07 105.56 174.14 105.56C177.48 105.56 185.64 102.95 196.27 98.4699L196.94 100.08ZM160.44 104.03C162.65 104.03 166.66 100.69 169.67 97.8799C169.47 96.6099 168.27 95.6699 166.79 95.6699C163.78 95.6699 160.04 99.6099 160.04 102.62C160.04 103.35 160.31 104.02 160.44 104.02V104.03Z" fill="white"/>
<path d="M240.54 100.08C229.51 105.43 215.93 103.42 215.93 96.4001C215.93 95.4001 216.13 94.5301 216.46 93.7901C213.52 95.1301 210.44 98.8001 208.24 101.68C207.3 103.22 206.37 104.49 205.83 105.16L205.5 105.76H205.43L203.96 104.82C204.03 104.75 204.29 104.28 204.76 103.68C205.16 103.08 205.63 102.34 206.23 101.54C208.17 98.7301 210.58 94.8501 210.58 93.1201V93.0501C209.98 93.1201 208.64 93.7201 205.03 95.7901C202.76 97.1301 199.95 98.7301 196.94 100.07L196.27 98.4601C199.15 97.1901 201.89 95.5801 204.16 94.2501C208.17 91.9801 209.58 91.3101 210.65 91.3101C211.72 91.3101 212.32 92.0501 212.32 93.1201C212.32 93.6501 212.19 94.2601 211.92 94.9901C214.13 92.9801 216.53 91.4501 218.74 91.4501C220.95 91.4501 222.55 92.4501 222.55 94.3901H220.81C220.81 93.6501 220.28 93.2501 219.21 93.1901C218.21 93.7901 217.67 94.8601 217.67 96.4001C217.67 101.82 230.11 103.15 239.74 98.4701L240.54 100.08Z" fill="white"/>
<path d="M277.92 100.08C270.3 103.29 259.67 107.3 255.12 107.3C252.18 107.3 250.44 105.96 250.44 103.62C250.44 102.35 250.91 100.81 251.51 99.4099C248.37 102.35 244.09 105.76 241.41 105.76C240.07 105.76 239.27 104.29 239.27 102.62C239.27 98.6099 243.75 93.9299 247.76 93.9299C249.7 93.9299 251.37 94.9299 252.04 96.5399L254.18 94.3999L254.98 95.1999L255.52 95.5299C254.78 96.6699 252.18 101.08 252.18 103.62C252.18 104.96 253.05 105.56 255.12 105.56C258.46 105.56 266.62 102.95 277.25 98.4699L277.92 100.08ZM241.42 104.03C243.63 104.03 247.64 100.69 250.65 97.8799C250.45 96.6099 249.25 95.6699 247.77 95.6699C244.76 95.6699 241.02 99.6099 241.02 102.62C241.02 103.35 241.29 104.02 241.42 104.02V104.03Z" fill="white"/>
<path d="M313.23 100.08C305.61 103.29 294.98 107.3 290.43 107.3C287.49 107.3 285.75 105.96 285.75 103.62C285.75 103.02 285.82 102.42 286.02 101.82C284.82 103.09 283.81 103.96 282.88 104.56C281.61 105.43 280.47 105.83 279.4 105.83C277.73 105.83 276.73 104.63 276.73 102.62C276.73 98.6099 281.21 93.9299 285.22 93.9299C286.62 93.9299 287.83 94.5999 288.76 95.7399C291.23 92.3999 294.31 87.9199 298.12 82.0999C300.26 78.8899 302.6 75.2099 305.27 70.9299L306.74 71.8699C304.06 76.0799 301.72 79.8299 299.58 83.0999C296.1 88.4499 293.23 92.5999 290.82 95.8699C290.08 97.0099 287.48 101.09 287.48 103.63C287.48 104.97 288.35 105.57 290.42 105.57C293.76 105.57 301.92 102.96 312.55 98.4799L313.22 100.09L313.23 100.08ZM287.62 97.1399C286.95 96.1399 286.22 95.6699 285.21 95.6699C282.2 95.6699 278.46 99.6099 278.46 102.62C278.46 103.69 278.79 104.09 279.4 104.09C280.07 104.09 280.94 103.76 281.94 103.15C283.34 102.21 285.22 100.27 287.62 97.1299V97.1399Z" fill="white"/>
<path d="M345 95.9301C343 103.93 326.67 109.11 318.98 107.51C314.03 106.51 311.89 102.9 312.09 99.4201V99.2901C312.42 95.7501 315.3 92.4001 320.45 92.4001C322.46 92.4001 323.99 93.7401 323.99 95.5401C323.99 100.42 317.84 103.36 314.43 102.36C315.23 103.96 316.84 105.3 319.31 105.77C326.46 107.24 338.37 102.49 342.48 96.8101L344.99 95.9301H345ZM313.84 99.4101C314.04 102.49 322.27 100.28 322.27 95.5301C322.27 94.7301 321.53 94.1301 320.46 94.1301C316.38 94.1301 314.11 96.6701 313.84 99.4101Z" fill="white"/>
<path d="M477.5 38.9302H345.5V91.9302H477.5V38.9302Z" fill="#666666"/>
<path d="M412.05 91.72C426.404 91.72 438.04 80.0839 438.04 65.73C438.04 51.3761 426.404 39.74 412.05 39.74C397.696 39.74 386.06 51.3761 386.06 65.73C386.06 80.0839 397.696 91.72 412.05 91.72Z" fill="#4D4D4D"/>
<path d="M412.05 92.72C397.17 92.72 385.06 80.61 385.06 65.73C385.06 50.85 397.17 38.74 412.05 38.74C426.93 38.74 439.04 50.85 439.04 65.73C439.04 80.61 426.93 92.72 412.05 92.72ZM412.05 40.74C398.27 40.74 387.06 51.95 387.06 65.73C387.06 79.51 398.27 90.72 412.05 90.72C425.83 90.72 437.04 79.51 437.04 65.73C437.04 51.95 425.83 40.74 412.05 40.74Z" fill="white"/>
<path d="M442.58 101.56C436.49 101.56 430.4 101.56 424.79 101.56H412.05V99.5501H424.8C440.53 99.5601 460.1 99.5801 472.64 99.5001C474.7 99.4801 475.75 99.2501 476.27 98.7101C476.79 98.1701 477 97.0401 476.98 94.9401C477 81.2301 477.04 41.8701 476.97 24.4601C476.89 22.5501 476.79 21.3601 475.76 20.7201C474.57 19.9001 469.82 19.8601 468.26 19.8501C465.94 19.8301 463.16 19.8301 460.36 19.8301C458.52 19.8301 456.68 19.8301 454.94 19.8301C450.97 19.8201 447.75 19.7301 445.47 18.7301C441.69 17.2101 441.08 13.3901 440.54 10.0301C439.88 5.89008 439.27 3.35008 435.4 3.20008C421.31 2.85008 399.72 3.05008 389.34 3.14008C385.71 3.22008 384.23 4.72008 383.68 8.87008C383.06 14.2001 381.92 19.0501 374.96 19.5901C371.22 19.9001 367.09 19.8601 363.1 19.8301C360.89 19.8101 358.8 19.8001 356.8 19.8301C356.19 19.8501 355.55 19.8501 354.91 19.8601C352.7 19.8801 350.4 19.8901 348.5 20.5601C347.18 21.0901 347.07 22.4301 347 24.5801L346.98 25.0301C346.98 29.4201 347.13 35.2501 347.3 41.4101C347.89 63.4801 348.62 90.9501 343.88 98.4501L342.19 97.3801C346.61 90.3901 345.85 62.1101 345.3 41.4601C345.13 35.2801 344.98 29.4401 344.98 24.9801L345 24.5001C345.07 22.3701 345.16 19.7301 347.8 18.6701C350.06 17.8801 352.52 17.8601 354.9 17.8401C355.53 17.8401 356.15 17.8401 356.75 17.8101C358.79 17.7701 360.89 17.7901 363.12 17.8101C367.07 17.8401 371.16 17.8701 374.81 17.5701C379.83 17.1801 381.04 14.3701 381.71 8.60008C382.16 5.18008 383.43 1.24008 389.32 1.11008C399.72 1.02008 421.34 0.820084 435.47 1.17008C441.19 1.39008 441.9 5.79008 442.52 9.68008C443.02 12.8001 443.49 15.7401 446.25 16.8501C448.2 17.7001 451.21 17.7801 454.95 17.8001C456.68 17.8001 458.53 17.8001 460.36 17.8001C463.17 17.8001 465.95 17.8001 468.28 17.8201C472.44 17.8501 475.49 18.0701 476.86 19.0201C478.81 20.2201 478.9 22.4101 478.98 24.3401C479.06 41.8301 479.02 81.2001 479 94.9001C479.03 97.1801 478.82 98.9401 477.73 100.07C476.64 101.2 474.92 101.45 472.68 101.47C464.61 101.52 453.62 101.53 442.62 101.53L442.58 101.56Z" fill="white"/>
<path d="M411.74 101.56C393.3 101.56 377.59 86.7001 376.64 68.2601C375.68 55.7801 381.5 43.9701 392.21 36.7001C402.93 29.4201 416.05 28.3601 427.32 33.8601C439.86 39.8201 447.67 52.1401 447.67 66.0001H445.67C445.67 52.9201 438.3 41.2901 426.45 35.6601C415.83 30.4701 403.45 31.4801 393.33 38.3501C383.23 45.2101 377.73 56.3401 378.64 68.1201C379.53 85.2501 394.66 99.5501 411.77 99.5501C411.89 99.5501 412 99.5501 412.12 99.5501L412.14 101.55C412.01 101.55 411.88 101.55 411.75 101.55L411.74 101.56Z" fill="white"/>
<path d="M368.66 16.6802H358.35C356.77 16.6802 355.49 15.4002 355.49 13.8202V11.7802C355.49 10.2002 356.77 8.92017 358.35 8.92017H368.66C370.24 8.92017 371.52 10.2002 371.52 11.7802V13.8202C371.52 15.4002 370.24 16.6802 368.66 16.6802ZM358.34 10.9302C357.87 10.9302 357.48 11.3102 357.48 11.7902V13.8302C357.48 14.3002 357.86 14.6902 358.34 14.6902H368.65C369.12 14.6902 369.51 14.3102 369.51 13.8302V11.7902C369.51 11.3202 369.13 10.9302 368.65 10.9302H358.34Z" fill="white"/>
<path d="M354 30.9302H352V91.9302H354V30.9302Z" fill="white"/>
<path d="M113.51 32.4399V33.1899C113.51 33.4899 113.52 34.0299 113.56 35.0499C113.57 35.1599 113.57 35.3499 113.57 35.4899C113.57 35.6499 113.36 35.7499 113.21 35.7699C112.96 35.7699 112.93 35.7599 112.92 35.7599C112.86 35.7499 112.81 35.6799 112.81 35.5799V35.5399C112.81 35.5399 112.83 35.2299 112.85 34.9499C112.87 34.4999 112.87 34.1699 112.87 33.1899V32.4399H111.19C110.69 32.4399 108.43 32.4899 107.87 32.5699C107.76 32.4599 107.61 32.0699 107.61 31.8999C108.21 31.9499 110.63 32.0399 111.51 32.0399H112.88V29.9499H110.06V30.3299C110.07 30.4199 110.07 30.5199 110.07 30.5899C110.07 30.7299 109.81 30.8499 109.59 30.8499C109.45 30.8499 109.33 30.7899 109.33 30.6399C109.33 30.4899 109.37 30.2499 109.38 30.0399C109.41 29.5799 109.41 28.7699 109.41 28.4799C109.41 28.4799 109.42 26.4899 109.42 26.1999C109.42 25.8399 109.37 25.2099 109.31 24.9099C109.54 24.9699 109.92 25.1599 110.18 25.3099H116.35C116.45 25.1699 116.58 25.0299 116.64 24.9999C116.68 24.9899 116.69 24.9899 116.7 24.9899C116.81 24.9899 117.45 25.3899 117.45 25.5999C117.45 25.7799 117.2 25.8599 117.02 25.9099V28.4199C117.02 28.4999 117.04 29.7499 117.11 30.4099C117.11 30.5999 116.85 30.7199 116.63 30.7199C116.48 30.7199 116.34 30.6599 116.34 30.5199C116.34 30.4699 116.35 30.2699 116.35 30.0299V29.9399H113.52V32.0299H117.23C117.49 31.6199 117.79 31.2899 117.87 31.2899C118 31.2899 118.99 31.9399 118.99 32.1799C118.99 32.2899 118.91 32.4299 118.73 32.4299H113.52L113.51 32.4399ZM116.36 25.6999H110.06V27.3799H116.36V25.6999ZM116.36 27.7699H110.05V29.5499H116.35C116.36 29.3599 116.36 29.1699 116.36 29.0199V27.7699Z" fill="white"/>
<path d="M127.76 28.1899V29.3799C127.86 29.4399 129.35 30.4199 129.35 31.1699C129.35 31.4199 129.25 31.6999 129.04 31.6999C128.94 31.6999 128.83 31.6199 128.78 31.4199C128.6 30.7799 128.18 30.1899 127.76 29.7299V32.1999C127.75 32.9999 127.77 34.4999 127.77 34.8699C127.77 35.2999 127.8 35.6199 127.8 35.6199C127.8 35.8099 127.6 35.9099 127.44 35.9099C127.28 35.9099 127.06 35.9099 127.06 35.6999V35.6499C127.09 35.2899 127.16 33.8299 127.17 32.1999C127.18 31.3299 127.23 30.2299 127.26 29.4199C127.1 29.9999 126.87 30.6399 126.68 31.0099C126.04 32.2399 125.02 33.3899 124.92 33.3899C124.86 33.3899 124.72 33.3099 124.72 33.2399C124.72 33.2099 124.72 33.1999 124.73 33.1899C125.7 32.0199 126.77 29.8799 127.11 28.1899H126.57C126.23 28.1899 125.44 28.2399 125.22 28.2699C125.12 28.1599 125.02 27.9099 125.02 27.7399C125.32 27.7899 126.58 27.8399 126.89 27.8399H127.22V25.8299C126.1 26.1699 125.15 26.3599 125.13 26.3599C125.04 26.3599 124.99 26.2499 124.99 26.1599C124.99 26.1199 125 26.0799 125.03 26.0699C126.5 25.7099 128.38 24.9399 128.72 24.4099C128.93 24.5199 129.49 24.9399 129.49 25.0999C129.49 25.1499 129.45 25.1899 129.41 25.2099C129.36 25.2499 129.28 25.2699 129.18 25.2699C129.09 25.2699 128.99 25.2599 128.88 25.2199C128.5 25.3799 128.13 25.5199 127.78 25.6499V27.8299H128.45C128.61 27.6399 128.74 27.4199 128.93 27.2499C128.94 27.2399 128.95 27.2299 128.98 27.2299C129.01 27.2299 129.85 27.8099 129.85 28.0199C129.85 28.1099 129.79 28.1799 129.62 28.1799H127.78L127.76 28.1899ZM129.62 26.3099C129.54 26.3099 129.51 26.1999 129.51 26.1099C129.51 26.0599 129.52 26.0099 129.56 26.0099C134.06 25.3099 134.58 24.7699 134.74 24.5299C135.43 24.9199 135.57 25.2199 135.57 25.3099C135.57 25.4099 135.46 25.4599 135.36 25.4599C135.25 25.4599 135.1 25.4099 134.96 25.3499C132.36 26.1199 129.75 26.3199 129.63 26.3199L129.62 26.3099ZM129.97 30.6799C129.97 30.2299 129.96 29.8899 129.87 29.2999C130.86 29.2999 130.96 29.4299 130.96 29.5899C130.96 29.6999 130.83 29.7999 130.57 29.8899V35.0199C130.57 35.3299 130.58 35.3999 130.58 35.4999C130.58 35.6399 130.46 35.7999 130.17 35.7999C130.04 35.7999 129.91 35.7599 129.91 35.5899V35.5599C129.91 35.4299 129.94 35.2499 129.95 34.9299C129.95 34.6199 129.98 32.0299 129.98 31.7599V30.6799H129.97ZM130.82 28.5399C130.66 27.9099 130.44 27.3199 129.97 26.8199C129.96 26.8099 129.94 26.7899 129.94 26.7699C129.94 26.7099 130.05 26.6399 130.15 26.6399C130.34 26.6399 131.45 27.8399 131.45 28.3599C131.45 28.6199 131.32 28.8699 131.12 28.8699C130.99 28.8699 130.88 28.7799 130.81 28.5299L130.82 28.5399ZM132.6 34.7799V34.9699C132.6 35.0799 132.61 35.3299 132.61 35.4099V35.4599C132.61 35.7599 132.25 35.7599 132.18 35.7599C131.98 35.7599 131.92 35.6699 131.92 35.5499V35.4899C131.94 35.3099 131.96 34.9599 131.96 34.8899C131.97 34.7299 132 34.4599 132.01 33.5399V30.9899C132.01 30.3999 131.98 29.7399 131.9 29.3099C132.19 29.4099 132.46 29.5599 132.71 29.7099H135.01C135.06 29.6499 135.25 29.3699 135.35 29.3699C135.46 29.3699 136.09 29.8299 136.09 30.0199C136.09 30.1099 136 30.2099 135.7 30.2699V33.3799C135.7 33.5299 135.71 34.4299 135.72 34.8599C135.73 34.9999 135.77 35.3599 135.77 35.3999C135.77 35.5899 135.63 35.7299 135.29 35.7299C135.13 35.7299 135.05 35.6399 135.05 35.4499C135.06 35.2499 135.07 34.9999 135.07 34.8999C135.08 34.8899 135.08 34.8399 135.08 34.7899H132.58L132.6 34.7799ZM132.7 28.2699C132.61 27.5899 132.5 27.1699 132.1 26.5999C132.09 26.5899 132.09 26.5799 132.09 26.5599C132.09 26.4799 132.19 26.4199 132.28 26.4199C132.51 26.4199 133.36 27.6099 133.36 28.0799C133.36 28.1599 133.3 28.6399 132.98 28.6399C132.85 28.6399 132.74 28.5399 132.7 28.2599V28.2699ZM135.1 33.5899V32.2699H132.59V34.4299H135.1V33.5899ZM135.11 30.0499H132.6V31.9199H135.11V30.0499ZM134.01 29.0999C133.92 29.0999 133.82 29.0199 133.82 28.9499C133.82 28.9299 133.83 28.9099 133.84 28.8899C134.86 27.3499 135.03 26.4399 135.06 26.0899C135.47 26.1999 136.15 26.4799 136.15 26.7199C136.15 26.7599 136.12 26.7999 136.09 26.8299C135.99 26.8899 135.9 26.9199 135.58 26.9299C134.89 28.1299 134.16 29.0999 134.01 29.0999Z" fill="white"/>
<path d="M152.19 34.2399H144.48V35.0199C144.48 35.0799 144.49 35.2999 144.49 35.3599C144.46 35.6999 144.11 35.7099 144.01 35.7099C143.83 35.7099 143.71 35.6499 143.71 35.4299V35.3799C143.71 35.3799 143.73 35.1699 143.75 34.9399C143.76 34.4799 143.8 33.4299 143.8 33.0799V27.0599C143.8 26.5599 143.79 26.0099 143.67 25.3899C143.91 25.4699 144.33 25.6499 144.64 25.8199H152.08C152.16 25.7299 152.42 25.4199 152.49 25.4199C152.6 25.4199 153.29 25.8499 153.29 26.0599C153.29 26.1599 153.2 26.2899 152.88 26.3899V32.8999C152.88 33.0499 152.9 34.6899 152.92 34.8199C152.92 34.9599 152.94 35.1999 152.94 35.2299C152.94 35.2599 152.93 35.5299 152.49 35.5299C152.25 35.5299 152.16 35.4399 152.16 35.2899C152.16 35.2399 152.17 34.8299 152.17 34.6999V34.2399H152.19ZM147.91 26.2099H144.47V29.6799H147.91V26.2099ZM147.91 30.0699H144.47V33.8299H147.91V30.0699ZM152.19 26.2099H148.59V29.6799H152.19V26.2099ZM152.19 33.0799V30.0699H148.59V33.8299H152.19V33.0799Z" fill="white"/>
<path d="M170.91 35.2999C170.91 35.2999 170.86 35.3499 170.82 35.3499C170.81 35.3499 170.8 35.3499 170.78 35.3399C168.36 34.1699 166.35 31.2799 165.93 28.9199C165.47 32.1399 163.66 34.3899 160.29 35.7799C160.28 35.7799 160.27 35.7899 160.25 35.7899C160.15 35.7899 160.04 35.6099 160.04 35.5399C160.04 35.5099 160.05 35.4999 160.06 35.4899C163.62 33.8199 164.98 31.1499 165.28 28.3799H164.19C163.66 28.3799 161.27 28.4199 160.68 28.4899C160.55 28.3399 160.4 27.9999 160.4 27.8399C161.03 27.9199 163.61 27.9799 164.5 27.9799H165.32C165.36 27.5999 165.36 27.2099 165.36 26.8399V26.5399C165.36 25.1999 165.34 24.8699 165.27 24.6699C166.54 24.6699 166.66 24.8499 166.66 24.9699C166.66 25.1299 166.4 25.2799 166.1 25.3299V25.5799C166.1 26.0799 166.07 26.6299 166.07 27.0799C166.07 27.3799 166.06 27.6799 166.03 27.9699H169.99C170.18 27.6799 170.54 27.2599 170.6 27.2599C170.71 27.2599 171.65 27.9099 171.65 28.1299C171.65 28.2399 171.57 28.3799 171.37 28.3799H166.14C166.55 30.6499 168.42 33.6199 171.68 34.6299C171.73 34.6399 171.76 34.6899 171.76 34.7599C171.76 34.8499 171.71 34.9499 171.67 34.9599C171.48 34.9899 171.16 35.0699 170.92 35.2999H170.9H170.91Z" fill="white"/>
<path d="M179.63 27.64C179.37 29.2 178.48 29.51 178.26 29.51C178.03 29.51 177.93 29.37 177.93 29.18C177.93 28.99 178.02 28.78 178.17 28.69C178.94 28.26 179.3 27.45 179.35 26.6C179.35 26.54 179.43 26.51 179.51 26.51C179.59 26.51 179.67 26.55 179.69 26.62C179.69 26.82 179.69 27.03 179.68 27.25H184.95C185.59 26.33 186.29 25 186.35 24.48C186.41 24.49 187.49 24.82 187.49 25.11C187.49 25.13 187.48 25.16 187.45 25.19C187.39 25.28 187.22 25.32 187 25.32H186.9C186.42 26.02 185.95 26.65 185.37 27.26H187.82C187.82 27.26 187.91 27.2 187.96 27.13C188.04 27.07 188.11 27 188.15 26.97C188.19 26.95 188.2 26.95 188.21 26.95C188.24 26.95 188.25 26.95 188.27 26.97C188.91 27.36 189.11 27.57 189.11 27.75C189.11 27.85 189.03 27.99 188.75 27.99C188.66 27.99 188.56 27.98 188.45 27.95C187.79 28.73 187.07 29.35 187 29.35C186.95 29.35 186.8 29.26 186.8 29.19C186.8 29.18 186.8 29.17 186.81 29.15C187.21 28.66 187.56 28.1 187.8 27.65H179.63V27.64ZM183.94 32.16V33.05C183.94 33.24 183.98 34.45 183.98 34.64V34.66C183.98 35.65 182.86 36.03 182.55 36.03C182.47 36.03 182.45 35.98 182.42 35.92C182.31 35.58 182.29 35.58 180.84 35.36C180.79 35.35 180.76 35.28 180.76 35.21C180.76 35.11 180.81 34.98 180.87 34.98H180.88C182.03 35.09 182.55 35.11 182.64 35.11C183.09 35.11 183.28 34.86 183.28 34.5V32.17H181.46C181.11 32.17 178.96 32.19 178.3 32.26C178.19 32.16 178.06 31.82 178.06 31.66C178.54 31.72 180.97 31.77 181.79 31.77H183.28C183.28 31.29 183.26 30.84 183.19 30.54C183.39 30.56 183.57 30.59 183.72 30.62C184.06 30.42 184.69 30.01 185.38 29.44H183.06C182.32 29.45 180.88 29.49 180.43 29.54C180.33 29.44 180.19 29.11 180.19 28.96C180.72 29.02 182.59 29.06 183.07 29.06H185.55C185.66 28.95 185.79 28.85 185.93 28.76C185.94 28.75 185.96 28.75 185.97 28.75C185.98 28.75 186.01 28.76 186.02 28.78C186.71 29.23 186.77 29.38 186.77 29.51C186.77 29.56 186.75 29.62 186.69 29.66C186.63 29.74 186.51 29.77 186.36 29.77C186.28 29.77 186.2 29.76 186.1 29.73C185.26 30.21 184.61 30.53 184.19 30.73C184.23 30.77 184.24 30.81 184.24 30.86C184.23 30.95 184.14 31.04 183.93 31.09V31.78H187.45C187.49 31.73 187.98 31.09 188.09 31.09C188.11 31.09 188.15 31.12 188.19 31.14C188.42 31.25 188.97 31.7 189.08 31.83C189.12 31.88 189.13 31.93 189.13 31.98C189.13 32.09 189.05 32.18 188.89 32.18H183.92L183.94 32.16ZM181.06 26.7C180.78 25.91 180.3 25.36 179.88 24.97C179.87 24.96 179.85 24.93 179.85 24.91C179.85 24.85 179.93 24.77 180.01 24.77C180.15 24.77 181.69 25.74 181.69 26.55C181.69 26.78 181.6 27.08 181.39 27.08C181.26 27.08 181.15 26.97 181.05 26.7H181.06ZM183.43 26.6C183.28 25.75 182.89 25.17 182.53 24.73C182.5 24.71 182.5 24.68 182.5 24.65C182.5 24.56 182.6 24.5 182.66 24.5C182.77 24.5 184.13 25.67 184.13 26.37C184.13 26.75 183.9 27.03 183.73 27.03C183.6 27.03 183.49 26.91 183.43 26.59V26.6Z" fill="white"/>
<path d="M115.72 54.1799C115.66 54.5799 115.61 54.8799 115.57 55.0199C115.04 57.1599 113.42 57.6999 112.99 57.6999C112.84 57.6999 112.79 57.6399 112.76 57.5499C112.66 57.1599 112.23 56.9899 110.94 56.6499C110.88 56.6399 110.85 56.5599 110.85 56.4899C110.85 56.3899 110.9 56.2799 111 56.2799H111.02C111.32 56.3399 111.89 56.5099 112.3 56.5699C113.18 56.6999 113.29 56.6999 113.33 56.6999C113.62 56.6999 114.66 56.5599 115.07 54.1899H111.38C110.85 54.1899 108.43 54.1999 107.84 54.2799C107.73 54.1999 107.63 53.8399 107.61 53.6799C108.12 53.7299 110.61 53.7899 111.72 53.7899H115.13C115.21 53.2899 115.27 52.6599 115.32 51.9799H110.93C110.91 52.0899 110.87 52.2099 110.84 52.2899C110.8 52.4099 110.78 52.4999 110.74 52.6499C110.7 52.8499 110.56 52.9099 110.4 52.9099C110.2 52.9099 110.01 52.8199 110.01 52.6599C110.01 52.6499 110.01 52.6199 110.02 52.5999C110.02 52.5999 110.16 52.2699 110.25 51.9799C111.02 49.4199 111.02 48.2699 111.02 48.1299C111.89 48.2599 112.07 48.3799 112.07 48.5199C112.07 48.6599 111.94 48.7499 111.62 48.7799C111.57 48.9899 111.51 49.2899 111.43 49.6499H115.27C115.33 49.5599 115.6 49.2099 115.82 49.0199C115.84 48.9999 115.87 48.9799 115.9 48.9799C115.93 48.9799 115.95 48.9899 115.96 48.9999C116.04 49.0399 116.93 49.5299 116.93 49.8199C116.93 49.9199 116.84 50.0199 116.65 50.0199H111.36C111.25 50.5499 111.13 51.1399 111.02 51.5999H115.32C115.61 51.2399 115.66 51.2399 115.67 51.2399C115.68 51.2399 116.44 51.6399 116.44 51.8799C116.44 52.0299 116.26 52.1699 115.95 52.2199C115.9 52.7799 115.82 53.3199 115.76 53.7799H117.18C117.24 53.6999 117.52 53.3199 117.78 53.0399C117.79 53.0199 117.82 53.0199 117.83 53.0199C117.91 53.0199 118.9 53.6999 118.9 53.9399C118.9 54.0499 118.82 54.1899 118.66 54.1899H115.7L115.72 54.1799ZM116.67 49.2399C116.61 49.2399 116.46 49.1499 116.46 49.0799C116.46 49.0699 116.46 49.0499 116.47 49.0399C116.71 48.7499 117.07 48.1899 117.26 47.7999H109.45C109.26 48.8999 108.53 49.7199 108.06 49.7199C107.78 49.7199 107.76 49.4699 107.76 49.3899C107.76 49.1999 107.85 48.9899 108 48.8999C108.77 48.4899 109.12 47.6299 109.17 46.7799C109.17 46.7299 109.26 46.6899 109.33 46.6899C109.43 46.6899 109.52 46.7299 109.52 46.7999C109.52 47.3099 109.51 47.3999 109.51 47.4299H117.31C117.61 47.0899 117.67 47.0799 117.7 47.0799C117.71 47.0799 117.73 47.0799 117.74 47.0899L117.77 47.1199C118.3 47.3999 118.6 47.7199 118.6 47.9199C118.6 48.0099 118.54 48.1299 118.27 48.1299C118.17 48.1299 118.06 48.1199 117.93 48.1099C117.52 48.5599 117.05 48.9999 116.7 49.2399H116.69H116.67Z" fill="white"/>
<path d="M126.47 56.8899C126.47 57.0999 126.48 57.3799 126.48 57.4299V57.4699C126.48 57.8599 126.02 57.8599 125.99 57.8599C125.78 57.8599 125.69 57.7499 125.69 57.5799C125.69 57.3799 125.74 56.8299 125.75 56.3999C125.76 56.2299 125.8 54.5099 125.8 53.4999V48.9899C125.79 48.3199 125.76 47.3499 125.65 46.6099C125.91 46.6899 126.35 46.8999 126.62 47.0499H134.99C134.99 47.0499 135.05 46.9599 135.08 46.9099C135.14 46.8099 135.22 46.7199 135.28 46.6599C135.3 46.6299 135.33 46.6299 135.34 46.6299C135.35 46.6299 135.38 46.6299 135.39 46.6399C135.72 46.7999 136.16 47.2299 136.16 47.3799C136.16 47.5199 135.95 47.5699 135.76 47.6099V52.8899C135.76 53.0499 135.78 55.9499 135.8 56.4299C135.8 56.5799 135.84 57.4099 135.84 57.4499C135.84 57.7899 135.49 57.8299 135.35 57.8299C135.14 57.8299 135.05 57.7499 135.05 57.5399C135.05 57.3799 135.06 57.0899 135.06 56.8999H126.48L126.47 56.8899ZM135.09 47.4199H126.46V53.4699C126.46 54.4599 126.47 55.9899 126.47 56.5199H135.06C135.07 55.7599 135.07 53.3199 135.07 53.1299V47.4199H135.09ZM131.81 50.1599H130.28C129.67 50.1599 128.01 50.1699 127.34 50.2499C127.21 50.1399 127.14 49.8599 127.13 49.6899C127.67 49.7399 129.43 49.7799 130.6 49.7799H131.8C131.8 49.3499 131.79 48.5899 131.69 48.0699C131.75 48.0699 132.92 48.1099 132.92 48.4099C132.92 48.4699 132.83 48.6499 132.44 48.7399V49.7799H132.94C132.94 49.7799 133.39 49.0999 133.52 49.0999C133.62 49.0999 134.54 49.7499 134.54 49.9799C134.54 50.0699 134.49 50.1699 134.33 50.1699H132.45V52.8299C132.45 53.0199 132.49 54.3299 132.49 54.5199C132.49 55.3999 131.49 55.8199 131.14 55.8199C131.08 55.8199 131.03 55.7699 130.99 55.7099C130.95 55.6299 130.91 55.5599 130.85 55.5099C130.8 55.4599 130.72 55.4099 130.6 55.3799C130.36 55.3299 129.72 55.2299 129.42 55.1699C129.34 55.1599 129.32 55.0699 129.32 54.9799C129.32 54.8899 129.36 54.7899 129.42 54.7899H129.43C130.01 54.8699 130.71 54.9499 131.01 54.9499H131.05C131.64 54.9499 131.82 54.6699 131.82 54.1499V50.1599H131.81ZM129.78 52.9499C129.39 52.1999 128.76 51.6299 128.22 51.2699C128.21 51.2599 128.2 51.2499 128.2 51.2199C128.2 51.1599 128.3 51.0199 128.39 51.0199C128.41 51.0199 130.45 51.8699 130.45 52.7599C130.45 52.7999 130.45 53.2699 130.15 53.2699C130.04 53.2699 129.91 53.1799 129.79 52.9399L129.78 52.9499Z" fill="white"/>
<path d="M146.34 52.65C145.61 51.94 144.43 51.55 144.01 51.45C143.92 51.42 143.85 51.36 143.85 51.27C143.85 51.17 143.94 51.09 144.05 51.09H144.07C144.65 51.09 146.43 51.5 146.8 51.99C146.93 52.17 146.99 52.37 146.99 52.53C146.99 52.79 146.83 52.87 146.75 52.87C146.64 52.87 146.5 52.79 146.34 52.64V52.65ZM146.96 56.19C146.9 56.25 146.83 56.32 146.78 56.38C146.69 56.48 146.58 56.58 146.4 56.58C146.09 56.58 144.76 55.97 144.76 55.24C144.76 55.11 144.84 55.01 144.94 55.01C145 55.01 145.07 55.05 145.14 55.15C145.27 55.31 145.68 55.61 146.09 55.61C146.17 55.61 146.24 55.6 146.32 55.57C148.74 54.6 152.05 51.19 153.11 49.56C153.16 49.48 153.22 49.45 153.3 49.45C153.4 49.45 153.49 49.53 153.49 49.65C153.49 50.04 150.63 53.99 147.16 56.03C147.08 56.07 147.02 56.12 146.97 56.18L146.96 56.19ZM147.42 50.32C146.75 49.48 145.73 49.04 145.25 48.85C145.15 48.81 145.1 48.75 145.1 48.69C145.1 48.6 145.2 48.52 145.35 48.52C145.55 48.52 147.58 49.1 147.93 49.74C148.02 49.89 148.06 50.07 148.06 50.22C148.06 50.38 148 50.6 147.81 50.6C147.71 50.6 147.57 50.52 147.42 50.34V50.32Z" fill="white"/>
<path d="M169.31 52.25C169.23 52.29 169.17 52.35 169.12 52.41C167.73 53.97 166.98 54.49 166.83 54.49C166.77 54.49 166.67 54.45 166.67 54.34C166.67 54.28 166.71 54.22 166.77 54.15C167.84 53.13 168.7 51.98 168.7 51.81C168.7 51.78 168.69 51.78 168.65 51.78H168.59C167.88 51.93 166.78 52.18 165.58 52.56C165.84 54.09 166.29 56.01 166.4 56.32C166.44 56.46 166.52 56.81 166.52 57.1C166.52 57.24 166.51 57.56 166.26 57.56C166.03 57.56 165.75 57.08 165.75 56.68C165.75 56.59 165.76 56.5 165.76 56.42C165.76 56.32 165.76 56.22 165.08 52.72C164.8 52.81 164.54 52.9 164.27 53C163.69 53.29 163.58 53.3 163.47 53.3C162.97 53.3 162.04 52.75 162.04 52.37C162.04 52.32 162.07 52.27 162.1 52.23C162.12 52.19 162.16 52.18 162.2 52.18C162.26 52.18 162.33 52.23 162.36 52.27C162.45 52.37 162.71 52.6 163.19 52.6C163.35 52.6 163.53 52.57 163.69 52.52C164.13 52.41 164.56 52.29 164.97 52.18C164.88 51.72 164.81 51.29 164.74 50.93C164.65 50.44 164.25 50.35 164 50.33C163.91 50.33 163.81 50.28 163.81 50.19C163.81 50.18 163.82 50.15 163.82 50.14C163.9 49.99 164.11 49.98 164.35 49.98C164.59 49.98 165.47 50.01 165.47 50.42V50.46C165.47 50.46 165.39 50.76 165.39 50.89V50.98C165.39 51.24 165.44 51.62 165.5 52.07C166.65 51.78 167.64 51.56 168.31 51.41C168.42 51.38 168.54 51.27 168.64 51.21C168.68 51.2 168.72 51.17 168.74 51.17H168.79C169.08 51.17 169.69 51.58 169.69 51.91C169.69 52 169.65 52.09 169.55 52.15L169.31 52.26V52.25Z" fill="white"/>
<path d="M181.94 55.7998C181.83 55.8398 181.68 55.9898 181.68 55.9998C181.62 56.0798 181.52 56.1298 181.42 56.1298C181.18 56.1298 180.6 55.6398 180.6 55.3798C180.6 55.2998 180.64 55.2398 180.68 55.1398C180.71 55.0898 180.73 55.0398 180.73 54.9598C180.81 54.4798 180.88 52.7698 180.88 51.1698C180.88 50.8598 180.87 50.5498 180.87 50.2698C180.87 49.6198 180.87 49.3398 180.02 49.1298C179.93 49.0998 179.89 49.0498 179.89 49.0098C179.89 48.9798 179.89 48.9598 179.9 48.9498C179.9 48.9398 179.95 48.7998 180.26 48.7998C180.84 48.7998 181.83 49.2098 181.83 49.5498C181.83 49.6398 181.79 49.7098 181.75 49.7898L181.71 49.8698C181.71 49.8698 181.69 49.9098 181.69 49.9198C181.6 50.1498 181.58 50.2298 181.58 50.4698C181.54 52.1598 181.42 54.8398 181.42 54.8998C181.42 54.9798 181.42 55.0898 181.48 55.0898H181.49C184.21 54.1698 186.93 51.4998 187.99 49.8698C188.03 49.8098 188.09 49.7798 188.14 49.7798C188.23 49.7798 188.3 49.8398 188.3 49.9698C188.3 50.4998 185.55 54.1098 182.17 55.6998C182.09 55.7398 182.04 55.7498 182.02 55.7798L181.94 55.8198V55.7998Z" fill="white"/>
<path d="M204.32 52.4399C203.76 52.4499 202.24 52.4599 200.85 52.4899C199.45 52.5199 198.17 52.5399 198.07 52.5499C197.87 52.5999 197.76 52.6599 197.63 52.6599C197.19 52.6599 196.33 51.7299 196.33 51.2499C196.33 51.1499 196.38 51.0999 196.43 51.0999C196.47 51.0999 196.51 51.1299 196.53 51.1599C197.08 51.8099 197.46 51.8499 198.27 51.8499C199.7 51.8499 203.39 51.7399 204.52 51.6999H204.72C204.81 51.6999 205.95 51.6999 205.95 52.0299C205.95 52.1899 205.65 52.3599 205.16 52.3799C205.1 52.3899 204.65 52.4299 204.33 52.4299L204.32 52.4399Z" fill="white"/>
<path d="M218.01 52.1C218.01 53.58 218.04 55.2 218.07 56.23V56.37C218.07 56.51 218.06 57.31 217.68 57.31C217.37 57.31 217.15 56.57 217.15 56.16C217.15 56.01 217.15 55.97 217.25 55.68C217.27 55.63 217.29 55.56 217.31 55.43C217.36 55.02 217.41 52.77 217.41 50.84C217.41 48.54 217.37 48.28 217.2 48.14C217.07 48.02 216.89 47.94 216.62 47.85C216.51 47.81 216.46 47.75 216.46 47.7C216.46 47.54 216.64 47.51 216.79 47.51C217.15 47.51 217.73 47.71 218.16 47.97C218.27 48.03 218.32 48.12 218.32 48.22C218.32 48.28 218.3 48.36 218.27 48.43C218.12 48.72 218.03 49.41 218.01 51.01C219.29 51.25 220.81 51.84 221.57 52.44C221.77 52.59 221.9 52.93 221.9 53.17C221.9 53.45 221.69 53.47 221.69 53.47C221.59 53.47 221.45 53.41 221.28 53.26C220.5 52.61 219.3 51.86 218.02 51.43V52.1H218.01ZM221.39 49.97C220.89 49.3 220.22 48.95 219.68 48.72C219.6 48.68 219.57 48.63 219.57 48.6C219.57 48.52 219.68 48.46 219.8 48.46C219.9 48.46 221.89 48.77 221.89 49.87C221.89 50.05 221.81 50.18 221.68 50.18C221.59 50.18 221.5 50.12 221.39 49.98V49.97ZM222.56 49.14C222.02 48.51 221.33 48.2 220.78 47.99C220.7 47.95 220.67 47.91 220.67 47.88C220.67 47.8 220.77 47.73 220.9 47.73C221.67 47.74 223.06 48.19 223.06 49.03C223.06 49.19 222.98 49.32 222.85 49.32C222.77 49.32 222.69 49.28 222.57 49.14H222.56Z" fill="white"/>
</svg>
